<svg xmlns="http://www.w3.org/2000/svg" width="8.502" height="9.717" viewBox="0 0 8.502 9.717">
  <g id="password" transform="translate(-32)" opacity="0.5">
    <g id="Group_2391" data-name="Group 2391" transform="translate(32)">
      <g id="Group_2390" data-name="Group 2390">
        <circle id="Ellipse_1082" data-name="Ellipse 1082" cx="0.5" cy="0.5" r="0.5" transform="translate(6.252 5.858)"/>
        <path id="Path_11275" data-name="Path 11275" d="M40.122,6.87a.38.38,0,0,0,.38-.38v-1.4a1.52,1.52,0,0,0-1.518-1.518h-.456V2.229a2.278,2.278,0,0,0-4.555,0V3.568h-.455A1.52,1.52,0,0,0,32,5.086V8.2a1.52,1.52,0,0,0,1.518,1.518h5.466A1.52,1.52,0,0,0,40.5,8.2a.38.38,0,1,0-.759,0,.76.76,0,0,1-.759.759H33.518a.76.76,0,0,1-.759-.759V5.086a.76.76,0,0,1,.759-.759h5.466a.76.76,0,0,1,.759.759v1.4A.38.38,0,0,0,40.122,6.87Zm-2.354-3.3H34.732V2.229a1.519,1.519,0,0,1,3.036,0Z" transform="translate(-32 0)"/>
        <circle id="Ellipse_1083" data-name="Ellipse 1083" cx="0.5" cy="0.5" r="0.5" transform="translate(3.252 5.858)"/>
        <ellipse id="Ellipse_1084" data-name="Ellipse 1084" cx="1" cy="0.5" rx="1" ry="0.5" transform="translate(1.252 5.858)"/>
        <circle id="Ellipse_1085" data-name="Ellipse 1085" cx="0.5" cy="0.5" r="0.5" transform="translate(4.252 5.858)"/>
      </g>
    </g>
  </g>
</svg>
