<svg height='100px' width='100px'  fill="#0e0e0e" xmlns:dc="http://purl.org/dc/elements/1.1/" xmlns:cc="http://creativecommons.org/ns#" xmlns:rdf="http://www.w3.org/1999/02/22-rdf-syntax-ns#" xmlns:svg="http://www.w3.org/2000/svg" xmlns="http://www.w3.org/2000/svg" xmlns:sodipodi="http://sodipodi.sourceforge.net/DTD/sodipodi-0.dtd" xmlns:inkscape="http://www.inkscape.org/namespaces/inkscape" version="1.1" x="0px" y="0px" viewBox="0 0 100 100"><g transform="translate(0,-952.36218)"><path style="text-indent:0;text-transform:none;direction:ltr;block-progression:tb;baseline-shift:baseline;color:#000000;enable-background:accumulate;" d="m 43,966.35753 c -2.312021,-5.8e-4 -4,1.88719 -4,4.00028 l 0,8.00056 a 1.0001,1.0001705 0 1 0 2,0 l 0,-8.00056 c 0,-1.12498 0.711373,-2.00046 2,-2.00014 15.216795,9e-5 30.783217,0 46,0 1.288905,0 2,0.87516 2,2.00014 l 0,30.00209 c 0,1.1249 -0.711467,2.0002 -2,2.0002 l -4,0 a 1.0001,1.0001705 0 0 0 -1,1 l 0,8.8132 -11.34375,-9.5945 A 1.0001,1.0001705 0 0 0 72,1002.3601 l -6,0 a 1.0001,1.0001705 0 1 0 0,2.0001 l 5.625,0 12.71875,10.7508 A 1.0001,1.0001705 0 0 0 86,1014.3609 l 0,-10.0007 3,0 c 2.311547,0 4,-1.8871 4,-4.0003 l 0,-30.00209 c 0,-2.11309 -1.688257,-4.00028 -4,-4.00028 -15.216791,0 -30.783221,9e-5 -46,0 z m -32,17.0012 c -2.311743,0 -4,1.88719 -4,4.00028 l 0,30.00209 c 0,2.1132 1.6884528,4.0003 4,4.0003 l 3,0 0,10.0007 a 1.0001,1.0001705 0 0 0 1.65625,0.7501 l 12.71875,-10.7508 28.75,0 c 2.31175,0 3.875,-1.9329 3.875,-4.0003 l 0,-30.00209 c 0,-2.11309 -1.687979,-4.00086 -4,-4.00028 -8.514167,5e-5 -17.389398,10e-6 -26,0 a 1.0001,1.0001705 0 1 0 0,2.00014 c 8.610602,10e-6 17.485823,5e-5 26,0 1.288627,-3.2e-4 2,0.87516 2,2.00014 l 0,30.00209 c 0,1.1707 -0.586102,2.0002 -1.875,2.0002 l -29.125,0 a 1.0001,1.0001705 0 0 0 -0.65625,0.2187 L 16,1029.1745 l 0,-8.8132 a 1.0001,1.0001705 0 0 0 -1,-1 l -4,0 c -1.2885328,0 -2,-0.8753 -2,-2.0002 l 0,-30.00209 c 0,-1.12498 0.7110952,-2.00014 2,-2.00014 l 14,0 a 1.0001,1.0001705 0 1 0 0,-2.00014 l -14,0 z" fill="#0e0e0e" fill-opacity="1" stroke="none" marker="none" visibility="visible" display="inline" overflow="visible"></path></g></svg>