<svg xmlns="http://www.w3.org/2000/svg" width="8.564" height="10.387" viewBox="0 0 8.564 10.387">
  <g id="docs" transform="translate(-44.943)">
    <g id="Group_2379" data-name="Group 2379" transform="translate(44.944)">
      <g id="Group_2378" data-name="Group 2378">
        <path id="Path_11257" data-name="Path 11257" d="M53.445,2.574,50.934.062A.212.212,0,0,0,50.784,0h-4.81a1.031,1.031,0,0,0-1.03,1.03V9.357a1.031,1.031,0,0,0,1.03,1.03h6.5a1.031,1.031,0,0,0,1.03-1.03V2.724A.212.212,0,0,0,53.445,2.574ZM51,.724l1.788,1.788H51.6A.606.606,0,0,1,51,1.905Zm2.088,8.633a.607.607,0,0,1-.606.606h-6.5a.607.607,0,0,1-.606-.606V1.03a.607.607,0,0,1,.606-.606h4.6V1.905a1.03,1.03,0,0,0,1.03,1.03h1.481V9.357Z" transform="translate(-44.944)"/>
      </g>
    </g>
    <g id="Group_2381" data-name="Group 2381" transform="translate(49.306 7.131)">
      <g id="Group_2380" data-name="Group 2380">
        <path id="Path_11258" data-name="Path 11258" d="M260.272,351.492h-.095a.212.212,0,0,0,0,.424h.095a.212.212,0,1,0,0-.424Z" transform="translate(-259.965 -351.492)"/>
      </g>
    </g>
    <g id="Group_2383" data-name="Group 2383" transform="translate(46.561 7.131)">
      <g id="Group_2382" data-name="Group 2382">
        <path id="Path_11259" data-name="Path 11259" d="M126.94,351.492h-2.059a.212.212,0,1,0,0,.424h2.059a.212.212,0,1,0,0-.424Z" transform="translate(-124.669 -351.492)"/>
      </g>
    </g>
    <g id="Group_2385" data-name="Group 2385" transform="translate(46.561 6.162)">
      <g id="Group_2384" data-name="Group 2384" transform="translate(0)">
        <path id="Path_11260" data-name="Path 11260" d="M129.787,303.747h-4.9a.212.212,0,1,0,0,.424h4.9a.212.212,0,1,0,0-.424Z" transform="translate(-124.67 -303.747)"/>
      </g>
    </g>
    <g id="Group_2387" data-name="Group 2387" transform="translate(46.561 5.194)">
      <g id="Group_2386" data-name="Group 2386" transform="translate(0)">
        <path id="Path_11261" data-name="Path 11261" d="M129.787,256h-4.9a.212.212,0,0,0,0,.424h4.9a.212.212,0,0,0,0-.424Z" transform="translate(-124.67 -256)"/>
      </g>
    </g>
    <g id="Group_2389" data-name="Group 2389" transform="translate(46.561 4.225)">
      <g id="Group_2388" data-name="Group 2388" transform="translate(0)">
        <path id="Path_11262" data-name="Path 11262" d="M129.787,208.255h-4.9a.212.212,0,0,0,0,.424h4.9a.212.212,0,0,0,0-.424Z" transform="translate(-124.67 -208.255)"/>
      </g>
    </g>
  </g>
</svg>
