<svg xmlns="http://www.w3.org/2000/svg" width="8.932" height="8.932" viewBox="0 0 8.932 8.932">
  <path id="exit" d="M6.8,6.838v.7a1.4,1.4,0,0,1-1.4,1.4H1.9a1.4,1.4,0,0,1-1.4-1.4V1.4A1.4,1.4,0,0,1,1.9,0H5.4A1.4,1.4,0,0,1,6.8,1.4v.7a.349.349,0,0,1-.7,0V1.4A.7.7,0,0,0,5.4.7H1.9a.7.7,0,0,0-.7.7v6.14a.7.7,0,0,0,.7.7H5.4a.7.7,0,0,0,.7-.7v-.7a.349.349,0,0,1,.7,0ZM9.176,3.866l-.781-.781a.349.349,0,1,0-.493.493l.556.556H4.268a.349.349,0,0,0,0,.7H8.457L7.9,5.388a.349.349,0,1,0,.493.493L9.176,5.1a.873.873,0,0,0,0-1.233Zm0,0" transform="translate(-0.5)" opacity="0.6"/>
</svg>
