<svg id="user" xmlns="http://www.w3.org/2000/svg" width="10.982" height="10.982" viewBox="0 0 10.982 10.982">
  <g id="Group_2373" data-name="Group 2373">
    <g id="Group_2372" data-name="Group 2372">
      <path id="Path_11254" data-name="Path 11254" d="M5.491,0a5.491,5.491,0,1,0,5.491,5.491A5.5,5.5,0,0,0,5.491,0Zm0,10.5A5.014,5.014,0,1,1,10.5,5.491,5.019,5.019,0,0,1,5.491,10.5Z"/>
    </g>
  </g>
  <g id="Group_2375" data-name="Group 2375" transform="translate(2.387 5.252)">
    <g id="Group_2374" data-name="Group 2374">
      <path id="Path_11255" data-name="Path 11255" d="M109.77,234.667a3.107,3.107,0,0,0-3.1,3.1.239.239,0,1,0,.478,0,2.626,2.626,0,1,1,5.252,0,.239.239,0,0,0,.478,0A3.107,3.107,0,0,0,109.77,234.667Z" transform="translate(-106.666 -234.667)"/>
    </g>
  </g>
  <g id="Group_2377" data-name="Group 2377" transform="translate(3.82 1.432)">
    <g id="Group_2376" data-name="Group 2376">
      <path id="Path_11256" data-name="Path 11256" d="M172.337,64a1.671,1.671,0,1,0,1.671,1.671A1.673,1.673,0,0,0,172.337,64Zm0,2.865a1.194,1.194,0,1,1,1.194-1.194A1.2,1.2,0,0,1,172.337,66.865Z" transform="translate(-170.666 -64)"/>
    </g>
  </g>
</svg>
