<svg id="speech-bubble" xmlns="http://www.w3.org/2000/svg" width="8.654" height="8.654" viewBox="0 0 8.654 8.654">
  <g id="Page-1_6_" transform="translate(0 0)">
    <g id="_x30_07---Love-Message" transform="translate(0 0)">
      <path id="Shape_29_" d="M52.363,64.619c.178.15.369.311.573.49a.276.276,0,0,0,.18.066.281.281,0,0,0,.182-.067c.2-.178.4-.34.573-.49A4.022,4.022,0,0,0,55.2,63.14a.206.206,0,0,0,.216-.036c.1-.089.2-.17.286-.245.423-.357.729-.614.729-1.018a.671.671,0,0,0-.649-.7.706.706,0,0,0-.5.209.706.706,0,0,0-.5-.209.629.629,0,0,0-.53.3,1.133,1.133,0,0,0-.119-.007,1.29,1.29,0,0,0-1.01.486,1.29,1.29,0,0,0-1.01-.486,1.186,1.186,0,0,0-1.154,1.264C50.952,63.43,51.513,63.9,52.363,64.619Zm2.412-3.195a.446.446,0,0,1,.377.22.144.144,0,0,0,.126.076.151.151,0,0,0,.128-.076.446.446,0,0,1,.377-.221.385.385,0,0,1,.361.416c0,.258-.2.441-.627.8-.075.063-.155.13-.239.2l-.239-.2c-.423-.357-.627-.54-.627-.8a.385.385,0,0,1,.361-.416Zm-2.668.288a1.033,1.033,0,0,1,.882.517.144.144,0,0,0,.255,0,1.033,1.033,0,0,1,.883-.517h.011a.792.792,0,0,0-.011.127c0,.4.306.662.729,1.018l.1.088c-.121.477-.586.87-1.274,1.45-.177.15-.367.31-.569.487-.2-.176-.391-.336-.567-.484-.816-.688-1.308-1.1-1.308-1.71A.9.9,0,0,1,52.106,61.713Z" transform="translate(-50.231 -60.271)"/>
      <path id="Shape_28_" d="M.865,5.769H1.01V6.7a.363.363,0,0,0,.22.336.375.375,0,0,0,.15.031.362.362,0,0,0,.247-.1l.17-.155a.868.868,0,0,0,.8.541H5.713l1.314,1.2a.363.363,0,0,0,.247.1.372.372,0,0,0,.15-.032.363.363,0,0,0,.22-.336v-.93h.144a.866.866,0,0,0,.865-.865V2.452a.866.866,0,0,0-.865-.865H6.923V.865A.866.866,0,0,0,6.058,0H.865A.866.866,0,0,0,0,.865V4.9a.866.866,0,0,0,.865.865ZM6.923,4.9V1.875h.865a.577.577,0,0,1,.577.577V6.49a.577.577,0,0,1-.577.577H7.5a.144.144,0,0,0-.144.144V8.286a.079.079,0,0,1-.133.058L5.867,7.1a.144.144,0,0,0-.1-.037H2.6A.577.577,0,0,1,2.033,6.6l.908-.829H6.058A.866.866,0,0,0,6.923,4.9ZM.288.865A.577.577,0,0,1,.865.289H6.058a.577.577,0,0,1,.577.577V4.9a.577.577,0,0,1-.577.577H2.885a.144.144,0,0,0-.1.038L1.431,6.758A.079.079,0,0,1,1.3,6.7V5.625a.144.144,0,0,0-.144-.144H.865A.577.577,0,0,1,.288,4.9V.865Z" transform="translate(0 0)"/>
    </g>
  </g>
</svg>
