<svg xmlns="http://www.w3.org/2000/svg" width="10.152" height="10.153" viewBox="0 0 10.152 10.153">
  <g id="process" transform="translate(-23.682 -23.682)" opacity="0.6">
    <path id="Path_11276" data-name="Path 11276" d="M51.807,56.008l-.6-.475a.22.22,0,0,0-.273.346l.023.018a1.379,1.379,0,0,1-.561-2.29.22.22,0,1,0-.312-.312,1.818,1.818,0,0,0,.987,3.079l-.137.109a.22.22,0,0,0,.273.346l.6-.475a.22.22,0,0,0,0-.346Z" transform="translate(-22.612 -25.828)"/>
    <path id="Path_11277" data-name="Path 11277" d="M43.386,40.417a2.969,2.969,0,1,0,2.969,2.969,2.969,2.969,0,0,0-2.969-2.969Zm0,5.5a2.529,2.529,0,1,1,2.529-2.529A2.529,2.529,0,0,1,43.386,45.915Z" transform="translate(-14.628 -14.628)"/>
    <path id="Path_11278" data-name="Path 11278" d="M33.614,27.874h-.873a4.023,4.023,0,0,0-.541-1.306l.618-.617a.22.22,0,0,0,0-.312l-.939-.939a.22.22,0,0,0-.311,0l-.618.617a4.021,4.021,0,0,0-1.306-.541V23.9a.22.22,0,0,0-.22-.22H28.094a.22.22,0,0,0-.22.22v.873a4.021,4.021,0,0,0-1.306.541l-.617-.618a.22.22,0,0,0-.311,0l-.939.939a.22.22,0,0,0,0,.312l.617.618a4.023,4.023,0,0,0-.541,1.306H23.9a.22.22,0,0,0-.22.22v1.328a.22.22,0,0,0,.22.22h.873a4.023,4.023,0,0,0,.541,1.306l-.618.618a.22.22,0,0,0,0,.312l.939.939a.22.22,0,0,0,.311,0l.617-.618a4.021,4.021,0,0,0,1.306.541v.873a.22.22,0,0,0,.22.22h1.328a.22.22,0,0,0,.22-.22v-.873a4.021,4.021,0,0,0,1.306-.541l.618.618a.22.22,0,0,0,.311,0l.939-.939a.22.22,0,0,0,0-.312l-.618-.617a4.023,4.023,0,0,0,.541-1.306h.873a.22.22,0,0,0,.22-.22V28.094a.22.22,0,0,0-.22-.22Zm-.22,1.328H32.56a.22.22,0,0,0-.217.183,3.592,3.592,0,0,1-.607,1.465.22.22,0,0,0,.024.283l.59.59-.628.628-.59-.59a.22.22,0,0,0-.283-.024,3.594,3.594,0,0,1-1.465.607.22.22,0,0,0-.183.217v.834h-.887V32.56a.22.22,0,0,0-.183-.217,3.594,3.594,0,0,1-1.465-.607.22.22,0,0,0-.283.024l-.59.59-.628-.628.59-.59a.22.22,0,0,0,.024-.283,3.592,3.592,0,0,1-.607-1.465.22.22,0,0,0-.217-.183h-.834v-.887h.834a.22.22,0,0,0,.217-.183,3.592,3.592,0,0,1,.607-1.465.22.22,0,0,0-.024-.283l-.59-.59.628-.628.59.59a.22.22,0,0,0,.283.024,3.594,3.594,0,0,1,1.465-.607.22.22,0,0,0,.183-.217v-.834H29.2v.834a.22.22,0,0,0,.183.217,3.594,3.594,0,0,1,1.465.607.22.22,0,0,0,.283-.024l.59-.59.628.628-.59.59a.22.22,0,0,0-.024.283,3.592,3.592,0,0,1,.607,1.465.22.22,0,0,0,.217.183h.834Z" transform="translate(0 0)"/>
    <path id="Path_11279" data-name="Path 11279" d="M60.684,46.276l.137-.109a.22.22,0,1,0-.273-.346l-.6.475a.22.22,0,0,0,0,.346l.6.475a.22.22,0,1,0,.273-.346l-.023-.018a1.379,1.379,0,0,1,.561,2.29.22.22,0,1,0,.312.312,1.818,1.818,0,0,0-.987-3.08Z" transform="translate(-31.626 -19.31)"/>
  </g>
</svg>
