<svg width="60" height="59" viewBox="0 0 60 59" fill="none" xmlns="http://www.w3.org/2000/svg">
<rect width="60" height="59" rx="8" fill="#F4F6FA"/>
<path d="M23.25 38.6667C22.9167 38.6667 22.625 38.5417 22.375 38.2917C22.125 38.0417 22 37.75 22 37.4167V23.25C22 22.9167 22.125 22.625 22.375 22.375C22.625 22.125 22.9167 22 23.25 22H37.4167C37.75 22 38.0417 22.125 38.2917 22.375C38.5417 22.625 38.6667 22.9167 38.6667 23.25V37.4167C38.6667 37.75 38.5417 38.0417 38.2917 38.2917C38.0417 38.5417 37.75 38.6667 37.4167 38.6667H23.25ZM23.25 33.5417V37.4167H27.1458V33.5417H23.25ZM28.3958 33.5417V37.4167H32.2708V33.5417H28.3958ZM33.5208 37.4167H37.4167V33.5417H33.5208V37.4167ZM23.25 32.2917H27.1458V28.3958H23.25V32.2917ZM28.3958 32.2917H32.2708V28.3958H28.3958V32.2917ZM33.5208 32.2917H37.4167V28.3958H33.5208V32.2917ZM27.1458 23.25H23.25V27.1458H27.1458V23.25ZM28.3958 27.1458H32.2708V23.25H28.3958V27.1458ZM33.5208 27.1458H37.4167V23.25H33.5208V27.1458Z" fill="#212244"/>
</svg>
