<svg width="55" height="55" viewBox="0 0 55 55" fill="none" xmlns="http://www.w3.org/2000/svg">
<path d="M38.9584 20.6251L38.154 20.6594C37.2226 17.9689 35.4746 15.6363 33.1539 13.9868C30.8332 12.3374 28.0555 11.4535 25.2084 11.4584C17.6252 11.4584 11.4584 17.6253 11.4584 25.2084L11.4607 25.4971C9.49354 26.0074 7.75123 27.1557 6.5067 28.7623C5.26217 30.3688 4.58574 32.3428 4.58337 34.3751C4.58337 39.4305 8.69462 43.5417 13.75 43.5417H25.2084V33.0321L22.2452 35.9953C22.0329 36.2088 21.7805 36.3783 21.5024 36.4939C21.2244 36.6096 20.9262 36.6691 20.625 36.6691C20.3239 36.6691 20.0257 36.6096 19.7477 36.4939C19.4696 36.3783 19.2172 36.2088 19.0048 35.9953C18.7918 35.7826 18.6229 35.5301 18.5076 35.2521C18.3923 34.9741 18.3329 34.676 18.3329 34.3751C18.3329 34.0741 18.3923 33.7761 18.5076 33.4981C18.6229 33.22 18.7918 32.9675 19.0048 32.7549L25.8775 25.8821C26.0904 25.6687 26.3433 25.4994 26.6217 25.3839C26.9001 25.2683 27.1986 25.2089 27.5 25.2089C27.8015 25.2089 28.0999 25.2683 28.3784 25.3839C28.6568 25.4994 28.9097 25.6687 29.1225 25.8821L35.9952 32.7549C36.425 33.1846 36.6664 33.7674 36.6664 34.3751C36.6664 34.9828 36.425 35.5656 35.9952 35.9953C35.5655 36.425 34.9827 36.6664 34.375 36.6664C33.7673 36.6664 33.1845 36.425 32.7548 35.9953L29.7917 33.0321V43.5417H38.9584C45.2765 43.5417 50.4167 38.4015 50.4167 32.0834C50.4167 25.7653 45.2765 20.6251 38.9584 20.6251Z" fill="white"/>
</svg>
