<svg width="55" height="55" viewBox="0 0 55 55" fill="none" xmlns="http://www.w3.org/2000/svg">
<path d="M51.7046 23.415H44.9616V16.7011C44.9616 16.7011 45.5963 16.9503 45.918 17.2654C47.0136 18.339 49.6234 20.9576 51.066 22.4074C51.6694 23.0135 51.7046 23.415 51.7046 23.415ZM39.0931 14.8377H35.4691V10.7644C35.4691 10.7644 36.0774 11.1219 36.2804 11.3716C36.9833 12.2384 39.0931 14.8377 39.0931 14.8377ZM30.0901 8.79764H26.4656V4.72379C26.4656 4.72379 26.7769 4.74139 27.4754 5.57574C28.1409 6.37159 30.0901 8.79764 30.0901 8.79764ZM9.51792 9.99224V37.6682C9.51792 37.6682 5.61457 37.6682 4.26322 37.6682C3.49597 37.6682 2.90417 37.1644 2.90417 36.3515C2.90417 31.8646 2.90417 13.0695 2.90417 5.99044C2.90417 5.27214 3.29632 4.30469 4.52117 4.30469C9.70878 4.30469 25.2716 4.30469 25.2716 4.30469V8.79709H10.7125C10.0525 8.79764 9.51792 9.33279 9.51792 9.99224ZM18.5209 16.0323V43.7083C18.5209 43.7083 14.0846 43.7083 12.4747 43.7083C11.8048 43.7083 11.0656 42.9829 11.0656 42.2316C11.0656 36.6678 11.0656 11.9805 11.0656 11.8831C11.0656 10.7089 11.6519 10.3459 12.6859 10.3459C12.7998 10.3459 34.274 10.3459 34.274 10.3459V14.8377H19.7155C19.0555 14.8377 18.5209 15.3723 18.5209 16.0323ZM20.0284 49.2221C20.0284 43.562 20.0284 17.9975 20.0284 17.9331C20.0284 17.0801 20.4514 16.2804 21.4529 16.2804C21.6003 16.2804 43.6977 16.2804 43.6977 16.2804V24.0475C43.6977 24.3967 43.9809 24.6794 44.3296 24.6794H52.0962C52.0962 24.6794 52.0962 43.215 52.0962 49.5246C52.0962 50.0757 51.5819 50.6955 50.9571 50.6955C46.9157 50.6955 28.3851 50.6955 21.5349 50.6955C20.8122 50.6955 20.0284 50.112 20.0284 49.2221ZM47.821 28.0141H24.3041C23.9549 28.0141 23.6722 28.2968 23.6722 28.646V46.6294C23.6722 46.9786 23.9554 47.2613 24.3041 47.2613H47.821C48.1703 47.2613 48.453 46.9786 48.453 46.6294V28.646C48.453 28.2968 48.1703 28.0141 47.821 28.0141ZM32.6108 32.8816C33.042 32.8816 33.3945 33.2341 33.3945 33.6653V38.8436C33.3945 39.2748 33.042 39.6273 32.6108 39.6273H30.1072C29.676 39.6273 29.3234 39.2748 29.3234 38.8436V33.6653C29.3234 33.2341 29.676 32.8816 30.1072 32.8816H32.6108ZM34.0265 33.6653C34.0265 33.2341 34.379 32.8816 34.8102 32.8816H37.3133C37.7445 32.8816 38.097 33.2341 38.097 33.6653V38.8436C38.097 39.2748 37.7445 39.6273 37.3133 39.6273H34.8102C34.379 39.6273 34.0265 39.2748 34.0265 38.8436V33.6653ZM28.6849 31.4648C28.6849 31.896 28.3323 32.2485 27.9011 32.2485H25.7204C25.2892 32.2485 24.9366 31.896 24.9366 31.4648V30.0623C24.9366 29.6311 25.2892 29.2785 25.7204 29.2785H27.9011C28.3323 29.2785 28.6849 29.6311 28.6849 30.0623V31.4648V31.4648ZM29.3234 41.0436C29.3234 40.6124 29.676 40.2598 30.1072 40.2598H32.6108C33.042 40.2598 33.3945 40.6124 33.3945 41.0436V45.2137C33.3945 45.6449 33.042 45.9974 32.6108 45.9974H30.1072C29.676 45.9974 29.3234 45.6449 29.3234 45.2137V41.0436V41.0436ZM34.0265 41.0436C34.0265 40.6124 34.379 40.2598 34.8102 40.2598H37.3133C37.7445 40.2598 38.097 40.6124 38.097 41.0436V45.2137C38.097 45.6449 37.7445 45.9974 37.3133 45.9974H34.8102C34.379 45.9974 34.0265 45.6449 34.0265 45.2137V41.0436ZM38.7301 41.0436C38.7301 40.6124 39.0826 40.2598 39.5138 40.2598H42.0174C42.4486 40.2598 42.8012 40.6124 42.8012 41.0436V45.2137C42.8012 45.6449 42.4486 45.9974 42.0174 45.9974H39.5138C39.0826 45.9974 38.7301 45.6449 38.7301 45.2137V41.0436V41.0436ZM39.5138 39.6273C39.0826 39.6273 38.7301 39.2748 38.7301 38.8436V33.6653C38.7301 33.2341 39.0826 32.8816 39.5138 32.8816H42.0174C42.4486 32.8816 42.8012 33.2341 42.8012 33.6653V38.8436C42.8012 39.2748 42.4486 39.6273 42.0174 39.6273H39.5138ZM43.4337 33.6653C43.4337 33.2341 43.7862 32.8816 44.2174 32.8816H46.4048C46.836 32.8816 47.1885 33.2341 47.1885 33.6653V38.8436C47.1885 39.2748 46.836 39.6273 46.4048 39.6273H44.2174C43.7862 39.6273 43.4337 39.2748 43.4337 38.8436V33.6653ZM44.2174 45.9974C43.7862 45.9974 43.4337 45.6449 43.4337 45.2137V41.0436C43.4337 40.6124 43.7862 40.2598 44.2174 40.2598H46.4048C46.836 40.2598 47.1885 40.6124 47.1885 41.0436V45.2137C47.1885 45.6449 46.836 45.9974 46.4048 45.9974H44.2174ZM26.8275 31.6199C27.2961 31.6199 27.6773 31.2382 27.6773 30.7701C27.6773 30.3015 27.2961 29.9209 26.8275 29.9209C26.3589 29.9209 25.9778 30.3021 25.9778 30.7701C25.9778 31.2382 26.3589 31.6199 26.8275 31.6199ZM24.9361 45.7945C24.9361 45.6828 24.9878 45.5915 25.2034 45.5915H28.4555C28.6711 45.5915 28.6909 45.6828 28.6909 45.7945C28.6909 45.9061 28.6711 45.9974 28.4555 45.9974H25.2034C24.9878 45.9974 24.9361 45.9061 24.9361 45.7945ZM24.9361 44.7412C24.9361 44.6296 24.9878 44.5383 25.2034 44.5383H28.4555C28.6711 44.5383 28.6909 44.6296 28.6909 44.7412C28.6909 44.8529 28.6711 44.9442 28.4555 44.9442H25.2034C24.9878 44.9442 24.9361 44.8529 24.9361 44.7412ZM24.9361 43.688C24.9361 43.5763 24.9878 43.485 25.2034 43.485H28.4555C28.6711 43.485 28.6909 43.5763 28.6909 43.688C28.6909 43.7996 28.6711 43.8904 28.4555 43.8904H25.2034C24.9878 43.8904 24.9361 43.7991 24.9361 43.688ZM24.9361 42.6342C24.9361 42.5225 24.9878 42.4312 25.2034 42.4312H28.4555C28.6711 42.4312 28.6909 42.5225 28.6909 42.6342C28.6909 42.7458 28.6711 42.8371 28.4555 42.8371H25.2034C24.9878 42.8371 24.9361 42.7458 24.9361 42.6342ZM24.9361 41.5809C24.9361 41.4693 24.9878 41.378 25.2034 41.378H28.4555C28.6711 41.378 28.6909 41.4693 28.6909 41.5809C28.6909 41.6926 28.6711 41.7839 28.4555 41.7839H25.2034C24.9878 41.7839 24.9361 41.6926 24.9361 41.5809ZM24.9361 40.5277C24.9361 40.416 24.9878 40.3247 25.2034 40.3247H28.4555C28.6711 40.3247 28.6909 40.416 28.6909 40.5277C28.6909 40.6393 28.6711 40.7306 28.4555 40.7306H25.2034C24.9878 40.7301 24.9361 40.6388 24.9361 40.5277ZM24.9361 39.4739C24.9361 39.3622 24.9878 39.2709 25.2034 39.2709H28.4555C28.6711 39.2709 28.6909 39.3622 28.6909 39.4739C28.6909 39.5855 28.6711 39.6768 28.4555 39.6768H25.2034C24.9878 39.6768 24.9361 39.5855 24.9361 39.4739ZM24.9361 38.4206C24.9361 38.309 24.9878 38.2177 25.2034 38.2177H28.4555C28.6711 38.2177 28.6909 38.309 28.6909 38.4206C28.6909 38.5323 28.6711 38.6236 28.4555 38.6236H25.2034C24.9878 38.6236 24.9361 38.5323 24.9361 38.4206ZM24.9361 37.3674C24.9361 37.2557 24.9878 37.1644 25.2034 37.1644H28.4555C28.6711 37.1644 28.6909 37.2557 28.6909 37.3674C28.6909 37.479 28.6711 37.5703 28.4555 37.5703H25.2034C24.9878 37.5698 24.9361 37.4785 24.9361 37.3674ZM24.9361 36.3136C24.9361 36.2019 24.9878 36.1106 25.2034 36.1106H28.4555C28.6711 36.1106 28.6909 36.2019 28.6909 36.3136C28.6909 36.4252 28.6711 36.5165 28.4555 36.5165H25.2034C24.9878 36.5165 24.9361 36.4252 24.9361 36.3136ZM24.9361 35.2603C24.9361 35.1487 24.9878 35.0574 25.2034 35.0574H28.4555C28.6711 35.0574 28.6909 35.1487 28.6909 35.2603C28.6909 35.372 28.6711 35.4633 28.4555 35.4633H25.2034C24.9878 35.4633 24.9361 35.372 24.9361 35.2603ZM24.9361 34.2071C24.9361 34.0954 24.9878 34.0041 25.2034 34.0041H28.4555C28.6711 34.0041 28.6909 34.0954 28.6909 34.2071C28.6909 34.3187 28.6711 34.41 28.4555 34.41H25.2034C24.9878 34.4095 24.9361 34.3182 24.9361 34.2071ZM24.9361 33.1533C24.9361 33.0416 24.9878 32.9503 25.2034 32.9503H28.4555C28.6711 32.9503 28.6909 33.0416 28.6909 33.1533C28.6909 33.2649 28.6711 33.3562 28.4555 33.3562H25.2034C24.9878 33.3562 24.9361 33.2649 24.9361 33.1533ZM29.5902 29.3539C29.7018 29.3539 29.7931 29.4056 29.7931 29.6212V32.0109C29.7931 32.2265 29.7018 32.2463 29.5902 32.2463C29.4785 32.2463 29.3872 32.2265 29.3872 32.0109V29.6212C29.3872 29.4061 29.4785 29.3539 29.5902 29.3539ZM30.8315 29.3539C30.9432 29.3539 31.0345 29.4056 31.0345 29.6212V32.0109C31.0345 32.2265 30.9432 32.2463 30.8315 32.2463C30.7199 32.2463 30.6286 32.2265 30.6286 32.0109V29.6212C30.6286 29.4061 30.7199 29.3539 30.8315 29.3539ZM32.0723 29.3539C32.184 29.3539 32.2753 29.4056 32.2753 29.6212V32.0109C32.2753 32.2265 32.184 32.2463 32.0723 32.2463C31.9607 32.2463 31.8694 32.2265 31.8694 32.0109V29.6212C31.8699 29.4061 31.9612 29.3539 32.0723 29.3539ZM33.3137 29.3539C33.4253 29.3539 33.5166 29.4056 33.5166 29.6212V32.0109C33.5166 32.2265 33.4253 32.2463 33.3137 32.2463C33.202 32.2463 33.1107 32.2265 33.1107 32.0109V29.6212C33.1107 29.4061 33.202 29.3539 33.3137 29.3539ZM34.555 29.3539C34.6667 29.3539 34.758 29.4056 34.758 29.6212V32.0109C34.758 32.2265 34.6667 32.2463 34.555 32.2463C34.4434 32.2463 34.3521 32.2265 34.3521 32.0109V29.6212C34.3521 29.4061 34.4434 29.3539 34.555 29.3539ZM35.7964 29.3539C35.908 29.3539 35.9993 29.4056 35.9993 29.6212V32.0109C35.9993 32.2265 35.908 32.2463 35.7964 32.2463C35.6847 32.2463 35.5934 32.2265 35.5934 32.0109V29.6212C35.5934 29.4061 35.6847 29.3539 35.7964 29.3539ZM37.0377 29.3539C37.1494 29.3539 37.2407 29.4056 37.2407 29.6212V32.0109C37.2407 32.2265 37.1494 32.2463 37.0377 32.2463C36.9261 32.2463 36.8348 32.2265 36.8348 32.0109V29.6212C36.8348 29.4061 36.9261 29.3539 37.0377 29.3539ZM38.2785 29.3539C38.3902 29.3539 38.4815 29.4056 38.4815 29.6212V32.0109C38.4815 32.2265 38.3902 32.2463 38.2785 32.2463C38.1669 32.2463 38.0756 32.2265 38.0756 32.0109V29.6212C38.0761 29.4061 38.1674 29.3539 38.2785 29.3539ZM39.5199 29.3539C39.6315 29.3539 39.7228 29.4056 39.7228 29.6212V32.0109C39.7228 32.2265 39.6315 32.2463 39.5199 32.2463C39.4082 32.2463 39.3169 32.2265 39.3169 32.0109V29.6212C39.3169 29.4061 39.4082 29.3539 39.5199 29.3539ZM40.7612 29.3539C40.8729 29.3539 40.9642 29.4056 40.9642 29.6212V32.0109C40.9642 32.2265 40.8729 32.2463 40.7612 32.2463C40.6496 32.2463 40.5583 32.2265 40.5583 32.0109V29.6212C40.5583 29.4061 40.6496 29.3539 40.7612 29.3539ZM42.0026 29.3539C42.1142 29.3539 42.2055 29.4056 42.2055 29.6212V32.0109C42.2055 32.2265 42.1142 32.2463 42.0026 32.2463C41.8909 32.2463 41.7996 32.2265 41.7996 32.0109V29.6212C41.7996 29.4061 41.8909 29.3539 42.0026 29.3539ZM43.2439 29.3539C43.3556 29.3539 43.4469 29.4056 43.4469 29.6212V32.0109C43.4469 32.2265 43.3556 32.2463 43.2439 32.2463C43.1323 32.2463 43.041 32.2265 43.041 32.0109V29.6212C43.041 29.4061 43.1323 29.3539 43.2439 29.3539ZM44.4847 29.3539C44.5964 29.3539 44.6877 29.4056 44.6877 29.6212V32.0109C44.6877 32.2265 44.5964 32.2463 44.4847 32.2463C44.3731 32.2463 44.2818 32.2265 44.2818 32.0109V29.6212C44.2823 29.4061 44.3736 29.3539 44.4847 29.3539ZM45.7261 29.3539C45.8377 29.3539 45.929 29.4056 45.929 29.6212V32.0109C45.929 32.2265 45.8377 32.2463 45.7261 32.2463C45.6144 32.2463 45.5231 32.2265 45.5231 32.0109V29.6212C45.5231 29.4061 45.6144 29.3539 45.7261 29.3539ZM46.9674 29.3539C47.0791 29.3539 47.1704 29.4056 47.1704 29.6212V32.0109C47.1704 32.2265 47.0791 32.2463 46.9674 32.2463C46.8558 32.2463 46.7645 32.2265 46.7645 32.0109V29.6212C46.7645 29.4061 46.8558 29.3539 46.9674 29.3539Z" fill="white"/>
</svg>
