<svg width="55" height="55" viewBox="0 0 55 55" fill="none" xmlns="http://www.w3.org/2000/svg">
<path d="M26.7969 38.8063C24.4126 39.148 22.5781 41.1934 22.5781 43.6719C22.5781 46.3902 24.7817 48.5938 27.5 48.5938C30.2183 48.5938 32.4219 46.3902 32.4219 43.6719C32.4219 41.1927 30.5874 39.148 28.2031 38.8063V33.8281H48.5938V22.5781H28.2031V19.0625H44.375V14.4219L47.1875 12.7344V8.51562L43.6719 6.40625L40.1562 8.51562V12.7344L42.9688 14.4219V17.6562H33.125V14.0696C34.7295 13.7441 35.9375 12.3259 35.9375 10.625C35.9375 8.68367 34.3632 7.10938 32.4219 7.10938C30.4805 7.10938 28.9062 8.68367 28.9062 10.625C28.9062 12.3259 30.1142 13.7441 31.7188 14.0696V17.6562H22.5781V14.1406H25.3906V7.10938H18.3594V14.1406H21.1719V17.6562H11.3281V14.1406H14.1406L10.625 6.40625L7.10938 14.1406H9.92188V19.0625H26.7969V22.5781H6.40625V33.8281H26.7969V38.8063ZM30.1065 42.7627L26.7969 46.0723L24.8935 44.169L25.8877 43.1748L26.7969 44.0839L29.1123 41.7685L30.1065 42.7627ZM39.4531 26.7969L42.2656 25.3906L45.0781 26.7969V29.6094L42.2656 31.0156L39.4531 29.6094V26.7969ZM32.4219 25.3906C33.9751 25.3906 35.2344 26.6499 35.2344 28.2031C35.2344 29.7563 33.9751 31.0156 32.4219 31.0156C30.8687 31.0156 29.6094 29.7563 29.6094 28.2031C29.6094 26.6499 30.8687 25.3906 32.4219 25.3906ZM9.92188 31.0156L12.7344 25.3906L15.5469 31.0156H9.92188ZM25.3906 31.0156H19.7656V25.3906H25.3906V31.0156Z" fill="white"/>
</svg>
