<svg width="110" height="110" viewBox="0 0 110 110" fill="none" xmlns="http://www.w3.org/2000/svg">
<circle cx="55" cy="55" r="55" fill="white"/>
<path d="M52.9062 84.8182H57.179L57.2017 79.7045C66.8153 79 72.3153 73.5 72.3153 66.1364C72.3153 57.75 64.8381 54.5 58.929 53.0455L57.2699 52.6136L57.3153 38.0227C61.5653 38.5909 64.4744 40.9545 64.9062 44.6818H71.679C71.4972 37.75 65.7699 32.5682 57.3381 31.8864L57.3608 26.6364H53.0881L53.0653 31.9318C44.9062 32.75 38.929 37.8409 38.929 45.1818C38.929 51.6591 43.5653 55.4545 51.0426 57.4773L52.9972 58L52.9517 73.4773C48.5199 72.9318 45.0881 70.5227 44.7244 66.1364H37.679C38.1108 73.9773 43.7699 79.0227 52.929 79.7045L52.9062 84.8182ZM57.2244 73.4773L57.2699 59.1818C61.8835 60.4545 65.3608 62.1364 65.3608 66.0682C65.3608 70.0455 62.0426 72.8409 57.2244 73.4773ZM53.0199 51.4773C49.6335 50.4773 45.9062 48.6818 45.929 44.7727C45.929 41.3636 48.6335 38.7045 53.0426 38.0455L53.0199 51.4773Z" fill="#212244"/>
</svg>
