<svg width="16" height="16" viewBox="0 0 16 16" fill="none" xmlns="http://www.w3.org/2000/svg">
<path fill-rule="evenodd" clip-rule="evenodd" d="M7.99844 10.0984C6.83854 10.0984 5.89845 9.1583 5.89845 7.9984C5.89845 6.83851 6.83854 5.89842 7.99844 5.89842C9.15833 5.89842 10.0984 6.83851 10.0984 7.9984C10.0984 9.1583 9.15833 10.0984 7.99844 10.0984ZM13.2316 9.2262C12.2558 8.6984 12.2558 7.29841 13.2316 6.77061C13.401 6.67891 13.5249 6.52141 13.5746 6.33591C13.6243 6.14971 13.5956 5.95162 13.4948 5.78782L12.7479 4.57472C12.5533 4.25903 12.1459 4.14983 11.819 4.32623L11.5061 4.49632C10.5758 4.99962 9.44463 4.32553 9.44463 3.26783V3.09843C9.44463 2.71204 9.13173 2.39844 8.74463 2.39844H7.25224C6.86514 2.39844 6.55225 2.71204 6.55225 3.09843V3.26783C6.55225 4.32553 5.42105 4.99962 4.49076 4.49632L4.17786 4.32623C3.85096 4.14983 3.44357 4.25903 3.24897 4.57472L2.50207 5.78782C2.40127 5.95162 2.37257 6.14971 2.42227 6.33591C2.47197 6.52141 2.59587 6.67891 2.76527 6.77061C3.74106 7.29841 3.74106 8.6984 2.76527 9.2262C2.59587 9.31789 2.47197 9.47539 2.42227 9.66089C2.37257 9.84709 2.40127 10.0452 2.50207 10.209L3.24897 11.4221C3.44357 11.7378 3.85096 11.847 4.17786 11.6706L4.49076 11.5005C5.42105 10.9972 6.55225 11.6713 6.55225 12.729V12.8984C6.55225 13.2848 6.86514 13.5984 7.25224 13.5984H8.74463C9.13173 13.5984 9.44463 13.2848 9.44463 12.8984V12.729C9.44463 11.6713 10.5758 10.9972 11.5061 11.5005L11.819 11.6706C12.1459 11.847 12.5533 11.7378 12.7479 11.4221L13.4948 10.209C13.5956 10.0452 13.6243 9.84709 13.5746 9.66089C13.5249 9.47539 13.401 9.31789 13.2316 9.2262Z" fill="#888C92"/>
</svg>
