<svg width="80" height="80" viewBox="0 0 80 80" fill="none" xmlns="http://www.w3.org/2000/svg">
<path d="M66.1941 43.8978C66.1941 47.7881 65.3445 51.4837 63.8188 54.804C59.6843 63.827 50.5728 70.0925 39.9994 70.0925C29.4259 70.0925 20.3144 63.827 16.1799 54.804C14.6542 51.4837 13.8047 47.7881 13.8047 43.8978C13.8047 29.4306 25.5321 17.7031 39.9994 17.7031C54.4666 17.7031 66.1941 29.4306 66.1941 43.8978Z" fill="#F0F1F2"/>
<mask id="mask0_2451_18493" style="mask-type:alpha" maskUnits="userSpaceOnUse" x="13" y="9" width="54" height="62">
<path d="M66.1941 23.8988C66.1941 27.789 65.3445 51.4847 63.8188 54.805C59.6843 63.828 50.5728 70.0935 39.9994 70.0935C29.4259 70.0935 20.3144 63.828 16.1799 54.805C14.6542 51.4847 13.8047 27.789 13.8047 23.8988C13.8047 9.43153 25.5321 9.56254 39.9994 9.56254C54.4666 9.56254 66.1941 9.43153 66.1941 23.8988Z" fill="#F0F1F2"/>
</mask>
<g mask="url(#mask0_2451_18493)">
<g filter="url(#filter0_d_2451_18493)">
<path d="M20.1367 16.5081C20.1367 16.1906 20.3937 15.9336 20.7112 15.9336H59.2082C59.5257 15.9336 59.7827 16.1906 59.7827 16.5081V69.6773C59.7827 69.9948 59.5257 70.2518 59.2082 70.2518H20.7112C20.3937 70.2518 20.1367 69.9948 20.1367 69.6773V16.5081Z" fill="#00CCA7"/>
<path d="M59.7827 36.2109H20.1367V46.9844H59.7827V36.2109Z" fill="#E2E8F2"/>
<path d="M20.1367 46.9844H59.7827V69.6803C59.7827 69.9978 59.5257 70.2548 59.2082 70.2548H20.7112C20.3937 70.2548 20.1367 69.9978 20.1367 69.6803V46.9844Z" fill="white"/>
<path d="M41.0224 50.9805H24.7392C24.3481 50.9805 24.0312 51.2973 24.0312 51.6884C24.0312 52.0796 24.3481 52.3964 24.7392 52.3964H41.0224C41.4136 52.3964 41.7304 52.0796 41.7304 51.6884C41.7304 51.2973 41.4132 50.9805 41.0224 50.9805Z" fill="#D2D5D9"/>
<path d="M36.4206 56.2891H25.8012C24.8238 56.2891 24.0312 57.0816 24.0312 58.059C24.0312 59.0363 24.8238 59.8289 25.8012 59.8289H36.4206C37.398 59.8289 38.1905 59.0363 38.1905 58.059C38.1905 57.0816 37.398 56.2891 36.4206 56.2891Z" fill="#00977C"/>
</g>
</g>
<defs>
<filter id="filter0_d_2451_18493" x="15.2587" y="12.0312" width="49.4006" height="64.0764" filterUnits="userSpaceOnUse" color-interpolation-filters="sRGB">
<feFlood flood-opacity="0" result="BackgroundImageFix"/>
<feColorMatrix in="SourceAlpha" type="matrix" values="0 0 0 0 0 0 0 0 0 0 0 0 0 0 0 0 0 0 127 0" result="hardAlpha"/>
<feOffset dy="0.97561"/>
<feGaussianBlur stdDeviation="2.43902"/>
<feColorMatrix type="matrix" values="0 0 0 0 0 0 0 0 0 0 0 0 0 0 0 0 0 0 0.3 0"/>
<feBlend mode="normal" in2="BackgroundImageFix" result="effect1_dropShadow_2451_18493"/>
<feBlend mode="normal" in="SourceGraphic" in2="effect1_dropShadow_2451_18493" result="shape"/>
</filter>
</defs>
</svg>
