<svg width="40" height="40" viewBox="0 0 40 40" fill="none" xmlns="http://www.w3.org/2000/svg">
<rect width="40" height="40" rx="20" fill="#F0F8F4"/>
<path d="M12.425 28C12.045 28 11.7125 27.8555 11.4275 27.5664C11.1425 27.2773 11 26.9531 11 26.5938V14.4062C11 14.0469 11.1425 13.7227 11.4275 13.4336C11.7125 13.1445 12.045 13 12.425 13H18.4812C18.6712 13 18.8573 13.0391 19.0394 13.1172C19.2215 13.1953 19.3758 13.2969 19.5025 13.4219L20.5 14.4062H28.575C28.9392 14.4062 29.2677 14.5508 29.5606 14.8398C29.8535 15.1289 30 15.4531 30 15.8125V26.5938C30 26.9531 29.8535 27.2773 29.5606 27.5664C29.2677 27.8555 28.9392 28 28.575 28H12.425ZM12.425 14.4062V26.5938H28.575V15.8125H19.9062L18.4812 14.4062H12.425ZM12.425 14.4062V26.5938V14.4062Z" fill="#00977C"/>
</svg>
