<svg width="49" height="49" viewBox="0 0 49 49" fill="none" xmlns="http://www.w3.org/2000/svg">
<path d="M34.5681 44.614H14.4399L14.3326 43.9305C14.2753 43.5635 12.9611 34.9086 15.8575 31.435C16.9722 30.0978 18.2438 29.0849 19.3659 28.1907C20.9128 26.9583 22.1349 25.9847 22.1349 24.821V24.1443C22.1349 22.9795 20.9128 22.0059 19.3659 20.774C18.2433 19.8798 16.9722 18.8675 15.8575 17.5293C12.9611 14.0557 14.2753 5.40127 14.3326 5.03377L14.4399 4.35022H34.5681L34.6755 5.03377C34.7323 5.40127 36.047 14.0557 33.1516 17.5293C32.0368 18.8665 30.7653 19.8793 29.6441 20.7731C28.0967 22.0059 26.8747 22.979 26.8747 24.1443V24.821C26.8747 25.9847 28.0967 26.9598 29.6441 28.1912C30.7653 29.0849 32.0368 30.0978 33.1516 31.435C36.047 34.9086 34.7328 43.5635 34.6755 43.9305L34.5681 44.614ZM15.8359 42.997H33.1716C33.5019 40.2917 33.7513 34.6798 31.9104 32.4703C30.9005 31.2596 29.6971 30.3016 28.6362 29.4564C26.8232 28.0128 25.2567 26.7653 25.2567 24.8214V24.1448C25.2567 22.1999 26.8232 20.9534 28.6362 19.5089C29.6971 18.6636 30.9005 17.7052 31.9104 16.4949C33.7513 14.2855 33.5019 8.67349 33.1716 5.9682H15.8359C15.5057 8.67349 15.2563 14.2855 17.0982 16.4949C18.1081 17.7057 19.311 18.6646 20.3733 19.5098C22.1858 20.9544 23.7519 22.2009 23.7519 24.1448V24.8214C23.7519 26.7653 22.1858 28.0123 20.3733 29.4559C19.3115 30.3021 18.1081 31.26 17.0982 32.4703C15.2563 34.6798 15.5057 40.2922 15.8359 42.997Z" fill="#212244"/>
<path d="M36.7501 1.44324H12.2589V3.40618H36.7501V1.44324Z" fill="#212244"/>
<path d="M36.7501 45.5676H12.2589V47.5306H36.7501V45.5676Z" fill="#212244"/>
<path d="M24.9757 21.823C25.6902 20.6402 26.874 19.6881 28.0378 18.759C29.0648 17.9417 30.2271 17.0161 31.1742 15.8808C31.8896 15.0218 32.2665 13.3475 32.3958 11.4125H16.6119C16.7413 13.3475 17.1186 15.0218 17.834 15.8808C18.7817 17.0161 19.943 17.9417 20.969 18.759C22.1347 19.6881 23.3171 20.6402 24.0335 21.823V35.8801L16.7388 42.2021H32.2699L24.9757 35.9066V21.823Z" fill="#212244"/>
</svg>
