<svg width="14" height="14" viewBox="0 0 14 14" fill="none" xmlns="http://www.w3.org/2000/svg">
<path d="M6.21667 10H7.21667V6H6.21667V10ZM6.66667 4.76667C6.82222 4.76667 6.95278 4.71667 7.05833 4.61667C7.16389 4.51667 7.21667 4.38889 7.21667 4.23333C7.21667 4.07778 7.16389 3.94444 7.05833 3.83333C6.95278 3.72222 6.82222 3.66667 6.66667 3.66667C6.51111 3.66667 6.38056 3.72222 6.275 3.83333C6.16944 3.94444 6.11667 4.07778 6.11667 4.23333C6.11667 4.38889 6.16944 4.51667 6.275 4.61667C6.38056 4.71667 6.51111 4.76667 6.66667 4.76667ZM6.66667 13.3333C5.75556 13.3333 4.89444 13.1583 4.08333 12.8083C3.27222 12.4583 2.56389 11.9806 1.95833 11.375C1.35278 10.7694 0.875 10.0611 0.525 9.25C0.175 8.43889 0 7.57222 0 6.65C0 5.73889 0.175 4.87778 0.525 4.06667C0.875 3.25556 1.35278 2.55 1.95833 1.95C2.56389 1.35 3.27222 0.875 4.08333 0.525C4.89444 0.175 5.76111 0 6.68333 0C7.59444 0 8.45555 0.175 9.26667 0.525C10.0778 0.875 10.7833 1.35 11.3833 1.95C11.9833 2.55 12.4583 3.25556 12.8083 4.06667C13.1583 4.87778 13.3333 5.74444 13.3333 6.66667C13.3333 7.57778 13.1583 8.43889 12.8083 9.25C12.4583 10.0611 11.9833 10.7694 11.3833 11.375C10.7833 11.9806 10.0778 12.4583 9.26667 12.8083C8.45555 13.1583 7.58889 13.3333 6.66667 13.3333ZM6.68333 12.3333C8.25 12.3333 9.58333 11.7806 10.6833 10.675C11.7833 9.56944 12.3333 8.22778 12.3333 6.65C12.3333 5.08333 11.7833 3.75 10.6833 2.65C9.58333 1.55 8.24444 1 6.66667 1C5.1 1 3.76389 1.55 2.65833 2.65C1.55278 3.75 1 5.08889 1 6.66667C1 8.23333 1.55278 9.56944 2.65833 10.675C3.76389 11.7806 5.10556 12.3333 6.68333 12.3333Z" fill="#888C92"/>
</svg>
