<svg width="55" height="55" viewBox="0 0 55 55" fill="none" xmlns="http://www.w3.org/2000/svg">
<path d="M12.7275 25.3157C12.8798 26.5624 13.2254 27.7778 13.7519 28.9182C14.2707 30.0607 14.9668 31.1141 15.8144 32.0394L16.4262 32.7269C16.7054 33.0308 17.0443 33.2737 17.4216 33.4405C17.799 33.6073 18.2068 33.6944 18.6194 33.6963H19.5544C19.9674 33.6973 20.3761 33.6116 20.7539 33.4446C21.1317 33.2776 21.4702 33.0331 21.7475 32.7269L22.3662 32.0394C24.0702 30.1735 25.1514 27.8237 25.46 25.3157C25.5185 24.8597 25.5483 24.4004 25.5494 23.9407V21.8507C25.5502 21.2671 25.4692 20.6862 25.3087 20.1251C24.9259 18.7726 24.1121 17.5821 22.991 16.7343C21.8699 15.8865 20.5027 15.4277 19.0972 15.4277C17.6916 15.4277 16.3244 15.8865 15.2033 16.7343C14.0822 17.5821 13.2684 18.7726 12.8856 20.1251C12.717 20.6989 12.6313 21.2939 12.6312 21.8919V23.8376C12.6278 23.8833 12.6278 23.9293 12.6312 23.9751C12.636 24.4235 12.6681 24.8712 12.7275 25.3157V25.3157Z" fill="white"/>
<path d="M28.6569 34.1981L25.5356 33.1875C25.1521 33.736 24.7342 34.2595 24.2844 34.755L23.6588 35.4425C23.1394 36.0103 22.5074 36.4637 21.8031 36.7739C21.0988 37.084 20.3377 37.244 19.5681 37.2437H18.6194C17.8517 37.2427 17.0926 37.0827 16.3898 36.7739C15.6869 36.4651 15.0556 36.0141 14.5356 35.4494V35.4494L13.9169 34.7619C13.4616 34.2687 13.0433 33.7424 12.6656 33.1875L9.53751 34.1981C8.4174 34.6151 7.44469 35.3523 6.74055 36.3181C6.0364 37.2838 5.63193 38.4354 5.57751 39.6294V46.7587C5.57751 46.9634 5.61793 47.166 5.69644 47.3549C5.77495 47.5439 5.89002 47.7155 6.03503 47.8598C6.18003 48.0042 6.35213 48.1185 6.54143 48.1962C6.73074 48.2739 6.93352 48.3134 7.13814 48.3125H31.0563C31.4702 48.3125 31.8671 48.1481 32.1598 47.8554C32.4525 47.5627 32.6169 47.1658 32.6169 46.7519V39.6294C32.5616 38.4356 32.1568 37.2845 31.4528 36.3189C30.7487 35.3533 29.7765 34.6158 28.6569 34.1981V34.1981Z" fill="white"/>
<path d="M37.9243 22.9506L37.6081 24.3256C37.5993 24.3974 37.6059 24.4703 37.6275 24.5393C37.6491 24.6084 37.6852 24.6721 37.7333 24.7261C37.7815 24.7801 37.8406 24.8232 37.9067 24.8525C37.9728 24.8819 38.0445 24.8968 38.1168 24.8962H40.0625C40.1342 24.8958 40.2051 24.8802 40.2704 24.8504C40.3357 24.8206 40.394 24.7774 40.4414 24.7235C40.4888 24.6696 40.5242 24.6063 40.5454 24.5377C40.5666 24.4691 40.5731 24.3968 40.5643 24.3256L40.255 22.9506C40.2457 22.8869 40.2528 22.8219 40.2757 22.7618C40.2985 22.7016 40.3364 22.6483 40.3856 22.6069C40.6351 22.3908 40.8273 22.1163 40.945 21.8078C41.0627 21.4994 41.1023 21.1666 41.0602 20.8392C41.0181 20.5118 40.8956 20.1999 40.7036 19.9313C40.5117 19.6627 40.2563 19.4458 39.9601 19.2999C39.664 19.154 39.3364 19.0836 39.0065 19.0951C38.6765 19.1065 38.3546 19.1995 38.0693 19.3656C37.784 19.5316 37.5443 19.7658 37.3714 20.047C37.1986 20.3283 37.098 20.6479 37.0787 20.9775C37.0623 21.2834 37.1157 21.5891 37.2348 21.8714C37.3539 22.1536 37.5356 22.4051 37.7662 22.6069C37.8199 22.6457 37.8627 22.6977 37.8904 22.758C37.9181 22.8182 37.9298 22.8845 37.9243 22.9506V22.9506Z" fill="white"/>
<path d="M45.7412 14.5768V12.5144C45.7635 10.7755 45.114 9.09518 43.928 7.8234C42.7421 6.55161 41.1111 5.7865 39.375 5.68748C38.4838 5.658 37.5959 5.80789 36.7638 6.12825C35.9317 6.44861 35.1725 6.93291 34.5312 7.55238C33.89 8.17185 33.3797 8.91386 33.0308 9.73436C32.6818 10.5549 32.5013 11.4371 32.5 12.3287V14.5837C31.7605 14.6728 31.0792 15.0299 30.5852 15.5873C30.0911 16.1447 29.8184 16.8639 29.8187 17.6087V20.7781C29.818 23.2027 30.7435 25.5361 32.4061 27.3009C34.0687 29.0657 36.3427 30.1287 38.7631 30.2725H39.1068C41.577 30.267 43.9444 29.2829 45.6904 27.5355C47.4364 25.7882 48.4188 23.4201 48.4225 20.95V17.6018C48.4228 16.857 48.1501 16.1378 47.656 15.5804C47.162 15.023 46.4807 14.666 45.7412 14.5768V14.5768ZM35.6625 12.3218C35.6625 11.4102 36.0246 10.5358 36.6693 9.89117C37.3139 9.24651 38.1883 8.88435 39.1 8.88435C40.0117 8.88435 40.886 9.24651 41.5306 9.89117C42.1753 10.5358 42.5375 11.4102 42.5375 12.3218V14.5493H35.6625V12.3218ZM45.3356 20.95C45.3361 21.7883 45.1677 22.6181 44.8402 23.3898C44.5127 24.1616 44.033 24.8593 43.4298 25.4414C42.8265 26.0235 42.112 26.478 41.3291 26.7777C40.5462 27.0774 39.7109 27.2161 38.8731 27.1856C37.2402 27.0889 35.7064 26.37 34.5874 25.1768C33.4685 23.9837 32.8493 22.407 32.8575 20.7712V17.6362H45.3356V20.95Z" fill="white"/>
</svg>
