<svg width="233" height="180" viewBox="0 0 233 180" fill="none" xmlns="http://www.w3.org/2000/svg">
<path d="M232.716 158.98H0V159.097H232.716V158.98Z" fill="#EBEBEB"/>
<path d="M209.399 166.469H193.984V166.585H209.399V166.469Z" fill="#EBEBEB"/>
<path d="M154.162 167.734H150.117V167.851H154.162V167.734Z" fill="#EBEBEB"/>
<path d="M193.518 162.148H184.586V162.265H193.518V162.148Z" fill="#EBEBEB"/>
<path d="M44.52 162.93H24.418V163.046H44.52V162.93Z" fill="#EBEBEB"/>
<path d="M51.6102 162.93H48.6641V163.046H51.6102V162.93Z" fill="#EBEBEB"/>
<path d="M104.793 164.895H61.1914V165.011H104.793V164.895Z" fill="#EBEBEB"/>
<path d="M110.308 138.222H20.4381C19.7341 138.221 19.0593 137.94 18.5619 137.442C18.0645 136.943 17.7852 136.268 17.7852 135.564V9.232C17.7913 8.532 18.0733 7.86269 18.5701 7.36944C19.0668 6.8762 19.7381 6.59886 20.4381 6.59766H110.308C111.013 6.59766 111.689 6.87765 112.188 7.37605C112.686 7.87445 112.966 8.55043 112.966 9.25527V135.564C112.966 136.269 112.686 136.945 112.188 137.443C111.689 137.942 111.013 138.222 110.308 138.222ZM20.4381 6.69074C19.7649 6.69198 19.1198 6.96026 18.6442 7.4367C18.1686 7.91315 17.9015 8.55882 17.9015 9.232V135.564C17.9015 136.237 18.1686 136.883 18.6442 137.359C19.1198 137.836 19.7649 138.104 20.4381 138.105H110.308C110.982 138.104 111.628 137.836 112.104 137.36C112.58 136.883 112.848 136.238 112.85 135.564V9.232C112.848 8.55839 112.58 7.91273 112.104 7.43642C111.628 6.96011 110.982 6.69197 110.308 6.69074H20.4381Z" fill="#EBEBEB"/>
<path d="M210.986 138.222H121.111C120.406 138.221 119.731 137.94 119.233 137.442C118.735 136.944 118.454 136.269 118.453 135.564V9.232C118.46 8.53158 118.744 7.86227 119.241 7.36915C119.739 6.87604 120.41 6.59884 121.111 6.59766H210.986C211.685 6.60008 212.355 6.87796 212.851 7.37108C213.346 7.86419 213.628 8.53281 213.634 9.232V135.564C213.634 136.267 213.355 136.942 212.859 137.44C212.362 137.938 211.689 138.219 210.986 138.222ZM121.111 6.69074C120.437 6.69197 119.791 6.96011 119.315 7.43642C118.839 7.91273 118.571 8.55839 118.569 9.232V135.564C118.571 136.238 118.839 136.883 119.315 137.36C119.791 137.836 120.437 138.104 121.111 138.105H210.986C211.659 138.104 212.305 137.836 212.781 137.36C213.258 136.883 213.526 136.238 213.527 135.564V9.232C213.526 8.55839 213.258 7.91273 212.781 7.43642C212.305 6.96011 211.659 6.69197 210.986 6.69074H121.111Z" fill="#EBEBEB"/>
<path d="M192.602 86.4271V28.9648L154.185 28.9648V86.4271H192.602Z" fill="#E6E6E6"/>
<path d="M191.434 86.4232V28.9609L153.017 28.9609V86.4232H191.434Z" fill="#F5F5F5"/>
<path d="M186.493 33.8984H157.953V81.4888H186.493V33.8984Z" fill="white"/>
<path d="M158.605 81.4888V33.8984H157.959V81.4888H158.605Z" fill="#E6E6E6"/>
<path d="M99.9872 158.98H116.277V106.438H99.9872V158.98Z" fill="#E6E6E6"/>
<path d="M103.079 158.98H99.9844V151.523H106.324L103.079 158.98Z" fill="#F0F0F0"/>
<path d="M187.038 158.969H203.328V106.426H187.038V158.969Z" fill="#E6E6E6"/>
<path d="M99.9891 157.887H189.738V106.438H99.9891V157.887Z" fill="#F0F0F0"/>
<path d="M102.387 109.576V121.402H156.907V109.576H102.387Z" fill="#E6E6E6"/>
<path d="M158.988 109.568V121.395H187.342V109.568H158.988Z" fill="#E6E6E6"/>
<path d="M170.347 110.997H175.956C178.208 111.045 180.432 110.489 182.397 109.387H163.91C165.874 110.489 168.096 111.045 170.347 110.997Z" fill="#F0F0F0"/>
<path d="M113.469 110.997H145.244C147.497 111.045 149.721 110.489 151.686 109.387H107.051C109.009 110.485 111.224 111.041 113.469 110.997Z" fill="#F0F0F0"/>
<path d="M102.391 124.783V136.609H156.911V124.783H102.391Z" fill="#E6E6E6"/>
<path d="M158.988 124.783V136.609H187.342V124.783H158.988Z" fill="#E6E6E6"/>
<path d="M170.347 126.215H175.956C178.207 126.263 180.431 125.709 182.397 124.609H163.91C165.875 125.708 168.097 126.262 170.347 126.215Z" fill="#F0F0F0"/>
<path d="M113.469 126.212H145.244C147.497 126.26 149.721 125.704 151.686 124.602H107.051C109.009 125.7 111.224 126.256 113.469 126.212Z" fill="#F0F0F0"/>
<path d="M102.387 139.998V151.824H156.907V139.998H102.387Z" fill="#E6E6E6"/>
<path d="M158.988 139.998V151.824H187.342V139.998H158.988Z" fill="#E6E6E6"/>
<path d="M170.347 141.423H175.956C178.208 141.471 180.432 140.915 182.397 139.812H163.91C165.874 140.914 168.096 141.47 170.347 141.423Z" fill="#F0F0F0"/>
<path d="M113.474 141.423H145.244C147.498 141.471 149.724 140.915 151.69 139.812H107.051C109.01 140.912 111.228 141.468 113.474 141.423Z" fill="#F0F0F0"/>
<path d="M186.642 158.98H189.733V151.523H183.398L186.642 158.98Z" fill="#F0F0F0"/>
<path d="M195.125 97.0859C195.125 97.0859 194.659 102.424 176.507 102.424C158.355 102.424 157.918 97.0859 157.918 97.0859H195.125Z" fill="#FAFAFA"/>
<path d="M195.125 101.082C195.125 101.082 194.659 106.421 176.507 106.421C158.356 106.421 157.941 101.082 157.941 101.082H195.125Z" fill="#EBEBEB"/>
<path d="M68.2266 158.981H86.8531L81.3331 111.074H68.2266V158.981Z" fill="#E6E6E6"/>
<path d="M36.793 158.981H78.2164L82.5868 102.91H41.1634L36.793 158.981Z" fill="#E0E0E0"/>
<path d="M33.8086 158.981H76.9169L81.2873 102.91H38.1837L33.8086 158.981Z" fill="#F5F5F5"/>
<path d="M72.844 154.56L76.5255 107.328H42.2558L38.5742 154.56H72.844Z" fill="white"/>
<path d="M134.52 16.2266H28.9648V93.1578H134.52V16.2266Z" fill="#EBEBEB"/>
<path d="M130.906 20.2969H32.5742V89.0877H130.906V20.2969Z" fill="#FAFAFA"/>
<path d="M53.7327 89.0924H43.4141L53.1323 20.2969H63.4509L53.7327 89.0924Z" fill="white"/>
<path d="M79.2334 89.0924H68.9102L78.6284 20.2969H88.9517L79.2334 89.0924Z" fill="white"/>
<path d="M112.107 89.0924H106.945L116.664 20.2969H121.825L112.107 89.0924Z" fill="white"/>
<path d="M88.3101 89.0924H83.1484L92.8667 20.2969H98.0283L88.3101 89.0924Z" fill="white"/>
<path d="M65.5356 20.2969H60.6719V89.0877H65.5356V20.2969Z" fill="#EBEBEB"/>
<path d="M65.5366 89.0898H66.6211L66.6211 20.299H65.5366L65.5366 89.0898Z" fill="#E0E0E0"/>
<path d="M134.52 93.1602H135.297V16.2289H134.52V93.1602Z" fill="#E0E0E0"/>
<path d="M116.36 179.998C166.199 179.998 206.602 177.639 206.602 174.73C206.602 171.82 166.199 169.461 116.36 169.461C66.5202 169.461 26.1172 171.82 26.1172 174.73C26.1172 177.639 66.5202 179.998 116.36 179.998Z" fill="#F5F5F5"/>
<path d="M101.668 78.2779L99.648 83.7933C99.4823 84.2689 99.1911 84.6909 98.8052 85.0145C98.4193 85.3382 97.953 85.5514 97.4558 85.6317L70.6143 89.6949C68.8829 89.9602 67.859 91.7382 68.329 93.6651L77.7261 132.361C78.1915 134.293 79.9788 135.642 81.7102 135.382L145.6 125.705C147.331 125.44 148.355 123.667 147.89 121.735L136.566 75.1036C136.101 73.1721 134.313 71.8223 132.582 72.083L103.86 76.4162C103.36 76.4984 102.892 76.7152 102.506 77.0431C102.12 77.3711 101.83 77.7979 101.668 78.2779Z" fill="#56C7B2"/>
<path opacity="0.3" d="M101.668 78.2779L99.648 83.7933C99.4823 84.2689 99.1911 84.6909 98.8052 85.0145C98.4193 85.3382 97.953 85.5514 97.4558 85.6317L70.6143 89.6949C68.8829 89.9602 67.859 91.7382 68.329 93.6651L77.7261 132.361C78.1915 134.293 79.9788 135.642 81.7102 135.382L145.6 125.705C147.331 125.44 148.355 123.667 147.89 121.735L136.566 75.1036C136.101 73.1721 134.313 71.8223 132.582 72.083L103.86 76.4162C103.36 76.4984 102.892 76.7152 102.506 77.0431C102.12 77.3711 101.83 77.7979 101.668 78.2779Z" fill="black"/>
<path d="M87.8953 21.685C88.525 21.6861 89.1542 21.7203 89.7803 21.7874C92.163 18.4856 95.3916 15.8871 99.1264 14.2652C102.861 12.6433 106.964 12.0581 111.003 12.5711C115.043 13.0842 118.869 14.6764 122.08 17.1804C125.291 19.6844 127.767 23.0075 129.249 26.8001C133.096 27.4589 136.555 29.5386 138.941 32.6272C141.327 35.7158 142.466 39.5879 142.133 43.4766C141.799 47.3653 140.017 50.9868 137.139 53.6236C134.262 56.2605 130.499 57.7204 126.596 57.7141H87.8953C83.1677 57.6381 78.6594 55.7067 75.343 52.3366C72.0266 48.9665 70.168 44.4278 70.168 39.6996C70.168 34.9713 72.0266 30.4326 75.343 27.0625C78.6594 23.6924 83.1677 21.761 87.8953 21.685Z" fill="#56C7B2"/>
<path d="M89.5664 51.4141V96.3282H122.5V61.1928L112.726 51.4141H89.5664Z" fill="#56C7B2"/>
<path opacity="0.6" d="M89.5664 51.4141V96.3282H122.5V61.1928L112.726 51.4141H89.5664Z" fill="white"/>
<path opacity="0.4" d="M112.727 61.1928V51.4141L122.501 61.1928H112.727Z" fill="#56C7B2"/>
<path d="M90.6262 135.214L88.293 135.566L88.3632 136.031L90.6965 135.679L90.6262 135.214Z" fill="#56C7B2"/>
<path d="M101.381 133.597L93.2305 134.828L93.3007 135.293L101.451 134.062L101.381 133.597Z" fill="#56C7B2"/>
<path d="M113.416 82.6848L110.376 87.7534C110.109 88.1995 109.748 88.5822 109.318 88.8747C108.888 89.1673 108.399 89.3627 107.886 89.4475L81.0494 93.5154C80.1938 93.6637 79.4202 94.115 78.8698 94.7867C78.3195 95.4584 78.0292 96.3056 78.052 97.1737L79.6112 132.472C79.617 132.875 79.7098 133.271 79.8833 133.635C80.0568 133.998 80.3069 134.32 80.6164 134.578C80.9259 134.836 81.2874 135.023 81.6763 135.128C82.0652 135.233 82.4721 135.253 82.8693 135.186L146.759 125.505C147.615 125.356 148.388 124.905 148.939 124.233C149.489 123.562 149.779 122.714 149.756 121.846L147.895 79.3151C147.889 78.9124 147.796 78.5156 147.623 78.1522C147.449 77.7887 147.199 77.467 146.89 77.2093C146.58 76.9515 146.219 76.7637 145.83 76.6589C145.441 76.554 145.034 76.5344 144.637 76.6016L115.892 80.972C115.379 81.0596 114.892 81.2583 114.464 81.5542C114.036 81.8501 113.678 82.236 113.416 82.6848Z" fill="#56C7B2"/>
<path d="M114.351 44.899C114.237 44.8996 114.124 44.8661 114.029 44.8027C113.933 44.7393 113.859 44.649 113.815 44.5431C113.771 44.4373 113.76 44.3208 113.782 44.2085C113.805 44.0961 113.86 43.993 113.942 43.9123C115.5 42.3486 116.56 40.3581 116.988 38.1923C117.416 36.0266 117.192 33.7826 116.346 31.7437C115.499 29.7049 114.067 27.9626 112.231 26.7369C110.395 25.5112 108.237 24.857 106.029 24.857C103.822 24.857 101.663 25.5112 99.8273 26.7369C97.9912 27.9626 96.5594 29.7049 95.7128 31.7437C94.8662 33.7826 94.6428 36.0266 95.0706 38.1923C95.4985 40.3581 96.5585 42.3486 98.1168 43.9123C98.1709 43.9659 98.2138 44.0297 98.243 44.1C98.2723 44.1703 98.2874 44.2457 98.2874 44.3219C98.2874 44.398 98.2723 44.4734 98.243 44.5437C98.2138 44.614 98.1709 44.6778 98.1168 44.7315C98.0073 44.8383 97.8603 44.8982 97.7073 44.8982C97.5542 44.8982 97.4072 44.8383 97.2977 44.7315C95.572 43.0059 94.3969 40.8074 93.9207 38.4139C93.4446 36.0204 93.6889 33.5395 94.6228 31.2849C95.5566 29.0303 97.1381 27.1032 99.1672 25.7474C101.196 24.3916 103.582 23.668 106.022 23.668C108.463 23.668 110.848 24.3916 112.877 25.7474C114.906 27.1032 116.488 29.0303 117.422 31.2849C118.355 33.5395 118.6 36.0204 118.124 38.4139C117.648 40.8074 116.472 43.0059 114.747 44.7315C114.641 44.8361 114.5 44.8962 114.351 44.899Z" fill="white"/>
<path d="M110.982 48.3604V35.4819C110.982 34.9252 110.761 34.3913 110.367 33.9976C109.974 33.604 109.44 33.3828 108.883 33.3828H103.186C102.629 33.3828 102.096 33.604 101.702 33.9976C101.308 34.3913 101.087 34.9252 101.087 35.4819V48.3604H98.9414L106.035 54.4715L113.123 48.3604H110.982Z" fill="white"/>
</svg>
