<svg width="16" height="16" viewBox="0 0 16 16" fill="none" xmlns="http://www.w3.org/2000/svg">
<path d="M3.69967 11.7487C4.39967 11.2598 5.09412 10.8848 5.78301 10.6237C6.4719 10.3626 7.21079 10.232 7.99967 10.232C8.78856 10.232 9.53023 10.3626 10.2247 10.6237C10.9191 10.8848 11.6163 11.2598 12.3163 11.7487C12.8052 11.1487 13.1525 10.5431 13.358 9.93203C13.5636 9.32092 13.6663 8.67648 13.6663 7.9987C13.6663 6.38759 13.1247 5.04036 12.0413 3.95703C10.958 2.8737 9.61079 2.33203 7.99967 2.33203C6.38856 2.33203 5.04134 2.8737 3.95801 3.95703C2.87467 5.04036 2.33301 6.38759 2.33301 7.9987C2.33301 8.67648 2.43856 9.32092 2.64967 9.93203C2.86079 10.5431 3.21079 11.1487 3.69967 11.7487ZM7.99967 8.4987C7.35523 8.4987 6.81356 8.27925 6.37467 7.84036C5.93579 7.40147 5.71634 6.85981 5.71634 6.21536C5.71634 5.57092 5.93579 5.02925 6.37467 4.59036C6.81356 4.15148 7.35523 3.93203 7.99967 3.93203C8.64412 3.93203 9.18579 4.15148 9.62467 4.59036C10.0636 5.02925 10.283 5.57092 10.283 6.21536C10.283 6.85981 10.0636 7.40147 9.62467 7.84036C9.18579 8.27925 8.64412 8.4987 7.99967 8.4987ZM7.99967 14.6654C7.08856 14.6654 6.22745 14.4904 5.41634 14.1404C4.60523 13.7904 3.8969 13.3126 3.29134 12.707C2.68579 12.1015 2.20801 11.3931 1.85801 10.582C1.50801 9.77092 1.33301 8.90981 1.33301 7.9987C1.33301 7.07648 1.50801 6.21259 1.85801 5.40703C2.20801 4.60148 2.68579 3.89592 3.29134 3.29036C3.8969 2.68481 4.60523 2.20703 5.41634 1.85703C6.22745 1.50703 7.08856 1.33203 7.99967 1.33203C8.9219 1.33203 9.78578 1.50703 10.5913 1.85703C11.3969 2.20703 12.1025 2.68481 12.708 3.29036C13.3136 3.89592 13.7913 4.60148 14.1413 5.40703C14.4913 6.21259 14.6663 7.07648 14.6663 7.9987C14.6663 8.90981 14.4913 9.77092 14.1413 10.582C13.7913 11.3931 13.3136 12.1015 12.708 12.707C12.1025 13.3126 11.3969 13.7904 10.5913 14.1404C9.78578 14.4904 8.9219 14.6654 7.99967 14.6654ZM7.99967 13.6654C8.61079 13.6654 9.20801 13.5765 9.79134 13.3987C10.3747 13.2209 10.9497 12.9098 11.5163 12.4654C10.9497 12.0654 10.3719 11.7598 9.78301 11.5487C9.19412 11.3376 8.59967 11.232 7.99967 11.232C7.39967 11.232 6.80523 11.3376 6.21634 11.5487C5.62745 11.7598 5.04967 12.0654 4.48301 12.4654C5.04967 12.9098 5.62467 13.2209 6.20801 13.3987C6.79134 13.5765 7.38856 13.6654 7.99967 13.6654ZM7.99967 7.4987C8.37745 7.4987 8.68578 7.37925 8.92467 7.14036C9.16356 6.90147 9.28301 6.59314 9.28301 6.21536C9.28301 5.83759 9.16356 5.52925 8.92467 5.29036C8.68578 5.05148 8.37745 4.93203 7.99967 4.93203C7.6219 4.93203 7.31356 5.05148 7.07467 5.29036C6.83579 5.52925 6.71634 5.83759 6.71634 6.21536C6.71634 6.59314 6.83579 6.90147 7.07467 7.14036C7.31356 7.37925 7.6219 7.4987 7.99967 7.4987Z" fill="#212244"/>
</svg>
