<svg width="21" height="21" viewBox="0 0 21 21" fill="none" xmlns="http://www.w3.org/2000/svg">
<path fill-rule="evenodd" clip-rule="evenodd" d="M18.3431 16.6711H1.76763C1.48739 16.6711 1.26013 16.4437 1.26013 16.1636C1.26013 15.8846 1.48741 15.6573 1.76763 15.6573H3.62838V7.68617C3.62838 4.14221 6.51121 1.2596 10.0549 1.2596C13.5991 1.2596 16.4815 4.14243 16.4815 7.68617V15.6573H18.3424C18.622 15.6573 18.8499 15.8846 18.8499 16.1636C18.8499 16.4437 18.622 16.6711 18.3424 16.6711M10.0545 19.4153C9.18807 19.4153 8.45068 18.8536 8.1874 18.0747H11.9216C11.6585 18.8536 10.921 19.4153 10.0545 19.4153ZM18.3424 14.3977H17.741V7.68634C17.741 3.44839 14.2927 0 10.0546 0C5.81616 0 2.3683 3.4483 2.3683 7.68634V14.3977H1.76702C0.792768 14.3977 0 15.1892 0 16.1635C0 17.1376 0.792724 17.9303 1.76702 17.9303H6.87414C7.11016 19.4801 8.43958 20.6747 10.0547 20.6747C11.6693 20.6747 12.9992 19.4801 13.2354 17.9303H18.3425C19.3166 17.9303 20.1094 17.1376 20.1094 16.1635C20.1094 15.1892 19.3166 14.3977 18.3425 14.3977" fill="#888C92"/>
</svg>
