<svg width="16" height="16" viewBox="0 0 16 16" fill="none" xmlns="http://www.w3.org/2000/svg">
<path d="M1.33203 11.332V2.03203C1.33203 1.87648 1.40425 1.72092 1.5487 1.56536C1.69314 1.40981 1.84314 1.33203 1.9987 1.33203H10.6487C10.8154 1.33203 10.9709 1.40703 11.1154 1.55703C11.2598 1.70703 11.332 1.86536 11.332 2.03203V7.96536C11.332 8.12092 11.2598 8.27647 11.1154 8.43203C10.9709 8.58759 10.8154 8.66536 10.6487 8.66536H3.9987L1.33203 11.332ZM4.68203 11.9987C4.52648 11.9987 4.3737 11.9209 4.2237 11.7654C4.0737 11.6098 3.9987 11.4543 3.9987 11.2987V9.66536H12.332V3.9987H13.9987C14.1543 3.9987 14.3043 4.07648 14.4487 4.23203C14.5931 4.38759 14.6654 4.5487 14.6654 4.71536V14.6487L12.0154 11.9987H4.68203ZM10.332 2.33203H2.33203V8.91536L3.58203 7.66536H10.332V2.33203ZM2.33203 2.33203V8.91536V2.33203Z" fill="#212244"/>
</svg>
