<svg width="32" height="32" viewBox="0 0 32 32" fill="none" xmlns="http://www.w3.org/2000/svg">
<circle cx="16" cy="16" r="15" fill="#00977C" fill-opacity="0.1"/>
<path d="M14.82 19.64L20.48 13.98L19.56 13.08L14.82 17.82L12.42 15.42L11.52 16.32L14.82 19.64ZM16 24C14.9067 24 13.8733 23.79 12.9 23.37C11.9267 22.95 11.0767 22.3767 10.35 21.65C9.62333 20.9233 9.05 20.0733 8.63 19.1C8.21 18.1267 8 17.0933 8 16C8 14.8933 8.21 13.8533 8.63 12.88C9.05 11.9067 9.62333 11.06 10.35 10.34C11.0767 9.62 11.9267 9.05 12.9 8.63C13.8733 8.21 14.9067 8 16 8C17.1067 8 18.1467 8.21 19.12 8.63C20.0933 9.05 20.94 9.62 21.66 10.34C22.38 11.06 22.95 11.9067 23.37 12.88C23.79 13.8533 24 14.8933 24 16C24 17.0933 23.79 18.1267 23.37 19.1C22.95 20.0733 22.38 20.9233 21.66 21.65C20.94 22.3767 20.0933 22.95 19.12 23.37C18.1467 23.79 17.1067 24 16 24ZM16 22.8C17.8933 22.8 19.5 22.1367 20.82 20.81C22.14 19.4833 22.8 17.88 22.8 16C22.8 14.1067 22.14 12.5 20.82 11.18C19.5 9.86 17.8933 9.2 16 9.2C14.12 9.2 12.5167 9.86 11.19 11.18C9.86333 12.5 9.2 14.1067 9.2 16C9.2 17.88 9.86333 19.4833 11.19 20.81C12.5167 22.1367 14.12 22.8 16 22.8Z" fill="#00977C"/>
</svg>
