<svg width="220" height="164" viewBox="0 0 220 164" fill="none" xmlns="http://www.w3.org/2000/svg">
<path d="M220 144.121H0V144.231H220V144.121Z" fill="#EBEBEB"/>
<path d="M104.28 124.489H19.3249C18.6586 124.489 18.0195 124.224 17.5484 123.753C17.0772 123.281 16.8125 122.642 16.8125 121.975V2.49154C16.8183 1.82872 17.0856 1.19503 17.5561 0.728402C18.0266 0.261771 18.6624 -2.5411e-05 19.3249 1.84996e-09H104.28C104.946 1.84997e-09 105.585 0.264819 106.057 0.736201C106.528 1.20758 106.792 1.84691 106.792 2.51355V121.975C106.792 122.642 106.528 123.281 106.057 123.753C105.585 124.224 104.946 124.489 104.28 124.489ZM19.3249 0.0880405C18.6881 0.0892041 18.0777 0.342802 17.6274 0.793293C17.1771 1.24378 16.9237 1.85445 16.9225 2.49154V121.975C16.9237 122.612 17.1771 123.223 17.6274 123.673C18.0777 124.124 18.6881 124.378 19.3249 124.379H104.28C104.917 124.378 105.527 124.124 105.978 123.673C106.428 123.223 106.681 122.612 106.683 121.975V2.49154C106.681 1.85445 106.428 1.24378 105.978 0.793293C105.527 0.342802 104.917 0.0892041 104.28 0.0880405H19.3249Z" fill="#EBEBEB"/>
<path d="M199.456 124.489H114.492C113.826 124.488 113.188 124.222 112.717 123.751C112.246 123.28 111.981 122.641 111.98 121.975V2.49154C111.987 1.82908 112.255 1.19606 112.725 0.729674C113.195 0.263288 113.83 0.00112176 114.492 0H199.456C200.117 0.00229102 200.751 0.26511 201.22 0.731494C201.688 1.19788 201.954 1.83025 201.96 2.49154V121.975C201.96 122.64 201.696 123.278 201.227 123.749C200.758 124.221 200.121 124.486 199.456 124.489ZM114.492 0.0880405C113.856 0.0892041 113.245 0.342802 112.795 0.793293C112.345 1.24378 112.091 1.85445 112.09 2.49154V121.975C112.091 122.612 112.345 123.223 112.795 123.673C113.245 124.124 113.856 124.378 114.492 124.379H199.456C200.093 124.378 200.704 124.124 201.154 123.673C201.604 123.223 201.858 122.612 201.859 121.975V2.49154C201.858 1.85445 201.604 1.24378 201.154 0.793293C200.704 0.342802 200.093 0.0892041 199.456 0.0880405H114.492Z" fill="#EBEBEB"/>
<path d="M34.004 148.309H22.564V148.419H34.004V148.309Z" fill="#EBEBEB"/>
<path d="M83.6784 147.121H63.8652V147.231H83.6784V147.121Z" fill="#EBEBEB"/>
<path d="M61.191 152.402H34.4434V152.512H61.191V152.402Z" fill="#EBEBEB"/>
<path d="M197.437 151.66H188.976V151.77H197.437V151.66Z" fill="#EBEBEB"/>
<path d="M185.057 151.66H160.729V151.77H185.057V151.66Z" fill="#EBEBEB"/>
<path d="M145.869 149.805H113.103V149.915H145.869V149.805Z" fill="#EBEBEB"/>
<path d="M74.6425 105.946H50.6273L49.1709 89.1172H73.1861L74.6425 105.946Z" fill="#E6E6E6"/>
<path d="M75.8886 105.946H51.8734L50.4126 89.1172H74.4278L75.8886 105.946Z" fill="#F0F0F0"/>
<path d="M55.1529 102.331L54.3521 92.7305H71.1425L71.9432 102.331H55.1529Z" fill="white"/>
<path d="M90.0287 105.945H86.6011V144.124H90.0287V105.945Z" fill="#E6E6E6"/>
<path d="M91.1055 105.945H88.7251V144.124H91.1055V105.945Z" fill="#F0F0F0"/>
<path d="M57.9265 110.156H91.1069V105.944H57.9265V110.156Z" fill="#F0F0F0"/>
<path d="M59.1014 110.156H55.6738V144.122H59.1014V110.156Z" fill="#E6E6E6"/>
<path d="M60.1841 110.156H57.8037V144.122H60.1841V110.156Z" fill="#F0F0F0"/>
<path d="M34.6986 110.156H31.271V144.122H34.6986V110.156Z" fill="#E6E6E6"/>
<path d="M35.7813 110.156H33.4009V144.122H35.7813V110.156Z" fill="#F0F0F0"/>
<path d="M68.3334 110.156H64.9058V144.122H68.3334V110.156Z" fill="#E6E6E6"/>
<path d="M69.4141 110.156H67.0337V144.122H69.4141V110.156Z" fill="#F0F0F0"/>
<path d="M57.9262 105.945H31.271V110.158H57.9262V105.945Z" fill="#E6E6E6"/>
<path d="M129.904 12.0742H30.3633V69.2035H129.904V12.0742Z" fill="#E6E6E6"/>
<path d="M132.562 12.0742H31.6045V69.2035H132.562V12.0742Z" fill="#F0F0F0"/>
<path d="M129.904 69.1992H30.3633V74.1471H129.904V69.1992Z" fill="#E6E6E6"/>
<path d="M136.994 69.1992H36.0361V74.1471H136.994V69.1992Z" fill="#F0F0F0"/>
<path d="M128.836 65.4735V15.7969L35.3271 15.7969V65.4735H128.836Z" fill="#FAFAFA"/>
<path d="M42.2017 65.4735L64.0609 15.7969H74.3833L52.5197 65.4735H42.2017Z" fill="white"/>
<path d="M37.0566 61.7671C37.0213 61.7671 36.9864 61.7602 36.9538 61.7467C36.9213 61.7332 36.8917 61.7134 36.8667 61.6885C36.8418 61.6636 36.822 61.634 36.8085 61.6014C36.795 61.5688 36.7881 61.5339 36.7881 61.4986V18.2225C36.7964 18.1578 36.8281 18.0983 36.8771 18.0552C36.9261 18.0121 36.9891 17.9883 37.0544 17.9883C37.1197 17.9883 37.1827 18.0121 37.2317 18.0552C37.2808 18.0983 37.3124 18.1578 37.3207 18.2225V61.4986C37.3207 61.5691 37.2931 61.6367 37.2436 61.687C37.1942 61.7372 37.1271 61.766 37.0566 61.7671Z" fill="#F0F0F0"/>
<path d="M54.7349 65.4735L76.5985 15.7969H80.6201L58.7609 65.4735H54.7349Z" fill="white"/>
<path d="M128.836 65.4735V15.7969H128.361V65.4735H128.836Z" fill="#E6E6E6"/>
<path opacity="0.6" d="M133.443 21.4153H33.9018L33.563 17.2422H133.1L133.443 21.4153Z" fill="#EBEBEB"/>
<path opacity="0.6" d="M133.443 28.2507H33.9018L33.563 24.082H133.1L133.443 28.2507Z" fill="#EBEBEB"/>
<path opacity="0.6" d="M133.443 35.0945H33.9018L33.563 30.9258H133.1L133.443 35.0945Z" fill="#EBEBEB"/>
<path opacity="0.6" d="M133.443 41.9348H33.9018L33.563 37.7617H133.1L133.443 41.9348Z" fill="#EBEBEB"/>
<path opacity="0.6" d="M133.443 48.7747H33.9018L33.563 44.6016H133.1L133.443 48.7747Z" fill="#EBEBEB"/>
<path opacity="0.6" d="M133.443 55.614H33.9018L33.563 51.4453H133.1L133.443 55.614Z" fill="#EBEBEB"/>
<path d="M160.786 38.8828H187.59V12.0658L160.786 12.0658V38.8828Z" fill="#EBEBEB"/>
<path d="M160.786 12.0742H159.597V38.8912H160.786V12.0742Z" fill="#E0E0E0"/>
<path d="M164.421 35.25H183.961V15.7007L164.421 15.7007V35.25Z" fill="white"/>
<path d="M174.188 32.0155L180.728 25.4727L174.188 18.9298L167.648 25.4727L174.188 32.0155Z" fill="#F5F5F5"/>
<path d="M151.549 74.1445H178.354V47.3275H151.549V74.1445Z" fill="#EBEBEB"/>
<path d="M151.55 47.3281H150.361V74.1451H151.55V47.3281Z" fill="#E0E0E0"/>
<path d="M155.183 70.5117H174.723V50.9624H155.183V70.5117Z" fill="white"/>
<path d="M163.561 64.9023H166.342C167.875 64.9023 169.118 63.6587 169.118 62.1247V59.3426C169.118 57.8085 167.875 56.5649 166.342 56.5649H163.561C162.028 56.5649 160.785 57.8085 160.785 59.3426V62.1247C160.785 63.6587 162.028 64.9023 163.561 64.9023Z" fill="#F5F5F5"/>
<path d="M135.396 87.1719H128.713V142.32H135.396V87.1719Z" fill="#F0F0F0"/>
<path d="M193.82 142.324H129.642V144.125H193.82V142.324Z" fill="#F0F0F0"/>
<path d="M135.398 142.324H194.745V87.1759H135.398V142.324Z" fill="#FAFAFA"/>
<path d="M183.128 119.402H147.017C145.312 119.402 143.677 118.724 142.471 117.518C141.266 116.312 140.588 114.676 140.588 112.97C140.588 111.265 141.266 109.629 142.471 108.423C143.677 107.217 145.312 106.539 147.017 106.539H183.128C184.833 106.539 186.468 107.217 187.673 108.423C188.879 109.629 189.556 111.265 189.556 112.97C189.556 114.676 188.879 116.312 187.673 117.518C186.468 118.724 184.833 119.402 183.128 119.402ZM147.017 106.97C145.426 106.97 143.901 107.603 142.776 108.728C141.651 109.853 141.02 111.379 141.02 112.97C141.02 114.562 141.651 116.088 142.776 117.213C143.901 118.338 145.426 118.97 147.017 118.97H183.128C184.718 118.97 186.244 118.338 187.368 117.213C188.493 116.088 189.125 114.562 189.125 112.97C189.125 111.379 188.493 109.853 187.368 108.728C186.244 107.603 184.718 106.97 183.128 106.97H147.017Z" fill="#F0F0F0"/>
<path d="M183.128 135.402H147.017C145.312 135.402 143.677 134.724 142.471 133.518C141.266 132.312 140.588 130.676 140.588 128.97C140.588 127.265 141.266 125.629 142.471 124.423C143.677 123.217 145.312 122.539 147.017 122.539H183.128C184.833 122.539 186.468 123.217 187.673 124.423C188.879 125.629 189.556 127.265 189.556 128.97C189.556 130.676 188.879 132.312 187.673 133.518C186.468 134.724 184.833 135.402 183.128 135.402ZM147.017 122.97C146.216 122.949 145.419 123.088 144.672 123.379C143.926 123.671 143.246 124.109 142.672 124.669C142.097 125.228 141.641 125.896 141.329 126.635C141.018 127.373 140.857 128.167 140.857 128.968C140.857 129.77 141.018 130.563 141.329 131.302C141.641 132.04 142.097 132.709 142.672 133.268C143.246 133.827 143.926 134.265 144.672 134.557C145.419 134.849 146.216 134.988 147.017 134.966H183.128C183.929 134.988 184.726 134.849 185.472 134.557C186.218 134.265 186.899 133.827 187.473 133.268C188.047 132.709 188.503 132.04 188.815 131.302C189.127 130.563 189.287 129.77 189.287 128.968C189.287 128.167 189.127 127.373 188.815 126.635C188.503 125.896 188.047 125.228 187.473 124.669C186.899 124.109 186.218 123.671 185.472 123.379C184.726 123.088 183.929 122.949 183.128 122.97H147.017Z" fill="#F0F0F0"/>
<path d="M170.522 111.584H159.623C159.271 111.577 158.936 111.432 158.689 111.181C158.443 110.931 158.304 110.593 158.303 110.241C158.304 109.889 158.443 109.552 158.689 109.301C158.936 109.05 159.271 108.905 159.623 108.898H170.522C170.877 108.9 171.218 109.041 171.469 109.293C171.721 109.545 171.862 109.885 171.864 110.241C171.862 110.597 171.721 110.938 171.469 111.189C171.218 111.441 170.877 111.583 170.522 111.584Z" fill="#EBEBEB"/>
<path d="M183.128 103.402H147.017C145.312 103.402 143.677 102.724 142.471 101.518C141.266 100.312 140.588 98.6761 140.588 96.9704C140.588 95.2647 141.266 93.6289 142.471 92.4227C143.677 91.2166 145.312 90.5391 147.017 90.5391H183.128C184.833 90.5391 186.468 91.2166 187.673 92.4227C188.879 93.6289 189.556 95.2647 189.556 96.9704C189.556 98.6761 188.879 100.312 187.673 101.518C186.468 102.724 184.833 103.402 183.128 103.402ZM147.017 90.9705C145.426 90.9705 143.901 91.6026 142.776 92.7278C141.651 93.853 141.02 95.3791 141.02 96.9704C141.02 98.5617 141.651 100.088 142.776 101.213C143.901 102.338 145.426 102.97 147.017 102.97H183.128C184.718 102.97 186.244 102.338 187.368 101.213C188.493 100.088 189.125 98.5617 189.125 96.9704C189.125 95.3791 188.493 93.853 187.368 92.7278C186.244 91.6026 184.718 90.9705 183.128 90.9705H147.017Z" fill="#F0F0F0"/>
<path d="M170.522 95.5812H159.623C159.271 95.5743 158.936 95.4299 158.689 95.179C158.443 94.9281 158.304 94.5905 158.303 94.2386C158.308 93.8901 158.449 93.5575 158.696 93.311C158.942 93.0646 159.274 92.9236 159.623 92.918H170.522C170.873 92.9191 171.211 93.0579 171.462 93.3047C171.712 93.5515 171.857 93.8867 171.864 94.2386C171.862 94.5943 171.721 94.9351 171.469 95.1867C171.218 95.4382 170.877 95.58 170.522 95.5812Z" fill="#EBEBEB"/>
<path d="M170.522 127.579H159.623C159.274 127.573 158.942 127.432 158.696 127.186C158.449 126.939 158.308 126.607 158.303 126.258C158.309 125.91 158.451 125.578 158.697 125.332C158.943 125.086 159.275 124.944 159.623 124.938H170.522C170.873 124.939 171.211 125.077 171.462 125.324C171.712 125.571 171.857 125.906 171.864 126.258C171.857 126.61 171.712 126.945 171.462 127.192C171.211 127.439 170.873 127.578 170.522 127.579Z" fill="#EBEBEB"/>
<path d="M195.967 84.3711H135.401V87.1752H195.967V84.3711Z" fill="#F0F0F0"/>
<path d="M127.401 87.1719H135.396V84.3678H127.401V87.1719Z" fill="#E6E6E6"/>
<path d="M109.998 164.001C157.114 164.001 195.31 161.77 195.31 159.018C195.31 156.266 157.114 154.035 109.998 154.035C62.8818 154.035 24.6865 156.266 24.6865 159.018C24.6865 161.77 62.8818 164.001 109.998 164.001Z" fill="#F5F5F5"/>
<path d="M182.002 41.043H115.685C115.685 41.043 103.739 52.048 103.739 78.8034C103.739 101.813 112.798 133.01 109.397 145.78C106.832 155.416 94.3932 157.071 88.4312 157.3H151.554C151.554 157.3 172.313 158.555 175.714 145.78C179.115 133.005 170.056 101.813 170.056 78.799C170.056 52.0304 182.002 41.043 182.002 41.043Z" fill="#00977C"/>
<path opacity="0.7" d="M182.002 41.043H115.685C115.685 41.043 103.739 52.048 103.739 78.8034C103.739 101.813 112.798 133.01 109.397 145.78C106.832 155.416 94.3932 157.071 88.4312 157.3H151.554C151.554 157.3 172.313 158.555 175.714 145.78C179.115 133.005 170.056 101.813 170.056 78.799C170.056 52.0304 182.002 41.043 182.002 41.043Z" fill="white"/>
<g opacity="0.8">
<path opacity="0.8" d="M163.966 69.2545H110.929C112.429 57.4835 116.473 50.634 118.704 47.6406H169.845C167.337 52.879 164.97 60.0147 163.966 69.2545Z" fill="#00977C"/>
<path opacity="0.3" d="M163.52 75.4989H110.408C110.452 74.4292 110.513 73.3904 110.601 72.3867H163.683C163.61 73.3992 163.555 74.4366 163.52 75.4989Z" fill="#00977C"/>
<path opacity="0.3" d="M127.061 81.7367H110.39C110.36 80.7419 110.344 79.7632 110.341 78.8006V78.6289H127.017V78.7962C127.017 79.769 127.031 80.7507 127.061 81.7367Z" fill="#00977C"/>
<path opacity="0.3" d="M163.836 87.9711H110.763C110.671 86.9234 110.596 85.8845 110.539 84.8633H163.633C163.686 85.8934 163.754 86.9293 163.836 87.9711Z" fill="#00977C"/>
<path opacity="0.3" d="M164.42 94.2021H111.391C111.268 93.1603 111.153 92.1228 111.048 91.0898H164.121C164.195 92.1375 164.305 93.1764 164.42 94.2021Z" fill="#00977C"/>
<path opacity="0.3" d="M165.186 100.452H112.202C112.056 99.4127 111.92 98.3738 111.788 97.3438H164.79C164.914 98.3797 165.046 99.4156 165.186 100.452Z" fill="#00977C"/>
<path opacity="0.3" d="M166.062 106.69H113.081C112.929 105.651 112.782 104.615 112.641 103.582H165.617C165.762 104.617 165.912 105.647 166.062 106.69Z" fill="#00977C"/>
<path opacity="0.3" d="M167 112.933H114.037C113.954 112.365 113.866 111.788 113.778 111.211L113.566 109.82H166.529C166.688 110.859 166.842 111.898 167 112.933Z" fill="#00977C"/>
<path opacity="0.3" d="M114.961 119.166C114.814 118.139 114.668 117.103 114.521 116.059H167.475C167.629 117.097 167.787 118.132 167.937 119.166H114.961Z" fill="#00977C"/>
<path opacity="0.3" d="M115.802 125.405C115.679 124.388 115.542 123.349 115.401 122.297H159.577C159.727 123.345 159.868 124.383 160.017 125.405H115.802Z" fill="#00977C"/>
<path opacity="0.3" d="M116.453 131.651C116.368 130.636 116.272 129.598 116.163 128.539H169.192C169.311 129.604 169.421 130.643 169.513 131.651H116.453Z" fill="#00977C"/>
<path opacity="0.3" d="M116.757 137.885C116.757 136.882 116.718 135.843 116.661 134.777H144.64C144.711 135.865 144.75 136.904 144.763 137.885H116.757Z" fill="#00977C"/>
</g>
<path d="M156.64 153.932C153.274 154.544 149.864 154.077 146.481 153.932C144.858 153.827 143.229 153.87 141.614 154.06C140.03 154.271 138.455 154.685 136.858 154.544C137.386 154.26 137.883 153.922 138.341 153.536C138.361 153.516 138.376 153.491 138.384 153.463C138.391 153.436 138.391 153.407 138.384 153.379C138.377 153.351 138.363 153.326 138.343 153.306C138.323 153.285 138.298 153.271 138.27 153.263C133.303 151.502 128.78 156.265 123.83 155.156C125.233 154.117 127.209 154.095 128.406 152.73C128.428 152.707 128.443 152.677 128.448 152.645C128.454 152.613 128.45 152.581 128.438 152.551C128.425 152.521 128.404 152.495 128.377 152.477C128.351 152.459 128.319 152.449 128.287 152.449C123.86 152.361 119.68 154.073 115.28 154.465C115.069 154.465 115.069 154.812 115.28 154.795C119.526 154.425 123.596 152.801 127.878 152.766C126.597 153.91 124.644 153.95 123.341 155.103C123.321 155.124 123.307 155.149 123.299 155.177C123.292 155.204 123.291 155.234 123.298 155.262C123.305 155.289 123.32 155.315 123.339 155.336C123.359 155.357 123.384 155.372 123.412 155.38C128.401 156.758 132.942 151.995 137.87 153.465C137.356 153.869 136.796 154.21 136.202 154.482C136.175 154.499 136.152 154.524 136.138 154.553C136.124 154.582 136.119 154.615 136.123 154.647C136.127 154.679 136.141 154.71 136.162 154.734C136.183 154.759 136.211 154.777 136.242 154.786C137.866 155.059 139.454 154.711 141.056 154.456C142.849 154.199 144.664 154.128 146.472 154.245C149.891 154.407 153.323 154.87 156.72 154.245C156.944 154.214 156.856 153.892 156.64 153.932Z" fill="#00977C"/>
<path d="M66.8257 57.2773C67.1029 57.6339 67.4593 58.0521 67.7849 58.4395C68.1105 58.8268 68.4669 59.2186 68.8189 59.5972C69.5273 60.3543 70.2445 61.0983 71.0189 61.7982C72.455 63.1623 74.0862 64.3047 75.8589 65.1878C76.0745 65.2846 76.2989 65.3726 76.4969 65.4519C76.5948 65.4908 76.6947 65.5246 76.7961 65.5531C76.89 65.5902 76.9873 65.6182 77.0865 65.6368C77.5088 65.7454 77.9405 65.8132 78.3757 65.8392C79.3498 65.8866 80.3262 65.8306 81.2885 65.672C82.3105 65.516 83.3227 65.3014 84.3201 65.0293C85.3321 64.7652 86.3661 64.4394 87.3297 64.1005L88.2097 65.8613C86.2537 67.0845 84.1357 68.027 81.9177 68.6609C80.7482 68.9959 79.5428 69.1895 78.3273 69.2376C77.6691 69.264 77.0098 69.2212 76.3605 69.1099C76.1933 69.0835 76.0217 69.0439 75.8545 69.0043C75.6873 68.9647 75.5113 68.9207 75.3661 68.8722C75.0581 68.7798 74.7589 68.6785 74.4861 68.5641C72.2466 67.6427 70.1856 66.3361 68.3965 64.7035C67.5235 63.9466 66.6907 63.1443 65.9017 62.3C65.5101 61.8598 65.1273 61.4504 64.7577 61.0102C64.3881 60.57 64.0361 60.1298 63.6533 59.6236L66.8257 57.2773Z" fill="#FFB573"/>
<path d="M62.352 56.037C62.2552 58.5021 63.232 62.9481 63.232 62.9481L69.3304 62.2086C69.3304 62.2086 69.5548 55.7024 68.3712 54.1309C66.3692 51.5029 62.4444 53.7039 62.352 56.037Z" fill="#00977C"/>
<path d="M86.5103 64.7281L89.3659 62.1133L89.7311 64.9306C89.7311 64.9306 88.5475 66.5197 87.2055 65.8506L86.5103 64.7281Z" fill="#FFB573"/>
<path d="M90.8006 62.2674L92.0106 63.8521L89.7314 64.9306L89.3662 62.1133L90.8006 62.2674Z" fill="#FFB573"/>
<path d="M90.0818 55.1376C90.3854 55.1376 90.5526 55.1376 90.7682 55.1376C90.8605 55.1312 90.9532 55.1312 91.0454 55.1376L91.2743 55.1684C91.4718 55.1916 91.6598 55.266 91.8198 55.3841C91.8977 55.4758 91.9494 55.5868 91.9695 55.7054L92.0706 56.04L92.4798 57.3606L93.2982 60.0326L94.9306 65.3811C96.0086 68.9467 97.1306 72.5035 98.169 76.0779C100.303 83.218 102.323 90.3845 104.307 97.5641C106.291 104.744 108.157 111.954 110.075 119.134C111.994 126.314 113.71 133.577 114.321 141.113C114.344 141.617 114.192 142.113 113.892 142.519C113.592 142.924 113.163 143.214 112.675 143.341C112.187 143.467 111.67 143.422 111.211 143.213C110.753 143.003 110.38 142.643 110.155 142.192C107.031 135.307 104.989 128.145 103.203 120.917C101.416 113.689 99.5198 106.522 97.7686 99.2985C96.0174 92.0748 94.3058 84.8115 92.7042 77.535C91.8814 73.9033 91.1334 70.2497 90.3458 66.6092L89.1798 61.1419L88.5947 58.4083L88.3043 57.0393L88.2295 56.7003C88.1895 56.5858 88.1804 56.4628 88.2031 56.3437C88.2887 56.1691 88.4155 56.0181 88.5727 55.9035L88.7618 55.7627C88.8344 55.7073 88.9109 55.6573 88.9906 55.613C89.1798 55.503 89.3162 55.4105 89.589 55.2784C89.7425 55.1997 89.91 55.1519 90.0818 55.1376Z" fill="#263238"/>
<path d="M113.898 142.252C113.865 142.132 113.787 142.031 113.68 141.969C113.573 141.908 113.446 141.89 113.326 141.921L112.358 142.172L111.39 142.423C111.271 142.454 111.168 142.531 111.105 142.638C111.041 142.744 111.022 142.871 111.052 142.991C111.654 145.764 111.052 147.75 111.694 150.188C112.358 152.755 115.249 154.071 115.249 154.071L115.157 152.975L115.597 153.978C115.597 153.978 117.484 151.425 116.82 148.859C116.195 146.42 114.717 144.968 113.898 142.252Z" fill="#00977C"/>
<path opacity="0.3" d="M113.898 142.252C113.865 142.132 113.787 142.031 113.68 141.969C113.573 141.908 113.446 141.89 113.326 141.921L112.358 142.172L111.39 142.423C111.271 142.454 111.168 142.531 111.105 142.638C111.041 142.744 111.022 142.871 111.052 142.991C111.654 145.764 111.052 147.75 111.694 150.188C112.358 152.755 115.249 154.071 115.249 154.071L115.157 152.975L115.597 153.978C115.597 153.978 117.484 151.425 116.82 148.859C116.195 146.42 114.717 144.968 113.898 142.252Z" fill="white"/>
<path d="M114.651 148.622C114.68 148.738 114.673 148.859 114.633 148.971C114.592 149.083 114.52 149.181 114.424 149.251C114.328 149.322 114.214 149.363 114.095 149.369C113.976 149.374 113.858 149.345 113.756 149.284C113.654 149.222 113.572 149.132 113.521 149.025C113.47 148.917 113.452 148.797 113.469 148.679C113.486 148.562 113.537 148.451 113.617 148.363C113.697 148.274 113.801 148.211 113.916 148.182C114.072 148.143 114.237 148.168 114.374 148.25C114.512 148.333 114.612 148.467 114.651 148.622Z" fill="#263238"/>
<path d="M115.191 153.107C115.174 153.112 115.155 153.114 115.137 153.111C115.119 153.109 115.102 153.104 115.086 153.095C115.07 153.085 115.057 153.073 115.046 153.059C115.035 153.044 115.028 153.027 115.024 153.01L113.932 148.806C113.927 148.788 113.926 148.77 113.928 148.753C113.931 148.735 113.937 148.718 113.946 148.702C113.955 148.687 113.967 148.673 113.981 148.662C113.995 148.651 114.011 148.643 114.029 148.639C114.046 148.633 114.064 148.632 114.082 148.634C114.1 148.636 114.118 148.641 114.133 148.651C114.149 148.66 114.163 148.672 114.174 148.686C114.184 148.701 114.192 148.718 114.196 148.735L115.288 152.939C115.292 152.957 115.294 152.975 115.291 152.993C115.289 153.01 115.283 153.028 115.274 153.043C115.265 153.059 115.253 153.072 115.239 153.083C115.225 153.094 115.208 153.102 115.191 153.107Z" fill="#263238"/>
<path d="M111.629 127.137L105.698 128.674C105.533 128.715 105.359 128.69 105.213 128.603C105.067 128.517 104.961 128.376 104.919 128.211C104.877 128.05 104.899 127.878 104.981 127.733C105.063 127.587 105.199 127.479 105.359 127.432L111.321 125.896C111.482 125.854 111.654 125.876 111.799 125.958C111.945 126.04 112.052 126.176 112.1 126.336C112.123 126.42 112.129 126.507 112.117 126.593C112.106 126.679 112.078 126.762 112.034 126.836C111.99 126.911 111.931 126.976 111.862 127.028C111.792 127.08 111.713 127.117 111.629 127.137Z" fill="#00977C"/>
<path d="M81.5185 46.5693C81.4129 46.8334 81.4701 47.1107 81.6418 47.1856C81.8134 47.2604 82.0423 47.1063 82.148 46.8422C82.2536 46.5781 82.2008 46.3008 82.0247 46.2259C81.8487 46.1511 81.6286 46.3052 81.5185 46.5693Z" fill="#263238"/>
<path d="M81.9438 46.2188L82.6526 46.3112C82.6526 46.3112 82.1243 46.659 81.9438 46.2188Z" fill="#263238"/>
<path d="M81.6419 46.918C81.635 47.6266 81.7238 48.3329 81.906 49.0177C81.7305 49.0552 81.5488 49.0537 81.3739 49.0134C81.199 48.9731 81.035 48.8949 80.8936 48.7844L81.6419 46.918Z" fill="#ED893E"/>
<path d="M82.5839 44.9639C82.5564 44.9586 82.5306 44.9465 82.509 44.9287C82.3507 44.7839 82.161 44.6776 81.9549 44.6181C81.7488 44.5585 81.5317 44.5473 81.3205 44.5853C81.2773 44.5962 81.2316 44.5899 81.193 44.5677C81.1544 44.5455 81.126 44.5092 81.1136 44.4665C81.1027 44.4233 81.109 44.3776 81.1312 44.339C81.1534 44.3004 81.1897 44.2719 81.2325 44.2596C81.4969 44.2072 81.77 44.2173 82.0298 44.2891C82.2897 44.361 82.5292 44.4925 82.7291 44.6734C82.7448 44.6889 82.7573 44.7074 82.7658 44.7278C82.7743 44.7482 82.7787 44.7701 82.7787 44.7922C82.7787 44.8143 82.7743 44.8362 82.7658 44.8566C82.7573 44.877 82.7448 44.8955 82.7291 44.9111C82.7112 44.9312 82.6885 44.9466 82.6632 44.9558C82.6378 44.965 82.6106 44.9678 82.5839 44.9639Z" fill="#263238"/>
<path d="M72.1897 46.4336C72.3789 48.5774 71.6661 52.0858 70.0469 53.2787C70.0469 53.2787 71.2657 55.5325 75.1685 56.0564C79.4585 56.633 77.4433 54.2163 77.4433 54.2163C75.1597 53.3359 75.4061 51.6324 75.9825 50.0652L72.1897 46.4336Z" fill="#FFB573"/>
<path d="M83.8794 57.875C84.2182 59.8735 84.6362 61.9469 85.0718 63.9674C85.305 64.9754 85.5382 65.9879 85.811 66.9784C86.0838 67.9688 86.3566 68.9593 86.6602 69.9321C86.8274 70.4119 86.977 70.9005 87.153 71.3672L87.417 72.0715L87.4786 72.2431V72.296C87.4874 72.3229 87.4977 72.3494 87.5094 72.3752C87.6001 72.5322 87.7486 72.6475 87.923 72.6966C88.2711 72.8206 88.6362 72.8903 89.0054 72.9035C89.9496 72.9295 90.8938 72.8528 91.8214 72.6746C92.7938 72.4985 93.819 72.2608 94.7738 71.9966L95.579 73.7795C95.0939 74.0684 94.5946 74.3328 94.083 74.5718C93.5775 74.8197 93.059 75.0401 92.5298 75.2321C91.4218 75.665 90.2596 75.9435 89.0758 76.0597C88.3805 76.1229 87.6795 76.0754 86.999 75.9188C86.1271 75.7199 85.342 75.2462 84.7594 74.5674C84.6087 74.3852 84.4734 74.1908 84.3546 73.9863C84.293 73.8851 84.2446 73.7795 84.1918 73.6782L84.1082 73.4801L83.765 72.7098C83.5406 72.1947 83.325 71.6797 83.1358 71.1603C82.7574 70.1214 82.3966 69.0781 82.0842 68.0304C81.7718 66.9828 81.4902 65.9263 81.2042 64.8698C80.6806 62.748 80.2538 60.6483 79.937 58.4517L83.8794 57.875Z" fill="#FFB573"/>
<path d="M94.3536 72.1205L96.052 70.7734L96.8176 73.3882C96.8176 73.3882 94.4944 75.0698 93.874 73.0933L94.3536 72.1205Z" fill="#FFB573"/>
<path d="M97.5885 71.2356L98.196 73.1461L96.8182 73.3882L96.0566 70.7734L97.5885 71.2356Z" fill="#FFB573"/>
<path d="M65.8535 155.13L69.4043 155.394L70.4559 147.237L66.9051 146.973L65.8535 155.13Z" fill="#FFB573"/>
<path d="M43.1157 144.767L46.1913 146.638L51.3085 140.246L48.2329 138.375L43.1157 144.767Z" fill="#FFB573"/>
<path d="M48.339 147.58C48.2952 147.587 48.2507 147.587 48.2069 147.58C47.7667 147.58 47.2429 146.893 46.9787 146.488C46.9691 146.475 46.9639 146.459 46.9639 146.442C46.9639 146.426 46.9691 146.409 46.9787 146.396C46.9872 146.382 46.9997 146.371 47.0146 146.364C47.0295 146.356 47.0461 146.354 47.0624 146.356C47.2077 146.387 48.4798 146.656 48.6471 147.078C48.665 147.125 48.6704 147.176 48.6627 147.225C48.655 147.274 48.6344 147.321 48.6031 147.36C48.544 147.462 48.4504 147.54 48.339 147.58ZM47.2385 146.581C47.6126 147.109 47.9692 147.422 48.2113 147.426C48.264 147.427 48.3159 147.413 48.3616 147.387C48.4073 147.36 48.4451 147.322 48.471 147.276C48.4828 147.258 48.489 147.237 48.489 147.215C48.489 147.193 48.4828 147.171 48.471 147.153C48.4006 146.929 47.7447 146.704 47.2385 146.585V146.581Z" fill="#00977C"/>
<path d="M48.1484 146.478C47.7826 146.578 47.3998 146.597 47.0258 146.536C47.0119 146.531 46.9994 146.523 46.9894 146.512C46.9794 146.501 46.9723 146.488 46.9686 146.474C46.9617 146.462 46.958 146.448 46.958 146.434C46.958 146.421 46.9617 146.407 46.9686 146.395C46.995 146.364 47.695 145.646 48.21 145.668C48.2765 145.669 48.3419 145.685 48.4014 145.715C48.4608 145.745 48.5128 145.787 48.5533 145.84C48.601 145.887 48.6313 145.949 48.6393 146.015C48.6473 146.081 48.6325 146.149 48.5974 146.206C48.4809 146.342 48.3235 146.438 48.1484 146.478ZM47.2239 146.399C47.6641 146.448 48.3421 146.32 48.4785 146.117C48.4785 146.082 48.5137 146.034 48.4433 145.946C48.4173 145.912 48.384 145.885 48.3459 145.865C48.3078 145.846 48.2658 145.836 48.2232 145.836C47.8397 145.915 47.4905 146.112 47.2239 146.399Z" fill="#00977C"/>
<path d="M47.1146 145.948L44.1974 143.14C44.1492 143.09 44.0844 143.06 44.0154 143.055C43.9465 143.051 43.8781 143.071 43.8234 143.114L41.333 145.033C41.273 145.086 41.2249 145.151 41.192 145.225C41.1591 145.298 41.1421 145.377 41.1421 145.458C41.1421 145.538 41.1591 145.617 41.192 145.69C41.2249 145.764 41.273 145.829 41.333 145.882C42.367 146.846 42.9126 147.26 44.193 148.497C44.985 149.259 46.0586 150.447 47.1498 151.499C48.241 152.551 49.3058 151.557 48.945 151.024C47.317 148.638 47.559 147.744 47.4138 146.525C47.3827 146.304 47.2772 146.101 47.1146 145.948Z" fill="#263238"/>
<path d="M70.9441 155.506C70.5684 155.499 70.1941 155.456 69.8265 155.378C69.8096 155.375 69.7941 155.366 69.7823 155.353C69.7705 155.341 69.7629 155.325 69.7605 155.308C69.7582 155.29 69.7612 155.273 69.7691 155.257C69.7769 155.241 69.7892 155.228 69.8045 155.22C69.9673 155.136 71.4105 154.41 71.8329 154.656C71.8735 154.677 71.9076 154.709 71.9317 154.747C71.9557 154.786 71.9687 154.831 71.9693 154.876C71.9784 154.953 71.9682 155.03 71.9398 155.102C71.9114 155.173 71.8655 155.236 71.8065 155.286C71.5521 155.454 71.2482 155.532 70.9441 155.506ZM70.1081 155.259C70.8913 155.387 71.4765 155.356 71.6965 155.162C71.7353 155.129 71.7653 155.087 71.7838 155.039C71.8022 154.992 71.8085 154.94 71.8021 154.89C71.8034 154.872 71.7995 154.854 71.7909 154.838C71.7823 154.823 71.7694 154.81 71.7537 154.802C71.5161 154.669 70.7021 154.978 70.1081 155.259Z" fill="#00977C"/>
<path d="M69.8444 155.39C69.8286 155.395 69.8118 155.395 69.796 155.39C69.7831 155.382 69.7728 155.37 69.7666 155.356C69.7603 155.342 69.7583 155.326 69.7608 155.311C69.7608 155.25 69.9325 153.797 70.7292 153.797H70.7953C71.0286 153.819 71.0946 153.933 71.1078 154.03C71.1738 154.431 70.311 155.201 69.8796 155.395L69.8444 155.39ZM70.7248 153.951C70.2142 153.951 70.0117 154.796 69.9501 155.157C70.3903 154.893 70.9757 154.277 70.9361 154.048C70.9361 154.026 70.9361 153.969 70.7733 153.955L70.7248 153.951Z" fill="#00977C"/>
<path d="M69.6263 154.887H65.6355C65.5664 154.887 65.4994 154.911 65.4464 154.955C65.3933 154.999 65.3574 155.061 65.3451 155.129L64.8083 158.285C64.7976 158.364 64.8039 158.445 64.8269 158.521C64.8499 158.597 64.889 158.668 64.9415 158.728C64.994 158.788 65.0588 158.836 65.1314 158.869C65.204 158.902 65.2829 158.919 65.3627 158.919C66.7531 158.919 67.4263 158.813 69.1819 158.813C70.2599 158.813 72.4907 158.923 73.9823 158.923C75.4739 158.923 75.5927 157.449 74.9723 157.317C72.2047 156.718 71.1311 155.89 70.2159 155.116C70.0526 154.972 69.8437 154.891 69.6263 154.887Z" fill="#263238"/>
<path opacity="0.2" d="M70.4553 147.236L69.8701 151.77L66.3589 151.18L66.9045 146.977L70.4553 147.236Z" fill="black"/>
<path opacity="0.2" d="M48.2263 138.375L51.3063 140.25L49.1855 142.891L46.0439 141.1L48.2263 138.375Z" fill="black"/>
<path d="M64.0644 74.6817L78.4392 76.6142C84.0096 56.4442 82.3684 55.9027 82.3684 55.9027C81.735 55.6007 81.0806 55.3447 80.4104 55.1368C79.7328 54.8903 79.0478 54.6658 78.3556 54.4633C76.9727 54.0527 75.5666 53.7249 74.1448 53.4816C71.3851 53.0069 68.5803 52.8489 65.7848 53.0106C65.5046 53.0302 65.2325 53.1128 64.9887 53.2523C64.7449 53.3918 64.5357 53.5845 64.3768 53.8162C64.317 53.9021 64.2654 53.9935 64.2228 54.0891C64.0663 54.4241 64.0054 54.7958 64.0468 55.1632C65.2612 65.7632 64.8696 69.2496 64.0644 74.6817Z" fill="#00977C"/>
<path opacity="0.2" d="M79.8374 62.0661C79.5544 64.1531 79.8229 66.278 80.6162 68.2289C81.571 64.2935 82.0902 61.6259 82.3454 59.777C81.2498 59.7286 80.1102 60.1512 79.8374 62.0661Z" fill="black"/>
<path d="M82.2416 55.8332C84.7056 57.2418 86.4172 60.6006 86.932 62.5506L81.6872 67.3488C81.6872 67.3488 78.968 61.0231 79.188 59.0598C79.408 57.0966 81.3132 55.3005 82.2416 55.8332Z" fill="#00977C"/>
<path d="M72.9693 42.0078C71.8649 45.3445 71.3281 46.7311 72.2961 49.1082C73.7569 52.6871 78.0821 53.4442 80.1589 50.5345C82.0289 47.9153 83.5205 42.897 80.8585 40.2294C80.2991 39.6342 79.5942 39.1953 78.8134 38.956C78.0326 38.7167 77.203 38.6853 76.4063 38.8649C75.6097 39.0445 74.8737 39.4288 74.2709 39.98C73.6682 40.5312 73.2195 41.2301 72.9693 42.0078Z" fill="#FFB573"/>
<path d="M78.4403 44.9722C78.2082 45.5842 78.1713 46.2531 78.3347 46.887C78.5548 47.7674 79.2151 47.8423 79.6245 47.2744C80.0338 46.7065 80.3112 45.6809 79.871 44.9413C79.4308 44.2018 78.7265 44.2987 78.4403 44.9722Z" fill="#FFB573"/>
<path d="M74.1639 37.8545C71.7879 36.5339 67.5111 40.3989 66.4375 46.7069C65.6675 51.2234 75.3079 53.4068 81.3975 53.3364C80.9927 52.2711 78.4627 49.0664 80.0775 45.9806C81.2523 43.74 82.5899 44.2594 82.6779 41.6534C82.7879 38.3695 78.4407 36.1685 74.1639 37.8545Z" fill="#263238"/>
<path d="M79.5735 39.2723C82.3367 39.0038 85.1131 41.7198 83.0539 44.4271C82.5509 44.0235 81.9655 43.7355 81.339 43.5834C80.7124 43.4312 80.0602 43.4187 79.4283 43.5467C78.1655 43.8284 79.5735 39.2723 79.5735 39.2723Z" fill="#263238"/>
<path d="M74.6459 76.1049C74.6459 76.1049 69.0799 99.7085 66.4399 113.271C63.6855 127.578 50.4811 142.483 50.4811 142.483L46.0107 139.982C46.0107 139.982 54.3179 126.38 57.0107 113.02C62.4843 85.9038 58.7707 80.4453 64.0507 74.6875L74.6459 76.1049Z" fill="#263238"/>
<path d="M50.9386 142.901L45.3374 139.78L46.1558 138.125L52.439 141.017L50.9386 142.901Z" fill="#00977C"/>
<path opacity="0.2" d="M71.6766 81.2322C67.3382 85.0047 67.809 98.4 68.2622 104.413C70.0838 95.8381 72.2706 86.2945 73.5422 80.77C73.0978 80.4266 72.4774 80.5543 71.6766 81.2322Z" fill="black"/>
<path d="M78.2281 76.6201C78.2281 76.6201 80.7405 104.648 79.3677 115.336C77.9421 126.455 70.6909 150.644 70.6909 150.644L65.5605 149.984C65.5605 149.984 69.7229 126.011 70.4621 115.006C71.2673 103.001 67.6901 75.207 67.6901 75.207L78.2281 76.6201Z" fill="#263238"/>
<path d="M71.7762 150.943L64.481 150.001L64.591 147.844L72.511 148.61L71.7762 150.943Z" fill="#00977C"/>
<path d="M63.9343 73.8149L63.1511 75.0078C63.0895 75.1002 63.1995 75.2147 63.3623 75.2367L78.4411 77.2616C78.5731 77.2616 78.6875 77.2308 78.7007 77.1516L78.9691 75.8926C78.9691 75.8046 78.8811 75.7121 78.7403 75.6945L64.1807 73.74C64.1367 73.7308 64.091 73.7329 64.048 73.746C64.0049 73.759 63.9658 73.7827 63.9343 73.8149Z" fill="#00977C"/>
<path opacity="0.5" d="M63.9343 73.8149L63.1511 75.0078C63.0895 75.1002 63.1995 75.2147 63.3623 75.2367L78.4411 77.2616C78.5731 77.2616 78.6875 77.2308 78.7007 77.1516L78.9691 75.8926C78.9691 75.8046 78.8811 75.7121 78.7403 75.6945L64.1807 73.74C64.1367 73.7308 64.091 73.7329 64.048 73.746C64.0049 73.759 63.9658 73.7827 63.9343 73.8149Z" fill="black"/>
<path d="M65.7235 75.7073L65.3317 75.6545C65.2525 75.6545 65.1997 75.5973 65.2085 75.5488L65.5694 73.9113C65.5694 73.8673 65.6531 73.8365 65.7279 73.8453L66.1197 73.8981C66.1989 73.8981 66.2518 73.9553 66.243 74.0037L65.882 75.6413C65.8732 75.6677 65.7983 75.7073 65.7235 75.7073Z" fill="#263238"/>
<path d="M75.5682 77.0331L75.1764 76.9803C75.1016 76.9803 75.0443 76.923 75.0531 76.8746L75.4141 75.2371C75.4141 75.1886 75.4977 75.1578 75.577 75.171L75.9644 75.2195C76.0436 75.2195 76.0964 75.2811 76.0876 75.3295L75.7266 76.9626C75.7178 77.0331 75.643 77.0331 75.5682 77.0331Z" fill="#263238"/>
</svg>
