<svg width="16" height="16" viewBox="0 0 16 16" fill="none" xmlns="http://www.w3.org/2000/svg">
<path d="M5.31797 11.832H10.6846V10.832H5.31797V11.832ZM5.31797 8.9987H10.6846V7.9987H5.31797V8.9987ZM3.66797 14.6654C3.4013 14.6654 3.16797 14.5654 2.96797 14.3654C2.76797 14.1654 2.66797 13.932 2.66797 13.6654V2.33203C2.66797 2.06536 2.76797 1.83203 2.96797 1.63203C3.16797 1.43203 3.4013 1.33203 3.66797 1.33203H9.68464L13.3346 4.98203V13.6654C13.3346 13.932 13.2346 14.1654 13.0346 14.3654C12.8346 14.5654 12.6013 14.6654 12.3346 14.6654H3.66797ZM9.18464 5.43203V2.33203H3.66797V13.6654H12.3346V5.43203H9.18464ZM3.66797 2.33203V5.43203V2.33203V13.6654V2.33203Z" fill="#212244"/>
</svg>
