<svg width="32" height="32" viewBox="0 0 32 32" fill="none" xmlns="http://www.w3.org/2000/svg">
<circle cx="16" cy="16" r="15" fill="#00977C" fill-opacity="0.1"/>
<path d="M11.8364 21.4909C10.7697 21.4909 9.86364 21.1182 9.11818 20.3727C8.37273 19.6273 8 18.7212 8 17.6545C8 16.697 8.30606 15.8636 8.91818 15.1545C9.5303 14.4455 10.297 14.0182 11.2182 13.8727C11.4 12.8545 11.897 11.9545 12.7091 11.1727C13.5212 10.3909 14.4424 10 15.4727 10C15.7636 10 16.0182 10.0818 16.2364 10.2455C16.4545 10.4091 16.5636 10.6303 16.5636 10.9091V16.2545L18.0727 14.7455L18.8545 15.5273L16.0182 18.3636L13.1818 15.5273L13.9636 14.7455L15.4727 16.2545V11C14.4303 11.1333 13.6121 11.5909 13.0182 12.3727C12.4242 13.1545 12.1273 14 12.1273 14.9091H11.7818C11.0424 14.9091 10.4091 15.1697 9.88182 15.6909C9.35455 16.2121 9.09091 16.8667 9.09091 17.6545C9.09091 18.4424 9.36364 19.097 9.90909 19.6182C10.4545 20.1394 11.097 20.4 11.8364 20.4H20.9273C21.4727 20.4 21.9394 20.2061 22.3273 19.8182C22.7152 19.4303 22.9091 18.9636 22.9091 18.4182C22.9091 17.8727 22.7152 17.4061 22.3273 17.0182C21.9394 16.6303 21.4727 16.4364 20.9273 16.4364H19.7818V14.9091C19.7818 14.0848 19.5818 13.3727 19.1818 12.7727C18.7818 12.1727 18.2667 11.697 17.6364 11.3455V10.1636C18.6182 10.5152 19.403 11.1273 19.9909 12C20.5788 12.8727 20.8727 13.8424 20.8727 14.9091V15.3455C21.7455 15.3212 22.4848 15.6 23.0909 16.1818C23.697 16.7636 24 17.5091 24 18.4182C24 19.2545 23.697 19.9758 23.0909 20.5818C22.4848 21.1879 21.7636 21.4909 20.9273 21.4909H11.8364Z" fill="#00977C"/>
</svg>
