<svg width="48" height="48" viewBox="0 0 48 48" fill="none" xmlns="http://www.w3.org/2000/svg">
<circle cx="23.9416" cy="23.9416" r="22.4416" fill="#00977C" fill-opacity="0.1"/>
<path fill-rule="evenodd" clip-rule="evenodd" d="M22.7092 22.4224H25.0244V23.5757C25.3579 22.9124 26.2132 22.3165 27.498 22.3165C29.9609 22.3165 30.5457 23.6368 30.5457 26.0592V30.5457H28.0522V26.6109C28.0522 25.2314 27.7186 24.4534 26.8696 24.4534C25.692 24.4534 25.2027 25.2918 25.2027 26.6103V30.5457H22.7092V22.4224ZM18.4334 30.4397H20.927V22.3165H18.4334V30.4397ZM21.2842 19.6677C21.2842 19.8767 21.2428 20.0837 21.1622 20.2765C21.0816 20.4694 20.9635 20.6443 20.8147 20.7911C20.5133 21.0907 20.1052 21.2584 19.6802 21.2573C19.2559 21.2571 18.8488 21.0898 18.5469 20.7917C18.3987 20.6444 18.281 20.4693 18.2005 20.2764C18.1201 20.0836 18.0785 19.8767 18.0781 19.6677C18.0781 19.2457 18.2464 18.8418 18.5475 18.5438C18.8492 18.2453 19.2565 18.0779 19.6808 18.0781C20.106 18.0781 20.5137 18.2458 20.8147 18.5438C21.1152 18.8418 21.2842 19.2457 21.2842 19.6677Z" fill="#00977C"/>
</svg>
