<svg width="48" height="48" viewBox="0 0 48 48" fill="none" xmlns="http://www.w3.org/2000/svg">
<circle cx="23.9416" cy="23.9416" r="22.4416" fill="#00977C" fill-opacity="0.1"/>
<path d="M30.5 30H18.5C18.1022 30 17.7206 29.842 17.4393 29.5607C17.158 29.2794 17 28.8978 17 28.5V19.4348C17.0168 19.0483 17.1823 18.6834 17.4618 18.416C17.7413 18.1487 18.1132 17.9996 18.5 18H30.5C30.8978 18 31.2794 18.158 31.5607 18.4393C31.842 18.7206 32 19.1022 32 19.5V28.5C32 28.8978 31.842 29.2794 31.5607 29.5607C31.2794 29.842 30.8978 30 30.5 30ZM18.5 20.901V28.5H30.5V20.901L24.5 24.9L18.5 20.901ZM19.1 19.5L24.5 23.1L29.9 19.5H19.1Z" fill="#00977C"/>
</svg>
