<svg width="15" height="12" viewBox="0 0 15 12" fill="none" xmlns="http://www.w3.org/2000/svg">
<path d="M13.5 12H1.5C1.10218 12 0.720644 11.842 0.43934 11.5607C0.158035 11.2794 0 10.8978 0 10.5V1.43475C0.0168245 1.04834 0.182257 0.683369 0.461759 0.416026C0.74126 0.148682 1.11323 -0.000365429 1.5 6.7284e-07H13.5C13.8978 6.7284e-07 14.2794 0.158036 14.5607 0.43934C14.842 0.720645 15 1.10218 15 1.5V10.5C15 10.8978 14.842 11.2794 14.5607 11.5607C14.2794 11.842 13.8978 12 13.5 12ZM1.5 2.901V10.5H13.5V2.901L7.5 6.9L1.5 2.901ZM2.1 1.5L7.5 5.1L12.9 1.5H2.1Z" fill="#00977C"/>
</svg>
