<svg width="198" height="171" viewBox="0 0 198 171" fill="none" xmlns="http://www.w3.org/2000/svg">
<path opacity="0.2" d="M42 95C65.196 95 84 76.196 84 53C84 29.804 65.196 11 42 11C18.804 11 0 29.804 0 53C0 76.196 18.804 95 42 95Z" fill="#00977C"/>
<path opacity="0.2" d="M104 162C127.196 162 146 143.196 146 120C146 96.804 127.196 78 104 78C80.804 78 62 96.804 62 120C62 143.196 80.804 162 104 162Z" fill="#00977C"/>
<g filter="url(#filter0_d_1653_13628)">
<path d="M121 17H34C31.2386 17 29 19.2386 29 22V143C29 145.761 31.2386 148 34 148H121C123.761 148 126 145.761 126 143V22C126 19.2386 123.761 17 121 17Z" fill="white"/>
<path d="M121 17.5H34C31.5147 17.5 29.5 19.5147 29.5 22V143C29.5 145.485 31.5147 147.5 34 147.5H121C123.485 147.5 125.5 145.485 125.5 143V22C125.5 19.5147 123.485 17.5 121 17.5Z" stroke="#F6F6F7"/>
</g>
<path d="M34 17H121C122.326 17 123.598 17.5268 124.536 18.4645C125.473 19.4021 126 20.6739 126 22V33H29V22C29 20.6739 29.5268 19.4021 30.4645 18.4645C31.4021 17.5268 32.6739 17 34 17V17Z" fill="#00977C"/>
<path d="M193 77.5003H82.3813C79.8998 77.5003 77.8809 75.4814 77.8809 72.9999V62.1338V61.8507L77.6381 61.7051L62.9717 52.9047L77.6381 44.1043L77.8809 43.9587V43.6756V32.0004C77.8809 29.5189 79.8998 27.5 82.3813 27.5H193C195.481 27.5 197.5 29.5189 197.5 32.0004V72.9999C197.5 75.4814 195.481 77.5003 193 77.5003Z" fill="white"/>
<path d="M193 77.0003C195.206 77.0003 197 75.2057 197 72.9999V32.0004C197 29.7946 195.206 28 193 28H82.3814C80.1756 28 78.381 29.7946 78.381 32.0004V43.6756V44.2418L77.8955 44.5331L63.9435 52.9047L77.8955 61.2763L78.381 61.5676V62.1338V72.9999C78.381 75.2057 80.1756 77.0003 82.3814 77.0003H193ZM193 78.0003H82.3814C79.6193 78.0003 77.381 75.7611 77.381 72.9999V62.1338L62 52.9047L77.381 43.6756V32.0004C77.381 29.2383 79.6193 27 82.3814 27H193C195.762 27 198 29.2383 198 32.0004V72.9999C198 75.7611 195.762 78.0003 193 78.0003Z" fill="#E2E8F2"/>
<path d="M173 136.5H62.3813C59.8998 136.5 57.8809 134.481 57.8809 132V121.134V120.851L57.6381 120.705L42.9717 111.905L57.6381 103.104L57.8809 102.959V102.676V91.0004C57.8809 88.5189 59.8998 86.5 62.3813 86.5H173C175.481 86.5 177.5 88.5189 177.5 91.0004V132C177.5 134.481 175.481 136.5 173 136.5Z" fill="white"/>
<path d="M173 136C175.206 136 177 134.206 177 132V91.0004C177 88.7946 175.206 87 173 87H62.3814C60.1756 87 58.381 88.7946 58.381 91.0004V102.676V103.242L57.8955 103.533L43.9435 111.905L57.8955 120.276L58.381 120.568V121.134V132C58.381 134.206 60.1756 136 62.3814 136H173ZM173 137H62.3814C59.6193 137 57.381 134.761 57.381 132V121.134L42 111.905L57.381 102.676V91.0004C57.381 88.2383 59.6193 86 62.3814 86H173C175.762 86 178 88.2383 178 91.0004V132C178 134.761 175.762 137 173 137Z" fill="#E2E8F2"/>
<path opacity="0.5" d="M91.5 38.5H185.5" stroke="#888C92" stroke-width="2"/>
<path opacity="0.5" d="M69.5 98H163.5" stroke="#888C92" stroke-width="2"/>
<path opacity="0.5" d="M91.5 47.5H185.5" stroke="#888C92" stroke-width="2"/>
<path opacity="0.5" d="M69.5 107H163.5" stroke="#888C92" stroke-width="2"/>
<path opacity="0.5" d="M91.5 56.5H185.5" stroke="#888C92" stroke-width="2"/>
<path opacity="0.5" d="M69.5 116H163.5" stroke="#888C92" stroke-width="2"/>
<path opacity="0.5" d="M91.5 65.5H157.5" stroke="#888C92" stroke-width="2"/>
<path opacity="0.5" d="M69.5 125H135.5" stroke="#888C92" stroke-width="2"/>
<path opacity="0.4" d="M17 117C19.7614 117 22 114.761 22 112C22 109.239 19.7614 107 17 107C14.2386 107 12 109.239 12 112C12 114.761 14.2386 117 17 117Z" fill="#00977C"/>
<defs>
<filter id="filter0_d_1653_13628" x="9" y="0" width="137" height="171" filterUnits="userSpaceOnUse" color-interpolation-filters="sRGB">
<feFlood flood-opacity="0" result="BackgroundImageFix"/>
<feColorMatrix in="SourceAlpha" type="matrix" values="0 0 0 0 0 0 0 0 0 0 0 0 0 0 0 0 0 0 127 0" result="hardAlpha"/>
<feOffset dy="3"/>
<feGaussianBlur stdDeviation="10"/>
<feColorMatrix type="matrix" values="0 0 0 0 0 0 0 0 0 0 0 0 0 0 0 0 0 0 0.161 0"/>
<feBlend mode="normal" in2="BackgroundImageFix" result="effect1_dropShadow_1653_13628"/>
<feBlend mode="normal" in="SourceGraphic" in2="effect1_dropShadow_1653_13628" result="shape"/>
</filter>
</defs>
</svg>
