<svg width="77" height="77" viewBox="0 0 77 77" fill="none" xmlns="http://www.w3.org/2000/svg">
<circle cx="38.4062" cy="38.4062" r="36" fill="#00977C" fill-opacity="0.1"/>
<path d="M39 49C44.5228 49 49 44.5228 49 39C49 33.4772 44.5228 29 39 29C33.4772 29 29 33.4772 29 39C29 44.5228 33.4772 49 39 49Z" stroke="#00977C" stroke-width="1.66667" stroke-linecap="round" stroke-linejoin="round"/>
<path d="M39.0002 42.3333C41.3013 42.3333 43.1668 40.4679 43.1668 38.1667C43.1668 35.8655 41.3013 34 39.0002 34C36.699 34 34.8335 35.8655 34.8335 38.1667C34.8335 40.4679 36.699 42.3333 39.0002 42.3333Z" stroke="#00977C" stroke-width="1.66667" stroke-linecap="round" stroke-linejoin="round"/>
<path d="M32.3125 46.4373C32.9395 45.2023 33.8962 44.1651 35.0766 43.4406C36.257 42.716 37.615 42.3325 39 42.3325C40.385 42.3325 41.743 42.716 42.9234 43.4406C44.1038 44.1651 45.0605 45.2023 45.6875 46.4373" stroke="#00977C" stroke-width="1.66667" stroke-linecap="round" stroke-linejoin="round"/>
</svg>
