<svg width="32" height="32" viewBox="0 0 32 32" fill="none" xmlns="http://www.w3.org/2000/svg">
<circle cx="16" cy="16" r="15" fill="#00977C" fill-opacity="0.1"/>
<path d="M18.94 19.86L19.84 18.96L16.66 15.76V11.74H15.46V16.24L18.94 19.86ZM16 24C14.9067 24 13.8733 23.79 12.9 23.37C11.9267 22.95 11.0767 22.3767 10.35 21.65C9.62333 20.9233 9.05 20.0733 8.63 19.1C8.21 18.1267 8 17.0933 8 16C8 14.9067 8.21 13.8733 8.63 12.9C9.05 11.9267 9.62333 11.0767 10.35 10.35C11.0767 9.62333 11.9267 9.05 12.9 8.63C13.8733 8.21 14.9067 8 16 8C17.0933 8 18.1267 8.21 19.1 8.63C20.0733 9.05 20.9233 9.62333 21.65 10.35C22.3767 11.0767 22.95 11.9267 23.37 12.9C23.79 13.8733 24 14.9067 24 16C24 17.0933 23.79 18.1267 23.37 19.1C22.95 20.0733 22.3767 20.9233 21.65 21.65C20.9233 22.3767 20.0733 22.95 19.1 23.37C18.1267 23.79 17.0933 24 16 24ZM16 22.8C17.8667 22.8 19.4667 22.1333 20.8 20.8C22.1333 19.4667 22.8 17.8667 22.8 16C22.8 14.1333 22.1333 12.5333 20.8 11.2C19.4667 9.86667 17.8667 9.2 16 9.2C14.1333 9.2 12.5333 9.86667 11.2 11.2C9.86667 12.5333 9.2 14.1333 9.2 16C9.2 17.8667 9.86667 19.4667 11.2 20.8C12.5333 22.1333 14.1333 22.8 16 22.8Z" fill="#00977C"/>
</svg>
