<svg width="48" height="48" viewBox="0 0 48 48" fill="none" xmlns="http://www.w3.org/2000/svg">
<circle cx="23.9416" cy="23.9416" r="22.4416" fill="#00977C" fill-opacity="0.1"/>
<path d="M30.9854 19.443C30.4649 19.6737 29.9058 19.8295 29.3179 19.9C29.9245 19.537 30.3782 18.9658 30.5946 18.2929C30.0247 18.6314 29.401 18.8696 28.7506 18.9973C28.3133 18.5303 27.7339 18.2208 27.1026 18.1168C26.4713 18.0128 25.8233 18.1201 25.2593 18.4221C24.6952 18.7241 24.2466 19.2039 23.9832 19.7869C23.7197 20.37 23.6561 21.0237 23.8023 21.6467C22.6476 21.5887 21.518 21.2886 20.4868 20.7658C19.4556 20.243 18.5459 19.5092 17.8166 18.6121C17.5673 19.0422 17.4239 19.5409 17.4239 20.072C17.4236 20.5501 17.5414 21.0209 17.7667 21.4426C17.992 21.8644 18.3179 22.2239 18.7155 22.4895C18.2544 22.4748 17.8034 22.3502 17.4002 22.126V22.1634C17.4002 22.834 17.6321 23.484 18.0567 24.003C18.4813 24.5221 19.0724 24.8782 19.7298 25.011C19.302 25.1268 18.8535 25.1438 18.4182 25.0609C18.6036 25.6379 18.9649 26.1425 19.4513 26.504C19.9378 26.8655 20.5251 27.0658 21.1311 27.0769C20.1024 27.8844 18.832 28.3225 17.5242 28.3205C17.2926 28.3206 17.0611 28.3071 16.8311 28.28C18.1585 29.1335 19.7038 29.5865 21.282 29.5847C26.6243 29.5847 29.5448 25.16 29.5448 21.3225C29.5448 21.1978 29.5417 21.0719 29.5361 20.9472C30.1042 20.5364 30.5945 20.0277 30.9842 19.4449L30.9854 19.443Z" fill="#00977C"/>
</svg>
