<svg width="199" height="191" viewBox="0 0 199 191" fill="none" xmlns="http://www.w3.org/2000/svg">
<path opacity="0.2" d="M43 105C66.196 105 85 86.196 85 63C85 39.804 66.196 21 43 21C19.804 21 1 39.804 1 63C1 86.196 19.804 105 43 105Z" fill="#00977C"/>
<path opacity="0.2" d="M105 172C128.196 172 147 153.196 147 130C147 106.804 128.196 88 105 88C81.804 88 63 106.804 63 130C63 153.196 81.804 172 105 172Z" fill="#00977C"/>
<g filter="url(#filter0_d_1653_13627)">
<path d="M122 27H35C32.2386 27 30 29.2386 30 32V153C30 155.761 32.2386 158 35 158H122C124.761 158 127 155.761 127 153V32C127 29.2386 124.761 27 122 27Z" fill="white"/>
<path d="M122 27.5H35C32.5147 27.5 30.5 29.5147 30.5 32V153C30.5 155.485 32.5147 157.5 35 157.5H122C124.485 157.5 126.5 155.485 126.5 153V32C126.5 29.5147 124.485 27.5 122 27.5Z" stroke="#F6F6F7"/>
</g>
<path d="M35 27H122C123.326 27 124.598 27.5268 125.536 28.4645C126.473 29.4021 127 30.6739 127 32V43H30V32C30 30.6739 30.5268 29.4021 31.4645 28.4645C32.4021 27.5268 33.6739 27 35 27V27Z" fill="#00977C"/>
<path d="M194 87.5003H83.3813C80.8998 87.5003 78.8809 85.4814 78.8809 82.9999V72.1338V71.8507L78.6381 71.7051L63.9717 62.9047L78.6381 54.1043L78.8809 53.9587V53.6756V42.0004C78.8809 39.5189 80.8998 37.5 83.3813 37.5H194C196.481 37.5 198.5 39.5189 198.5 42.0004V82.9999C198.5 85.4814 196.481 87.5003 194 87.5003Z" fill="white"/>
<path d="M194 87.0003C196.206 87.0003 198 85.2057 198 82.9999V42.0004C198 39.7946 196.206 38 194 38H83.3814C81.1756 38 79.381 39.7946 79.381 42.0004V53.6756V54.2418L78.8955 54.5331L64.9435 62.9047L78.8955 71.2763L79.381 71.5676V72.1338V82.9999C79.381 85.2057 81.1756 87.0003 83.3814 87.0003H194ZM194 88.0003H83.3814C80.6193 88.0003 78.381 85.7611 78.381 82.9999V72.1338L63 62.9047L78.381 53.6756V42.0004C78.381 39.2383 80.6193 37 83.3814 37H194C196.762 37 199 39.2383 199 42.0004V82.9999C199 85.7611 196.762 88.0003 194 88.0003Z" fill="#E2E8F2"/>
<path d="M174 146.5H63.3813C60.8998 146.5 58.8809 144.481 58.8809 142V131.134V130.851L58.6381 130.705L43.9717 121.905L58.6381 113.104L58.8809 112.959V112.676V101C58.8809 98.5189 60.8998 96.5 63.3813 96.5H174C176.481 96.5 178.5 98.5189 178.5 101V142C178.5 144.481 176.481 146.5 174 146.5Z" fill="white"/>
<path d="M174 146C176.206 146 178 144.206 178 142V101C178 98.7946 176.206 97 174 97H63.3814C61.1756 97 59.381 98.7946 59.381 101V112.676V113.242L58.8955 113.533L44.9435 121.905L58.8955 130.276L59.381 130.568V131.134V142C59.381 144.206 61.1756 146 63.3814 146H174ZM174 147H63.3814C60.6193 147 58.381 144.761 58.381 142V131.134L43 121.905L58.381 112.676V101C58.381 98.2383 60.6193 96 63.3814 96H174C176.762 96 179 98.2383 179 101V142C179 144.761 176.762 147 174 147Z" fill="#E2E8F2"/>
<path opacity="0.5" d="M92.5 48.5H186.5" stroke="#888C92" stroke-width="2"/>
<path opacity="0.5" d="M70.5 108H164.5" stroke="#888C92" stroke-width="2"/>
<path opacity="0.5" d="M92.5 57.5H186.5" stroke="#888C92" stroke-width="2"/>
<path opacity="0.5" d="M70.5 117H164.5" stroke="#888C92" stroke-width="2"/>
<path opacity="0.5" d="M92.5 66.5H186.5" stroke="#888C92" stroke-width="2"/>
<path opacity="0.5" d="M70.5 126H164.5" stroke="#888C92" stroke-width="2"/>
<path opacity="0.5" d="M92.5 75.5H158.5" stroke="#888C92" stroke-width="2"/>
<path opacity="0.5" d="M70.5 135H136.5" stroke="#888C92" stroke-width="2"/>
<path opacity="0.4" d="M18 127C20.7614 127 23 124.761 23 122C23 119.239 20.7614 117 18 117C15.2386 117 13 119.239 13 122C13 124.761 15.2386 127 18 127Z" fill="#00977C"/>
<defs>
<filter id="filter0_d_1653_13627" x="10" y="10" width="137" height="171" filterUnits="userSpaceOnUse" color-interpolation-filters="sRGB">
<feFlood flood-opacity="0" result="BackgroundImageFix"/>
<feColorMatrix in="SourceAlpha" type="matrix" values="0 0 0 0 0 0 0 0 0 0 0 0 0 0 0 0 0 0 127 0" result="hardAlpha"/>
<feOffset dy="3"/>
<feGaussianBlur stdDeviation="10"/>
<feColorMatrix type="matrix" values="0 0 0 0 0 0 0 0 0 0 0 0 0 0 0 0 0 0 0.161 0"/>
<feBlend mode="normal" in2="BackgroundImageFix" result="effect1_dropShadow_1653_13627"/>
<feBlend mode="normal" in="SourceGraphic" in2="effect1_dropShadow_1653_13627" result="shape"/>
</filter>
</defs>
</svg>
