<svg width="77" height="77" viewBox="0 0 77 77" fill="none" xmlns="http://www.w3.org/2000/svg">
<circle cx="38.4062" cy="38.4062" r="36" fill="#00977C" fill-opacity="0.1"/>
<path d="M39 33.1665V34.8332" stroke="#00977C" stroke-width="2" stroke-linecap="round" stroke-linejoin="round"/>
<path d="M39 43.1665V44.8332" stroke="#00977C" stroke-width="2" stroke-linecap="round" stroke-linejoin="round"/>
<path d="M39 49C44.5228 49 49 44.5228 49 39C49 33.4772 44.5228 29 39 29C33.4772 29 29 33.4772 29 39C29 44.5228 33.4772 49 39 49Z" stroke="#00977C" stroke-width="2" stroke-linecap="round" stroke-linejoin="round"/>
<path d="M36.4998 43.1668H40.2498C40.8024 43.1668 41.3323 42.9473 41.723 42.5566C42.1137 42.1659 42.3332 41.636 42.3332 41.0835C42.3332 40.531 42.1137 40.0011 41.723 39.6104C41.3323 39.2197 40.8024 39.0002 40.2498 39.0002H37.7498C37.1973 39.0002 36.6674 38.7807 36.2767 38.39C35.886 37.9993 35.6665 37.4694 35.6665 36.9168C35.6665 36.3643 35.886 35.8344 36.2767 35.4437C36.6674 35.053 37.1973 34.8335 37.7498 34.8335H41.4998" stroke="#00977C" stroke-width="2" stroke-linecap="round" stroke-linejoin="round"/>
</svg>
