<svg width="20" height="20" viewBox="0 0 20 20" fill="none" xmlns="http://www.w3.org/2000/svg">
<path fill-rule="evenodd" clip-rule="evenodd" d="M17 8.99976H5.41401L8.70701 5.70676C9.09801 5.31576 9.09801 4.68376 8.70701 4.29276C8.31601 3.90176 7.68401 3.90176 7.29301 4.29276L2.29301 9.29276C1.90201 9.68376 1.90201 10.3158 2.29301 10.7068L7.29301 15.7068C7.48801 15.9018 7.74401 15.9998 8.00001 15.9998C8.25601 15.9998 8.51201 15.9018 8.70701 15.7068C9.09801 15.3158 9.09801 14.6838 8.70701 14.2928L5.41401 10.9998H17C17.553 10.9998 18 10.5518 18 9.99976C18 9.44776 17.553 8.99976 17 8.99976Z" fill="#888C92"/>
</svg>
