<svg width="20" height="20" viewBox="0 0 20 20" fill="none" xmlns="http://www.w3.org/2000/svg">
<path d="M2.32102 15.6111C2.36024 15.2581 2.37985 15.0817 2.43325 14.9167C2.48063 14.7703 2.54758 14.631 2.63227 14.5026C2.72772 14.3579 2.85329 14.2323 3.10443 13.9812L14.3784 2.70721C15.3213 1.76426 16.8502 1.76426 17.7931 2.70721C18.7361 3.65016 18.7361 5.17899 17.7931 6.12194L6.51915 17.3959C6.26801 17.647 6.14245 17.7726 5.99769 17.868C5.86926 17.9527 5.72998 18.0197 5.58362 18.067C5.41865 18.1205 5.24216 18.1401 4.88917 18.1793L2 18.5003L2.32102 15.6111Z" stroke="#212244" stroke-linecap="round" stroke-linejoin="round"/>
</svg>
