<svg width="210" height="163" viewBox="0 0 210 163" fill="none" xmlns="http://www.w3.org/2000/svg">
<path d="M96.5692 62.7372H185.677C186.741 62.7372 187.761 63.1597 188.513 63.9117C189.265 64.6637 189.687 65.6837 189.687 66.7472V129.274H92.5742V66.7322C92.5782 65.6739 93.0004 64.66 93.7487 63.9117C94.4971 63.1633 95.5109 62.7411 96.5692 62.7372Z" fill="#263238" stroke="#263238" stroke-linecap="round" stroke-linejoin="round"/>
<path d="M204.239 158.682H78.0078L92.5743 129.269H189.672L204.239 158.682Z" fill="white" stroke="#263238" stroke-linecap="round" stroke-linejoin="round"/>
<path d="M183.793 68.0054H98.4541V124.001H183.793V68.0054Z" fill="#00977C" stroke="#263238" stroke-linecap="round" stroke-linejoin="round"/>
<path d="M137.071 138.577L137.241 134.993H132.108L131.767 138.577H137.071Z" fill="#263238" stroke="white" stroke-linecap="round" stroke-linejoin="round"/>
<path d="M147.677 138.577L147.502 134.993H142.369L142.374 138.577H147.677Z" fill="#263238" stroke="white" stroke-linecap="round" stroke-linejoin="round"/>
<path d="M175.291 142.412H180.775L179.487 138.577H174.189L175.291 142.412Z" fill="#263238" stroke="white" stroke-linecap="round" stroke-linejoin="round"/>
<path d="M131.768 138.577L132.108 134.993H126.981L126.469 138.577H131.768Z" fill="#263238" stroke="white" stroke-linecap="round" stroke-linejoin="round"/>
<path d="M121.166 138.577L121.848 134.993H116.72L115.863 138.577H121.166Z" fill="#263238" stroke="white" stroke-linecap="round" stroke-linejoin="round"/>
<path d="M168.885 138.577L168.023 134.993H162.896L163.582 138.577H168.885Z" fill="#263238" stroke="white" stroke-linecap="round" stroke-linejoin="round"/>
<path d="M174.189 138.577L173.156 134.993H168.023L168.885 138.577H174.189Z" fill="#263238" stroke="white" stroke-linecap="round" stroke-linejoin="round"/>
<path d="M115.863 138.577L116.72 134.993H111.587L110.559 138.577H115.863Z" fill="#263238" stroke="white" stroke-linecap="round" stroke-linejoin="round"/>
<path d="M152.975 138.577L152.63 134.993H147.502L147.677 138.577H152.975Z" fill="#263238" stroke="white" stroke-linecap="round" stroke-linejoin="round"/>
<path d="M179.487 138.577L178.284 134.993H173.156L174.189 138.577H179.487Z" fill="#263238" stroke="white" stroke-linecap="round" stroke-linejoin="round"/>
<path d="M163.582 138.577L162.895 134.993H157.762L158.279 138.577H163.582Z" fill="#263238" stroke="white" stroke-linecap="round" stroke-linejoin="round"/>
<path d="M158.279 138.577L157.762 134.993H152.63L152.976 138.577H158.279Z" fill="#263238" stroke="white" stroke-linecap="round" stroke-linejoin="round"/>
<path d="M142.374 138.577L142.369 134.993H137.241L137.071 138.577H142.374Z" fill="#263238" stroke="white" stroke-linecap="round" stroke-linejoin="round"/>
<path d="M105.261 138.577H99.9578L98.4941 142.412H103.978L105.261 138.577Z" fill="#263238" stroke="white" stroke-linecap="round" stroke-linejoin="round"/>
<path d="M106.454 134.993H101.326L99.9578 138.577H105.261L106.454 134.993Z" fill="#263238" stroke="white" stroke-linecap="round" stroke-linejoin="round"/>
<path d="M110.559 138.577L111.587 134.993H106.454L105.261 138.577H110.559Z" fill="#263238" stroke="white" stroke-linecap="round" stroke-linejoin="round"/>
<path d="M96.9251 146.517L95.2358 150.928H101.131L102.604 146.517H96.9251Z" fill="#263238" stroke="white" stroke-linecap="round" stroke-linejoin="round"/>
<path d="M103.978 142.412H98.494L96.925 146.517H102.604L103.978 142.412Z" fill="#263238" stroke="white" stroke-linecap="round" stroke-linejoin="round"/>
<path d="M102.604 146.517L101.131 150.928H107.025L108.289 146.517H102.604Z" fill="#263238" stroke="white" stroke-linecap="round" stroke-linejoin="round"/>
<path d="M126.469 138.577L126.98 134.993H121.847L121.166 138.577H126.469Z" fill="#263238" stroke="white" stroke-linecap="round" stroke-linejoin="round"/>
<path d="M125.918 142.412L126.469 138.577H121.166L120.434 142.412H125.918Z" fill="#263238" stroke="white" stroke-linecap="round" stroke-linejoin="round"/>
<path d="M120.434 142.412L121.166 138.577H115.862L114.95 142.412H120.434Z" fill="#263238" stroke="white" stroke-linecap="round" stroke-linejoin="round"/>
<path d="M131.406 142.412L131.767 138.577H126.469L125.918 142.412H131.406Z" fill="#263238" stroke="white" stroke-linecap="round" stroke-linejoin="round"/>
<path d="M110.559 138.577H105.261L103.978 142.412H109.462L110.559 138.577Z" fill="#263238" stroke="white" stroke-linecap="round" stroke-linejoin="round"/>
<path d="M176.474 146.517H182.159L180.775 142.412H175.292L176.474 146.517Z" fill="#263238" stroke="white" stroke-linecap="round" stroke-linejoin="round"/>
<path d="M114.95 142.412L115.863 138.577H110.559L109.462 142.412H114.95Z" fill="#263238" stroke="white" stroke-linecap="round" stroke-linejoin="round"/>
<path d="M103.978 142.412L102.604 146.517H108.289L109.462 142.412H103.978Z" fill="#263238" stroke="white" stroke-linecap="round" stroke-linejoin="round"/>
<path d="M164.319 142.412L163.582 138.577H158.279L158.835 142.412H164.319Z" fill="#263238" stroke="white" stroke-linecap="round" stroke-linejoin="round"/>
<path d="M158.835 142.412L158.279 138.577H152.976L153.347 142.412H158.835Z" fill="#263238" stroke="white" stroke-linecap="round" stroke-linejoin="round"/>
<path d="M175.292 142.412L174.189 138.577H168.885L169.803 142.412H175.292Z" fill="#263238" stroke="white" stroke-linecap="round" stroke-linejoin="round"/>
<path d="M142.379 142.412L142.374 138.577H137.071L136.89 142.412H142.379Z" fill="#263238" stroke="white" stroke-linecap="round" stroke-linejoin="round"/>
<path d="M153.346 142.412L152.976 138.577H147.677L147.863 142.412H153.346Z" fill="#263238" stroke="white" stroke-linecap="round" stroke-linejoin="round"/>
<path d="M147.863 142.412L147.677 138.577H142.374L142.379 142.412H147.863Z" fill="#263238" stroke="white" stroke-linecap="round" stroke-linejoin="round"/>
<path d="M136.89 142.412L137.071 138.577H131.767L131.406 142.412H136.89Z" fill="#263238" stroke="white" stroke-linecap="round" stroke-linejoin="round"/>
<path d="M153.346 142.412L153.747 146.517H159.427L158.835 142.412H153.346Z" fill="#263238" stroke="white" stroke-linecap="round" stroke-linejoin="round"/>
<path d="M158.835 142.412L159.427 146.517H165.111L164.319 142.412H158.835Z" fill="#263238" stroke="white" stroke-linecap="round" stroke-linejoin="round"/>
<path d="M109.462 142.412L108.289 146.517H113.973L114.95 142.412H109.462Z" fill="#263238" stroke="white" stroke-linecap="round" stroke-linejoin="round"/>
<path d="M164.319 142.412L165.111 146.517H170.79L169.803 142.412H164.319Z" fill="#263238" stroke="white" stroke-linecap="round" stroke-linejoin="round"/>
<path d="M142.379 142.412V146.517H148.063L147.863 142.412H142.379Z" fill="#263238" stroke="white" stroke-linecap="round" stroke-linejoin="round"/>
<path d="M169.803 142.412L170.79 146.517H176.474L175.291 142.412H169.803Z" fill="#263238" stroke="white" stroke-linecap="round" stroke-linejoin="round"/>
<path d="M147.863 142.412L148.063 146.517H153.748L153.347 142.412H147.863Z" fill="#263238" stroke="white" stroke-linecap="round" stroke-linejoin="round"/>
<path d="M120.434 142.412L119.652 146.517H125.336L125.918 142.412H120.434Z" fill="#263238" stroke="white" stroke-linecap="round" stroke-linejoin="round"/>
<path d="M114.95 142.412L113.973 146.517H119.652L120.434 142.412H114.95Z" fill="#263238" stroke="white" stroke-linecap="round" stroke-linejoin="round"/>
<path d="M136.89 142.412L136.7 146.517H142.379V142.412H136.89Z" fill="#263238" stroke="white" stroke-linecap="round" stroke-linejoin="round"/>
<path d="M131.407 142.412L131.016 146.517H136.7L136.89 142.412H131.407Z" fill="#263238" stroke="white" stroke-linecap="round" stroke-linejoin="round"/>
<path d="M125.918 142.412L125.336 146.517H131.016L131.407 142.412H125.918Z" fill="#263238" stroke="white" stroke-linecap="round" stroke-linejoin="round"/>
<path d="M169.803 142.412L168.885 138.577H163.582L164.319 142.412H169.803Z" fill="#263238" stroke="white" stroke-linecap="round" stroke-linejoin="round"/>
<path d="M106.454 134.993L107.682 131.324H102.725L101.326 134.993H106.454Z" fill="#263238" stroke="white" stroke-linecap="round" stroke-linejoin="round"/>
<path d="M101.326 134.993H96.5894L95.0605 138.577H99.9578L101.326 134.993Z" fill="#263238" stroke="white" stroke-linecap="round" stroke-linejoin="round"/>
<path d="M102.725 131.324H98.1533L96.5894 134.993H101.326L102.725 131.324Z" fill="#263238" stroke="white" stroke-linecap="round" stroke-linejoin="round"/>
<path d="M99.9577 138.577H95.0605L93.4314 142.412H98.4941L99.9577 138.577Z" fill="#263238" stroke="white" stroke-linecap="round" stroke-linejoin="round"/>
<path d="M98.4941 142.412H93.4314L91.677 146.517H96.9251L98.4941 142.412Z" fill="#263238" stroke="white" stroke-linecap="round" stroke-linejoin="round"/>
<path d="M96.9252 146.517H91.6771L89.7974 150.928H95.236L96.9252 146.517Z" fill="#263238" stroke="white" stroke-linecap="round" stroke-linejoin="round"/>
<path d="M184.79 138.577L186.264 142.412H191.116L189.482 138.577H184.79Z" fill="#263238" stroke="white" stroke-linecap="round" stroke-linejoin="round"/>
<path d="M187.838 146.517H192.865L191.116 142.412H186.264L187.838 146.517Z" fill="#263238" stroke="white" stroke-linecap="round" stroke-linejoin="round"/>
<path d="M189.532 150.928H194.745L192.865 146.517H187.838L189.532 150.928Z" fill="#263238" stroke="white" stroke-linecap="round" stroke-linejoin="round"/>
<path d="M147.502 134.993L147.321 131.324H142.369V134.993H147.502Z" fill="#263238" stroke="white" stroke-linecap="round" stroke-linejoin="round"/>
<path d="M184.79 138.577H189.482L187.953 134.993H183.417L184.79 138.577Z" fill="#263238" stroke="white" stroke-linecap="round" stroke-linejoin="round"/>
<path d="M182.159 146.517H187.838L186.264 142.412H180.775L182.159 146.517Z" fill="#263238" stroke="white" stroke-linecap="round" stroke-linejoin="round"/>
<path d="M111.587 134.993L112.635 131.324H107.682L106.454 134.993H111.587Z" fill="#263238" stroke="white" stroke-linecap="round" stroke-linejoin="round"/>
<path d="M178.284 134.993L179.487 138.577H184.79L183.417 134.993H178.284Z" fill="#263238" stroke="white" stroke-linecap="round" stroke-linejoin="round"/>
<path d="M187.953 134.993L186.389 131.324H182.008L183.417 134.993H187.953Z" fill="#263238" stroke="white" stroke-linecap="round" stroke-linejoin="round"/>
<path d="M183.417 134.993L182.008 131.324H177.051L178.284 134.993H183.417Z" fill="#263238" stroke="white" stroke-linecap="round" stroke-linejoin="round"/>
<path d="M165.111 146.517L165.958 150.928H171.853L170.79 146.517H165.111Z" fill="#263238" stroke="white" stroke-linecap="round" stroke-linejoin="round"/>
<path d="M183.637 150.928H189.532L187.838 146.517H182.159L183.637 150.928Z" fill="#263238" stroke="white" stroke-linecap="round" stroke-linejoin="round"/>
<path d="M178.284 134.993L177.051 131.324H172.098L173.156 134.993H178.284Z" fill="#263238" stroke="white" stroke-linecap="round" stroke-linejoin="round"/>
<path d="M176.474 146.517L177.748 150.928H183.637L182.159 146.517H176.474Z" fill="#263238" stroke="white" stroke-linecap="round" stroke-linejoin="round"/>
<path d="M170.79 146.517L171.853 150.928H177.748L176.475 146.517H170.79Z" fill="#263238" stroke="white" stroke-linecap="round" stroke-linejoin="round"/>
<path d="M180.775 142.412H186.264L184.79 138.577H179.487L180.775 142.412Z" fill="#263238" stroke="white" stroke-linecap="round" stroke-linejoin="round"/>
<path d="M132.108 134.993L132.459 131.324H127.502L126.98 134.993H132.108Z" fill="#263238" stroke="white" stroke-linecap="round" stroke-linejoin="round"/>
<path d="M173.156 134.993L172.099 131.324H167.141L168.023 134.993H173.156Z" fill="#263238" stroke="white" stroke-linecap="round" stroke-linejoin="round"/>
<path d="M126.981 134.993L127.502 131.324H122.549L121.848 134.993H126.981Z" fill="#263238" stroke="white" stroke-linecap="round" stroke-linejoin="round"/>
<path d="M142.369 134.993V131.324H137.412L137.241 134.993H142.369Z" fill="#263238" stroke="white" stroke-linecap="round" stroke-linejoin="round"/>
<path d="M121.848 134.993L122.549 131.324H117.592L116.72 134.993H121.848Z" fill="#263238" stroke="white" stroke-linecap="round" stroke-linejoin="round"/>
<path d="M116.72 134.993L117.592 131.324H112.635L111.587 134.993H116.72Z" fill="#263238" stroke="white" stroke-linecap="round" stroke-linejoin="round"/>
<path d="M137.241 134.993L137.412 131.324H132.459L132.108 134.993H137.241Z" fill="#263238" stroke="white" stroke-linecap="round" stroke-linejoin="round"/>
<path d="M168.023 134.993L167.141 131.324H162.189L162.895 134.993H168.023Z" fill="#263238" stroke="white" stroke-linecap="round" stroke-linejoin="round"/>
<path d="M162.895 134.993L162.189 131.324H157.231L157.763 134.993H162.895Z" fill="#263238" stroke="white" stroke-linecap="round" stroke-linejoin="round"/>
<path d="M152.63 134.993L152.279 131.324H147.321L147.502 134.993H152.63Z" fill="#263238" stroke="white" stroke-linecap="round" stroke-linejoin="round"/>
<path d="M165.111 146.517H159.427H153.747H148.063H142.379H136.7H131.015H125.336H119.652H113.973H108.289L107.025 150.928H112.92H118.81H124.705H130.599H136.494H142.384H148.279H154.173H160.063H165.958L165.111 146.517Z" fill="#263238" stroke="white" stroke-linecap="round" stroke-linejoin="round"/>
<path d="M157.763 134.993L157.231 131.324H152.279L152.63 134.993H157.763Z" fill="#263238" stroke="white" stroke-linecap="round" stroke-linejoin="round"/>
<path d="M204.294 158.677H78.0078V160.467H204.294V158.677Z" fill="#263238" stroke="#263238" stroke-linecap="round" stroke-linejoin="round"/>
<path opacity="0.15" d="M174.89 80.7773V128.943L160.89 147.194L158.534 148.076L86.7146 158.672V161.028L60.4087 162.442V136.597H105.261V80.5468L174.89 80.7773Z" fill="black"/>
<path d="M44.2784 131.429C41.0453 131.59 37.5415 134.056 37.5415 134.056L1 162.442H60.4088C60.4088 162.442 97.9177 134.136 99.0405 133.324C100.82 132.041 104.349 131.389 104.349 131.389L102.68 131.429H44.2784Z" fill="white" stroke="#263238" stroke-linecap="round" stroke-linejoin="round"/>
<path d="M180.951 80.8225H101.447" stroke="#263238" stroke-linecap="round" stroke-linejoin="round"/>
<path d="M168.961 63.6896C168.181 63.6889 167.409 63.842 166.689 64.1401C165.969 64.4382 165.315 64.8754 164.764 65.4267C164.213 65.978 163.777 66.6325 163.479 67.3529C163.182 68.0732 163.029 68.8451 163.031 69.6244V142.512C163.029 143.473 162.797 144.42 162.353 145.273C161.91 146.126 161.269 146.861 160.484 147.415C159.698 147.969 158.791 148.327 157.839 148.459C156.887 148.59 155.917 148.492 155.011 148.171L110.033 132.196C107.674 131.356 105.123 131.213 102.685 131.785V69.6244C102.685 68.0517 103.309 66.5435 104.421 65.4314C105.533 64.3193 107.042 63.6946 108.614 63.6946L168.961 63.6896Z" fill="white"/>
<path d="M115.557 134.161L155.006 148.171C155.912 148.492 156.882 148.59 157.834 148.459C158.786 148.327 159.693 147.969 160.479 147.415C161.264 146.861 161.905 146.126 162.348 145.273C162.792 144.42 163.024 143.473 163.026 142.512V134.161H115.557Z" fill="#00977C"/>
<path opacity="0.6" d="M115.557 134.161L155.006 148.171C155.912 148.492 156.882 148.59 157.834 148.459C158.786 148.327 159.693 147.969 160.479 147.415C161.264 146.861 161.905 146.126 162.348 145.273C162.792 144.42 163.024 143.473 163.026 142.512V134.161H115.557Z" fill="white"/>
<path d="M115.557 143.76L155.006 157.795C155.912 158.116 156.883 158.214 157.835 158.082C158.788 157.951 159.695 157.592 160.481 157.037C161.266 156.483 161.907 155.748 162.35 154.894C162.793 154.04 163.025 153.093 163.026 152.131V143.76H115.557Z" fill="#00977C"/>
<path d="M168.961 63.6896C168.181 63.6889 167.409 63.842 166.689 64.1401C165.969 64.4382 165.315 64.8754 164.764 65.4267C164.213 65.978 163.777 66.6325 163.479 67.3529C163.182 68.0732 163.029 68.8451 163.031 69.6244V142.512C163.029 143.473 162.797 144.42 162.353 145.273C161.91 146.126 161.269 146.861 160.484 147.415C159.698 147.969 158.791 148.327 157.839 148.459C156.887 148.59 155.917 148.492 155.011 148.171L110.033 132.196C107.674 131.356 105.123 131.213 102.685 131.785V69.6244C102.685 68.0517 103.309 66.5435 104.421 65.4314C105.533 64.3193 107.042 63.6946 108.614 63.6946L168.961 63.6896Z" stroke="#263238" stroke-linecap="round" stroke-linejoin="round"/>
<path d="M105.236 131.429H102.68" stroke="#263238" stroke-linecap="round" stroke-linejoin="round"/>
<path d="M157.026 148.527H96.6747C95.9909 148.524 95.3127 148.404 94.6696 148.171L84.2485 144.507L97.206 134.532C98.9554 133.057 101.06 132.066 103.311 131.656C105.562 131.246 107.881 131.433 110.038 132.196L155.016 148.171C155.66 148.404 156.34 148.524 157.026 148.527Z" fill="white"/>
<path d="M157.026 148.527H96.6745C95.9908 148.524 95.3126 148.404 94.6695 148.171L83.6018 144.311L97.1959 134.532C98.9453 133.057 101.05 132.066 103.301 131.656C105.552 131.246 107.871 131.433 110.028 132.196L155.006 148.171C155.653 148.405 156.337 148.526 157.026 148.527Z" fill="#00977C"/>
<path opacity="0.2" d="M157.026 148.527H96.6745C95.9908 148.524 95.3126 148.404 94.6695 148.171L83.6018 144.311L97.1959 134.532C98.9453 133.057 101.05 132.066 103.301 131.656C105.552 131.246 107.871 131.433 110.028 132.196L155.006 148.171C155.653 148.405 156.337 148.526 157.026 148.527Z" fill="black"/>
<path d="M157.026 148.527H96.6747C95.9909 148.524 95.3127 148.404 94.6696 148.171L84.2485 144.507L97.206 134.532C98.9554 133.057 101.06 132.066 103.311 131.656C105.562 131.246 107.881 131.433 110.038 132.196L155.016 148.171C155.66 148.404 156.34 148.524 157.026 148.527V148.527Z" stroke="#263238" stroke-linecap="round" stroke-linejoin="round"/>
<path d="M96.6745 148.527H96.5442" stroke="#263238" stroke-linecap="round" stroke-linejoin="round"/>
<path d="M157.141 148.527H157.026" stroke="#263238" stroke-linecap="round" stroke-linejoin="round"/>
<path d="M173.151 65.4289C172.603 64.8761 171.95 64.4377 171.23 64.1392C170.511 63.8406 169.74 63.6878 168.961 63.6896C162.785 63.6896 163.031 69.6194 163.031 69.6194V80.7774H174.891V69.6245C174.892 68.8449 174.74 68.0726 174.441 67.3525C174.143 66.6323 173.704 65.9785 173.151 65.4289Z" fill="white"/>
<path d="M173.151 65.4289C172.603 64.8761 171.95 64.4377 171.23 64.1392C170.511 63.8406 169.74 63.6878 168.961 63.6896C162.785 63.6896 163.031 69.6194 163.031 69.6194V80.7774H174.891V69.6245C174.892 68.8449 174.74 68.0726 174.441 67.3525C174.143 66.6323 173.704 65.9785 173.151 65.4289Z" fill="#00977C"/>
<path opacity="0.2" d="M173.151 65.4289C172.603 64.8761 171.95 64.4377 171.23 64.1392C170.511 63.8406 169.74 63.6878 168.961 63.6896C162.785 63.6896 163.031 69.6194 163.031 69.6194V80.7774H174.891V69.6245C174.892 68.8449 174.74 68.0726 174.441 67.3525C174.143 66.6323 173.704 65.9785 173.151 65.4289Z" fill="black"/>
<path d="M173.151 65.4289C172.603 64.8761 171.95 64.4377 171.23 64.1392C170.511 63.8406 169.74 63.6878 168.961 63.6896C162.785 63.6896 163.031 69.6194 163.031 69.6194V80.7774H174.891V69.6245C174.892 68.8449 174.74 68.0726 174.441 67.3525C174.143 66.6323 173.704 65.9785 173.151 65.4289V65.4289Z" stroke="#263238" stroke-linecap="round" stroke-linejoin="round"/>
<g opacity="0.15">
<path d="M108.219 73.9052V74.0104V76.5418V76.647V79.1784V79.2836V81.8099V81.9152V84.4466V84.5518V87.0831V87.1884V89.7147V89.82V92.3513V92.4566V94.988V95.0932V97.6195V97.7248V100.256V100.361V102.998H113.948V100.361V100.256V97.7248V97.6195V95.0932V94.988V92.4566V92.3513V89.82V89.7147V87.1884V87.0831V84.5518V84.4466V81.9152V81.8099V79.2836V79.1784V76.647V76.5418V74.0104V73.9052V71.2736H108.219V73.9052Z" fill="black"/>
<path d="M153.392 71.2736H153.271H147.788H147.662H142.178H142.053H136.574H136.449H130.965H130.84H125.361H125.236H119.752H119.627H114.023V74.0104H119.627H119.752H125.236H125.361H130.84H130.965H136.449H136.574H142.053H142.178H147.662H147.788H153.271H153.392H159.001V71.2736H153.392Z" fill="black"/>
</g>
<path d="M113.948 71.2736H108.219V74.0154H113.948V71.2736Z" stroke="#263238" stroke-width="0.25" stroke-linecap="round" stroke-linejoin="round"/>
<path d="M113.948 73.9052H108.219V76.647H113.948V73.9052Z" stroke="#263238" stroke-width="0.25" stroke-linecap="round" stroke-linejoin="round"/>
<path d="M113.948 76.5417H108.219V79.2836H113.948V76.5417Z" stroke="#263238" stroke-width="0.25" stroke-linecap="round" stroke-linejoin="round"/>
<path d="M113.948 79.1783H108.219V81.9202H113.948V79.1783Z" stroke="#263238" stroke-width="0.25" stroke-linecap="round" stroke-linejoin="round"/>
<path d="M113.948 81.8099H108.219V84.5518H113.948V81.8099Z" stroke="#263238" stroke-width="0.25" stroke-linecap="round" stroke-linejoin="round"/>
<path d="M113.948 84.4465H108.219V87.1884H113.948V84.4465Z" stroke="#263238" stroke-width="0.25" stroke-linecap="round" stroke-linejoin="round"/>
<path d="M113.948 87.0831H108.219V89.825H113.948V87.0831Z" stroke="#263238" stroke-width="0.25" stroke-linecap="round" stroke-linejoin="round"/>
<path d="M113.948 89.7147H108.219V92.4566H113.948V89.7147Z" stroke="#263238" stroke-width="0.25" stroke-linecap="round" stroke-linejoin="round"/>
<path d="M113.948 92.3513H108.219V95.0932H113.948V92.3513Z" stroke="#263238" stroke-width="0.25" stroke-linecap="round" stroke-linejoin="round"/>
<path d="M113.948 94.9879H108.219V97.7298H113.948V94.9879Z" stroke="#263238" stroke-width="0.25" stroke-linecap="round" stroke-linejoin="round"/>
<path d="M113.948 97.6195H108.219V100.361H113.948V97.6195Z" stroke="#263238" stroke-width="0.25" stroke-linecap="round" stroke-linejoin="round"/>
<path d="M113.948 100.256H108.219V102.998H113.948V100.256Z" stroke="#263238" stroke-width="0.25" stroke-linecap="round" stroke-linejoin="round"/>
<path d="M119.752 71.2736H114.023V74.0154H119.752V71.2736Z" stroke="#263238" stroke-width="0.25" stroke-linecap="round" stroke-linejoin="round"/>
<path d="M125.357 71.2736H119.627V74.0154H125.357V71.2736Z" stroke="#263238" stroke-width="0.25" stroke-linecap="round" stroke-linejoin="round"/>
<path d="M130.965 71.2736H125.236V74.0154H130.965V71.2736Z" stroke="#263238" stroke-width="0.25" stroke-linecap="round" stroke-linejoin="round"/>
<path d="M136.569 71.2736H130.84V74.0154H136.569V71.2736Z" stroke="#263238" stroke-width="0.25" stroke-linecap="round" stroke-linejoin="round"/>
<path d="M142.179 71.2736H136.449V74.0154H142.179V71.2736Z" stroke="#263238" stroke-width="0.25" stroke-linecap="round" stroke-linejoin="round"/>
<path d="M147.783 71.2736H142.053V74.0154H147.783V71.2736Z" stroke="#263238" stroke-width="0.25" stroke-linecap="round" stroke-linejoin="round"/>
<path d="M153.392 71.2736H147.662V74.0154H153.392V71.2736Z" stroke="#263238" stroke-width="0.25" stroke-linecap="round" stroke-linejoin="round"/>
<path d="M159.001 71.2736H153.271V74.0154H159.001V71.2736Z" stroke="#263238" stroke-width="0.25" stroke-linecap="round" stroke-linejoin="round"/>
<path d="M158.996 74.0104H113.948V102.993H158.996V74.0104Z" stroke="#263238" stroke-width="0.25" stroke-linecap="round" stroke-linejoin="round"/>
<path d="M119.677 74.0104V102.988" stroke="#263238" stroke-width="0.25" stroke-linecap="round" stroke-linejoin="round"/>
<path d="M125.286 74.0104V102.988" stroke="#263238" stroke-width="0.25" stroke-linecap="round" stroke-linejoin="round"/>
<path d="M130.895 74.0104V102.988" stroke="#263238" stroke-width="0.25" stroke-linecap="round" stroke-linejoin="round"/>
<path d="M136.504 74.0104V102.988" stroke="#263238" stroke-width="0.25" stroke-linecap="round" stroke-linejoin="round"/>
<path d="M142.108 74.0104V102.988" stroke="#263238" stroke-width="0.25" stroke-linecap="round" stroke-linejoin="round"/>
<path d="M147.718 74.0104V102.988" stroke="#263238" stroke-width="0.25" stroke-linecap="round" stroke-linejoin="round"/>
<path d="M153.326 74.0104V102.988" stroke="#263238" stroke-width="0.25" stroke-linecap="round" stroke-linejoin="round"/>
<path d="M113.948 76.6471H158.966" stroke="#263238" stroke-width="0.25" stroke-linecap="round" stroke-linejoin="round"/>
<path d="M113.948 79.2736H158.966" stroke="#263238" stroke-width="0.25" stroke-linecap="round" stroke-linejoin="round"/>
<path d="M113.948 81.9001H158.966" stroke="#263238" stroke-width="0.25" stroke-linecap="round" stroke-linejoin="round"/>
<path d="M113.948 84.5267H158.966" stroke="#263238" stroke-width="0.25" stroke-linecap="round" stroke-linejoin="round"/>
<path d="M113.948 87.1533H158.966" stroke="#263238" stroke-width="0.25" stroke-linecap="round" stroke-linejoin="round"/>
<path d="M113.948 89.7749H158.966" stroke="#263238" stroke-width="0.25" stroke-linecap="round" stroke-linejoin="round"/>
<path d="M113.948 92.4015H158.966" stroke="#263238" stroke-width="0.25" stroke-linecap="round" stroke-linejoin="round"/>
<path d="M113.948 95.0281H158.966" stroke="#263238" stroke-width="0.25" stroke-linecap="round" stroke-linejoin="round"/>
<path d="M113.948 97.6547H158.966" stroke="#263238" stroke-width="0.25" stroke-linecap="round" stroke-linejoin="round"/>
<path d="M113.948 100.281H158.966" stroke="#263238" stroke-width="0.25" stroke-linecap="round" stroke-linejoin="round"/>
<path d="M85.231 138.487H36.9351L40.2684 135.956H88.5644L85.231 138.487Z" fill="#00977C"/>
<path d="M11.3761 158.808H10.1931L40.2684 135.956H41.4564L11.3761 158.808Z" fill="#00977C"/>
<path d="M74.5893 146.557H26.2983L30.0728 143.73H78.3637L74.5893 146.557Z" fill="#263238"/>
<path d="M58.3336 158.923H10.0376L40.2683 135.956H88.5643L58.3336 158.923Z" stroke="#263238" stroke-width="0.25" stroke-linecap="round" stroke-linejoin="round"/>
<path d="M45.2459 136.041L15.1455 158.908" stroke="#263238" stroke-width="0.25" stroke-linecap="round" stroke-linejoin="round"/>
<path d="M50.0979 136.041L19.9976 158.908" stroke="#263238" stroke-width="0.25" stroke-linecap="round" stroke-linejoin="round"/>
<path d="M54.9451 136.041L24.8447 158.908" stroke="#263238" stroke-width="0.25" stroke-linecap="round" stroke-linejoin="round"/>
<path d="M59.7972 136.041L29.6968 158.908" stroke="#263238" stroke-width="0.25" stroke-linecap="round" stroke-linejoin="round"/>
<path d="M64.6495 136.041L34.5491 158.908" stroke="#263238" stroke-width="0.25" stroke-linecap="round" stroke-linejoin="round"/>
<path d="M69.5016 136.041L39.3962 158.908" stroke="#263238" stroke-width="0.25" stroke-linecap="round" stroke-linejoin="round"/>
<path d="M74.3487 136.041L44.2483 158.908" stroke="#263238" stroke-width="0.25" stroke-linecap="round" stroke-linejoin="round"/>
<path d="M79.201 136.041L49.1006 158.908" stroke="#263238" stroke-width="0.25" stroke-linecap="round" stroke-linejoin="round"/>
<path d="M84.0529 136.041L53.9475 158.908" stroke="#263238" stroke-width="0.25" stroke-linecap="round" stroke-linejoin="round"/>
<path d="M33.9775 140.798H82.1281" stroke="#263238" stroke-width="0.25" stroke-linecap="round" stroke-linejoin="round"/>
<path d="M30.1331 143.72H78.2836" stroke="#263238" stroke-width="0.25" stroke-linecap="round" stroke-linejoin="round"/>
<path d="M26.2883 146.642H74.4389" stroke="#263238" stroke-width="0.25" stroke-linecap="round" stroke-linejoin="round"/>
<path d="M22.4436 149.56H70.5942" stroke="#263238" stroke-width="0.25" stroke-linecap="round" stroke-linejoin="round"/>
<path d="M18.5991 152.482H66.7497" stroke="#263238" stroke-width="0.25" stroke-linecap="round" stroke-linejoin="round"/>
<path d="M14.7544 155.404H62.905" stroke="#263238" stroke-width="0.25" stroke-linecap="round" stroke-linejoin="round"/>
<path d="M159.076 105.209H108.173V107.078H159.076V105.209Z" fill="#00977C"/>
<path d="M109.421 105.209H108.173V129.289H109.421V105.209Z" fill="#00977C"/>
<path d="M159.076 105.209H108.173V129.414H159.076V105.209Z" stroke="#263238" stroke-width="0.25" stroke-linecap="round" stroke-linejoin="round"/>
<path d="M113.537 105.299V129.399" stroke="#263238" stroke-width="0.25" stroke-linecap="round" stroke-linejoin="round"/>
<path d="M118.65 105.299V129.399" stroke="#263238" stroke-width="0.25" stroke-linecap="round" stroke-linejoin="round"/>
<path d="M123.762 105.299V129.399" stroke="#263238" stroke-width="0.25" stroke-linecap="round" stroke-linejoin="round"/>
<path d="M128.875 105.299V129.399" stroke="#263238" stroke-width="0.25" stroke-linecap="round" stroke-linejoin="round"/>
<path d="M133.988 105.299V129.399" stroke="#263238" stroke-width="0.25" stroke-linecap="round" stroke-linejoin="round"/>
<path d="M139.101 105.299V129.399" stroke="#263238" stroke-width="0.25" stroke-linecap="round" stroke-linejoin="round"/>
<path d="M144.214 105.299V129.399" stroke="#263238" stroke-width="0.25" stroke-linecap="round" stroke-linejoin="round"/>
<path d="M149.322 105.299V129.399" stroke="#263238" stroke-width="0.25" stroke-linecap="round" stroke-linejoin="round"/>
<path d="M154.434 105.299V129.399" stroke="#263238" stroke-width="0.25" stroke-linecap="round" stroke-linejoin="round"/>
<path d="M108.259 110.311H159.011" stroke="#263238" stroke-width="0.25" stroke-linecap="round" stroke-linejoin="round"/>
<path d="M108.259 113.394H159.011" stroke="#263238" stroke-width="0.25" stroke-linecap="round" stroke-linejoin="round"/>
<path d="M108.259 116.472H159.011" stroke="#263238" stroke-width="0.25" stroke-linecap="round" stroke-linejoin="round"/>
<path d="M108.259 119.549H159.011" stroke="#263238" stroke-width="0.25" stroke-linecap="round" stroke-linejoin="round"/>
<path d="M108.259 122.627H159.011" stroke="#263238" stroke-width="0.25" stroke-linecap="round" stroke-linejoin="round"/>
<path d="M108.259 125.705H159.011" stroke="#263238" stroke-width="0.25" stroke-linecap="round" stroke-linejoin="round"/>
<path d="M142.224 120.657H140.103V125.61H142.224V120.657Z" fill="#263238" stroke="#263238" stroke-width="0.5" stroke-miterlimit="10"/>
<path d="M145.622 117.69H143.502V125.615H145.622V117.69Z" fill="#00977C" stroke="#263238" stroke-width="0.5" stroke-miterlimit="10"/>
<path d="M149.016 112.737H146.895V125.615H149.016V112.737Z" fill="#263238" stroke="#263238" stroke-width="0.5" stroke-miterlimit="10"/>
<path d="M152.414 117.544H150.294V125.61H152.414V117.544Z" fill="#00977C" stroke="#263238" stroke-width="0.5" stroke-miterlimit="10"/>
<path d="M155.808 112.737H153.688V125.615H155.808V112.737Z" fill="#263238" stroke="#263238" stroke-width="0.5" stroke-miterlimit="10"/>
<path d="M120.394 119.66V125.545C118.833 125.545 117.336 124.925 116.233 123.821C115.129 122.717 114.509 121.221 114.509 119.66C114.509 118.099 115.129 116.602 116.233 115.499C117.336 114.395 118.833 113.775 120.394 113.775V119.66Z" fill="#00977C" stroke="#263238" stroke-width="0.5" stroke-miterlimit="10"/>
<path d="M120.394 119.66L125.988 117.84C126.229 118.575 126.322 119.351 126.263 120.122C126.203 120.894 125.992 121.646 125.642 122.335C125.291 123.025 124.808 123.639 124.219 124.141C123.631 124.644 122.95 125.025 122.214 125.264C121.627 125.46 121.012 125.558 120.394 125.555V119.66Z" fill="white" stroke="#263238" stroke-width="0.5" stroke-miterlimit="10"/>
<path d="M120.394 119.66V113.775C121.64 113.761 122.857 114.148 123.865 114.881C124.872 115.613 125.617 116.651 125.988 117.84L120.394 119.66Z" fill="#263238" stroke="#263238" stroke-width="0.5" stroke-miterlimit="10"/>
</svg>
