<svg width="210" height="155" viewBox="0 0 210 155" fill="none" xmlns="http://www.w3.org/2000/svg">
<path d="M209.01 136.212H0.989578V136.316H209.01V136.212Z" fill="#EBEBEB"/>
<path d="M188.166 142.906H174.387V143.01H188.166V142.906Z" fill="#EBEBEB"/>
<path d="M169.149 142.906H139.689V143.01H169.149V142.906Z" fill="#EBEBEB"/>
<path d="M123.443 139.045H115.459V139.149H123.443V139.045Z" fill="#EBEBEB"/>
<path d="M37.0811 139.744H22.815V139.848H37.0811V139.744Z" fill="#EBEBEB"/>
<path d="M66.7239 139.744H40.7838V139.848H66.7239V139.744Z" fill="#EBEBEB"/>
<path d="M94.6569 141.5H79.3425V141.604H94.6569V141.5Z" fill="#EBEBEB"/>
<path d="M99.5911 117.656H19.2579C18.6286 117.655 18.0254 117.404 17.5808 116.959C17.1362 116.514 16.8865 115.91 16.8865 115.281V2.35479C16.892 1.72907 17.1441 1.13079 17.5881 0.689886C18.0321 0.248983 18.6322 0.00107188 19.2579 0H99.5911C100.221 0 100.825 0.250285 101.271 0.695794C101.716 1.1413 101.967 1.74554 101.967 2.37559V115.281C101.967 115.911 101.716 116.515 101.271 116.96C100.825 117.406 100.221 117.656 99.5911 117.656ZM19.2579 0.0832084C18.6562 0.0843105 18.0794 0.324123 17.6543 0.750007C17.2292 1.17589 16.9905 1.75305 16.9905 2.35479V115.281C16.9905 115.882 17.2292 116.46 17.6543 116.885C18.0794 117.311 18.6562 117.551 19.2579 117.552H99.5911C100.193 117.551 100.77 117.311 101.196 116.886C101.622 116.46 101.862 115.883 101.863 115.281V2.35479C101.862 1.75267 101.622 1.17552 101.196 0.749753C100.77 0.323987 100.193 0.0843082 99.5911 0.0832084H19.2579Z" fill="#EBEBEB"/>
<path d="M189.585 117.656H109.247C108.618 117.655 108.014 117.404 107.569 116.959C107.124 116.514 106.873 115.91 106.872 115.281V2.35479C106.878 1.72869 107.131 1.13041 107.576 0.689626C108.021 0.248837 108.621 0.00106019 109.247 0H189.585C190.21 0.00216528 190.809 0.25056 191.252 0.691346C191.695 1.13213 191.947 1.72979 191.952 2.35479V115.281C191.952 115.909 191.703 116.512 191.259 116.957C190.816 117.403 190.213 117.654 189.585 117.656ZM109.247 0.0832084C108.645 0.0843082 108.068 0.323987 107.642 0.749753C107.217 1.17552 106.977 1.75267 106.976 2.35479V115.281C106.977 115.883 107.217 116.46 107.642 116.886C108.068 117.311 108.645 117.551 109.247 117.552H189.585C190.187 117.551 190.764 117.311 191.19 116.886C191.616 116.46 191.855 115.883 191.856 115.281V2.35479C191.855 1.75267 191.616 1.17552 191.19 0.749753C190.764 0.323987 190.187 0.0843082 189.585 0.0832084H109.247Z" fill="#EBEBEB"/>
<path d="M32.5421 57.5051L88.9987 57.5051V8.59126L32.5421 8.59126L32.5421 57.5051Z" fill="#E6E6E6"/>
<path d="M31.2815 57.5051L87.7381 57.5051V8.59126L31.2815 8.59126L31.2815 57.5051Z" fill="#F5F5F5"/>
<path d="M85.4874 55.7577V10.3386L33.5364 10.3386V55.7577H85.4874Z" fill="#FAFAFA"/>
<path d="M64.6521 55.7578L74.0671 10.3386H54.3717L44.9609 55.7578H64.6521Z" fill="white"/>
<path d="M34.485 55.7619V10.3428H33.5364V55.7619H34.485Z" fill="#E6E6E6"/>
<path d="M32.2134 47.616L86.8062 47.616V45.2695L32.2134 45.2695V47.616Z" fill="#F5F5F5"/>
<path d="M86.3777 133.736H95.3933V94.641H86.3777V133.736Z" fill="#F0F0F0"/>
<path d="M27.5038 136.212H93.6667V133.736H27.5038V136.212Z" fill="#F0F0F0"/>
<path d="M86.3777 94.6367H25.7689V133.732H86.3777V94.6367Z" fill="#F5F5F5"/>
<path d="M82.8372 99.4502H29.3136V112.273H82.8372V99.4502Z" fill="#F0F0F0"/>
<path d="M82.8372 116.1H29.3136V128.922H82.8372V116.1Z" fill="#F0F0F0"/>
<path d="M41.6492 106.739H70.5016C70.7341 106.738 70.9567 106.645 71.1211 106.481C71.2855 106.317 71.3783 106.094 71.3794 105.862C71.3784 105.629 71.2856 105.406 71.1214 105.24C70.9571 105.075 70.7345 104.982 70.5016 104.979H41.6492C41.4163 104.982 41.1937 105.075 41.0294 105.24C40.8651 105.406 40.7724 105.629 40.7713 105.862C40.7724 106.094 40.8653 106.317 41.0297 106.481C41.1941 106.645 41.4167 106.738 41.6492 106.739Z" fill="#F5F5F5"/>
<path d="M41.6492 123.389H70.5016C70.7341 123.388 70.9567 123.295 71.1211 123.131C71.2855 122.967 71.3783 122.744 71.3794 122.511C71.3794 122.278 71.2871 122.054 71.1226 121.889C70.9581 121.724 70.7348 121.63 70.5016 121.629H41.6492C41.416 121.63 41.1927 121.724 41.0282 121.889C40.8637 122.054 40.7713 122.278 40.7713 122.511C40.7724 122.744 40.8653 122.967 41.0297 123.131C41.1941 123.295 41.4167 123.388 41.6492 123.389Z" fill="#F5F5F5"/>
<path d="M180.561 34.157C185.695 32.7425 187.451 23.4274 174.478 19.6248C177.341 28.994 171.612 36.6117 180.561 34.157Z" fill="#EBEBEB"/>
<path d="M181.697 38.2008C185.745 33.8282 181.917 23.9348 167.339 27.9787C175.585 35.1928 174.645 45.8268 181.697 38.2008Z" fill="#E0E0E0"/>
<path d="M177.703 39.3241C174.316 35.9708 179.167 24.3009 190.35 29.7094C184.014 35.7794 183.631 45.1695 177.703 39.3241Z" fill="#FAFAFA"/>
<path d="M174.324 45.8559H184.18L184.925 39.1868H173.584L174.324 45.8559Z" fill="#E6E6E6"/>
<path d="M173.472 40.3807H185.038C185.233 40.3807 185.42 40.3032 185.558 40.1651C185.696 40.027 185.774 39.8396 185.774 39.6443C185.774 39.449 185.696 39.2617 185.558 39.1236C185.42 38.9855 185.233 38.908 185.038 38.908H173.472C173.276 38.908 173.089 38.9855 172.951 39.1236C172.813 39.2617 172.735 39.449 172.735 39.6443C172.735 39.8396 172.813 40.027 172.951 40.1651C173.089 40.3032 173.276 40.3807 173.472 40.3807Z" fill="#E6E6E6"/>
<path d="M91.3993 124.916V113.621H100.806V102.33H110.217V91.034H119.623V79.7385H129.034V68.4472H138.441V57.1517H147.852V45.8562H157.263H209.01V136.212H91.3993H81.9885V124.916H91.3993Z" fill="#FAFAFA"/>
<path d="M143.146 124.916V113.621H152.557V102.33H161.964V91.034H171.375V79.7385H180.781V68.4472H190.192V57.1517H199.599V45.8562H209.01V57.1517V136.212H143.146H133.74V124.916H143.146Z" fill="#E0E0E0"/>
<path d="M133.74 124.916H81.4351V128.303H133.74V124.916Z" fill="#EBEBEB"/>
<path d="M143.151 113.621H90.846V117.007H143.151V113.621Z" fill="#EBEBEB"/>
<path d="M152.557 102.329H100.253V105.716H152.557V102.329Z" fill="#EBEBEB"/>
<path d="M161.968 91.0337H109.663V94.4203H161.968V91.0337Z" fill="#EBEBEB"/>
<path d="M171.375 79.7383H119.07V83.1248H171.375V79.7383Z" fill="#EBEBEB"/>
<path d="M180.786 68.4468H128.481V71.8333H180.786V68.4468Z" fill="#EBEBEB"/>
<path d="M190.192 57.1516H137.888V60.5382H190.192V57.1516Z" fill="#EBEBEB"/>
<path d="M199.603 45.8562H147.298V49.2428H199.603V45.8562Z" fill="#EBEBEB"/>
<path d="M105 155C149.55 155 185.666 152.891 185.666 150.29C185.666 147.689 149.55 145.581 105 145.581C60.449 145.581 24.3336 147.689 24.3336 150.29C24.3336 152.891 60.449 155 105 155Z" fill="#F5F5F5"/>
<path d="M140.238 43.1144C140.163 44.3625 140.018 45.5066 139.856 46.6923C139.693 47.878 139.473 49.0388 139.223 50.2037C138.737 52.5614 138.033 54.8691 137.122 57.0975L136.744 57.9295L136.652 58.1376L136.619 58.2457L136.552 58.3789C136.425 58.64 136.264 58.8834 136.074 59.1028C135.847 59.358 135.576 59.5707 135.275 59.731C134.979 59.8863 134.658 59.9877 134.326 60.0305C133.817 60.085 133.303 60.0311 132.816 59.8725C132.127 59.6371 131.476 59.3006 130.886 58.874C130.369 58.5098 129.876 58.1138 129.409 57.6882C127.658 56.0646 126.082 54.2616 124.708 52.3088L126.085 51.1398C126.917 51.9094 127.749 52.6874 128.581 53.4238C129.408 54.1601 130.272 54.8543 131.169 55.504C131.591 55.806 132.03 56.0838 132.483 56.3361C132.849 56.5579 133.244 56.7274 133.657 56.8395C133.798 56.8686 133.898 56.8395 133.852 56.8395C133.754 56.8504 133.662 56.8927 133.59 56.9602C133.565 56.9602 133.565 56.9602 133.59 56.9602L133.723 56.6149L134.014 55.8577C134.736 53.773 135.299 51.6368 135.699 49.4673C135.92 48.3773 136.074 47.2664 136.24 46.1639C136.407 45.0614 136.523 43.9256 136.619 42.873L140.238 43.1144Z" fill="#FFC3BD"/>
<path d="M137.717 38.5339C136.165 38.9291 135.079 45.3112 135.079 45.3112L139.352 48.2235C139.352 48.2235 143.45 41.7873 142.264 40.0815C141.016 38.2967 139.98 37.9597 137.717 38.5339Z" fill="#00977C"/>
<path d="M137.717 38.5339C136.165 38.9291 135.079 45.3112 135.079 45.3112L139.352 48.2235C139.352 48.2235 143.45 41.7873 142.264 40.0815C141.016 38.2967 139.98 37.9597 137.717 38.5339Z" fill="#00977C"/>
<path opacity="0.4" d="M137.717 38.5339C136.165 38.9291 135.079 45.3112 135.079 45.3112L139.352 48.2235C139.352 48.2235 143.45 41.7873 142.264 40.0815C141.016 38.2967 139.98 37.9597 137.717 38.5339Z" fill="black"/>
<path opacity="0.3" d="M137.854 39.9609L136.665 46.3888L139.065 48.0196L137.854 39.9609Z" fill="black"/>
<path d="M126.155 50.8776L124.138 47.6658L122.985 51.3144C122.985 51.3144 124.649 53.0618 126.159 52.6458L126.155 50.8776Z" fill="#FFC3BD"/>
<path d="M121.142 46.605L120.343 49.7086L122.968 51.3146L124.121 47.6659L121.142 46.605Z" fill="#FFC3BD"/>
<path d="M146.104 145.926H142.343L142.09 137.215H145.855L146.104 145.926Z" fill="#FFC3BD"/>
<path d="M179.3 128.453L176.434 130.891L169.873 125.033L172.739 122.599L179.3 128.453Z" fill="#FFC3BD"/>
<path d="M175.647 130.599L178.431 127.412C178.478 127.358 178.544 127.322 178.616 127.312C178.688 127.302 178.761 127.318 178.822 127.358L181.655 129.193C181.725 129.242 181.784 129.304 181.828 129.377C181.872 129.45 181.9 129.532 181.91 129.616C181.92 129.701 181.912 129.786 181.887 129.868C181.862 129.949 181.82 130.024 181.763 130.088C180.773 131.182 180.241 131.66 179.017 133.058C178.269 133.919 177.258 135.259 176.217 136.445C175.177 137.63 173.946 136.674 174.275 136.083C175.735 133.445 175.385 132.521 175.41 131.223C175.414 130.994 175.498 130.773 175.647 130.599Z" fill="#263238"/>
<path d="M142.214 145.494H146.441C146.514 145.493 146.585 145.519 146.64 145.566C146.695 145.614 146.731 145.68 146.741 145.752L147.224 149.08C147.237 149.168 147.231 149.258 147.206 149.343C147.181 149.428 147.137 149.507 147.078 149.574C147.018 149.64 146.945 149.692 146.863 149.727C146.781 149.762 146.693 149.778 146.604 149.775C145.131 149.75 144.419 149.662 142.56 149.662C141.416 149.662 139.053 149.783 137.472 149.783C135.891 149.783 135.807 148.219 136.469 148.081C139.415 147.445 140.575 146.571 141.57 145.735C141.748 145.579 141.977 145.494 142.214 145.494Z" fill="#263238"/>
<path opacity="0.2" d="M142.094 137.219L142.223 141.708H145.984L145.855 137.219H142.094Z" fill="black"/>
<path opacity="0.2" d="M172.744 122.599L169.873 125.033L173.259 128.053L176.126 125.615L172.744 122.599Z" fill="black"/>
<path d="M137.717 38.5337C137.717 38.5337 135.924 39.1661 139.514 61.2412H154.791C154.538 55.0214 154.529 51.1855 157.5 38.4256C155.361 37.9846 153.194 37.6982 151.014 37.5685C148.703 37.4039 146.384 37.4039 144.074 37.5685C141.095 37.8598 137.717 38.5337 137.717 38.5337Z" fill="#00977C"/>
<path opacity="0.4" d="M137.717 38.5337C137.717 38.5337 135.924 39.1661 139.514 61.2412H154.791C154.538 55.0214 154.529 51.1855 157.5 38.4256C155.361 37.9846 153.194 37.6982 151.014 37.5685C148.703 37.4039 146.384 37.4039 144.074 37.5685C141.095 37.8598 137.717 38.5337 137.717 38.5337Z" fill="black"/>
<path d="M151.014 37.5685C148.703 37.4039 146.384 37.4039 144.074 37.5685C143.7 37.6018 143.317 37.6434 142.938 37.6892C142.782 37.9256 142.682 38.1949 142.645 38.4762C142.609 38.7576 142.638 39.0434 142.73 39.3117C143.217 40.5224 144.973 40.6639 146.254 40.6639C150.985 40.6639 151.783 37.9014 151.817 37.7849L151.862 37.6184C151.596 37.6018 151.297 37.581 151.014 37.5685Z" fill="white"/>
<path d="M150.348 29.7593C149.907 31.9893 149.474 36.0789 151.035 37.5684C151.035 37.5684 150.423 39.8358 146.275 39.8358C141.699 39.8358 144.095 37.5725 144.095 37.5725C146.591 36.9776 146.521 35.1304 146.088 33.4121L150.348 29.7593Z" fill="#FFC3BD"/>
<path opacity="0.2" d="M148.588 31.2405L146.067 33.3914C146.176 33.8003 146.248 34.218 146.283 34.6395C147.232 34.5022 148.538 33.458 148.642 32.4636C148.701 32.0561 148.682 31.6413 148.588 31.2405Z" fill="black"/>
<path d="M147.731 17.6195C147.344 16.309 147.02 14.2454 149.35 13.3135C148.438 12.1985 148.218 10.1017 149.35 8.85771C150.481 7.61375 152.179 8.07139 152.179 8.07139C152.179 8.07139 152.678 5.03014 156.376 5.57515C160.075 6.12016 158.428 8.554 158.428 8.554C158.428 8.554 163.474 7.5555 163.811 12.2984C164.148 17.0412 161.252 16.4588 161.252 16.4588C161.252 16.4588 163.503 18.3476 162.255 20.4236C161.007 22.4997 158.124 21.7841 158.124 21.7841C158.124 21.7841 156.768 25.4536 153.572 23.365C150.377 21.2765 147.731 17.6195 147.731 17.6195Z" fill="#263238"/>
<path d="M140.238 20.3863C138.99 22.0005 139.539 23.8269 140.654 24.5467C143.338 26.2608 147.219 19.0716 146.208 18.2104C145.197 17.3492 141.486 18.7679 140.238 20.3863Z" fill="#263238"/>
<path d="M151.509 16.542C149.745 15.8306 147.956 16.5753 147.398 17.6487C146.038 20.2655 152.216 24.9793 154.005 21.7092C155.066 19.7663 153.327 17.2742 151.509 16.542Z" fill="#00977C"/>
<path d="M150.764 24.5466C150.893 28.2909 151.026 29.8553 149.333 31.9396C146.791 35.0724 142.177 34.4151 140.937 30.7955C139.822 27.5379 139.801 21.9838 143.292 20.1615C144.059 19.7556 144.918 19.5526 145.786 19.5718C146.653 19.591 147.502 19.8316 148.251 20.271C148.999 20.7103 149.623 21.3338 150.063 22.0821C150.503 22.8304 150.744 23.6788 150.764 24.5466Z" fill="#FFC3BD"/>
<path d="M150.202 26.5062C148.538 25.8863 148.122 23.9434 148.389 23.1779C147.556 23.1446 145.738 22.8451 145.06 21.8133C143.762 22.6454 141.02 23.4775 140.725 22.092C140.43 20.7066 144.565 17.1453 147.694 16.8707C151.413 16.5462 155.083 20.1991 154.138 23.698C153.194 27.1969 150.202 26.5062 150.202 26.5062Z" fill="#263238"/>
<path d="M139.531 61.2412C139.531 61.2412 136.565 90.2184 136.81 101.693C137.068 113.625 141.441 140.838 141.441 140.838H146.525C146.525 140.838 145.722 114.32 146.171 102.604C146.662 89.8273 150.718 61.2412 150.718 61.2412H139.531Z" fill="#263238"/>
<path d="M146.949 141.021H140.983L140.542 139.12L147.228 138.887L146.949 141.021Z" fill="#00977C"/>
<path opacity="0.2" d="M146.104 68.4513C142.36 75.9982 145.351 89.7692 146.679 94.8948C147.357 87.1981 148.505 77.7914 149.4 70.8851C148.834 66.9827 147.852 64.969 146.104 68.4513Z" fill="black"/>
<path d="M143.55 61.2412C143.55 61.2412 147.011 91.3667 149.624 101.04C152.728 112.522 172.003 127.978 172.003 127.978L175.914 124.65C175.914 124.65 161.943 107.859 159.568 101.809C154.504 88.9121 158.839 69.6577 154.791 61.2329L143.55 61.2412Z" fill="#263238"/>
<path d="M176.538 124.479L171.687 128.598L169.873 127.512L175.36 122.407L176.538 124.479Z" fill="#00977C"/>
<path d="M145.227 26.1108C145.256 26.4145 145.118 26.6724 144.923 26.6932C144.727 26.714 144.54 26.4811 144.507 26.1815C144.474 25.882 144.615 25.6157 144.815 25.5991C145.014 25.5824 145.197 25.7946 145.227 26.1108Z" fill="#263238"/>
<path d="M141.815 26.4396C141.844 26.7391 141.707 27.0013 141.507 27.0221C141.308 27.0429 141.129 26.8099 141.091 26.5062C141.054 26.2025 141.199 25.9445 141.395 25.9279C141.59 25.9112 141.786 26.1359 141.815 26.4396Z" fill="#263238"/>
<path d="M141.491 25.9361L140.746 25.7947C140.746 25.7947 141.195 26.3272 141.491 25.9361Z" fill="#263238"/>
<path d="M142.764 26.8723C142.561 27.5866 142.262 28.2697 141.873 28.9026C142.038 28.9975 142.222 29.0556 142.412 29.0728C142.601 29.0901 142.792 29.0661 142.972 29.0024L142.764 26.8723Z" fill="#ED847E"/>
<path d="M144.648 29.9967C144.484 30.0418 144.315 30.0724 144.145 30.0882C144.133 30.0894 144.122 30.0882 144.111 30.0849C144.1 30.0815 144.089 30.076 144.081 30.0687C144.072 30.0613 144.064 30.0523 144.059 30.0421C144.054 30.0319 144.05 30.0207 144.049 30.0092C144.047 29.9855 144.054 29.9619 144.069 29.9433C144.083 29.9246 144.105 29.9125 144.128 29.9093C144.505 29.8816 144.87 29.7659 145.193 29.5716C145.517 29.3772 145.791 29.1096 145.992 28.7902C145.997 28.7792 146.004 28.7693 146.013 28.7613C146.022 28.7533 146.032 28.7473 146.044 28.7437C146.055 28.7402 146.067 28.7391 146.079 28.7407C146.091 28.7422 146.103 28.7464 146.113 28.7527C146.133 28.7642 146.149 28.7831 146.156 28.8056C146.163 28.828 146.161 28.8523 146.15 28.8734C145.815 29.4288 145.276 29.8317 144.648 29.9967Z" fill="#263238"/>
<path d="M151.638 27.1301C151.547 27.846 151.176 28.4968 150.606 28.9399C149.845 29.5223 149.112 28.9399 149.025 28.0287C148.95 27.1967 149.25 25.9485 150.157 25.7072C150.355 25.6669 150.559 25.6753 150.753 25.7315C150.947 25.7878 151.125 25.8902 151.27 26.0302C151.416 26.1701 151.526 26.3433 151.59 26.5349C151.654 26.7265 151.67 26.9307 151.638 27.1301Z" fill="#FFC3BD"/>
<path d="M145.593 23.9724C145.57 23.9783 145.546 23.9795 145.522 23.9759C145.498 23.9723 145.476 23.9641 145.455 23.9516C145.267 23.8312 145.052 23.7572 144.83 23.7355C144.607 23.7138 144.382 23.7451 144.174 23.8268C144.131 23.846 144.082 23.8481 144.037 23.8327C143.992 23.8173 143.955 23.7854 143.933 23.7436C143.913 23.7011 143.91 23.6523 143.926 23.608C143.941 23.5636 143.974 23.5271 144.016 23.5065C144.278 23.3983 144.562 23.3546 144.844 23.3792C145.127 23.4039 145.399 23.496 145.638 23.6479C145.658 23.6599 145.675 23.6756 145.689 23.6942C145.703 23.7128 145.712 23.734 145.718 23.7564C145.723 23.7789 145.724 23.8021 145.721 23.8249C145.717 23.8477 145.709 23.8696 145.697 23.8892C145.674 23.929 145.637 23.9587 145.593 23.9724Z" fill="#263238"/>
<path d="M140.143 25.0083C140.1 25.0247 140.052 25.0247 140.009 25.0083C139.969 24.9848 139.939 24.9466 139.926 24.9018C139.913 24.8569 139.917 24.8087 139.939 24.767C140.066 24.5138 140.252 24.295 140.481 24.1291C140.711 23.9633 140.977 23.8553 141.258 23.8143C141.281 23.812 141.304 23.8144 141.327 23.8214C141.349 23.8284 141.37 23.8398 141.388 23.8549C141.405 23.8701 141.42 23.8886 141.431 23.9095C141.441 23.9304 141.447 23.9532 141.449 23.9766C141.452 24.0234 141.437 24.0697 141.407 24.1055C141.377 24.1413 141.333 24.1637 141.287 24.1679C141.066 24.2051 140.857 24.2937 140.677 24.4268C140.497 24.5598 140.351 24.7334 140.251 24.9335C140.239 24.9528 140.223 24.9695 140.205 24.9824C140.186 24.9953 140.165 25.0041 140.143 25.0083Z" fill="#263238"/>
<path d="M159.06 42.4819C159.908 44.5572 160.64 46.6781 161.252 48.8349C161.901 51.0104 162.364 53.2374 162.634 55.4915C162.704 56.0657 162.725 56.6689 162.75 57.2638V57.6008C162.75 57.7215 162.729 57.8463 162.713 57.9545C162.678 58.1624 162.631 58.368 162.571 58.5702C162.463 58.9162 162.324 59.2518 162.155 59.5729C161.578 60.6395 160.871 61.6303 160.05 62.5226C158.532 64.1908 156.86 65.7132 155.058 67.0699L153.855 65.7344C155.241 64.116 156.639 62.456 157.824 60.7419C158.397 59.9641 158.885 59.1273 159.28 58.2457C159.348 58.0751 159.404 57.8999 159.447 57.7215C159.458 57.6611 159.465 57.5999 159.468 57.5384C159.47 57.5205 159.47 57.5023 159.468 57.4843V57.4261C159.414 56.9352 159.376 56.4443 159.285 55.9408C158.927 53.8856 158.428 51.8575 157.791 49.8708C157.154 47.8572 156.443 45.8144 155.711 43.8673L159.06 42.4819Z" fill="#FFC3BD"/>
<path d="M157.5 38.4256C159.031 38.8916 160.87 44.1628 160.87 44.1628L154.925 48.4064C154.925 48.4064 152.757 44.0089 153.402 42.0285C154.092 39.9691 155.757 37.8931 157.5 38.4256Z" fill="#00977C"/>
<path opacity="0.4" d="M157.5 38.4256C159.031 38.8916 160.87 44.1628 160.87 44.1628L154.925 48.4064C154.925 48.4064 152.757 44.0089 153.402 42.0285C154.092 39.9691 155.757 37.8931 157.5 38.4256Z" fill="black"/>
<path d="M174.62 132.413C174.543 132.411 174.467 132.392 174.399 132.356C174.331 132.321 174.271 132.271 174.225 132.209C174.187 132.17 174.16 132.122 174.147 132.07C174.134 132.017 174.135 131.962 174.15 131.91C174.291 131.452 175.598 131.078 175.747 131.036C175.764 131.03 175.781 131.03 175.798 131.035C175.815 131.04 175.829 131.051 175.839 131.065C175.848 131.079 175.853 131.096 175.853 131.113C175.853 131.13 175.848 131.147 175.839 131.161C175.606 131.606 175.144 132.355 174.67 132.409L174.62 132.413ZM175.585 131.269C175.069 131.436 174.395 131.723 174.337 131.964C174.331 131.987 174.331 132.011 174.338 132.034C174.344 132.056 174.357 132.077 174.374 132.093C174.408 132.141 174.453 132.179 174.505 132.204C174.558 132.228 174.616 132.239 174.674 132.234C174.915 132.205 175.252 131.847 175.585 131.269Z" fill="#00977C"/>
<path d="M175.173 131.286C174.784 131.326 174.394 131.215 174.083 130.978C174.04 130.923 174.016 130.855 174.016 130.785C174.016 130.714 174.04 130.646 174.083 130.591C174.12 130.533 174.17 130.485 174.228 130.449C174.286 130.413 174.352 130.39 174.42 130.383C174.961 130.317 175.781 131.024 175.814 131.053C175.826 131.063 175.835 131.076 175.84 131.09C175.846 131.105 175.846 131.121 175.843 131.136C175.841 131.152 175.835 131.168 175.825 131.18C175.814 131.193 175.8 131.202 175.785 131.207C175.586 131.263 175.38 131.29 175.173 131.286ZM174.512 130.558H174.453C174.411 130.563 174.37 130.577 174.333 130.599C174.297 130.621 174.265 130.651 174.241 130.687C174.179 130.782 174.2 130.832 174.241 130.866C174.404 131.078 175.144 131.157 175.593 131.074C175.286 130.807 174.912 130.629 174.512 130.558Z" fill="#00977C"/>
<path d="M140.8 146.151C140.478 146.18 140.157 146.098 139.889 145.918C139.832 145.866 139.787 145.801 139.759 145.729C139.731 145.657 139.72 145.579 139.727 145.502C139.73 145.452 139.746 145.405 139.773 145.363C139.8 145.322 139.837 145.288 139.88 145.265C140.342 145.011 141.84 145.776 142.011 145.868C142.027 145.877 142.039 145.89 142.047 145.907C142.056 145.923 142.059 145.941 142.056 145.959C142.054 145.978 142.046 145.995 142.033 146.008C142.021 146.022 142.004 146.031 141.986 146.034C141.595 146.109 141.198 146.148 140.8 146.151ZM140.13 145.373C140.073 145.369 140.015 145.381 139.964 145.406C139.946 145.415 139.931 145.429 139.921 145.445C139.91 145.462 139.905 145.482 139.905 145.502C139.899 145.554 139.905 145.607 139.923 145.656C139.941 145.705 139.971 145.75 140.009 145.785C140.238 145.993 140.842 146.026 141.674 145.889C141.192 145.63 140.67 145.455 140.13 145.373Z" fill="#00977C"/>
<path d="M141.969 146.03H141.932C141.482 145.826 140.596 145.015 140.683 144.591C140.683 144.491 140.771 144.362 141.016 144.337C141.105 144.328 141.195 144.337 141.28 144.363C141.365 144.39 141.444 144.433 141.511 144.491C141.981 144.886 142.069 145.897 142.073 145.943C142.074 145.958 142.071 145.974 142.065 145.988C142.058 146.001 142.048 146.013 142.036 146.022C142.026 146.028 142.015 146.032 142.003 146.034C141.992 146.035 141.98 146.034 141.969 146.03ZM141.07 144.503H141.02C140.854 144.503 140.846 144.587 140.842 144.607C140.8 144.861 141.403 145.502 141.861 145.777C141.824 145.349 141.655 144.944 141.378 144.616C141.294 144.538 141.185 144.494 141.07 144.491V144.503Z" fill="#00977C"/>
<path d="M155.02 60.326L155.411 61.6947C155.465 61.7987 155.341 61.9069 155.162 61.9069H139.439C139.302 61.9069 139.186 61.8403 139.177 61.753L139.04 60.3884C139.04 60.2927 139.148 60.2136 139.302 60.2136H154.775C154.822 60.2096 154.869 60.2179 154.912 60.2376C154.955 60.2572 154.992 60.2877 155.02 60.326Z" fill="#00977C"/>
<path opacity="0.3" d="M155.02 60.326L155.411 61.6947C155.465 61.7987 155.341 61.9069 155.162 61.9069H139.439C139.302 61.9069 139.186 61.8403 139.177 61.753L139.04 60.3884C139.04 60.2927 139.148 60.2136 139.302 60.2136H154.775C154.822 60.2096 154.869 60.2179 154.912 60.2376C154.955 60.2572 154.992 60.2877 155.02 60.326Z" fill="white"/>
<path d="M152.944 62.0733H153.36C153.439 62.0733 153.502 62.0317 153.498 61.9777L153.302 60.2012C153.302 60.1512 153.227 60.1055 153.144 60.1055H152.728C152.645 60.1055 152.582 60.1512 152.591 60.2012L152.782 61.9777C152.79 62.0317 152.844 62.0733 152.944 62.0733Z" fill="#263238"/>
<path d="M140.604 62.0733H141.02C141.104 62.0733 141.166 62.0317 141.162 61.9777L140.966 60.2012C140.966 60.1512 140.887 60.1055 140.808 60.1055H140.392C140.309 60.1055 140.247 60.1512 140.251 60.2012L140.446 61.9777C140.45 62.0317 140.521 62.0733 140.604 62.0733Z" fill="#263238"/>
<path d="M146.774 62.0733H147.19C147.274 62.0733 147.336 62.0317 147.332 61.9777L147.136 60.2012C147.136 60.1512 147.061 60.1055 146.978 60.1055H146.562C146.479 60.1055 146.416 60.1512 146.425 60.2012L146.604 61.9901C146.604 62.0317 146.691 62.0733 146.774 62.0733Z" fill="#263238"/>
<path d="M144.906 25.6073L144.162 25.4658C144.162 25.4658 144.586 25.9984 144.906 25.6073Z" fill="#263238"/>
<path opacity="0.2" d="M131.135 78.5861C124.087 81.3245 116.384 81.9112 109.002 80.2721C101.62 78.6331 94.89 74.8419 89.6626 69.3778C84.4351 63.9138 80.9453 57.0224 79.6345 49.5751C78.3236 42.1277 79.2505 34.4589 82.298 27.5383C85.3455 20.6177 90.3767 14.7562 96.7554 10.695C103.134 6.63381 110.574 4.55526 118.134 4.72221C125.694 4.88917 133.035 7.29413 139.228 11.633C145.421 15.9719 150.189 22.0497 152.928 29.0981C154.747 33.7784 155.626 38.7712 155.516 43.7914C155.405 48.8116 154.307 53.7608 152.283 58.3564C150.259 62.952 147.35 67.1039 143.722 70.5749C140.093 74.046 135.816 76.7682 131.135 78.5861Z" fill="#00977C"/>
<path opacity="0.1" d="M124.217 5.34627L94.2284 73.4521C93.7666 73.1026 93.3089 72.7407 92.8596 72.3745C89.9612 69.9768 87.4371 67.1596 85.3709 64.0163L111.274 5.18818C115.565 4.497 119.943 4.55048 124.217 5.34627Z" fill="white"/>
<path opacity="0.1" d="M145.534 17.1618L117.339 81.1946C111.483 81.2008 105.704 79.8599 100.448 77.2755L131.235 7.35156C136.689 9.48463 141.581 12.8408 145.534 17.1618Z" fill="white"/>
<path d="M85.8119 17.191C90.9066 10.9658 97.7328 6.39119 105.427 4.04557C113.122 1.69996 121.339 1.68872 129.04 4.01329C136.741 6.33785 143.58 10.8938 148.692 17.105C153.803 23.3162 156.958 30.9038 157.758 38.9081C158.557 46.9124 156.965 54.9741 153.183 62.0736C149.401 69.1731 143.598 74.9916 136.509 78.7934C129.42 82.5951 121.363 84.2093 113.356 83.4319C105.35 82.6544 97.7535 79.5203 91.5283 74.4257C83.1813 67.5933 77.89 57.7254 76.818 46.9921C75.746 36.2588 78.9811 25.5392 85.8119 17.191ZM146.188 66.6C150.864 60.8835 153.741 53.9087 154.453 46.5575C155.166 39.2063 153.683 31.8089 150.191 25.3006C146.7 18.7923 141.357 13.4655 134.838 9.99368C128.319 6.52187 120.917 5.06099 113.568 5.79578C106.219 6.53056 99.2533 9.42801 93.551 14.1217C87.8486 18.8155 83.6661 25.0947 81.5323 32.1654C79.3986 39.2361 79.4094 46.7807 81.5633 53.8453C83.7173 60.9099 87.9177 67.1771 93.6334 71.8545C97.4291 74.9607 101.799 77.2887 106.495 78.7056C111.19 80.1226 116.119 80.6007 120.999 80.1128C125.879 79.6249 130.615 78.1804 134.937 75.8618C139.259 73.5433 143.082 70.3961 146.188 66.6Z" fill="#00977C"/>
<path d="M149.778 66.4583C153.785 68.8506 157.596 71.4799 161.34 74.1925C165.084 76.9051 168.733 79.73 172.323 82.6298C175.914 85.5296 179.438 88.5126 182.837 91.6454C184.54 93.2097 186.204 94.8156 187.829 96.4632C189.46 98.1273 191.062 99.7915 192.572 101.597C192.921 102.015 193.113 102.542 193.116 103.086C193.119 103.631 192.932 104.159 192.587 104.581C192.242 105.002 191.761 105.291 191.227 105.396C190.693 105.501 190.139 105.417 189.66 105.158C187.58 104.035 185.632 102.795 183.69 101.526C181.747 100.257 179.849 98.9344 177.977 97.574C174.233 94.8614 170.609 92.0032 167.06 89.0535C163.512 86.1038 160.017 83.0875 156.618 79.9505C153.219 76.8136 149.886 73.6018 146.749 70.1486C146.358 69.7215 146.133 69.1675 146.117 68.5882C146.1 68.0089 146.293 67.4432 146.661 66.9947C147.028 66.5463 147.544 66.2452 148.115 66.1466C148.686 66.0481 149.274 66.1588 149.77 66.4583H149.778Z" fill="#00977C"/>
<path d="M154.255 65.3184L150.236 65.9299L153.111 68.4511C153.111 68.4511 155.382 67.6191 155.607 66.0797L154.255 65.3184Z" fill="#FFC3BD"/>
<path d="M148.064 68.2392L150.589 70.2195L153.672 68.2059L150.236 65.9385L148.064 68.2392Z" fill="#FFC3BD"/>
<path d="M129.063 72.62C129.43 71.6179 130.092 70.7504 130.962 70.1318C131.832 69.5132 132.868 69.1724 133.935 69.1544H167.239C167.815 69.1328 168.388 69.2379 168.918 69.4621C169.449 69.6862 169.924 70.0241 170.309 70.4518C170.695 70.8795 170.982 71.3866 171.15 71.9374C171.319 72.4881 171.364 73.0691 171.283 73.6393L162.679 145.826C162.497 147.055 161.883 148.179 160.948 148.997C160.013 149.815 158.817 150.273 157.575 150.291H51.9004C51.3269 150.312 50.7555 150.208 50.2266 149.986C49.6976 149.763 49.2239 149.427 48.8388 149.001C48.4537 148.576 48.1665 148.071 47.9975 147.522C47.8285 146.974 47.7818 146.395 47.8607 145.826L55.0748 85.1761C55.2574 83.9472 55.8712 82.8233 56.8064 82.0054C57.7417 81.1876 58.9373 80.7291 60.1796 80.712H117.685C120.177 80.6695 122.597 79.8737 124.628 78.4294C126.659 76.9851 128.205 74.9598 129.063 72.62Z" fill="#00977C"/>
<path d="M49.762 146.966H160.183L166.474 72.6699H56.0567L49.762 146.966Z" fill="#F0F0F0"/>
<path d="M49.762 146.966H160.183L164.735 72.6699H56.0567L49.762 146.966Z" fill="#E0E0E0"/>
<path d="M49.762 146.966H160.183L163.978 70.3108H53.5604L49.762 146.966Z" fill="#F0F0F0"/>
<path d="M49.762 146.966H160.183L161.685 70.3108H53.5604L49.762 146.966Z" fill="#E0E0E0"/>
<path d="M49.762 146.966H160.183L160.841 68.2307H50.4235L49.762 146.966Z" fill="#F0F0F0"/>
<path d="M49.762 146.966H160.183L157.916 69.72H48.2101L49.762 146.966Z" fill="#E0E0E0"/>
<path d="M49.762 146.966H160.183L156.905 70.3108H46.4877L49.762 146.966Z" fill="#F0F0F0"/>
<path d="M49.762 146.966H160.183L154.962 71.4675H44.5448L49.762 146.966Z" fill="#E0E0E0"/>
<path d="M49.762 146.966H160.183L154.13 72.1123H43.7128L49.762 146.966Z" fill="#F0F0F0"/>
<path d="M105.058 77.3088C105.064 76.8261 105.167 76.3495 105.361 75.9075C105.556 75.4656 105.837 75.0671 106.188 74.736C106.539 74.4049 106.954 74.1479 107.406 73.9802C107.859 73.8125 108.341 73.7376 108.823 73.76H142.127C143.417 73.8095 144.653 74.2858 145.642 75.1141C146.632 75.9424 147.318 77.0758 147.594 78.3364L160.753 145.735C161.244 148.26 159.597 150.311 157.071 150.311H51.397C48.8675 150.311 46.4045 148.26 45.9261 145.735L35.0716 90.1728C34.5807 87.6474 36.2282 85.5963 38.7536 85.5963H96.2628C101.255 85.5963 104.887 82.1598 105.058 77.3088Z" fill="#00977C"/>
<path opacity="0.2" d="M105.058 77.3088C105.064 76.8261 105.167 76.3495 105.361 75.9075C105.556 75.4656 105.837 75.0671 106.188 74.736C106.539 74.4049 106.954 74.1479 107.406 73.9802C107.859 73.8125 108.341 73.7376 108.823 73.76H142.127C143.417 73.8095 144.653 74.2858 145.642 75.1141C146.632 75.9424 147.318 77.0758 147.594 78.3364L160.753 145.735C161.244 148.26 159.597 150.311 157.071 150.311H51.397C48.8675 150.311 46.4045 148.26 45.9261 145.735L35.0716 90.1728C34.5807 87.6474 36.2282 85.5963 38.7536 85.5963H96.2628C101.255 85.5963 104.887 82.1598 105.058 77.3088Z" fill="black"/>
</svg>
