<svg id="Layer_2" data-name="Layer 2" xmlns="http://www.w3.org/2000/svg" width="26.625" height="26.624" viewBox="0 0 26.625 26.624">
  <g id="Layer_1" data-name="Layer 1">
    <g id="Group_1815" data-name="Group 1815">
      <path id="Path_2152" data-name="Path 2152" d="M13.19,10.56l-3.05.879,2.823.806.227.062,3.009-.869Z" transform="translate(0.344 0.358)" fill="#fff"/>
      <path id="Path_2153" data-name="Path 2153" d="M13.36,16.87,16.9,15.836V11.7L13.36,12.734Z" transform="translate(0.453 0.397)" fill="#fff"/>
      <path id="Path_2154" data-name="Path 2154" d="M9.42,15.856l3.526,1.034V12.754L9.42,11.72Z" transform="translate(0.32 0.398)" fill="#fff"/>
      <path id="Path_2155" data-name="Path 2155" d="M22.891,14.806a.29.29,0,0,1,.248-.238l3.484-.548V12.593l-3.484-.538a.31.31,0,0,1-.248-.248,11.053,11.053,0,0,0-.538-1.985.29.29,0,0,1,.093-.331l2.781-2.254-.744-1.251-3.3,1.344a.289.289,0,0,1-.341-.093,9.388,9.388,0,0,0-1.468-1.468.279.279,0,0,1-.093-.331L20.6,2.13,19.335,1.4l-2.2,2.74a.29.29,0,0,1-.331.093,8.747,8.747,0,0,0-1.985-.507.31.31,0,0,1-.248-.248L14.02,0H12.593l-.548,3.515a.29.29,0,0,1-.248.248,8.664,8.664,0,0,0-1.975.507.29.29,0,0,1-.331-.134L7.238,1.4,5.987,2.14l1.344,3.3a.279.279,0,0,1-.093.331A9.461,9.461,0,0,0,5.769,7.238a.29.29,0,0,1-.331.083L2.14,6.028,1.4,7.238l2.74,2.254a.29.29,0,0,1,.093.331A8.664,8.664,0,0,0,3.722,11.8a.3.3,0,0,1-.248.248L0,12.593v1.458l3.515.517a.3.3,0,0,1,.248.248A9.305,9.305,0,0,0,4.27,16.8a.29.29,0,0,1-.093.331L1.4,19.335,2.14,20.6l3.3-1.313a.31.31,0,0,1,.341.093,8.582,8.582,0,0,0,1.458,1.468.3.3,0,0,1,.083.341l-1.292,3.3,1.21.734L9.45,22.447a.258.258,0,0,1,.321-.093,12.1,12.1,0,0,0,2,.538.289.289,0,0,1,.238.238l.548,3.495h1.427l.548-3.495a.289.289,0,0,1,.238-.238,12.1,12.1,0,0,0,2-.538.258.258,0,0,1,.321.093l2.254,2.781,1.261-.744-1.313-3.3a.31.31,0,0,1,.093-.341,8.582,8.582,0,0,0,1.468-1.468.31.31,0,0,1,.341-.093l3.3,1.313.734-1.261-2.771-2.2a.279.279,0,0,1-.093-.331,11.828,11.828,0,0,0,.538-2ZM6.018,13.317a.3.3,0,0,1-.29.29.29.29,0,0,1-.29-.29,7.879,7.879,0,0,1,7.879-7.879.29.29,0,0,1,.29.29.3.3,0,0,1-.29.29h0a7.3,7.3,0,0,0-7.3,7.3Zm7.3,7.868A7.9,7.9,0,0,1,7.5,18.611a.293.293,0,0,1,.434-.393A7.32,7.32,0,0,0,13.317,20.6a.3.3,0,0,1,.29.29.29.29,0,0,1-.29.29Zm4.611-4.725a.31.31,0,0,1-.207.279l-4.136,1.168h-.145L9.378,16.74a.3.3,0,0,1-.207-.279V11.7h.134l4.136-1.365H13.6l4.136,1.168h.052v4.7Zm1.086,2.3a.29.29,0,0,1-.414,0,.269.269,0,0,1,0-.4,7.31,7.31,0,0,0,.01-10.081.292.292,0,1,1,.414-.414,7.879,7.879,0,0,1,0,10.877Z" fill="#fff"/>
    </g>
  </g>
</svg>
