<svg xmlns="http://www.w3.org/2000/svg" width="44.967" height="47.949" viewBox="0 0 44.967 47.949">
  <g id="Group_1757" data-name="Group 1757" transform="translate(22703.636 5033.721)">
    <g id="Group_1754" data-name="Group 1754" transform="translate(-22703.635 -5033.721)">
      <path id="data-source" d="M24.775,45.432C14.468,46.96,0,45.1,0,39.791V31.662a4.322,4.322,0,0,1,.127-.9c4.29,3.328,14.092,4.546,22.468,3.714a15.021,15.021,0,0,0-.447,3.457,11.844,11.844,0,0,0,2.625,7.495ZM34.825,25.787V18.8c0-.187-.064-.32-.064-.447-6.788,5.381-27.91,5.381-34.7,0A.949.949,0,0,0,0,18.8v8.129c0,5.051,13.123,6.977,23.3,5.824A12.092,12.092,0,0,1,34.24,25.774Zm0-19.332v8.116c0,8.193-34.821,8.193-34.821,0V6.442c0-8.256,34.82-8.256,34.82,0Z" transform="translate(0.002 -0.25)" fill="#fff" fill-rule="evenodd"/>
      <path id="Exclusion_1" data-name="Exclusion 1" d="M10.412,0A10.412,10.412,0,1,1,0,10.412,10.412,10.412,0,0,1,10.412,0Z" transform="translate(23.261 27.125)" fill="#fff"/>
    </g>
    <path id="noun_data_cleansing_2301589" data-name="noun_data cleansing_2301589" d="M21.882,17.991A6.084,6.084,0,0,0,23.69,19.63a.778.778,0,0,0,.461.1H31.14a.289.289,0,0,0,.276-.2c.037-.118-1.882-2.015-1.428-6.487a.824.824,0,0,0-.082-.54c-.27-.473-1.053-1.906-1.053-1.906a.578.578,0,0,0-.506-.3H27.212V7.434c0-.586-.276-1.3-1.737-1.3-1.493,0-1.74.653-1.74,1.3V10.3H22.018a.579.579,0,0,0-.579.579V13.28l1.137,1.774a1.368,1.368,0,0,1,.318.823,4.143,4.143,0,0,0,.177,1.845c.071.307-.172.375-.372.086a3.675,3.675,0,0,1-.488-.964h0a3.8,3.8,0,0,1,.033-1.359.937.937,0,0,0-.11-.734c-.171-.273-.694-1.083-.694-1.083s-.744,2.422-.393,3.205A8.288,8.288,0,0,0,21.882,17.991ZM29.04,16.18a8.845,8.845,0,0,0,.2,1.238,10.925,10.925,0,0,0,.792,1.315.282.282,0,0,1-.264.421,1.056,1.056,0,0,1-.711-.348,3.894,3.894,0,0,1-.8-2.232.145.145,0,0,0-.289,0,4.329,4.329,0,0,0,.727,2.212c.143.2.061.368-.183.368a.9.9,0,0,1-.684-.381,4.457,4.457,0,0,1-.552-1.852.145.145,0,0,0-.288.024,5.025,5.025,0,0,0,.513,1.814c.119.217.039.4-.178.4a.761.761,0,0,1-.6-.4,4.511,4.511,0,0,1-.331-1.279.145.145,0,0,0-.287.041,5.124,5.124,0,0,0,.309,1.227.272.272,0,0,1-.269.412H25.119a.914.914,0,0,1-.759-.488,7.5,7.5,0,0,1-.49-1.354c-.08-.283-.46-1.582.29-1.582h4.405A.482.482,0,0,1,29.04,16.18ZM25.485,6.433c.7,0,1.268.238,1.268.532s-.568.532-1.268.532-1.268-.238-1.268-.532S24.784,6.433,25.485,6.433Zm-2.223,6.142L22.7,11.7c-.047-.073-.014-.133.073-.133h.9a.307.307,0,0,1,.238.136s.356.6,1.561.6a1.767,1.767,0,0,0,1.558-.605.315.315,0,0,1,.241-.134h.637a.3.3,0,0,1,.234.138l.478.867a.085.085,0,0,1-.081.138H23.5A.324.324,0,0,1,23.262,12.574Zm-4.743,4.487a1.737,1.737,0,0,1-1.772,1.7,1.825,1.825,0,0,1-.8-.182,1.068,1.068,0,0,1-.533.142,1.032,1.032,0,0,1-1.05-1.011,1.012,1.012,0,0,1,.637-.929,1.68,1.68,0,0,1,.661-1.055v0a1.369,1.369,0,0,1,2.735,0,1.248,1.248,0,0,1-.111.512A1.618,1.618,0,0,1,18.519,17.061ZM37.314,18.29a.906.906,0,1,1-.895-.763A.838.838,0,0,1,37.314,18.29ZM35.73,16.929a.71.71,0,0,1-.449-.159,1.32,1.32,0,0,1-.625.159,1.339,1.339,0,0,1-1.241-.851,1.085,1.085,0,1,1,.764-1.736,1.337,1.337,0,0,1,1.814,1.212.713.713,0,0,1-.263,1.375ZM33.9,19.4v.1c-.192,1.022-3.214,2.42-7.877,2.42s-7.689-1.4-7.878-2.421v-.1c0-.888.977-1.687,2.536-2.245,0,.025,0,.051.007.075l.93,1.245a5.3,5.3,0,0,0,1.766,1.541,1.626,1.626,0,0,0,.9.17h7.637c.141,0,.423-.019.465-.153a.244.244,0,0,0-.069-.194,6.332,6.332,0,0,1-.993-1.286c-.4-.776-.731-1.642-.731-1.642C32.6,17.465,33.9,18.373,33.9,19.4Z" transform="translate(-22695.982 -5010.812)" fill="#212245"/>
  </g>
</svg>
