<svg id="engineer" xmlns="http://www.w3.org/2000/svg" width="25.32" height="25.317" viewBox="0 0 25.32 25.317">
  <path id="Path_8387" data-name="Path 8387" d="M3.107,47.675q.058.16.129.313a.458.458,0,0,1-.079.525l-.481.481L3.94,50.258l.481-.481a.459.459,0,0,1,.529-.081,2.851,2.851,0,0,0,.313.129.459.459,0,0,1,.316.427v.68H7.361v-.674a.458.458,0,0,1,.316-.427q.16-.058.313-.129a.458.458,0,0,1,.525.079l.481.481,1.263-1.267-.481-.481a.459.459,0,0,1-.079-.525,2.854,2.854,0,0,0,.129-.313.459.459,0,0,1,.427-.316h.68V45.574h-.676a.458.458,0,0,1-.427-.316q-.065-.16-.134-.309a.458.458,0,0,1,.079-.525l.481-.481L8.995,42.676l-.481.481a.459.459,0,0,1-.525.079,2.849,2.849,0,0,0-.313-.129.459.459,0,0,1-.316-.427V42H5.574v.68a.458.458,0,0,1-.316.427q-.16.058-.313.129a.458.458,0,0,1-.525-.079l-.481-.481L2.676,43.94l.481.481a.459.459,0,0,1,.079.525,2.852,2.852,0,0,0-.129.313.459.459,0,0,1-.427.316H2v1.787h.68A.458.458,0,0,1,3.107,47.675Zm3.359-3a1.787,1.787,0,1,1-1.787,1.787A1.787,1.787,0,0,1,6.466,44.68Z" transform="translate(-2 -25.615)" fill="#fff"/>
  <path id="Path_8388" data-name="Path 8388" d="M3.107,7.675q.058.16.129.313a.458.458,0,0,1-.079.525l-.481.481L3.94,10.258l.481-.481A.459.459,0,0,1,4.949,9.7a2.853,2.853,0,0,0,.313.129.459.459,0,0,1,.316.427v.68H7.361v-.674a.458.458,0,0,1,.316-.427q.16-.058.313-.129a.458.458,0,0,1,.525.079l.481.481,1.263-1.267-.482-.482A.459.459,0,0,1,9.7,7.988a2.853,2.853,0,0,0,.129-.313.459.459,0,0,1,.427-.316h.68V5.574h-.675a.458.458,0,0,1-.427-.316Q9.766,5.1,9.7,4.949a.458.458,0,0,1,.079-.525l.481-.481L8.995,2.676l-.482.481a.459.459,0,0,1-.525.079,2.853,2.853,0,0,0-.313-.129A.459.459,0,0,1,7.36,2.68V2H5.574v.68a.458.458,0,0,1-.316.427q-.159.058-.313.13a.459.459,0,0,1-.525-.079L3.94,2.677,2.676,3.94l.481.481a.459.459,0,0,1,.08.529,3.064,3.064,0,0,0-.13.313.458.458,0,0,1-.427.316H2V7.361h.68a.458.458,0,0,1,.427.315Zm3.36-3A1.787,1.787,0,1,1,4.68,6.467,1.787,1.787,0,0,1,6.467,4.68Z" transform="translate(-2 -2)" fill="#fff"/>
  <path id="Path_8389" data-name="Path 8389" d="M47.178,35.34H44.091a2.231,2.231,0,0,1-1.877-1.029l-1.352,2.7a4.464,4.464,0,0,0,2.821,1.007h3.493v1.34l3.127-2.68L47.178,34Z" transform="translate(-24.986 -20.695)" fill="#fff"/>
  <path id="Path_8390" data-name="Path 8390" d="M30.6,28.592l2.169-4.336a2.234,2.234,0,0,1,2-1.235h3.087v1.34l3.127-2.68L37.848,19v1.34H34.355a4.466,4.466,0,0,0-4,2.47l-2.169,4.336a2.234,2.234,0,0,1-2,1.235H24v2.68h2.6a4.467,4.467,0,0,0,4-2.469Z" transform="translate(-15.656 -12.171)" fill="#fff"/>
  <path id="Path_8391" data-name="Path 8391" d="M28.191,22.915l.558,1.117.811-1.621a5.407,5.407,0,0,1,.856-1.244A4.458,4.458,0,0,0,26.6,19H24v2.68h2.193a2.233,2.233,0,0,1,2,1.235Z" transform="translate(-14.888 -11.924)" fill="#fff"/>
  <rect id="Rectangle_1488" data-name="Rectangle 1488" height="3.165" transform="translate(7.228 7.424)" fill="#fff"/>
  <rect id="Rectangle_1489" data-name="Rectangle 1489" width="2.373" height="3.165" transform="translate(4.957 7.424)" fill="#fff"/>
  <rect id="Rectangle_1490" data-name="Rectangle 1490" transform="translate(7.228 15.705)" fill="#fff"/>
  <rect id="Rectangle_1491" data-name="Rectangle 1491" width="2.373" transform="translate(4.957 15.705)" fill="#fff"/>
</svg>
