<svg xmlns="http://www.w3.org/2000/svg" width="19.992" height="23.579" viewBox="0 0 19.992 23.579">
  <g id="noun_Government_1511569" transform="translate(-11 -956.362)">
    <path id="Path_9499" data-name="Path 9499" d="M20.988,956.362a.8.8,0,0,0-.416.136l-9.228,6.15a.769.769,0,0,0,.425,1.409H30.223a.769.769,0,0,0,.425-1.409l-9.227-6.15A.8.8,0,0,0,20.988,956.362Zm-7.25,8.207a.8.8,0,0,0-.689.769v7.428a1.938,1.938,0,0,0-.513,1.281.8.8,0,0,0,.769.768h1.538a.8.8,0,0,0,.769-.768,1.956,1.956,0,0,0-.512-1.281v-7.428a.8.8,0,0,0-.769-.769Zm4.614,0a.8.8,0,0,0-.689.769v7.428a1.938,1.938,0,0,0-.513,1.281.8.8,0,0,0,.769.768h1.538a.8.8,0,0,0,.769-.768,1.956,1.956,0,0,0-.512-1.281v-7.428a.8.8,0,0,0-.769-.769Zm4.614,0a.8.8,0,0,0-.689.769v7.428a1.938,1.938,0,0,0-.513,1.281.8.8,0,0,0,.769.768h1.538a.8.8,0,0,0,.769-.768,1.956,1.956,0,0,0-.512-1.281v-7.428a.8.8,0,0,0-.769-.769Zm4.614,0a.8.8,0,0,0-.689.769v7.428a1.938,1.938,0,0,0-.513,1.281.8.8,0,0,0,.769.768h1.538a.8.8,0,0,0,.769-.768,1.956,1.956,0,0,0-.512-1.281v-7.428a.8.8,0,0,0-.769-.769ZM12.714,975.331a.8.8,0,0,0-.689.769v.769h-.256a.8.8,0,0,0-.769.767v1.538a.8.8,0,0,0,.769.769H30.223a.8.8,0,0,0,.769-.769v-1.538a.8.8,0,0,0-.769-.768h-.256V976.1a.8.8,0,0,0-.769-.767Z" fill="#fff"/>
  </g>
</svg>
