<svg xmlns="http://www.w3.org/2000/svg" width="47.889" height="51.507" viewBox="0 0 47.889 51.507">
  <g id="Group_1755" data-name="Group 1755" transform="translate(22907.754 5031.208)">
    <path id="data-source" d="M26.613,48.785C15.542,50.427,0,48.433,0,42.725V33.993a4.643,4.643,0,0,1,.137-.963c4.608,3.575,15.137,4.884,24.135,3.989a16.136,16.136,0,0,0-.48,3.714,12.724,12.724,0,0,0,2.82,8.051Zm10.8-21.1v-7.51c0-.2-.068-.344-.068-.48-7.291,5.78-29.981,5.78-37.271,0a1.019,1.019,0,0,0-.068.48V28.9c0,5.426,14.1,7.494,25.029,6.256a12.989,12.989,0,0,1,11.749-7.492Zm0-20.767v8.718c0,8.8-37.405,8.8-37.405,0V6.9c0-8.869,37.4-8.869,37.4,0Z" transform="translate(-22907.752 -5031.458)" fill="#fff" fill-rule="evenodd"/>
    <path id="Exclusion_9" data-name="Exclusion 9" d="M11.185,0A11.185,11.185,0,1,1,0,11.185,11.185,11.185,0,0,1,11.185,0Z" transform="translate(-22882.234 -5002.07)" fill="#fff"/>
    <g id="Group_1753" data-name="Group 1753" transform="translate(-22877.441 -4997.276)">
      <path id="Path_10445" data-name="Path 10445" d="M123.5,117.113H119.67v-3.835a1.278,1.278,0,1,0-2.557,0v3.835h-3.835a1.278,1.278,0,1,0,0,2.557h3.835V123.5a1.278,1.278,0,0,0,2.557,0V119.67H123.5a1.278,1.278,0,0,0,0-2.557Z" transform="translate(-112 -112)" fill="#212245"/>
    </g>
  </g>
</svg>
