<svg xmlns="http://www.w3.org/2000/svg" width="21.352" height="23.292" viewBox="0 0 21.352 23.292">
  <g id="notification" transform="translate(0.002)">
    <path id="Path_8392" data-name="Path 8392" d="M138.531,450.911A3.645,3.645,0,0,0,142.1,448h-7.131a3.645,3.645,0,0,0,3.566,2.911Zm0,0" transform="translate(-128.826 -427.619)" fill="#fff"/>
    <path id="Path_8393" data-name="Path 8393" d="M16.51,52.372H16.5A6.8,6.8,0,0,1,9.7,45.579a6.733,6.733,0,0,1,.649-2.879c-.214-.02-.43-.033-.649-.033a6.793,6.793,0,0,0-6.794,6.794v2.706A6.507,6.507,0,0,1,.593,57.148,1.7,1.7,0,0,0,.06,58.892,1.78,1.78,0,0,0,1.8,60.137H17.6a1.779,1.779,0,0,0,1.774-1.346,1.7,1.7,0,0,0-.579-1.662,6.458,6.458,0,0,1-2.285-4.757Zm0,0" transform="translate(0 -40.726)" fill="#fff"/>
    <path id="Path_8394" data-name="Path 8394" d="M265.717,4.853A4.853,4.853,0,1,1,260.864,0,4.852,4.852,0,0,1,265.717,4.853Zm0,0" transform="translate(-244.366)" fill="#fff"/>
  </g>
</svg>
