<svg xmlns="http://www.w3.org/2000/svg" width="47.059" height="50.462" viewBox="0 0 47.059 50.462">
  <g id="Group_1756" data-name="Group 1756" transform="translate(22815.758 5031.208)">
    <path id="data-source" d="M25.995,47.657C15.181,49.261,0,47.314,0,41.739V33.209a4.535,4.535,0,0,1,.133-.94c4.5,3.492,14.786,4.77,23.574,3.9a15.761,15.761,0,0,0-.469,3.628,12.428,12.428,0,0,0,2.754,7.864ZM36.54,27.045V19.709c0-.2-.067-.336-.067-.469-7.122,5.646-29.285,5.646-36.4,0A1,1,0,0,0,0,19.709v8.529c0,5.3,13.769,7.32,24.448,6.111a12.687,12.687,0,0,1,11.476-7.318Zm0-20.284v8.516c0,8.6-36.536,8.6-36.536,0V6.747c0-8.663,36.534-8.663,36.534,0Z" transform="translate(-22815.756 -5031.458)" fill="#fff" fill-rule="evenodd"/>
    <path id="Exclusion_10" data-name="Exclusion 10" d="M10.925,0A10.925,10.925,0,1,1,0,10.925,10.925,10.925,0,0,1,10.925,0Z" transform="translate(-22790.549 -5002.596)" fill="#fff"/>
    <g id="badge" transform="translate(-22785.867 -4998.954)">
      <path id="Path_10446" data-name="Path 10446" d="M1.433,329.191.045,331.965a.43.43,0,0,0,.384.622H2.516l1.252,1.669a.43.43,0,0,0,.728-.066L5.8,331.576a6.347,6.347,0,0,1-4.371-2.385Zm0,0" transform="translate(0 -319.76)" fill="#212245"/>
      <path id="Path_10447" data-name="Path 10447" d="M250.914,331.966l-1.387-2.774a6.347,6.347,0,0,1-4.371,2.385l1.307,2.615a.43.43,0,0,0,.728.066l1.252-1.669h2.087a.43.43,0,0,0,.384-.622Zm0,0" transform="translate(-238.133 -319.761)" fill="#212245"/>
      <path id="Path_10448" data-name="Path 10448" d="M146.814,108.688l-.719-1.149-.719,1.149a.43.43,0,0,1-.26.189l-1.315.329.87,1.039a.429.429,0,0,1,.1.306l-.094,1.352,1.257-.507a.43.43,0,0,1,.321,0l1.257.507-.094-1.352a.43.43,0,0,1,.1-.306l.87-1.039-1.315-.329A.43.43,0,0,1,146.814,108.688Zm0,0" transform="translate(-139.681 -104.459)" fill="#212245"/>
      <path id="Path_10449" data-name="Path 10449" d="M43.12,5.493a5.493,5.493,0,1,0-5.493,5.493A5.5,5.5,0,0,0,43.12,5.493Zm-2.1-.72-1.2,1.432.129,1.864a.43.43,0,0,1-.589.428l-1.733-.7-1.733.7A.43.43,0,0,1,35.3,8.07l.129-1.864-1.2-1.432a.43.43,0,0,1,.225-.693l1.813-.453.991-1.584a.43.43,0,0,1,.729,0l.992,1.584L40.8,4.08a.43.43,0,0,1,.225.693Zm0,0" transform="translate(-31.213)" fill="#212245"/>
    </g>
  </g>
</svg>
