<svg id="Layer_2" data-name="Layer 2" xmlns="http://www.w3.org/2000/svg" width="32" height="26.955" viewBox="0 0 32 26.955">
  <g id="Layer_1" data-name="Layer 1">
    <path id="Path_2063" data-name="Path 2063" d="M13.487,3.107,7.274,0,1.06,3.107,7.274,6.214Z" transform="translate(0.257)" fill="#fff"/>
    <path id="Path_2064" data-name="Path 2064" d="M20.162,14.09,13.7,17.321v6.214L20.162,20.3Z" transform="translate(3.325 3.42)" fill="#fff"/>
    <path id="Path_2065" data-name="Path 2065" d="M14.69,3.107,20.9,6.214l6.214-3.107L20.9,0Z" transform="translate(3.566)" fill="#fff"/>
    <path id="Path_2066" data-name="Path 2066" d="M20.55,13.285l6.462-3.231V3.84L20.55,7.071Z" transform="translate(4.988 0.932)" fill="#fff"/>
    <path id="Path_2067" data-name="Path 2067" d="M13.312,3.85,6.85,7.081v6.214l6.462-3.231Z" transform="translate(1.663 0.934)" fill="#fff"/>
    <path id="Path_2068" data-name="Path 2068" d="M20.162,7.081,13.7,3.85v6.214l6.462,3.231Z" transform="translate(3.325 0.934)" fill="#fff"/>
    <path id="Path_2069" data-name="Path 2069" d="M20.3,13.377,14.084,10.27,7.87,13.377l6.214,3.107Z" transform="translate(1.91 2.493)" fill="#fff"/>
    <path id="Path_2070" data-name="Path 2070" d="M6.85,20.3l6.462,3.231V17.321L6.85,14.09Z" transform="translate(1.663 3.42)" fill="#fff"/>
    <path id="Path_2071" data-name="Path 2071" d="M0,10.054l6.462,3.231V7.071L0,3.84Z" transform="translate(0 0.932)" fill="#fff"/>
  </g>
</svg>
