<svg xmlns="http://www.w3.org/2000/svg" width="51.398" height="51.411" viewBox="0 0 51.398 51.411">
  <g id="noun_Settings_1606297" transform="translate(-9.998 -9.975)">
    <path id="Path_9500" data-name="Path 9500" d="M60.782,30.034a2.156,2.156,0,0,0-1.958-1.362L56.5,28.518q-.352-1.048-.807-2.056L57.456,24.5a2.164,2.164,0,0,0,.416-2.39,21.7,21.7,0,0,0-7.556-7.643,1.6,1.6,0,0,0-.833-.216,2.467,2.467,0,0,0-1.568.607l-1.624,1.429a21.86,21.86,0,0,0-3.413-1.542q-.062-1.069-.134-2.138a2.164,2.164,0,0,0-1.46-1.979,24.07,24.07,0,0,0-11.241.031,2.169,2.169,0,0,0-1.46,1.979q-.072,1.11-.139,2.21c-.658.236-1.306.514-1.938.8l-1.542-1.408a2.452,2.452,0,0,0-1.6-.648,1.542,1.542,0,0,0-.766.19,20.616,20.616,0,0,0-7.52,7.278,2.161,2.161,0,0,0,.38,2.385l1.2,1.4a21.824,21.824,0,0,0-1.455,3.2l-2.472.108a2.158,2.158,0,0,0-1.994,1.316,18.879,18.879,0,0,0-.118,10.013,2.136,2.136,0,0,0,1.958,1.357l2.025.134a21.757,21.757,0,0,0,1.9,4.847l-1.419,1.583a2.218,2.218,0,0,0-.416,2.4,21.727,21.727,0,0,0,7.545,7.643,1.6,1.6,0,0,0,.828.216,2.467,2.467,0,0,0,1.568-.607l1.948-1.717c.607.283,1.228.514,1.861.766.057.93.108,1.8.164,2.662a2.169,2.169,0,0,0,1.47,1.969,24.071,24.071,0,0,0,11.251,0,2.159,2.159,0,0,0,1.46-1.974c.062-.889.113-1.758.159-2.57A21.819,21.819,0,0,0,45.7,54.993l1.871,1.727a2.457,2.457,0,0,0,1.6.653,1.542,1.542,0,0,0,.766-.19,20.647,20.647,0,0,0,7.53-7.283,2.179,2.179,0,0,0-.386-2.38c-.519-.6-1.151-1.352-1.85-2.133a21.85,21.85,0,0,0,1.542-3.937l1.9-.108a2.159,2.159,0,0,0,1.989-1.316,18.874,18.874,0,0,0,.118-9.992ZM35.7,49.34A13.652,13.652,0,1,1,49.35,35.688,13.652,13.652,0,0,1,35.7,49.34Z" transform="translate(0 0)" fill="#fff"/>
    <path id="Path_9501" data-name="Path 9501" d="M48.908,36.5A11.822,11.822,0,1,0,60.663,47.443,11.822,11.822,0,0,0,48.908,36.5Zm-.062,22.1a10.031,10.031,0,1,1,0,.015Z" transform="translate(-13.148 -12.891)" fill="#fff"/>
    <path id="Path_9502" data-name="Path 9502" d="M51.252,42A9.252,9.252,0,1,0,60.5,51.252,9.252,9.252,0,0,0,51.252,42Zm0,14.783a5.54,5.54,0,1,1,0,.015Z" transform="translate(-15.553 -15.564)" fill="#fff"/>
  </g>
</svg>
