<svg width="7" height="12" viewBox="0 0 7 12" fill="none" xmlns="http://www.w3.org/2000/svg">
<path d="M5.52497 11.8333C5.40048 11.8338 5.27747 11.8063 5.16499 11.7529C5.0525 11.6996 4.9534 11.6217 4.87497 11.525L0.849974 6.525C0.727406 6.37589 0.6604 6.18885 0.6604 5.99583C0.6604 5.80281 0.727406 5.61577 0.849974 5.46666L5.01664 0.466663C5.15809 0.296482 5.36135 0.189462 5.5817 0.169145C5.80206 0.148829 6.02146 0.21688 6.19164 0.358329C6.36182 0.499778 6.46884 0.703038 6.48916 0.923393C6.50947 1.14375 6.44142 1.36315 6.29997 1.53333L2.57497 6L6.17497 10.4667C6.27688 10.589 6.34161 10.7379 6.36151 10.8959C6.3814 11.0538 6.35564 11.2142 6.28726 11.358C6.21888 11.5017 6.11075 11.6229 5.97566 11.7072C5.84056 11.7914 5.68417 11.8352 5.52497 11.8333Z" fill="black"/>
</svg>
