<svg width="97" height="97" viewBox="0 0 97 97" fill="none" xmlns="http://www.w3.org/2000/svg">
<circle opacity="0.5" cx="48.5" cy="48.5" r="48.5" fill="#DEDEE3"/>
<path d="M70.841 36.4698L61.5303 27.159C61.3218 26.9494 61.0739 26.7832 60.8008 26.6701C60.5278 26.557 60.235 26.4992 59.9394 26.5H31.75C31.1535 26.5007 30.5816 26.738 30.1598 27.1598C29.738 27.5816 29.5007 28.1535 29.5 28.75V69.25C29.5007 69.8465 29.738 70.4184 30.1598 70.8402C30.5816 71.262 31.1535 71.4993 31.75 71.5H69.25C69.8465 71.4993 70.4184 71.262 70.8402 70.8402C71.262 70.4184 71.4993 69.8465 71.5 69.25V38.0606C71.5008 37.765 71.443 37.4722 71.3299 37.1992C71.2168 36.9261 71.0506 36.6782 70.841 36.4698ZM56.5 29.5V38.5H43V29.5H56.5ZM68.5 68.5H32.5V29.5H40V41.5H59.5V29.5H59.6287L68.5 38.3713V68.5Z" fill="#585974"/>
<path d="M50.125 46C48.4191 46 46.7516 46.5058 45.3332 47.4536C43.9148 48.4013 42.8093 49.7483 42.1565 51.3244C41.5037 52.9004 41.3329 54.6346 41.6657 56.3077C41.9985 57.9807 42.82 59.5176 44.0262 60.7238C45.2324 61.93 46.7693 62.7515 48.4424 63.0843C50.1154 63.4171 51.8496 63.2463 53.4256 62.5935C55.0017 61.9407 56.3487 60.8352 57.2964 59.4168C58.2442 57.9984 58.75 56.3309 58.75 54.625C58.7475 52.3383 57.838 50.1459 56.2211 48.5289C54.6041 46.912 52.4117 46.0025 50.125 46ZM50.125 60.25C49.0125 60.25 47.9249 59.9201 46.9999 59.302C46.0749 58.6839 45.3539 57.8054 44.9282 56.7776C44.5024 55.7498 44.391 54.6188 44.6081 53.5276C44.8251 52.4365 45.3609 51.4342 46.1475 50.6475C46.9342 49.8609 47.9365 49.3251 49.0276 49.1081C50.1188 48.891 51.2498 49.0024 52.2776 49.4282C53.3054 49.8539 54.1839 50.5749 54.802 51.4999C55.4201 52.4249 55.75 53.5125 55.75 54.625C55.7483 56.1163 55.1551 57.5461 54.1006 58.6006C53.0461 59.6551 51.6163 60.2483 50.125 60.25Z" fill="#585974"/>
</svg>
