<svg width="98" height="97" viewBox="0 0 98 97" fill="none" xmlns="http://www.w3.org/2000/svg">
<circle opacity="0.5" cx="49" cy="48.5" r="48.5" fill="#DEDEE3"/>
<path d="M56.5 37H50.5V31H47.5V37H41.5V40H47.5V46H50.5V40H56.5V37Z" fill="#585974"/>
<path d="M67 58H50.5V52H59.5C60.2953 51.9988 61.0577 51.6824 61.62 51.12C62.1824 50.5577 62.4988 49.7953 62.5 49V28C62.4992 27.2046 62.1829 26.442 61.6204 25.8796C61.058 25.3171 60.2954 25.0008 59.5 25H38.5C37.7046 25.0008 36.942 25.3171 36.3796 25.8796C35.8171 26.442 35.5008 27.2046 35.5 28V49C35.5008 49.7954 35.8171 50.558 36.3796 51.1204C36.942 51.6829 37.7046 51.9992 38.5 52H47.5V58H31C30.2044 58 29.4413 58.3161 28.8787 58.8787C28.3161 59.4413 28 60.2043 28 61V67H31V61H47.5V67H50.5V61H67V67H70V61C70 60.2043 69.6839 59.4413 69.1213 58.8787C68.5587 58.3161 67.7957 58 67 58ZM38.5 28H59.5L59.503 49H38.5V28Z" fill="#585974"/>
</svg>
