<svg width="16" height="16" viewBox="0 0 16 16" fill="none" xmlns="http://www.w3.org/2000/svg">
<path d="M4.34286 8.68571C4.34286 8.307 4.64987 8 5.02858 8C5.40729 8 5.71429 8.307 5.71429 8.68571V12.1143C5.71429 12.493 5.40729 12.8 5.02858 12.8C4.64987 12.8 4.34286 12.493 4.34286 12.1143V8.68571Z" fill="#00977C"/>
<path d="M9.82858 5.25714C9.82858 4.87843 10.1356 4.57143 10.5143 4.57143C10.893 4.57143 11.2 4.87843 11.2 5.25714V12.1143C11.2 12.493 10.893 12.8 10.5143 12.8C10.1356 12.8 9.82858 12.493 9.82858 12.1143V5.25714Z" fill="#00977C"/>
<path d="M12.5714 3.88571C12.5714 3.507 12.8784 3.2 13.2571 3.2C13.6359 3.2 13.9429 3.507 13.9429 3.88571V12.1143C13.9429 12.493 13.6359 12.8 13.2571 12.8C12.8784 12.8 12.5714 12.493 12.5714 12.1143V3.88571Z" fill="#00977C"/>
<path d="M1.60001 6.62857C1.60001 6.24986 1.90701 5.94286 2.28572 5.94286C2.66443 5.94286 2.97143 6.24986 2.97143 6.62857V12.1143C2.97143 12.493 2.66443 12.8 2.28572 12.8C1.90701 12.8 1.60001 12.493 1.60001 12.1143V6.62857Z" fill="#00977C"/>
<path d="M7.08572 7.31429C7.08572 6.93558 7.39272 6.62857 7.77143 6.62857C8.15014 6.62857 8.45715 6.93558 8.45715 7.31429V12.1143C8.45715 12.493 8.15014 12.8 7.77143 12.8C7.39272 12.8 7.08572 12.493 7.08572 12.1143V7.31429Z" fill="#00977C"/>
</svg>
