<svg width="16" height="16" viewBox="0 0 16 16" fill="none" xmlns="http://www.w3.org/2000/svg">
<path d="M4.34247 8.68884C4.34247 8.31013 4.64947 8.00313 5.02818 8.00313C5.40689 8.00313 5.71389 8.31013 5.71389 8.68884V12.1174C5.71389 12.4961 5.40689 12.8031 5.02818 12.8031C4.64947 12.8031 4.34247 12.4961 4.34247 12.1174V8.68884Z" fill="#888C92"/>
<path d="M9.82818 5.26027C9.82818 4.88156 10.1352 4.57455 10.5139 4.57455C10.8926 4.57455 11.1996 4.88156 11.1996 5.26027V12.1174C11.1996 12.4961 10.8926 12.8031 10.5139 12.8031C10.1352 12.8031 9.82818 12.4961 9.82818 12.1174V5.26027Z" fill="#888C92"/>
<path d="M12.571 3.88884C12.571 3.51013 12.878 3.20312 13.2568 3.20312C13.6355 3.20312 13.9425 3.51013 13.9425 3.88884V12.1174C13.9425 12.4961 13.6355 12.8031 13.2568 12.8031C12.878 12.8031 12.571 12.4961 12.571 12.1174V3.88884Z" fill="#888C92"/>
<path d="M1.59961 6.6317C1.59961 6.25299 1.90661 5.94598 2.28532 5.94598C2.66403 5.94598 2.97104 6.25299 2.97104 6.6317V12.1174C2.97104 12.4961 2.66403 12.8031 2.28532 12.8031C1.90661 12.8031 1.59961 12.4961 1.59961 12.1174V6.6317Z" fill="#888C92"/>
<path d="M7.08532 7.31741C7.08532 6.9387 7.39233 6.6317 7.77104 6.6317C8.14975 6.6317 8.45675 6.9387 8.45675 7.31741V12.1174C8.45675 12.4961 8.14975 12.8031 7.77104 12.8031C7.39233 12.8031 7.08532 12.4961 7.08532 12.1174V7.31741Z" fill="#888C92"/>
</svg>
