<svg width="16" height="16" viewBox="0 0 16 16" fill="none" xmlns="http://www.w3.org/2000/svg">
<path d="M7.55001 11.3333H8.55001V7.33325H7.55001V11.3333ZM8.00001 6.09992C8.15557 6.09992 8.28612 6.04992 8.39168 5.94992C8.49723 5.84992 8.55001 5.72214 8.55001 5.56659C8.55001 5.41103 8.49723 5.2777 8.39168 5.16658C8.28612 5.05547 8.15557 4.99992 8.00001 4.99992C7.84445 4.99992 7.7139 5.05547 7.60834 5.16658C7.50279 5.2777 7.45001 5.41103 7.45001 5.56659C7.45001 5.72214 7.50279 5.84992 7.60834 5.94992C7.7139 6.04992 7.84445 6.09992 8.00001 6.09992ZM8.00001 14.6666C7.0889 14.6666 6.22779 14.4916 5.41668 14.1416C4.60557 13.7916 3.89723 13.3138 3.29168 12.7083C2.68612 12.1027 2.20834 11.3944 1.85834 10.5833C1.50834 9.77214 1.33334 8.90547 1.33334 7.98325C1.33334 7.07214 1.50834 6.21103 1.85834 5.39992C2.20834 4.58881 2.68612 3.88325 3.29168 3.28325C3.89723 2.68325 4.60557 2.20825 5.41668 1.85825C6.22779 1.50825 7.09445 1.33325 8.01668 1.33325C8.92779 1.33325 9.7889 1.50825 10.6 1.85825C11.4111 2.20825 12.1167 2.68325 12.7167 3.28325C13.3167 3.88325 13.7917 4.58881 14.1417 5.39992C14.4917 6.21103 14.6667 7.0777 14.6667 7.99992C14.6667 8.91103 14.4917 9.77214 14.1417 10.5833C13.7917 11.3944 13.3167 12.1027 12.7167 12.7083C12.1167 13.3138 11.4111 13.7916 10.6 14.1416C9.7889 14.4916 8.92223 14.6666 8.00001 14.6666ZM8.01668 13.6666C9.58334 13.6666 10.9167 13.1138 12.0167 12.0083C13.1167 10.9027 13.6667 9.56103 13.6667 7.98325C13.6667 6.41659 13.1167 5.08325 12.0167 3.98325C10.9167 2.88325 9.57779 2.33325 8.00001 2.33325C6.43334 2.33325 5.09723 2.88325 3.99168 3.98325C2.88612 5.08325 2.33334 6.42214 2.33334 7.99992C2.33334 9.56658 2.88612 10.9027 3.99168 12.0083C5.09723 13.1138 6.4389 13.6666 8.01668 13.6666Z" fill="#888C92"/>
</svg>
