<svg width="210" height="163" viewBox="0 0 210 163" fill="none" xmlns="http://www.w3.org/2000/svg">
<path d="M108.96 30.0251H140.79V39.0778H108.96C108.278 39.0778 107.624 38.8069 107.142 38.3247C106.659 37.8424 106.388 37.1884 106.388 36.5064V32.5916C106.39 31.9105 106.661 31.2577 107.143 30.7765C107.625 30.2954 108.279 30.0251 108.96 30.0251Z" fill="#00977C"/>
<path d="M140.79 18.7319H110.915C109.718 18.7319 108.571 19.2072 107.725 20.0533C106.879 20.8993 106.403 22.0468 106.403 23.2432C106.403 24.4397 106.879 25.5872 107.725 26.4332C108.571 27.2792 109.718 27.7545 110.915 27.7545H140.79V18.7319Z" fill="#00977C"/>
<path d="M154.369 8.3208H143.506V38.6467H154.369V8.3208Z" fill="#00977C"/>
<path d="M167.948 8.3208H157.085V38.6467H167.948V8.3208Z" fill="#00977C"/>
<path d="M181.527 8.3208H170.664V38.6467H181.527V8.3208Z" fill="#00977C"/>
<path opacity="0.4" d="M108.96 30.0251H140.79V39.0778H108.96C108.278 39.0778 107.624 38.8069 107.142 38.3247C106.659 37.8424 106.388 37.1884 106.388 36.5064V32.5916C106.39 31.9105 106.661 31.2577 107.143 30.7765C107.625 30.2954 108.279 30.0251 108.96 30.0251Z" fill="white"/>
<path opacity="0.4" d="M140.79 18.7319H110.915C109.718 18.7319 108.571 19.2072 107.725 20.0533C106.879 20.8993 106.403 22.0468 106.403 23.2432C106.403 24.4397 106.879 25.5872 107.725 26.4332C108.571 27.2792 109.718 27.7545 110.915 27.7545H140.79V18.7319Z" fill="white"/>
<path opacity="0.4" d="M154.369 8.3208H143.506V38.6467H154.369V8.3208Z" fill="white"/>
<path opacity="0.4" d="M167.948 8.3208H157.085V38.6467H167.948V8.3208Z" fill="white"/>
<path opacity="0.4" d="M181.527 8.3208H170.664V38.6467H181.527V8.3208Z" fill="white"/>
<path d="M188.088 39.4587H102.784V44.5114H109.707V57.0428H113.827V44.5114H175.035V57.0428H179.156V44.5114H188.088V39.4587Z" fill="#00977C"/>
<path opacity="0.1" d="M188.088 39.4587H102.784V44.5114H109.707V57.0428H113.827V44.5114H175.035V57.0428H179.156V44.5114H188.088V39.4587Z" fill="black"/>
<path d="M86.2029 54.4965C85.2321 54.8118 84.2799 55.1816 83.3508 55.6042C83.852 55.2283 84.3533 54.8473 84.8545 54.4514C87.1207 52.6367 89.2751 50.6866 91.3057 48.6117C88.9161 50.9305 86.3632 53.0747 83.6666 55.0278C84.0361 54.3816 84.3626 53.7119 84.644 53.0228C85.1453 51.7596 85.2405 50.5165 84.0325 49.8097C82.5287 48.9776 80.7493 50.2258 81.2255 52.3661C81.5096 53.5539 82.0694 54.658 82.8596 55.5892C81.1076 56.8046 79.2774 57.9031 77.3808 58.8774L77.2004 58.9677C77.6015 58.2741 77.9549 57.554 78.258 56.8123C78.7593 55.5491 78.8595 54.2809 77.6515 53.5992C76.1477 52.7621 74.3633 54.0103 74.8445 56.1556C75.1245 57.3284 75.6737 58.4198 76.4485 59.3436C74.1678 60.4664 71.8119 61.4188 69.466 62.4564L69.1252 62.6118C69.5832 62.1188 70.0086 61.5964 70.3983 61.0479C71.1603 59.9301 71.5713 58.722 70.5537 57.7797C69.3056 56.6218 67.2605 57.4188 67.2254 59.6143C67.2277 60.8319 67.5107 62.0326 68.0525 63.1231C65.8608 64.1387 63.7782 65.3748 61.8369 66.8123L61.7768 66.8574C62.042 66.4432 62.2814 66.013 62.4935 65.5692C63.07 64.3461 63.2805 63.0629 62.1276 62.3211C61.8926 62.1577 61.6235 62.05 61.3406 62.0062C61.0578 61.9624 60.7687 61.9835 60.4952 62.0681C60.2218 62.1526 59.9712 62.2983 59.7625 62.4941C59.5537 62.69 59.3923 62.9308 59.2905 63.1983C59.1402 62.958 58.9316 62.7597 58.684 62.6218C57.5211 61.9501 56.3782 62.677 55.4008 63.7045C55.1451 63.9702 54.8995 64.2559 54.674 64.5466C55.4315 62.4461 56.383 60.4206 57.5161 58.4965C58.5917 58.9719 59.7536 59.221 60.9296 59.2283C63.2454 59.2283 64.2229 57.2985 63.085 56.1005C62.1627 55.1281 60.8595 55.499 59.6314 56.2057C59.2254 56.4413 58.8294 56.707 58.4584 56.9777C59.6402 55.2042 60.9826 53.543 62.4685 52.0153C63.4367 52.7977 64.5614 53.3635 65.7667 53.6744C68.0174 54.2308 69.4309 52.5967 68.6139 51.1681C67.9522 50.0002 66.6089 50.0453 65.2354 50.4363C64.5937 50.6305 63.9644 50.8631 63.3507 51.133C63.9622 50.5366 64.5988 49.9601 65.2404 49.3937C66.0875 48.6719 66.9597 47.9751 67.847 47.2984C68.804 48.0602 69.9107 48.6118 71.0951 48.9175C73.3407 49.4739 74.7543 47.8398 73.9422 46.4112C73.2806 45.2433 71.9372 45.2934 70.5638 45.6844C70.248 45.7746 69.9272 45.8849 69.6164 46.0002C70.7893 45.1631 71.9823 44.346 73.1753 43.529L74.2781 42.7771C75.274 43.6072 76.4415 44.2064 77.6966 44.5315C79.9473 45.0879 81.3558 43.4538 80.5438 42.0252C79.8821 40.8523 78.5387 40.9024 77.1653 41.2934C76.632 41.4504 76.1082 41.6378 75.5964 41.8548C75.8269 41.6944 76.0525 41.529 76.2781 41.3536C76.6991 41.0528 77.1102 40.747 77.5212 40.4312C78.0224 40.0503 78.5237 39.6242 79.0249 39.2232C79.3056 38.9977 79.5763 38.757 79.847 38.5114C80.8415 39.3566 82.0159 39.9635 83.2806 40.2859C85.5312 40.8423 86.9448 39.2132 86.1328 37.7796C85.4711 36.6117 84.1277 36.6568 82.7493 37.0478C81.9956 37.2803 81.2573 37.5598 80.5387 37.8849C81.456 37.0327 82.3433 36.1455 83.1854 35.2182C83.2455 35.153 83.2956 35.0879 83.3508 35.0227C83.7167 34.6217 84.0726 34.2157 84.4185 33.7996C84.7643 33.3836 85.2054 32.7971 85.5864 32.2959C87.1302 30.2715 88.3994 28.0517 89.3608 25.6943C88.3574 28.0318 87.044 30.2235 85.4561 32.2107C83.8921 34.2054 82.147 36.0512 80.243 37.7245L80.0375 37.8999C80.4734 37.1496 80.8586 36.3709 81.1904 35.5691C81.6916 34.3059 81.7919 33.0377 80.5839 32.356C79.0801 31.5239 77.2956 32.767 77.7768 34.9124C78.0831 36.1737 78.6941 37.3407 79.5563 38.3109L79.1102 38.6919C78.9347 38.8372 78.7543 38.9876 78.5738 39.128C78.2781 39.3686 77.9773 39.5992 77.6766 39.8247L77.1753 40.1956C76.7442 40.5114 76.3031 40.8272 75.862 41.133L75.1753 41.5541L74.4535 42.0553C74.8734 41.3346 75.2435 40.5859 75.5613 39.8147C76.0625 38.5515 76.1628 37.2834 74.9548 36.6016C73.451 35.7646 71.6665 37.0127 72.1427 39.1581C72.4398 40.3791 73.0241 41.5116 73.847 42.4613L73.3106 42.8072L71.3056 44.1004L70.9197 44.3561C70.5487 44.5967 70.1828 44.8573 69.8169 45.0929C69.6565 45.1982 69.4961 45.3034 69.3407 45.4137C68.8394 45.7646 68.3131 46.1205 67.8069 46.4864C68.2325 45.7535 68.6092 44.9933 68.9347 44.2107C69.4359 42.9475 69.5362 41.6744 68.3282 40.9977C66.8244 40.1606 65.0399 41.4087 65.5161 43.549C65.8166 44.7894 66.4134 45.9384 67.2555 46.8974C66.3933 47.529 65.5412 48.1807 64.7091 48.8573C64.1076 49.3586 63.5111 49.8899 62.9296 50.4213C63.1833 49.952 63.4092 49.4683 63.6063 48.9726C64.1076 47.7095 64.2078 46.4664 62.9998 45.7596C61.4961 44.9275 59.7116 46.1706 60.1878 48.316C60.4727 49.4894 61.0232 50.5818 61.7968 51.509C60.1512 53.1437 58.6688 54.935 57.3707 56.8574C57.5192 56.3039 57.6314 55.7413 57.7066 55.1732C57.872 53.8298 57.6765 52.5666 56.3431 52.2007C54.699 51.7496 53.2504 53.3937 54.2329 55.3586C54.7967 56.4375 55.6031 57.371 56.5888 58.0855C55.3116 60.1705 54.2438 62.3767 53.4008 64.6719C53.3797 64.1917 53.3311 63.7131 53.2554 63.2384C53.0299 61.905 52.4885 60.7321 51.105 60.7772C49.4008 60.8073 48.4784 62.7822 49.9772 64.4013C50.7775 65.2342 51.7536 65.8781 52.8344 66.286C52.2572 68.0629 51.7852 69.8722 51.4208 71.7046C51.3657 71.9953 51.3156 72.286 51.2654 72.5767C51.2005 72.6283 51.1402 72.6853 51.085 72.7472C51.0248 72.4965 50.9547 72.2459 50.8745 72.0003C50.4434 70.7171 49.7316 69.6594 48.3682 69.9C46.689 70.1958 46.0875 72.3011 47.8118 73.6544C48.6905 74.3268 49.7046 74.8005 50.7842 75.0429C50.8 75.0931 50.8201 75.1417 50.8444 75.1883C50.6589 76.5667 50.5186 77.9502 50.4333 79.3437C50.3699 80.3796 50.3281 81.4206 50.308 82.4665C48.8544 82.4665 47.8018 84.0555 48.8343 85.7848C49.2543 86.5008 49.7934 87.1399 50.4283 87.6746C50.5536 89.6295 50.7441 91.5843 51.0048 93.5242C50.7993 93.3346 50.5477 93.202 50.2752 93.1396C50.0026 93.0771 49.7184 93.087 49.4509 93.1683C48.5336 93.4139 48.1226 94.1708 47.9772 95.058C47.6577 95.3953 47.4785 95.8416 47.4759 96.3062C46.7942 95.3037 46.1526 94.256 45.5311 93.2034C46.4829 92.4721 47.2717 91.5502 47.8469 90.4966C48.9396 88.4565 47.7115 86.6821 46.1175 87.1182C44.8193 87.469 44.5336 88.7924 44.5737 90.2109C44.5955 90.7479 44.6457 91.2833 44.724 91.8149L44.0975 90.5969C43.5361 89.5944 43.0599 88.5919 42.5336 87.5492C42.3982 87.3036 42.2829 87.048 42.1727 86.7923C43.244 86.2532 44.1914 85.497 44.9546 84.5718C46.4083 82.7723 45.5311 80.7973 43.887 80.9277C42.5436 81.0279 42.0173 82.276 41.7917 83.6745C41.7006 84.2857 41.6454 84.9016 41.6263 85.5192L41.125 84.4164C40.1068 81.9183 39.2692 79.3502 38.6188 76.7322C39.8253 76.3074 40.9238 75.623 41.8368 74.7271C43.4659 73.078 42.7942 71.0279 41.1401 70.9878C39.7967 70.9577 39.135 72.1457 38.7792 73.494C38.5998 74.2303 38.4659 74.9769 38.3782 75.7296C38.0223 74.2259 37.7165 72.7221 37.4659 71.1833C37.2904 70.2359 37.1802 69.2785 37.0599 68.3211C38.3641 68.0683 39.5924 67.5176 40.6488 66.7121C42.4784 65.2935 42.0724 63.1732 40.4383 62.9176C39.115 62.712 38.313 63.8048 37.7716 65.1181C37.4548 65.9512 37.1903 66.8034 36.9797 67.6695C36.8744 66.5567 36.7591 65.4489 36.709 64.3361C36.5636 62.039 36.5736 59.7346 36.739 57.4388C36.5035 59.7332 36.4231 62.0409 36.4984 64.3461C36.4984 65.4088 36.5887 66.4664 36.6538 67.5291C36.3694 66.8064 36.0344 66.1045 35.6513 65.4288C34.9596 64.2659 34.0323 63.3887 32.7541 63.9251C31.1751 64.5717 31.0398 66.7622 33.0147 67.7146C34.179 68.2478 35.4553 68.4903 36.734 68.4213C36.8243 69.3687 36.9045 70.3161 37.0448 71.2534C37.2453 72.7572 37.501 74.261 37.7967 75.7196C37.4739 75.1534 37.1138 74.6092 36.719 74.0905C35.8769 73.0279 34.8493 72.276 33.6463 72.9627C32.1425 73.8098 32.313 75.9953 34.3982 76.682C35.5798 77.0511 36.832 77.1352 38.0523 76.9276C38.6273 79.5765 39.3894 82.1812 40.333 84.7222L40.6338 85.4841C40.3631 85.1382 40.0724 84.7823 39.7666 84.4816C38.8243 83.5091 37.7265 82.8675 36.5987 83.6695C35.2102 84.672 35.5962 86.8224 37.7165 87.2986C38.9033 87.5405 40.1299 87.5045 41.3005 87.1933C41.4057 87.454 41.511 87.6946 41.6363 87.9703C42.1376 89.0129 42.5987 90.0856 43.1401 91.1132C43.2905 91.4089 43.4458 91.6996 43.6012 91.9904C43.3356 91.7648 43.0599 91.5442 42.7742 91.3437C41.6714 90.5618 40.4684 90.1357 39.511 91.1382C38.3381 92.3713 39.1 94.4265 41.2955 94.4916C42.426 94.5069 43.5463 94.276 44.5787 93.8149C45.2053 94.9528 45.8569 96.0756 46.5536 97.1784C46.8143 97.5994 47.085 98.0155 47.3556 98.4315C46.9579 98.0602 46.5377 97.7137 46.0975 97.3939C44.9897 96.6119 43.7867 96.1859 42.8343 97.1884C41.6564 98.4215 42.4183 100.477 44.6138 100.542C45.8692 100.557 47.1099 100.271 48.2328 99.7097C48.5937 100.211 48.9697 100.712 49.3607 101.213C48.5436 102.161 48.8093 103.77 50.4684 104.482C51.2824 104.818 52.1496 105.009 53.0299 105.043C53.1301 105.128 53.2354 105.208 53.3406 105.284L53.3958 105.324C53.7817 106.767 54.2028 108.201 54.6439 109.625H47.2053V133.239H65.8319V109.609H57.1552C56.4083 107.058 55.7817 104.838 55.6514 104.777L55.3908 104.652C56.3684 104.318 57.2771 103.808 58.0725 103.148C59.8369 101.645 59.3356 99.5443 57.6965 99.3688C56.3582 99.2185 55.6063 100.346 55.1301 101.685C54.9928 102.066 54.8757 102.454 54.7792 102.848C54.684 102.492 54.5888 102.136 54.4985 101.78C54.2278 100.727 53.9973 99.6646 53.7466 98.6069C54.8085 98.2668 55.7941 97.7238 56.6489 97.0079C58.4133 95.5042 57.9121 93.4089 56.273 93.2285C54.9346 93.0831 54.1877 94.231 53.7065 95.5443C53.5682 95.9324 53.4494 96.3272 53.3507 96.7272C53.1953 95.9553 53.0499 95.1834 52.9146 94.4064C52.8143 93.825 52.7241 93.2485 52.6389 92.6721C52.6038 91.85 52.5938 91.0229 52.6038 90.2009C52.6038 89.7447 52.6038 89.2936 52.6439 88.8375C53.6381 89.159 54.6834 89.2933 55.7266 89.2335C58.0424 89.0831 58.8945 87.1031 57.6865 85.9753C56.684 85.063 55.4259 85.5142 54.2429 86.2961C53.7195 86.6579 53.2175 87.0495 52.7391 87.469C52.8812 85.5307 53.1762 83.6065 53.6213 81.7146C53.8852 80.6049 54.2098 79.5105 54.5938 78.4364C55.656 78.8038 56.7798 78.9605 57.902 78.8976C60.2128 78.7522 61.07 76.7672 59.862 75.6444C58.8594 74.7271 57.6013 75.1833 56.4183 75.9652C55.9985 76.25 55.5936 76.5562 55.2053 76.8825C55.6508 75.8329 56.17 74.8161 56.7592 73.8399C57.94 71.875 59.4179 70.1047 61.1402 68.5918C62.0273 69.4045 63.0737 70.0242 64.2129 70.4113C66.4184 71.1331 67.9472 69.6093 67.2204 68.1156C66.649 66.9025 65.2956 66.8474 63.9021 67.1131C63.3754 67.2302 62.8551 67.374 62.3432 67.5441H62.3783C64.2685 66.0655 66.306 64.7856 68.4585 63.7246C69.2204 64.7198 70.1881 65.5388 71.2956 66.1256C73.3558 67.1883 75.1101 65.9351 74.654 64.3461C74.2831 63.0529 72.9548 62.7872 71.5362 62.8424C70.9801 62.8733 70.4262 62.9352 69.877 63.0278C72.1678 61.9451 74.5036 60.9226 76.7593 59.7296L76.8094 59.7045C77.8233 60.5753 79.0238 61.2013 80.3182 61.5341C82.5688 62.0905 83.9824 60.4564 83.1653 59.0278C82.5087 57.8549 81.1603 57.905 79.7869 58.296C79.4059 58.4012 79.03 58.5416 78.659 58.6819C80.1633 57.8058 81.6222 56.8538 83.03 55.8298L83.1503 55.9551C83.1475 55.9368 83.1475 55.9183 83.1503 55.9C84.1627 56.7783 85.3631 57.4128 86.6591 57.7546C88.9097 58.306 90.3232 56.6769 89.5112 55.2484C88.8997 54.0854 87.5463 54.0854 86.2029 54.4965ZM50.689 100.517C50.2328 99.9804 49.7917 99.419 49.3657 98.8525C49.4709 98.7573 49.5812 98.6521 49.6915 98.5418C50.3256 98.7411 50.9825 98.859 51.6464 98.8927V98.9979L51.9572 98.9378C52.1176 99.7348 52.288 100.537 52.4584 101.334C52.2495 101.062 51.9772 100.845 51.6653 100.703C51.3533 100.56 51.0112 100.496 50.6689 100.517H50.689ZM52.3481 81.3988C52.1928 81.9953 52.0574 82.5968 51.9321 83.1983L51.8569 83.0931C51.8569 81.8567 51.8753 80.6219 51.912 79.3888C51.9471 78.5216 52.0123 77.6595 52.0875 76.8023C52.5014 77.2297 52.9602 77.6112 53.4559 77.9402C53.0175 79.0717 52.641 80.2263 52.3281 81.3988H52.3481ZM54.4334 75.7096C54.4334 75.484 54.4835 75.2534 54.4985 75.0329C54.4985 74.9176 54.4985 74.8023 54.4985 74.692C54.679 74.6369 54.8644 74.5717 55.0499 74.4966C54.8193 74.8976 54.6238 75.2986 54.4133 75.7096H54.4334ZM57.075 71.4138C56.9869 71.2137 56.8594 71.0333 56.7 70.8834C56.5407 70.7336 56.3529 70.6173 56.1477 70.5417C54.8945 70.0404 53.877 70.9527 53.0699 72.1156L53.0299 72.1757L52.9496 72.1507L52.689 72.1156C52.689 72.0454 52.7141 71.9752 52.7241 71.9051C53.0465 70.0726 53.48 68.2613 54.0223 66.4815C55.1883 66.6269 56.3716 66.5348 57.501 66.2108C58.192 66.0352 58.7969 65.6172 59.2053 65.0329C59.4325 66.0548 59.8582 67.0222 60.4585 67.88C59.2063 68.9387 58.0658 70.1228 57.0549 71.4138H57.075Z" fill="#00977C"/>
<path d="M96.5587 62.7371H185.667C186.73 62.7371 187.75 63.1596 188.502 63.9116C189.254 64.6636 189.677 65.6836 189.677 66.7471V129.274H92.5637V66.7321C92.5677 65.6737 92.9899 64.6599 93.7382 63.9115C94.4866 63.1632 95.5004 62.741 96.5587 62.7371Z" fill="#263238" stroke="#263238" stroke-linecap="round" stroke-linejoin="round"/>
<path d="M204.228 158.682H77.9973L92.5638 129.269H189.662L204.228 158.682Z" fill="white" stroke="#263238" stroke-linecap="round" stroke-linejoin="round"/>
<path d="M183.782 68.0054H98.4435V124.001H183.782V68.0054Z" fill="#00977C" stroke="#263238" stroke-linecap="round" stroke-linejoin="round"/>
<path d="M137.06 138.577L137.231 134.993H132.098L131.757 138.577H137.06Z" fill="#263238" stroke="white" stroke-linecap="round" stroke-linejoin="round"/>
<path d="M147.667 138.577L147.491 134.993H142.359L142.364 138.577H147.667Z" fill="#263238" stroke="white" stroke-linecap="round" stroke-linejoin="round"/>
<path d="M175.281 142.412H180.765L179.476 138.577H174.178L175.281 142.412Z" fill="#263238" stroke="white" stroke-linecap="round" stroke-linejoin="round"/>
<path d="M131.757 138.577L132.098 134.993H126.97L126.459 138.577H131.757Z" fill="#263238" stroke="white" stroke-linecap="round" stroke-linejoin="round"/>
<path d="M121.155 138.577L121.837 134.993H116.709L115.852 138.577H121.155Z" fill="#263238" stroke="white" stroke-linecap="round" stroke-linejoin="round"/>
<path d="M168.875 138.577L168.013 134.993H162.885L163.572 138.577H168.875Z" fill="#263238" stroke="white" stroke-linecap="round" stroke-linejoin="round"/>
<path d="M174.178 138.577L173.146 134.993H168.013L168.875 138.577H174.178Z" fill="#263238" stroke="white" stroke-linecap="round" stroke-linejoin="round"/>
<path d="M115.852 138.577L116.709 134.993H111.576L110.549 138.577H115.852Z" fill="#263238" stroke="white" stroke-linecap="round" stroke-linejoin="round"/>
<path d="M152.965 138.577L152.619 134.993H147.491L147.667 138.577H152.965Z" fill="#263238" stroke="white" stroke-linecap="round" stroke-linejoin="round"/>
<path d="M179.476 138.577L178.273 134.993H173.146L174.178 138.577H179.476Z" fill="#263238" stroke="white" stroke-linecap="round" stroke-linejoin="round"/>
<path d="M163.572 138.577L162.885 134.993H157.752L158.268 138.577H163.572Z" fill="#263238" stroke="white" stroke-linecap="round" stroke-linejoin="round"/>
<path d="M158.268 138.577L157.752 134.993H152.619L152.965 138.577H158.268Z" fill="#263238" stroke="white" stroke-linecap="round" stroke-linejoin="round"/>
<path d="M142.363 138.577L142.358 134.993H137.231L137.06 138.577H142.363Z" fill="#263238" stroke="white" stroke-linecap="round" stroke-linejoin="round"/>
<path d="M105.251 138.577H99.9473L98.4836 142.412H103.967L105.251 138.577Z" fill="#263238" stroke="white" stroke-linecap="round" stroke-linejoin="round"/>
<path d="M106.444 134.993H101.316L99.9473 138.577H105.251L106.444 134.993Z" fill="#263238" stroke="white" stroke-linecap="round" stroke-linejoin="round"/>
<path d="M110.549 138.577L111.576 134.993H106.444L105.251 138.577H110.549Z" fill="#263238" stroke="white" stroke-linecap="round" stroke-linejoin="round"/>
<path d="M96.9147 146.517L95.2255 150.928H101.12L102.594 146.517H96.9147Z" fill="#263238" stroke="white" stroke-linecap="round" stroke-linejoin="round"/>
<path d="M103.967 142.412H98.4836L96.9147 146.517H102.594L103.967 142.412Z" fill="#263238" stroke="white" stroke-linecap="round" stroke-linejoin="round"/>
<path d="M102.594 146.517L101.12 150.928H107.015L108.278 146.517H102.594Z" fill="#263238" stroke="white" stroke-linecap="round" stroke-linejoin="round"/>
<path d="M126.459 138.577L126.97 134.993H121.837L121.155 138.577H126.459Z" fill="#263238" stroke="white" stroke-linecap="round" stroke-linejoin="round"/>
<path d="M125.907 142.412L126.459 138.577H121.155L120.424 142.412H125.907Z" fill="#263238" stroke="white" stroke-linecap="round" stroke-linejoin="round"/>
<path d="M120.424 142.412L121.155 138.577H115.852L114.94 142.412H120.424Z" fill="#263238" stroke="white" stroke-linecap="round" stroke-linejoin="round"/>
<path d="M131.396 142.412L131.757 138.577H126.459L125.907 142.412H131.396Z" fill="#263238" stroke="white" stroke-linecap="round" stroke-linejoin="round"/>
<path d="M110.549 138.577H105.251L103.967 142.412H109.451L110.549 138.577Z" fill="#263238" stroke="white" stroke-linecap="round" stroke-linejoin="round"/>
<path d="M176.464 146.517H182.148L180.765 142.412H175.281L176.464 146.517Z" fill="#263238" stroke="white" stroke-linecap="round" stroke-linejoin="round"/>
<path d="M114.94 142.412L115.852 138.577H110.549L109.451 142.412H114.94Z" fill="#263238" stroke="white" stroke-linecap="round" stroke-linejoin="round"/>
<path d="M103.967 142.412L102.594 146.517H108.278L109.451 142.412H103.967Z" fill="#263238" stroke="white" stroke-linecap="round" stroke-linejoin="round"/>
<path d="M164.308 142.412L163.572 138.577H158.268L158.825 142.412H164.308Z" fill="#263238" stroke="white" stroke-linecap="round" stroke-linejoin="round"/>
<path d="M158.825 142.412L158.268 138.577H152.965L153.336 142.412H158.825Z" fill="#263238" stroke="white" stroke-linecap="round" stroke-linejoin="round"/>
<path d="M175.281 142.412L174.178 138.577H168.875L169.792 142.412H175.281Z" fill="#263238" stroke="white" stroke-linecap="round" stroke-linejoin="round"/>
<path d="M142.368 142.412L142.363 138.577H137.06L136.88 142.412H142.368Z" fill="#263238" stroke="white" stroke-linecap="round" stroke-linejoin="round"/>
<path d="M153.336 142.412L152.965 138.577H147.667L147.852 142.412H153.336Z" fill="#263238" stroke="white" stroke-linecap="round" stroke-linejoin="round"/>
<path d="M147.852 142.412L147.667 138.577H142.364L142.369 142.412H147.852Z" fill="#263238" stroke="white" stroke-linecap="round" stroke-linejoin="round"/>
<path d="M136.88 142.412L137.06 138.577H131.757L131.396 142.412H136.88Z" fill="#263238" stroke="white" stroke-linecap="round" stroke-linejoin="round"/>
<path d="M153.336 142.412L153.737 146.517H159.416L158.825 142.412H153.336Z" fill="#263238" stroke="white" stroke-linecap="round" stroke-linejoin="round"/>
<path d="M158.825 142.412L159.416 146.517H165.1L164.308 142.412H158.825Z" fill="#263238" stroke="white" stroke-linecap="round" stroke-linejoin="round"/>
<path d="M109.451 142.412L108.278 146.517H113.962L114.94 142.412H109.451Z" fill="#263238" stroke="white" stroke-linecap="round" stroke-linejoin="round"/>
<path d="M164.308 142.412L165.1 146.517H170.78L169.792 142.412H164.308Z" fill="#263238" stroke="white" stroke-linecap="round" stroke-linejoin="round"/>
<path d="M142.369 142.412V146.517H148.053L147.852 142.412H142.369Z" fill="#263238" stroke="white" stroke-linecap="round" stroke-linejoin="round"/>
<path d="M169.792 142.412L170.78 146.517H176.464L175.281 142.412H169.792Z" fill="#263238" stroke="white" stroke-linecap="round" stroke-linejoin="round"/>
<path d="M147.852 142.412L148.053 146.517H153.737L153.336 142.412H147.852Z" fill="#263238" stroke="white" stroke-linecap="round" stroke-linejoin="round"/>
<path d="M120.424 142.412L119.642 146.517H125.326L125.907 142.412H120.424Z" fill="#263238" stroke="white" stroke-linecap="round" stroke-linejoin="round"/>
<path d="M114.94 142.412L113.962 146.517H119.642L120.424 142.412H114.94Z" fill="#263238" stroke="white" stroke-linecap="round" stroke-linejoin="round"/>
<path d="M136.88 142.412L136.689 146.517H142.369V142.412H136.88Z" fill="#263238" stroke="white" stroke-linecap="round" stroke-linejoin="round"/>
<path d="M131.396 142.412L131.005 146.517H136.689L136.88 142.412H131.396Z" fill="#263238" stroke="white" stroke-linecap="round" stroke-linejoin="round"/>
<path d="M125.907 142.412L125.326 146.517H131.005L131.396 142.412H125.907Z" fill="#263238" stroke="white" stroke-linecap="round" stroke-linejoin="round"/>
<path d="M169.792 142.412L168.875 138.577H163.572L164.309 142.412H169.792Z" fill="#263238" stroke="white" stroke-linecap="round" stroke-linejoin="round"/>
<path d="M106.444 134.993L107.672 131.324H102.714L101.316 134.993H106.444Z" fill="#263238" stroke="white" stroke-linecap="round" stroke-linejoin="round"/>
<path d="M101.316 134.993H96.5789L95.05 138.577H99.9473L101.316 134.993Z" fill="#263238" stroke="white" stroke-linecap="round" stroke-linejoin="round"/>
<path d="M102.714 131.324H98.1428L96.5789 134.993H101.316L102.714 131.324Z" fill="#263238" stroke="white" stroke-linecap="round" stroke-linejoin="round"/>
<path d="M99.9472 138.577H95.05L93.4209 142.412H98.4836L99.9472 138.577Z" fill="#263238" stroke="white" stroke-linecap="round" stroke-linejoin="round"/>
<path d="M98.4836 142.412H93.4209L91.6665 146.517H96.9146L98.4836 142.412Z" fill="#263238" stroke="white" stroke-linecap="round" stroke-linejoin="round"/>
<path d="M96.9147 146.517H91.6666L89.7869 150.928H95.2255L96.9147 146.517Z" fill="#263238" stroke="white" stroke-linecap="round" stroke-linejoin="round"/>
<path d="M184.78 138.577L186.253 142.412H191.106L189.471 138.577H184.78Z" fill="#263238" stroke="white" stroke-linecap="round" stroke-linejoin="round"/>
<path d="M187.827 146.517H192.855L191.106 142.412H186.253L187.827 146.517Z" fill="#263238" stroke="white" stroke-linecap="round" stroke-linejoin="round"/>
<path d="M189.522 150.928H194.735L192.855 146.517H187.827L189.522 150.928Z" fill="#263238" stroke="white" stroke-linecap="round" stroke-linejoin="round"/>
<path d="M147.491 134.993L147.311 131.324H142.359V134.993H147.491Z" fill="#263238" stroke="white" stroke-linecap="round" stroke-linejoin="round"/>
<path d="M184.78 138.577H189.471L187.943 134.993H183.406L184.78 138.577Z" fill="#263238" stroke="white" stroke-linecap="round" stroke-linejoin="round"/>
<path d="M182.148 146.517H187.827L186.253 142.412H180.765L182.148 146.517Z" fill="#263238" stroke="white" stroke-linecap="round" stroke-linejoin="round"/>
<path d="M111.576 134.993L112.624 131.324H107.672L106.443 134.993H111.576Z" fill="#263238" stroke="white" stroke-linecap="round" stroke-linejoin="round"/>
<path d="M178.273 134.993L179.476 138.577H184.78L183.406 134.993H178.273Z" fill="#263238" stroke="white" stroke-linecap="round" stroke-linejoin="round"/>
<path d="M187.943 134.993L186.379 131.324H181.998L183.406 134.993H187.943Z" fill="#263238" stroke="white" stroke-linecap="round" stroke-linejoin="round"/>
<path d="M183.406 134.993L181.998 131.324H177.04L178.273 134.993H183.406Z" fill="#263238" stroke="white" stroke-linecap="round" stroke-linejoin="round"/>
<path d="M165.1 146.517L165.948 150.928H171.842L170.78 146.517H165.1Z" fill="#263238" stroke="white" stroke-linecap="round" stroke-linejoin="round"/>
<path d="M183.627 150.928H189.522L187.827 146.517H182.148L183.627 150.928Z" fill="#263238" stroke="white" stroke-linecap="round" stroke-linejoin="round"/>
<path d="M178.273 134.993L177.04 131.324H172.088L173.146 134.993H178.273Z" fill="#263238" stroke="white" stroke-linecap="round" stroke-linejoin="round"/>
<path d="M176.464 146.517L177.737 150.928H183.627L182.148 146.517H176.464Z" fill="#263238" stroke="white" stroke-linecap="round" stroke-linejoin="round"/>
<path d="M170.78 146.517L171.842 150.928H177.737L176.464 146.517H170.78Z" fill="#263238" stroke="white" stroke-linecap="round" stroke-linejoin="round"/>
<path d="M180.765 142.412H186.253L184.78 138.577H179.476L180.765 142.412Z" fill="#263238" stroke="white" stroke-linecap="round" stroke-linejoin="round"/>
<path d="M132.098 134.993L132.449 131.324H127.491L126.97 134.993H132.098Z" fill="#263238" stroke="white" stroke-linecap="round" stroke-linejoin="round"/>
<path d="M173.146 134.993L172.088 131.324H167.13L168.013 134.993H173.146Z" fill="#263238" stroke="white" stroke-linecap="round" stroke-linejoin="round"/>
<path d="M126.97 134.993L127.491 131.324H122.539L121.837 134.993H126.97Z" fill="#263238" stroke="white" stroke-linecap="round" stroke-linejoin="round"/>
<path d="M142.358 134.993V131.324H137.401L137.231 134.993H142.358Z" fill="#263238" stroke="white" stroke-linecap="round" stroke-linejoin="round"/>
<path d="M121.837 134.993L122.539 131.324H117.581L116.709 134.993H121.837Z" fill="#263238" stroke="white" stroke-linecap="round" stroke-linejoin="round"/>
<path d="M116.709 134.993L117.581 131.324H112.624L111.576 134.993H116.709Z" fill="#263238" stroke="white" stroke-linecap="round" stroke-linejoin="round"/>
<path d="M137.231 134.993L137.401 131.324H132.449L132.098 134.993H137.231Z" fill="#263238" stroke="white" stroke-linecap="round" stroke-linejoin="round"/>
<path d="M168.013 134.993L167.131 131.324H162.178L162.885 134.993H168.013Z" fill="#263238" stroke="white" stroke-linecap="round" stroke-linejoin="round"/>
<path d="M162.885 134.993L162.178 131.324H157.221L157.752 134.993H162.885Z" fill="#263238" stroke="white" stroke-linecap="round" stroke-linejoin="round"/>
<path d="M152.619 134.993L152.268 131.324H147.311L147.491 134.993H152.619Z" fill="#263238" stroke="white" stroke-linecap="round" stroke-linejoin="round"/>
<path d="M165.1 146.517H159.416H153.737H148.053H142.369H136.689H131.005H125.326H119.642H113.962H108.278L107.015 150.928H112.91H118.8H124.694H130.589H136.484H142.374H148.268H154.163H160.053H165.948L165.1 146.517Z" fill="#263238" stroke="white" stroke-linecap="round" stroke-linejoin="round"/>
<path d="M157.752 134.993L157.221 131.324H152.268L152.619 134.993H157.752Z" fill="#263238" stroke="white" stroke-linecap="round" stroke-linejoin="round"/>
<path d="M204.284 158.677H77.9973V160.467H204.284V158.677Z" fill="#263238" stroke="#263238" stroke-linecap="round" stroke-linejoin="round"/>
<path opacity="0.15" d="M174.88 80.7772V128.943L160.88 147.194L158.524 148.076L86.7042 158.672V161.028L60.3983 162.442V136.597H105.251V80.5466L174.88 80.7772Z" fill="black"/>
<path d="M44.2679 131.429C41.0348 131.589 37.531 134.056 37.531 134.056L0.989502 162.442H60.3983C60.3983 162.442 97.9072 134.136 99.03 133.324C100.809 132.041 104.338 131.389 104.338 131.389L102.669 131.429H44.2679Z" fill="white" stroke="#263238" stroke-linecap="round" stroke-linejoin="round"/>
<path d="M180.94 80.8223H101.436" stroke="#263238" stroke-linecap="round" stroke-linejoin="round"/>
<path d="M168.95 63.6895C168.171 63.6888 167.399 63.8419 166.679 64.14C165.959 64.4381 165.305 64.8753 164.754 65.4266C164.203 65.9779 163.766 66.6324 163.469 67.3527C163.171 68.0731 163.019 68.845 163.02 69.6243V142.512C163.018 143.473 162.786 144.42 162.343 145.273C161.9 146.126 161.259 146.86 160.473 147.415C159.688 147.969 158.781 148.327 157.829 148.458C156.876 148.59 155.907 148.491 155 148.171L110.023 132.196C107.663 131.356 105.112 131.213 102.674 131.785V69.6243C102.674 68.0516 103.299 66.5433 104.411 65.4313C105.523 64.3192 107.031 63.6945 108.604 63.6945L168.95 63.6895Z" fill="white"/>
<path d="M115.546 134.161L154.995 148.171C155.901 148.491 156.871 148.59 157.824 148.458C158.776 148.327 159.683 147.969 160.468 147.415C161.254 146.86 161.895 146.126 162.338 145.273C162.781 144.42 163.013 143.473 163.015 142.512V134.161H115.546Z" fill="#00977C"/>
<path opacity="0.6" d="M115.546 134.161L154.995 148.171C155.901 148.491 156.871 148.59 157.824 148.458C158.776 148.327 159.683 147.969 160.468 147.415C161.254 146.86 161.895 146.126 162.338 145.273C162.781 144.42 163.013 143.473 163.015 142.512V134.161H115.546Z" fill="white"/>
<path d="M115.546 143.76L154.995 157.795C155.902 158.116 156.872 158.214 157.825 158.082C158.778 157.951 159.685 157.592 160.47 157.037C161.256 156.483 161.897 155.748 162.34 154.894C162.782 154.04 163.014 153.093 163.015 152.131V143.76H115.546Z" fill="#00977C"/>
<path d="M168.95 63.6895C168.171 63.6888 167.399 63.8419 166.679 64.14C165.959 64.4381 165.305 64.8753 164.754 65.4266C164.203 65.9779 163.766 66.6324 163.469 67.3527C163.171 68.0731 163.019 68.845 163.02 69.6243V142.512C163.018 143.473 162.786 144.42 162.343 145.273C161.9 146.126 161.259 146.86 160.473 147.415C159.688 147.969 158.781 148.327 157.829 148.458C156.876 148.59 155.907 148.491 155 148.171L110.023 132.196C107.663 131.356 105.112 131.213 102.674 131.785V69.6243C102.674 68.0516 103.299 66.5433 104.411 65.4313C105.523 64.3192 107.031 63.6945 108.604 63.6945L168.95 63.6895Z" stroke="#263238" stroke-linecap="round" stroke-linejoin="round"/>
<path d="M105.226 131.429H102.669" stroke="#263238" stroke-linecap="round" stroke-linejoin="round"/>
<path d="M157.015 148.527H96.6642C95.9804 148.524 95.3022 148.404 94.6591 148.171L84.238 144.507L97.1955 134.532C98.9449 133.057 101.05 132.066 103.301 131.656C105.552 131.246 107.871 131.433 110.028 132.196L155.005 148.171C155.65 148.404 156.33 148.524 157.015 148.527Z" fill="white"/>
<path d="M157.015 148.527H96.664C95.9803 148.524 95.3021 148.404 94.659 148.171L83.5913 144.311L97.1854 134.532C98.9348 133.057 101.04 132.066 103.291 131.656C105.542 131.246 107.861 131.433 110.017 132.196L154.995 148.171C155.643 148.405 156.326 148.526 157.015 148.527Z" fill="#00977C"/>
<path opacity="0.2" d="M157.015 148.527H96.664C95.9803 148.524 95.3021 148.404 94.659 148.171L83.5913 144.311L97.1854 134.532C98.9348 133.057 101.04 132.066 103.291 131.656C105.542 131.246 107.861 131.433 110.017 132.196L154.995 148.171C155.643 148.405 156.326 148.526 157.015 148.527Z" fill="black"/>
<path d="M157.015 148.527H96.6642C95.9804 148.524 95.3022 148.404 94.6591 148.171L84.238 144.507L97.1955 134.532C98.9449 133.057 101.05 132.066 103.301 131.656C105.552 131.246 107.871 131.433 110.028 132.196L155.005 148.171C155.65 148.404 156.33 148.524 157.015 148.527V148.527Z" stroke="#263238" stroke-linecap="round" stroke-linejoin="round"/>
<path d="M96.6641 148.527H96.5338" stroke="#263238" stroke-linecap="round" stroke-linejoin="round"/>
<path d="M157.131 148.527H157.015" stroke="#263238" stroke-linecap="round" stroke-linejoin="round"/>
<path d="M173.141 65.4288C172.592 64.876 171.939 64.4376 171.22 64.1391C170.5 63.8405 169.729 63.6877 168.95 63.6895C162.775 63.6895 163.02 69.6193 163.02 69.6193V80.7773H174.88V69.6243C174.882 68.8447 174.729 68.0725 174.431 67.3523C174.132 66.6322 173.694 65.9784 173.141 65.4288Z" fill="white"/>
<path d="M173.141 65.4288C172.592 64.876 171.939 64.4376 171.22 64.1391C170.5 63.8405 169.729 63.6877 168.95 63.6895C162.775 63.6895 163.02 69.6193 163.02 69.6193V80.7773H174.88V69.6243C174.882 68.8447 174.729 68.0725 174.431 67.3523C174.132 66.6322 173.694 65.9784 173.141 65.4288Z" fill="#00977C"/>
<path opacity="0.2" d="M173.141 65.4288C172.592 64.876 171.939 64.4376 171.22 64.1391C170.5 63.8405 169.729 63.6877 168.95 63.6895C162.775 63.6895 163.02 69.6193 163.02 69.6193V80.7773H174.88V69.6243C174.882 68.8447 174.729 68.0725 174.431 67.3523C174.132 66.6322 173.694 65.9784 173.141 65.4288Z" fill="black"/>
<path d="M173.141 65.4288C172.592 64.876 171.939 64.4376 171.22 64.1391C170.5 63.8405 169.729 63.6877 168.95 63.6895C162.775 63.6895 163.02 69.6193 163.02 69.6193V80.7773H174.88V69.6243C174.882 68.8447 174.729 68.0725 174.431 67.3523C174.132 66.6322 173.694 65.9784 173.141 65.4288V65.4288Z" stroke="#263238" stroke-linecap="round" stroke-linejoin="round"/>
<g opacity="0.15">
<path d="M108.208 73.905V74.0103V76.5416V76.6469V79.1782V79.2835V81.8098V81.9151V84.4464V84.5517V87.083V87.1883V89.7146V89.8199V92.3512V92.4565V94.9878V95.0931V97.6194V97.7247V100.256V100.361V102.998H113.937V100.361V100.256V97.7247V97.6194V95.0931V94.9878V92.4565V92.3512V89.8199V89.7146V87.1883V87.083V84.5517V84.4464V81.9151V81.8098V79.2835V79.1782V76.6469V76.5416V74.0103V73.905V71.2734H108.208V73.905Z" fill="black"/>
<path d="M153.381 71.2734H153.261H147.777H147.652H142.168H142.043H136.564H136.439H130.955H130.83H125.351H125.226H119.742H119.617H114.013V74.0103H119.617H119.742H125.226H125.351H130.83H130.955H136.439H136.564H142.043H142.168H147.652H147.777H153.261H153.381H158.99V71.2734H153.381Z" fill="black"/>
</g>
<path d="M113.937 71.2734H108.208V74.0153H113.937V71.2734Z" stroke="#263238" stroke-width="0.25" stroke-linecap="round" stroke-linejoin="round"/>
<path d="M113.937 73.905H108.208V76.6469H113.937V73.905Z" stroke="#263238" stroke-width="0.25" stroke-linecap="round" stroke-linejoin="round"/>
<path d="M113.937 76.5417H108.208V79.2836H113.937V76.5417Z" stroke="#263238" stroke-width="0.25" stroke-linecap="round" stroke-linejoin="round"/>
<path d="M113.937 79.1782H108.208V81.9201H113.937V79.1782Z" stroke="#263238" stroke-width="0.25" stroke-linecap="round" stroke-linejoin="round"/>
<path d="M113.937 81.8098H108.208V84.5517H113.937V81.8098Z" stroke="#263238" stroke-width="0.25" stroke-linecap="round" stroke-linejoin="round"/>
<path d="M113.937 84.4465H108.208V87.1884H113.937V84.4465Z" stroke="#263238" stroke-width="0.25" stroke-linecap="round" stroke-linejoin="round"/>
<path d="M113.937 87.083H108.208V89.8249H113.937V87.083Z" stroke="#263238" stroke-width="0.25" stroke-linecap="round" stroke-linejoin="round"/>
<path d="M113.937 89.7146H108.208V92.4565H113.937V89.7146Z" stroke="#263238" stroke-width="0.25" stroke-linecap="round" stroke-linejoin="round"/>
<path d="M113.937 92.3513H108.208V95.0932H113.937V92.3513Z" stroke="#263238" stroke-width="0.25" stroke-linecap="round" stroke-linejoin="round"/>
<path d="M113.937 94.9878H108.208V97.7297H113.937V94.9878Z" stroke="#263238" stroke-width="0.25" stroke-linecap="round" stroke-linejoin="round"/>
<path d="M113.937 97.6194H108.208V100.361H113.937V97.6194Z" stroke="#263238" stroke-width="0.25" stroke-linecap="round" stroke-linejoin="round"/>
<path d="M113.937 100.256H108.208V102.998H113.937V100.256Z" stroke="#263238" stroke-width="0.25" stroke-linecap="round" stroke-linejoin="round"/>
<path d="M119.742 71.2734H114.013V74.0153H119.742V71.2734Z" stroke="#263238" stroke-width="0.25" stroke-linecap="round" stroke-linejoin="round"/>
<path d="M125.346 71.2734H119.617V74.0153H125.346V71.2734Z" stroke="#263238" stroke-width="0.25" stroke-linecap="round" stroke-linejoin="round"/>
<path d="M130.955 71.2734H125.226V74.0153H130.955V71.2734Z" stroke="#263238" stroke-width="0.25" stroke-linecap="round" stroke-linejoin="round"/>
<path d="M136.559 71.2734H130.83V74.0153H136.559V71.2734Z" stroke="#263238" stroke-width="0.25" stroke-linecap="round" stroke-linejoin="round"/>
<path d="M142.168 71.2734H136.439V74.0153H142.168V71.2734Z" stroke="#263238" stroke-width="0.25" stroke-linecap="round" stroke-linejoin="round"/>
<path d="M147.772 71.2734H142.043V74.0153H147.772V71.2734Z" stroke="#263238" stroke-width="0.25" stroke-linecap="round" stroke-linejoin="round"/>
<path d="M153.381 71.2734H147.652V74.0153H153.381V71.2734Z" stroke="#263238" stroke-width="0.25" stroke-linecap="round" stroke-linejoin="round"/>
<path d="M158.99 71.2734H153.261V74.0153H158.99V71.2734Z" stroke="#263238" stroke-width="0.25" stroke-linecap="round" stroke-linejoin="round"/>
<path d="M158.985 74.0103H113.937V102.993H158.985V74.0103Z" stroke="#263238" stroke-width="0.25" stroke-linecap="round" stroke-linejoin="round"/>
<path d="M119.667 74.0103V102.988" stroke="#263238" stroke-width="0.25" stroke-linecap="round" stroke-linejoin="round"/>
<path d="M125.276 74.0103V102.988" stroke="#263238" stroke-width="0.25" stroke-linecap="round" stroke-linejoin="round"/>
<path d="M130.885 74.0103V102.988" stroke="#263238" stroke-width="0.25" stroke-linecap="round" stroke-linejoin="round"/>
<path d="M136.494 74.0103V102.988" stroke="#263238" stroke-width="0.25" stroke-linecap="round" stroke-linejoin="round"/>
<path d="M142.098 74.0103V102.988" stroke="#263238" stroke-width="0.25" stroke-linecap="round" stroke-linejoin="round"/>
<path d="M147.707 74.0103V102.988" stroke="#263238" stroke-width="0.25" stroke-linecap="round" stroke-linejoin="round"/>
<path d="M153.316 74.0103V102.988" stroke="#263238" stroke-width="0.25" stroke-linecap="round" stroke-linejoin="round"/>
<path d="M113.937 76.647H158.955" stroke="#263238" stroke-width="0.25" stroke-linecap="round" stroke-linejoin="round"/>
<path d="M113.937 79.2734H158.955" stroke="#263238" stroke-width="0.25" stroke-linecap="round" stroke-linejoin="round"/>
<path d="M113.937 81.9001H158.955" stroke="#263238" stroke-width="0.25" stroke-linecap="round" stroke-linejoin="round"/>
<path d="M113.937 84.5266H158.955" stroke="#263238" stroke-width="0.25" stroke-linecap="round" stroke-linejoin="round"/>
<path d="M113.937 87.1533H158.955" stroke="#263238" stroke-width="0.25" stroke-linecap="round" stroke-linejoin="round"/>
<path d="M113.937 89.7749H158.955" stroke="#263238" stroke-width="0.25" stroke-linecap="round" stroke-linejoin="round"/>
<path d="M113.937 92.4014H158.955" stroke="#263238" stroke-width="0.25" stroke-linecap="round" stroke-linejoin="round"/>
<path d="M113.937 95.0278H158.955" stroke="#263238" stroke-width="0.25" stroke-linecap="round" stroke-linejoin="round"/>
<path d="M113.937 97.6545H158.955" stroke="#263238" stroke-width="0.25" stroke-linecap="round" stroke-linejoin="round"/>
<path d="M113.937 100.281H158.955" stroke="#263238" stroke-width="0.25" stroke-linecap="round" stroke-linejoin="round"/>
<path d="M85.2205 138.487H36.9246L40.2579 135.956H88.5539L85.2205 138.487Z" fill="#00977C"/>
<path d="M11.3655 158.808H10.1825L40.2578 135.956H41.4458L11.3655 158.808Z" fill="#00977C"/>
<path d="M74.5788 146.557H26.2878L30.0623 143.73H78.3532L74.5788 146.557Z" fill="#263238"/>
<path d="M58.3231 158.923H10.0271L40.2578 135.956H88.5538L58.3231 158.923Z" stroke="#263238" stroke-width="0.25" stroke-linecap="round" stroke-linejoin="round"/>
<path d="M45.2353 136.041L15.1349 158.908" stroke="#263238" stroke-width="0.25" stroke-linecap="round" stroke-linejoin="round"/>
<path d="M50.0874 136.041L19.9871 158.908" stroke="#263238" stroke-width="0.25" stroke-linecap="round" stroke-linejoin="round"/>
<path d="M54.9346 136.041L24.8342 158.908" stroke="#263238" stroke-width="0.25" stroke-linecap="round" stroke-linejoin="round"/>
<path d="M59.7868 136.041L29.6864 158.908" stroke="#263238" stroke-width="0.25" stroke-linecap="round" stroke-linejoin="round"/>
<path d="M64.639 136.041L34.5386 158.908" stroke="#263238" stroke-width="0.25" stroke-linecap="round" stroke-linejoin="round"/>
<path d="M69.491 136.041L39.3856 158.908" stroke="#263238" stroke-width="0.25" stroke-linecap="round" stroke-linejoin="round"/>
<path d="M74.3382 136.041L44.2378 158.908" stroke="#263238" stroke-width="0.25" stroke-linecap="round" stroke-linejoin="round"/>
<path d="M79.1903 136.041L49.09 158.908" stroke="#263238" stroke-width="0.25" stroke-linecap="round" stroke-linejoin="round"/>
<path d="M84.0425 136.041L53.9371 158.908" stroke="#263238" stroke-width="0.25" stroke-linecap="round" stroke-linejoin="round"/>
<path d="M33.967 140.798H82.1176" stroke="#263238" stroke-width="0.25" stroke-linecap="round" stroke-linejoin="round"/>
<path d="M30.1224 143.72H78.273" stroke="#263238" stroke-width="0.25" stroke-linecap="round" stroke-linejoin="round"/>
<path d="M26.2778 146.642H74.4284" stroke="#263238" stroke-width="0.25" stroke-linecap="round" stroke-linejoin="round"/>
<path d="M22.4332 149.56H70.5838" stroke="#263238" stroke-width="0.25" stroke-linecap="round" stroke-linejoin="round"/>
<path d="M18.5886 152.482H66.7392" stroke="#263238" stroke-width="0.25" stroke-linecap="round" stroke-linejoin="round"/>
<path d="M14.7439 155.404H62.8945" stroke="#263238" stroke-width="0.25" stroke-linecap="round" stroke-linejoin="round"/>
<path d="M159.065 105.208H108.163V107.078H159.065V105.208Z" fill="#00977C"/>
<path d="M109.411 105.208H108.163V129.289H109.411V105.208Z" fill="#00977C"/>
<path d="M159.065 105.208H108.163V129.414H159.065V105.208Z" stroke="#263238" stroke-width="0.25" stroke-linecap="round" stroke-linejoin="round"/>
<path d="M113.526 105.299V129.399" stroke="#263238" stroke-width="0.25" stroke-linecap="round" stroke-linejoin="round"/>
<path d="M118.639 105.299V129.399" stroke="#263238" stroke-width="0.25" stroke-linecap="round" stroke-linejoin="round"/>
<path d="M123.752 105.299V129.399" stroke="#263238" stroke-width="0.25" stroke-linecap="round" stroke-linejoin="round"/>
<path d="M128.865 105.299V129.399" stroke="#263238" stroke-width="0.25" stroke-linecap="round" stroke-linejoin="round"/>
<path d="M133.978 105.299V129.399" stroke="#263238" stroke-width="0.25" stroke-linecap="round" stroke-linejoin="round"/>
<path d="M139.09 105.299V129.399" stroke="#263238" stroke-width="0.25" stroke-linecap="round" stroke-linejoin="round"/>
<path d="M144.203 105.299V129.399" stroke="#263238" stroke-width="0.25" stroke-linecap="round" stroke-linejoin="round"/>
<path d="M149.311 105.299V129.399" stroke="#263238" stroke-width="0.25" stroke-linecap="round" stroke-linejoin="round"/>
<path d="M154.424 105.299V129.399" stroke="#263238" stroke-width="0.25" stroke-linecap="round" stroke-linejoin="round"/>
<path d="M108.248 110.311H159" stroke="#263238" stroke-width="0.25" stroke-linecap="round" stroke-linejoin="round"/>
<path d="M108.248 113.394H159" stroke="#263238" stroke-width="0.25" stroke-linecap="round" stroke-linejoin="round"/>
<path d="M108.248 116.472H159" stroke="#263238" stroke-width="0.25" stroke-linecap="round" stroke-linejoin="round"/>
<path d="M108.248 119.549H159" stroke="#263238" stroke-width="0.25" stroke-linecap="round" stroke-linejoin="round"/>
<path d="M108.248 122.627H159" stroke="#263238" stroke-width="0.25" stroke-linecap="round" stroke-linejoin="round"/>
<path d="M108.248 125.705H159" stroke="#263238" stroke-width="0.25" stroke-linecap="round" stroke-linejoin="round"/>
<path d="M142.213 120.657H140.093V125.61H142.213V120.657Z" fill="#263238" stroke="#263238" stroke-width="0.5" stroke-miterlimit="10"/>
<path d="M145.612 117.69H143.491V125.615H145.612V117.69Z" fill="#00977C" stroke="#263238" stroke-width="0.5" stroke-miterlimit="10"/>
<path d="M149.005 112.737H146.885V125.615H149.005V112.737Z" fill="#263238" stroke="#263238" stroke-width="0.5" stroke-miterlimit="10"/>
<path d="M152.404 117.544H150.283V125.61H152.404V117.544Z" fill="#00977C" stroke="#263238" stroke-width="0.5" stroke-miterlimit="10"/>
<path d="M155.797 112.737H153.677V125.615H155.797V112.737Z" fill="#263238" stroke="#263238" stroke-width="0.5" stroke-miterlimit="10"/>
<path d="M120.384 119.66V125.544C118.823 125.544 117.326 124.924 116.222 123.821C115.119 122.717 114.499 121.22 114.499 119.66C114.499 118.099 115.119 116.602 116.222 115.499C117.326 114.395 118.823 113.775 120.384 113.775V119.66Z" fill="#00977C" stroke="#263238" stroke-width="0.5" stroke-miterlimit="10"/>
<path d="M120.384 119.66L125.978 117.84C126.218 118.575 126.312 119.351 126.252 120.122C126.193 120.894 125.982 121.646 125.631 122.335C125.281 123.025 124.797 123.639 124.209 124.141C123.621 124.644 122.939 125.025 122.203 125.264C121.617 125.46 121.002 125.558 120.384 125.554V119.66Z" fill="white" stroke="#263238" stroke-width="0.5" stroke-miterlimit="10"/>
<path d="M120.384 119.66V113.775C121.629 113.76 122.846 114.148 123.854 114.88C124.862 115.613 125.607 116.651 125.978 117.84L120.384 119.66Z" fill="#263238" stroke="#263238" stroke-width="0.5" stroke-miterlimit="10"/>
</svg>
