<svg width="6" height="10" viewBox="0 0 6 10" fill="none" xmlns="http://www.w3.org/2000/svg">
<path d="M5.32374 3.75H0.676264C0.48872 3.75 0.3538 3.65189 0.290661 3.53126C0.228641 3.41276 0.232636 3.26997 0.336343 3.1474L2.66008 0.401039C2.83048 0.199654 3.16953 0.199654 3.33992 0.401039L5.66366 3.1474C5.76736 3.26997 5.77136 3.41276 5.70934 3.53126C5.6462 3.65189 5.51128 3.75 5.32374 3.75ZM0.676263 6.25L5.32374 6.25C5.51128 6.25 5.6462 6.34811 5.70934 6.46874C5.77136 6.58724 5.76736 6.73003 5.66366 6.8526L3.33992 9.59896C3.16953 9.80035 2.83047 9.80035 2.66008 9.59896L0.336343 6.8526C0.232636 6.73003 0.22864 6.58724 0.290661 6.46874C0.353799 6.34811 0.488719 6.25 0.676263 6.25Z" stroke="#888C92" stroke-width="0.5"/>
</svg>
