<svg xmlns="http://www.w3.org/2000/svg" width="42.857" height="35" viewBox="0 0 42.857 35">
  <g id="folder_1_" data-name="folder (1)" transform="translate(0 -5.5)">
    <path id="Path_8395" data-name="Path 8395" d="M10.571,23.5a.4.4,0,0,0-.389.3L2,44.214v.714c0,.524-.034.714.4.714H34.374a1.813,1.813,0,0,0,1.75-1.295l7.3-20.133V23.5Z" transform="translate(-0.571 -5.143)" fill="#feae00"/>
    <path id="Path_8396" data-name="Path 8396" d="M9.094,16.929H38.571V12.451A1.954,1.954,0,0,0,36.62,10.5H18.939l-3.571-5H1.951A1.954,1.954,0,0,0,0,7.451V37.306L7.344,18.222A1.812,1.812,0,0,1,9.094,16.929Z" fill="#feae00"/>
  </g>
</svg>
