<svg width="135" height="135" viewBox="0 0 135 135" fill="none" xmlns="http://www.w3.org/2000/svg">
<path d="M99.9 60.75C100.575 58.725 101.25 56.7 101.25 54C101.25 39.15 89.1 27 74.25 27C64.125 27 54.675 33.075 50.625 41.85C48.6 41.175 45.9 40.5 43.875 40.5C34.425 40.5 27 47.925 27 57.375C27 58.725 27 60.075 27.675 60.75C15.525 62.775 6.75 72.225 6.75 84.375C6.75 97.2 17.55 108 30.375 108H54V87.75H33.75L64.125 57.375L94.5 87.75H74.25V108H97.875C110.7 108 121.5 97.2 121.5 84.375C121.5 72.225 112.05 62.1 99.9 60.75Z" fill="#00DFBA"/>
</svg>
