<svg width="175" height="175" viewBox="0 0 175 175" fill="none" xmlns="http://www.w3.org/2000/svg">
<path d="M145.833 29.167H43.7498C35.7071 29.167 29.1665 35.7076 29.1665 43.7503V80.2087H43.7498V58.3337L90.4165 93.3337C91.6791 94.2792 93.2141 94.7902 94.7915 94.7902C96.3689 94.7902 97.9039 94.2792 99.1665 93.3337L145.833 58.3337V123.959H87.4998V138.542H145.833C153.876 138.542 160.417 132.001 160.417 123.959V43.7503C160.417 35.7076 153.876 29.167 145.833 29.167ZM94.7915 78.3857L48.6061 43.7503H140.977L94.7915 78.3857Z" fill="#212244"/>
<path d="M14.5835 87.5H65.6252V102.083H14.5835V87.5ZM29.1668 109.375H72.9168V123.958H29.1668V109.375ZM51.0418 131.25H80.2085V145.833H51.0418V131.25Z" fill="#212244"/>
</svg>
