<svg xmlns="http://www.w3.org/2000/svg" width="64.291" height="60.648" viewBox="0 0 64.291 60.648">
  <g id="noun_chart_1983658" transform="translate(-72.898 -85.037)">
    <path id="Path_9951" data-name="Path 9951" d="M118.913,119.2a3.631,3.631,0,0,1-1.782-.468l-27.5-13.964a3.574,3.574,0,0,1,.052-6.28l27.586-13.051a3.554,3.554,0,0,1,3.311.022l27.5,13.006a3.566,3.566,0,0,1,.134,6.273l-.045.022-27.542,13.986a3.442,3.442,0,0,1-1.715.453Zm-.022-32.129a1.514,1.514,0,0,0-.713.178L90.6,100.3a1.548,1.548,0,0,0,0,2.687l27.5,13.956a1.553,1.553,0,0,0,1.574.022l27.556-13.993a1.548,1.548,0,0,0-.059-2.695l-27.5-13.006A1.669,1.669,0,0,0,118.891,87.068Zm28.826,16.792h0Z" transform="translate(-13.788)" fill="#222"/>
    <path id="Path_9952" data-name="Path 9952" d="M105.14,568.691a4.643,4.643,0,0,1-2.3-.609L75.3,554.089a4.583,4.583,0,0,1-.045-8.032l6.882-3.838a2.03,2.03,0,0,1,1.975,3.548l-6.882,3.838a.526.526,0,0,0-.275.46.5.5,0,0,0,.267.46l27.549,13.994a.574.574,0,0,0,.609.044l27.579-14.008a.469.469,0,0,0,.178-.423.512.512,0,0,0-.282-.46l-6.971-3.623a2.027,2.027,0,0,1,1.863-3.6l6.971,3.623a4.589,4.589,0,0,1,.163,8.055L107.3,568.135a4.336,4.336,0,0,1-2.16.557Z" transform="translate(0 -423.006)" fill="#222"/>
    <path id="Path_9953" data-name="Path 9953" d="M112.626,308.027a4.1,4.1,0,0,1-2.041-.542L83.11,293.536a4.082,4.082,0,0,1,.045-7.179L89.472,283A1.521,1.521,0,0,1,90.9,285.69l-6.317,3.355a1,1,0,0,0-.549.9,1.024,1.024,0,0,0,.52.913l27.475,13.949a1.087,1.087,0,0,0,1.091.037l27.608-14.023a1.041,1.041,0,0,0-.089-1.782l-6.429-3.422a1.521,1.521,0,0,1,1.425-2.687l6.429,3.422a4.078,4.078,0,0,1,.1,7.142l-27.6,14.031a3.889,3.889,0,0,1-1.938.5Zm4.514-25.456a3.553,3.553,0,0,1-2.39-.928l-5.62-5.278a2.288,2.288,0,0,0-1.641-.6l-10.3,1.856-.178-.995,10.363-1.863a3.326,3.326,0,0,1,2.442.869l5.627,5.278a2.522,2.522,0,0,0,2.509.534l7.52-3.081.386.935-7.55,3.088A3.793,3.793,0,0,1,117.14,282.572Z" transform="translate(-7.493 -175.638)" fill="#222"/>
    <path id="Path_9954" data-name="Path 9954" d="M271.186,282.719a1.834,1.834,0,1,0-1.28-2.255A1.834,1.834,0,0,0,271.186,282.719Z" transform="translate(-182.32 -179.672)" fill="#222"/>
    <path id="Path_9955" data-name="Path 9955" d="M432.022,261.025a1.834,1.834,0,1,0-1.5-2.119A1.834,1.834,0,0,0,432.022,261.025Z" transform="translate(-331.054 -159.553)" fill="#222"/>
    <path id="Path_9956" data-name="Path 9956" d="M538.184,347.081a1.834,1.834,0,1,0-1.5-2.119A1.834,1.834,0,0,0,538.184,347.081Z" transform="translate(-429.335 -239.221)" fill="#222"/>
    <path id="Path_9957" data-name="Path 9957" d="M682.124,299.863a1.834,1.834,0,1,0-1.5-2.119A1.834,1.834,0,0,0,682.124,299.863Z" transform="translate(-562.589 -195.508)" fill="#222"/>
  </g>
</svg>
