<svg width="16" height="16" viewBox="0 0 16 16" fill="none" xmlns="http://www.w3.org/2000/svg">
<path d="M5.125 7.5H7.5V5.125C7.5 5.05625 7.55625 5 7.625 5H8.375C8.44375 5 8.5 5.05625 8.5 5.125V7.5H10.875C10.9438 7.5 11 7.55625 11 7.625V8.375C11 8.44375 10.9438 8.5 10.875 8.5H8.5V10.875C8.5 10.9437 8.44375 11 8.375 11H7.625C7.55625 11 7.5 10.9437 7.5 10.875V8.5H5.125C5.05625 8.5 5 8.44375 5 8.375V7.625C5 7.55625 5.05625 7.5 5.125 7.5Z" fill="#271E3E"/>
<path d="M8 1C11.8656 1 15 4.13438 15 8C15 11.8656 11.8656 15 8 15C4.13437 15 1 11.8656 1 8C1 4.13438 4.13437 1 8 1ZM8 13.8125C11.2094 13.8125 13.8125 11.2094 13.8125 8C13.8125 4.79063 11.2094 2.1875 8 2.1875C4.79062 2.1875 2.1875 4.79063 2.1875 8C2.1875 11.2094 4.79062 13.8125 8 13.8125Z" fill="#271E3E"/>
</svg>
