<svg width="29" height="26" viewBox="0 0 29 26" fill="none" xmlns="http://www.w3.org/2000/svg">
<path d="M14.4579 0C17.0117 0 19.5081 0.757276 21.6314 2.17606C23.7548 3.59485 25.4097 5.61143 26.387 7.97079C27.3643 10.3302 27.62 12.9263 27.1218 15.431C26.6236 17.9357 25.3938 20.2364 23.5881 22.0422C21.7823 23.8479 19.4816 25.0777 16.9769 25.5759C14.4722 26.0741 11.876 25.8184 9.51669 24.8411C7.15733 23.8639 5.14075 22.2089 3.72196 20.0855C2.30317 17.9622 1.5459 15.4658 1.5459 12.912C1.5459 9.48752 2.90627 6.20331 5.32774 3.78184C7.74921 1.36037 11.0334 0 14.4579 0V0Z" fill="white"/>
<path d="M9.32313 17.0824C9.92556 17.9044 10.6883 18.5958 11.5652 19.115C11.7384 19.2145 11.9381 19.2578 12.1369 19.239H20.804C20.88 19.2393 20.9541 19.2154 21.0156 19.1708C21.0772 19.1262 21.1229 19.0632 21.1463 18.991C21.1922 18.8446 18.8124 16.4921 19.3754 10.9464C19.4187 10.7181 19.3828 10.4819 19.2738 10.2767C18.9389 9.69015 17.9679 7.91308 17.9679 7.91308C17.9062 7.80058 17.8154 7.70671 17.705 7.64127C17.5947 7.57583 17.4687 7.54121 17.3404 7.54105H15.9329V3.99062C15.9329 3.26392 15.5906 2.37848 13.7788 2.37848C11.9274 2.37848 11.621 3.18827 11.621 3.99062V7.54477H9.49178C9.30135 7.54477 9.11872 7.62042 8.98406 7.75507C8.84941 7.88973 8.77376 8.07236 8.77376 8.26279V11.2403L10.1838 13.4402C10.4243 13.7276 10.563 14.0864 10.5781 14.4608C10.4776 15.2303 10.5526 16.0125 10.7976 16.7488C10.8857 17.1296 10.5843 17.2139 10.3363 16.8555C10.0768 16.489 9.87285 16.0862 9.73112 15.66C9.64335 15.1004 9.65722 14.5295 9.77205 13.9747C9.8125 13.8217 9.82126 13.662 9.79781 13.5055C9.77435 13.349 9.71917 13.1989 9.63564 13.0645C9.42358 12.7259 8.775 11.7214 8.775 11.7214C8.775 11.7214 7.85236 14.725 8.28764 15.696C8.59321 16.1864 8.9396 16.6502 9.32313 17.0824ZM18.1998 14.8366C18.2461 15.3536 18.3289 15.8666 18.4478 16.3719C18.7366 16.9378 19.0648 17.4827 19.43 18.0026C19.4613 18.0575 19.4771 18.1199 19.4758 18.1831C19.4745 18.2463 19.456 18.308 19.4225 18.3616C19.3889 18.4151 19.3414 18.4586 19.2851 18.4873C19.2287 18.516 19.1657 18.5289 19.1026 18.5247C18.7639 18.5006 18.4477 18.3459 18.2209 18.0931C17.6105 17.296 17.2637 16.3285 17.2288 15.3252C17.2251 15.2802 17.2046 15.2383 17.1714 15.2078C17.1382 15.1773 17.0947 15.1603 17.0496 15.1603C17.0045 15.1603 16.9611 15.1773 16.9279 15.2078C16.8947 15.2383 16.8742 15.2802 16.8704 15.3252C16.9148 16.3048 17.2266 17.2534 17.772 18.0683C17.9493 18.3163 17.8476 18.5247 17.545 18.5247C17.3772 18.5149 17.2137 18.4673 17.0669 18.3855C16.92 18.3037 16.7935 18.1898 16.6968 18.0522C16.3034 17.3459 16.0697 16.5619 16.0123 15.7555C16.0048 15.711 15.9809 15.671 15.9453 15.6433C15.9097 15.6156 15.8649 15.6023 15.82 15.6061C15.7751 15.6098 15.7332 15.6303 15.7026 15.6635C15.6721 15.6967 15.6551 15.7402 15.6551 15.7853C15.7234 16.5686 15.9392 17.3318 16.2913 18.0348C16.4389 18.3039 16.3397 18.5309 16.0706 18.5309C15.9152 18.5162 15.7659 18.4632 15.636 18.3766C15.5062 18.29 15.3998 18.1726 15.3265 18.0348C15.1126 17.5291 14.9743 16.9947 14.916 16.4487C14.9082 16.4025 14.8827 16.361 14.8448 16.3333C14.8069 16.3056 14.7597 16.2939 14.7132 16.3005C14.6668 16.3071 14.6248 16.3317 14.5962 16.3689C14.5675 16.4061 14.5546 16.453 14.5601 16.4996C14.6245 17.0207 14.7532 17.5318 14.9433 18.0212C14.9768 18.0757 14.9942 18.1385 14.9933 18.2025C14.9925 18.2665 14.9734 18.3289 14.9385 18.3824C14.9035 18.436 14.854 18.4785 14.7958 18.505C14.7376 18.5315 14.6731 18.5409 14.6097 18.5321H13.3374C13.1415 18.5213 12.9518 18.4599 12.7868 18.3538C12.6219 18.2477 12.4872 18.1006 12.3961 17.9269C12.1402 17.388 11.9367 16.8257 11.7885 16.2478C11.6893 15.8969 11.218 14.286 12.1481 14.286H17.6108C17.76 14.2877 17.9031 14.3451 18.0121 14.447C18.1211 14.5489 18.1881 14.6879 18.1998 14.8366ZM13.7912 2.74927C14.6593 2.74927 15.3637 3.04442 15.3637 3.40901C15.3637 3.7736 14.6593 4.06875 13.7912 4.06875C12.9232 4.06875 12.2188 3.7736 12.2188 3.40901C12.2188 3.04442 12.9219 2.74927 13.7912 2.74927ZM11.0345 10.366L10.3375 9.28092C10.2793 9.19039 10.3202 9.11598 10.4281 9.11598H11.5442C11.6031 9.11931 11.6604 9.13627 11.7116 9.16554C11.7628 9.19481 11.8065 9.23558 11.8393 9.28464C11.8393 9.28464 12.2808 10.0287 13.7751 10.0287C14.1341 10.0728 14.4983 10.0274 14.8355 9.89645C15.1726 9.76554 15.4721 9.55322 15.7072 9.27844C15.7412 9.22989 15.7857 9.1897 15.8375 9.16091C15.8893 9.13212 15.9469 9.11549 16.0061 9.11226H16.796C16.8544 9.11595 16.9112 9.13337 16.9616 9.1631C17.012 9.19284 17.0547 9.23405 17.0862 9.2834L17.679 10.3586C17.6929 10.3752 17.7013 10.3958 17.7031 10.4174C17.7049 10.4391 17.7 10.4608 17.689 10.4795C17.678 10.4982 17.6615 10.5131 17.6417 10.5221C17.6219 10.5311 17.5999 10.5337 17.5785 10.5297H11.3296C11.2714 10.5253 11.2148 10.5083 11.1639 10.4798C11.1129 10.4513 11.0687 10.4121 11.0345 10.3648V10.366ZM5.15265 15.9304C5.1406 16.5013 4.90237 17.044 4.49031 17.4393C4.07825 17.8347 3.52608 18.0502 2.95518 18.0386C2.61164 18.0396 2.27237 17.9624 1.96309 17.8129C1.76198 17.9284 1.53406 17.9891 1.30211 17.989C0.963308 17.9949 0.635962 17.8663 0.391863 17.6313C0.147765 17.3962 0.00684258 17.074 0 16.7352C0.00269858 16.4865 0.0792277 16.2442 0.219874 16.0391C0.36052 15.834 0.558941 15.6753 0.789949 15.5831C0.885551 15.0582 1.17895 14.5899 1.60966 14.2748C1.63009 13.8388 1.81768 13.4274 2.13347 13.1261C2.44927 12.8247 2.869 12.6566 3.30551 12.6566C3.74201 12.6566 4.16174 12.8247 4.47754 13.1261C4.79333 13.4274 4.98092 13.8388 5.00135 14.2748C5.00091 14.4938 4.95399 14.7102 4.8637 14.9098C5.04961 15.2175 5.1494 15.5696 5.15265 15.9291V15.9304ZM28.4605 17.4532C28.4967 17.6801 28.4626 17.9127 28.3625 18.1196C28.2625 18.3265 28.1015 18.4977 27.9011 18.6102C27.7008 18.7227 27.4707 18.7711 27.242 18.7488C27.0133 18.7265 26.797 18.6346 26.6221 18.4856C26.4472 18.3365 26.3223 18.1374 26.2641 17.9151C26.2059 17.6928 26.2173 17.458 26.2967 17.2424C26.3761 17.0267 26.5197 16.8406 26.7081 16.7091C26.8966 16.5777 27.1208 16.5071 27.3506 16.507C27.6228 16.4874 27.8917 16.5757 28.0994 16.7527C28.3071 16.9298 28.4367 17.1814 28.4605 17.4532ZM26.4961 15.7654C26.2934 15.7658 26.0967 15.6961 25.9393 15.5683C25.7012 15.6971 25.4349 15.7648 25.1643 15.7654C24.8315 15.764 24.5069 15.6626 24.2325 15.4744C23.9581 15.2862 23.7465 15.02 23.6253 14.7101C23.392 14.7318 23.157 14.6922 22.9437 14.5952C22.7304 14.4982 22.5461 14.3472 22.4091 14.1571C22.2721 13.967 22.1871 13.7444 22.1626 13.5113C22.138 13.2783 22.1748 13.0429 22.2691 12.8284C22.3635 12.6139 22.5123 12.4278 22.7007 12.2885C22.8891 12.1492 23.1107 12.0615 23.3434 12.0341C23.5761 12.0067 23.812 12.0406 24.0276 12.1323C24.2432 12.2241 24.4311 12.3706 24.5727 12.5573C24.8202 12.4627 25.0868 12.4287 25.35 12.4583C25.6133 12.4879 25.8657 12.5801 26.086 12.7273C26.3063 12.8745 26.4881 13.0724 26.6162 13.3043C26.7443 13.5362 26.815 13.7954 26.8223 14.0603C27.0129 14.1365 27.171 14.2767 27.2696 14.4568C27.3681 14.6369 27.4009 14.8457 27.3623 15.0474C27.3238 15.249 27.2163 15.4309 27.0582 15.562C26.9002 15.693 26.7014 15.7649 26.4961 15.7654ZM24.2267 18.8297V18.9538C23.9886 20.2211 20.241 21.9548 14.4584 21.9548C8.67579 21.9548 4.92323 20.2187 4.68885 18.9525V18.8285C4.68885 17.7273 5.90043 16.7364 7.83376 16.0445C7.83376 16.0755 7.83376 16.1077 7.84244 16.1375L8.99574 17.6814C9.57399 18.4739 10.3223 19.1268 11.1858 19.5924C11.5299 19.7682 11.9173 19.8414 12.3019 19.8032H21.7726C21.9474 19.8032 22.2971 19.7797 22.3492 19.6135C22.3534 19.5696 22.3478 19.5253 22.3331 19.4837C22.3183 19.4422 22.2946 19.4044 22.2637 19.3729C21.7864 18.8964 21.3725 18.3604 21.0322 17.7781C20.5362 16.8158 20.1257 15.7419 20.1257 15.7419C22.6146 16.4301 24.2267 17.5562 24.2267 18.8297Z" fill="#858599"/>
</svg>
