<svg width="19" height="19" viewBox="0 0 19 19" fill="none" xmlns="http://www.w3.org/2000/svg">
<path d="M9.42531 11.5779C9.97646 11.5779 10.505 11.359 10.8948 10.9692C11.2845 10.5795 11.5034 10.0509 11.5034 9.49977C11.5034 9.43891 11.5007 9.37861 11.4955 9.31905L9.24459 11.5699C9.30415 11.5751 9.36427 11.5779 9.42531 11.5779ZM16.3039 3.07168L15.5112 2.27977C15.4834 2.25195 15.4457 2.23633 15.4063 2.23633C15.367 2.23633 15.3292 2.25195 15.3014 2.27977L13.273 4.30873C12.154 3.73687 10.8962 3.45094 9.49953 3.45094C5.93332 3.45094 3.27257 5.30827 1.5173 9.02292C1.44675 9.17231 1.41016 9.33548 1.41016 9.5007C1.41016 9.66592 1.44675 9.82909 1.5173 9.97848C2.21867 11.4558 3.06322 12.6399 4.05094 13.5308L2.08804 15.4929C2.06023 15.5208 2.0446 15.5585 2.0446 15.5979C2.0446 15.6372 2.06023 15.675 2.08804 15.7028L2.88014 16.4949C2.90798 16.5227 2.94572 16.5383 2.98507 16.5383C3.02442 16.5383 3.06216 16.5227 3.09 16.4949L16.3039 3.28172C16.3177 3.26794 16.3287 3.25157 16.3361 3.23355C16.3436 3.21553 16.3474 3.19621 16.3474 3.1767C16.3474 3.1572 16.3436 3.13788 16.3361 3.11986C16.3287 3.10184 16.3177 3.08547 16.3039 3.07168ZM6.15968 9.49977C6.15963 8.93572 6.30568 8.38127 6.5836 7.89044C6.86152 7.39961 7.26183 6.98913 7.74554 6.69899C8.22925 6.40886 8.77986 6.24896 9.34374 6.23487C9.90762 6.22078 10.4655 6.35298 10.9631 6.6186L10.061 7.52073C9.69717 7.40423 9.30829 7.3902 8.93703 7.48018C8.56576 7.57015 8.22644 7.76065 7.95632 8.03078C7.68619 8.3009 7.49569 8.64022 7.40572 9.01149C7.31574 9.38276 7.32977 9.77163 7.44627 10.1355L6.54414 11.0376C6.29098 10.5646 6.1589 10.0363 6.15968 9.49977V9.49977Z" fill="#999999"/>
<path d="M17.4822 9.02114C16.829 7.64562 16.0517 6.52399 15.15 5.65625L12.4756 8.33091C12.701 8.92023 12.751 9.56223 12.6194 10.1793C12.4879 10.7965 12.1805 11.3623 11.7343 11.8084C11.2881 12.2546 10.7223 12.562 10.1052 12.6936C9.4881 12.8251 8.8461 12.7751 8.25678 12.5497L5.98828 14.8182C7.0407 15.3052 8.21126 15.5487 9.49994 15.5487C13.0662 15.5487 15.7269 13.6914 17.4822 9.97671C17.5527 9.82732 17.5893 9.66415 17.5893 9.49893C17.5893 9.33371 17.5527 9.17054 17.4822 9.02114V9.02114Z" fill="#999999"/>
</svg>
