<svg xmlns="http://www.w3.org/2000/svg" xmlns:xlink="http://www.w3.org/1999/xlink" width="70.787" height="79.699" viewBox="0 0 70.787 79.699">
  <defs>
    <clipPath id="clip-path">
      <rect width="70.788" height="79.699" fill="none"/>
    </clipPath>
  </defs>
  <g id="noun_CSV_File_631630" data-name="noun_CSV File_631630" clip-path="url(#clip-path)">
    <g id="noun_CSV_File_631630-2" data-name="noun_CSV File_631630" transform="translate(-44.355 -49.358)">
      <g id="Group_1404" data-name="Group 1404" transform="translate(44.355 49.358)">
        <g id="Group_1403" data-name="Group 1403" transform="translate(0 0)">
          <path id="Path_9946" data-name="Path 9946" d="M71.985,39.917V27.7a.248.248,0,0,0,0-.026,1.48,1.48,0,0,0-.025-.252c0-.016-.009-.029-.012-.044a1.431,1.431,0,0,0-.061-.2c-.01-.026-.022-.051-.032-.076a1.351,1.351,0,0,0-.086-.156c-.013-.021-.025-.043-.039-.062a1.4,1.4,0,0,0-.154-.187L53.1,8.009l0,0c-.006-.006-.013-.01-.02-.017a1.369,1.369,0,0,0-.171-.141c-.022-.015-.045-.029-.068-.043a1.608,1.608,0,0,0-.152-.083c-.026-.011-.05-.024-.077-.034a1.425,1.425,0,0,0-.212-.067l-.033-.008a1.449,1.449,0,0,0-.245-.025c-.011,0-.021,0-.031,0H11.417A1.424,1.424,0,0,0,9.993,9.01V39.917H5.52V71.512H9.993V85.861a1.423,1.423,0,0,0,1.424,1.423H70.562a1.424,1.424,0,0,0,1.423-1.423V71.512h4.323V39.917ZM53.512,12.476l13.639,13.8H53.512ZM69.137,84.438H12.84V71.511h56.3ZM24.691,61.379a8.671,8.671,0,0,0,2.893-.5l.524,2.711a9.906,9.906,0,0,1-3.941.66c-5.308,0-8.041-3.3-8.041-7.677,0-5.239,3.736-8.155,8.383-8.155a9.04,9.04,0,0,1,3.782.685l-.706,2.756a7.486,7.486,0,0,0-2.916-.569c-2.756,0-4.9,1.663-4.9,5.08C19.771,59.442,21.593,61.379,24.691,61.379Zm10.661-3.8c-2.552-.889-4.214-2.3-4.214-4.533,0-2.619,2.187-4.624,5.809-4.624a9.4,9.4,0,0,1,3.918.775l-.774,2.8a7.288,7.288,0,0,0-3.212-.73c-1.5,0-2.232.684-2.232,1.481,0,.979.866,1.412,2.847,2.165,2.71,1,3.987,2.414,3.987,4.579,0,2.574-1.982,4.761-6.2,4.761a10.044,10.044,0,0,1-4.351-.934l.706-2.871a8.862,8.862,0,0,0,3.85.956c1.594,0,2.437-.661,2.437-1.663C37.926,58.781,37.2,58.235,35.352,57.574Zm8.315-8.906h3.8l1.868,6.491c.524,1.823,1,3.577,1.367,5.49h.068c.387-1.844.866-3.668,1.39-5.422l1.959-6.561h3.691L52.642,64.02H48.588Zm25.47-8.75H12.84V10.434H50.665V27.7a1.423,1.423,0,0,0,1.423,1.424H69.137V39.917Z" transform="translate(-5.52 -7.586)" fill="#212245"/>
        </g>
      </g>
    </g>
  </g>
</svg>
