<svg xmlns="http://www.w3.org/2000/svg" width="26.666" height="26.667" viewBox="0 0 26.666 26.667">
  <g id="csv" transform="translate(0 0)">
    <g id="Group_724" data-name="Group 724" transform="translate(0 0)">
      <g id="Group_723" data-name="Group 723">
        <path id="Path_8397" data-name="Path 8397" d="M1.667,24.166V2.5A.833.833,0,0,1,2.5,1.666H15V5a1.667,1.667,0,0,0,1.667,1.667H20v2.5h1.667V5.833a.833.833,0,0,0-.242-.592l-5-5A.833.833,0,0,0,15.833,0H2.5A2.5,2.5,0,0,0,0,2.5V24.166a2.5,2.5,0,0,0,2.5,2.5H8.333V25H2.5A.833.833,0,0,1,1.667,24.166Z" transform="translate(0 0)"/>
        <path id="Path_8398" data-name="Path 8398" d="M242.5,257.667h1.667a.833.833,0,0,1,.833.833h1.667a2.5,2.5,0,0,0-2.5-2.5H242.5a2.5,2.5,0,0,0,0,5h1.667a.833.833,0,1,1,0,1.667H242.5a.833.833,0,0,1-.833-.833H240a2.5,2.5,0,0,0,2.5,2.5h1.667a2.5,2.5,0,0,0,0-5H242.5a.833.833,0,1,1,0-1.667Z" transform="translate(-227.5 -242.667)"/>
        <path id="Path_8399" data-name="Path 8399" d="M99.333,257.667A1.667,1.667,0,0,1,101,259.333h1.667a3.333,3.333,0,0,0-6.667,0V261a3.333,3.333,0,0,0,6.667,0H101a1.667,1.667,0,1,1-3.333,0v-1.667A1.667,1.667,0,0,1,99.333,257.667Z" transform="translate(-91 -242.667)"/>
        <path id="Path_8400" data-name="Path 8400" d="M389,256v5c0,.9-1.267,1.667-1.667,1.667s-1.667-.767-1.667-1.667v-5H384v5a3.333,3.333,0,0,0,6.667,0v-5Z" transform="translate(-364 -242.667)"/>
      </g>
    </g>
  </g>
</svg>
