<svg xmlns="http://www.w3.org/2000/svg" width="18.23" height="22.322" viewBox="0 0 18.23 22.322">
  <g id="trash" transform="translate(0 0)">
    <path id="Path_8376" data-name="Path 8376" d="M18.174,4.989l-.493-1.477a1.375,1.375,0,0,0-1.305-.941H12.234V1.222A1.224,1.224,0,0,0,11.012,0H7.219A1.224,1.224,0,0,0,6,1.222V2.571H1.855a1.375,1.375,0,0,0-1.306.941L.056,4.989A1.106,1.106,0,0,0,1.105,6.445H1.62L2.754,20.466a2.028,2.028,0,0,0,2.01,1.855H13.7a2.028,2.028,0,0,0,2.01-1.856L16.84,6.445h.285a1.106,1.106,0,0,0,1.049-1.456ZM7.3,1.308h3.621V2.571H7.3Zm7.1,19.053a.713.713,0,0,1-.706.653H4.765a.713.713,0,0,1-.706-.653L2.933,6.445h12.6ZM1.386,5.137l.4-1.212a.068.068,0,0,1,.065-.047H16.376a.068.068,0,0,1,.065.047l.4,1.212Zm0,0" transform="translate(0 0)" fill="#fff"/>
    <path id="Path_8377" data-name="Path 8377" d="M268.916,178.672h.035a.654.654,0,0,0,.652-.62l.614-11.789a.654.654,0,0,0-1.306-.068l-.614,11.789a.654.654,0,0,0,.619.687Zm0,0" transform="translate(-256.6 -158.358)" fill="#fff"/>
    <path id="Path_8378" data-name="Path 8378" d="M106.438,178.057a.654.654,0,0,0,.652.618h.036a.654.654,0,0,0,.617-.689L107.1,166.2a.654.654,0,0,0-1.306.071Zm0,0" transform="translate(-101.182 -158.361)" fill="#fff"/>
    <path id="Path_8379" data-name="Path 8379" d="M194.908,178.676a.654.654,0,0,0,.654-.654V166.233a.654.654,0,0,0-1.308,0v11.789A.654.654,0,0,0,194.908,178.676Zm0,0" transform="translate(-185.785 -158.361)" fill="#fff"/>
  </g>
</svg>
