<svg height='100px' width='100px'  fill="#002d5b" xmlns="http://www.w3.org/2000/svg" xmlns:xlink="http://www.w3.org/1999/xlink" version="1.1" x="0px" y="0px" viewBox="0 0 512 512" style="enable-background:new 0 0 512 512;" xml:space="preserve"><style type="text/css">
	.st0{display:none;}
	.st1{display:inline;}
	.st2{fill:none;stroke:#002d5b;stroke-width:0.1;stroke-miterlimit:10;}
</style><g class="st0"><g class="st1"><rect class="st2" width="512" height="512"></rect><line class="st2" x1="0" y1="496" x2="512" y2="496"></line><line class="st2" x1="0" y1="480" x2="512" y2="480"></line><line class="st2" x1="0" y1="464" x2="512" y2="464"></line><line class="st2" x1="0" y1="448" x2="512" y2="448"></line><line class="st2" x1="0" y1="432" x2="512" y2="432"></line><line class="st2" x1="0" y1="416" x2="512" y2="416"></line><line class="st2" x1="0" y1="400" x2="512" y2="400"></line><line class="st2" x1="0" y1="384" x2="512" y2="384"></line><line class="st2" x1="0" y1="368" x2="512" y2="368"></line><line class="st2" x1="0" y1="352" x2="512" y2="352"></line><line class="st2" x1="0" y1="336" x2="512" y2="336"></line><line class="st2" x1="0" y1="320" x2="512" y2="320"></line><line class="st2" x1="0" y1="304" x2="512" y2="304"></line><line class="st2" x1="0" y1="288" x2="512" y2="288"></line><line class="st2" x1="0" y1="272" x2="512" y2="272"></line><line class="st2" x1="0" y1="256" x2="512" y2="256"></line><line class="st2" x1="0" y1="240" x2="512" y2="240"></line><line class="st2" x1="0" y1="224" x2="512" y2="224"></line><line class="st2" x1="0" y1="208" x2="512" y2="208"></line><line class="st2" x1="0" y1="192" x2="512" y2="192"></line><line class="st2" x1="0" y1="176" x2="512" y2="176"></line><line class="st2" x1="0" y1="160" x2="512" y2="160"></line><line class="st2" x1="0" y1="144" x2="512" y2="144"></line><line class="st2" x1="0" y1="128" x2="512" y2="128"></line><line class="st2" x1="0" y1="112" x2="512" y2="112"></line><line class="st2" x1="0" y1="96" x2="512" y2="96"></line><line class="st2" x1="0" y1="80" x2="512" y2="80"></line><line class="st2" x1="0" y1="64" x2="512" y2="64"></line><line class="st2" x1="0" y1="48" x2="512" y2="48"></line><line class="st2" x1="0" y1="32" x2="512" y2="32"></line><line class="st2" x1="0" y1="16" x2="512" y2="16"></line><line class="st2" x1="496" y1="0" x2="496" y2="512"></line><line class="st2" x1="480" y1="0" x2="480" y2="512"></line><line class="st2" x1="464" y1="0" x2="464" y2="512"></line><line class="st2" x1="448" y1="0" x2="448" y2="512"></line><line class="st2" x1="432" y1="0" x2="432" y2="512"></line><line class="st2" x1="416" y1="0" x2="416" y2="512"></line><line class="st2" x1="400" y1="0" x2="400" y2="512"></line><line class="st2" x1="384" y1="0" x2="384" y2="512"></line><line class="st2" x1="368" y1="0" x2="368" y2="512"></line><line class="st2" x1="352" y1="0" x2="352" y2="512"></line><line class="st2" x1="336" y1="0" x2="336" y2="512"></line><line class="st2" x1="320" y1="0" x2="320" y2="512"></line><line class="st2" x1="304" y1="0" x2="304" y2="512"></line><line class="st2" x1="288" y1="0" x2="288" y2="512"></line><line class="st2" x1="272" y1="0" x2="272" y2="512"></line><line class="st2" x1="256" y1="0" x2="256" y2="512"></line><line class="st2" x1="240" y1="0" x2="240" y2="512"></line><line class="st2" x1="224" y1="0" x2="224" y2="512"></line><line class="st2" x1="208" y1="0" x2="208" y2="512"></line><line class="st2" x1="192" y1="0" x2="192" y2="512"></line><line class="st2" x1="176" y1="0" x2="176" y2="512"></line><line class="st2" x1="160" y1="0" x2="160" y2="512"></line><line class="st2" x1="144" y1="0" x2="144" y2="512"></line><line class="st2" x1="128" y1="0" x2="128" y2="512"></line><line class="st2" x1="112" y1="0" x2="112" y2="512"></line><line class="st2" x1="96" y1="0" x2="96" y2="512"></line><line class="st2" x1="80" y1="0" x2="80" y2="512"></line><line class="st2" x1="64" y1="0" x2="64" y2="512"></line><line class="st2" x1="48" y1="0" x2="48" y2="512"></line><line class="st2" x1="32" y1="0" x2="32" y2="512"></line><line class="st2" x1="16" y1="0" x2="16" y2="512"></line></g></g><path d="M256,6C117.9,6,6,117.9,6,256s111.9,250,250,250s250-111.9,250-250S394.1,6,256,6z M183.6,373.5l-52.6,7.3l7.6-52.6  L300,166.7l45.4,45.1L183.6,373.5z M354.6,202.7l-45.1-45.1l26.4-26.4l45.1,45.1L354.6,202.7z"></path></svg>