<svg height='100px' width='100px'  fill="#002247" xmlns="http://www.w3.org/2000/svg" xmlns:cc="http://creativecommons.org/ns#" xmlns:dc="http://purl.org/dc/elements/1.1/" xmlns:rdf="http://www.w3.org/1999/02/22-rdf-syntax-ns#" enable-background="new" version="1.1" viewBox="0 0 64 64" x="0px" y="0px"><path d="m9 10c-2.7496 0-5 2.2504-5 5v7.127c1.2747-1.3073 3.0475-2.127 5-2.127h46c1.9525 0 3.7253 0.81963 5 2.127v-1.127c0-2.7496-2.2504-5-5-5h-22c-1.0157 0-1.9888-0.40284-2.707-1.1211l-3.1719-3.1719c-1.0928-1.0928-2.5757-1.707-4.1211-1.707h-14zm0 12c-2.7496 0-5 2.2504-5 5v22c0 2.7496 2.2504 5 5 5h46c2.7496 0 5-2.2504 5-5v-22c0-2.7496-2.2504-5-5-5h-46zm21 6c4.4064 0 8 3.5934 8 8 0 1.1063-0.22773 2.1613-0.63672 3.1211l3.7637 3.7617c1.1639 1.1636 1.1639 3.0806 0 4.2441-1.1642 1.1633-3.0819 1.1633-4.2461 0l-3.7637-3.7617c-0.9587 0.40792-2.0125 0.63477-3.1172 0.63477-4.4064 0-8-3.5935-8-8s3.5936-8 8-8zm0 2c-3.3256 0-6 2.6743-6 6s2.6744 6 6 6 6-2.6743 6-6-2.6744-6-6-6z" style="font-feature-settings:normal;font-variant-alternates:normal;font-variant-caps:normal;font-variant-east-asian:normal;font-variant-ligatures:normal;font-variant-numeric:normal;font-variant-position:normal;font-variation-settings:normal;inline-size:0;isolation:auto;mix-blend-mode:normal;shape-margin:0;shape-padding:0;text-decoration-color:#000000;text-decoration-line:none;text-decoration-style:solid;text-indent:0;text-orientation:mixed;text-transform:none;white-space:normal;"></path></svg>