<svg width="30" height="30" viewBox="0 0 30 30" fill="none" xmlns="http://www.w3.org/2000/svg">
<g clip-path="url(#clip0_31_711)">
<path d="M3.09301 23.7838C3.13119 23.8891 3.17364 23.9921 3.22038 24.0929C3.26283 24.1767 3.27813 24.2716 3.26415 24.3645C3.25017 24.4574 3.20761 24.5437 3.14238 24.6113L2.66746 25.0863L3.91548 26.3344L4.3904 25.8595C4.45817 25.7932 4.545 25.7498 4.6387 25.7355C4.73239 25.7211 4.82823 25.7365 4.91272 25.7795C5.01312 25.828 5.11631 25.8706 5.22176 25.9069C5.31106 25.9361 5.38905 25.9924 5.44495 26.068C5.50085 26.1435 5.53189 26.2346 5.53377 26.3285V27H7.29325V26.3344C7.29498 26.2404 7.32596 26.1493 7.38188 26.0738C7.4378 25.9982 7.51588 25.9419 7.60525 25.9128C7.71057 25.8746 7.81359 25.8321 7.9143 25.7854C7.9981 25.7429 8.09304 25.7276 8.18594 25.7416C8.27883 25.7556 8.36506 25.7982 8.43266 25.8634L8.90758 26.3384L10.1546 25.0873L9.6797 24.6123C9.6146 24.5446 9.57212 24.4584 9.55815 24.3655C9.54418 24.2726 9.55939 24.1777 9.6017 24.0938C9.65023 23.9934 9.69276 23.8902 9.72907 23.7848C9.75832 23.6955 9.81462 23.6175 9.89015 23.5616C9.96568 23.5056 10.0567 23.4746 10.1507 23.4727H10.8221V21.7091H10.1546C10.0606 21.7074 9.96953 21.6764 9.89396 21.6204C9.8184 21.5645 9.76215 21.4864 9.73302 21.397C9.69023 21.2917 9.64613 21.19 9.60071 21.0919C9.55826 21.0081 9.54296 20.9132 9.55694 20.8202C9.57092 20.7273 9.61348 20.6411 9.67871 20.5735L10.1536 20.0985L8.9066 18.8474L8.43167 19.3224C8.364 19.3875 8.27777 19.4299 8.18491 19.4439C8.09205 19.4579 7.99715 19.4427 7.91331 19.4004C7.81291 19.3518 7.70971 19.3093 7.60427 19.273C7.51497 19.2437 7.43697 19.1874 7.38108 19.1119C7.32518 19.0363 7.29414 18.9453 7.29226 18.8513V18.1798H5.52883V18.8513C5.5271 18.9453 5.49611 19.0364 5.4402 19.112C5.38428 19.1876 5.3062 19.2438 5.21682 19.273C5.11151 19.3112 5.00849 19.3536 4.90778 19.4004C4.82398 19.4428 4.72904 19.4581 4.63614 19.4441C4.54325 19.4302 4.45701 19.3876 4.38942 19.3224L3.91449 18.8474L2.66746 20.0955L3.14238 20.5705C3.20748 20.6382 3.24996 20.7244 3.26393 20.8173C3.2779 20.9102 3.26268 21.0051 3.22038 21.089C3.17184 21.1894 3.12931 21.2926 3.09301 21.398C3.06375 21.4873 3.00746 21.5653 2.93193 21.6212C2.8564 21.6772 2.76535 21.7082 2.67141 21.7101H2V23.4747H2.67141C2.76503 23.4762 2.85587 23.5068 2.93139 23.5621C3.00691 23.6175 3.06338 23.6949 3.09301 23.7838ZM6.40956 20.8213C6.75853 20.8213 7.09966 20.9248 7.38981 21.1187C7.67997 21.3126 7.90612 21.5882 8.03967 21.9107C8.17321 22.2331 8.20815 22.5879 8.14007 22.9302C8.07199 23.2725 7.90395 23.587 7.65719 23.8337C7.41043 24.0805 7.09604 24.2486 6.75378 24.3167C6.41151 24.3848 6.05675 24.3498 5.73434 24.2163C5.41194 24.0827 5.13638 23.8565 4.9425 23.5663C4.74862 23.2762 4.64514 22.935 4.64514 22.586C4.64645 22.1188 4.83292 21.6712 5.16367 21.3414C5.49442 21.0115 5.94246 20.8263 6.40956 20.8263V20.8213Z" fill="#212244"/>
<path d="M3.09301 7.60394C3.13119 7.70927 3.17364 7.8123 3.22038 7.91302C3.26283 7.99683 3.27813 8.09179 3.26415 8.18469C3.25017 8.2776 3.20761 8.36384 3.14238 8.43145L2.66746 8.90643L3.91548 10.1546L4.3904 9.67962C4.45854 9.61419 4.54541 9.57169 4.63888 9.55806C4.73235 9.54443 4.82775 9.56034 4.91173 9.60359C5.01213 9.65213 5.11533 9.69467 5.22077 9.73097C5.31007 9.76023 5.38807 9.81653 5.44396 9.89207C5.49986 9.96761 5.5309 10.0587 5.53278 10.1526V10.8241H7.29325V10.1585C7.29498 10.0646 7.32596 9.97343 7.38188 9.89786C7.4378 9.82229 7.51588 9.76603 7.60525 9.7369C7.71057 9.69871 7.81359 9.65625 7.9143 9.60951C7.9981 9.56706 8.09304 9.55176 8.18594 9.56574C8.27883 9.57972 8.36506 9.62228 8.43266 9.68752L8.90758 10.1625L10.1546 8.91136L9.67871 8.4354C9.61308 8.36718 9.57045 8.28011 9.55681 8.18642C9.54318 8.09273 9.55922 7.99713 9.60269 7.91302C9.65122 7.81261 9.69375 7.7094 9.73006 7.60394C9.75931 7.51463 9.8156 7.43663 9.89114 7.38072C9.96667 7.32482 10.0577 7.29378 10.1517 7.2919H10.8231V5.52925H10.1566C10.0626 5.52751 9.9715 5.49653 9.89594 5.4406C9.82038 5.38468 9.76412 5.30659 9.73499 5.21721C9.69023 5.11319 9.64613 5.01148 9.60269 4.91207C9.56024 4.82826 9.54494 4.73331 9.55892 4.6404C9.57289 4.5475 9.61546 4.46125 9.68069 4.39365L10.1556 3.91867L8.9066 2.66754L8.43069 3.14251C8.36301 3.20762 8.27679 3.2501 8.18393 3.26408C8.09107 3.27805 7.99616 3.26283 7.91232 3.22052C7.81192 3.17198 7.70872 3.12945 7.60328 3.09314C7.51417 3.06371 7.43638 3.00734 7.38067 2.93181C7.32496 2.85629 7.29407 2.76532 7.29226 2.67149V2H5.52883V2.67149C5.5271 2.76548 5.49611 2.8566 5.4402 2.93217C5.38428 3.00774 5.3062 3.06401 5.21682 3.09314C5.11216 3.13132 5.00915 3.17411 4.90778 3.22151C4.82394 3.26382 4.72904 3.27904 4.63618 3.26507C4.54332 3.25109 4.45709 3.20861 4.38942 3.1435L3.91548 2.66852L2.66746 3.91571L3.14238 4.39069C3.20849 4.45857 3.25167 4.54547 3.26584 4.63917C3.28001 4.73288 3.26446 4.82866 3.22137 4.91306C3.17291 5.01364 3.13006 5.11683 3.09301 5.22214C3.06388 5.31153 3.00762 5.38961 2.93206 5.44554C2.8565 5.50147 2.76539 5.53245 2.67141 5.53419H2V7.29387H2.67141C2.76527 7.29554 2.85629 7.32638 2.93184 7.38212C3.00738 7.43786 3.06371 7.51573 3.09301 7.60493V7.60394ZM6.41055 4.64151C6.7593 4.64151 7.10024 4.74488 7.39029 4.93856C7.68034 5.13224 7.90649 5.40755 8.04017 5.7297C8.17386 6.05186 8.20909 6.40641 8.14141 6.74858C8.07373 7.09075 7.90617 7.40518 7.65991 7.65216C7.41365 7.89915 7.09972 8.0676 6.75778 8.13624C6.41584 8.20489 6.06124 8.17065 5.73875 8.03784C5.41626 7.90504 5.14035 7.67963 4.94588 7.39009C4.75142 7.10055 4.64711 6.75987 4.64613 6.41107C4.64613 5.94306 4.83202 5.49422 5.16291 5.16329C5.49381 4.83236 5.94259 4.64644 6.41055 4.64644V4.64151Z" fill="#212244"/>
<path d="M23.9115 16.4616H20.8635C20.4942 16.4612 20.1309 16.3679 19.8071 16.1904C19.4833 16.0128 19.2092 15.7567 19.0103 15.4455L17.6754 18.1117C18.4616 18.7541 19.4454 19.1053 20.4607 19.1061H23.9096V20.4293L26.997 17.7829L23.9115 15.1384V16.4616Z" fill="#212244"/>
<path d="M16.7551 18.2154L18.8967 13.9337C19.08 13.567 19.3619 13.2586 19.7107 13.0432C20.0595 12.8278 20.4615 12.7138 20.8714 12.7142H23.9194V14.0374L27.0069 11.3909L23.9115 8.7435V10.0667H20.4627C19.6427 10.0658 18.8387 10.2936 18.1411 10.7245C17.4434 11.1553 16.8797 11.7722 16.5132 12.5058L14.3716 16.7875C14.1883 17.1542 13.9064 17.4626 13.5576 17.678C13.2088 17.8934 12.8069 18.0074 12.3969 18.007H10.2385V20.6535H12.8057C13.6255 20.6544 14.4293 20.4267 15.127 19.996C15.8246 19.5653 16.3884 18.9487 16.7551 18.2154Z" fill="#212244"/>
<path d="M15.1349 12.8534L15.6858 13.9564L16.4866 12.3557C16.7094 11.9087 16.9939 11.4952 17.3317 11.1273C16.9416 10.4759 16.3896 9.93651 15.7294 9.56156C15.0692 9.1866 14.3232 8.98881 13.564 8.9874H10.9968V11.6338H13.1621C13.5721 11.6334 13.9741 11.7473 14.3229 11.9627C14.6717 12.1781 14.9536 12.4866 15.1368 12.8534H15.1349Z" fill="#212244"/>
<path d="M9.23736 9.33105H6.89435V12.4564H9.23736V9.33105Z" fill="#212244"/>
</g>
<defs>
<clipPath id="clip0_31_711">
<rect width="25" height="25" fill="white" transform="translate(2 2)"/>
</clipPath>
</defs>
</svg>
