<svg width="97" height="97" viewBox="0 0 97 97" fill="none" xmlns="http://www.w3.org/2000/svg">
<path d="M48.5 0C21.7167 0 0 21.7167 0 48.5C0 75.2833 21.7167 97 48.5 97C75.2833 97 97 75.2833 97 48.5C97 21.7167 75.2833 0 48.5 0ZM64.1001 49.247L40.4564 66.4493C40.3267 66.5425 40.1739 66.5981 40.0148 66.61C39.8556 66.622 39.6962 66.5899 39.5541 66.5171C39.412 66.4444 39.2928 66.3339 39.2094 66.1978C39.126 66.0617 39.0817 65.9053 39.0815 65.7456V31.3626C39.0809 31.2027 39.1247 31.0457 39.2079 30.9091C39.2912 30.7725 39.4106 30.6617 39.553 30.5888C39.6953 30.5159 39.8551 30.4839 40.0146 30.4963C40.174 30.5087 40.3269 30.565 40.4564 30.6589L64.1001 47.8504C64.2118 47.9294 64.3029 48.0341 64.3658 48.1556C64.4287 48.2771 64.4615 48.4119 64.4615 48.5487C64.4615 48.6855 64.4287 48.8203 64.3658 48.9418C64.3029 49.0633 64.2118 49.168 64.1001 49.247Z" fill="#009C82"/>
</svg>
