<svg xmlns="http://www.w3.org/2000/svg" width="105.197" height="105.197" viewBox="0 0 105.197 105.197">
  <g id="noun_Download_Database_1302995" data-name="noun_Download Database_1302995" transform="translate(-15.5 -15.5)">
    <g id="Group_1408" data-name="Group 1408" transform="translate(15.5 15.5)">
      <g id="Group_1407" data-name="Group 1407" transform="translate(0)">
        <g id="Group_1406" data-name="Group 1406">
          <g id="Group_1405" data-name="Group 1405">
            <path id="Path_9947" data-name="Path 9947" d="M92.6,87.455l-6.225,6.229c-.013.013-.027.024-.04.037-.035.034-.071.067-.108.1-.016.013-.034.025-.051.038-.037.028-.073.057-.112.083l-.041.025c-.043.028-.087.055-.132.079l-.029.014c-.05.026-.1.051-.153.073l-.019.007c-.056.023-.112.044-.17.061L85.5,94.2c-.057.017-.115.032-.174.044l-.049.008c-.05.009-.1.017-.151.023-.068.007-.137.01-.206.01s-.137,0-.205-.01c-.05-.005-.1-.014-.15-.022l-.05-.008c-.058-.012-.116-.027-.172-.043l-.023-.006c-.057-.017-.112-.038-.167-.06l-.023-.008c-.051-.021-.1-.045-.149-.07l-.034-.017c-.043-.023-.085-.049-.127-.076l-.046-.028c-.036-.024-.071-.052-.106-.078-.019-.014-.038-.027-.056-.042-.036-.03-.07-.062-.1-.095-.015-.013-.03-.026-.044-.04l-6.224-6.229a2.061,2.061,0,0,1,2.913-2.915l2.708,2.71V77.59a2.06,2.06,0,1,1,4.119,0v9.661l2.708-2.71A2.061,2.061,0,0,1,92.6,87.455M84.922,64.619A20.289,20.289,0,1,1,64.647,84.908,20.305,20.305,0,0,1,84.922,64.619ZM73.5,4.572c8.7,3.186,13.487,7.686,13.487,12.669S82.192,26.724,73.5,29.91c-8.046,2.948-18.7,4.572-30,4.572s-21.958-1.624-30-4.572C4.79,26.724,0,22.225,0,17.241S4.79,7.758,13.486,4.572C21.533,1.624,32.189,0,43.491,0S65.449,1.624,73.5,4.572ZM11.84,51.262C5.347,48.518,1.177,45.045,0,41.5V26.491a33.408,33.408,0,0,0,10.237,6.364C19.154,36.624,30.963,38.7,43.491,38.7s24.337-2.075,33.254-5.844a33.4,33.4,0,0,0,10.237-6.364V41.5c-1.177,3.549-5.346,7.021-11.84,9.765-8.421,3.559-19.661,5.519-31.651,5.519S20.261,54.821,11.84,51.262Zm73.082,9.231A24.442,24.442,0,0,0,61.716,77.366a99.645,99.645,0,0,1-18.226,1.619c-11.99,0-23.23-1.96-31.651-5.519C5.347,70.721,1.177,67.249,0,63.7V48.7a33.415,33.415,0,0,0,10.237,6.364C19.153,58.828,30.963,60.9,43.491,60.9s24.338-2.075,33.254-5.843A33.407,33.407,0,0,0,86.982,48.7V60.581C86.3,60.524,85.616,60.493,84.922,60.493Zm-24.4,24.415a24.288,24.288,0,0,0,4.159,13.62,108.981,108.981,0,0,1-21.191,1.946c-11.3,0-21.958-1.624-30-4.572C4.79,92.716,0,88.217,0,83.234V70.9a33.41,33.41,0,0,0,10.237,6.364c8.916,3.768,20.726,5.844,33.254,5.844a105.111,105.111,0,0,0,17.24-1.384A24.557,24.557,0,0,0,60.523,84.908Z" transform="translate(0 0)" fill="#f45099" fill-rule="evenodd"/>
          </g>
        </g>
      </g>
    </g>
  </g>
</svg>
