<svg width="37" height="49" viewBox="0 0 37 49" fill="none" xmlns="http://www.w3.org/2000/svg">
<path d="M21.5833 13.0156V0H2.3125C1.03099 0 0 1.02402 0 2.29688V46.7031C0 47.976 1.03099 49 2.3125 49H34.6875C35.969 49 37 47.976 37 46.7031V15.3125H23.8958C22.624 15.3125 21.5833 14.2789 21.5833 13.0156ZM12.3333 26.7969C12.3333 27.2199 11.9884 27.5625 11.5625 27.5625H10.7917C9.9399 27.5625 9.25 28.2477 9.25 29.0938V32.1562C9.25 33.0023 9.9399 33.6875 10.7917 33.6875H11.5625C11.9884 33.6875 12.3333 34.0301 12.3333 34.4531V35.9844C12.3333 36.4074 11.9884 36.75 11.5625 36.75H10.7917C8.23732 36.75 6.16667 34.6933 6.16667 32.1562V29.0938C6.16667 26.5567 8.23732 24.5 10.7917 24.5H11.5625C11.9884 24.5 12.3333 24.8426 12.3333 25.2656V26.7969ZM16.5989 36.75H15.4167C14.9908 36.75 14.6458 36.4074 14.6458 35.9844V34.4531C14.6458 34.0301 14.9908 33.6875 15.4167 33.6875H16.5989C17.1722 33.6875 17.602 33.3525 17.602 33.0539C17.602 32.9295 17.5297 32.7994 17.3977 32.6864L15.2885 30.8901C14.4724 30.1991 14.0041 29.2172 14.0041 28.197C14.0041 26.1585 15.8368 24.501 18.0905 24.501H19.2708C19.6967 24.501 20.0417 24.8436 20.0417 25.2666V26.7978C20.0417 27.2208 19.6967 27.5635 19.2708 27.5635H18.0886C17.5153 27.5635 17.0855 27.8984 17.0855 28.197C17.0855 28.3214 17.1578 28.4516 17.2898 28.5645L19.399 30.3609C20.2151 31.0518 20.6834 32.0337 20.6834 33.0539C20.6843 35.0915 18.8527 36.75 16.5989 36.75ZM24.6667 25.2656V27.2562C24.6667 29.1962 25.2159 31.1006 26.2083 32.6998C27.2008 31.1016 27.75 29.1962 27.75 27.2562V25.2656C27.75 24.8426 28.0949 24.5 28.5208 24.5H30.0625C30.4884 24.5 30.8333 24.8426 30.8333 25.2656V27.2562C30.8333 30.6518 29.5923 33.8492 27.3376 36.261C27.0466 36.572 26.6371 36.75 26.2083 36.75C25.7796 36.75 25.3701 36.572 25.0791 36.261C22.8244 33.8492 21.5833 30.6518 21.5833 27.2562V25.2656C21.5833 24.8426 21.9283 24.5 22.3542 24.5H23.8958C24.3217 24.5 24.6667 24.8426 24.6667 25.2656ZM36.3255 10.0488L26.8924 0.669922C26.4589 0.239258 25.8711 0 25.2544 0H24.6667V12.25H37V11.6662C37 11.0633 36.7591 10.4795 36.3255 10.0488Z" fill="#121542"/>
</svg>
