<svg width="30" height="30" viewBox="0 0 30 30" fill="none" xmlns="http://www.w3.org/2000/svg">
<path d="M1.01254 7.25625L0.937536 5.625C0.937536 4.63044 1.33262 3.67661 2.03589 2.97335C2.73915 2.27009 3.69297 1.875 4.68754 1.875H11.5725C12.567 1.87521 13.5207 2.27044 14.2238 2.97375L15.7763 4.52625C16.4794 5.22956 17.4331 5.62479 18.4275 5.625H25.8938C26.4149 5.62495 26.9303 5.7335 27.4071 5.94373C27.8839 6.15397 28.3117 6.46127 28.6631 6.84604C29.0145 7.23081 29.2819 7.68459 29.4482 8.17846C29.6144 8.67232 29.6759 9.19541 29.6288 9.71438L28.4344 22.8394C28.3497 23.7711 27.9199 24.6375 27.2292 25.2685C26.5385 25.8996 25.6368 26.2496 24.7013 26.25H5.29879C4.36323 26.2496 3.4616 25.8996 2.77091 25.2685C2.08021 24.6375 1.65033 23.7711 1.56566 22.8394L0.371286 9.71438C0.291385 8.84584 0.518275 7.97676 1.01254 7.25813V7.25625ZM4.10629 7.5C3.84582 7.49998 3.58821 7.55424 3.34988 7.6593C3.11154 7.76436 2.89771 7.91792 2.72201 8.1102C2.54631 8.30248 2.4126 8.52926 2.3294 8.77608C2.24621 9.0229 2.21534 9.28434 2.23879 9.54375L3.43316 22.6688C3.47526 23.1346 3.68997 23.5679 4.03514 23.8836C4.38032 24.1993 4.83102 24.3746 5.29879 24.375H24.7013C25.169 24.3746 25.6198 24.1993 25.9649 23.8836C26.3101 23.5679 26.5248 23.1346 26.5669 22.6688L27.7613 9.54375C27.7847 9.28434 27.7539 9.0229 27.6707 8.77608C27.5875 8.52926 27.4538 8.30248 27.2781 8.1102C27.1024 7.91792 26.8885 7.76436 26.6502 7.6593C26.4119 7.55424 26.1542 7.49998 25.8938 7.5H4.10629ZM12.9 4.29938C12.7257 4.12503 12.5188 3.98677 12.291 3.8925C12.0632 3.79823 11.8191 3.74981 11.5725 3.75H4.68754C4.19637 3.74991 3.72477 3.94256 3.37415 4.28652C3.02352 4.63048 2.82187 5.09829 2.81254 5.58938L2.82379 5.85C3.22504 5.70375 3.65629 5.625 4.10629 5.625H14.2238L12.8982 4.29938H12.9Z" fill="#212244"/>
</svg>
