<svg xmlns="http://www.w3.org/2000/svg" width="30.67" height="26.694" viewBox="0 0 30.67 26.694">
  <path id="folder_2_" data-name="folder (2)" d="M27.492,29.11H13.759L13.2,28.041a3.177,3.177,0,0,0-2.9-1.882H3.177A3.177,3.177,0,0,0,0,29.336V50.048a2.805,2.805,0,0,0,2.805,2.805H27.864a2.805,2.805,0,0,0,2.805-2.805V32.287A3.177,3.177,0,0,0,27.492,29.11Zm-17.2.241q.037.081.078.161l.555,1.069A3.191,3.191,0,0,0,13.759,32.3H27.478v2.4H3.191V29.35h7.1Z" transform="translate(0 -26.159)" opacity="0.5"/>
</svg>
