<svg xmlns="http://www.w3.org/2000/svg" width="34.381" height="28.078" viewBox="0 0 34.381 28.078">
  <g id="folder_1_" data-name="folder (1)" transform="translate(0 -5.5)">
    <path id="Path_8395" data-name="Path 8395" d="M8.876,23.5a.324.324,0,0,0-.312.239L2,40.117v.573c0,.421-.027.573.324.573H27.971a1.455,1.455,0,0,0,1.4-1.039l5.86-16.152V23.5Z" transform="translate(-0.854 -7.686)" fill="#52bd95"/>
    <path id="Path_8396" data-name="Path 8396" d="M7.3,14.668H30.943V11.077a1.567,1.567,0,0,0-1.565-1.565H15.193L12.328,5.5H1.565A1.568,1.568,0,0,0,0,7.065v23.95L5.892,15.706A1.454,1.454,0,0,1,7.3,14.668Z" fill="#52bd95"/>
  </g>
</svg>
