<?xml version="1.0" encoding="utf-8"?>
<!-- Generator: Adobe Illustrator 25.3.1, SVG Export Plug-In . SVG Version: 6.00 Build 0)  -->
<svg version="1.1" id="Layer_1" xmlns="http://www.w3.org/2000/svg" xmlns:xlink="http://www.w3.org/1999/xlink" x="0px" y="0px"
	 viewBox="0 0 4069.3 744.7" style="enable-background:new 0 0 4069.3 744.7;" xml:space="preserve">
<style type="text/css">
	.st0{fill:#212244;}
	.st1{fill:url(#SVGID_1_);}
	.st2{fill:#FFFFFF;}
</style>
<g>
	<path class="st0" d="M904.9,387c0-22.5,5.3-42.9,15.8-61.6c10.7-18.6,25.3-33.2,43.4-43.8c18.5-10.7,38.5-16.2,60.3-16.2
		c22.5,0,42.7,5.3,61,15.8c18.1,10.6,32.4,25,42.7,43.4c10.6,18.5,15.8,39,15.8,61.9c0,19.7-4.2,38-12.5,54.9
		c-8.3,16.9-19.9,31-34.6,42c-14.8,11.3-31.5,18.5-50.1,21.8l29,44.5c0.7,1.1,1.2,2.1,1.8,3c0.5,0.9,0.7,1.8,0.7,2.3
		c0,2.3-2.5,3.3-7.4,3.3h-9.1c-3.2,0-5.6-0.5-7.4-1.8c-1.6-0.9-3.5-3-5.8-6.3l-27.8-42.6c-22-0.5-41.9-6-59.6-16.9
		c-17.6-10.7-31.3-25.3-41.5-43.4C909.8,429.4,904.9,409.1,904.9,387z M927.7,387c0,18.6,4.2,35.5,12.5,50.8
		c8.6,15.1,20.1,26.9,34.6,35.7c14.8,8.6,31.1,12.8,49.2,12.8c17.6,0,33.6-4.4,48.5-13.2c14.8-8.8,26.6-20.6,35.4-35.7
		c8.8-15.3,13.2-32.2,13.2-50.5c0-19.2-4.4-36.2-13.2-51.5c-8.6-15.3-20.2-27.1-35-35.7c-14.8-8.6-31.1-12.8-48.9-12.8
		c-17.6,0-33.6,4.4-48.5,13.2c-14.6,8.6-26.2,20.4-35,35.7C932.1,350.8,927.7,367.8,927.7,387z M1419.7,404.7c0,22.5-4,41.5-12.1,57
		s-19.2,27.1-33.4,34.6c-14.2,7.6-30.3,11.4-48.5,11.4c-17.8,0-33.4-3.7-47.1-11.1c-13.5-7.4-24.1-18.6-32-33.6
		c-7.9-15.3-11.8-34.3-11.8-57V275.5c0-2.6,0.5-4.6,1.4-5.5c1.1-0.9,3-1.4,5.5-1.4h8.4c2.5,0,4.2,0.5,5.1,1.4
		c1.1,0.9,1.8,2.6,1.8,5.5v129.6c0,16.9,2.6,31.3,8.1,43.4c5.5,12.1,13.4,21.5,23.9,28c10.6,6.5,23.2,9.8,38,9.8
		c14.8,0,27.4-3.3,38-9.8c10.7-6.5,19-15.7,24.6-27.6c5.6-12.1,8.4-26.6,8.4-43.1V275.5c0-2.6,0.5-4.6,1.4-5.5
		c1.1-0.9,3-1.4,5.5-1.4h8.4c2.5,0,4.2,0.5,5.1,1.4c1.1,0.9,1.8,2.6,1.8,5.5v129.3H1419.7z M1512.2,494.8c-1.8,4-3.5,6.7-5.1,8.1
		c-1.6,1.1-4,1.8-7.4,1.8h-6c-2.3,0-3.9-0.4-5.1-1.1c-1.1-0.7-1.8-1.8-1.8-3.3c0-0.9,0.5-2.6,1.8-5.5l98.7-213.5
		c1.8-4,3.3-7.4,4.7-10c1.6-2.6,2.8-4.4,3.7-5.1c0.9-0.9,1.9-1.4,3.3-1.4c1.1,0,2.1,0.5,3,1.4c0.9,0.7,1.9,2.3,3.3,5.1
		c1.6,2.6,3.3,6,5.1,10l99.4,213.5c1.1,2.6,1.8,4.6,1.8,5.5c0,1.6-0.5,2.6-1.8,3.3s-2.8,1.1-5.1,1.1h-7c-3.3,0-5.8-0.5-7.4-1.8
		c-1.6-1.4-3.3-4-5.1-8.1l-86.5-189.3L1512.2,494.8z M1950,275.5c0-2.6,0.5-4.6,1.4-5.5c1.1-0.9,3-1.4,5.5-1.4h8.4
		c2.5,0,4.2,0.5,5.1,1.4c1.1,0.9,1.8,2.6,1.8,5.5v222.3c0,3.5-0.5,6.2-1.8,7.7c-1.1,1.6-2.6,2.3-4.7,2.3c-1.8,0-3.5-0.7-5.5-1.9
		c-1.6-1.4-3.9-4-7-8.1l-144.2-183.6v183.6c0,2.6-0.5,4.6-1.8,5.5c-0.9,0.9-2.6,1.4-5.1,1.4h-8.4c-2.5,0-4.2-0.5-5.5-1.4
		c-0.9-0.9-1.4-2.6-1.4-5.5V275.5c0-3.5,0.5-6.2,1.8-7.7c1.1-1.6,2.6-2.3,4.7-2.3c1.8,0,3.5,0.7,5.1,1.9c1.8,1.4,4.2,4,7.4,8.1
		l144.1,183.6V275.5H1950z M2231.4,283.6c0,2.6-0.5,4.6-1.8,5.5c-0.9,0.9-2.6,1.4-5.1,1.4h-68.4c-2.3,0-3.3,1.1-3.3,3.3v204
		c0,2.6-0.5,4.6-1.8,5.5c-0.9,0.9-2.6,1.4-5.1,1.4h-8.4c-2.5,0-4.2-0.5-5.5-1.4c-0.9-0.9-1.4-2.6-1.4-5.5v-204
		c0-2.3-1.1-3.3-3.3-3.3h-68.4c-2.5,0-4.2-0.5-5.5-1.4c-0.9-0.9-1.4-2.6-1.4-5.5v-8.1c0-2.6,0.4-4.6,1.4-5.5c1.1-0.9,3-1.4,5.5-1.4
		h165.3c2.5,0,4.2,0.5,5.1,1.4c1.1,0.9,1.8,2.6,1.8,5.5v8.1H2231.4z M2495.2,404.7c0,22.5-4,41.5-12.1,57s-19.2,27.1-33.2,34.6
		c-14.1,7.6-30.3,11.4-48.5,11.4c-17.8,0-33.4-3.7-47.1-11.1c-13.5-7.4-24.1-18.6-32-33.6c-7.9-15.3-11.8-34.3-11.8-57V275.5
		c0-2.6,0.4-4.6,1.4-5.5c1.1-0.9,2.8-1.4,5.5-1.4h8.4c2.5,0,4.2,0.5,5.1,1.4c1.1,0.9,1.8,2.6,1.8,5.5v129.6
		c0,16.9,2.6,31.3,8.1,43.4c5.5,12.1,13.4,21.5,23.9,28c10.6,6.5,23.2,9.8,38,9.8c14.8,0,27.4-3.3,38-9.8
		c10.7-6.5,19-15.7,24.6-27.6c5.6-12.1,8.4-26.6,8.4-43.1V275.5c0-2.6,0.5-4.6,1.4-5.5c1.1-0.9,3-1.4,5.5-1.4h8.4
		c2.5,0,4.2,0.5,5.1,1.4c1.1,0.9,1.8,2.6,1.8,5.5v129.3H2495.2z M2622.8,497.8c0,2.6-0.5,4.6-1.8,5.5c-0.9,0.9-2.6,1.4-5.1,1.4h-8.4
		c-2.5,0-4.2-0.5-5.5-1.4c-0.9-0.9-1.4-2.6-1.4-5.5V275.5c0-3.3,0.4-5.8,1.4-7.4c0.9-1.8,2.5-2.6,4.7-2.6c1.8,0,3.5,0.7,5.1,1.9
		c1.6,1.4,3.9,3.9,7,7.7l92.3,116.3l90.9-116.3c3.2-3.9,5.5-6.3,7-7.7c1.6-1.4,3.3-1.9,5.1-1.9c2.3,0,3.9,0.9,4.7,2.6
		c0.9,1.6,1.4,4,1.4,7.4v222.3c0,2.6-0.5,4.6-1.8,5.5c-0.9,0.9-2.6,1.4-5.1,1.4h-8.4c-2.5,0-4.2-0.5-5.5-1.4
		c-0.9-0.9-1.4-2.6-1.4-5.5V314.9l-76.5,96c-3,3.9-5.1,6.3-6.7,7.7c-1.4,1.1-3,1.8-4.7,1.8c-1.8,0-3.5-0.5-5.1-1.8
		c-1.4-1.4-3.5-3.9-6.3-7.7l-76.5-96v182.9H2622.8z M2949.4,497.8c0,2.6-0.5,4.6-1.8,5.5c-0.9,0.9-2.6,1.4-5.1,1.4h-8.4
		c-2.5,0-4.2-0.5-5.5-1.4c-0.9-0.9-1.4-2.6-1.4-5.5V275.5c0-2.6,0.5-4.6,1.4-5.5c1.1-0.9,3-1.4,5.5-1.4h8.4c2.5,0,4.2,0.5,5.1,1.4
		c1.1,0.9,1.8,2.6,1.8,5.5V497.8z M3159.7,486.4c14.1,0,27.3-2.3,39.4-6.7c12.3-4.7,23.6-11.3,33.6-19.9c2.3-1.8,4-2.6,5.5-2.6
		c1.6,0,3,1.1,4.4,3l5.1,6.7c1.1,1.8,1.8,3.2,1.8,4c0,1.6-1.1,3.3-3.3,5.5c-12,10-25.3,17.9-40.5,23.6c-14.8,5.5-30.4,8.1-46.8,8.1
		c-21.1,0-40.6-5.1-58.6-15.5c-17.9-10.4-32.2-24.6-42.7-43.1s-15.8-39-15.8-61.9c0-22.9,5.3-43.6,15.8-61.9
		c10.6-18.6,25-33.2,43.1-43.8c18.1-10.7,38.3-16.2,60.3-16.2c16,0,31.1,2.8,45.7,8.4c14.6,5.6,27.6,13.2,39,22.5
		c1.9,1.6,3,3.2,3,4.7c0,1.1-0.7,2.6-1.9,4.7l-5.1,6.3c-1.8,2.3-3.3,3.3-4.7,3.3c-0.7,0-1.4-0.2-2.3-0.7c-0.9-0.7-1.9-1.4-3-1.9
		c-10.2-8.1-21.3-14.4-33.8-18.8c-12.1-4.7-24.8-7-38-7c-17.6,0-33.6,4.2-48.2,12.8c-14.4,8.6-25.9,20.4-34.3,35.7
		c-8.6,15.1-12.8,32.2-12.8,51.5c0,18.5,4.2,35.2,12.5,50.5c8.4,15.1,20.1,26.9,34.6,35.7C3126.3,482,3142.3,486.4,3159.7,486.4z
		 M3394.4,265.4c26.9,0,51.5,8.6,73.7,25.7c2.3,1.6,3.3,3.2,3.3,4.7c0,1.1-0.7,2.6-2.3,4.4l-6,7.4c-1.6,2.3-3,3.3-4.4,3.3
		c-1.6,0-3.3-0.7-5.1-2.3c-9.5-6.7-19-12-29-15.8c-9.7-3.9-20.1-5.8-31-5.8c-9.8,0-18.6,1.8-26.2,5.1s-13.5,8.3-17.9,14.8
		c-4.2,6.3-6.3,13.9-6.3,22.5s2.1,16,6.2,21.6c4.2,5.6,10.4,10.2,18.5,13.9c8.1,3.5,19,7.2,33.1,10.7c17.2,4.6,31.1,9.5,41.3,15.1
		c10.4,5.5,18.1,12.1,23.2,20.2c5.1,8.1,7.7,18.1,7.7,29.9c0,13.2-3.5,25-10.7,35c-7.2,10-17.1,17.9-29.5,23.6
		c-12.7,5.6-26.7,8.4-42.7,8.4c-14.6,0-28.3-2.6-41.5-7.7c-12.8-5.5-24.6-12.5-35.4-21.6c-2.3-1.6-3.3-3.2-3.3-4.7
		c0-1.4,0.7-3,2.3-4.7l6.3-7.7c1.6-1.9,3-3,4.4-3c0.9,0,2.3,0.7,4.4,2.3c21.1,17.1,42.4,25.7,63.7,25.7c12,0,22.2-1.8,31-5.5
		c9-3.5,15.8-8.6,20.6-15.1c4.9-6.7,7.4-14.6,7.4-23.6c0-8.3-1.9-15.1-5.8-20.2c-3.5-5.5-9.5-10-17.9-13.9
		c-8.1-4-19.5-7.9-34.3-11.8c-16.4-4.2-29.7-8.8-40.1-13.9c-10-4.9-17.9-11.6-23.6-19.9c-5.6-8.3-8.4-19-8.4-32
		c0-13.2,3.2-24.8,9.8-34.6c6.7-9.8,15.7-17.4,26.9-22.5C3367.8,268.1,3380.3,265.4,3394.4,265.4z M3555.1,492
		c0-4.6,1.4-8.3,4.4-11.1c3.2-3,6.9-4.4,11.1-4.4c4.4,0,8.3,1.4,11.1,4.4c3,2.6,4.4,6.3,4.4,11.1c0,4.6-1.4,8.3-4.4,11.1
		c-3,2.6-6.7,4-11.1,4c-4.2,0-7.9-1.4-11.1-4C3556.5,500.3,3555.1,496.6,3555.1,492z M3693.4,494.8c-1.8,4-3.5,6.7-5.1,8.1
		c-1.6,1.1-4,1.8-7.4,1.8h-6c-2.3,0-3.9-0.4-5.1-1.1c-1.1-0.7-1.8-1.8-1.8-3.3c0-0.9,0.5-2.6,1.8-5.5l98.7-213.5
		c1.8-4,3.3-7.4,4.7-10c1.6-2.6,2.8-4.4,3.7-5.1c0.9-0.9,1.9-1.4,3.3-1.4c1.1,0,2.1,0.5,3,1.4c0.9,0.7,1.9,2.3,3.3,5.1
		c1.6,2.6,3.2,6,5.1,10l99.4,213.5c1.1,2.6,1.8,4.6,1.8,5.5c0,1.6-0.5,2.6-1.8,3.3c-1.1,0.7-2.8,1.1-5.1,1.1h-7
		c-3.3,0-5.8-0.5-7.4-1.8c-1.6-1.4-3.3-4-5.1-8.1l-86.5-189.3L3693.4,494.8z M3990.1,497.8c0,2.6-0.5,4.6-1.8,5.5
		c-0.9,0.9-2.6,1.4-5.1,1.4h-8.4c-2.5,0-4.2-0.5-5.5-1.4c-0.9-0.9-1.4-2.6-1.4-5.5V275.5c0-2.6,0.5-4.6,1.4-5.5
		c1.1-0.9,3-1.4,5.5-1.4h8.4c2.5,0,4.2,0.5,5.1,1.4c1.1,0.9,1.8,2.6,1.8,5.5V497.8z"/>
	<g>
		
			<radialGradient id="SVGID_1_" cx="2919.6494" cy="373.0172" r="1.7588" gradientTransform="matrix(1.100000e-14 186.11 -186.11 1.100000e-14 69816.1641 -543015.5625)" gradientUnits="userSpaceOnUse">
			<stop  offset="0" style="stop-color:#00DFBA"/>
			<stop  offset="1" style="stop-color:#212244"/>
		</radialGradient>
		<path class="st1" d="M132.7,33.1h522.4c36.6,0,66.1,29.5,66.1,66.1v522.4c0,36.6-29.5,66.1-66.1,66.1H132.7
			c-36.6,0-66.1-29.5-66.1-66.1V99.2C66.6,62.6,96.3,33.1,132.7,33.1z"/>
		<path class="st2" d="M310.6,400.9c-0.9,1.9-1.8,3.3-2.5,4c-0.7,0.5-1.9,0.9-3.7,0.9h-3c-1.1,0-1.9-0.2-2.5-0.5
			c-0.5-0.4-0.9-0.9-0.9-1.6c0-0.5,0.4-1.4,0.9-2.6l48.4-104.8c0.9-1.9,1.6-3.7,2.3-4.9c0.7-1.4,1.4-2.1,1.8-2.5
			c0.5-0.4,1.1-0.7,1.6-0.7c0.5,0,1.1,0.2,1.4,0.7c0.5,0.4,1.1,1.2,1.6,2.5c0.7,1.4,1.6,3,2.5,4.9l48.7,104.8
			c0.5,1.4,0.9,2.3,0.9,2.6c0,0.7-0.4,1.4-0.9,1.6c-0.5,0.4-1.4,0.5-2.5,0.5h-3.5c-1.6,0-2.8-0.4-3.7-0.9c-0.7-0.7-1.6-1.9-2.5-4
			L352.4,308L310.6,400.9z M475.2,402.3c0,1.4-0.4,2.3-0.9,2.6c-0.5,0.4-1.2,0.7-2.5,0.7h-4.2c-1.2,0-2.1-0.2-2.6-0.7
			c-0.5-0.5-0.7-1.4-0.7-2.6v-109c0-1.4,0.2-2.3,0.7-2.6s1.4-0.7,2.6-0.7h4.2c1.2,0,2.1,0.2,2.5,0.7c0.5,0.5,0.9,1.4,0.9,2.6V402.3z
			"/>
		<path class="st2" d="M310.6,400.9l-0.9-0.4l0,0L310.6,400.9z M308.1,404.7l0.5,0.7l0,0l0,0L308.1,404.7z M298.9,400.9l-0.9-0.4
			l0,0l0,0L298.9,400.9z M347.3,296.1l0.9,0.4l0,0L347.3,296.1z M349.8,291.1l-0.9-0.5l0,0l0,0L349.8,291.1z M351.5,288.5l0.5,0.7
			l0,0l0,0L351.5,288.5z M354.7,288.5l-0.7,0.7l0,0l0,0L354.7,288.5z M356.3,291.1l-0.9,0.4l0,0l0,0L356.3,291.1z M358.7,296.1
			l-0.9,0.4l0,0L358.7,296.1z M407.6,400.9l0.9-0.4l0,0l0,0L407.6,400.9z M407.6,405.1l0.5,0.9l0,0L407.6,405.1z M398,404.7
			l-0.7,0.7l0,0l0,0L398,404.7z M395.5,400.9l0.9-0.4l0,0L395.5,400.9z M352.9,307.8l0.9-0.4l-0.9-1.9l-0.9,1.9L352.9,307.8z
			 M309.7,400.4c-0.9,1.9-1.6,3.2-2.3,3.7l1.2,1.4c0.9-0.9,1.9-2.3,2.8-4.2L309.7,400.4z M307.4,404c-0.5,0.4-1.4,0.7-3,0.7v1.9
			c1.8,0,3.2-0.4,4.2-1.1L307.4,404z M304.4,404.6h-3v1.9h3V404.6z M301.4,404.6c-1.1,0-1.6-0.2-1.9-0.4l-1.1,1.6
			c0.7,0.5,1.8,0.7,3,0.7L301.4,404.6L301.4,404.6z M299.5,404.2c-0.2-0.2-0.4-0.4-0.4-0.9h-1.9c0,1.1,0.4,1.9,1.2,2.5L299.5,404.2z
			 M299.1,403.5c0,0,0-0.4,0.2-0.7c0.2-0.4,0.4-0.9,0.5-1.6l-1.8-0.7c-0.4,0.7-0.5,1.2-0.7,1.8c-0.2,0.5-0.2,0.9-0.2,1.2
			L299.1,403.5L299.1,403.5z M299.8,401.2l48.4-104.8l-1.8-0.9l-48.4,104.8L299.8,401.2z M348.2,296.4c0.9-1.9,1.6-3.7,2.3-4.9
			l-1.8-0.9c-0.7,1.4-1.4,3-2.3,4.9L348.2,296.4z M350.5,291.5c0.4-0.7,0.7-1.2,1.1-1.6c0.4-0.4,0.5-0.5,0.5-0.7l-1.2-1.6
			c-0.4,0.2-0.7,0.7-1.1,1.1c-0.4,0.5-0.7,1.1-1.1,1.8L350.5,291.5z M352.2,289.2c0.2-0.2,0.5-0.4,1.1-0.4v-1.9
			c-0.9,0-1.8,0.4-2.3,0.9L352.2,289.2z M353.1,288.8c0.2,0,0.5,0.2,0.9,0.4l1.4-1.4c-0.5-0.5-1.4-0.9-2.1-0.9v1.9H353.1z
			 M354,289.4c0.2,0,0.4,0.2,0.5,0.7c0.2,0.4,0.5,0.9,0.9,1.6l1.8-0.9c-0.4-0.7-0.7-1.2-1.1-1.8c-0.4-0.5-0.7-0.9-1.1-1.1L354,289.4
			z M355.4,291.5c0.7,1.2,1.6,3,2.5,4.9l1.8-0.7c-0.9-1.9-1.8-3.7-2.5-5.1L355.4,291.5z M357.9,296.4l48.7,104.8l1.8-0.9
			l-48.7-104.8L357.9,296.4z M406.6,401.2c0.4,0.7,0.5,1.2,0.5,1.6c0.2,0.4,0.2,0.7,0.2,0.7h1.9c0-0.4-0.2-0.9-0.2-1.2
			c-0.2-0.5-0.4-1.1-0.7-1.8L406.6,401.2z M407.5,403.5c0,0.5-0.2,0.7-0.4,0.9l1.1,1.6c0.9-0.5,1.2-1.4,1.2-2.5H407.5z M407.1,404.2
			c-0.4,0.2-0.9,0.4-1.9,0.4v1.9c1.2,0,2.3-0.2,3-0.7L407.1,404.2z M405,404.6h-3.5v1.9h3.5V404.6z M401.7,404.6
			c-1.6,0-2.6-0.4-3-0.7l-1.1,1.6c1.1,0.7,2.5,1.1,4.2,1.1v-1.9H401.7z M398.7,404c-0.5-0.5-1.4-1.6-2.3-3.7l-1.8,0.7
			c0.9,1.9,1.8,3.5,2.8,4.2L398.7,404z M396.4,400.4l-42.6-92.9l-1.8,0.9l42.6,92.9L396.4,400.4z M352.1,307.5l-42.6,92.9l1.8,0.9
			l42.6-92.9L352.1,307.5z M474.3,404.9l-0.5-0.7l0,0l0,0L474.3,404.9z M465.2,404.9l-0.7,0.7l0,0l0,0L465.2,404.9z M465.2,290.6
			l-0.5-0.7l0,0l0,0L465.2,290.6z M474.3,290.6l-0.7,0.7l0,0l0,0L474.3,290.6z M474.1,402.3c0,1.2-0.4,1.8-0.5,1.9l1.2,1.6
			c0.9-0.7,1.2-2.1,1.2-3.3h-1.9V402.3z M473.6,404.2c-0.2,0.2-0.7,0.4-1.8,0.4v1.9c1.2,0,2.5-0.2,3.2-0.9L473.6,404.2z
			 M471.8,404.6h-4.2v1.9h4.2V404.6z M467.8,404.6c-1.1,0-1.8-0.2-2.1-0.5l-1.2,1.6c0.9,0.7,1.9,0.9,3.2,0.9v-1.9H467.8z
			 M465.9,404.2c0,0-0.2-0.2-0.2-0.5c0-0.4-0.2-0.9-0.2-1.4h-1.9c0,0.7,0,1.4,0.2,1.9c0.2,0.5,0.4,1.1,0.7,1.4L465.9,404.2z
			 M465.3,402.3v-109h-1.9v109H465.3z M465.3,293.2c0-0.5,0-1.1,0.2-1.4c0-0.4,0.2-0.5,0.2-0.5l-1.4-1.4c-0.4,0.4-0.7,0.9-0.7,1.4
			c-0.2,0.5-0.2,1.2-0.2,1.9H465.3z M465.7,291.3c0.4-0.2,0.9-0.5,2.1-0.5v-1.9c-1.2,0-2.5,0.2-3.2,0.9L465.7,291.3z M467.8,290.8
			h4.2v-1.9h-4.2V290.8z M471.8,290.8c1.2,0,1.6,0.2,1.8,0.4l1.4-1.4c-0.7-0.7-1.9-0.9-3.2-0.9V290.8z M473.8,291.3
			c0.2,0.2,0.5,0.7,0.5,1.9h1.9c0-1.4-0.4-2.6-1.2-3.3L473.8,291.3z M474.1,293.2v109h1.9v-109H474.1z"/>
		<path class="st2" d="M563.3,176.8c-45-45-104.8-69.8-168.5-69.8s-123.5,24.8-168.5,69.8s-69.8,104.8-69.8,168.5
			s24.8,123.5,69.8,168.5s104.8,69.8,168.5,69.8c40.6,0,79.5-10,114.2-29c-12.1-7.9-21.1-20.2-24.6-34.6
			c-26.9,13.9-57.3,21.6-89.5,21.6c-108.3,0-196.3-88.1-196.3-196.3S286.5,149,394.6,149S591.1,237,591.1,345.3
			c0,39-11.4,75.5-31.1,105.9c13.9,4.9,25.3,15,32,27.8c26.7-39,41-85.3,41-133.7C633,281.6,608.3,221.8,563.3,176.8z"/>
		<path class="st2" d="M484.2,520.1c-1.2-4.6-1.8-9.1-1.8-14.1c0-32,26-58,58-58c6.9,0,13.4,1.2,19.3,3.3
			C541.3,480.4,515.1,504.3,484.2,520.1z"/>
		<path class="st2" d="M598.7,506.1c0,32-26,58-58,58c-11.6,0-22.7-3.5-31.8-9.5c19.7-10.7,38-24.4,54.3-40.8
			c10.7-10.7,20.4-22.5,28.8-34.8C596.4,487.1,598.7,496.4,598.7,506.1z"/>
	</g>
</g>
</svg>
