<svg xmlns="http://www.w3.org/2000/svg" width="39.299" height="39.3" viewBox="0 0 39.299 39.3">
  <g id="edit_2_" data-name="edit (2)" transform="translate(-0.002)">
    <g id="Group_1076" data-name="Group 1076" transform="translate(0.001)">
      <path id="Path_9492" data-name="Path 9492" d="M19.65,0A19.65,19.65,0,1,0,39.3,19.65,19.65,19.65,0,0,0,19.65,0Zm9.341,14.141-1.866,1.866-3.8-3.8L21.885,13.65l3.8,3.8-9.318,9.318-3.8-3.8-1.441,1.441,3.8,3.8L14,29.136l-.018-.018a.735.735,0,0,1-.469.337l-3.543.79a.737.737,0,0,1-.879-.88l.79-3.542a.738.738,0,0,1,.338-.469l-.018-.018,15-15a.564.564,0,0,1,.8,0l3,3A.564.564,0,0,1,28.991,14.141Z" transform="translate(-0.001)" fill="#212245"/>
    </g>
  </g>
</svg>
