<svg width="29" height="29" viewBox="0 0 29 29" fill="none" xmlns="http://www.w3.org/2000/svg">
<circle cx="14.5" cy="14.5" r="14.5" fill="black"/>
<path d="M20.1598 12.5796L17.5428 15.1094L17.4247 14.5579L17.423 14.5502C17.3032 14.0247 17.014 13.5531 16.6 13.208C16.1859 12.8629 15.67 12.6635 15.1315 12.6403L15.1188 12.6397H12.5151L13.2455 9.24146C13.3051 8.98417 13.4466 8.75318 13.6488 8.58327C13.851 8.41336 14.1029 8.31372 14.3666 8.29935H16.2127V7.05922H14.3525L14.327 7.05976C13.7885 7.08301 13.2726 7.28253 12.8586 7.62764C12.4446 7.97274 12.1554 8.44431 12.0356 8.9698L11.2467 12.6398H7.98964V13.8799H10.9801L9.71676 19.7585C9.6572 20.0158 9.51567 20.2468 9.31348 20.4167C9.11128 20.5866 8.85937 20.6863 8.59564 20.7007H6.74951V21.9408H8.62246L8.63521 21.9403C9.17369 21.917 9.68963 21.7176 10.1037 21.3725C10.5177 21.0274 10.8069 20.5559 10.9267 20.0304L12.2487 13.8799H15.0921C15.3557 13.8943 15.6075 13.9939 15.8097 14.1638C16.0118 14.3336 16.1534 14.5645 16.213 14.8217L16.4921 16.1253L12.0794 20.3906H13.8637L16.7978 17.5543L16.9943 18.4725L16.996 18.4803C17.1158 19.0058 17.405 19.4773 17.819 19.8224C18.2331 20.1675 18.749 20.367 19.2875 20.3902L21.3211 20.3906V19.1505H19.3271C19.0635 19.1361 18.8116 19.0365 18.6095 18.8667C18.4073 18.6969 18.2657 18.466 18.2061 18.2088L17.8487 16.5385L21.9441 12.5796H20.1598Z" fill="white"/>
</svg>
