<svg width="100" height="100" viewBox="0 0 100 100" fill="none" xmlns="http://www.w3.org/2000/svg">
<circle cx="49.5" cy="49.5" r="48.5" fill="#022D5B"/>
<path d="M51.4286 13C31.7852 13 15.8571 28.8961 15.8571 48.5H4L19.3748 63.8439L19.6514 64.3961L35.619 48.5H23.7619C23.7619 33.235 36.1329 20.8889 51.4286 20.8889C66.7243 20.8889 79.0952 33.235 79.0952 48.5C79.0952 63.765 66.7243 76.1111 51.4286 76.1111C43.8005 76.1111 36.8838 72.995 31.9038 67.9856L26.2914 73.5867C32.7338 80.0161 41.5871 84 51.4286 84C71.0719 84 87 68.1039 87 48.5C87 28.8961 71.0719 13 51.4286 13ZM47.4762 32.7222V52.4444L64.3924 62.4633L67.2381 57.6906L53.4048 49.4861V32.7222H47.4762Z" fill="#E5E5E5"/>
</svg>
