<?xml version="1.0" encoding="utf-8"?>
<!-- Generator: Adobe Illustrator 25.3.1, SVG Export Plug-In . SVG Version: 6.00 Build 0)  -->
<svg version="1.1" id="Layer_1" xmlns="http://www.w3.org/2000/svg" xmlns:xlink="http://www.w3.org/1999/xlink" x="0px" y="0px"
	 viewBox="0 0 2000 2000" style="enable-background:new 0 0 2000 2000;" xml:space="preserve">
<style type="text/css">
	.st0{fill:url(#SVGID_1_);}
	.st1{fill:#FFFFFF;}
</style>
<g>
	
		<radialGradient id="SVGID_1_" cx="1765.1617" cy="453.0641" r="5.2557" gradientTransform="matrix(1.100000e-14 186.11 -186.11 1.100000e-14 85319.7656 -327514.25)" gradientUnits="userSpaceOnUse">
		<stop  offset="0" style="stop-color:#00DFBA"/>
		<stop  offset="1" style="stop-color:#212244"/>
	</radialGradient>
	<path class="st0" d="M219.4,21.9h1561.2c109,0,197.5,88.5,197.5,197.5v1561.2c0,109-88.5,197.5-197.5,197.5H219.4
		c-109,0-197.5-88.5-197.5-197.5V219.4C21.9,110.3,110.3,21.9,219.4,21.9z"/>
	<path class="st1" d="M750.6,1120.6c-2.5,5.8-4.9,9.9-7.4,11.9c-2.5,1.6-5.8,2.5-10.7,2.5h-9.1c-3.3,0-5.8-0.4-7.4-1.6
		c-1.6-0.8-2.5-2.5-2.5-4.9c0-1.2,0.8-4.1,2.5-7.8l144.8-313.2c2.5-5.8,4.9-10.7,7-14.8c2.5-4.1,4.1-6.6,5.3-7.4
		c1.2-1.2,2.9-2.1,4.9-2.1c1.6,0,3.3,0.8,4.5,2.1c1.2,0.8,2.9,3.3,4.9,7.4c2.5,4.1,4.9,9.1,7.4,14.8l145.7,313.2
		c1.6,4.1,2.5,6.6,2.5,7.8c0,2.5-0.8,4.1-2.5,4.9c-1.6,0.8-4.1,1.6-7.4,1.6H1023c-4.9,0-8.6-0.8-10.7-2.5c-2.5-2.1-4.9-5.8-7.4-11.9
		L877.8,842.8L750.6,1120.6z M1242.4,1125.1c0,4.1-0.8,6.6-2.5,7.8c-1.2,1.2-3.7,2.1-7.4,2.1h-12.3c-3.7,0-6.2-0.8-7.8-2.1
		c-1.2-1.2-2.1-4.1-2.1-7.8V799.2c0-4.1,0.8-6.6,2.1-7.8c1.6-1.2,4.1-2.1,7.8-2.1h12.3c3.7,0,6.2,0.8,7.4,2.1
		c1.6,1.2,2.5,4.1,2.5,7.8V1125.1z"/>
	<path class="st1" d="M750.6,1120.6l-2.5-1.2l0,0L750.6,1120.6z M743.2,1132.5l1.6,2.5l0,0l0,0L743.2,1132.5z M716.1,1120.6
		l-2.5-1.2l0,0l0,0L716.1,1120.6z M860.5,807.4l2.5,1.2l0,0L860.5,807.4z M867.5,792.6L865,791l0,0l0,0L867.5,792.6z M872.8,785.2
		l1.6,2.5l0,0l0,0L872.8,785.2z M882.3,785.2l-2.1,2.1l0,0l0,0L882.3,785.2z M887.2,792.6l-2.5,1.2l0,0l0,0L887.2,792.6z
		 M894.7,807.4l-2.5,1.2l0,0L894.7,807.4z M1040.3,1120.6l2.5-1.2l0,0l0,0L1040.3,1120.6z M1040.3,1133.3l1.6,2.5l0,0L1040.3,1133.3
		z M1011.9,1132.5l-2.1,2.1l0,0l0,0L1011.9,1132.5z M1004.5,1120.6l2.5-1.2l0,0L1004.5,1120.6z M877.4,842.8l2.5-1.2l-2.5-5.8
		l-2.5,5.8L877.4,842.8z M747.7,1119.3c-2.5,5.8-4.9,9.5-6.6,10.7l3.7,4.5c2.9-2.5,5.3-7,8.2-12.8L747.7,1119.3z M741.6,1130
		c-1.6,1.2-4.5,2.1-9.1,2.1v5.8c5.3,0,9.5-0.8,12.3-2.9L741.6,1130z M732.1,1132.1h-9.1v5.8h9.1V1132.1z M723.5,1132.1
		c-3.3,0-4.9-0.4-5.8-1.2l-2.9,4.9c2.5,1.2,5.3,2.1,9.1,2.1v-5.8H723.5z M717.3,1130.9c-0.4-0.4-1.2-0.8-1.2-2.5h-5.8
		c0,2.9,1.2,5.8,3.7,7.4L717.3,1130.9z M716.5,1128.4c0,0,0-0.8,0.4-2.1c0.4-1.2,0.8-2.9,1.6-4.5l-5.3-2.1c-0.8,2.1-1.6,3.7-2.1,5.3
		c-0.4,1.2-0.8,2.9-0.8,3.7h6.2V1128.4z M718.5,1121.8l144.8-313.2l-5.3-2.5l-144.8,313.2L718.5,1121.8z M863.4,808.7
		c2.5-5.8,4.9-10.7,7-14.8l-5.3-2.5c-2.1,4.1-4.5,9.1-7,14.8L863.4,808.7z M870,793.8c1.2-2.1,2.1-3.3,2.9-4.5
		c0.8-1.2,1.2-1.6,1.6-2.1l-3.3-4.5c-0.8,0.8-2.1,2.1-2.9,3.3s-2.1,2.9-3.3,4.9L870,793.8z M874.9,787.3c0.8-0.8,1.6-1.2,2.9-1.2
		v-5.8c-2.9,0-4.9,0.8-7,2.9L874.9,787.3z M877.8,786c0.8,0,1.6,0.4,2.5,1.2l4.1-4.1c-1.6-1.6-4.1-2.9-6.6-2.9V786z M880.7,787.7
		c0.4,0,0.8,0.8,1.6,2.1s1.6,2.5,2.5,4.5l5.3-2.5c-0.8-2.1-2.1-3.7-2.9-4.9c-0.8-1.2-1.6-2.5-2.9-3.3L880.7,787.7z M884.8,793.8
		c2.1,3.7,4.5,8.6,7.4,14.4l5.3-2.5c-2.5-6.2-5.3-11.1-7.4-15.2L884.8,793.8z M892.2,808.7l145.7,313.2l5.3-2.5L897.5,806.2
		L892.2,808.7z M1037.9,1121.8c0.8,2.1,1.2,3.3,1.6,4.5s0.4,2.1,0.4,2.1h5.8c0-1.2-0.4-2.5-0.8-3.7c-0.4-1.2-1.2-3.3-2.1-5.3
		L1037.9,1121.8z M1039.9,1128.4c0,1.6-0.4,2.1-1.2,2.5l2.9,4.9c2.9-1.6,3.7-4.5,3.7-7.4L1039.9,1128.4L1039.9,1128.4z
		 M1039.1,1130.9c-0.8,0.4-2.9,1.2-5.8,1.2v5.8c3.3,0,6.6-0.4,9.1-2.1L1039.1,1130.9z M1032.9,1132.1h-10.3v5.8h10.3V1132.1z
		 M1022.6,1132.1c-4.9,0-7.8-0.8-9.1-2.1l-3.3,4.5c2.9,2.1,7.4,2.9,12.8,2.9v-5.3H1022.6z M1013.6,1130.4c-1.6-1.6-4.1-4.9-6.6-10.7
		l-5.3,2.5c2.5,6.2,5.3,10.3,8.2,12.8L1013.6,1130.4z M1007,1119.3L879.8,841.6l-5.3,2.5l127.2,277.8L1007,1119.3z M874.9,841.6
		l-127.2,277.8l5.3,2.5L880.3,844L874.9,841.6z M1239.9,1132.9l-1.6-2.1l0,0l0,0L1239.9,1132.9z M1212.3,1132.9l-2.1,2.1l0,0l0,0
		L1212.3,1132.9z M1212.3,791l-1.6-2.1l0,0l0,0L1212.3,791z M1239.9,791l-2.1,2.1l0,0l0,0L1239.9,791z M1239.5,1125.1
		c0,3.7-0.8,5.3-1.2,5.8l3.7,4.5c2.9-2.1,3.7-6.2,3.7-10.3H1239.5z M1238.3,1130.9c-0.4,0.4-2.1,1.2-5.3,1.2v5.8
		c3.7,0,7.4-0.8,9.5-2.9L1238.3,1130.9z M1232.5,1132.1h-12.3v5.8h12.3V1132.1z M1220.2,1132.1c-3.3,0-5.3-0.8-6.2-1.2l-3.7,4.5
		c2.5,2.1,5.8,2.5,9.9,2.5V1132.1z M1214.4,1130.9c0,0-0.4-0.4-0.8-1.6c-0.4-0.8-0.4-2.5-0.4-4.1h-5.8c0,2.1,0,4.1,0.4,5.8
		s1.2,3.3,2.1,4.1L1214.4,1130.9z M1213.2,1125.1V799.2h-5.8v325.9H1213.2z M1213.2,799.2c0-1.6,0-3.3,0.4-4.1
		c0.4-1.2,0.4-1.6,0.8-1.6l-4.1-4.1c-1.2,1.2-1.6,2.9-2.1,4.1c-0.4,1.6-0.4,3.7-0.4,5.8H1213.2z M1214.4,793.4
		c0.8-0.8,2.9-1.2,6.2-1.2V786c-3.7,0-7.4,0.8-9.9,2.5L1214.4,793.4z M1220.2,792.2h12.3V786h-12.3V792.2z M1232.5,792.2
		c3.3,0,4.9,0.8,5.3,1.2l4.1-4.1c-2.1-2.1-5.8-2.9-9.5-2.9V792.2z M1238.3,793.4c0.4,0.4,1.2,2.1,1.2,5.8h5.8
		c0-4.1-0.8-7.8-3.7-10.3L1238.3,793.4z M1239.5,799.2v325.9h5.8V799.2H1239.5z"/>
	<path class="st1" d="M1505.7,451.1c-134.6-134.6-313.2-208.6-503.7-208.6s-369.1,74.1-503.7,208.6S289.7,764.2,289.7,954.7
		s74.1,369.1,208.6,503.7S811.5,1667,1002.1,1667c121.4,0,237.4-30,341.1-86.4c-36.2-23.5-63-60.1-73.7-103.3
		c-80.2,41.2-171.2,64.6-267.5,64.6c-323.4,0-586.8-262.9-586.8-586.8s262.9-587.2,586.8-587.2s586.8,263.4,586.8,586.8
		c0,116.5-34.2,225.1-93,316.4c41.2,14.8,75.7,44.4,95.9,83.1c79.8-116.9,122.6-255.1,122.6-399.6
		C1714.4,764.6,1640.3,585.6,1505.7,451.1z"/>
	<path class="st1" d="M1269.5,1476.9c-3.3-13.6-5.3-27.6-5.3-42c0-95.9,77.8-173.7,173.7-173.7c20.6,0,39.9,3.3,58,9.9
		C1439.9,1358.4,1361.7,1429.6,1269.5,1476.9z"/>
	<path class="st1" d="M1611.9,1435c0,95.9-77.8,173.7-173.7,173.7c-35,0-67.5-10.3-95.1-28.4c58.8-32.1,113.6-73.2,162.5-121.8
		c32.1-32.1,60.9-67.1,86-104.1C1604.5,1378.6,1611.9,1406.2,1611.9,1435z"/>
</g>
</svg>
