<svg width="19" height="15" viewBox="0 0 19 15" fill="none" xmlns="http://www.w3.org/2000/svg">
<path d="M12.4688 7.5C12.4688 8.28736 12.156 9.04247 11.5992 9.59922C11.0425 10.156 10.2874 10.4688 9.5 10.4688C8.71264 10.4688 7.95753 10.156 7.40078 9.59922C6.84403 9.04247 6.53125 8.28736 6.53125 7.5C6.53125 6.71264 6.84403 5.95753 7.40078 5.40078C7.95753 4.84403 8.71264 4.53125 9.5 4.53125C10.2874 4.53125 11.0425 4.84403 11.5992 5.40078C12.156 5.95753 12.4688 6.71264 12.4688 7.5Z" fill="#999999"/>
<path d="M0 7.5C0 7.5 3.5625 0.96875 9.5 0.96875C15.4375 0.96875 19 7.5 19 7.5C19 7.5 15.4375 14.0312 9.5 14.0312C3.5625 14.0312 0 7.5 0 7.5ZM9.5 11.6562C10.6023 11.6562 11.6595 11.2184 12.4389 10.4389C13.2184 9.65946 13.6562 8.60231 13.6562 7.5C13.6562 6.39769 13.2184 5.34054 12.4389 4.56109C11.6595 3.78164 10.6023 3.34375 9.5 3.34375C8.39769 3.34375 7.34054 3.78164 6.56109 4.56109C5.78164 5.34054 5.34375 6.39769 5.34375 7.5C5.34375 8.60231 5.78164 9.65946 6.56109 10.4389C7.34054 11.2184 8.39769 11.6562 9.5 11.6562Z" fill="#999999"/>
</svg>
