<svg id="delete" xmlns="http://www.w3.org/2000/svg" width="52.59" height="68.957" viewBox="0 0 52.59 68.957">
  <path id="Path_9941" data-name="Path 9941" d="M75.91,6.269a3.533,3.533,0,0,1,3.66-3.558H94.615a3.532,3.532,0,0,1,3.659,3.558v3.9h2.711v-3.9A6.245,6.245,0,0,0,94.615,0H79.57A6.245,6.245,0,0,0,73.2,6.269v3.9H75.91Zm0,0" transform="translate(-60.797)" fill="#f52842"/>
  <path id="Path_9942" data-name="Path 9942" d="M33.689,171.948H65.744c3.091,0,5.489-2.719,5.489-6.1V124H28.2v41.849c0,3.381,2.4,6.1,5.49,6.1Zm24.668-41.476a1.355,1.355,0,1,1,2.711,0v32.022a1.355,1.355,0,1,1-2.711,0Zm-10,0a1.355,1.355,0,1,1,2.711,0v32.022a1.355,1.355,0,1,1-2.711,0Zm-10,0a1.355,1.355,0,1,1,2.711,0v32.022a1.355,1.355,0,1,1-2.711,0Zm0,0" transform="translate(-23.421 -102.991)" fill="#f52842"/>
  <path id="Path_9943" data-name="Path 9943" d="M3.389,74.777H49.2A3.389,3.389,0,1,0,49.2,68H3.389a3.389,3.389,0,0,0,0,6.777Zm0,0" transform="translate(0 -56.479)" fill="#f52842"/>
</svg>
