<svg xmlns="http://www.w3.org/2000/svg" width="154.927" height="170.989" viewBox="0 0 154.927 170.989">
  <g id="pdf" transform="translate(-24.049)">
    <path id="Path_11222" data-name="Path 11222" d="M176.674,25.936,153.039,2.3A7.808,7.808,0,0,0,147.482,0H47.97a7.868,7.868,0,0,0-7.859,7.859V85.667H34.585A10.548,10.548,0,0,0,24.049,96.2v48.188a10.548,10.548,0,0,0,10.536,10.536h82.99a7.868,7.868,0,0,0,7.859-7.859V109.589a7.868,7.868,0,0,0-7.859-7.859H34.585a5.526,5.526,0,0,1,0-11.053h5.526v2.85a2.5,2.5,0,0,0,5.009,0V7.859A2.853,2.853,0,0,1,47.97,5.009h96.548V29.276a5.188,5.188,0,0,0,5.182,5.182h24.266V163.131a2.853,2.853,0,0,1-2.849,2.849H47.97a2.852,2.852,0,0,1-2.849-2.849,2.5,2.5,0,0,0-5.009,0,7.868,7.868,0,0,0,7.859,7.859H171.117a7.868,7.868,0,0,0,7.859-7.859V31.494A7.806,7.806,0,0,0,176.674,25.936Zm-142.089,80.8h82.99a2.853,2.853,0,0,1,2.849,2.85v37.479a2.853,2.853,0,0,1-2.849,2.849H34.585a5.533,5.533,0,0,1-5.526-5.527V105.17A10.467,10.467,0,0,0,34.585,106.739ZM149.528,29.276V5.875L173.1,29.448H149.7A.173.173,0,0,1,149.528,29.276Z" fill="#c4314b"/>
    <path id="Path_11223" data-name="Path 11223" d="M231.576,371.2a2.5,2.5,0,0,0,2.5-2.5v-8.327h5.427a2.5,2.5,0,1,0,0-5.009H234.08v-5.419h6.112a2.5,2.5,0,0,0,0-5.009h-8.617a2.5,2.5,0,0,0-2.5,2.5v21.26a2.505,2.505,0,0,0,2.5,2.505Z" transform="translate(-136.552 -229.734)" fill="#c4314b"/>
    <path id="Path_11224" data-name="Path 11224" d="M156.18,370.708a2.5,2.5,0,0,0,1.765.727h.009c.178,0,4.374-.017,6.05-.046,6.189-.108,10.682-5.512,10.682-12.85,0-7.714-4.379-12.9-10.9-12.9H157.9a2.505,2.505,0,0,0-2.5,2.509v.016h0v20.424a3.523,3.523,0,0,0,.782,2.115Zm7.609-20.056c4.342,0,5.888,4.074,5.888,7.887,0,5.347-2.893,7.792-5.76,7.841-.8.014-2.219.025-3.476.033-.008-2.457-.025-13.2-.029-15.761Z" transform="translate(-87.483 -230.21)" fill="#c4314b"/>
    <path id="Path_11225" data-name="Path 11225" d="M90.45,371.119a2.5,2.5,0,0,0,2.5-2.5V361.8c1.244-.007,2.658-.013,3.459-.013a8.549,8.549,0,1,0,0-17.1H90.45a2.5,2.5,0,0,0-2.5,2.5h0v21.417a2.5,2.5,0,0,0,2.5,2.505ZM96.413,349.7a3.541,3.541,0,1,1,0,7.078c-.8,0-2.192.006-3.431.013-.007-1.279-.017-5.752-.02-7.091h3.451Z" transform="translate(-42.557 -229.577)" fill="#c4314b"/>
    <path id="Path_11226" data-name="Path 11226" d="M199.326,127.351c-6.156,1.943-12.474,4.632-15.845,8.111-2.781,2.87-3.285,6.2-1.383,9.137a5.977,5.977,0,0,0,5.06,3.034,6.661,6.661,0,0,0,2.38-.466c2.943-1.125,6.122-4.327,9.718-9.788,1.161-1.763,2.336-3.722,3.506-5.842q.639-.188,1.3-.374a124.94,124.94,0,0,1,22.084-4.013c4.278,4.137,8.7,7.361,12.471,8.24,4.148.967,7.436-.929,8.794-5.074a5.2,5.2,0,0,0-2.534-6.332c-2.477-1.5-6.782-2.218-12.793-2.149-1.28.015-2.631.067-4.037.154a95.691,95.691,0,0,1-8.215-9.788,96.553,96.553,0,0,1-5.554-8.4q.258-.89.491-1.754c1.712-6.35,2.323-11.211,1.815-14.45-.734-4.677-3.752-5.341-5.016-5.41-4.3-.233-7.2,1.938-7.753,5.807-.438,3.073.6,7.3,3.072,12.568.589,1.252,1.249,2.542,1.974,3.859q-.405,1.3-.88,2.708a143.92,143.92,0,0,1-8.66,20.224ZM187.3,142.611c-.179.022-.48.06-.995-.735a1.542,1.542,0,0,1-.084-1.8c.836-1.559,3.691-3.746,9.216-6.006-3.856,5.981-6.738,8.368-8.137,8.543Zm55.4-14.024a.891.891,0,0,1-.041.171c-.626,1.909-1.466,2.089-2.9,1.755a18.112,18.112,0,0,1-6.435-3.67C240.02,126.9,242.355,128.1,242.7,128.587ZM208.779,88.7c.1-.716.217-1.521,2.122-1.521q.18,0,.381.01c.57.695.864,3.787-.456,9.907-1.555-3.565-2.314-6.527-2.048-8.4Zm3.488,21.375c1.1,1.69,2.282,3.4,3.535,5.1,1.8,2.443,3.829,4.978,5.978,7.4-2.485.3-5.049.687-7.613,1.153-1.735.315-4.761.909-8.3,1.792q1.178-2.443,2.318-5.053c1.506-3.45,2.891-6.979,4.085-10.389Z" transform="translate(-104.51 -54.726)" fill="#c4314b"/>
  </g>
</svg>
