<svg width="24" height="24" viewBox="0 0 24 24" fill="none" xmlns="http://www.w3.org/2000/svg">
<rect width="24" height="24" rx="4" fill="#585974"/>
<path d="M15 17.25H8.89497C8.82071 16.987 8.71228 16.7348 8.57247 16.5L16.5 8.57251C16.9515 8.84955 17.4703 8.99742 18 9.00001C18.5615 9.00183 19.1122 8.84602 19.5896 8.55032C20.0669 8.25461 20.4517 7.83087 20.7001 7.32731C20.9486 6.82374 21.0507 6.26056 20.9949 5.70182C20.939 5.14309 20.7275 4.61124 20.3844 4.16676C20.0413 3.72229 19.5803 3.38304 19.0539 3.1876C18.5275 2.99216 17.9568 2.94838 17.4067 3.06125C16.8567 3.17411 16.3493 3.43908 15.9424 3.82602C15.5355 4.21295 15.2454 4.70632 15.105 5.25001H8.89497C8.71243 4.54301 8.2783 3.92687 7.67397 3.51706C7.06963 3.10725 6.33658 2.93191 5.61222 3.02392C4.88786 3.11592 4.22192 3.46895 3.73923 4.01683C3.25654 4.56471 2.99023 5.26983 2.99023 6.00001C2.99023 6.73019 3.25654 7.4353 3.73923 7.98318C4.22192 8.53106 4.88786 8.88409 5.61222 8.9761C6.33658 9.0681 7.06963 8.89277 7.67397 8.48296C8.2783 8.07315 8.71243 7.457 8.89497 6.75001H15.105C15.1792 7.01302 15.2877 7.26517 15.4275 7.50001L7.49997 15.4275C7.0485 15.1505 6.52967 15.0026 5.99997 15C5.43846 14.9982 4.88771 15.154 4.41037 15.4497C3.93303 15.7454 3.54826 16.1691 3.29983 16.6727C3.0514 17.1763 2.94928 17.7395 3.0051 18.2982C3.06091 18.8569 3.27241 19.3888 3.61555 19.8333C3.95868 20.2777 4.41967 20.617 4.94608 20.8124C5.47248 21.0079 6.04317 21.0516 6.59322 20.9388C7.14328 20.8259 7.65062 20.5609 8.05753 20.174C8.46444 19.7871 8.75459 19.2937 8.89497 18.75H15V21H21V15H15V17.25ZM5.99997 7.50001C5.7033 7.50001 5.41329 7.41203 5.16662 7.24721C4.91994 7.08239 4.72768 6.84812 4.61415 6.57403C4.50062 6.29994 4.47092 5.99834 4.52879 5.70737C4.58667 5.4164 4.72953 5.14913 4.93931 4.93935C5.14909 4.72957 5.41637 4.58671 5.70734 4.52883C5.99831 4.47095 6.29991 4.50066 6.574 4.61419C6.84809 4.72772 7.08236 4.91998 7.24718 5.16665C7.412 5.41333 7.49997 5.70334 7.49997 6.00001C7.49997 6.39783 7.34194 6.77936 7.06063 7.06067C6.77933 7.34197 6.3978 7.50001 5.99997 7.50001ZM18 4.50001C18.2966 4.50001 18.5867 4.58798 18.8333 4.7528C19.08 4.91762 19.2723 5.15189 19.3858 5.42598C19.4993 5.70007 19.529 6.00167 19.4712 6.29264C19.4133 6.58361 19.2704 6.85089 19.0606 7.06067C18.8509 7.27045 18.5836 7.41331 18.2926 7.47119C18.0016 7.52906 17.7 7.49936 17.426 7.38583C17.1519 7.27229 16.9176 7.08004 16.7528 6.83336C16.5879 6.58669 16.5 6.29668 16.5 6.00001C16.5 5.60218 16.658 5.22065 16.9393 4.93935C17.2206 4.65804 17.6022 4.50001 18 4.50001ZM5.99997 19.5C5.7033 19.5 5.41329 19.412 5.16662 19.2472C4.91994 19.0824 4.72768 18.8481 4.61415 18.574C4.50062 18.2999 4.47092 17.9983 4.52879 17.7074C4.58667 17.4164 4.72953 17.1491 4.93931 16.9393C5.14909 16.7296 5.41637 16.5867 5.70734 16.5288C5.99831 16.471 6.29991 16.5007 6.574 16.6142C6.84809 16.7277 7.08236 16.92 7.24718 17.1667C7.412 17.4133 7.49997 17.7033 7.49997 18C7.49997 18.3978 7.34194 18.7794 7.06063 19.0607C6.77933 19.342 6.3978 19.5 5.99997 19.5ZM16.5 16.5H19.5V19.5H16.5V16.5Z" fill="#73EDD9"/>
</svg>
