<svg width="30" height="30" viewBox="0 0 30 30" fill="none" xmlns="http://www.w3.org/2000/svg">
<g opacity="0.6">
<path d="M19.013 22H10.873C10.774 21.6493 10.6294 21.3131 10.443 21L21.013 10.43C21.6149 10.7994 22.3067 10.9966 23.013 11C23.7617 11.0024 24.496 10.7947 25.1325 10.4004C25.7689 10.0061 26.2819 9.44116 26.6132 8.76974C26.9444 8.09831 27.0806 7.34741 27.0061 6.60243C26.9317 5.85745 26.6497 5.14831 26.1922 4.55568C25.7347 3.96305 25.12 3.51072 24.4182 3.25013C23.7163 2.98955 22.9554 2.93118 22.222 3.08166C21.4886 3.23214 20.8121 3.58544 20.2696 4.10135C19.727 4.61727 19.3402 5.2751 19.153 6.00001H10.873C10.6296 5.05735 10.0508 4.23582 9.24497 3.68941C8.4392 3.143 7.4618 2.90922 6.49598 3.03189C5.53017 3.15457 4.64225 3.62527 3.99866 4.35578C3.35507 5.08628 3 6.02643 3 7.00001C3 7.97358 3.35507 8.91373 3.99866 9.64424C4.64225 10.3747 5.53017 10.8455 6.49598 10.9681C7.4618 11.0908 8.4392 10.857 9.24497 10.3106C10.0508 9.7642 10.6296 8.94267 10.873 8.00001H19.153C19.252 8.3507 19.3966 8.68689 19.583 9.00001L9.01298 19.57C8.41102 19.2006 7.71924 19.0035 7.01298 19C6.2643 18.9976 5.52997 19.2053 4.89351 19.5996C4.25705 19.9939 3.74403 20.5588 3.41279 21.2303C3.08155 21.9017 2.9454 22.6526 3.01982 23.3976C3.09423 24.1426 3.37624 24.8517 3.83375 25.4443C4.29126 26.037 4.90592 26.4893 5.60779 26.7499C6.30966 27.0105 7.07058 27.0688 7.80398 26.9183C8.53739 26.7679 9.21384 26.4146 9.75639 25.8987C10.2989 25.3827 10.6858 24.7249 10.873 24H19.013V27H27.013V19H19.013V22ZM7.01298 9.00001C6.61742 9.00001 6.23074 8.88271 5.90184 8.66295C5.57294 8.44318 5.3166 8.13083 5.16522 7.76537C5.01385 7.39992 4.97424 6.99779 5.05141 6.60983C5.12858 6.22187 5.31906 5.8655 5.59877 5.58579C5.87847 5.30609 6.23484 5.11561 6.6228 5.03844C7.01076 4.96127 7.4129 5.00087 7.77835 5.15225C8.1438 5.30362 8.45616 5.55997 8.67592 5.88887C8.89568 6.21777 9.01298 6.60445 9.01298 7.00001C9.01298 7.53044 8.80227 8.03915 8.4272 8.41422C8.05212 8.78929 7.54342 9.00001 7.01298 9.00001ZM23.013 5.00001C23.4085 5.00001 23.7952 5.11731 24.1241 5.33707C24.453 5.55683 24.7094 5.86919 24.8607 6.23464C25.0121 6.60009 25.0517 7.00223 24.9745 7.39019C24.8974 7.77815 24.7069 8.13452 24.4272 8.41422C24.1475 8.69393 23.7911 8.88441 23.4032 8.96158C23.0152 9.03875 22.6131 8.99914 22.2476 8.84777C21.8822 8.69639 21.5698 8.44005 21.35 8.11115C21.1303 7.78225 21.013 7.39557 21.013 7.00001C21.013 6.46958 21.2237 5.96087 21.5988 5.58579C21.9738 5.21072 22.4825 5.00001 23.013 5.00001ZM7.01298 25C6.61742 25 6.23074 24.8827 5.90184 24.6629C5.57294 24.4432 5.3166 24.1308 5.16522 23.7654C5.01385 23.3999 4.97424 22.9978 5.05141 22.6098C5.12858 22.2219 5.31906 21.8655 5.59877 21.5858C5.87847 21.3061 6.23484 21.1156 6.6228 21.0384C7.01076 20.9613 7.4129 21.0009 7.77835 21.1522C8.1438 21.3036 8.45616 21.56 8.67592 21.8889C8.89568 22.2178 9.01298 22.6044 9.01298 23C9.01298 23.5304 8.80227 24.0391 8.4272 24.4142C8.05212 24.7893 7.54342 25 7.01298 25ZM21.013 21H25.013V25H21.013V21Z" fill="black"/>
</g>
</svg>
