<svg xmlns="http://www.w3.org/2000/svg" width="67.963" height="67.979" viewBox="0 0 67.963 67.979">
  <g id="ss" transform="translate(-9.998 -9.975)">
    <path id="Path_9489" data-name="Path 9489" d="M77.147,36.5a2.851,2.851,0,0,0-2.589-1.8l-3.072-.2q-.465-1.385-1.067-2.719l2.331-2.6a2.861,2.861,0,0,0,.551-3.16A28.694,28.694,0,0,0,63.31,15.912a2.114,2.114,0,0,0-1.1-.285,3.262,3.262,0,0,0-2.073.8l-2.148,1.889a28.9,28.9,0,0,0-4.513-2.039q-.082-1.414-.177-2.827a2.861,2.861,0,0,0-1.93-2.617,31.827,31.827,0,0,0-14.864.041,2.868,2.868,0,0,0-1.93,2.617q-.1,1.468-.184,2.922c-.87.313-1.726.68-2.562,1.053L29.79,15.606a3.242,3.242,0,0,0-2.12-.856A2.039,2.039,0,0,0,26.657,15a27.26,27.26,0,0,0-9.943,9.624,2.857,2.857,0,0,0,.5,3.154L18.8,29.627a28.858,28.858,0,0,0-1.923,4.227L13.608,34a2.853,2.853,0,0,0-2.637,1.74,24.963,24.963,0,0,0-.156,13.239A2.824,2.824,0,0,0,13.4,50.77l2.678.177a28.769,28.769,0,0,0,2.508,6.409l-1.876,2.093a2.933,2.933,0,0,0-.551,3.167,28.728,28.728,0,0,0,9.977,10.106,2.121,2.121,0,0,0,1.094.285,3.262,3.262,0,0,0,2.073-.8l2.576-2.27c.8.374,1.624.68,2.46,1.013.075,1.23.143,2.386.217,3.521a2.868,2.868,0,0,0,1.944,2.6,31.827,31.827,0,0,0,14.877,0,2.854,2.854,0,0,0,1.93-2.61c.082-1.176.15-2.324.211-3.4A28.852,28.852,0,0,0,57.2,69.5l2.474,2.284a3.249,3.249,0,0,0,2.12.863,2.039,2.039,0,0,0,1.013-.251,27.3,27.3,0,0,0,9.957-9.63,2.881,2.881,0,0,0-.51-3.147c-.686-.8-1.522-1.787-2.447-2.82a28.893,28.893,0,0,0,2.039-5.206l2.515-.143a2.854,2.854,0,0,0,2.63-1.74A24.956,24.956,0,0,0,77.147,36.5ZM43.981,62.025A18.051,18.051,0,1,1,62.032,43.974,18.051,18.051,0,0,1,43.981,62.025Z" transform="translate(0 0)" fill="#212245"/>
    <path id="Path_9490" data-name="Path 9490" d="M52.729,36.5A15.632,15.632,0,1,0,68.273,50.97,15.631,15.631,0,0,0,52.729,36.5Zm-.082,29.224a13.263,13.263,0,1,1,0,.02Z" transform="translate(-8.667 -8.497)" fill="#212245"/>
    <path id="Path_9491" data-name="Path 9491" d="M54.233,42A12.233,12.233,0,1,0,66.467,54.233,12.234,12.234,0,0,0,54.233,42Zm0,19.546a7.329,7.329,0,1,1,0,.02Z" transform="translate(-10.252 -10.26)" fill="#212245"/>
  </g>
</svg>
