<svg xmlns="http://www.w3.org/2000/svg" width="20.867" height="20.867" viewBox="0 0 20.867 20.867">
  <g id="Group_2466" data-name="Group 2466" transform="translate(22084.867 -17620.133)">
    <g id="check" transform="translate(-22084.867 17620.133)">
      <path id="Path_11441" data-name="Path 11441" d="M10.434,0A10.434,10.434,0,1,0,20.867,10.434,10.445,10.445,0,0,0,10.434,0Zm0,0" fill="#00dfba"/>
    </g>
    <g id="refreshing" transform="translate(-22080.295 17625.027)">
      <path id="Path_11448" data-name="Path 11448" d="M26.559,169.65l-.38-1.455a.878.878,0,0,0-1.249-.568l-1.477.735a.735.735,0,0,0,.36,1.392,3.972,3.972,0,0,1-6.948-1.254.735.735,0,0,0-1.406.429,5.48,5.48,0,0,0,1.936,2.759,5.437,5.437,0,0,0,6.529,0,5.478,5.478,0,0,0,1.321-1.431.735.735,0,0,0,1.314-.606Z" transform="translate(-14.861 -161.699)" fill="#fff"/>
      <path id="Path_11449" data-name="Path 11449" d="M.892,13.951a.872.872,0,0,0,.362.078.9.9,0,0,0,.4-.095L3.13,13.2a.735.735,0,0,0-.36-1.392,3.972,3.972,0,0,1,6.948,1.254.735.735,0,1,0,1.406-.429A5.48,5.48,0,0,0,9.188,9.874a5.437,5.437,0,0,0-6.529,0,5.479,5.479,0,0,0-1.321,1.431.734.734,0,0,0-1.313.606L.4,13.366A.882.882,0,0,0,.892,13.951Z" transform="translate(0 -8.785)" fill="#fff"/>
    </g>
  </g>
</svg>
