<svg xmlns="http://www.w3.org/2000/svg" width="37.609" height="37.609" viewBox="0 0 37.609 37.609">
  <g id="Group_1080" data-name="Group 1080" transform="translate(-651 -203)">
    <g id="gear_2_" data-name="gear (2)" transform="translate(651 203)">
      <path id="Path_8420" data-name="Path 8420" d="M36.724,14.522l-2.891-.628a15.731,15.731,0,0,0-.93-2.243l1.6-2.489a1.124,1.124,0,0,0-.151-1.4l-4.5-4.5a1.124,1.124,0,0,0-1.4-.151l-2.489,1.6a15.731,15.731,0,0,0-2.243-.93L23.087.885A1.124,1.124,0,0,0,21.989,0H15.62a1.124,1.124,0,0,0-1.1.885l-.628,2.891a15.731,15.731,0,0,0-2.243.93l-2.489-1.6a1.124,1.124,0,0,0-1.4.151l-4.5,4.5a1.124,1.124,0,0,0-.151,1.4l1.6,2.489a15.732,15.732,0,0,0-.93,2.243l-2.891.628A1.124,1.124,0,0,0,0,15.62v6.368a1.124,1.124,0,0,0,.885,1.1l2.891.628a15.731,15.731,0,0,0,.93,2.243l-1.6,2.489a1.124,1.124,0,0,0,.151,1.4l4.5,4.5a1.124,1.124,0,0,0,1.4.151l2.489-1.6a15.732,15.732,0,0,0,2.243.93l.628,2.891a1.124,1.124,0,0,0,1.1.885h6.368a1.124,1.124,0,0,0,1.1-.885l.628-2.891a15.731,15.731,0,0,0,2.243-.93l2.489,1.6a1.124,1.124,0,0,0,1.4-.151l4.5-4.5a1.124,1.124,0,0,0,.151-1.4l-1.6-2.489a15.731,15.731,0,0,0,.93-2.243l2.891-.628a1.124,1.124,0,0,0,.885-1.1V15.62A1.124,1.124,0,0,0,36.724,14.522ZM18.8,27.795a8.99,8.99,0,1,1,8.99-8.99A9,9,0,0,1,18.8,27.795Zm0,0" transform="translate(0 0)" fill="#91cbe8"/>
      <path id="Path_8421" data-name="Path 8421" d="M271.737,14.522l-2.891-.628a15.717,15.717,0,0,0-.93-2.243l1.6-2.489a1.124,1.124,0,0,0-.151-1.4l-4.5-4.5a1.124,1.124,0,0,0-1.4-.151l-2.489,1.6a15.734,15.734,0,0,0-2.243-.93L258.1.885A1.124,1.124,0,0,0,257,0h-3.357V9.817l.173,0a8.99,8.99,0,1,1,0,17.981l-.173,0v9.817H257a1.124,1.124,0,0,0,1.1-.885l.628-2.891a15.732,15.732,0,0,0,2.243-.93l2.489,1.6a1.124,1.124,0,0,0,1.4-.151l4.5-4.5a1.124,1.124,0,0,0,.151-1.4l-1.6-2.489a15.717,15.717,0,0,0,.93-2.243l2.891-.628a1.124,1.124,0,0,0,.885-1.1V15.621a1.124,1.124,0,0,0-.885-1.1Zm0,0" transform="translate(-235.013 0)" fill="#6aa9cc"/>
    </g>
    <path id="Path_8422" data-name="Path 8422" d="M-23471.836-1356.117l10.18,4.913-10.18,5.1Z" transform="translate(24137.15 1573.432)" fill="#4677b5"/>
  </g>
</svg>
