<svg width="343" height="58" viewBox="0 0 343 58" fill="none" xmlns="http://www.w3.org/2000/svg">
<path d="M65.9351 29.5669C65.9351 27.5779 66.4026 25.758 67.3374 24.1071C68.2921 22.4562 69.575 21.1633 71.1862 20.2285C72.8172 19.2737 74.5973 18.7964 76.5267 18.7964C78.5157 18.7964 80.3158 19.2638 81.9269 20.1986C83.538 21.1335 84.801 22.4164 85.716 24.0474C86.6508 25.6784 87.1183 27.5083 87.1183 29.5371C87.1183 31.2874 86.7503 32.9085 86.0143 34.4003C85.2784 35.892 84.2541 37.1352 82.9413 38.1297C81.6285 39.1242 80.1467 39.7706 78.4958 40.069L81.0617 44.0073C81.1213 44.1067 81.1711 44.1962 81.2109 44.2758C81.2506 44.3553 81.2705 44.425 81.2705 44.4846C81.2705 44.6835 81.0517 44.783 80.6141 44.783H79.8086C79.5301 44.783 79.3113 44.7333 79.1522 44.6338C79.013 44.5543 78.8439 44.3653 78.645 44.0669L76.1985 40.2778C74.2493 40.2381 72.489 39.7408 70.9176 38.7861C69.3662 37.8313 68.1429 36.5484 67.2479 34.9373C66.3727 33.3262 65.9351 31.5361 65.9351 29.5669ZM67.9639 29.5669C67.9639 31.2178 68.3319 32.7195 69.0678 34.0721C69.8237 35.4047 70.848 36.4589 72.1409 37.2346C73.4536 37.9905 74.9056 38.3684 76.4969 38.3684C78.0483 38.3684 79.4804 37.9805 80.7932 37.2048C82.1059 36.4291 83.1502 35.3749 83.9259 34.0422C84.7016 32.6897 85.0895 31.1979 85.0895 29.5669C85.0895 27.8763 84.7016 26.3547 83.9259 25.0021C83.17 23.6496 82.1357 22.5954 80.823 21.8396C79.5102 21.0837 78.0682 20.7058 76.4969 20.7058C74.9454 20.7058 73.5133 21.0937 72.2006 21.8694C70.9077 22.6252 69.8734 23.6794 69.0977 25.032C68.3419 26.3646 67.9639 27.8763 67.9639 29.5669ZM111.541 31.1482C111.541 33.1372 111.183 34.818 110.467 36.1904C109.751 37.5628 108.766 38.5872 107.513 39.2634C106.26 39.9397 104.828 40.2778 103.217 40.2778C101.645 40.2778 100.253 39.9497 99.0396 39.2933C97.8462 38.6369 96.9014 37.6424 96.2052 36.3097C95.5091 34.9572 95.161 33.2765 95.161 31.2676V19.6914C95.161 19.4527 95.2008 19.2936 95.2803 19.2141C95.3798 19.1345 95.5389 19.0947 95.7577 19.0947H96.5036C96.7224 19.0947 96.8716 19.1345 96.9511 19.2141C97.0506 19.2936 97.1003 19.4527 97.1003 19.6914V31.1781C97.1003 32.6698 97.339 33.9527 97.8163 35.0268C98.2937 36.1009 98.9998 36.9263 99.9347 37.5032C100.869 38.08 101.993 38.3684 103.306 38.3684C104.619 38.3684 105.743 38.08 106.677 37.5032C107.632 36.9263 108.358 36.1108 108.855 35.0567C109.353 33.9826 109.601 32.7096 109.601 31.2377V19.6914C109.601 19.4527 109.641 19.2936 109.721 19.2141C109.82 19.1345 109.979 19.0947 110.198 19.0947H110.944C111.163 19.0947 111.312 19.1345 111.391 19.2141C111.491 19.2936 111.541 19.4527 111.541 19.6914V31.1482ZM119.745 39.1143C119.586 39.4723 119.437 39.711 119.297 39.8303C119.158 39.9298 118.939 39.9795 118.641 39.9795H118.104C117.905 39.9795 117.756 39.9497 117.656 39.89C117.557 39.8303 117.507 39.7309 117.507 39.5916C117.507 39.5121 117.557 39.3529 117.656 39.1143L126.398 20.1986C126.557 19.8406 126.697 19.5422 126.816 19.3036C126.955 19.0649 127.065 18.9157 127.144 18.856C127.224 18.7765 127.323 18.7367 127.442 18.7367C127.542 18.7367 127.631 18.7765 127.711 18.856C127.79 18.9157 127.89 19.0649 128.009 19.3036C128.149 19.5422 128.298 19.8406 128.457 20.1986L137.258 39.1143C137.358 39.3529 137.407 39.5121 137.407 39.5916C137.407 39.7309 137.358 39.8303 137.258 39.89C137.159 39.9497 137.01 39.9795 136.811 39.9795H136.184C135.886 39.9795 135.667 39.9298 135.528 39.8303C135.389 39.711 135.239 39.4723 135.08 39.1143L127.413 22.3468L119.745 39.1143ZM158.531 19.6914C158.531 19.4527 158.57 19.2936 158.65 19.2141C158.749 19.1345 158.909 19.0947 159.127 19.0947H159.873C160.092 19.0947 160.241 19.1345 160.321 19.2141C160.42 19.2936 160.47 19.4527 160.47 19.6914V39.3828C160.47 39.701 160.42 39.9298 160.321 40.069C160.221 40.2082 160.082 40.2778 159.903 40.2778C159.744 40.2778 159.585 40.2182 159.426 40.0988C159.286 39.9795 159.078 39.7408 158.799 39.3828L146.03 23.1225V39.3828C146.03 39.6215 145.98 39.7806 145.88 39.8602C145.801 39.9397 145.652 39.9795 145.433 39.9795H144.687C144.468 39.9795 144.309 39.9397 144.21 39.8602C144.13 39.7806 144.09 39.6215 144.09 39.3828V19.6914C144.09 19.3732 144.14 19.1444 144.24 19.0052C144.339 18.866 144.478 18.7964 144.657 18.7964C144.816 18.7964 144.966 18.856 145.105 18.9754C145.264 19.0947 145.483 19.3334 145.761 19.6914L158.531 35.9517V19.6914ZM183.452 20.4075C183.452 20.6462 183.403 20.8053 183.303 20.8848C183.224 20.9644 183.074 21.0042 182.856 21.0042H176.799C176.6 21.0042 176.501 21.1036 176.501 21.3025V39.3828C176.501 39.6215 176.451 39.7806 176.351 39.8602C176.272 39.9397 176.123 39.9795 175.904 39.9795H175.158C174.939 39.9795 174.78 39.9397 174.681 39.8602C174.601 39.7806 174.561 39.6215 174.561 39.3828V21.3025C174.561 21.1036 174.462 21.0042 174.263 21.0042H168.206C167.988 21.0042 167.829 20.9644 167.729 20.8848C167.649 20.8053 167.61 20.6462 167.61 20.4075V19.6914C167.61 19.4527 167.649 19.2936 167.729 19.2141C167.829 19.1345 167.988 19.0947 168.206 19.0947H182.856C183.074 19.0947 183.224 19.1345 183.303 19.2141C183.403 19.2936 183.452 19.4527 183.452 19.6914V20.4075ZM206.83 31.1482C206.83 33.1372 206.472 34.818 205.756 36.1904C205.04 37.5628 204.055 38.5872 202.802 39.2634C201.549 39.9397 200.117 40.2778 198.506 40.2778C196.934 40.2778 195.542 39.9497 194.329 39.2933C193.135 38.6369 192.191 37.6424 191.494 36.3097C190.798 34.9572 190.45 33.2765 190.45 31.2676V19.6914C190.45 19.4527 190.49 19.2936 190.569 19.2141C190.669 19.1345 190.828 19.0947 191.047 19.0947H191.793C192.011 19.0947 192.161 19.1345 192.24 19.2141C192.34 19.2936 192.389 19.4527 192.389 19.6914V31.1781C192.389 32.6698 192.628 33.9527 193.105 35.0268C193.583 36.1009 194.289 36.9263 195.224 37.5032C196.159 38.08 197.282 38.3684 198.595 38.3684C199.908 38.3684 201.032 38.08 201.967 37.5032C202.921 36.9263 203.647 36.1108 204.145 35.0567C204.642 33.9826 204.89 32.7096 204.89 31.2377V19.6914C204.89 19.4527 204.93 19.2936 205.01 19.2141C205.109 19.1345 205.268 19.0947 205.487 19.0947H206.233C206.452 19.0947 206.601 19.1345 206.681 19.2141C206.78 19.2936 206.83 19.4527 206.83 19.6914V31.1482ZM218.123 39.3828C218.123 39.6215 218.073 39.7806 217.974 39.8602C217.894 39.9397 217.745 39.9795 217.526 39.9795H216.78C216.562 39.9795 216.402 39.9397 216.303 39.8602C216.223 39.7806 216.184 39.6215 216.184 39.3828V19.6914C216.184 19.3931 216.223 19.1743 216.303 19.035C216.383 18.8759 216.522 18.7964 216.721 18.7964C216.88 18.7964 217.029 18.856 217.168 18.9754C217.307 19.0947 217.516 19.3235 217.795 19.6616L225.97 29.9548L234.025 19.6616C234.304 19.3235 234.512 19.0947 234.652 18.9754C234.791 18.856 234.94 18.7964 235.099 18.7964C235.298 18.7964 235.437 18.8759 235.517 19.035C235.596 19.1743 235.636 19.3931 235.636 19.6914V39.3828C235.636 39.6215 235.587 39.7806 235.487 39.8602C235.408 39.9397 235.258 39.9795 235.04 39.9795H234.294C234.075 39.9795 233.916 39.9397 233.816 39.8602C233.737 39.7806 233.697 39.6215 233.697 39.3828V23.1822L226.924 31.6853C226.666 32.0234 226.467 32.2521 226.328 32.3715C226.208 32.4709 226.069 32.5206 225.91 32.5206C225.751 32.5206 225.602 32.4709 225.462 32.3715C225.343 32.2521 225.154 32.0234 224.896 31.6853L218.123 23.1822V39.3828ZM247.059 39.3828C247.059 39.6215 247.009 39.7806 246.909 39.8602C246.83 39.9397 246.681 39.9795 246.462 39.9795H245.716C245.497 39.9795 245.338 39.9397 245.239 39.8602C245.159 39.7806 245.119 39.6215 245.119 39.3828V19.6914C245.119 19.4527 245.159 19.2936 245.239 19.2141C245.338 19.1345 245.497 19.0947 245.716 19.0947H246.462C246.681 19.0947 246.83 19.1345 246.909 19.2141C247.009 19.2936 247.059 19.4527 247.059 19.6914V39.3828ZM265.704 38.3684C266.957 38.3684 268.12 38.1695 269.194 37.7717C270.288 37.354 271.283 36.7672 272.178 36.0114C272.377 35.8523 272.536 35.7727 272.655 35.7727C272.794 35.7727 272.924 35.8622 273.043 36.0412L273.491 36.6379C273.59 36.7971 273.64 36.9164 273.64 36.996C273.64 37.1352 273.54 37.2943 273.341 37.4733C272.287 38.3684 271.094 39.0645 269.761 39.5618C268.448 40.0392 267.066 40.2778 265.614 40.2778C263.744 40.2778 262.014 39.8204 260.423 38.9054C258.832 37.9905 257.568 36.7175 256.634 35.0865C255.699 33.4555 255.231 31.6256 255.231 29.5968C255.231 27.568 255.699 25.7381 256.634 24.1071C257.568 22.4562 258.841 21.1633 260.453 20.2285C262.064 19.2737 263.844 18.7964 265.793 18.7964C267.205 18.7964 268.558 19.045 269.851 19.5422C271.144 20.0395 272.297 20.7058 273.312 21.5412C273.491 21.6805 273.58 21.8197 273.58 21.9589C273.58 22.0584 273.52 22.1976 273.401 22.3766L272.954 22.9435C272.794 23.1424 272.655 23.2418 272.536 23.2418C272.476 23.2418 272.407 23.2219 272.327 23.1822C272.247 23.1225 272.158 23.0628 272.059 23.0032C271.163 22.2871 270.169 21.7302 269.075 21.3324C268.001 20.9147 266.877 20.7058 265.704 20.7058C264.152 20.7058 262.73 21.0837 261.437 21.8396C260.164 22.5954 259.15 23.6496 258.394 25.0021C257.638 26.3348 257.26 27.8564 257.26 29.5669C257.26 31.1979 257.628 32.6897 258.364 34.0422C259.12 35.3749 260.144 36.4291 261.437 37.2048C262.73 37.9805 264.152 38.3684 265.704 38.3684ZM286.478 18.7964C288.864 18.7964 291.042 19.5522 293.012 21.0639C293.211 21.2031 293.31 21.3423 293.31 21.4815C293.31 21.581 293.24 21.7103 293.101 21.8694L292.564 22.5258C292.425 22.7247 292.296 22.8241 292.176 22.8241C292.037 22.8241 291.888 22.7545 291.729 22.6153C290.893 22.0186 290.038 21.5512 289.163 21.213C288.308 20.8749 287.393 20.7058 286.418 20.7058C285.543 20.7058 284.767 20.855 284.091 21.1534C283.415 21.4517 282.887 21.8893 282.51 22.4661C282.132 23.023 281.943 23.6894 281.943 24.4651C281.943 25.2408 282.122 25.8773 282.48 26.3746C282.858 26.8718 283.405 27.2796 284.121 27.5978C284.837 27.916 285.811 28.2343 287.045 28.5525C288.576 28.9503 289.799 29.3979 290.714 29.8951C291.629 30.3725 292.315 30.9692 292.773 31.6853C293.23 32.4013 293.459 33.2864 293.459 34.3406C293.459 35.5141 293.141 36.5484 292.504 37.4435C291.868 38.3385 290.993 39.0347 289.879 39.532C288.765 40.0292 287.502 40.2778 286.09 40.2778C284.797 40.2778 283.574 40.0491 282.42 39.5916C281.286 39.1143 280.242 38.4778 279.287 37.6822C279.088 37.5429 278.989 37.4037 278.989 37.2645C278.989 37.1451 279.059 37.0059 279.198 36.8468L279.765 36.1606C279.904 35.9815 280.033 35.892 280.153 35.892C280.232 35.892 280.361 35.9617 280.54 36.1009C282.41 37.6126 284.29 38.3684 286.179 38.3684C287.233 38.3684 288.148 38.2093 288.924 37.891C289.72 37.5728 290.326 37.1252 290.744 36.5484C291.182 35.9517 291.4 35.2556 291.4 34.4599C291.4 33.724 291.231 33.1273 290.893 32.6698C290.575 32.1925 290.048 31.7847 289.312 31.4466C288.596 31.0885 287.582 30.7405 286.269 30.4023C284.817 30.0244 283.633 29.6167 282.718 29.1791C281.823 28.7415 281.127 28.1547 280.63 27.4188C280.133 26.6829 279.884 25.7381 279.884 24.5844C279.884 23.4109 280.172 22.3866 280.749 21.5114C281.346 20.6362 282.142 19.9699 283.136 19.5124C284.131 19.035 285.244 18.7964 286.478 18.7964ZM300.723 38.8756C300.723 38.4778 300.852 38.1496 301.111 37.891C301.389 37.6324 301.717 37.5032 302.095 37.5032C302.493 37.5032 302.821 37.6324 303.08 37.891C303.338 38.1297 303.468 38.4579 303.468 38.8756C303.468 39.2734 303.338 39.6016 303.08 39.8602C302.821 40.0988 302.493 40.2182 302.095 40.2182C301.717 40.2182 301.389 40.0988 301.111 39.8602C300.852 39.6016 300.723 39.2734 300.723 38.8756ZM312.978 39.1143C312.819 39.4723 312.67 39.711 312.53 39.8303C312.391 39.9298 312.172 39.9795 311.874 39.9795H311.337C311.138 39.9795 310.989 39.9497 310.89 39.89C310.79 39.8303 310.74 39.7309 310.74 39.5916C310.74 39.5121 310.79 39.3529 310.89 39.1143L319.631 20.1986C319.79 19.8406 319.93 19.5422 320.049 19.3036C320.188 19.0649 320.298 18.9157 320.377 18.856C320.457 18.7765 320.556 18.7367 320.676 18.7367C320.775 18.7367 320.865 18.7765 320.944 18.856C321.024 18.9157 321.123 19.0649 321.242 19.3036C321.382 19.5422 321.531 19.8406 321.69 20.1986L330.491 39.1143C330.591 39.3529 330.641 39.5121 330.641 39.5916C330.641 39.7309 330.591 39.8303 330.491 39.89C330.392 39.9497 330.243 39.9795 330.044 39.9795H329.417C329.119 39.9795 328.9 39.9298 328.761 39.8303C328.622 39.711 328.473 39.4723 328.313 39.1143L320.646 22.3468L312.978 39.1143ZM339.263 39.3828C339.263 39.6215 339.213 39.7806 339.114 39.8602C339.034 39.9397 338.885 39.9795 338.666 39.9795H337.92C337.701 39.9795 337.542 39.9397 337.443 39.8602C337.363 39.7806 337.323 39.6215 337.323 39.3828V19.6914C337.323 19.4527 337.363 19.2936 337.443 19.2141C337.542 19.1345 337.701 19.0947 337.92 19.0947H338.666C338.885 19.0947 339.034 19.1345 339.114 19.2141C339.213 19.2936 339.263 19.4527 339.263 19.6914V39.3828Z" fill="white"/>
<rect width="58" height="58" rx="5.85859" fill="url(#paint0_radial_16_44)"/>
<path d="M43.9524 12.7145C39.9561 8.71894 34.6431 6.51758 28.9918 6.51758C23.3404 6.51758 18.0274 8.71894 14.0319 12.7145C10.0356 16.7108 7.83496 22.0238 7.83496 27.6751C7.83496 33.3265 10.0356 38.6395 14.0319 42.635C18.0274 46.6313 23.3404 48.832 28.9918 48.832C32.5487 48.832 35.9708 47.9605 39.0158 46.3179C38.1033 45.5907 37.4545 44.5464 37.2348 43.3527C34.7713 44.6533 31.9657 45.39 28.9918 45.39C19.2241 45.39 11.2769 37.4436 11.2769 27.6751C11.2769 17.9067 19.2241 9.9595 28.9918 9.9595C38.7602 9.9595 46.7074 17.9067 46.7074 27.6751C46.7074 31.4114 45.5445 34.8819 43.5621 37.7424C44.7074 38.0998 45.6734 38.8628 46.2914 39.8639C48.7982 36.3224 50.1493 32.1028 50.1493 27.6751C50.1493 22.0238 47.9487 16.7108 43.9524 12.7145Z" fill="white"/>
<path d="M37.2356 43.3522C37.1821 43.0615 37.1543 42.7613 37.1543 42.4551C37.1543 39.7287 39.3645 37.5186 42.0902 37.5186C42.6028 37.5186 43.0978 37.5969 43.5629 37.7419C41.94 40.0824 39.7687 42.0158 37.2356 43.3522Z" fill="white"/>
<path d="M47.0297 42.455C47.0297 45.1807 44.8195 47.3908 42.0931 47.3908C40.9309 47.3908 39.8624 46.9895 39.0195 46.3172C40.813 45.3506 42.4754 44.1159 43.9561 42.6344C44.821 41.7695 45.6024 40.8424 46.2952 39.8633C46.7609 40.6168 47.0297 41.5044 47.0297 42.455Z" fill="white"/>
<path d="M21.6034 32.3965C21.5253 32.5723 21.452 32.6895 21.3837 32.7481C21.3153 32.7969 21.2079 32.8213 21.0614 32.8213H20.7978C20.7002 32.8213 20.6269 32.8066 20.5781 32.7773C20.5293 32.7481 20.5049 32.6992 20.5049 32.6309C20.5049 32.5918 20.5293 32.5137 20.5781 32.3965L24.8695 23.1107C24.9476 22.9349 25.016 22.7885 25.0746 22.6713C25.1429 22.5541 25.1966 22.4809 25.2357 22.4516C25.2747 22.4125 25.3236 22.393 25.3822 22.393C25.431 22.393 25.4749 22.4125 25.514 22.4516C25.553 22.4809 25.6019 22.5541 25.6604 22.6713C25.7288 22.7885 25.802 22.9349 25.8801 23.1107L30.2008 32.3965C30.2497 32.5137 30.2741 32.5918 30.2741 32.6309C30.2741 32.6992 30.2497 32.7481 30.2008 32.7773C30.152 32.8066 30.0788 32.8213 29.9811 32.8213H29.6736C29.5271 32.8213 29.4197 32.7969 29.3513 32.7481C29.283 32.6895 29.2098 32.5723 29.1317 32.3965L25.3675 24.1652L21.6034 32.3965ZM36.1911 32.5284C36.1911 32.6455 36.1667 32.7236 36.1179 32.7627C36.0788 32.8018 36.0056 32.8213 35.8982 32.8213H35.532C35.4246 32.8213 35.3465 32.8018 35.2977 32.7627C35.2586 32.7236 35.2391 32.6455 35.2391 32.5284V22.8617C35.2391 22.7445 35.2586 22.6664 35.2977 22.6273C35.3465 22.5883 35.4246 22.5688 35.532 22.5688H35.8982C36.0056 22.5688 36.0788 22.5883 36.1179 22.6273C36.1667 22.6664 36.1911 22.7445 36.1911 22.8617V32.5284Z" fill="white"/>
<path d="M21.6034 32.3965L21.5368 32.3661L21.5364 32.3668L21.6034 32.3965ZM21.3837 32.7481L21.4264 32.8079L21.4313 32.8037L21.3837 32.7481ZM20.5781 32.3965L20.5116 32.3658L20.5105 32.3684L20.5781 32.3965ZM24.8695 23.1107L24.936 23.1414L24.9365 23.1404L24.8695 23.1107ZM25.0746 22.6713L25.0112 22.6343L25.0091 22.6385L25.0746 22.6713ZM25.2357 22.4516L25.2801 22.5108L25.2875 22.5034L25.2357 22.4516ZM25.514 22.4516L25.4617 22.5039L25.47 22.5102L25.514 22.4516ZM25.6604 22.6713L25.5948 22.7041L25.5972 22.7082L25.6604 22.6713ZM25.8801 23.1107L25.8132 23.1404L25.8137 23.1416L25.8801 23.1107ZM30.2008 32.3965L30.2685 32.3684L30.2672 32.3656L30.2008 32.3965ZM30.2008 32.7773L30.2385 32.8401H30.2385L30.2008 32.7773ZM29.3513 32.7481L29.3035 32.8039L29.3088 32.8076L29.3513 32.7481ZM29.1317 32.3965L29.1986 32.3668L29.1983 32.3661L29.1317 32.3965ZM25.3675 24.1652L25.4341 24.1348L25.3675 23.9891L25.3009 24.1348L25.3675 24.1652ZM21.5364 32.3668C21.4588 32.5414 21.391 32.6453 21.336 32.6925L21.4313 32.8037C21.513 32.7336 21.5917 32.6032 21.6703 32.4263L21.5364 32.3668ZM21.3411 32.6885C21.2914 32.724 21.2027 32.7481 21.0614 32.7481V32.8945C21.2131 32.8945 21.3392 32.8698 21.4262 32.8076L21.3411 32.6885ZM21.0614 32.7481H20.7978V32.8945H21.0614V32.7481ZM20.7978 32.7481C20.7051 32.7481 20.6477 32.7337 20.6158 32.7146L20.5404 32.8401C20.6061 32.8796 20.6952 32.8945 20.7978 32.8945V32.7481ZM20.6158 32.7146C20.5938 32.7013 20.5781 32.6796 20.5781 32.6309H20.4317C20.4317 32.7189 20.4648 32.7948 20.5404 32.8401L20.6158 32.7146ZM20.5781 32.6309C20.5781 32.6231 20.5812 32.6028 20.5931 32.5648C20.6044 32.5288 20.6218 32.4822 20.6457 32.4247L20.5105 32.3684C20.4857 32.428 20.4664 32.4791 20.4533 32.5212C20.4407 32.5613 20.4317 32.5996 20.4317 32.6309H20.5781ZM20.6446 32.4273L24.936 23.1414L24.8031 23.08L20.5116 32.3658L20.6446 32.4273ZM24.9365 23.1404C25.0143 22.9653 25.0822 22.8199 25.1401 22.704L25.0091 22.6385C24.9498 22.757 24.881 22.9046 24.8026 23.0809L24.9365 23.1404ZM25.1378 22.7082C25.1713 22.6508 25.2004 22.6056 25.2252 22.5718C25.2508 22.5369 25.2689 22.5183 25.2796 22.5102L25.1918 22.393C25.1635 22.4142 25.1352 22.4468 25.1071 22.4852C25.0782 22.5246 25.0462 22.5746 25.0113 22.6344L25.1378 22.7082ZM25.2875 22.5034C25.3119 22.4789 25.3417 22.4662 25.3822 22.4662V22.3198C25.3055 22.3198 25.2376 22.3461 25.1839 22.3998L25.2875 22.5034ZM25.3822 22.4662C25.4089 22.4662 25.4349 22.4761 25.4622 22.5034L25.5658 22.3998C25.5149 22.349 25.453 22.3198 25.3822 22.3198V22.4662ZM25.47 22.5102C25.4796 22.5173 25.4961 22.5348 25.519 22.5691C25.5411 22.6023 25.5664 22.647 25.5949 22.704L25.7259 22.6385C25.6959 22.5784 25.6675 22.5279 25.6408 22.4879C25.6149 22.449 25.5874 22.4151 25.5579 22.393L25.47 22.5102ZM25.5972 22.7082C25.6638 22.8223 25.7358 22.9662 25.8132 23.1404L25.9471 23.0809C25.8683 22.9037 25.7938 22.7546 25.7237 22.6344L25.5972 22.7082ZM25.8137 23.1416L30.1344 32.4274L30.2672 32.3656L25.9465 23.0798L25.8137 23.1416ZM30.1332 32.4247C30.1572 32.4822 30.1746 32.5288 30.1859 32.5648C30.1977 32.6028 30.2008 32.6231 30.2008 32.6309H30.3473C30.3473 32.5996 30.3382 32.5613 30.3257 32.5212C30.3125 32.4791 30.2933 32.428 30.2684 32.3684L30.1332 32.4247ZM30.2008 32.6309C30.2008 32.6796 30.1852 32.7013 30.1632 32.7146L30.2385 32.8401C30.3141 32.7948 30.3473 32.7189 30.3473 32.6309H30.2008ZM30.1632 32.7146C30.1312 32.7337 30.0739 32.7481 29.9811 32.7481V32.8945C30.0837 32.8945 30.1728 32.8796 30.2385 32.8401L30.1632 32.7146ZM29.9811 32.7481H29.6736V32.8945H29.9811V32.7481ZM29.6736 32.7481C29.5323 32.7481 29.4436 32.724 29.3939 32.6885L29.3088 32.8076C29.3958 32.8698 29.5219 32.8945 29.6736 32.8945V32.7481ZM29.399 32.6925C29.344 32.6453 29.2762 32.5414 29.1986 32.3668L29.0647 32.4263C29.1434 32.6032 29.222 32.7336 29.3037 32.8037L29.399 32.6925ZM29.1983 32.3661L25.4341 24.1348L25.3009 24.1957L29.0651 32.427L29.1983 32.3661ZM25.3009 24.1348L21.5368 32.3661L21.67 32.427L25.4341 24.1957L25.3009 24.1348ZM36.1179 32.7627L36.0719 32.7052L36.0661 32.7109L36.1179 32.7627ZM35.2977 32.7627L35.2456 32.8148L35.252 32.8199L35.2977 32.7627ZM35.2977 22.6273L35.2517 22.5698L35.2459 22.5756L35.2977 22.6273ZM36.1179 22.6273L36.0658 22.6794L36.0722 22.6845L36.1179 22.6273ZM36.1179 32.5284C36.1179 32.6413 36.0932 32.6887 36.0722 32.7055L36.1636 32.8199C36.2402 32.7586 36.2644 32.6497 36.2644 32.5284H36.1179ZM36.0661 32.7109C36.0491 32.728 36.0023 32.7481 35.8982 32.7481V32.8945C36.0089 32.8945 36.1086 32.8755 36.1697 32.8145L36.0661 32.7109ZM35.8982 32.7481H35.532V32.8945H35.8982V32.7481ZM35.532 32.7481C35.4305 32.7481 35.3728 32.729 35.3434 32.7055L35.252 32.8199C35.3202 32.8745 35.4188 32.8945 35.532 32.8945V32.7481ZM35.3495 32.7109C35.3427 32.7041 35.3327 32.6888 35.3248 32.6571C35.317 32.6258 35.3123 32.5834 35.3123 32.5284H35.1659C35.1659 32.5905 35.171 32.6457 35.1827 32.6926C35.1943 32.739 35.2137 32.7822 35.2459 32.8145L35.3495 32.7109ZM35.3123 32.5284V22.8617H35.1659V32.5284H35.3123ZM35.3123 22.8617C35.3123 22.8066 35.317 22.7643 35.3248 22.733C35.3327 22.7013 35.3427 22.6859 35.3495 22.6791L35.2459 22.5756C35.2137 22.6078 35.1943 22.6511 35.1827 22.6975C35.171 22.7443 35.1659 22.7996 35.1659 22.8617H35.3123ZM35.3434 22.6845C35.3728 22.661 35.4305 22.642 35.532 22.642V22.4955C35.4188 22.4955 35.3202 22.5155 35.252 22.5702L35.3434 22.6845ZM35.532 22.642H35.8982V22.4955H35.532V22.642ZM35.8982 22.642C36.0023 22.642 36.0491 22.6621 36.0661 22.6791L36.1697 22.5756C36.1086 22.5145 36.0089 22.4955 35.8982 22.4955V22.642ZM36.0722 22.6845C36.0932 22.7014 36.1179 22.7487 36.1179 22.8617H36.2644C36.2644 22.7403 36.2402 22.6314 36.1636 22.5702L36.0722 22.6845ZM36.1179 22.8617V32.5284H36.2644V22.8617H36.1179Z" fill="white"/>
<defs>
<radialGradient id="paint0_radial_16_44" cx="0" cy="0" r="1" gradientUnits="userSpaceOnUse" gradientTransform="translate(29 29) rotate(90) scale(29)">
<stop stop-color="#00DFBA"/>
<stop offset="1" stop-color="#212244"/>
</radialGradient>
</defs>
</svg>
