<svg xmlns="http://www.w3.org/2000/svg" width="59" height="15" viewBox="0 0 59 15">
  <g id="Group_2436" data-name="Group 2436" transform="translate(-785 -275.596)">
    <rect id="Rectangle_3433" data-name="Rectangle 3433" width="59" height="15" rx="1" transform="translate(785 275.596)" fill="#6bcdfe"/>
    <path id="twitter-1" d="M8.453,48.813a3.613,3.613,0,0,1-1,.274,1.723,1.723,0,0,0,.762-.958,3.463,3.463,0,0,1-1.1.419,1.733,1.733,0,0,0-3,1.185,1.784,1.784,0,0,0,.04.4A4.905,4.905,0,0,1,.589,48.316a1.733,1.733,0,0,0,.533,2.316,1.711,1.711,0,0,1-.783-.213v.019a1.741,1.741,0,0,0,1.388,1.7,1.73,1.73,0,0,1-.454.057,1.532,1.532,0,0,1-.328-.03,1.749,1.749,0,0,0,1.619,1.207,3.482,3.482,0,0,1-2.149.739A3.246,3.246,0,0,1,0,54.09a4.879,4.879,0,0,0,2.658.778,4.9,4.9,0,0,0,4.932-4.931c0-.077,0-.151-.006-.224A3.457,3.457,0,0,0,8.453,48.813Z" transform="translate(790.883 231.661)" fill="#fff"/>
    <text id="Twitter" transform="translate(815 285.596)" fill="#fff" font-size="8" font-family="SegoeUI, Segoe UI"><tspan x="-11.928" y="0">Twitter</tspan></text>
  </g>
</svg>
