<svg width="16" height="15" viewBox="0 0 16 15" fill="none" xmlns="http://www.w3.org/2000/svg">
<path d="M14.1598 5.57963L11.5428 8.10942L11.4247 7.55791L11.423 7.55016C11.3032 7.02467 11.014 6.55311 10.6 6.20803C10.1859 5.86295 9.67 5.66347 9.13152 5.64028L9.11877 5.63973H6.51512L7.24548 2.24146C7.30505 1.98417 7.44659 1.75318 7.64878 1.58327C7.85097 1.41336 8.10288 1.31372 8.36659 1.29935H10.2127V0.0592194H8.35253L8.32699 0.0597619C7.78851 0.0830106 7.27258 0.282532 6.85857 0.627635C6.44456 0.972738 6.1554 1.44431 6.03557 1.9698L5.24669 5.63981H1.98964V6.87994H4.98014L3.71676 12.7585C3.6572 13.0158 3.51567 13.2468 3.31348 13.4167C3.11128 13.5866 2.85937 13.6863 2.59564 13.7007H0.749512V14.9408H2.62246L2.63521 14.9403C3.17369 14.917 3.68963 14.7176 4.10366 14.3725C4.51769 14.0274 4.80688 13.5559 4.92674 13.0304L6.24872 6.87994H9.09207C9.3557 6.89434 9.60753 6.99394 9.80968 7.16377C10.0118 7.3336 10.1534 7.56447 10.213 7.82167L10.4921 9.12532L6.0794 13.3906H7.86372L10.7978 10.5543L10.9943 11.4725L10.996 11.4803C11.1158 12.0058 11.405 12.4773 11.819 12.8224C12.2331 13.1675 12.749 13.367 13.2875 13.3902L15.3211 13.3906V12.1505H13.3271C13.0635 12.1361 12.8116 12.0365 12.6095 11.8667C12.4073 11.6969 12.2657 11.466 12.2061 11.2088L11.8487 9.53848L15.9441 5.57963H14.1598Z" fill="white"/>
</svg>
