<svg xmlns="http://www.w3.org/2000/svg" xmlns:xlink="http://www.w3.org/1999/xlink" width="199" height="191" viewBox="0 0 199 191">
  <defs>
    <filter id="Rectangle_3421" x="0" y="0" width="157" height="191" filterUnits="userSpaceOnUse">
      <feOffset dy="3" input="SourceAlpha"/>
      <feGaussianBlur stdDeviation="10" result="blur"/>
      <feFlood flood-opacity="0.161"/>
      <feComposite operator="in" in2="blur"/>
      <feComposite in="SourceGraphic"/>
    </filter>
  </defs>
  <g id="Group_2341" data-name="Group 2341" transform="translate(24564 -15177)">
    <circle id="Ellipse_1074" data-name="Ellipse 1074" cx="42" cy="42" r="42" transform="translate(-24563 15198)" fill="#52bd95" opacity="0.2"/>
    <circle id="Ellipse_1073" data-name="Ellipse 1073" cx="42" cy="42" r="42" transform="translate(-24501 15265)" fill="#52bd95" opacity="0.2"/>
    <g transform="matrix(1, 0, 0, 1, -24564, 15177)" filter="url(#Rectangle_3421)">
      <g id="Rectangle_3421-2" data-name="Rectangle 3421" transform="translate(30 27)" fill="#fff" stroke="#d3d3d3" stroke-width="1">
        <rect width="97" height="131" rx="5" stroke="none"/>
        <rect x="0.5" y="0.5" width="96" height="130" rx="4.5" fill="none"/>
      </g>
    </g>
    <path id="Rectangle_3423" data-name="Rectangle 3423" d="M5,0H92a5,5,0,0,1,5,5V16a0,0,0,0,1,0,0H0a0,0,0,0,1,0,0V5A5,5,0,0,1,5,0Z" transform="translate(-24534 15204)" fill="#52bd95"/>
    <g id="Union_6" data-name="Union 6" transform="translate(-24501 15214)" fill="#fff">
      <path d="M 131.0003967285156 50.50029754638672 L 20.38140869140625 50.50029754638672 C 17.89988136291504 50.50029754638672 15.88100910186768 48.48142242431641 15.88100910186768 45.99989700317383 L 15.88100910186768 35.13382339477539 L 15.88100910186768 34.85073089599609 L 15.63826370239258 34.705078125 L 0.9717989563941956 25.90469741821289 L 15.63826370239258 17.10433197021484 L 15.88100910186768 16.95867729187012 L 15.88100910186768 16.67558670043945 L 15.88100910186768 5.000405311584473 C 15.88100910186768 2.518877983093262 17.89988136291504 0.5000052452087402 20.38140869140625 0.5000052452087402 L 131.0003967285156 0.5000052452087402 C 133.4814453125 0.5000052452087402 135.4999237060547 2.518877983093262 135.4999237060547 5.000405311584473 L 135.4999237060547 45.99989700317383 C 135.4999237060547 48.48142242431641 133.4814453125 50.50029754638672 131.0003967285156 50.50029754638672 Z" stroke="none"/>
      <path d="M 131.0003967285156 50.00029754638672 C 133.2057342529297 50.00029754638672 134.9999237060547 48.20573425292969 134.9999237060547 45.99989700317383 L 134.9999237060547 5.000405311584473 C 134.9999237060547 2.794568777084351 133.2057342529297 1.00000524520874 131.0003967285156 1.00000524520874 L 20.38140869140625 1.00000524520874 C 18.17557334899902 1.00000524520874 16.38100814819336 2.794568777084351 16.38100814819336 5.000405311584473 L 16.38100814819336 16.67558670043945 L 16.38100814819336 17.24176979064941 L 15.89551830291748 17.53306007385254 L 1.943558812141418 25.90469741821289 L 15.89551830291748 34.27635192871094 L 16.38100814819336 34.56764221191406 L 16.38100814819336 35.13382339477539 L 16.38100814819336 45.99989700317383 C 16.38100814819336 48.20573425292969 18.17557334899902 50.00029754638672 20.38140869140625 50.00029754638672 L 131.0003967285156 50.00029754638672 M 131.0003967285156 51.00029754638672 L 20.38140869140625 51.00029754638672 C 17.61929893493652 51.00029754638672 15.38100910186768 48.7610969543457 15.38100910186768 45.99989700317383 L 15.38100910186768 35.13382339477539 L 8.769087799009867e-06 25.90469551086426 L 15.38100910186768 16.67558670043945 L 15.38100910186768 5.000405311584473 C 15.38100910186768 2.238296031951904 17.61929893493652 5.225996574154124e-06 20.38140869140625 5.225996574154124e-06 L 131.0003967285156 5.225996574154124e-06 C 133.7615966796875 5.225996574154124e-06 135.9999237060547 2.238296031951904 135.9999237060547 5.000405311584473 L 135.9999237060547 45.99989700317383 C 135.9999237060547 48.7610969543457 133.7615966796875 51.00029754638672 131.0003967285156 51.00029754638672 Z" stroke="none" fill="#b8b8b8"/>
    </g>
    <g id="Union_5" data-name="Union 5" transform="translate(-24521 15273)" fill="#fff">
      <path d="M 131.0003967285156 50.50029754638672 L 20.38140869140625 50.50029754638672 C 17.89988136291504 50.50029754638672 15.88100910186768 48.48142242431641 15.88100910186768 45.99989700317383 L 15.88100910186768 35.13382339477539 L 15.88100910186768 34.85073089599609 L 15.63826370239258 34.705078125 L 0.9717989563941956 25.90469741821289 L 15.63826370239258 17.10433197021484 L 15.88100910186768 16.95867729187012 L 15.88100910186768 16.67558670043945 L 15.88100910186768 5.000405311584473 C 15.88100910186768 2.518877983093262 17.89988136291504 0.5000052452087402 20.38140869140625 0.5000052452087402 L 131.0003967285156 0.5000052452087402 C 133.4814453125 0.5000052452087402 135.4999237060547 2.518877983093262 135.4999237060547 5.000405311584473 L 135.4999237060547 45.99989700317383 C 135.4999237060547 48.48142242431641 133.4814453125 50.50029754638672 131.0003967285156 50.50029754638672 Z" stroke="none"/>
      <path d="M 131.0003967285156 50.00029754638672 C 133.2057342529297 50.00029754638672 134.9999237060547 48.20573425292969 134.9999237060547 45.99989700317383 L 134.9999237060547 5.000405311584473 C 134.9999237060547 2.794568777084351 133.2057342529297 1.00000524520874 131.0003967285156 1.00000524520874 L 20.38140869140625 1.00000524520874 C 18.17557334899902 1.00000524520874 16.38100814819336 2.794568777084351 16.38100814819336 5.000405311584473 L 16.38100814819336 16.67558670043945 L 16.38100814819336 17.24176979064941 L 15.89551830291748 17.53306007385254 L 1.943558812141418 25.90469741821289 L 15.89551830291748 34.27635192871094 L 16.38100814819336 34.56764221191406 L 16.38100814819336 35.13382339477539 L 16.38100814819336 45.99989700317383 C 16.38100814819336 48.20573425292969 18.17557334899902 50.00029754638672 20.38140869140625 50.00029754638672 L 131.0003967285156 50.00029754638672 M 131.0003967285156 51.00029754638672 L 20.38140869140625 51.00029754638672 C 17.61929893493652 51.00029754638672 15.38100910186768 48.7610969543457 15.38100910186768 45.99989700317383 L 15.38100910186768 35.13382339477539 L 8.769087799009867e-06 25.90469551086426 L 15.38100910186768 16.67558670043945 L 15.38100910186768 5.000405311584473 C 15.38100910186768 2.238296031951904 17.61929893493652 5.225996574154124e-06 20.38140869140625 5.225996574154124e-06 L 131.0003967285156 5.225996574154124e-06 C 133.7615966796875 5.225996574154124e-06 135.9999237060547 2.238296031951904 135.9999237060547 5.000405311584473 L 135.9999237060547 45.99989700317383 C 135.9999237060547 48.7610969543457 133.7615966796875 51.00029754638672 131.0003967285156 51.00029754638672 Z" stroke="none" fill="#b8b8b8"/>
    </g>
    <line id="Line_1693" data-name="Line 1693" x2="94" transform="translate(-24471.5 15225.5)" fill="none" stroke="#707070" stroke-width="2" opacity="0.5"/>
    <line id="Line_1689" data-name="Line 1689" x2="94" transform="translate(-24493.5 15285)" fill="none" stroke="#707070" stroke-width="2" opacity="0.5"/>
    <line id="Line_1692" data-name="Line 1692" x2="94" transform="translate(-24471.5 15234.5)" fill="none" stroke="#707070" stroke-width="2" opacity="0.5"/>
    <line id="Line_1687" data-name="Line 1687" x2="94" transform="translate(-24493.5 15294)" fill="none" stroke="#707070" stroke-width="2" opacity="0.5"/>
    <line id="Line_1691" data-name="Line 1691" x2="94" transform="translate(-24471.5 15243.5)" fill="none" stroke="#707070" stroke-width="2" opacity="0.5"/>
    <line id="Line_1686" data-name="Line 1686" x2="94" transform="translate(-24493.5 15303)" fill="none" stroke="#707070" stroke-width="2" opacity="0.5"/>
    <line id="Line_1690" data-name="Line 1690" x2="66" transform="translate(-24471.5 15252.5)" fill="none" stroke="#707070" stroke-width="2" opacity="0.5"/>
    <line id="Line_1688" data-name="Line 1688" x2="66" transform="translate(-24493.5 15312)" fill="none" stroke="#707070" stroke-width="2" opacity="0.5"/>
    <circle id="Ellipse_1075" data-name="Ellipse 1075" cx="5" cy="5" r="5" transform="translate(-24551 15294)" fill="#52bd95" opacity="0.4"/>
  </g>
</svg>
