<svg width="25" height="18" viewBox="0 0 25 18" fill="none" xmlns="http://www.w3.org/2000/svg">
<path opacity="0.4" d="M20.2941 7.5C20.4412 7.05 20.5882 6.6 20.5882 6C20.5882 2.7 17.9412 0 14.7059 0C12.5 0 10.4412 1.35 9.55882 3.3C9.11765 3.15 8.52941 3 8.08823 3C6.02941 3 4.41176 4.65 4.41176 6.75C4.41176 7.05 4.41176 7.35 4.55882 7.5C1.91176 7.95 0 10.05 0 12.75C0 15.6 2.35294 18 5.14706 18H10.2941V13.5H5.88235L12.5 6.75L19.1176 13.5H14.7059V18H19.8529C22.6471 18 25 15.6 25 12.75C25 10.05 22.9412 7.8 20.2941 7.5Z" fill="black"/>
</svg>
