<svg xmlns="http://www.w3.org/2000/svg" width="13.133" height="13.133" viewBox="0 0 13.133 13.133">
  <g id="Group_2644" data-name="Group 2644" transform="translate(22102 -17598.846)">
    <g id="Group_2472" data-name="Group 2472" transform="translate(-22102 17598.846)">
      <g id="Group_2467" data-name="Group 2467">
        <g id="check">
          <path id="Path_11441" data-name="Path 11441" d="M6.566,0a6.566,6.566,0,1,0,6.566,6.566A6.574,6.574,0,0,0,6.566,0Zm0,0" fill="#01eec6"/>
        </g>
      </g>
    </g>
    <g id="visibility" transform="translate(-22099.254 17602.963)">
      <g id="Group_2589" data-name="Group 2589" transform="translate(0 0)">
        <g id="Group_2588" data-name="Group 2588" transform="translate(0 0)">
          <path id="Path_11836" data-name="Path 11836" d="M171.7,170.667a1.036,1.036,0,1,0,1.036,1.036A1.037,1.037,0,0,0,171.7,170.667Z" transform="translate(-167.904 -169.113)" fill="#fff"/>
          <path id="Path_11837" data-name="Path 11837" d="M3.8,74.667A4.085,4.085,0,0,0,0,77.257a4.081,4.081,0,0,0,7.6,0A4.083,4.083,0,0,0,3.8,74.667Zm0,4.317a1.727,1.727,0,1,1,1.727-1.727A1.727,1.727,0,0,1,3.8,78.984Z" transform="translate(0 -74.667)" fill="#fff"/>
        </g>
      </g>
    </g>
  </g>
</svg>
