<svg width="43" height="43" viewBox="0 0 43 43" fill="none" xmlns="http://www.w3.org/2000/svg">
<path d="M17.4688 5.375H23.0747C23.7872 5.37511 24.4705 5.65816 24.9744 6.16193L36.8381 18.0256C37.3418 18.5295 37.6249 19.2128 37.625 19.9253V36.2812C37.625 37.3504 37.2003 38.3758 36.4443 39.1318C35.6883 39.8878 34.6629 40.3125 33.5938 40.3125H16.125C15.0558 40.3125 14.0305 39.8878 13.2745 39.1318C12.5185 38.3758 12.0938 37.3504 12.0938 36.2812V25.5312" stroke="#00DFBA" stroke-width="2" stroke-linecap="round" stroke-linejoin="round"/>
<path d="M24.1875 6.04688V16.125C24.1875 16.8378 24.4706 17.5213 24.9747 18.0253C25.4787 18.5294 26.1622 18.8125 26.875 18.8125H36.9531" stroke="#00DFBA" stroke-width="2" stroke-linecap="round" stroke-linejoin="round"/>
<path d="M13.4375 6.71875V19.4844C13.441 19.75 13.3913 20.0137 13.2912 20.2598C13.1911 20.506 13.0428 20.7296 12.8549 20.9174C12.6671 21.1053 12.4435 21.2536 12.1973 21.3537C11.9512 21.4538 11.6875 21.5035 11.4219 21.5C10.4141 21.5 9.40625 20.7357 9.40625 19.4844V7.39062C9.40625 4.82154 10.7979 2.6875 13.4375 2.6875C16.0771 2.6875 17.4688 4.77031 17.4688 7.33855V18.9914C17.4688 22.6027 15.1323 25.5312 11.4219 25.5312C7.71145 25.5312 5.375 22.6036 5.375 18.9914V12.0938" stroke="#00DFBA" stroke-width="2" stroke-miterlimit="10" stroke-linecap="round"/>
</svg>
