<svg width="100" height="106" viewBox="0 0 100 106" fill="none" xmlns="http://www.w3.org/2000/svg">
<path d="M76.4107 18.2328H75.5747" stroke="#263238" stroke-width="0.561924" stroke-linejoin="round"/>
<path d="M73.905 18.2328H21.3118" stroke="#263238" stroke-width="0.561924" stroke-linejoin="round" stroke-dasharray="3.93 3.93"/>
<path d="M20.4759 18.2328H19.6399" stroke="#263238" stroke-width="0.561924" stroke-linejoin="round"/>
<path d="M76.9888 86.28V85.444" stroke="#263238" stroke-width="0.561924" stroke-linejoin="round"/>
<path d="M76.9888 83.7576V20.49" stroke="#263238" stroke-width="0.561924" stroke-linejoin="round" stroke-dasharray="3.97 3.97"/>
<path d="M76.9888 19.6468V18.8108" stroke="#263238" stroke-width="0.561924" stroke-linejoin="round"/>
<path d="M77.5667 17.6548H76.4106V18.8132H77.5667V17.6548Z" stroke="#263238" stroke-width="0.561924" stroke-linejoin="round"/>
<path d="M86.6623 21.6938L78.2546 18.1611L81.7873 26.5712L82.7618 23.7264L84.6392 25.6038L85.6949 24.5481L83.8175 22.6707L86.6623 21.6938Z" stroke="#263238" stroke-width="0.561924" stroke-linecap="round" stroke-linejoin="round"/>
<path d="M70.4563 95.8029H62.1585C61.8628 95.7935 61.5793 95.6832 61.355 95.4902C61.1308 95.2973 60.9794 95.0333 60.926 94.7423L60.0017 88.9478C59.9744 88.817 59.9773 88.6818 60.01 88.5523C60.0427 88.4228 60.1044 88.3024 60.1904 88.2003C60.2765 88.0981 60.3846 88.0169 60.5067 87.9626C60.6287 87.9084 60.7615 87.8826 60.895 87.8872H69.1951C69.4908 87.8966 69.7744 88.0069 69.9986 88.1999C70.2229 88.3928 70.3743 88.6568 70.4276 88.9478L71.352 94.7423C71.3788 94.8733 71.3756 95.0085 71.3426 95.138C71.3095 95.2675 71.2476 95.3878 71.1614 95.4899C71.0752 95.5919 70.9669 95.6731 70.8448 95.7274C70.7227 95.7816 70.5898 95.8074 70.4563 95.8029V95.8029Z" stroke="#263238" stroke-width="0.561924" stroke-linecap="round" stroke-linejoin="round"/>
<path d="M70.456 95.8029C70.7381 95.8022 71.0085 95.6897 71.2077 95.49C71.407 95.2903 71.5189 95.0197 71.5189 94.7376V88.2049C71.5173 87.9388 71.4157 87.6831 71.2343 87.4884C71.0529 87.2937 70.8049 87.1744 70.5396 87.154L70.2816 86.49C70.2573 86.4294 70.2155 86.3774 70.1614 86.3408C70.1074 86.3042 70.0436 86.2846 69.9783 86.2845H67.2578C67.1927 86.2844 67.1292 86.304 67.0755 86.3407C67.0218 86.3773 66.9804 86.4294 66.9568 86.49L66.7012 87.154H62.163C61.9414 87.154 61.7253 87.2231 61.5447 87.3515C61.3641 87.4799 61.2279 87.6613 61.155 87.8705" stroke="#263238" stroke-width="0.561924" stroke-linecap="round" stroke-linejoin="round"/>
<path d="M39.2498 95.8028H30.9473C30.6516 95.7935 30.368 95.6832 30.1438 95.4902C29.9195 95.2973 29.7681 95.0333 29.7148 94.7423L28.7904 88.9477C28.7636 88.8168 28.7668 88.6816 28.7999 88.5521C28.8329 88.4226 28.8948 88.3023 28.9811 88.2002C29.0673 88.0982 29.1755 88.0169 29.2976 87.9627C29.4198 87.9085 29.5526 87.8827 29.6861 87.8872H37.9839C38.2797 87.8961 38.5635 88.0063 38.7879 88.1993C39.0122 88.3924 39.1635 88.6566 39.2164 88.9477L40.1408 94.7423C40.1675 94.8728 40.1643 95.0077 40.1315 95.1368C40.0988 95.2659 40.0373 95.3859 39.9516 95.4879C39.8659 95.5899 39.7583 95.6712 39.6368 95.7257C39.5153 95.7803 39.383 95.8066 39.2498 95.8028V95.8028Z" stroke="#263238" stroke-width="0.561924" stroke-linecap="round" stroke-linejoin="round"/>
<path d="M39.2498 95.8029C39.5324 95.8029 39.8033 95.6906 40.0031 95.4909C40.2029 95.2911 40.3151 95.0201 40.3151 94.7376V88.2049C40.3132 87.9365 40.2097 87.6788 40.0253 87.4838C39.8409 87.2888 39.5894 87.1709 39.3215 87.154L39.0635 86.49C39.0399 86.4294 38.9986 86.3773 38.9449 86.3407C38.8911 86.304 38.8276 86.2844 38.7626 86.2845H36.0492C35.9839 86.2846 35.9201 86.3042 35.8661 86.3408C35.812 86.3774 35.7702 86.4294 35.7459 86.49L35.4903 87.154H30.9521C30.7305 87.154 30.5144 87.2231 30.3338 87.3515C30.1532 87.4799 30.017 87.6613 29.9441 87.8705" stroke="#263238" stroke-width="0.561924" stroke-linecap="round" stroke-linejoin="round"/>
<path d="M54.8518 95.8029H46.554C46.2583 95.7935 45.9748 95.6832 45.7505 95.4902C45.5263 95.2973 45.3749 95.0333 45.3215 94.7423L44.3972 88.9478C44.3699 88.817 44.3728 88.6818 44.4055 88.5523C44.4382 88.4228 44.4999 88.3024 44.5859 88.2003C44.672 88.0981 44.7801 88.0169 44.9022 87.9626C45.0242 87.9084 45.157 87.8826 45.2905 87.8872H53.5811C53.8769 87.8961 54.1607 88.0063 54.385 88.1994C54.6094 88.3924 54.7607 88.6566 54.8136 88.9478L55.738 94.7423C55.765 94.8725 55.7623 95.0071 55.73 95.136C55.6977 95.265 55.6366 95.3849 55.5514 95.4869C55.4662 95.5889 55.3589 95.6703 55.2378 95.7251C55.1166 95.7798 54.9847 95.8064 54.8518 95.8029V95.8029Z" stroke="#263238" stroke-width="0.561924" stroke-linecap="round" stroke-linejoin="round"/>
<path d="M54.8518 95.8029C55.1339 95.8023 55.4042 95.6898 55.6035 95.49C55.8027 95.2903 55.9147 95.0197 55.9147 94.7376V88.2049C55.9141 87.9369 55.812 87.679 55.629 87.4831C55.446 87.2872 55.1956 87.1679 54.9282 87.1492L54.6678 86.4852C54.6442 86.4246 54.6029 86.3726 54.5492 86.3359C54.4954 86.2992 54.4319 86.2797 54.3669 86.2798H51.6535C51.5885 86.2797 51.5249 86.2992 51.4712 86.3359C51.4175 86.3726 51.3761 86.4246 51.3525 86.4852L51.097 87.154H46.5587C46.3371 87.1537 46.1208 87.2226 45.9401 87.351C45.7595 87.4795 45.6233 87.6611 45.5508 87.8706" stroke="#263238" stroke-width="0.561924" stroke-linecap="round" stroke-linejoin="round"/>
<path d="M59.4139 31.1524L61.6639 28.3745C61.9173 28.0614 62.0973 27.6954 62.1907 27.3036C62.2841 26.9118 62.2886 26.504 62.2037 26.1102L60.0707 16.2145C59.991 15.8456 59.7872 15.5152 59.4934 15.2783C59.1996 15.0414 58.8335 14.9124 58.4561 14.9127H54.3215C54.0274 14.9125 53.7352 14.9609 53.4569 15.056L13.4536 31.4295L23.5906 84.0705C25.0237 86.2202 65.0078 72.3882 65.0078 72.3882C65.6453 72.1749 66.1798 71.7309 66.5065 71.1435C66.8331 70.5561 66.9282 69.8678 66.773 69.2138L58.597 34.7615C58.4485 34.1375 58.4449 33.4877 58.5865 32.8621C58.7281 32.2365 59.0111 31.6516 59.4139 31.1524Z" fill="#21E2C2" stroke="#263238" stroke-width="0.561924" stroke-linecap="round" stroke-linejoin="round"/>
<path opacity="0.3" d="M53.5642 16.0759L66.2234 70.3388C66.2234 70.3388 23.4136 86.2847 25.4296 81.35C25.4296 81.35 15.2424 32.8745 16.1023 32.6954C16.9622 32.5162 53.5642 16.0759 53.5642 16.0759Z" fill="black" fill-opacity="0.7"/>
<path d="M64.1335 69.3714L27.2139 81.0919L18.1756 33.9947L17.6621 31.3148L50.5523 15.3999C50.7153 15.3303 50.8914 15.2968 51.0685 15.3017C51.2456 15.3067 51.4196 15.3499 51.5785 15.4284C51.7373 15.5069 51.8773 15.6189 51.9888 15.7566C52.1003 15.8944 52.1806 16.0546 52.2243 16.2263L52.905 18.8872L65.2609 67.2766C65.381 67.7038 65.3306 68.1609 65.1203 68.5517C64.91 68.9424 64.5562 69.2363 64.1335 69.3714Z" fill="white"/>
<path d="M52.9146 18.8888L18.4408 34.6675L17.6621 31.3235L50.5523 15.4087C50.7153 15.3391 50.8914 15.3056 51.0685 15.3105C51.2456 15.3154 51.4196 15.3586 51.5785 15.4372C51.7373 15.5157 51.8773 15.6277 51.9888 15.7654C52.1003 15.9032 52.1806 16.0634 52.2243 16.2351L52.9146 18.8888Z" fill="#263238"/>
<path d="M51.1924 17.7192C51.2007 17.824 51.1871 17.9295 51.1525 18.0288C51.1179 18.1281 51.063 18.2192 50.9914 18.2962C50.9198 18.3732 50.8329 18.4345 50.7364 18.4762C50.6398 18.5179 50.5356 18.5391 50.4305 18.5384C50.2111 18.5056 50.0117 18.3928 49.8705 18.2217C49.7294 18.0506 49.6566 17.8333 49.6661 17.6117C49.6575 17.5066 49.6709 17.4008 49.7055 17.3011C49.7401 17.2015 49.7951 17.1101 49.8671 17.033C49.9391 16.9559 50.0264 16.8946 50.1234 16.8532C50.2204 16.8118 50.325 16.7911 50.4305 16.7924C50.6494 16.8258 50.8483 16.9388 50.9889 17.1099C51.1295 17.281 51.202 17.4979 51.1924 17.7192Z" fill="#21E2C2" stroke="#263238" stroke-width="0.561924" stroke-linecap="round" stroke-linejoin="round"/>
<path d="M49.2171 18.6937C49.223 18.7914 49.2088 18.8892 49.1754 18.9812C49.1421 19.0731 49.0902 19.1573 49.0231 19.2285C48.9559 19.2996 48.875 19.3563 48.7851 19.3949C48.6952 19.4336 48.5984 19.4535 48.5006 19.4533C48.2955 19.4249 48.1084 19.3211 47.9759 19.162C47.8433 19.003 47.7749 18.8002 47.784 18.5934C47.7781 18.4958 47.7923 18.3979 47.8257 18.306C47.8591 18.214 47.9109 18.1299 47.9781 18.0587C48.0452 17.9875 48.1262 17.9309 48.216 17.8922C48.3059 17.8535 48.4027 17.8337 48.5006 17.8339C48.7054 17.8627 48.8922 17.9667 49.0246 18.1257C49.1571 18.2846 49.2257 18.487 49.2171 18.6937Z" fill="#21E2C2" stroke="#263238" stroke-width="0.561924" stroke-linecap="round" stroke-linejoin="round"/>
<path d="M47.3565 19.5369C47.3648 19.6287 47.3538 19.7212 47.3241 19.8084C47.2945 19.8956 47.2467 19.9756 47.1841 20.0432C47.1215 20.1108 47.0454 20.1644 46.9607 20.2007C46.876 20.2369 46.7846 20.2549 46.6924 20.2535C46.5024 20.2253 46.3296 20.1277 46.2073 19.9794C46.0851 19.8312 46.0222 19.6429 46.0308 19.451C46.0228 19.3595 46.034 19.2674 46.0637 19.1805C46.0934 19.0936 46.1409 19.0139 46.2032 18.9464C46.2655 18.8789 46.3412 18.8252 46.4254 18.7887C46.5097 18.7522 46.6006 18.7337 46.6924 18.7344C46.8827 18.7625 47.0558 18.8601 47.1784 19.0083C47.301 19.1565 47.3644 19.3448 47.3565 19.5369Z" fill="#21E2C2" stroke="#263238" stroke-width="0.561924" stroke-linecap="round" stroke-linejoin="round"/>
<path opacity="0.3" d="M64.1335 69.3714L27.2139 81.0919L18.1756 33.9947L17.6621 31.3148L50.5523 15.3999C50.7153 15.3303 50.8914 15.2968 51.0685 15.3017C51.2456 15.3067 51.4196 15.3499 51.5785 15.4284C51.7373 15.5069 51.8773 15.6189 51.9888 15.7566C52.1003 15.8944 52.1806 16.0546 52.2243 16.2263L52.905 18.8872L65.2609 67.2766C65.381 67.7038 65.3306 68.1609 65.1203 68.5517C64.91 68.9424 64.5562 69.2363 64.1335 69.3714Z" fill="black" fill-opacity="0.7"/>
<path d="M64.1335 69.3714L27.2139 81.0919L18.1756 33.9947L17.6621 31.3148L50.5523 15.3999C50.7153 15.3303 50.8914 15.2968 51.0685 15.3017C51.2456 15.3067 51.4196 15.3499 51.5785 15.4284C51.7373 15.5069 51.8773 15.6189 51.9888 15.7566C52.1003 15.8944 52.1806 16.0546 52.2243 16.2263L52.905 18.8872L65.2609 67.2766C65.381 67.7038 65.3306 68.1609 65.1203 68.5517C64.91 68.9424 64.5562 69.2363 64.1335 69.3714V69.3714Z" stroke="#263238" stroke-width="0.561924" stroke-linecap="round" stroke-linejoin="round"/>
<path d="M61.9408 67.0498L25.5275 81.35L16.6111 34.8833L16.1047 32.2416L48.5507 14.029C48.7032 13.9433 48.8735 13.894 49.0482 13.8848C49.2229 13.8757 49.3974 13.9071 49.558 13.9764C49.7187 14.0457 49.8611 14.1512 49.9743 14.2846C50.0875 14.418 50.1684 14.5757 50.2107 14.7455L50.8795 17.3586L63.061 64.8905C63.1676 65.3251 63.1128 65.7835 62.9068 66.1807C62.7007 66.5779 62.3575 66.8867 61.9408 67.0498Z" fill="white" stroke="#263238" stroke-width="0.561924" stroke-linecap="round" stroke-linejoin="round"/>
<path d="M50.8795 17.349L16.8715 35.5378L16.1047 32.2416L48.5507 14.029C48.7032 13.9433 48.8735 13.894 49.0482 13.8848C49.2229 13.8757 49.3974 13.9071 49.558 13.9764C49.7187 14.0457 49.8611 14.1512 49.9743 14.2846C50.0875 14.418 50.1684 14.5757 50.2107 14.7455L50.8795 17.349Z" fill="#263238"/>
<path d="M49.1766 16.3028C49.1555 16.4474 49.0933 16.5828 48.9975 16.6931C48.9016 16.8033 48.7761 16.8836 48.6358 16.9245C48.4956 16.9654 48.3466 16.9651 48.2065 16.9236C48.0664 16.8822 47.9412 16.8014 47.8458 16.6908C47.7503 16.5802 47.6887 16.4445 47.6682 16.2999C47.6477 16.1553 47.6692 16.0078 47.7301 15.875C47.7911 15.7423 47.8889 15.6299 48.012 15.5511C48.135 15.4724 48.2781 15.4307 48.4242 15.431C48.6391 15.4481 48.8386 15.5493 48.9794 15.7124C49.1202 15.8756 49.1911 16.0878 49.1766 16.3028Z" fill="#21E2C2" stroke="#263238" stroke-width="0.561924" stroke-linecap="round" stroke-linejoin="round"/>
<path d="M47.2323 17.4086C47.2147 17.5459 47.1578 17.6752 47.0683 17.7808C46.9789 17.8865 46.8607 17.9639 46.7282 18.0039C46.5957 18.0438 46.4544 18.0445 46.3215 18.0059C46.1886 17.9672 46.0697 17.8909 45.9793 17.7862C45.8888 17.6815 45.8306 17.5528 45.8116 17.4156C45.7927 17.2785 45.8139 17.1389 45.8727 17.0136C45.9315 16.8882 46.0253 16.7826 46.1428 16.7095C46.2603 16.6363 46.3964 16.5987 46.5348 16.6013C46.7338 16.6172 46.9186 16.7108 47.0491 16.8619C47.1797 17.013 47.2455 17.2094 47.2323 17.4086Z" fill="#21E2C2" stroke="#263238" stroke-width="0.561924" stroke-linecap="round" stroke-linejoin="round"/>
<path d="M45.3979 18.388C45.3796 18.5135 45.3256 18.631 45.2424 18.7267C45.1592 18.8224 45.0502 18.8921 44.9285 18.9276C44.8068 18.9631 44.6774 18.9629 44.5558 18.927C44.4342 18.8911 44.3255 18.8211 44.2426 18.7251C44.1597 18.6292 44.1061 18.5115 44.0882 18.386C44.0703 18.2605 44.0888 18.1324 44.1415 18.0172C44.1943 17.9019 44.2791 17.8042 44.3858 17.7357C44.4925 17.6672 44.6166 17.6308 44.7434 17.6309C44.9297 17.6467 45.1024 17.7348 45.2247 17.8763C45.347 18.0177 45.4091 18.2014 45.3979 18.388Z" fill="#21E2C2" stroke="#263238" stroke-width="0.561924" stroke-linecap="round" stroke-linejoin="round"/>
<path opacity="0.3" d="M50.4949 18.5242L61.2243 60.5171C61.2452 60.6005 61.2361 60.6886 61.1985 60.7659C61.161 60.8433 61.0973 60.9049 61.0188 60.9399L60.0395 61.3722C59.9919 61.3933 59.9403 61.4037 59.8883 61.4028C59.8362 61.4019 59.785 61.3896 59.7381 61.3669C59.6913 61.3442 59.65 61.3115 59.6171 61.2712C59.5841 61.2308 59.5604 61.1838 59.5475 61.1334L49.1096 19.3817C49.0834 19.2766 49.0926 19.1658 49.1358 19.0665C49.179 18.9672 49.2537 18.8849 49.3484 18.8323L50.1558 18.3785C50.1871 18.3623 50.2217 18.3532 50.257 18.352C50.2922 18.3507 50.3274 18.3573 50.3598 18.3712C50.3922 18.3851 50.4212 18.4061 50.4445 18.4325C50.4679 18.459 50.4851 18.4903 50.4949 18.5242Z" fill="black" fill-opacity="0.7"/>
<path d="M49.5754 19.7375L50.1678 19.4103C50.2245 19.3791 50.2875 19.3613 50.3522 19.3584C50.4168 19.3554 50.4812 19.3673 50.5405 19.3931C50.5998 19.419 50.6524 19.4581 50.6942 19.5074C50.736 19.5568 50.7659 19.6151 50.7817 19.6778L51.878 24.0775C51.9051 24.1836 51.8964 24.2957 51.8532 24.3963C51.81 24.497 51.7347 24.5805 51.6391 24.634L50.9226 25.0162C50.8809 25.0392 50.8343 25.0522 50.7867 25.0541C50.739 25.0559 50.6916 25.0466 50.6482 25.0269C50.6048 25.0072 50.5667 24.9776 50.5367 24.9404C50.5068 24.9033 50.486 24.8597 50.4759 24.8131L49.3438 20.2749C49.3197 20.1723 49.3293 20.0648 49.371 19.968C49.4127 19.8713 49.4844 19.7905 49.5754 19.7375Z" fill="#BFBFBF" stroke="#263238" stroke-width="0.561924" stroke-linecap="round" stroke-linejoin="round"/>
<path opacity="0.4" d="M54.9304 66.7535L31.4702 76.4152" stroke="black" stroke-width="1.12385" stroke-linecap="round" stroke-linejoin="round"/>
<path opacity="0.4" d="M58.1026 63.8085L28.3008 76.4152" stroke="black" stroke-width="1.12385" stroke-linecap="round" stroke-linejoin="round"/>
<path opacity="0.3" d="M55.1741 51.1325L52.7689 40.9048L46.2529 44.0194L48.6343 54.2113L55.1741 51.1325Z" fill="black" fill-opacity="0.7"/>
<path opacity="0.3" d="M43.5945 32.6572L45.8588 42.3403L52.3676 39.1898L50.034 29.2678L43.5945 32.6572Z" fill="black" fill-opacity="0.7"/>
<path opacity="0.3" d="M49.8286 28.3912L47.9226 20.2821L41.4902 23.6523L43.3963 31.8044L49.8286 28.3912Z" fill="black" fill-opacity="0.7"/>
<path opacity="0.3" d="M48.8708 55.2217L51.0635 64.5991L57.6607 61.7089L55.4441 52.2814L48.8708 55.2217Z" fill="black" fill-opacity="0.7"/>
<path d="M13.4536 31.4295L23.5906 84.0705C26.8366 80.3659 50.0126 63.3905 50.0126 63.3905C50.894 62.7511 51.5686 61.8672 51.9528 60.8483C52.337 59.8294 52.414 58.7202 52.1742 57.658L41.4425 11.6404C41.3511 11.2414 41.1575 10.8729 40.8808 10.5712C40.604 10.2696 40.2537 10.045 39.864 9.91948C39.4743 9.79401 39.0587 9.77195 38.6579 9.85549C38.2572 9.93902 37.885 10.1253 37.5779 10.396C37.5779 10.396 16.0189 23.9366 13.4536 31.4295Z" fill="#21E2C2" stroke="#263238" stroke-width="0.561924" stroke-linecap="round" stroke-linejoin="round"/>
<g opacity="0.7">
<path opacity="0.7" d="M50.3375 59.2965C50.1851 59.2964 50.0372 59.2449 49.9176 59.1505C49.798 59.056 49.7137 58.924 49.6783 58.7758C49.4935 58.0242 49.3136 57.271 49.1384 56.5162C49.1121 56.4274 49.1042 56.334 49.1152 56.242C49.1261 56.1499 49.1558 56.0611 49.2024 55.9809C49.2489 55.9007 49.3114 55.8309 49.3858 55.7757C49.4603 55.7205 49.5453 55.6812 49.6356 55.66C49.7258 55.6388 49.8195 55.6363 49.9107 55.6526C50.002 55.6689 50.089 55.7036 50.1663 55.7547C50.2437 55.8058 50.3098 55.8722 50.3606 55.9497C50.4113 56.0273 50.4458 56.1144 50.4617 56.2057C50.6384 56.9581 50.8152 57.7081 50.9967 58.4557C51.0181 58.5425 51.0221 58.6326 51.0086 58.7209C50.9951 58.8092 50.9642 58.8939 50.9178 58.9703C50.8714 59.0466 50.8104 59.113 50.7383 59.1658C50.6662 59.2185 50.5843 59.2564 50.4975 59.2774C50.445 59.2896 50.3914 59.296 50.3375 59.2965Z" fill="white"/>
</g>
<g opacity="0.7">
<path opacity="0.7" d="M48.9497 53.2487C48.7959 53.2487 48.6466 53.1965 48.5264 53.1006C48.4062 53.0047 48.3222 52.8708 48.288 52.7208L38.9895 11.9007C38.9872 11.8872 38.9814 11.8745 38.9726 11.864C38.9637 11.8534 38.9522 11.8455 38.9393 11.841C38.9276 11.8345 38.9144 11.8311 38.9011 11.8311C38.8877 11.8311 38.8746 11.8345 38.8629 11.841C36.4743 13.4317 28.3987 18.849 24.6534 21.8442C22.2649 23.8291 20.0842 26.1125 17.5762 29.2319C17.4634 29.3723 17.2996 29.462 17.1206 29.4815C16.9417 29.501 16.7623 29.4486 16.622 29.3358C16.4817 29.2231 16.3919 29.0592 16.3724 28.8802C16.3529 28.7013 16.4053 28.5219 16.5181 28.3816C19.0834 25.1858 21.3286 22.845 23.796 20.7908C27.4886 17.8362 35.0364 12.7582 38.1105 10.7112C38.3044 10.5797 38.5277 10.4978 38.7606 10.4725C38.9936 10.4473 39.2292 10.4797 39.4468 10.5666C39.6643 10.6536 39.8573 10.7926 40.0087 10.9715C40.16 11.1504 40.2653 11.3636 40.3151 11.5926L49.6137 52.4103C49.6335 52.4975 49.6359 52.5878 49.6208 52.6759C49.6056 52.764 49.5733 52.8483 49.5256 52.924C49.478 52.9996 49.4158 53.0651 49.3428 53.1167C49.2698 53.1683 49.1874 53.2051 49.1001 53.2248C49.0511 53.2387 49.0006 53.2467 48.9497 53.2487Z" fill="white"/>
</g>
<path d="M21.8587 103.489C21.5387 100.604 21.1063 96.5959 20.7313 92.7766C20.1867 87.1994 19.7616 82.0282 19.9909 81.3857C20.3021 80.5717 20.4451 79.7031 20.4113 78.8324C21.5482 78.7081 22.057 77.1604 22.057 77.1604L21.4455 71.7121C21.4455 71.7121 21.8253 61.2766 21.3595 58.3148C20.8937 55.353 18.9877 53.3634 18.9495 52.5823C18.9113 51.8012 20.4328 48.3259 20.932 47.3275C21.4312 46.3291 21.1445 40.7495 20.3372 39.0035C20.1639 38.5817 19.8381 38.2406 19.4248 38.048C18.5745 37.6683 17.6047 38.0934 17.6047 38.0934C17.4782 40.5664 16.7642 42.9737 15.5219 45.1157C14.7385 46.4772 14.0148 47.3562 13.8834 48.0751C13.6039 49.6133 10.2098 53.5831 9.56729 55.6372C8.92477 57.6914 8.71936 64.6707 7.72095 67.4223C7.24324 68.7169 5.54021 72.8443 5.09356 85.4295C4.8443 91.503 4.08122 97.5445 2.8125 103.489H21.8587Z" fill="white"/>
<path opacity="0.4" d="M20.9319 47.3203C20.4327 48.3116 18.9112 51.7797 18.9494 52.5751C18.9877 53.3705 20.8889 55.3506 21.3595 58.3076C21.83 61.2646 21.4455 71.7049 21.4455 71.7049L22.0521 77.1556C22.0521 77.1556 21.5434 78.7081 20.4064 78.8276C20.4403 79.6984 20.2973 80.5669 19.9861 81.3809C19.7472 82.033 20.1819 87.1946 20.7265 92.7719C20.158 90.3642 19.6899 88.5059 19.6899 88.5059C19.6899 88.5059 19.451 91.4677 19.119 93.8061C18.787 96.1445 18.0251 99.4693 18.0251 99.4693C18.0251 99.4693 16.3173 83.373 16.7138 80.6835C17.1103 77.994 18.0896 78.4358 17.3324 77.1484C16.5752 75.861 11.9868 74.7527 12.4359 73.7782C12.8849 72.8037 16.4749 74.5306 16.6254 74.5999C16.5036 74.5019 14.5068 72.904 14.5235 72.1635C14.5402 71.4231 17.7265 73.3578 17.7265 73.3578C18.5782 72.8298 19.3531 72.1868 20.0291 71.447C21.0012 70.3291 19.5513 59.6357 19.2838 58.8642C19.0163 58.0927 17.3037 58.2025 16.8045 57.56C16.3053 56.9175 17.662 56.6309 17.4017 55.6492C17.1413 54.6675 16.4462 54.7559 16.4462 54.7559C16.4462 54.7559 17.5665 53.1149 17.4662 51.6842C17.3658 50.2535 19.2241 48.5289 19.0904 47.4971C18.5697 43.4796 16.1763 46.2479 15.5267 45.1086C16.7678 42.9686 17.4818 40.564 17.6095 38.0934C17.6095 38.0934 18.5792 37.6683 19.4295 38.048C19.8429 38.2406 20.1686 38.5817 20.342 39.0035C21.1445 40.7423 21.4335 46.3267 20.9319 47.3203Z" fill="#21E2C2"/>
<path d="M3.5769 99.4742C4.3936 94.8318 4.89634 90.1396 5.08168 85.4296C5.53312 72.8444 7.23137 68.7098 7.70908 67.4224C8.71465 64.6732 8.92484 57.6867 9.56497 55.6326C10.2051 53.5784 13.6016 49.6087 13.8787 48.0705C14.1557 46.5322 17.1844 44.2321 17.6 38.0935C17.6 38.0935 19.5228 37.2504 20.3325 38.9964C21.1422 40.7424 21.4288 46.3268 20.9273 47.3205C20.4257 48.3141 18.9042 51.7799 18.9448 52.5752C18.9854 53.3706 20.8843 55.3507 21.3524 58.3077C21.8206 61.2648 21.4408 71.7074 21.4408 71.7074L22.0523 77.1557C22.0523 77.1557 21.5459 78.7083 20.4089 78.8277C20.4432 79.6975 20.301 80.5653 19.9909 81.3786C19.6303 82.3914 20.846 94.2314 21.6629 101.65" stroke="#263238" stroke-width="0.561924" stroke-linecap="round" stroke-linejoin="round"/>
<path d="M18.9473 52.568C18.9473 52.568 18.3478 54.24 17.1846 54.24" stroke="#263238" stroke-width="0.561924" stroke-linecap="round" stroke-linejoin="round"/>
<path d="M18.5626 53.3157C18.5626 53.3157 18.9161 55.3459 17.6621 56.6381" stroke="#263238" stroke-width="0.561924" stroke-linecap="round" stroke-linejoin="round"/>
<path d="M14.311 47.0719C14.311 47.0719 15.7203 46.7948 16.604 47.3275" stroke="#263238" stroke-width="0.561924" stroke-linecap="round" stroke-linejoin="round"/>
<path d="M13.3315 74.1317C13.3315 74.1317 17.9104 75.5648 18.6341 76.2981C19.3578 77.0314 20.4112 78.8324 20.4112 78.8324" stroke="#263238" stroke-width="0.561924" stroke-linecap="round" stroke-linejoin="round"/>
<path d="M16.9072 73.4271C17.5808 74.1843 19.0856 75.0489 19.7974 75.7201C20.5091 76.3913 20.865 77.8913 20.865 77.8913" stroke="#263238" stroke-width="0.561924" stroke-linecap="round" stroke-linejoin="round"/>
<path d="M19.9146 73.0737C19.9146 73.0737 20.9727 72.5506 21.5173 70.8929" stroke="#263238" stroke-width="0.561924" stroke-linecap="round" stroke-linejoin="round"/>
<path d="M18.6797 79.174C17.6765 79.6803 17.6502 85.4319 18.1781 91.9455" stroke="#263238" stroke-width="0.561924" stroke-linecap="round" stroke-linejoin="round"/>
<path d="M19.2053 80.3658C19.2053 81.0012 20.0676 85.8595 20.4617 89.9343" stroke="#263238" stroke-width="0.561924" stroke-linecap="round" stroke-linejoin="round"/>
<path d="M59.7699 41.2153C59.7699 41.2153 57.8973 44.6357 57.9164 45.4096C57.9355 46.1835 61.4992 51.5529 61.5948 52.162C61.6903 52.7711 64.2675 53.9462 65.2086 54.5697C66.1497 55.1931 67.3392 50.6739 67.1839 47.4208C67.0287 44.1676 59.7699 41.2153 59.7699 41.2153Z" fill="white"/>
<path opacity="0.5" d="M59.7699 41.2153C59.7699 41.2153 57.8973 44.6357 57.9164 45.4096C57.9355 46.1835 61.4992 51.5529 61.5948 52.162C61.6903 52.7711 64.2675 53.9462 65.2086 54.5697C66.1497 55.1931 67.3392 50.6739 67.1839 47.4208C67.0287 44.1676 59.7699 41.2153 59.7699 41.2153Z" fill="#21E2C2"/>
<path d="M59.7699 41.2153C59.7699 41.2153 57.8973 44.6357 57.9164 45.4096C57.9355 46.1835 61.4992 51.5529 61.5948 52.162C61.6903 52.7711 64.2675 53.9462 65.2086 54.5697C66.1497 55.1931 67.3392 50.6739 67.1839 47.4208C67.0287 44.1676 59.7699 41.2153 59.7699 41.2153Z" stroke="#263238" stroke-width="0.561924" stroke-linecap="round" stroke-linejoin="round"/>
<path d="M61.05 47.5712C61.05 47.5712 62.8892 46.7352 64.8908 48.9637" stroke="#263238" stroke-width="0.561924" stroke-linecap="round" stroke-linejoin="round"/>
<path d="M99.0007 79.3794L87.7746 92.0578C87.7746 92.0578 85.9283 89.7576 83.6185 86.9463C80.3343 82.955 76.1161 77.9319 74.9219 77.0171C73.4649 75.8969 63.9943 69.4216 61.3765 66.2138C61.0015 65.7528 60.6742 65.3467 60.3852 64.9741C58.6583 62.748 58.3144 61.7926 57.4569 58.6875C56.4561 55.0569 55.3526 53.0529 55.0683 51.7106C55.0683 51.6699 55.0516 51.6293 55.0444 51.584C54.7554 50.0959 54.2491 45.6126 53.5898 44.4733C52.9115 43.2981 55.6058 42.7296 56.6328 43.3841C57.6599 44.0386 60.2156 47.2058 60.0604 49.9478C60.0604 49.9478 62.0739 54.9088 63.101 54.775C63.101 54.775 62.9672 49.8045 62.2841 48.5911C61.9674 48.0363 61.7872 47.4141 61.7586 46.7758C61.7485 46.6221 61.7533 46.4677 61.773 46.3148C61.773 46.3148 58.6082 42.8992 57.6766 40.5991C56.7451 38.2989 54.9202 34.7591 54.5715 31.3148C54.5715 31.3148 54.1607 28.8379 55.6631 27.7153C56.2339 27.2877 56.7618 27.1659 57.2945 27.9064C57.579 28.3397 57.8032 28.8098 57.9609 29.3037C60.2085 35.6476 62.9768 38.0792 62.9768 38.0792C64.062 38.3618 65.1234 38.7292 66.1512 39.1779C66.3767 39.2903 66.5938 39.4188 66.8008 39.5624C67.3908 39.9589 68.1074 40.5322 68.8478 41.0959C69.9131 41.9056 71.0238 42.689 71.8574 42.873C74.7642 43.5035 76.1568 44.9796 76.1568 44.9796C76.1568 44.9796 78.0867 44.5688 79.1066 46.365C80.0978 48.1039 80.6424 48.4502 80.6424 48.4502C80.6424 48.4502 81.3709 48.4502 81.9561 49.7352C82.988 51.99 86.0883 63.9996 86.2412 64.4845C87.488 68.4566 91.195 72.7201 95.437 76.4558C96.6098 77.4781 97.8041 78.455 99.0007 79.3794Z" fill="white"/>
<path opacity="0.4" d="M69.9354 44.4327C69.9354 44.4327 66.5771 43.8284 65.9155 42.3045C65.2539 40.7806 62.4425 37.5274 61.769 37.3172C61.5811 37.2539 61.3792 37.2445 61.1863 37.2901C60.9934 37.3357 60.8171 37.4344 60.6774 37.5752C60.6774 37.5752 59.5118 35.736 58.6352 34.1476C57.804 32.6381 53.6909 28.1118 57.2905 27.9064C57.575 28.3397 57.7992 28.8098 57.9569 29.3037C60.2045 35.6476 62.9728 38.0792 62.9728 38.0792C64.058 38.3618 65.1194 38.7292 66.1472 39.1779C66.3727 39.2903 66.5898 39.4188 66.7968 39.5624C66.7109 39.5409 65.3637 39.2066 65.6336 39.8945C65.9035 40.5824 68.0938 42.5887 69.2451 43.4582C70.3964 44.3276 69.9354 44.4327 69.9354 44.4327Z" fill="#21E2C2"/>
<path opacity="0.4" d="M95.4524 76.4582C93.5535 75.4192 90.6753 73.7018 89.7199 72.3523C88.2438 70.2743 87.1474 69.2329 86.1634 68.029C85.1793 66.8252 83.3162 65.8411 83.7533 66.0036C84.1904 66.166 86.1681 66.8515 86.1681 66.8515C85.0583 65.357 84.1731 63.7082 83.5408 61.9574C82.3919 58.8929 80.2995 48.1038 78.7446 46.9096C77.1896 45.7153 78.7446 57.486 78.7446 57.486C77.7531 55.1837 77.0123 52.7813 76.5352 50.3204C75.8186 46.451 75.1737 44.5521 74.3329 44.029C73.4922 43.5059 71.8823 44.607 71.4428 44.029C71.0033 43.451 71.5001 43.2384 68.8584 41.103C69.9237 41.9127 71.0344 42.6962 71.868 42.8801C74.7748 43.5107 76.1673 44.9868 76.1673 44.9868C76.1673 44.9868 78.0973 44.576 79.1172 46.3721C80.1084 48.111 80.653 48.4573 80.653 48.4573C80.653 48.4573 81.3815 48.4573 81.9667 49.7424C82.9986 51.9972 86.0989 64.0067 86.2517 64.4916C87.4986 68.459 91.2104 72.7225 95.4524 76.4582Z" fill="#21E2C2"/>
<path opacity="0.4" d="M64.2054 57.0585C64.0812 57.7751 63.1783 55.6589 63.0971 55.9861C63.0159 56.3133 62.7699 57.3929 62.7556 57.0585C62.7412 56.7241 60.8256 55.6589 60.496 54.0705C60.1664 52.4821 59.949 51.8061 59.7794 51.4073C59.6099 51.0084 59.3232 51.6724 59.3017 50.7098C59.285 49.8475 56.5095 48.9399 55.031 51.584C54.742 50.0959 54.2356 45.6127 53.5764 44.4733C52.8981 43.2982 55.5923 42.7297 56.6194 43.3841C57.6465 44.0386 60.2022 47.2058 60.047 49.9479C60.047 49.9479 62.0605 54.9089 63.0876 54.7751C63.0876 54.7751 62.9538 49.8045 62.2707 48.5912C61.9539 48.0364 61.7738 47.4141 61.7452 46.7759L62.746 46.912C63.0159 47.5044 62.488 48.3451 62.746 48.7751C63.004 49.205 64.6234 52.3149 64.086 53.9272C63.5486 55.5394 64.3296 56.342 64.2054 57.0585Z" fill="#21E2C2"/>
<path opacity="0.4" d="M83.6098 86.9463C80.3255 82.955 76.1074 77.9319 74.9131 77.0171C73.4561 75.8969 63.9855 69.4216 61.3677 66.2138C60.9927 65.7528 60.6655 65.3467 60.3765 64.9741C61.7714 66.6772 63.4816 67.5729 64.2172 67.9741C65.5309 68.6907 69.3359 69.2974 71.9919 72.178C73.2817 73.5776 74.0174 74.5975 75.6034 76.3483C77.1894 78.0991 79.4896 78.209 80.8582 80.6191C81.5437 81.8277 82.683 84.5482 83.6098 86.9463Z" fill="#21E2C2"/>
<path d="M87.7683 92.0578C87.7683 92.0578 76.9482 78.5769 74.9155 77.01C73.4585 75.8922 63.988 69.4145 61.3701 66.2067C58.7523 62.9988 58.4513 62.3133 57.4505 58.6851C56.4497 55.057 55.3486 53.053 55.062 51.7082C54.7754 50.3635 54.2618 45.6461 53.5835 44.4733C52.9051 43.3006 55.5994 42.7297 56.6265 43.3818C57.6535 44.0338 60.2093 47.2034 60.054 49.9479C60.054 49.9479 62.0676 54.9089 63.0946 54.7751C63.0946 54.7751 62.9609 49.8046 62.2778 48.5912C61.8733 47.9055 61.6953 47.1099 61.769 46.3173C61.769 46.3173 58.5994 42.8993 57.675 40.5991C56.7507 38.299 54.9187 34.7591 54.5699 31.3149C54.5699 31.3149 54.1615 28.8403 55.6639 27.7153C56.4712 27.111 57.1878 27.1182 57.9617 29.3037C60.2117 35.6477 62.9776 38.0792 62.9776 38.0792C64.0628 38.3619 65.1242 38.7292 66.152 39.1779C67.4896 39.8061 70.2125 42.5219 71.8654 42.873C74.7698 43.506 76.1647 44.9821 76.1647 44.9821C76.1647 44.9821 78.0947 44.5713 79.1146 46.3674C80.1034 48.1063 80.6504 48.455 80.6504 48.455C80.6504 48.455 81.367 48.455 81.9641 49.7377C82.996 51.9925 86.0963 64.002 86.2492 64.4869C87.8375 69.5434 93.4148 75.0705 98.992 79.3795" stroke="#263238" stroke-width="0.561924" stroke-linecap="round" stroke-linejoin="round"/>
<path d="M62.9824 38.0791C62.9824 38.0791 65.7316 41.8864 67.6568 42.6173" stroke="#263238" stroke-width="0.561924" stroke-linecap="round" stroke-linejoin="round"/>
<path d="M67.5063 43.4581C69.3599 44.0529 70.5565 44.4135 70.8981 45.8037C71.2396 47.1938 72.2309 50.361 72.7086 51.6031C73.1863 52.8451 74.3328 55.986 74.3328 55.986" stroke="#263238" stroke-width="0.561924" stroke-linecap="round" stroke-linejoin="round"/>
<path d="M63.0972 54.775C63.0972 54.775 64.3583 56.416 64.0526 58.0234" stroke="#263238" stroke-width="0.561924" stroke-linecap="round" stroke-linejoin="round"/>
<path d="M62.562 54.5099C62.562 54.5099 62.507 56.2941 62.9537 57.4884" stroke="#263238" stroke-width="0.561924" stroke-linecap="round" stroke-linejoin="round"/>
<path d="M61.7715 46.3101C61.7715 46.3101 62.7842 46.8546 63.0255 47.5043" stroke="#263238" stroke-width="0.561924" stroke-linecap="round" stroke-linejoin="round"/>
<path d="M62.5071 49.1907C62.7574 49.7337 63.0735 50.2439 63.4482 50.7098C63.9378 51.2472 64.1647 52.9932 64.1647 52.9932" stroke="#263238" stroke-width="0.561924" stroke-linecap="round" stroke-linejoin="round"/>
<path d="M55.0645 51.7081C55.0645 51.7081 56.156 50.4804 57.2834 50.3132" stroke="#263238" stroke-width="0.561924" stroke-linecap="round" stroke-linejoin="round"/>
<path d="M60.231 37.8378C60.231 37.8378 61.5017 36.8824 62.4642 37.544" stroke="#263238" stroke-width="0.561924" stroke-linecap="round" stroke-linejoin="round"/>
<path d="M81.3694 51.5481C81.6226 52.2432 82.9219 58.5202 83.2468 59.4112" stroke="#263238" stroke-width="0.561924" stroke-linecap="round" stroke-linejoin="round"/>
<path d="M72.4841 44.3539C72.4841 44.3539 73.6784 43.4988 75.1736 44.5473C76.6688 45.5959 76.6712 46.1023 77.5932 45.8563C77.8704 45.7934 78.1595 45.8078 78.4291 45.8979C78.6986 45.9881 78.9383 46.1505 79.1219 46.3674" stroke="#263238" stroke-width="0.561924" stroke-linecap="round" stroke-linejoin="round"/>
<path d="M77.2993 48.775C77.5382 50.1819 78.5509 57.068 79.0406 58.8069" stroke="#263238" stroke-width="0.561924" stroke-linecap="round" stroke-linejoin="round"/>
</svg>
