<svg width="240" height="240" viewBox="0 0 240 240" fill="none" xmlns="http://www.w3.org/2000/svg">
<path d="M40.1074 211.917C84.6891 236.621 156.975 236.621 201.562 211.917C246.149 187.214 246.144 147.176 201.562 122.456C156.98 97.7355 84.6891 97.7524 40.1018 122.456C-4.48559 147.159 -4.47996 187.214 40.1074 211.917Z" fill="#F5F5F5"/>
<path d="M24.0393 159.52L27.9801 157.268C27.9801 157.268 29.8774 146.791 28.4587 137.784C26.4601 125.122 17.8354 120.754 14.7053 122.02C11.5752 123.287 10.8377 127.031 16.4955 134.344C19.8508 138.645 24.1463 147.771 24.0393 159.52Z" fill="#00977C"/>
<g opacity="0.1">
<path d="M24.0393 159.52L27.9801 157.268C27.9801 157.268 29.8774 146.791 28.4587 137.784C26.4601 125.122 17.8354 120.754 14.7053 122.02C11.5752 123.287 10.8377 127.031 16.4955 134.344C19.8508 138.645 24.1463 147.771 24.0393 159.52Z" fill="black"/>
</g>
<path d="M25.4747 154.493H25.4353C25.3982 154.488 25.3624 154.476 25.3301 154.457C25.2977 154.438 25.2694 154.413 25.2469 154.383C25.2243 154.354 25.208 154.319 25.1988 154.283C25.1896 154.247 25.1877 154.209 25.1932 154.172C26.8315 142.316 22.0631 129.328 16.7092 124.098C16.6829 124.072 16.6619 124.041 16.6476 124.007C16.6333 123.972 16.626 123.936 16.626 123.898C16.626 123.861 16.6333 123.824 16.6476 123.79C16.6619 123.756 16.6829 123.725 16.7092 123.698C16.7354 123.672 16.7665 123.651 16.8008 123.637C16.8351 123.623 16.8719 123.615 16.9091 123.615C16.9463 123.615 16.983 123.623 17.0173 123.637C17.0517 123.651 17.0828 123.672 17.109 123.698C22.5641 129.024 27.4226 142.226 25.7618 154.257C25.7498 154.324 25.7143 154.384 25.6617 154.428C25.6091 154.471 25.5428 154.494 25.4747 154.493Z" fill="white"/>
<path d="M13.0393 165.876C12.4144 166.237 11.1252 165.449 10.6297 165.116C9.78148 164.541 9.09681 163.755 8.64245 162.836C8.12758 161.79 7.95241 160.609 8.14141 159.459C8.24405 158.855 8.38699 158.259 8.56926 157.674C8.73252 157.111 8.90142 156.514 9.06468 155.934C9.27018 155.375 9.35833 154.779 9.32364 154.184C9.17164 152.996 8.11326 152.162 7.1562 151.448C6.09782 150.654 4.99439 149.607 5.00002 148.177C5.07722 147.066 5.52076 146.013 6.26108 145.182C6.94228 144.315 7.75295 143.555 8.37222 142.637C8.85882 142.002 9.11314 141.219 9.09283 140.419C9.0281 139.927 8.86333 139.454 8.60867 139.028C8.02791 138.144 7.51958 137.214 7.08865 136.247C6.73961 135.245 6.79027 133.995 7.5728 133.286C7.92184 133.026 8.31904 132.838 8.74136 132.733C9.16368 132.627 9.60271 132.607 10.033 132.672C10.8435 132.775 11.6228 133.049 12.3187 133.477C14.5705 134.739 15.8823 137.418 18.2918 138.398C19.2474 138.699 20.2215 138.938 21.208 139.113C21.7027 139.206 22.1723 139.402 22.5864 139.688C23.0005 139.974 23.3499 140.344 23.6119 140.774C24.4957 142.541 22.8575 144.714 23.4768 146.595C24.0397 148.25 25.6386 148.886 26.545 150.383C26.912 151.043 27.0599 151.802 26.9672 152.551C26.889 153.82 26.5779 155.065 26.0495 156.222C25.4645 157.372 24.7926 158.477 24.0397 159.526C24.0003 159.56 13.135 165.82 13.0393 165.876Z" fill="#00977C"/>
<path d="M19.4738 162.447C19.4364 162.447 19.3994 162.439 19.3652 162.423C19.3309 162.408 19.3001 162.386 19.2744 162.359C19.2487 162.332 19.2287 162.3 19.2156 162.265C19.2025 162.229 19.1965 162.192 19.198 162.155C19.6652 150.935 14.3789 138.544 10.5338 134.946C10.5069 134.921 10.4852 134.89 10.47 134.856C10.4548 134.822 10.4465 134.786 10.4454 134.749C10.4444 134.712 10.4507 134.675 10.4639 134.64C10.4771 134.605 10.4971 134.574 10.5226 134.547C10.5481 134.52 10.5787 134.498 10.6125 134.483C10.6464 134.468 10.683 134.459 10.7201 134.458C10.7572 134.457 10.7942 134.463 10.8289 134.477C10.8636 134.49 10.8953 134.51 10.9223 134.535C14.8631 138.206 20.2338 150.8 19.7609 162.177C19.758 162.251 19.7263 162.32 19.6726 162.371C19.6189 162.421 19.5475 162.449 19.4738 162.447Z" fill="white"/>
<path d="M17.7912 149.217C17.7652 149.223 17.7384 149.223 17.7124 149.217C15.0529 148.484 12.3213 148.045 9.56619 147.906C9.49202 147.901 9.42243 147.868 9.37204 147.814C9.32165 147.759 9.29438 147.687 9.29596 147.613C9.29583 147.575 9.3035 147.538 9.31846 147.504C9.33343 147.47 9.35537 147.439 9.3829 147.413C9.41043 147.388 9.44294 147.369 9.47837 147.356C9.5138 147.344 9.55138 147.34 9.58871 147.343C12.3907 147.475 15.1697 147.915 17.8757 148.654C17.9503 148.666 18.0175 148.706 18.0623 148.767C18.1072 148.827 18.1261 148.904 18.1149 148.978C18.1037 149.053 18.0633 149.12 18.0026 149.165C17.9419 149.21 17.8659 149.229 17.7912 149.217Z" fill="white"/>
<path d="M209.398 144.021L205.79 141.961C205.79 141.961 204.061 132.424 205.356 124.222C207.175 112.698 215.022 108.723 217.877 109.866C220.731 111.009 221.395 114.426 216.244 121.086C213.21 125.01 209.303 133.325 209.398 144.021Z" fill="#00977C"/>
<g opacity="0.1">
<path d="M209.398 144.021L205.79 141.961C205.79 141.961 204.061 132.424 205.356 124.222C207.175 112.698 215.022 108.723 217.877 109.866C220.731 111.009 221.395 114.426 216.244 121.086C213.21 125.01 209.303 133.325 209.398 144.021Z" fill="black"/>
</g>
<path d="M208.092 139.445H208.126C208.159 139.44 208.191 139.43 208.221 139.413C208.25 139.396 208.275 139.374 208.296 139.347C208.316 139.32 208.331 139.29 208.34 139.257C208.348 139.225 208.35 139.191 208.345 139.157C206.87 128.388 211.194 116.565 216.069 111.769C216.093 111.746 216.113 111.718 216.126 111.687C216.139 111.656 216.146 111.623 216.147 111.59C216.147 111.556 216.141 111.523 216.129 111.492C216.117 111.461 216.098 111.433 216.075 111.409C216.052 111.384 216.024 111.365 215.993 111.352C215.963 111.339 215.929 111.332 215.896 111.331C215.863 111.331 215.829 111.337 215.798 111.349C215.767 111.361 215.739 111.38 215.715 111.403C210.749 116.256 206.324 128.292 207.833 139.219C207.841 139.282 207.872 139.339 207.92 139.381C207.968 139.422 208.029 139.445 208.092 139.445Z" fill="white"/>
<path d="M219.414 149.781C219.977 150.113 221.159 149.392 221.61 149.094C222.38 148.567 223.002 147.852 223.417 147.017C223.881 146.067 224.04 144.998 223.873 143.954C223.78 143.404 223.65 142.86 223.484 142.327L223.028 140.773C222.844 140.263 222.765 139.721 222.797 139.18C222.933 138.094 223.895 137.339 224.768 136.686C225.73 135.966 226.738 134.997 226.733 133.708C226.668 132.701 226.272 131.743 225.607 130.983C224.982 130.195 224.244 129.497 223.681 128.669C223.238 128.088 223.008 127.373 223.028 126.643C223.087 126.197 223.237 125.768 223.467 125.382C223.998 124.577 224.461 123.729 224.852 122.848C225.168 121.936 225.122 120.805 224.413 120.152C224.094 119.913 223.731 119.74 223.344 119.643C222.957 119.546 222.555 119.528 222.161 119.589C221.421 119.68 220.711 119.932 220.078 120.326C218.012 121.452 216.836 123.918 214.64 124.802C213.77 125.074 212.885 125.292 211.988 125.455C211.539 125.537 211.112 125.713 210.734 125.971C210.357 126.229 210.038 126.563 209.798 126.952C208.993 128.557 210.485 130.538 209.922 132.244C209.421 133.759 207.952 134.333 207.107 135.695C206.771 136.296 206.637 136.989 206.725 137.671C206.794 138.826 207.077 139.958 207.558 141.01C208.091 142.058 208.703 143.065 209.387 144.022C209.432 144.055 219.324 149.781 219.414 149.781Z" fill="#00977C"/>
<path d="M213.553 146.685C213.588 146.684 213.622 146.676 213.653 146.662C213.685 146.648 213.713 146.628 213.737 146.603C213.76 146.578 213.779 146.548 213.791 146.516C213.803 146.483 213.808 146.449 213.807 146.414C213.379 136.202 218.192 124.926 221.688 121.644C221.714 121.621 221.735 121.593 221.75 121.561C221.765 121.53 221.773 121.496 221.775 121.462C221.776 121.427 221.771 121.393 221.759 121.36C221.747 121.328 221.728 121.298 221.705 121.273C221.681 121.248 221.652 121.228 221.621 121.214C221.589 121.2 221.555 121.192 221.52 121.191C221.486 121.191 221.451 121.197 221.419 121.21C221.387 121.223 221.358 121.242 221.333 121.267C217.764 124.611 212.855 136.073 213.283 146.431C213.286 146.501 213.316 146.566 213.366 146.613C213.417 146.661 213.484 146.686 213.553 146.685Z" fill="white"/>
<path d="M215.084 134.615C215.11 134.621 215.137 134.621 215.163 134.615C217.582 133.948 220.066 133.548 222.572 133.422C222.64 133.419 222.703 133.389 222.75 133.34C222.796 133.29 222.821 133.225 222.82 133.157C222.82 133.122 222.813 133.088 222.799 133.057C222.785 133.025 222.765 132.997 222.739 132.973C222.714 132.95 222.684 132.932 222.651 132.921C222.618 132.91 222.584 132.906 222.549 132.909C220 133.037 217.472 133.445 215.011 134.125C214.946 134.145 214.89 134.19 214.858 134.25C214.825 134.31 214.817 134.38 214.837 134.446C214.855 134.497 214.888 134.541 214.933 134.571C214.977 134.602 215.03 134.617 215.084 134.615Z" fill="white"/>
<path d="M155.567 73.4205L193.99 95.6073C195.055 96.3003 195.942 97.2352 196.578 98.3358C197.214 99.4363 197.581 100.671 197.649 101.941V133.101C197.58 134.37 197.213 135.604 196.579 136.704C195.944 137.805 195.059 138.74 193.995 139.435L189.874 141.816C188.74 142.392 187.487 142.692 186.215 142.692C184.943 142.692 183.69 142.392 182.556 141.816L144.127 119.629C143.064 118.935 142.178 118 141.544 116.899C140.909 115.799 140.542 114.564 140.474 113.296V82.1353C140.542 80.8668 140.909 79.6323 141.544 78.5319C142.178 77.4316 143.064 76.4963 144.127 75.8019L148.248 73.4205C149.382 72.8449 150.636 72.5449 151.908 72.5449C153.179 72.5449 154.433 72.8449 155.567 73.4205Z" fill="#00977C"/>
<path opacity="0.03" d="M193.989 99.8298L189.874 102.206C188.809 102.899 187.923 103.834 187.287 104.935C186.651 106.035 186.284 107.27 186.215 108.539V139.705C186.215 142.036 187.853 142.982 189.874 141.816L193.995 139.435C195.059 138.74 195.944 137.805 196.578 136.705C197.213 135.604 197.58 134.37 197.649 133.101V101.93C197.649 99.6046 196.011 98.6589 193.989 99.8298Z" fill="black"/>
<path opacity="0.2" d="M189.295 142.103C188.212 142.534 187.051 142.732 185.887 142.683C184.723 142.635 183.582 142.341 182.539 141.821L144.116 119.623C143.051 118.93 142.164 117.995 141.528 116.895C140.892 115.794 140.525 114.559 140.457 113.29V82.1294C140.499 80.8566 140.867 79.6159 141.527 78.5264L187.268 104.93C186.612 106.021 186.244 107.26 186.198 108.533V139.71C186.215 141.804 187.55 142.778 189.295 142.103Z" fill="black"/>
<path opacity="0.1" d="M197.644 101.93C197.644 99.6051 196.011 98.6481 193.996 99.8191L189.875 102.195C188.796 102.872 187.905 103.812 187.285 104.925L141.566 78.5275C142.185 77.4127 143.076 76.4733 144.156 75.7971L148.277 73.4213C149.41 72.844 150.664 72.543 151.936 72.543C153.208 72.543 154.462 72.844 155.596 73.4213L194.018 95.6024C195.076 96.3 195.954 97.2359 196.584 98.3349C197.214 99.434 197.577 100.665 197.644 101.93Z" fill="white"/>
<path d="M148.964 90.3664L181.667 109.248C182.731 109.942 183.618 110.877 184.253 111.978C184.889 113.078 185.257 114.313 185.326 115.582V140.144C185.257 141.413 184.889 142.648 184.253 143.749C183.618 144.849 182.731 145.784 181.667 146.478L143.255 168.664C142.121 169.24 140.867 169.54 139.596 169.54C138.324 169.54 137.07 169.24 135.936 168.664L103.228 149.782C102.162 149.089 101.275 148.154 100.64 147.054C100.004 145.953 99.6367 144.718 99.5684 143.449V118.881C99.638 117.612 100.006 116.377 100.641 115.277C101.277 114.177 102.163 113.242 103.228 112.547L141.651 90.3664C142.784 89.7917 144.036 89.4922 145.307 89.4922C146.578 89.4922 147.83 89.7917 148.964 90.3664Z" fill="#00977C"/>
<path opacity="0.2" d="M181.666 113.471L143.187 135.664C142.053 136.239 140.8 136.539 139.528 136.539C138.256 136.539 137.003 136.239 135.869 135.664L103.16 116.781C101.145 115.616 101.145 113.725 103.16 112.559L141.645 90.3668C142.779 89.7912 144.032 89.4912 145.304 89.4912C146.576 89.4912 147.829 89.7912 148.963 90.3668L181.666 109.249C183.688 110.414 183.688 112.306 181.666 113.471Z" fill="white"/>
<path opacity="0.2" d="M139.584 136.536V169.543C138.312 169.568 137.054 169.262 135.936 168.653L103.228 149.782C102.162 149.09 101.275 148.155 100.639 147.054C100.003 145.954 99.6362 144.718 99.5684 143.449V118.886C99.685 116.75 100.635 114.745 102.214 113.302C101.218 114.428 101.539 115.835 103.171 116.775L135.869 135.663C137.01 136.272 138.291 136.573 139.584 136.536Z" fill="black"/>
<path d="M97.5074 69.6378L135.936 47.4567C137.07 46.881 138.324 46.5811 139.595 46.5811C140.867 46.5811 142.121 46.881 143.255 47.4567L147.375 49.838C148.441 50.5311 149.328 51.466 149.964 52.5665C150.599 53.6671 150.966 54.9023 151.035 56.1715V87.332C150.966 88.6012 150.599 89.8363 149.964 90.9369C149.328 92.0375 148.441 92.9723 147.375 93.6654L108.953 115.852C107.819 116.428 106.565 116.728 105.293 116.728C104.022 116.728 102.768 116.428 101.634 115.852L97.5131 113.471C96.4496 112.776 95.5646 111.841 94.9299 110.74C94.2951 109.64 93.9284 108.406 93.8594 107.137V75.9712C93.9273 74.7032 94.293 73.469 94.9268 72.3687C95.5606 71.2683 96.4447 70.3327 97.5074 69.6378Z" fill="#00977C"/>
<path opacity="0.2" d="M149.96 52.5739L104.218 78.9885C103.607 77.8658 102.714 76.9211 101.628 76.2469L97.5018 73.8655C95.492 72.7002 93.8594 73.6403 93.8594 75.9766C93.9276 74.7093 94.2928 73.4758 94.9255 72.3757C95.5582 71.2755 96.4407 70.3395 97.5018 69.6432L135.936 47.4621C137.07 46.8874 138.324 46.5879 139.595 46.5879C140.867 46.5879 142.12 46.8874 143.255 47.4621L147.381 49.8435C148.462 50.5151 149.351 51.4559 149.96 52.5739Z" fill="white"/>
<path opacity="0.2" d="M97.5072 73.8603L101.628 76.2416C102.693 76.9354 103.579 77.8704 104.215 78.9708C104.851 80.0712 105.218 81.306 105.287 82.5751V113.752C105.287 116.083 103.649 117.029 101.628 115.864L97.5072 113.482C96.4437 112.788 95.5588 111.852 94.924 110.752C94.2893 109.652 93.9225 108.417 93.8535 107.149V75.9714C93.8535 73.6407 95.4861 72.6949 97.5072 73.8603Z" fill="black"/>
<path d="M101.882 117.564L134.585 136.452C135.651 137.145 136.537 138.08 137.173 139.18C137.809 140.281 138.176 141.516 138.245 142.785V167.348C138.175 168.617 137.808 169.852 137.172 170.952C136.536 172.052 135.65 172.987 134.585 173.681L96.1624 195.862C95.0285 196.438 93.7748 196.738 92.5031 196.738C91.2315 196.738 89.9777 196.438 88.8438 195.862L56.1408 176.98C55.0759 176.286 54.1896 175.351 53.5538 174.251C52.918 173.151 52.5506 171.916 52.4814 170.647V146.084C52.5506 144.815 52.918 143.58 53.5538 142.48C54.1896 141.38 55.0759 140.445 56.1408 139.751L94.5636 117.564C95.6975 116.988 96.9512 116.688 98.2229 116.688C99.4946 116.688 100.748 116.988 101.882 117.564Z" fill="#00977C"/>
<path opacity="0.2" d="M134.585 140.674L96.1063 162.866C94.9723 163.442 93.7186 163.742 92.4469 163.742C91.1753 163.742 89.9216 163.442 88.7876 162.866L56.079 143.979C54.0635 142.813 54.0635 140.927 56.079 139.756L94.5637 117.564C95.6976 116.988 96.9514 116.688 98.223 116.688C99.4947 116.688 100.748 116.988 101.882 117.564L134.585 136.452C136.606 137.617 136.606 139.503 134.585 140.674Z" fill="white"/>
<path opacity="0.2" d="M92.5033 163.738V196.74C91.2312 196.767 89.9738 196.463 88.8553 195.856L56.1466 176.98C55.0802 176.288 54.1927 175.353 53.5567 174.252C52.9207 173.151 52.5543 171.916 52.4873 170.646V146.089C52.6031 143.951 53.5532 141.944 55.1333 140.499C54.1368 141.625 54.4577 143.032 56.0903 143.978L88.7877 162.866C89.9301 163.473 91.2102 163.773 92.5033 163.738Z" fill="black"/>
<path d="M50.4269 96.8631L88.8497 74.6764C89.9837 74.1008 91.2374 73.8008 92.509 73.8008C93.7807 73.8008 95.0344 74.1008 96.1684 74.6764L100.289 77.0578C101.354 77.7515 102.24 78.6865 102.876 79.7869C103.512 80.8874 103.879 82.1222 103.949 83.3912V114.557C103.879 115.826 103.512 117.061 102.876 118.162C102.24 119.262 101.354 120.197 100.289 120.891L61.8609 143.027C60.7269 143.602 59.4732 143.902 58.2015 143.902C56.9299 143.902 55.6761 143.602 54.5422 143.027L50.4213 140.651C49.3584 139.956 48.4739 139.02 47.8393 137.92C47.2046 136.82 46.8375 135.586 46.7676 134.318V103.174C46.8398 101.909 47.2086 100.678 47.8443 99.582C48.48 98.4857 49.3647 97.5543 50.4269 96.8631Z" fill="#00977C"/>
<path opacity="0.2" d="M50.4261 101.062L54.5471 103.438C55.6116 104.132 56.4977 105.067 57.1334 106.168C57.7692 107.268 58.1368 108.503 58.2064 109.772V140.938C58.2064 143.268 56.5682 144.214 54.5471 143.049L50.4261 140.673C49.3633 139.978 48.4788 139.042 47.8441 137.942C47.2095 136.842 46.8424 135.608 46.7725 134.34V103.174C46.7725 100.843 48.4051 99.8971 50.4261 101.062Z" fill="black"/>
<path opacity="0.2" d="M102.867 79.7663L57.1199 106.17C56.4987 105.057 55.6083 104.118 54.5303 103.439L50.4093 101.058C48.3939 99.8925 46.75 100.85 46.75 103.169C46.8223 101.901 47.191 100.667 47.8265 99.5672C48.462 98.4672 49.3466 97.5317 50.4093 96.8356L88.8321 74.6545C89.9663 74.0798 91.22 73.7803 92.4915 73.7803C93.763 73.7803 95.0166 74.0798 96.1508 74.6545L100.272 77.0359C101.354 77.7121 102.247 78.6515 102.867 79.7663Z" fill="white"/>
<path d="M49.5767 134.583L87.9995 156.769C89.0636 157.463 89.949 158.399 90.5839 159.499C91.2187 160.6 91.5851 161.834 91.6532 163.103V194.258C91.5859 195.526 91.22 196.761 90.5851 197.862C89.9501 198.963 89.0642 199.898 87.9995 200.591L83.8785 202.972C82.7446 203.548 81.4909 203.848 80.2192 203.848C78.9476 203.848 77.6938 203.548 76.5599 202.972L38.1427 180.746C37.0782 180.052 36.1921 179.117 35.5564 178.017C34.9206 176.916 34.553 175.682 34.4834 174.413V143.269C34.5526 142 34.92 140.766 35.5558 139.665C36.1916 138.565 37.0779 137.63 38.1427 136.936L42.2637 134.555C43.3991 133.984 44.6529 133.69 45.9235 133.694C47.1941 133.699 48.4457 134.004 49.5767 134.583Z" fill="#00977C"/>
<path opacity="0.03" d="M87.999 160.963L83.8781 163.339C82.8132 164.032 81.9269 164.967 81.2911 166.068C80.6553 167.168 80.2879 168.403 80.2188 169.672V200.838C80.2188 203.169 81.857 204.115 83.8781 202.949L87.999 200.568C89.0608 199.877 89.9449 198.945 90.5796 197.849C91.2144 196.752 91.582 195.522 91.6527 194.257V163.074C91.6527 160.743 90.0201 159.797 87.999 160.963Z" fill="black"/>
<path opacity="0.2" d="M83.3041 203.265C82.2221 203.698 81.0605 203.897 79.8961 203.848C78.7316 203.8 77.5907 203.505 76.5484 202.983L38.1369 180.746C37.072 180.052 36.1857 179.117 35.5499 178.017C34.9141 176.916 34.5467 175.682 34.4775 174.413V143.269C34.5207 141.996 34.889 140.756 35.5472 139.666L81.2886 166.069C80.6347 167.161 80.2668 168.401 80.219 169.672V200.844C80.2021 202.944 81.5589 203.912 83.3041 203.265Z" fill="black"/>
<path opacity="0.1" d="M91.648 163.069C91.648 160.749 90.0154 159.792 88.0056 160.958L83.879 163.339C82.7997 164.017 81.909 164.956 81.2893 166.069L35.5479 139.649C36.1693 138.537 37.0597 137.598 38.1375 136.919L42.2641 134.537C43.3983 133.963 44.6519 133.663 45.9234 133.663C47.1949 133.663 48.4485 133.963 49.5827 134.537L88.0056 156.718C89.0676 157.418 89.9506 158.357 90.5832 159.46C91.2159 160.563 91.5806 161.799 91.648 163.069Z" fill="white"/>
<path d="M90.1838 92.922C94.5693 92.7756 96.9395 94.4364 97.6826 97.7861C98.4257 101.136 96.095 114.675 96.095 114.675C102.969 118.886 107.658 121.65 110.912 123.154C113.474 124.33 121.046 130.602 121.13 132.127C121.215 133.653 118.169 131.063 116.272 129.802C114.375 128.541 112.1 128.676 108.323 127.663C104.545 126.65 91.1071 123.221 89.2267 121.425C87.3464 119.629 90.1838 92.922 90.1838 92.922Z" fill="#FFA8A7"/>
<path d="M117.708 173.162C117.195 173.725 116.615 174.322 116.677 174.992C116.866 176.424 117.502 177.76 118.496 178.809C119.909 180.334 120.832 183.245 121.097 185.221C121.361 187.197 121.536 192.236 124.041 194.229C126.546 196.221 132.621 197.207 132.621 193.53C132.621 189.854 125.37 175.729 125.37 175.729L117.708 173.162Z" fill="#263238"/>
<path d="M121.074 175.526C122.09 178.088 122.908 180.722 123.523 183.408C124.142 186.358 125.015 188.43 126.518 189.229C128.021 190.029 130.268 189.877 129.423 187.872C128.579 185.868 125.37 175.707 125.37 175.707L121.074 175.526Z" fill="#F28F8F"/>
<path d="M101.651 125.338C101.651 125.338 113.598 130.804 119.407 133.923C125.217 137.042 130.74 140.116 131.894 142.61C133.11 145.267 132.8 151.617 132.164 157.681C131.528 163.744 130.194 174.705 130.194 174.705L113.187 149.219L96.0947 137.932L101.651 125.338Z" fill="#455A64"/>
<path d="M101.111 136.968L101.674 135.701C101.674 135.701 111.549 141.404 114.977 143.526C118.406 145.649 122.065 148.25 123.748 152.151C125.432 156.053 130.634 171.512 130.634 171.512L118.642 150.034L101.111 136.968Z" fill="#37474F"/>
<path d="M131.647 193.795C131.157 194.116 131.225 195.337 131.27 196.227C131.315 197.116 130.707 198.287 131.974 199.661C133.24 201.035 135.447 201.159 137.215 203.039C138.983 204.919 141.719 208.387 146.549 208.635C151.379 208.883 154.74 206.766 155.393 205.223C156.046 203.681 155.05 202.487 151.774 201.249C148.294 199.931 147.304 199.56 147.304 199.56L131.647 193.795Z" fill="#263238"/>
<path d="M135.165 183.329C135.165 183.329 138.436 189.246 140.277 191.909C142.118 194.572 144.724 196.976 147.551 199.12C148.164 199.593 149.515 200.421 150.016 200.809C150.131 200.881 150.229 200.976 150.303 201.09C150.376 201.203 150.424 201.331 150.442 201.465C150.46 201.599 150.449 201.735 150.408 201.864C150.368 201.993 150.299 202.112 150.208 202.211C149.397 203.388 145.141 204.508 142.366 203.202C139.59 201.896 136.511 198.952 134.777 197.797C133.904 197.235 133.088 196.672 132.485 196.249C132.202 196.057 131.973 195.795 131.821 195.488C131.669 195.181 131.599 194.84 131.618 194.498C131.618 194.301 131.618 194.071 131.647 193.8C131.692 192.342 128.68 187.045 128.68 187.045L135.165 183.329Z" fill="#FFA8A7"/>
<path d="M75.2197 132.082C75.2704 136.941 75.5125 139.649 78.0346 144.079C80.5567 148.51 86.7944 151.313 94.13 153.779C100.199 155.817 109.128 158.728 110.895 159.111C112.663 159.493 113.035 160.439 113.44 163.575C113.845 166.711 115.962 171.547 120.702 177.165C124.142 181.34 127.355 185.696 130.329 190.215C130.329 190.215 135.283 190.215 137.18 186.916C137.18 186.916 123.393 154.393 121.186 150.638C118.98 146.883 101.088 136.969 101.088 136.969C101.088 136.969 101.392 130.241 101.651 125.338L75.2197 132.082Z" fill="#455A64"/>
<path d="M103.645 132.145C102.918 133.812 102.071 135.424 101.111 136.969L102.237 137.583C103.081 135.888 103.56 134.036 103.645 132.145Z" fill="#37474F"/>
<path d="M78.2321 94.8585L73.931 97.0203C73.931 97.0203 76.8979 100.004 76.0815 107.334C75.5186 112.525 74.3476 112.964 71.7129 114.433C75.2202 122.405 75.2652 134.137 75.2652 134.137C75.2652 134.137 81.4579 137.464 92.7174 134.261C102.62 131.446 101.635 125.338 101.635 125.338L97.3788 122.056L96.433 114.315C96.433 114.315 99.8108 110.937 98.3358 104.947C96.8608 98.9569 90.184 92.9219 90.184 92.9219H87.5718L78.2321 94.8585Z" fill="#FAFAFA"/>
<path d="M100.053 130.021C95.0256 131.902 87.3861 132.2 84.2897 130.021C81.1934 127.843 78.6206 121.836 79.1217 117.946C79.6227 114.056 78.6319 107.407 77.1062 103.466L76.1098 103.185C76.235 104.564 76.2181 105.952 76.0591 107.328C75.4961 112.519 74.3251 112.958 71.6904 114.427C74.9838 122.202 75.2428 134.131 75.2428 134.131C75.2428 134.131 81.4355 137.458 92.6949 134.255C95.8926 133.349 98.4766 131.941 100.014 130.016L100.053 130.021Z" fill="#F0F0F0"/>
<path d="M86.0964 88.6831L81.2604 88.8126C78.028 88.9004 74.893 87.7006 72.545 85.4772C70.197 83.2538 68.8283 80.1889 68.7399 76.9564C68.643 73.0854 70.0839 69.3338 72.7471 66.5228C75.4103 63.7119 79.0788 62.0708 82.9494 61.9588C86.8213 61.8604 90.5744 63.3006 93.3866 65.9639C96.1987 68.6273 97.8406 72.2967 97.9526 76.1682C98.0388 79.3998 96.8384 82.5333 94.6152 84.88C92.3919 87.2268 89.3278 88.5947 86.0964 88.6831Z" fill="#263238"/>
<path d="M79.0758 58.5805C81.232 61.6037 79.0758 63.7542 76.0414 65.8992C73.007 68.0441 70.2822 69.4008 68.126 66.3777C65.9698 63.3545 67.0395 59.9035 70.0626 57.7473C73.0858 55.5911 76.9309 55.5799 79.0758 58.5805Z" fill="#263238"/>
<path d="M71.7857 68.2746L68.7456 70.6335C68.5812 70.442 68.4574 70.2191 68.3817 69.9784C68.306 69.7376 68.28 69.484 68.3053 69.2329C68.3305 68.9818 68.4065 68.7384 68.5287 68.5176C68.6508 68.2967 68.8166 68.103 69.0159 67.9481C69.4306 67.6349 69.9503 67.494 70.4664 67.5549C70.9825 67.6157 71.4552 67.8736 71.7857 68.2746Z" fill="#263238"/>
<path d="M92.1315 68.2471C93.6966 69.1197 95.712 72.9479 95.7458 81.0885C95.7458 87.9849 93.584 89.7526 92.4749 90.2705C91.3659 90.7885 89.1928 90.552 87.0817 90.2705L87.1154 93.1304C87.1154 93.1304 90.9099 97.2795 90.7804 99.1824C90.6509 101.085 85.9276 102.07 83.1521 100.308C80.3767 98.5462 77.984 95.022 77.984 95.022L77.7814 85.4515C77.7814 85.4515 76.5766 86.6844 74.4035 84.8885C72.6302 83.4192 71.9771 80.8802 73.2776 79.4671C73.6193 79.1322 74.0355 78.8832 74.4921 78.7406C74.9488 78.5979 75.4327 78.5656 75.9043 78.6464C76.3758 78.7272 76.8214 78.9187 77.2045 79.2053C77.5876 79.4918 77.8972 79.8652 78.1079 80.2947C78.1079 80.2947 81.4857 80.3284 85.8657 77.75C87.5843 76.771 89.0475 75.4001 90.1363 73.7488C91.2251 72.0975 91.9088 70.2124 92.1315 68.2471Z" fill="#FFA8A7"/>
<path d="M88 79.5623C88.0061 79.7321 87.9622 79.8999 87.8737 80.0449C87.7852 80.19 87.656 80.3058 87.5023 80.378C87.3485 80.4503 87.1769 80.4758 87.0088 80.4513C86.8407 80.4269 86.6834 80.3536 86.5566 80.2405C86.4298 80.1274 86.339 79.9796 86.2955 79.8154C86.252 79.6512 86.2577 79.4778 86.3119 79.3167C86.3661 79.1557 86.4664 79.0142 86.6004 78.9097C86.7344 78.8052 86.8961 78.7424 87.0655 78.7291C87.1816 78.7222 87.2979 78.7384 87.4078 78.7766C87.5176 78.8148 87.6189 78.8743 87.7057 78.9517C87.7925 79.0291 87.8632 79.1229 87.9137 79.2276C87.9642 79.3324 87.9935 79.4461 88 79.5623Z" fill="#263238"/>
<path d="M88.3876 85.4004L90.4199 85.9915C90.3873 86.1271 90.3276 86.2548 90.2444 86.3668C90.1613 86.4787 90.0564 86.5728 89.936 86.6432C89.8156 86.7137 89.6822 86.7591 89.5438 86.7767C89.4055 86.7944 89.2649 86.7839 89.1307 86.7459C88.8594 86.6575 88.6318 86.4694 88.4939 86.2197C88.3559 85.9699 88.3179 85.6771 88.3876 85.4004Z" fill="#F28F8F"/>
<path d="M95.0363 76.7079L93.2461 75.5369C93.3169 75.4169 93.4114 75.3124 93.5238 75.2299C93.6362 75.1474 93.7642 75.0886 93.9 75.057C94.0358 75.0255 94.1766 75.0218 94.3139 75.0462C94.4511 75.0706 94.582 75.1227 94.6986 75.1991C94.9368 75.36 95.1046 75.6059 95.1674 75.8864C95.2302 76.1669 95.1833 76.4608 95.0363 76.7079Z" fill="#263238"/>
<path d="M94.6878 78.7514C94.6951 78.9228 94.6517 79.0924 94.5632 79.2393C94.4746 79.3861 94.3447 79.5036 94.1897 79.5771C94.0347 79.6505 93.8616 79.6767 93.6918 79.6523C93.5221 79.6279 93.3633 79.554 93.2353 79.4399C93.1073 79.3258 93.0157 79.1765 92.9721 79.0106C92.9284 78.8448 92.9346 78.6697 92.9899 78.5074C93.0452 78.345 93.147 78.2026 93.2828 78.0978C93.4186 77.993 93.5822 77.9305 93.7533 77.9182C93.9874 77.9059 94.2169 77.9865 94.3919 78.1425C94.5669 78.2986 94.6733 78.5174 94.6878 78.7514Z" fill="#263238"/>
<path d="M90.7578 77.9355L90.8648 83.5822L93.5839 82.6589L90.7578 77.9355Z" fill="#F28F8F"/>
<path d="M87.0823 90.2592C84.8304 90.0284 80.259 88.8405 79.499 87.0615C79.8083 87.9649 80.3881 88.7511 81.1598 89.3134C82.556 90.4394 87.116 91.6329 87.116 91.6329L87.0823 90.2592Z" fill="#F28F8F"/>
<path d="M85.1621 143.026V143.622C85.1619 143.919 85.2399 144.211 85.3881 144.468C85.5364 144.724 85.7497 144.938 86.0066 145.086L102.119 154.358C102.376 154.507 102.667 154.585 102.963 154.585C103.26 154.585 103.551 154.507 103.808 154.358L133.364 137.295C133.621 137.146 133.834 136.933 133.982 136.676C134.13 136.419 134.208 136.128 134.208 135.831V135.42L102.963 153.435L85.1621 143.026Z" fill="#EBEBEB"/>
<path d="M134.214 135.415L116.688 125.282C116.535 125.193 116.361 125.146 116.185 125.146C116.008 125.146 115.834 125.193 115.681 125.282L85.2802 142.841C85.2463 142.86 85.2182 142.889 85.1987 142.923C85.1792 142.957 85.1689 142.996 85.1689 143.035C85.1689 143.074 85.1792 143.113 85.1987 143.147C85.2182 143.181 85.2463 143.209 85.2802 143.229L102.974 153.447L134.214 135.415Z" fill="#FAFAFA"/>
<path d="M108.352 127.679C109.793 128.242 109.736 128.659 110.913 129.323C113.092 130.562 114.505 130.319 114.505 130.319C115.153 130.928 115.841 131.493 116.565 132.008C118.102 133.067 119.65 133.877 121.548 133.281C123.625 132.622 122.161 130.567 121.548 129.554C120.934 128.54 117.607 125.574 116.931 124.966C116.256 124.358 113.435 123.941 110.941 123.164L108.352 127.679Z" fill="#FFA8A7"/>
<path d="M102.806 151.966L93.3535 146.517L120.995 130.557L130.498 135.978L102.806 151.966Z" fill="#E0E0E0"/>
<path d="M98.1611 136.8L98.3357 136.901L102.969 139.576L111.205 134.818L111.38 134.723L106.572 131.947L98.1611 136.8Z" fill="#E0E0E0"/>
<path d="M98.3359 136.902L102.969 139.576L111.205 134.819L106.572 132.145L98.3359 136.902Z" fill="#E6E6E6"/>
<path d="M102.969 153.453V154.579C103.265 154.579 103.556 154.501 103.813 154.353L133.369 137.29C133.626 137.141 133.839 136.928 133.988 136.671C134.136 136.414 134.214 136.123 134.214 135.826V135.415L102.969 153.453Z" fill="#EBEBEB"/>
<g style="mix-blend-mode:multiply" opacity="0.5">
<path d="M102.969 153.452V154.578C103.265 154.578 103.556 154.5 103.813 154.352L133.369 137.289C133.626 137.14 133.839 136.927 133.988 136.67C134.136 136.413 134.214 136.122 134.214 135.825V135.414L102.969 153.452Z" fill="#E0E0E0"/>
</g>
<path d="M103.441 153.723C103.721 153.831 104.022 153.875 104.321 153.851C104.62 153.828 104.91 153.738 105.17 153.588L134.596 136.597C134.852 136.45 135.072 136.248 135.24 136.005C135.408 135.763 135.521 135.486 135.57 135.196L138.796 115.987C138.804 115.876 138.804 115.765 138.796 115.655C138.796 115.12 138.583 114.608 138.205 114.23L107.624 131.891C107.436 132 107.274 132.15 107.149 132.329C107.025 132.508 106.941 132.712 106.904 132.927L103.441 153.723Z" fill="#EBEBEB"/>
<path d="M102.969 153.458L103.171 153.571C103.259 153.621 103.349 153.666 103.442 153.706L106.926 132.893C106.964 132.678 107.047 132.474 107.172 132.295C107.296 132.116 107.459 131.966 107.647 131.857L138.228 114.196C138.105 114.078 137.969 113.974 137.822 113.887L107.174 131.598C106.986 131.708 106.824 131.857 106.699 132.036C106.575 132.215 106.491 132.419 106.454 132.634L102.969 153.458Z" fill="#FAFAFA"/>
<path d="M120.022 135.967C120.236 134.683 121.564 132.972 122.983 132.15C124.402 131.328 125.387 131.705 125.173 132.994C124.959 134.283 123.625 135.989 122.206 136.811C120.787 137.633 119.802 137.256 120.022 135.967Z" fill="#00977C"/>
<path d="M87.7461 139.98C83.9911 138.888 70.5474 135.127 66.4658 133.788C63.651 132.864 62.0915 132.217 62.0127 129.757C61.9452 127.471 65.3286 108.747 66.5615 104.136C67.6368 100.088 70.0351 98.7031 73.9308 97.0029C76.6218 99.131 77.3875 109.979 74.1729 112.828C72.9738 117.58 70.7951 125.833 70.7951 125.833C70.7951 125.833 78.4402 129.807 83.9011 132.436C86.6258 133.748 90.3189 135.628 92.492 135.865C94.2147 136.051 97.2716 136.169 97.9303 136.771C99.5188 138.387 100.999 140.106 102.361 141.917C102.975 142.925 104.444 144.985 102.361 145.644C100.464 146.24 98.9211 145.43 97.3786 144.371C96.6551 143.855 95.9668 143.29 95.3181 142.682C93.7782 142.852 92.2235 142.543 90.865 141.799C89.7109 141.14 87.7461 139.98 87.7461 139.98Z" fill="#FFA8A7"/>
<path d="M77.4942 40.1387L75.4506 36.2992L77.0945 31.559V28.6484L72.0615 31.559V34.4639L74.2233 38.2133C74.259 38.2693 74.3098 38.3142 74.3697 38.3428L77.4942 40.1387Z" fill="#E0E0E0"/>
<path d="M75.2197 36.2871L77.3872 40.0027C77.4183 40.0527 77.4628 40.0929 77.5157 40.1189C77.5685 40.1449 77.6276 40.1556 77.6862 40.1498C77.7448 40.1439 77.8006 40.1217 77.8472 40.0858C77.8939 40.0498 77.9295 40.0015 77.9501 39.9464L80.202 33.3652L75.2197 36.2871Z" fill="#F0F0F0"/>
<path d="M85.9613 13.6782C85.9324 13.1549 85.7809 12.6458 85.5187 12.192C85.2566 11.7382 84.8914 11.3524 84.4525 11.066L83.2252 10.3567C82.7567 10.1227 82.2401 10.001 81.7164 10.001C81.1928 10.001 80.6762 10.1227 80.2077 10.3567L51.7607 26.7954C51.3212 27.0812 50.9555 27.4668 50.6933 27.9207C50.4311 28.3747 50.2799 28.8841 50.252 29.4076V44.1181C50.2799 44.6416 50.4311 45.151 50.6933 45.605C50.9555 46.0589 51.3212 46.4445 51.7607 46.7303L52.988 47.4396C53.4551 47.6783 53.9722 47.8027 54.4968 47.8027C55.0213 47.8027 55.5384 47.6783 56.0055 47.4396L62.0631 43.9436L67.0848 41.0386L84.4525 30.9952C84.891 30.7084 85.2561 30.3226 85.5182 29.8689C85.7802 29.4152 85.932 28.9062 85.9613 28.383V13.6782Z" fill="#F0F0F0"/>
<path d="M50.252 44.1186C50.2799 44.6421 50.4311 45.1515 50.6933 45.6055C50.9555 46.0594 51.3212 46.445 51.7607 46.7308L52.988 47.4401C53.4131 47.6539 53.8786 47.7754 54.354 47.7968C54.8294 47.8181 55.304 47.7388 55.7466 47.564C55.0372 47.8286 54.4968 47.4288 54.4968 46.5675V31.857C54.5155 31.3325 54.6666 30.8213 54.9359 30.3708L50.6911 27.9219C50.4211 28.3721 50.27 28.8835 50.252 29.4081V44.1186Z" fill="#E0E0E0"/>
<path d="M85.9107 13.2508C85.7362 12.609 85.1507 12.4063 84.4526 12.806L55.9944 29.2448C55.5466 29.5197 55.1795 29.9081 54.9303 30.3707L50.6855 27.9218C50.9381 27.4617 51.3044 27.074 51.7496 26.7959L80.2022 10.3571C80.6714 10.1223 81.189 10 81.7137 10C82.2385 10 82.756 10.1223 83.2253 10.3571L84.4526 11.0721C84.8314 11.3165 85.1562 11.636 85.4069 12.0106C85.6577 12.3853 85.8291 12.8074 85.9107 13.2508Z" fill="#FAFAFA"/>
<path d="M58.28 31.5018L82.1894 17.6978C82.6904 17.405 83.1014 17.5401 83.1014 17.9962C83.0637 18.2764 82.9618 18.5442 82.8036 18.7785C82.6454 19.0129 82.4352 19.2076 82.1894 19.3473L58.28 33.1514C57.7733 33.4441 57.3623 33.309 57.3623 32.853C57.4002 32.5721 57.5028 32.3038 57.662 32.0693C57.8212 31.8349 58.0328 31.6406 58.28 31.5018Z" fill="white"/>
<path d="M58.28 36.2089L82.1894 22.4048C82.6904 22.1121 83.1014 22.2472 83.1014 22.7032C83.0629 22.9832 82.9607 23.2506 82.8025 23.4848C82.6444 23.7191 82.4346 23.9139 82.1894 24.0543L58.28 37.8584C57.7733 38.1511 57.3623 38.016 57.3623 37.56C57.3993 37.2788 57.5016 37.0102 57.6609 36.7756C57.8202 36.541 58.0322 36.3469 58.28 36.2089Z" fill="white"/>
<path d="M58.28 40.9146L82.1894 27.1106C82.6904 26.8178 83.1014 26.9473 83.1014 27.4033C83.0613 27.6813 82.9583 27.9465 82.8002 28.1787C82.6422 28.4109 82.4333 28.6039 82.1894 28.7432L58.28 42.5473C57.7733 42.84 57.3623 42.7049 57.3623 42.2489C57.4018 41.9707 57.5052 41.7055 57.6644 41.474C57.8236 41.2425 58.0343 41.051 58.28 40.9146Z" fill="white"/>
<path d="M101.51 52.7146L99.4665 48.8695L101.11 44.1237V41.2188L96.083 44.1237V47.0286L98.2448 50.778C98.2792 50.8351 98.3303 50.8803 98.3912 50.9075L101.51 52.7146Z" fill="#00977C"/>
<path opacity="0.2" d="M101.51 52.7146L99.4665 48.8695L101.11 44.1237V41.2188L96.083 44.1237V47.0286L98.2448 50.778C98.2792 50.8351 98.3303 50.8803 98.3912 50.9075L101.51 52.7146Z" fill="black"/>
<path d="M123.14 18.6105C123.112 18.087 122.961 17.5775 122.699 17.1235C122.436 16.6696 122.071 16.284 121.631 15.9983L120.404 15.2889C119.937 15.0502 119.42 14.9258 118.895 14.9258C118.371 14.9258 117.854 15.0502 117.386 15.2889L88.9394 31.7108C88.502 32.0001 88.1379 32.3872 87.876 32.8416C87.6141 33.296 87.4617 33.8051 87.4307 34.3286V49.0391C87.4586 49.5626 87.6098 50.072 87.872 50.526C88.1342 50.9799 88.4999 51.3655 88.9394 51.6513L90.1667 52.3888C90.6353 52.6227 91.1518 52.7444 91.6755 52.7444C92.1992 52.7444 92.7157 52.6227 93.1842 52.3888L99.2418 48.8871L101.398 52.6252C101.43 52.6736 101.474 52.7124 101.527 52.7376C101.579 52.7628 101.637 52.7733 101.695 52.7681C101.752 52.7629 101.808 52.7422 101.855 52.7081C101.901 52.674 101.938 52.6279 101.961 52.5745L104.241 45.9878L121.609 35.95C122.048 35.6642 122.414 35.2787 122.676 34.8247C122.938 34.3708 123.09 33.8613 123.117 33.3378L123.14 18.6105Z" fill="#00977C"/>
<path opacity="0.2" d="M87.4307 49.0383C87.4586 49.5618 87.6098 50.0712 87.872 50.5252C88.1342 50.9791 88.4999 51.3647 88.9394 51.6505L90.1667 52.388C90.5918 52.6017 91.0574 52.7233 91.5328 52.7446C92.0081 52.766 92.4827 52.6866 92.9253 52.5118C92.2159 52.7764 91.6755 52.3767 91.6755 51.5153V36.7767C91.6935 36.2521 91.8446 35.7407 92.1146 35.2905L87.8698 32.8359C87.5998 33.2882 87.4487 33.8014 87.4307 34.3278V49.0383Z" fill="black"/>
<path opacity="0.2" d="M123.089 18.1707C122.914 17.5289 122.329 17.3262 121.631 17.7259L93.1838 34.1647C92.736 34.4396 92.3689 34.8281 92.1198 35.2907L87.875 32.8417C88.1275 32.3816 88.4939 31.9939 88.939 31.7158L117.358 15.277C117.827 15.0422 118.345 14.9199 118.869 14.9199C119.394 14.9199 119.912 15.0422 120.381 15.277L121.608 15.9864C121.991 16.2297 122.321 16.5492 122.575 16.9249C122.83 17.3006 123.005 17.7246 123.089 18.1707Z" fill="white"/>
<path d="M99.9844 37.0137C99.3992 37.3957 98.9122 37.9104 98.563 38.5158C98.2138 39.1213 98.0122 39.8005 97.9746 40.4984C97.9746 41.782 98.8754 42.3056 99.9844 41.6638C100.571 41.2815 101.059 40.7661 101.41 40.1597C101.76 39.5532 101.962 38.8727 102 38.1734C102 36.8898 101.099 36.3719 99.9844 37.0137Z" fill="white"/>
<path d="M107.405 32.7176C106.82 33.1009 106.333 33.6166 105.984 34.2229C105.635 34.8293 105.433 35.5093 105.396 36.208C105.396 37.4916 106.296 38.0095 107.405 37.3677C107.992 36.9866 108.48 36.4723 108.83 35.8668C109.181 35.2612 109.383 34.5815 109.421 33.8829C109.421 32.5994 108.52 32.0758 107.405 32.7176Z" fill="white"/>
<path d="M114.831 28.4277C114.244 28.8088 113.756 29.3231 113.406 29.9287C113.055 30.5343 112.853 31.214 112.815 31.9125C112.815 33.1961 113.716 33.714 114.831 33.0722C115.416 32.6902 115.903 32.1755 116.252 31.5701C116.601 30.9646 116.803 30.2854 116.841 29.5874C116.841 28.3039 115.94 27.7859 114.831 28.4277Z" fill="white"/>
</svg>
