<svg width="19" height="20" viewBox="0 0 19 20" fill="none" xmlns="http://www.w3.org/2000/svg">
<path d="M18.0864 3.456H15.0964V1.536C15.0964 0.6888 14.426 0 13.6014 0H6.1263C5.3017 0 4.63128 0.6888 4.63128 1.536V3.456H1.64125C1.22778 3.456 0.893738 3.7992 0.893738 4.224V4.992C0.893738 5.0976 0.977832 5.184 1.08061 5.184H2.49154L3.06852 17.736C3.1059 18.5544 3.76464 19.2 4.5612 19.2H15.1665C15.9654 19.2 16.6218 18.5568 16.6592 17.736L17.2361 5.184H18.6471C18.7498 5.184 18.8339 5.0976 18.8339 4.992V4.224C18.8339 3.7992 18.4999 3.456 18.0864 3.456ZM13.4145 3.456H6.31317V1.728H13.4145V3.456Z" fill="#FD0C0C"/>
</svg>
