<svg width="28" height="17" viewBox="0 0 28 17" fill="none" xmlns="http://www.w3.org/2000/svg">
<g clip-path="url(#clip0)">
<path d="M24.351 7.48085C24.8881 7.10794 25.2912 6.57497 25.5019 5.95934C25.7126 5.34372 25.72 4.67752 25.5228 4.05749C25.3257 3.43747 24.9343 2.89591 24.4056 2.51149C23.8769 2.12707 23.2384 1.91981 22.5828 1.91981C21.9272 1.91981 21.2887 2.12707 20.76 2.51149C20.2313 2.89591 19.84 3.43747 19.6428 4.05749C19.4457 4.67752 19.453 5.34372 19.6637 5.95934C19.8744 6.57497 20.2776 7.10794 20.8146 7.48085C20.1422 7.71036 19.5228 8.0707 18.9927 8.54075C18.263 7.92334 17.4117 7.46334 16.4929 7.19003C17.223 6.75258 17.7887 6.09007 18.1034 5.30376C18.4181 4.51744 18.4645 3.65057 18.2355 2.83563C18.0066 2.0207 17.5148 1.30252 16.8355 0.790854C16.1561 0.279193 15.3265 0.00219727 14.4734 0.00219727C13.6203 0.00219727 12.7907 0.279193 12.1113 0.790854C11.4319 1.30252 10.9402 2.0207 10.7112 2.83563C10.4822 3.65057 10.5286 4.51744 10.8433 5.30376C11.158 6.09007 11.7237 6.75258 12.4539 7.19003C11.5458 7.46329 10.7035 7.9176 9.97875 8.52512C9.45282 8.06509 8.84134 7.71136 8.17865 7.48382C8.71566 7.11091 9.11881 6.57794 9.32952 5.96232C9.54024 5.3467 9.54755 4.68049 9.35041 4.06047C9.15326 3.44044 8.76192 2.89889 8.23322 2.51447C7.70452 2.13005 7.06601 1.92279 6.41043 1.92279C5.75484 1.92279 5.11633 2.13005 4.58763 2.51447C4.05894 2.89889 3.66759 3.44044 3.47044 4.06047C3.2733 4.68049 3.28061 5.3467 3.49133 5.96232C3.70205 6.57794 4.10519 7.11091 4.6422 7.48382C3.57848 7.84865 2.65597 8.53336 2.00314 9.44258C1.35031 10.3518 0.999648 11.4403 1 12.5564V12.906C1.0005 12.9114 1.00288 12.9164 1.00671 12.9202C1.01055 12.924 1.0156 12.9264 1.021 12.9269H7.55461C7.51628 13.2229 7.49674 13.521 7.49611 13.8194V14.1794C7.49601 14.5495 7.56945 14.916 7.71224 15.258C7.85502 15.6 8.06435 15.9107 8.32827 16.1724C8.59218 16.4341 8.90551 16.6417 9.25035 16.7833C9.59519 16.9249 9.96479 16.9977 10.338 16.9976H18.6185C18.9917 16.9977 19.3613 16.9249 19.7061 16.7833C20.051 16.6417 20.3643 16.4341 20.6282 16.1724C20.8921 15.9107 21.1015 15.6 21.2443 15.258C21.387 14.916 21.4605 14.5495 21.4604 14.1794V13.8194C21.4598 13.521 21.4402 13.2229 21.4019 12.9269H27.9782C27.9842 12.9269 27.9899 12.9246 27.9942 12.9206C27.9985 12.9166 28.0011 12.9111 28.0015 12.9053V12.5557C27.9986 11.4389 27.6458 10.3506 26.9918 9.44142C26.3378 8.53223 25.415 7.8471 24.351 7.48085V7.48085ZM20.3548 4.97503C20.3549 4.53995 20.4845 4.11457 20.7275 3.75227C20.9704 3.38997 21.3158 3.10687 21.7204 2.9385C22.125 2.77013 22.5706 2.72398 23.0016 2.80584C23.4325 2.88769 23.8294 3.09391 24.1426 3.39863C24.4557 3.70334 24.6712 4.09298 24.7619 4.51866C24.8527 4.94435 24.8146 5.38712 24.6525 5.79143C24.4905 6.19575 24.2116 6.5436 23.8509 6.79135C23.4903 7.0391 23.0639 7.17572 22.6252 7.18407H22.5397C21.9561 7.17373 21.4 6.93634 20.9912 6.5231C20.5825 6.10985 20.3539 5.55387 20.3548 4.97503ZM11.4121 3.87348C11.412 3.28257 11.5865 2.70458 11.914 2.21089C12.2414 1.7172 12.7075 1.32943 13.2547 1.09547C13.8019 0.861504 14.4062 0.79159 14.993 0.894359C15.5798 0.997129 16.1234 1.26808 16.5567 1.67375C16.99 2.07943 17.2939 2.60207 17.431 3.17712C17.5682 3.75218 17.5325 4.35446 17.3283 4.90961C17.1242 5.46476 16.7605 5.94847 16.2823 6.30099C15.804 6.6535 15.2322 6.8594 14.6373 6.89325H14.2847C13.5082 6.84723 12.7786 6.50917 12.2448 5.94802C11.711 5.38687 11.4132 4.64491 11.4121 3.87348ZM4.16818 4.97503C4.16826 4.53995 4.2979 4.11457 4.54083 3.75227C4.78377 3.38997 5.12918 3.10687 5.53374 2.9385C5.9383 2.77013 6.38399 2.72398 6.8149 2.80584C7.24581 2.88769 7.64275 3.09391 7.95593 3.39863C8.2691 3.70334 8.48456 4.09298 8.57528 4.51866C8.666 4.94435 8.62794 5.38712 8.46588 5.79143C8.30381 6.19575 8.02495 6.5436 7.66429 6.79135C7.30363 7.0391 6.87722 7.17572 6.43855 7.18407H6.35305C5.76975 7.17278 5.21418 6.93509 4.80566 6.52205C4.39714 6.10902 4.16826 5.55358 4.16818 4.97503ZM7.70462 12.0737H1.86555C1.98526 10.9699 2.50985 9.94819 3.33958 9.20286C4.16931 8.45754 5.24631 8.04057 6.3658 8.03125H6.42955C7.49782 8.03701 8.52946 8.41808 9.34121 9.10676C8.55786 9.94718 7.99572 10.9663 7.70462 12.0737V12.0737ZM20.5956 14.1824C20.5948 14.7049 20.3851 15.2058 20.0126 15.5752C19.64 15.9447 19.1349 16.1526 18.608 16.1534H10.3275C9.80061 16.1526 9.29552 15.9447 8.92294 15.5752C8.55036 15.2058 8.3407 14.7049 8.33991 14.1824V13.8224C8.34147 12.2422 8.96275 10.7246 10.0723 9.59057C11.1819 8.4565 12.6928 7.79488 14.2855 7.74564C14.344 7.75084 14.4085 7.75084 14.467 7.75084C14.5255 7.75084 14.59 7.75084 14.6485 7.74564C16.2412 7.79488 17.7521 8.4565 18.8617 9.59057C19.9712 10.7246 20.5925 12.2422 20.5941 13.8224L20.5956 14.1824ZM21.2316 12.0737C20.9432 10.9754 20.3874 9.96406 19.613 9.12834C20.4297 8.42805 21.4713 8.03934 22.5509 8.03199H22.6147C23.7342 8.04131 24.8112 8.45828 25.6409 9.20361C26.4706 9.94894 26.9952 10.9707 27.115 12.0745L21.2316 12.0737Z" fill="#212244"/>
</g>
<defs>
<clipPath id="clip0">
<rect width="26.9103" height="17" fill="white" transform="translate(0.784058)"/>
</clipPath>
</defs>
</svg>
