<svg width="100" height="100" viewBox="0 0 100 100" fill="none" xmlns="http://www.w3.org/2000/svg">
<path d="M61.3 76.4298C61.0127 76.1503 60.7844 75.816 60.6285 75.4467C60.4726 75.0775 60.3922 74.6807 60.3922 74.2798C60.3922 73.879 60.4726 73.4822 60.6285 73.113C60.7844 72.7437 61.0127 72.4094 61.3 72.1298L63.17 70.2598C63.1489 70.2149 63.1322 70.168 63.12 70.1198H60.47C59.6743 70.1198 58.9113 69.8038 58.3487 69.2412C57.7861 68.6785 57.47 67.9155 57.47 67.1198V61.6498C57.4829 60.8582 57.8031 60.1026 58.3629 59.5428C58.9228 58.9829 59.6784 58.6627 60.47 58.6498H63.12C63.1322 58.6049 63.149 58.5614 63.17 58.5198L61.3 56.6098C60.729 56.038 60.4083 55.2629 60.4083 54.4548C60.4083 53.6467 60.729 52.8717 61.3 52.2998L65.13 48.4698C65.7093 47.9131 66.4816 47.6022 67.285 47.6022C68.0884 47.6022 68.8607 47.9131 69.44 48.4698L71.31 50.3398L71.45 50.2798V47.6398C71.45 46.8442 71.7661 46.0811 72.3287 45.5185C72.8913 44.9559 73.6543 44.6398 74.45 44.6398H79.87C80.3869 44.6214 80.8998 44.737 81.3588 44.9753C81.8179 45.2136 82.2076 45.5665 82.49 45.9998V31.5498C82.49 29.8445 81.8125 28.209 80.6067 27.0031C79.4008 25.7973 77.7653 25.1198 76.06 25.1198H38.53C38.1865 25.1191 37.848 25.0372 37.5421 24.8808C37.2363 24.7244 36.9717 24.4979 36.77 24.2198L32.77 18.7298C32.5683 18.4518 32.3037 18.2253 31.9979 18.0689C31.692 17.9125 31.3535 17.8306 31.01 17.8298H11.43C9.72466 17.8298 8.08916 18.5073 6.8833 19.7131C5.67744 20.919 5 22.5545 5 24.2598V70.5898C5.00529 72.2917 5.68507 73.9221 6.89036 75.1236C8.09565 76.3251 9.72812 76.9998 11.43 76.9998H61.88L61.3 76.4298Z" fill="#2C2F5B"/>
<path d="M93.93 60.5901H91.19C90.8665 59.3871 90.3892 58.2309 89.77 57.1501L91.71 55.2101C91.9073 55.0083 92.0178 54.7373 92.0178 54.4551C92.0178 54.1729 91.9073 53.9019 91.71 53.7001L87.87 49.8601C87.6682 49.6628 87.3972 49.5523 87.115 49.5523C86.8328 49.5523 86.5618 49.6628 86.36 49.8601L84.42 51.8001C83.3466 51.18 82.1969 50.7026 81 50.3801V47.6401C81 47.3563 80.8873 47.0841 80.6866 46.8835C80.4859 46.6828 80.2138 46.5701 79.93 46.5701H74.49C74.2062 46.5701 73.9341 46.6828 73.7334 46.8835C73.5327 47.0841 73.42 47.3563 73.42 47.6401V50.3801C72.2231 50.7026 71.0734 51.18 70 51.8001L68 49.8601C67.7982 49.6628 67.5272 49.5523 67.245 49.5523C66.9628 49.5523 66.6918 49.6628 66.49 49.8601L62.7 53.7001C62.5999 53.7987 62.5204 53.9162 62.4662 54.0458C62.412 54.1755 62.384 54.3146 62.384 54.4551C62.384 54.5956 62.412 54.7347 62.4662 54.8643C62.5204 54.9939 62.5999 55.1114 62.7 55.2101L64.63 57.1401C64.0124 58.2253 63.5353 59.3846 63.21 60.5901H60.47C60.1879 60.5901 59.9173 60.7014 59.7169 60.8999C59.5165 61.0984 59.4026 61.368 59.4 61.6501V67.0801C59.4 67.3638 59.5127 67.636 59.7134 67.8367C59.9141 68.0373 60.1862 68.1501 60.47 68.1501H63.21C63.5354 69.3524 64.0125 70.5083 64.63 71.5901L62.7 73.5301C62.5999 73.6287 62.5204 73.7462 62.4662 73.8758C62.412 74.0054 62.384 74.1446 62.384 74.2851C62.384 74.4256 62.412 74.5647 62.4662 74.6943C62.5204 74.8239 62.5999 74.9414 62.7 75.0401L66.53 78.8701C66.6286 78.9701 66.7462 79.0496 66.8758 79.1039C67.0054 79.1581 67.1445 79.186 67.285 79.186C67.4255 79.186 67.5646 79.1581 67.6942 79.1039C67.8238 79.0496 67.9414 78.9701 68.04 78.8701L70 76.9301C71.0793 77.5549 72.2358 78.0357 73.44 78.3601V81.1001C73.44 81.3838 73.5527 81.656 73.7534 81.8567C73.9541 82.0573 74.2262 82.1701 74.51 82.1701H79.93C80.2138 82.1701 80.4859 82.0573 80.6866 81.8567C80.8873 81.656 81 81.3838 81 81.1001V78.3601C82.2042 78.0357 83.3607 77.5549 84.44 76.9301L86.38 78.8701C86.4786 78.9701 86.5962 79.0496 86.7258 79.1039C86.8554 79.1581 86.9945 79.186 87.135 79.186C87.2755 79.186 87.4146 79.1581 87.5442 79.1039C87.6738 79.0496 87.7914 78.9701 87.89 78.8701L91.71 75.0001C91.9073 74.7983 92.0178 74.5273 92.0178 74.2451C92.0178 73.9629 91.9073 73.6919 91.71 73.4901L89.77 71.5501C90.3874 70.4683 90.8646 69.3124 91.19 68.1101H93.93C94.207 68.1103 94.4733 68.003 94.6728 67.8109C94.8724 67.6188 94.9897 67.3569 95 67.0801V61.6501C94.9974 61.368 94.8835 61.0984 94.6831 60.8999C94.4827 60.7014 94.2121 60.5901 93.93 60.5901V60.5901ZM77.2 69.3801C76.2111 69.3801 75.2444 69.0868 74.4221 68.5374C73.5999 67.988 72.959 67.2071 72.5806 66.2935C72.2022 65.3799 72.1031 64.3745 72.2961 63.4046C72.489 62.4347 72.9652 61.5438 73.6645 60.8445C74.3637 60.1453 75.2546 59.6691 76.2245 59.4761C77.1945 59.2832 78.1998 59.3822 79.1134 59.7607C80.027 60.1391 80.8079 60.78 81.3573 61.6022C81.9068 62.4245 82.2 63.3912 82.2 64.3801C82.2 65.7061 81.6732 66.9779 80.7355 67.9156C79.7979 68.8533 78.5261 69.3801 77.2 69.3801Z" fill="#2C2F5B"/>
</svg>
