<svg width="100" height="100" viewBox="0 0 100 100" fill="none" xmlns="http://www.w3.org/2000/svg">
<path d="M69.1991 38.4552H45.4589L39.2059 32.7788H28.5495C27.7341 32.7788 27.0711 33.4418 27.0711 34.2562V70.5561C27.0711 71.3704 27.7341 72.0334 28.5495 72.0334H29.6725L35.5685 41.6899H70.6754V39.9332C70.6758 39.1192 70.0128 38.4552 69.1991 38.4552Z" fill="#00DFBA"/>
<path d="M49.9987 0C22.3855 0 0 22.3871 0 49.9993C0 77.6115 22.3855 100.001 49.9987 100.001C77.6119 100.001 100 77.6129 100 49.9993C100 22.3858 77.6119 0 49.9987 0ZM75.7472 70.9075C75.5665 74.3518 72.7645 77.1078 69.2995 77.2115C69.2658 77.2132 69.2338 77.2219 69.1991 77.2219L66.1221 77.2235L28.5485 77.2219C24.8742 77.2219 21.8848 74.2322 21.8848 70.5571V34.2562C21.8848 30.5812 24.8745 27.5915 28.5505 27.5915H41.2089L47.462 33.2679H69.1991C72.8735 33.2679 75.8628 36.2576 75.8628 39.9336V41.6903L81.8309 41.6913L75.7472 70.9075Z" fill="#00DFBA"/>
</svg>
