<svg width="18" height="19" viewBox="0 0 18 19" fill="none" xmlns="http://www.w3.org/2000/svg">
<g clip-path="url(#clip0_470_598)">
<path d="M18.5649 7.02402C18.5101 6.88592 18.4159 6.76703 18.2939 6.68223C18.172 6.59743 18.0277 6.5505 17.8792 6.54729L17.0655 6.49432C16.9834 6.24978 16.8892 6.00974 16.783 5.7742L17.4003 5.08559C17.5055 4.97663 17.5756 4.83867 17.6016 4.6895C17.6276 4.54032 17.6083 4.38677 17.5463 4.24866C16.9027 3.14842 15.9927 2.22772 14.9001 1.57129C14.8117 1.52001 14.711 1.49391 14.6088 1.49581C14.4066 1.50001 14.2123 1.57499 14.0598 1.70769L13.4909 2.20799C13.1086 1.99411 12.7087 1.81344 12.2956 1.66796C12.2811 1.4183 12.2655 1.16872 12.2487 0.91923C12.2439 0.765469 12.1925 0.616803 12.1012 0.492995C12.0099 0.369187 11.883 0.276103 11.7376 0.226118C10.4429 -0.0810347 9.09382 -0.0773137 7.80083 0.236977C7.65549 0.287188 7.5288 0.380331 7.43753 0.50409C7.34626 0.62785 7.2947 0.776397 7.28967 0.930089C7.27201 1.18929 7.25577 1.44725 7.24094 1.70398C7.01052 1.78688 6.78381 1.88408 6.56239 1.98287L6.02236 1.49025C5.86894 1.349 5.66936 1.26841 5.46088 1.26354C5.36722 1.26196 5.27476 1.28478 5.19259 1.32975C4.11016 1.93874 3.20314 2.81666 2.55919 3.87866C2.49558 4.01526 2.4742 4.16774 2.49779 4.31656C2.52139 4.46538 2.58887 4.60377 2.69161 4.714L3.11166 5.20371C2.91209 5.56259 2.74177 5.93698 2.60236 6.32323L1.73656 6.3619C1.5877 6.36137 1.442 6.40483 1.31774 6.48682C1.19349 6.56881 1.09623 6.68567 1.03815 6.82274C0.709031 7.9665 0.694756 9.17789 0.996835 10.3291C1.05107 10.4671 1.14511 10.5859 1.26702 10.6704C1.38892 10.7548 1.53318 10.8012 1.68147 10.8034L2.39074 10.8503C2.54344 11.4407 2.76645 12.0105 3.05498 12.5477L2.55813 13.1021C2.45479 13.2125 2.38594 13.3507 2.36001 13.4997C2.33409 13.6487 2.35223 13.802 2.41219 13.9408C3.05512 15.0401 3.96369 15.9604 5.0546 16.6174C5.14258 16.6683 5.24272 16.6944 5.34435 16.6929C5.54652 16.6887 5.74081 16.6137 5.89338 16.481L6.57564 15.8798C6.78752 15.9789 7.00575 16.0599 7.22717 16.1481C7.24703 16.4739 7.26504 16.78 7.28464 17.0806C7.29084 17.234 7.34335 17.3819 7.43526 17.5048C7.52717 17.6277 7.65416 17.7199 7.79951 17.7693C9.09445 18.0805 10.4447 18.0805 11.7397 17.7693C11.885 17.7196 12.0118 17.6269 12.1031 17.5034C12.1944 17.3799 12.246 17.2315 12.2508 17.078C12.2726 16.7665 12.2906 16.4625 12.3067 16.1775C12.641 16.0624 12.9668 15.9243 13.2819 15.7641L13.9371 16.369C14.0904 16.5108 14.2899 16.592 14.4986 16.5976C14.5923 16.599 14.6848 16.5761 14.7669 16.5311C15.8506 15.9218 16.7589 15.0433 17.404 13.9806C17.466 13.8438 17.4863 13.6917 17.4623 13.5434C17.4383 13.3952 17.371 13.2573 17.269 13.1471C17.0873 12.9352 16.8659 12.6738 16.6209 12.4002C16.845 11.9591 17.0259 11.4974 17.1609 11.0214L17.827 10.9835C17.9755 10.9837 18.1208 10.94 18.2447 10.8581C18.3686 10.7761 18.4656 10.6594 18.5235 10.5227C18.8514 9.38135 18.8656 8.17278 18.5649 7.02402ZM9.78085 13.7843C8.83529 13.7843 7.91097 13.5039 7.12478 12.9786C6.33858 12.4533 5.72581 11.7066 5.36396 10.833C5.00211 9.95947 4.90744 8.99821 5.0919 8.07082C5.27637 7.14344 5.7317 6.29158 6.40031 5.62297C7.06892 4.95436 7.92077 4.49903 8.84816 4.31457C9.77555 4.1301 10.7368 4.22477 11.6104 4.58662C12.484 4.94847 13.2306 5.56124 13.7559 6.34744C14.2813 7.13364 14.5617 8.05796 14.5617 9.00351C14.5617 10.2715 14.058 11.4875 13.1614 12.3841C12.2648 13.2806 11.0488 13.7843 9.78085 13.7843Z" fill="#212244"/>
<path d="M9.80263 4.77471C8.97016 4.77233 8.15631 5.02095 7.4673 5.48814C6.77829 5.95533 6.24611 6.61937 5.94024 7.39361C5.63436 8.16785 5.56899 9.01631 5.75266 9.82827C5.93633 10.6402 6.3605 11.3779 6.96982 11.9452C7.57913 12.5124 8.34529 12.8827 9.1683 13.0079C9.9913 13.1331 10.8329 13.0072 11.5833 12.6468C12.3337 12.2864 12.958 11.7081 13.3748 10.9874C13.7915 10.2668 13.9813 9.43726 13.9195 8.60709C13.842 7.56724 13.375 6.59491 12.6118 5.88442C11.8486 5.17394 10.8454 4.77764 9.80263 4.77471ZM9.78091 12.5147C9.78161 11.5833 10.1522 10.6903 10.8112 10.0321C11.4701 9.37385 12.3635 9.00428 13.2949 9.00463C14.2263 9.00498 15.1195 9.37522 15.7779 10.0339C16.4364 10.6927 16.8063 11.5859 16.8063 12.5173C16.8063 13.4487 16.4364 14.342 15.7779 15.0007C15.1195 15.6594 14.2263 16.0297 13.2949 16.03C12.3635 16.0304 11.4701 15.6608 10.8112 15.0026C10.1522 14.3444 9.78161 13.4514 9.78091 12.52V12.5147Z" fill="#212244"/>
<path d="M9.78115 5.76447C9.14037 5.76452 8.51399 5.95458 7.98123 6.31062C7.44846 6.66665 7.03323 7.17268 6.78805 7.7647C6.54287 8.35672 6.47875 9.00815 6.60379 9.63661C6.72883 10.2651 7.03743 10.8423 7.49055 11.2954C7.94367 11.7485 8.52096 12.0571 9.14944 12.182C9.77791 12.307 10.4293 12.2429 11.0213 11.9976C11.6133 11.7524 12.1193 11.3371 12.4753 10.8043C12.8313 10.2715 13.0213 9.64516 13.0213 9.00437C13.0213 8.14507 12.6799 7.32099 12.0722 6.7134C11.4646 6.1058 10.6405 5.76447 9.78115 5.76447ZM9.78115 10.9412C9.78185 10.4266 9.98685 9.9334 10.3511 9.56991C10.7153 9.20642 11.209 9.00243 11.7236 9.00279C12.2381 9.00314 12.7315 9.2078 13.0953 9.57178C13.459 9.93577 13.6633 10.4293 13.6633 10.9439C13.6633 11.4584 13.459 11.952 13.0953 12.316C12.7315 12.6799 12.2381 12.8846 11.7236 12.885C11.209 12.8853 10.7153 12.6813 10.3511 12.3178C9.98685 11.9543 9.78185 11.4611 9.78115 10.9465V10.9412Z" fill="#212244"/>
</g>
<defs>
<clipPath id="clip0_470_598">
<rect width="17.9402" height="18.0042" fill="white"/>
</clipPath>
</defs>
</svg>
