<svg width="88" height="88" viewBox="0 0 88 88" fill="none" xmlns="http://www.w3.org/2000/svg">
<g filter="url(#filter0_d)">
<rect x="4" width="79.7342" height="80" rx="39.8671" fill="#C4C4C4"/>
<rect x="4.5" y="0.5" width="78.7342" height="79" rx="39.3671" stroke="white"/>
</g>
<path d="M25.4339 52.1818V55.9375C25.4339 56.7273 24.8885 57.2955 24.0021 57.2955C23.1186 57.2955 22.5703 56.7273 22.5703 55.9375V52.1818H21.6924V56.0085C21.6924 57.2301 22.6072 58.0966 24.0021 58.0966C25.397 58.0966 26.3146 57.2301 26.3146 56.0085V52.1818H25.4339ZM27.5227 59.6364H28.3721V57.321H28.4233C28.5767 57.5994 28.8892 58.0852 29.6846 58.0852C30.7414 58.0852 31.5085 57.2386 31.5085 55.8267C31.5085 54.4119 30.7301 53.5795 29.6761 53.5795C28.8664 53.5795 28.5738 54.0739 28.4233 54.3438H28.3522V53.6364H27.5227V59.6364ZM28.3551 55.8182C28.3551 54.9062 28.7528 54.3011 29.4943 54.3011C30.2642 54.3011 30.6505 54.9517 30.6505 55.8182C30.6505 56.6932 30.2528 57.3608 29.4943 57.3608C28.7642 57.3608 28.3551 56.7358 28.3551 55.8182ZM33.3096 52.1818H32.4602V58H33.3096V52.1818ZM36.2904 58.0881C37.5206 58.0881 38.3245 57.1875 38.3245 55.8381C38.3245 54.4801 37.5206 53.5795 36.2904 53.5795C35.0603 53.5795 34.2563 54.4801 34.2563 55.8381C34.2563 57.1875 35.0603 58.0881 36.2904 58.0881ZM36.2933 57.375C35.4893 57.375 35.1143 56.6733 35.1143 55.8352C35.1143 55 35.4893 54.2898 36.2933 54.2898C37.0916 54.2898 37.4666 55 37.4666 55.8352C37.4666 56.6733 37.0916 57.375 36.2933 57.375ZM40.5426 58.0966C41.2642 58.0966 41.6704 57.7301 41.8323 57.4034H41.8664V58H42.696V55.1023C42.696 53.8324 41.696 53.5795 41.0028 53.5795C40.213 53.5795 39.4858 53.8977 39.2017 54.6932L40 54.875C40.125 54.5653 40.4431 54.267 41.0142 54.267C41.5625 54.267 41.8437 54.554 41.8437 55.0483V55.0682C41.8437 55.3778 41.5255 55.3722 40.7414 55.4631C39.9147 55.5597 39.0681 55.7756 39.0681 56.767C39.0681 57.625 39.713 58.0966 40.5426 58.0966ZM40.7272 57.4148C40.2471 57.4148 39.9005 57.1989 39.9005 56.7784C39.9005 56.3239 40.3039 56.1619 40.7954 56.0966C41.071 56.0597 41.7244 55.9858 41.8465 55.8636V56.4261C41.8465 56.9432 41.4346 57.4148 40.7272 57.4148ZM45.4609 58.0852C46.2563 58.0852 46.5688 57.5994 46.7223 57.321H46.7933V58H47.6228V52.1818H46.7734V54.3438H46.7223C46.5688 54.0739 46.2791 53.5795 45.4666 53.5795C44.4126 53.5795 43.637 54.4119 43.637 55.8267C43.637 57.2386 44.4012 58.0852 45.4609 58.0852ZM45.6484 57.3608C44.8899 57.3608 44.495 56.6932 44.495 55.8182C44.495 54.9517 44.8813 54.3011 45.6484 54.3011C46.3899 54.3011 46.7876 54.9062 46.7876 55.8182C46.7876 56.7358 46.3813 57.3608 45.6484 57.3608ZM51.8018 52.1818H50.9524V58H51.8018V52.1818ZM54.7826 58.0881C56.0127 58.0881 56.8167 57.1875 56.8167 55.8381C56.8167 54.4801 56.0127 53.5795 54.7826 53.5795C53.5525 53.5795 52.7485 54.4801 52.7485 55.8381C52.7485 57.1875 53.5525 58.0881 54.7826 58.0881ZM54.7855 57.375C53.9815 57.375 53.6065 56.6733 53.6065 55.8352C53.6065 55 53.9815 54.2898 54.7855 54.2898C55.5838 54.2898 55.9588 55 55.9588 55.8352C55.9588 56.6733 55.5838 57.375 54.7855 57.375ZM59.5944 59.7273C60.7052 59.7273 61.5632 59.2188 61.5632 58.0966V53.6364H60.7308V54.3438H60.6683C60.5177 54.0739 60.2166 53.5795 59.4041 53.5795C58.3501 53.5795 57.5745 54.4119 57.5745 55.8011C57.5745 57.1932 58.3671 57.9347 59.3984 57.9347C60.1995 57.9347 60.5092 57.483 60.6626 57.2045H60.7166V58.0625C60.7166 58.7472 60.2478 59.0426 59.6029 59.0426C58.8956 59.0426 58.62 58.6875 58.4694 58.4375L57.7393 58.7386C57.9694 59.2727 58.5518 59.7273 59.5944 59.7273ZM59.5859 57.2301C58.8274 57.2301 58.4325 56.6477 58.4325 55.7898C58.4325 54.9517 58.8188 54.3011 59.5859 54.3011C60.3274 54.3011 60.7251 54.9062 60.7251 55.7898C60.7251 56.6903 60.3188 57.2301 59.5859 57.2301ZM64.5404 58.0881C65.7706 58.0881 66.5745 57.1875 66.5745 55.8381C66.5745 54.4801 65.7706 53.5795 64.5404 53.5795C63.3103 53.5795 62.5063 54.4801 62.5063 55.8381C62.5063 57.1875 63.3103 58.0881 64.5404 58.0881ZM64.5433 57.375C63.7393 57.375 63.3643 56.6733 63.3643 55.8352C63.3643 55 63.7393 54.2898 64.5433 54.2898C65.3416 54.2898 65.7166 55 65.7166 55.8352C65.7166 56.6733 65.3416 57.375 64.5433 57.375Z" fill="#212244"/>
<path d="M43.8686 28.4472C43.8905 28.4192 43.9186 28.3966 43.9505 28.381C43.9825 28.3654 44.0176 28.3573 44.0532 28.3573C44.0888 28.3573 44.1239 28.3654 44.1558 28.381C44.1878 28.3966 44.2158 28.4192 44.2378 28.4472L47.519 32.5986C47.5461 32.6331 47.5628 32.6746 47.5674 32.7182C47.572 32.7619 47.5643 32.8059 47.545 32.8453C47.5258 32.8848 47.4958 32.918 47.4586 32.9412C47.4213 32.9644 47.3783 32.9766 47.3344 32.9765H45.1694V40.0781C45.1694 40.207 45.0639 40.3125 44.935 40.3125H43.1772C43.0483 40.3125 42.9428 40.207 42.9428 40.0781V32.9795H40.7719C40.5756 32.9795 40.4672 32.7539 40.5874 32.6015L43.8686 28.4472Z" fill="black"/>
<path d="M35.2817 25.7432C36.6235 22.2041 40.0425 19.6875 44.0474 19.6875C48.0522 19.6875 51.4712 22.2012 52.813 25.7402C55.3237 26.3994 57.1782 28.6875 57.1782 31.4062C57.1782 34.6436 54.5562 37.2656 51.3218 37.2656H50.147C50.0181 37.2656 49.9126 37.1602 49.9126 37.0312V35.2734C49.9126 35.1445 50.0181 35.0391 50.147 35.0391H51.3218C52.3091 35.0391 53.2378 34.6465 53.9292 33.9346C54.6177 33.2256 54.9839 32.2705 54.9517 31.2803C54.9253 30.5068 54.6616 29.7803 54.1841 29.168C53.6948 28.5439 53.0093 28.0898 52.2476 27.8877L51.1372 27.5977L50.73 26.5254C50.478 25.8574 50.1265 25.2334 49.6841 24.668C49.2473 24.1075 48.73 23.6149 48.1489 23.2061C46.9448 22.3594 45.5269 21.9111 44.0474 21.9111C42.5679 21.9111 41.1499 22.3594 39.9458 23.2061C39.3628 23.6162 38.8472 24.1084 38.4106 24.668C37.9683 25.2334 37.6167 25.8604 37.3647 26.5254L36.9604 27.5947L35.853 27.8877C34.2651 28.3154 33.1548 29.7598 33.1548 31.4062C33.1548 32.376 33.5327 33.29 34.2183 33.9756C34.5545 34.3138 34.9544 34.5819 35.3949 34.7644C35.8355 34.947 36.3078 35.0403 36.7847 35.0391H37.9595C38.0884 35.0391 38.1938 35.1445 38.1938 35.2734V37.0312C38.1938 37.1602 38.0884 37.2656 37.9595 37.2656H36.7847C33.5503 37.2656 30.9282 34.6436 30.9282 31.4062C30.9282 28.6904 32.7769 26.4053 35.2817 25.7432Z" fill="black"/>
<defs>
<filter id="filter0_d" x="0" y="0" width="87.7342" height="88" filterUnits="userSpaceOnUse" color-interpolation-filters="sRGB">
<feFlood flood-opacity="0" result="BackgroundImageFix"/>
<feColorMatrix in="SourceAlpha" type="matrix" values="0 0 0 0 0 0 0 0 0 0 0 0 0 0 0 0 0 0 127 0" result="hardAlpha"/>
<feOffset dy="4"/>
<feGaussianBlur stdDeviation="2"/>
<feComposite in2="hardAlpha" operator="out"/>
<feColorMatrix type="matrix" values="0 0 0 0 0 0 0 0 0 0 0 0 0 0 0 0 0 0 0.25 0"/>
<feBlend mode="normal" in2="BackgroundImageFix" result="effect1_dropShadow"/>
<feBlend mode="normal" in="SourceGraphic" in2="effect1_dropShadow" result="shape"/>
</filter>
</defs>
</svg>
