<svg width="150" height="150" viewBox="0 0 150 150" fill="none" xmlns="http://www.w3.org/2000/svg">
<path d="M4.6875 108.853L15.2742 110.963C17.349 107.171 19.9192 103.672 22.9172 100.559C23.2102 100.266 23.5289 100.017 23.8313 99.7383L14.632 98.9062L4.6875 108.853Z" fill="white"/>
<path d="M50.2547 126.169C49.9758 126.471 49.7273 126.79 49.4344 127.083C46.3209 130.081 42.8222 132.651 39.0305 134.726L41.1398 145.313L51.0937 135.368L50.2547 126.169Z" fill="white"/>
<path d="M59.3789 90.6212C59.3789 90.6212 37.3899 89.4095 24.5742 102.223C19.5042 107.549 15.716 113.962 13.4977 120.973L29.0227 136.498C36.0337 134.28 42.4463 130.491 47.7727 125.421C60.5906 112.61 59.3789 90.6212 59.3789 90.6212ZM41.1469 118.795C40.1636 119.779 38.9108 120.449 37.5468 120.72C36.1828 120.992 34.769 120.853 33.4841 120.321C32.1991 119.788 31.1009 118.887 30.3282 117.731C29.5555 116.575 29.1431 115.215 29.1431 113.824C29.1431 112.434 29.5555 111.074 30.3282 109.918C31.1009 108.761 32.1991 107.86 33.4841 107.328C34.769 106.796 36.1828 106.657 37.5468 106.928C38.9108 107.2 40.1636 107.87 41.1469 108.853C42.4651 110.172 43.2056 111.96 43.2056 113.824C43.2056 115.689 42.4651 117.477 41.1469 118.795Z" fill="white"/>
<path d="M11.3167 125.425L3.25897 133.483L6.57354 136.798L14.6312 128.74L11.3167 125.425Z" fill="white"/>
<path d="M21.26 135.37L13.2023 143.428L16.5169 146.742L24.5746 138.684L21.26 135.37Z" fill="white"/>
<path d="M12.2595 134.426L4.20178 142.484L7.51635 145.798L15.574 137.741L12.2595 134.426Z" fill="white"/>
<path d="M110.156 4.6875C103.203 4.6875 96.4059 6.74938 90.6245 10.6124C84.8431 14.4754 80.337 19.9661 77.6761 26.39C75.0152 32.814 74.319 39.8828 75.6755 46.7024C77.032 53.522 80.3804 59.7863 85.297 64.703C90.2137 69.6197 96.478 72.968 103.298 74.3245C110.117 75.681 117.186 74.9848 123.61 72.3239C130.034 69.663 135.525 65.1569 139.388 59.3755C143.251 53.5941 145.313 46.797 145.313 39.8438C145.313 30.5197 141.609 21.5776 135.015 14.9845C128.422 8.39145 119.48 4.6875 110.156 4.6875V4.6875ZM110.156 65.625C105.057 65.625 100.073 64.113 95.833 61.2801C91.5933 58.4472 88.2888 54.4207 86.3375 49.7098C84.3862 44.9989 83.8756 39.8152 84.8704 34.8141C85.8652 29.813 88.3206 25.2192 91.9262 21.6137C95.5317 18.0081 100.126 15.5527 105.127 14.5579C110.128 13.5631 115.311 14.0737 120.022 16.025C124.733 17.9763 128.76 21.2807 131.593 25.5205C134.425 29.7602 135.938 34.7447 135.938 39.8438C135.938 46.6814 133.221 53.2389 128.386 58.0738C123.551 62.9088 116.994 65.625 110.156 65.625Z" fill="white"/>
<path d="M114.502 34.1017L110.156 25.2986L105.811 34.1017L96.0938 35.515L103.125 42.3681L101.466 52.0455L110.156 47.4775L118.847 52.0455L117.188 42.3681L124.219 35.515L114.502 34.1017Z" fill="white"/>
<path d="M60.8195 46.1156L29.3317 77.6045L32.6463 80.919L64.1341 49.4301L60.8195 46.1156Z" fill="white"/>
<path d="M26.018 80.9194L22.7034 84.234L26.018 87.5486L29.3326 84.234L26.018 80.9194Z" fill="white"/>
<path d="M100.546 85.9399L69.0576 117.428L72.3722 120.743L103.861 89.2544L100.546 85.9399Z" fill="white"/>
<path d="M65.7429 120.743L62.4764 124.01L65.791 127.324L69.0575 124.058L65.7429 120.743Z" fill="white"/>
</svg>
