<svg width="20" height="20" viewBox="0 0 20 20" fill="none" xmlns="http://www.w3.org/2000/svg">
<path d="M4.96281 15.2632C4.70606 15.2632 4.48141 15.1643 4.28884 14.9665C4.09628 14.7687 4 14.5469 4 14.301V5.96217C4 5.71628 4.09628 5.49445 4.28884 5.29667C4.48141 5.09889 4.70606 5 4.96281 5H9.05477C9.18314 5 9.30884 5.02673 9.43187 5.08018C9.55489 5.13363 9.6592 5.20312 9.74478 5.28865L10.4187 5.96217H15.8747C16.1207 5.96217 16.3427 6.06106 16.5406 6.25884C16.7385 6.45662 16.8375 6.67845 16.8375 6.92434V14.301C16.8375 14.5469 16.7385 14.7687 16.5406 14.9665C16.3427 15.1643 16.1207 15.2632 15.8747 15.2632H4.96281ZM4.96281 5.96217V14.301H15.8747V6.92434H10.0176L9.05477 5.96217H4.96281ZM4.96281 5.96217V14.301V5.96217Z" fill="#00977C"/>
</svg>
