<svg width="20" height="20" viewBox="0 0 20 20" fill="none" xmlns="http://www.w3.org/2000/svg">
<path d="M5.2 13.6V13.48C5.2 12.4719 5.2 11.9679 5.39619 11.5828C5.56876 11.2441 5.84413 10.9688 6.18282 10.7962C6.56786 10.6 7.07191 10.6 8.08 10.6H11.92C12.9281 10.6 13.4321 10.6 13.8172 10.7962C14.1559 10.9688 14.4312 11.2441 14.6038 11.5828C14.8 11.9679 14.8 12.4719 14.8 13.48V13.6M5.2 13.6C4.53726 13.6 4 14.1373 4 14.8C4 15.4627 4.53726 16 5.2 16C5.86274 16 6.4 15.4627 6.4 14.8C6.4 14.1373 5.86274 13.6 5.2 13.6ZM14.8 13.6C14.1373 13.6 13.6 14.1373 13.6 14.8C13.6 15.4627 14.1373 16 14.8 16C15.4627 16 16 15.4627 16 14.8C16 14.1373 15.4627 13.6 14.8 13.6ZM10 13.6C9.33726 13.6 8.8 14.1373 8.8 14.8C8.8 15.4627 9.33726 16 10 16C10.6627 16 11.2 15.4627 11.2 14.8C11.2 14.1373 10.6627 13.6 10 13.6ZM10 13.6V7.6M6.4 7.6H13.6C14.1591 7.6 14.4387 7.6 14.6592 7.50866C14.9533 7.38686 15.1869 7.15325 15.3087 6.85922C15.4 6.63869 15.4 6.35913 15.4 5.8C15.4 5.24087 15.4 4.96131 15.3087 4.74078C15.1869 4.44675 14.9533 4.21314 14.6592 4.09134C14.4387 4 14.1591 4 13.6 4H6.4C5.84087 4 5.56131 4 5.34078 4.09134C5.04675 4.21314 4.81314 4.44675 4.69134 4.74078C4.6 4.96131 4.6 5.24087 4.6 5.8C4.6 6.35913 4.6 6.63869 4.69134 6.85922C4.81314 7.15325 5.04675 7.38686 5.34078 7.50866C5.56131 7.6 5.84087 7.6 6.4 7.6Z" stroke="#00977C" stroke-width="0.75" stroke-linecap="round" stroke-linejoin="round"/>
</svg>
