<svg width="20" height="20" viewBox="0 0 20 20" fill="none" xmlns="http://www.w3.org/2000/svg">
<path d="M2.81737 7.45211C2.58578 7.45211 2.39179 7.37364 2.2354 7.2167C2.07847 7.06031 2 6.86633 2 6.63474C2 6.40315 2.07847 6.20889 2.2354 6.05195C2.39179 5.89556 2.58578 5.81737 2.81737 5.81737H5.26948C5.50106 5.81737 5.69533 5.89556 5.85226 6.05195C6.00865 6.20889 6.08685 6.40315 6.08685 6.63474C6.08685 6.86633 6.00865 7.06031 5.85226 7.2167C5.69533 7.37364 5.50106 7.45211 5.26948 7.45211H2.81737ZM2.81737 11.539C2.58578 11.539 2.39179 11.4605 2.2354 11.3036C2.07847 11.1472 2 10.9532 2 10.7216C2 10.49 2.07847 10.2957 2.2354 10.1388C2.39179 9.98241 2.58578 9.90421 2.81737 9.90421H5.26948C5.50106 9.90421 5.69533 9.98241 5.85226 10.1388C6.00865 10.2957 6.08685 10.49 6.08685 10.7216C6.08685 10.9532 6.00865 11.1472 5.85226 11.3036C5.69533 11.4605 5.50106 11.539 5.26948 11.539H2.81737ZM16.6309 15.0536L14.0562 12.4789C13.7292 12.7105 13.3718 12.8841 12.9838 12.9996C12.5953 13.1157 12.2035 13.1737 11.8084 13.1737C10.6777 13.1737 9.71406 12.7751 8.91739 11.9779C8.12019 11.1812 7.72158 10.2175 7.72158 9.08685C7.72158 7.95615 8.12019 6.9922 8.91739 6.19499C9.71406 5.39833 10.6777 5 11.8084 5C12.9391 5 13.9031 5.39833 14.7003 6.19499C15.4969 6.9922 15.8953 7.95615 15.8953 9.08685C15.8953 9.48191 15.8375 9.8737 15.722 10.2622C15.6059 10.6502 15.4321 11.0077 15.2005 11.3346L17.7752 13.9093C17.9251 14.0592 18 14.2499 18 14.4815C18 14.7131 17.9251 14.9038 17.7752 15.0536C17.6254 15.2035 17.4347 15.2784 17.2031 15.2784C16.9715 15.2784 16.7808 15.2035 16.6309 15.0536ZM11.8084 11.539C12.4896 11.539 13.0685 11.3006 13.5453 10.8238C14.0221 10.347 14.2605 9.76799 14.2605 9.08685C14.2605 8.4057 14.0221 7.82673 13.5453 7.34994C13.0685 6.87314 12.4896 6.63474 11.8084 6.63474C11.1273 6.63474 10.5483 6.87314 10.0715 7.34994C9.59472 7.82673 9.35632 8.4057 9.35632 9.08685C9.35632 9.76799 9.59472 10.347 10.0715 10.8238C10.5483 11.3006 11.1273 11.539 11.8084 11.539ZM2.81737 15.6258C2.58578 15.6258 2.39179 15.5473 2.2354 15.3904C2.07847 15.234 2 15.04 2 14.8084C2 14.5768 2.07847 14.3829 2.2354 14.2265C2.39179 14.0695 2.58578 13.9911 2.81737 13.9911H9.35632C9.58791 13.9911 9.78217 14.0695 9.93911 14.2265C10.0955 14.3829 10.1737 14.5768 10.1737 14.8084C10.1737 15.04 10.0955 15.234 9.93911 15.3904C9.78217 15.5473 9.58791 15.6258 9.35632 15.6258H2.81737Z" fill="#00977C"/>
</svg>
