<svg width="20" height="20" viewBox="0 0 20 20" fill="none" xmlns="http://www.w3.org/2000/svg">
<path fill-rule="evenodd" clip-rule="evenodd" d="M10 18C5.58172 18 2 14.4183 2 10C2 5.58172 5.58172 2 10 2C14.4183 2 18 5.58172 18 10C18 14.4183 14.4183 18 10 18ZM9 8.9996C9 9.55188 9.44772 9.9996 10 9.9996C10.5523 9.9996 11 9.55188 11 8.9996V6.9996C11 6.44732 10.5523 5.9996 10 5.9996C9.44772 5.9996 9 6.44732 9 6.9996V8.9996ZM9 12.9996C9 13.5519 9.44772 13.9996 10 13.9996C10.5523 13.9996 11 13.5519 11 12.9996C11 12.4473 10.5523 11.9996 10 11.9996C9.44772 11.9996 9 12.4473 9 12.9996Z" fill="#D72C0D"/>
</svg>
