<svg width="20" height="20" viewBox="0 0 20 20" fill="none" xmlns="http://www.w3.org/2000/svg">
<path d="M11.6667 8.04158V7.04158C12.125 6.84714 12.5938 6.70131 13.073 6.60409C13.5521 6.50686 14.0556 6.45825 14.5834 6.45825C14.9445 6.45825 15.2987 6.48603 15.6459 6.54159C15.9931 6.59714 16.3334 6.66659 16.6667 6.74992V7.66658C16.3334 7.54158 15.9966 7.44784 15.6563 7.38534C15.316 7.32284 14.9584 7.29159 14.5834 7.29159C14.0556 7.29159 13.5487 7.35756 13.0625 7.4895C12.5764 7.62145 12.1112 7.80547 11.6667 8.04158ZM11.6667 12.6249V11.6041C12.125 11.4096 12.5938 11.2673 13.073 11.177C13.5521 11.0867 14.0556 11.0416 14.5834 11.0416C14.9445 11.0416 15.2987 11.0694 15.6459 11.1249C15.9931 11.1805 16.3334 11.2499 16.6667 11.3333V12.2499C16.3334 12.1249 15.9966 12.0312 15.6563 11.9687C15.316 11.9062 14.9584 11.8749 14.5834 11.8749C14.0556 11.8749 13.5487 11.9374 13.0625 12.0624C12.5764 12.1874 12.1112 12.3749 11.6667 12.6249ZM11.6667 10.3333V9.33325C12.125 9.13881 12.5938 8.99297 13.073 8.89575C13.5521 8.79853 14.0556 8.74992 14.5834 8.74992C14.9445 8.74992 15.2987 8.7777 15.6459 8.83325C15.9931 8.88881 16.3334 8.95825 16.6667 9.04159V9.95825C16.3334 9.83325 15.9966 9.7395 15.6563 9.677C15.316 9.6145 14.9584 9.58325 14.5834 9.58325C14.0556 9.58325 13.5487 9.64922 13.0625 9.78117C12.5764 9.91311 12.1112 10.0971 11.6667 10.3333ZM5.16671 13.7499C5.91671 13.7499 6.6424 13.8367 7.34379 14.0103C8.04518 14.1839 8.73615 14.4444 9.41671 14.7916V5.89575C8.79171 5.47908 8.11462 5.15617 7.38546 4.927C6.65629 4.69784 5.91671 4.58325 5.16671 4.58325C4.63893 4.58325 4.12157 4.64922 3.61462 4.78117C3.10768 4.91311 2.59726 5.07631 2.08337 5.27075V14.3124C2.51393 14.118 3.00351 13.9756 3.55212 13.8853C4.10074 13.7951 4.63893 13.7499 5.16671 13.7499ZM10.6667 14.7916C11.3612 14.4444 12.0417 14.1839 12.7084 14.0103C13.375 13.8367 14.0834 13.7499 14.8334 13.7499C15.3612 13.7499 15.9063 13.7916 16.4688 13.8749C17.0313 13.9583 17.5139 14.0694 17.9167 14.2083V5.27075C17.4445 5.03464 16.9445 4.86103 16.4167 4.74992C15.8889 4.63881 15.3612 4.58325 14.8334 4.58325C14.0834 4.58325 13.3577 4.69784 12.6563 4.927C11.9549 5.15617 11.2917 5.47908 10.6667 5.89575V14.7916ZM10.0417 16.6666C9.33337 16.1388 8.56254 15.7326 7.72921 15.4478C6.89587 15.1631 6.04171 15.0208 5.16671 15.0208C4.65282 15.0208 4.15282 15.0833 3.66671 15.2083C3.1806 15.3333 2.69449 15.486 2.20837 15.6666C1.88893 15.8194 1.5799 15.7985 1.28129 15.6041C0.98268 15.4096 0.833374 15.1319 0.833374 14.7708V5.12492C0.833374 4.91659 0.881985 4.72561 0.979207 4.552C1.07643 4.37839 1.22226 4.24297 1.41671 4.14575C2.00004 3.86797 2.60768 3.66311 3.23962 3.53117C3.87157 3.39922 4.51393 3.33325 5.16671 3.33325C6.04171 3.33325 6.8924 3.45131 7.71879 3.68742C8.54518 3.92353 9.31949 4.28464 10.0417 4.77075C10.75 4.28464 11.5105 3.92353 12.323 3.68742C13.1355 3.45131 13.9723 3.33325 14.8334 3.33325C15.4862 3.33325 16.125 3.39922 16.75 3.53117C17.375 3.66311 17.9792 3.86797 18.5625 4.14575C18.757 4.24297 18.9063 4.37839 19.0105 4.552C19.1146 4.72561 19.1667 4.91659 19.1667 5.12492V14.7708C19.1667 15.1596 19.0105 15.4548 18.698 15.6562C18.3855 15.8576 18.0764 15.861 17.7709 15.6666C17.2987 15.4721 16.8195 15.3159 16.3334 15.1978C15.8473 15.0798 15.3473 15.0208 14.8334 15.0208C13.9584 15.0208 13.1181 15.1666 12.3125 15.4583C11.507 15.7499 10.75 16.1527 10.0417 16.6666Z" fill="#888C92"/>
</svg>
