<svg width="20" height="14" viewBox="0 0 20 14" fill="none" xmlns="http://www.w3.org/2000/svg">
<path d="M11.6666 5.04165V4.04165C12.1249 3.8472 12.5937 3.70137 13.0728 3.60415C13.552 3.50692 14.0555 3.45831 14.5833 3.45831C14.9444 3.45831 15.2985 3.48609 15.6458 3.54165C15.993 3.5972 16.3333 3.66665 16.6666 3.74998V4.66665C16.3333 4.54165 15.9964 4.4479 15.6562 4.3854C15.3159 4.3229 14.9583 4.29165 14.5833 4.29165C14.0555 4.29165 13.5485 4.35762 13.0624 4.48956C12.5763 4.62151 12.111 4.80553 11.6666 5.04165ZM11.6666 9.62498V8.60415C12.1249 8.4097 12.5937 8.26734 13.0728 8.17706C13.552 8.08679 14.0555 8.04165 14.5833 8.04165C14.9444 8.04165 15.2985 8.06942 15.6458 8.12498C15.993 8.18054 16.3333 8.24998 16.6666 8.33331V9.24998C16.3333 9.12498 15.9964 9.03123 15.6562 8.96873C15.3159 8.90623 14.9583 8.87498 14.5833 8.87498C14.0555 8.87498 13.5485 8.93748 13.0624 9.06248C12.5763 9.18748 12.111 9.37498 11.6666 9.62498ZM11.6666 7.33331V6.33331C12.1249 6.13887 12.5937 5.99304 13.0728 5.89581C13.552 5.79859 14.0555 5.74998 14.5833 5.74998C14.9444 5.74998 15.2985 5.77776 15.6458 5.83331C15.993 5.88887 16.3333 5.95831 16.6666 6.04165V6.95831C16.3333 6.83331 15.9964 6.73956 15.6562 6.67706C15.3159 6.61456 14.9583 6.58331 14.5833 6.58331C14.0555 6.58331 13.5485 6.64929 13.0624 6.78123C12.5763 6.91317 12.111 7.0972 11.6666 7.33331ZM5.16659 10.75C5.91659 10.75 6.64228 10.8368 7.34367 11.0104C8.04506 11.184 8.73603 11.4444 9.41659 11.7916V2.89581C8.79159 2.47915 8.1145 2.15623 7.38534 1.92706C6.65617 1.6979 5.91659 1.58331 5.16659 1.58331C4.63881 1.58331 4.12145 1.64929 3.6145 1.78123C3.10756 1.91317 2.59714 2.07637 2.08325 2.27081V11.3125C2.51381 11.118 3.00339 10.9757 3.552 10.8854C4.10061 10.7951 4.63881 10.75 5.16659 10.75ZM10.6666 11.7916C11.361 11.4444 12.0416 11.184 12.7083 11.0104C13.3749 10.8368 14.0833 10.75 14.8333 10.75C15.361 10.75 15.9062 10.7916 16.4687 10.875C17.0312 10.9583 17.5138 11.0694 17.9166 11.2083V2.27081C17.4444 2.0347 16.9444 1.86109 16.4166 1.74998C15.8888 1.63887 15.361 1.58331 14.8333 1.58331C14.0833 1.58331 13.3576 1.6979 12.6562 1.92706C11.9548 2.15623 11.2916 2.47915 10.6666 2.89581V11.7916ZM10.0416 13.6666C9.33325 13.1389 8.56242 12.7326 7.72909 12.4479C6.89575 12.1632 6.04159 12.0208 5.16659 12.0208C4.6527 12.0208 4.1527 12.0833 3.66659 12.2083C3.18047 12.3333 2.69436 12.4861 2.20825 12.6666C1.88881 12.8194 1.57978 12.7986 1.28117 12.6041C0.982558 12.4097 0.833252 12.1319 0.833252 11.7708V2.12498C0.833252 1.91665 0.881863 1.72567 0.979085 1.55206C1.07631 1.37845 1.22214 1.24304 1.41659 1.14581C1.99992 0.868035 2.60756 0.663174 3.2395 0.53123C3.87145 0.399285 4.51381 0.333313 5.16659 0.333313C6.04159 0.333313 6.89228 0.451369 7.71867 0.68748C8.54506 0.923591 9.31936 1.2847 10.0416 1.77081C10.7499 1.2847 11.5103 0.923591 12.3228 0.68748C13.1353 0.451369 13.9721 0.333313 14.8333 0.333313C15.486 0.333313 16.1249 0.399285 16.7499 0.53123C17.3749 0.663174 17.9791 0.868035 18.5624 1.14581C18.7569 1.24304 18.9062 1.37845 19.0103 1.55206C19.1145 1.72567 19.1666 1.91665 19.1666 2.12498V11.7708C19.1666 12.1597 19.0103 12.4548 18.6978 12.6562C18.3853 12.8576 18.0763 12.8611 17.7708 12.6666C17.2985 12.4722 16.8194 12.316 16.3333 12.1979C15.8471 12.0798 15.3471 12.0208 14.8333 12.0208C13.9583 12.0208 13.118 12.1666 12.3124 12.4583C11.5069 12.75 10.7499 13.1528 10.0416 13.6666Z" fill="#00977C"/>
</svg>
