<svg width="16" height="18" viewBox="0 0 16 18" fill="none" xmlns="http://www.w3.org/2000/svg">
<path d="M3.8 2.6L3.96 2.6C5.30413 2.6 5.97619 2.6 6.48958 2.86158C6.94117 3.09168 7.30832 3.45883 7.53842 3.91042C7.8 4.42381 7.8 5.09587 7.8 6.44L7.8 11.56C7.8 12.9041 7.8 13.5762 7.53842 14.0896C7.30832 14.5412 6.94117 14.9083 6.48958 15.1384C5.97619 15.4 5.30413 15.4 3.96 15.4L3.8 15.4M3.8 2.6C3.8 1.71634 3.08366 0.999999 2.2 0.999999C1.31635 0.999999 0.600002 1.71634 0.600002 2.6C0.600002 3.48365 1.31635 4.2 2.2 4.2C3.08366 4.2 3.8 3.48365 3.8 2.6ZM3.8 15.4C3.8 14.5163 3.08366 13.8 2.2 13.8C1.31635 13.8 0.600001 14.5163 0.600001 15.4C0.6 16.2837 1.31635 17 2.2 17C3.08366 17 3.8 16.2837 3.8 15.4ZM11.8 9L3.8 9M11.8 9C11.8 8.11634 12.5163 7.4 13.4 7.4C14.2837 7.4 15 8.11634 15 9C15 9.88366 14.2837 10.6 13.4 10.6C12.5163 10.6 11.8 9.88366 11.8 9ZM3.8 9C3.8 8.11634 3.08366 7.4 2.2 7.4C1.31635 7.4 0.600001 8.11634 0.600001 9C0.600001 9.88365 1.31635 10.6 2.2 10.6C3.08366 10.6 3.8 9.88366 3.8 9Z" stroke="#888C92" stroke-width="1.2" stroke-linecap="round" stroke-linejoin="round"/>
</svg>
