<svg width="17" height="17" viewBox="0 0 17 17" fill="none" xmlns="http://www.w3.org/2000/svg">
<path d="M1.25 16.6667C0.916667 16.6667 0.625 16.5417 0.375 16.2917C0.125 16.0417 0 15.75 0 15.4167V1.25C0 0.916667 0.125 0.625 0.375 0.375C0.625 0.125 0.916667 0 1.25 0H15.4167C15.75 0 16.0417 0.125 16.2917 0.375C16.5417 0.625 16.6667 0.916667 16.6667 1.25V15.4167C16.6667 15.75 16.5417 16.0417 16.2917 16.2917C16.0417 16.5417 15.75 16.6667 15.4167 16.6667H1.25ZM1.25 11.5417V15.4167H5.14583V11.5417H1.25ZM6.39583 11.5417V15.4167H10.2708V11.5417H6.39583ZM11.5208 15.4167H15.4167V11.5417H11.5208V15.4167ZM1.25 10.2917H5.14583V6.39583H1.25V10.2917ZM6.39583 10.2917H10.2708V6.39583H6.39583V10.2917ZM11.5208 10.2917H15.4167V6.39583H11.5208V10.2917ZM5.14583 1.25H1.25V5.14583H5.14583V1.25ZM6.39583 5.14583H10.2708V1.25H6.39583V5.14583ZM11.5208 5.14583H15.4167V1.25H11.5208V5.14583Z" fill="#888C92"/>
</svg>
