<svg width="20" height="20" viewBox="0 0 20 20" fill="none" xmlns="http://www.w3.org/2000/svg">
<path d="M5.8 3.6L5.96 3.6C7.30413 3.6 7.97619 3.6 8.48958 3.86158C8.94117 4.09168 9.30832 4.45883 9.53842 4.91042C9.8 5.42381 9.8 6.09587 9.8 7.44L9.8 12.56C9.8 13.9041 9.8 14.5762 9.53842 15.0896C9.30832 15.5412 8.94117 15.9083 8.48958 16.1384C7.97619 16.4 7.30413 16.4 5.96 16.4L5.8 16.4M5.8 3.6C5.8 2.71634 5.08366 2 4.2 2C3.31635 2 2.6 2.71634 2.6 3.6C2.6 4.48365 3.31635 5.2 4.2 5.2C5.08366 5.2 5.8 4.48365 5.8 3.6ZM5.8 16.4C5.8 15.5163 5.08366 14.8 4.2 14.8C3.31635 14.8 2.6 15.5163 2.6 16.4C2.6 17.2837 3.31635 18 4.2 18C5.08366 18 5.8 17.2837 5.8 16.4ZM13.8 10L5.8 10M13.8 10C13.8 9.11634 14.5163 8.4 15.4 8.4C16.2837 8.4 17 9.11634 17 10C17 10.8837 16.2837 11.6 15.4 11.6C14.5163 11.6 13.8 10.8837 13.8 10ZM5.8 10C5.8 9.11634 5.08366 8.4 4.2 8.4C3.31635 8.4 2.6 9.11634 2.6 10C2.6 10.8837 3.31635 11.6 4.2 11.6C5.08366 11.6 5.8 10.8837 5.8 10Z" stroke="#888C92" stroke-width="1.2" stroke-linecap="round" stroke-linejoin="round"/>
</svg>
