<svg width="10" height="16" viewBox="0 0 10 16" fill="none" xmlns="http://www.w3.org/2000/svg">
<path d="M0.603516 15.5L0.416016 14.125L3.06185 6.83333C3.21463 6.98611 3.38477 7.11111 3.57227 7.20833C3.75977 7.30556 3.95768 7.38889 4.16602 7.45833L1.60352 14.5208L0.603516 15.5ZM9.39518 15.5L8.39518 14.5208L5.79102 7.47917C5.99935 7.40972 6.20074 7.32639 6.39518 7.22917C6.58963 7.13194 6.76324 7.00694 6.91602 6.85417L9.58268 14.125L9.39518 15.5ZM4.99935 7.16667C4.3049 7.16667 3.71463 6.92361 3.22852 6.4375C2.7424 5.95139 2.49935 5.36111 2.49935 4.66667C2.49935 4.08333 2.66949 3.56597 3.00977 3.11458C3.35004 2.66319 3.8049 2.375 4.37435 2.25V0.5H5.62435V2.25C6.19379 2.375 6.64865 2.66319 6.98893 3.11458C7.32921 3.56597 7.49935 4.08333 7.49935 4.66667C7.49935 5.36111 7.25629 5.95139 6.77018 6.4375C6.28407 6.92361 5.69379 7.16667 4.99935 7.16667ZM4.99935 5.91667C5.34657 5.91667 5.64171 5.79514 5.88477 5.55208C6.12782 5.30903 6.24935 5.01389 6.24935 4.66667C6.24935 4.31944 6.12782 4.02431 5.88477 3.78125C5.64171 3.53819 5.34657 3.41667 4.99935 3.41667C4.65213 3.41667 4.35699 3.53819 4.11393 3.78125C3.87088 4.02431 3.74935 4.31944 3.74935 4.66667C3.74935 5.01389 3.87088 5.30903 4.11393 5.55208C4.35699 5.79514 4.65213 5.91667 4.99935 5.91667Z" fill="#888C92"/>
</svg>
