<svg width="20" height="20" viewBox="0 0 20 20" fill="none" xmlns="http://www.w3.org/2000/svg">
<path d="M5.60352 17.5L5.41602 16.125L8.06185 8.83333C8.21463 8.98611 8.38477 9.11111 8.57227 9.20833C8.75977 9.30556 8.95768 9.38889 9.16602 9.45833L6.60352 16.5208L5.60352 17.5ZM14.3952 17.5L13.3952 16.5208L10.791 9.47917C10.9993 9.40972 11.2007 9.32639 11.3952 9.22917C11.5896 9.13194 11.7632 9.00694 11.916 8.85417L14.5827 16.125L14.3952 17.5ZM9.99935 9.16667C9.3049 9.16667 8.71463 8.92361 8.22852 8.4375C7.7424 7.95139 7.49935 7.36111 7.49935 6.66667C7.49935 6.08333 7.66949 5.56597 8.00977 5.11458C8.35004 4.66319 8.8049 4.375 9.37435 4.25V2.5H10.6243V4.25C11.1938 4.375 11.6487 4.66319 11.9889 5.11458C12.3292 5.56597 12.4993 6.08333 12.4993 6.66667C12.4993 7.36111 12.2563 7.95139 11.7702 8.4375C11.2841 8.92361 10.6938 9.16667 9.99935 9.16667ZM9.99935 7.91667C10.3466 7.91667 10.6417 7.79514 10.8848 7.55208C11.1278 7.30903 11.2493 7.01389 11.2493 6.66667C11.2493 6.31944 11.1278 6.02431 10.8848 5.78125C10.6417 5.53819 10.3466 5.41667 9.99935 5.41667C9.65213 5.41667 9.35699 5.53819 9.11393 5.78125C8.87088 6.02431 8.74935 6.31944 8.74935 6.66667C8.74935 7.01389 8.87088 7.30903 9.11393 7.55208C9.35699 7.79514 9.65213 7.91667 9.99935 7.91667Z" fill="#00977C"/>
</svg>
