<svg width="20" height="20" viewBox="0 0 20 20" fill="none" xmlns="http://www.w3.org/2000/svg">
<path d="M4.41602 14.9792V7.91667H5.66602V14.9792H4.41602ZM9.45768 14.9792V7.91667H10.7077V14.9792H9.45768ZM1.66602 6.66667V5.5625L9.99935 0.8125L18.3327 5.5625V6.66667H1.66602ZM4.45768 5.41667H15.541L9.99935 2.25L4.45768 5.41667ZM1.66602 17.4792V16.2292H12.0827C12.1105 16.4236 12.1348 16.6215 12.1556 16.8229C12.1764 17.0243 12.2285 17.2431 12.3118 17.4792H1.66602ZM14.3327 11.4167V7.91667H15.5827V10.7917L14.3327 11.4167ZM16.666 20C15.7077 19.7639 14.9125 19.2118 14.2806 18.3438C13.6487 17.4757 13.3327 16.5139 13.3327 15.4583V13.3333L16.666 11.6667L19.9993 13.3333V15.4583C19.9993 16.5139 19.6834 17.4757 19.0514 18.3438C18.4195 19.2118 17.6243 19.7639 16.666 20ZM16.2285 17.5L19.1868 14.5417L18.6035 13.9583L16.2285 16.3333L14.9993 15.1042L14.416 15.6875L16.2285 17.5Z" fill="#00977C"/>
</svg>
