<svg width="19" height="20" viewBox="0 0 19 20" fill="none" xmlns="http://www.w3.org/2000/svg">
<path d="M3.41602 14.9792V7.91667H4.66602V14.9792H3.41602ZM8.45768 14.9792V7.91667H9.70768V14.9792H8.45768ZM0.666016 6.66667V5.5625L8.99935 0.8125L17.3327 5.5625V6.66667H0.666016ZM3.45768 5.41667H14.541L8.99935 2.25L3.45768 5.41667ZM0.666016 17.4792V16.2292H11.0827C11.1105 16.4236 11.1348 16.6215 11.1556 16.8229C11.1764 17.0243 11.2285 17.2431 11.3118 17.4792H0.666016ZM13.3327 11.4167V7.91667H14.5827V10.7917L13.3327 11.4167ZM15.666 20C14.7077 19.7639 13.9125 19.2118 13.2806 18.3438C12.6487 17.4757 12.3327 16.5139 12.3327 15.4583V13.3333L15.666 11.6667L18.9993 13.3333V15.4583C18.9993 16.5139 18.6834 17.4757 18.0514 18.3438C17.4195 19.2118 16.6243 19.7639 15.666 20ZM15.2285 17.5L18.1868 14.5417L17.6035 13.9583L15.2285 16.3333L13.9993 15.1042L13.416 15.6875L15.2285 17.5Z" fill="#888C92"/>
</svg>
