<svg width="17" height="17" viewBox="0 0 17 17" fill="none" xmlns="http://www.w3.org/2000/svg">
<path d="M6.3125 11.875L11.875 8.33333L6.3125 4.79167V11.875ZM8.33333 16.6667C7.19444 16.6667 6.11806 16.4479 5.10417 16.0104C4.09028 15.5729 3.20486 14.9757 2.44792 14.2188C1.69097 13.4618 1.09375 12.5764 0.65625 11.5625C0.21875 10.5486 0 9.47222 0 8.33333C0 7.18056 0.21875 6.09722 0.65625 5.08333C1.09375 4.06944 1.69097 3.1875 2.44792 2.4375C3.20486 1.6875 4.09028 1.09375 5.10417 0.65625C6.11806 0.21875 7.19444 0 8.33333 0C9.48611 0 10.5694 0.21875 11.5833 0.65625C12.5972 1.09375 13.4792 1.6875 14.2292 2.4375C14.9792 3.1875 15.5729 4.06944 16.0104 5.08333C16.4479 6.09722 16.6667 7.18056 16.6667 8.33333C16.6667 9.47222 16.4479 10.5486 16.0104 11.5625C15.5729 12.5764 14.9792 13.4618 14.2292 14.2188C13.4792 14.9757 12.5972 15.5729 11.5833 16.0104C10.5694 16.4479 9.48611 16.6667 8.33333 16.6667ZM8.33333 15.4167C10.3056 15.4167 11.9792 14.7257 13.3542 13.3438C14.7292 11.9618 15.4167 10.2917 15.4167 8.33333C15.4167 6.36111 14.7292 4.6875 13.3542 3.3125C11.9792 1.9375 10.3056 1.25 8.33333 1.25C6.375 1.25 4.70486 1.9375 3.32292 3.3125C1.94097 4.6875 1.25 6.36111 1.25 8.33333C1.25 10.2917 1.94097 11.9618 3.32292 13.3438C4.70486 14.7257 6.375 15.4167 8.33333 15.4167Z" fill="#888C92"/>
</svg>
