<svg width="240" height="40" viewBox="0 0 240 40" fill="none" xmlns="http://www.w3.org/2000/svg">
<path d="M56.1741 20.1889C56.1741 19.068 56.4376 18.0424 56.9644 17.1121C57.5024 16.1818 58.2253 15.4532 59.1332 14.9264C60.0523 14.3884 61.0555 14.1194 62.1428 14.1194C63.2636 14.1194 64.278 14.3828 65.1859 14.9096C66.0938 15.4364 66.8056 16.1594 67.3212 17.0785C67.848 17.9976 68.1114 19.0288 68.1114 20.1721C68.1114 21.1585 67.904 22.072 67.4893 22.9126C67.0746 23.7533 66.4973 24.4538 65.7576 25.0142C65.0178 25.5747 64.1827 25.9389 63.2524 26.1071L64.6983 28.3264C64.732 28.3824 64.76 28.4329 64.7824 28.4777C64.8048 28.5225 64.816 28.5618 64.816 28.5954C64.816 28.7075 64.6927 28.7635 64.4461 28.7635H63.9922C63.8353 28.7635 63.712 28.7355 63.6223 28.6795C63.5438 28.6346 63.4486 28.5282 63.3365 28.36L61.9578 26.2248C60.8594 26.2024 59.8674 25.9221 58.9819 25.3841C58.1076 24.8461 57.4183 24.1231 56.9139 23.2152C56.4207 22.3073 56.1741 21.2986 56.1741 20.1889ZM57.3174 20.1889C57.3174 21.1192 57.5248 21.9655 57.9395 22.7277C58.3654 23.4786 58.9427 24.0727 59.6713 24.5098C60.411 24.9358 61.2293 25.1487 62.126 25.1487C63.0002 25.1487 63.8073 24.9302 64.547 24.493C65.2868 24.0559 65.8753 23.4618 66.3124 22.7109C66.7495 21.9487 66.9681 21.108 66.9681 20.1889C66.9681 19.2362 66.7495 18.3787 66.3124 17.6165C65.8865 16.8543 65.3036 16.2603 64.5638 15.8343C63.8241 15.4084 63.0114 15.1954 62.126 15.1954C61.2517 15.1954 60.4447 15.414 59.7049 15.8511C58.9763 16.2771 58.3935 16.8711 57.9563 17.6333C57.5304 18.3843 57.3174 19.2362 57.3174 20.1889ZM81.874 21.08C81.874 22.2009 81.6723 23.148 81.2687 23.9214C80.8652 24.6948 80.3104 25.272 79.6043 25.6531C78.8981 26.0342 78.0911 26.2248 77.1832 26.2248C76.2977 26.2248 75.5131 26.0398 74.8294 25.6699C74.1568 25.3001 73.6244 24.7396 73.2321 23.9886C72.8398 23.2265 72.6437 22.2793 72.6437 21.1472V14.6238C72.6437 14.4893 72.6661 14.3996 72.7109 14.3548C72.767 14.31 72.8566 14.2875 72.9799 14.2875H73.4003C73.5236 14.2875 73.6076 14.31 73.6525 14.3548C73.7085 14.3996 73.7365 14.4893 73.7365 14.6238V21.0968C73.7365 21.9375 73.871 22.6604 74.14 23.2657C74.409 23.8709 74.8069 24.3361 75.3338 24.6612C75.8606 24.9862 76.4938 25.1487 77.2336 25.1487C77.9734 25.1487 78.6067 24.9862 79.1335 24.6612C79.6715 24.3361 80.0806 23.8766 80.3608 23.2825C80.6411 22.6772 80.7812 21.9599 80.7812 21.1304V14.6238C80.7812 14.4893 80.8036 14.3996 80.8484 14.3548C80.9045 14.31 80.9941 14.2875 81.1174 14.2875H81.5378C81.661 14.2875 81.7451 14.31 81.7899 14.3548C81.846 14.3996 81.874 14.4893 81.874 14.6238V21.08ZM86.4973 25.5691C86.4077 25.7708 86.3236 25.9053 86.2451 25.9726C86.1667 26.0286 86.0434 26.0566 85.8752 26.0566H85.5726C85.4605 26.0566 85.3765 26.0398 85.3204 26.0062C85.2644 25.9726 85.2363 25.9165 85.2363 25.8381C85.2363 25.7932 85.2644 25.7036 85.3204 25.5691L90.2466 14.9096C90.3363 14.7079 90.4148 14.5397 90.482 14.4052C90.5605 14.2707 90.6221 14.1867 90.667 14.153C90.7118 14.1082 90.7678 14.0858 90.8351 14.0858C90.8911 14.0858 90.9416 14.1082 90.9864 14.153C91.0312 14.1867 91.0873 14.2707 91.1545 14.4052C91.233 14.5397 91.3171 14.7079 91.4067 14.9096L96.3666 25.5691C96.4226 25.7036 96.4506 25.7932 96.4506 25.8381C96.4506 25.9165 96.4226 25.9726 96.3666 26.0062C96.3105 26.0398 96.2265 26.0566 96.1144 26.0566H95.7613C95.5932 26.0566 95.4699 26.0286 95.3914 25.9726C95.3129 25.9053 95.2289 25.7708 95.1392 25.5691L90.8183 16.1202L86.4973 25.5691ZM108.354 14.6238C108.354 14.4893 108.377 14.3996 108.421 14.3548C108.477 14.31 108.567 14.2875 108.69 14.2875H109.111C109.234 14.2875 109.318 14.31 109.363 14.3548C109.419 14.3996 109.447 14.4893 109.447 14.6238V25.7204C109.447 25.8997 109.419 26.0286 109.363 26.1071C109.307 26.1855 109.228 26.2248 109.128 26.2248C109.038 26.2248 108.948 26.1911 108.858 26.1239C108.78 26.0566 108.662 25.9221 108.505 25.7204L101.309 16.5573V25.7204C101.309 25.8549 101.281 25.9446 101.225 25.9894C101.181 26.0342 101.096 26.0566 100.973 26.0566H100.553C100.43 26.0566 100.34 26.0342 100.284 25.9894C100.239 25.9446 100.217 25.8549 100.217 25.7204V14.6238C100.217 14.4445 100.245 14.3156 100.301 14.2371C100.357 14.1586 100.435 14.1194 100.536 14.1194C100.626 14.1194 100.71 14.153 100.788 14.2203C100.878 14.2875 101.001 14.422 101.158 14.6238L108.354 23.7869V14.6238ZM122.398 15.0273C122.398 15.1618 122.37 15.2515 122.314 15.2963C122.269 15.3411 122.185 15.3636 122.062 15.3636H118.649C118.537 15.3636 118.481 15.4196 118.481 15.5317V25.7204C118.481 25.8549 118.453 25.9446 118.397 25.9894C118.352 26.0342 118.268 26.0566 118.144 26.0566H117.724C117.601 26.0566 117.511 26.0342 117.455 25.9894C117.41 25.9446 117.388 25.8549 117.388 25.7204V15.5317C117.388 15.4196 117.332 15.3636 117.22 15.3636H113.807C113.683 15.3636 113.594 15.3411 113.538 15.2963C113.493 15.2515 113.47 15.1618 113.47 15.0273V14.6238C113.47 14.4893 113.493 14.3996 113.538 14.3548C113.594 14.31 113.683 14.2875 113.807 14.2875H122.062C122.185 14.2875 122.269 14.31 122.314 14.3548C122.37 14.3996 122.398 14.4893 122.398 14.6238V15.0273ZM135.572 21.08C135.572 22.2009 135.37 23.148 134.967 23.9214C134.563 24.6948 134.008 25.272 133.302 25.6531C132.596 26.0342 131.789 26.2248 130.881 26.2248C129.996 26.2248 129.211 26.0398 128.527 25.6699C127.855 25.3001 127.322 24.7396 126.93 23.9886C126.538 23.2265 126.342 22.2793 126.342 21.1472V14.6238C126.342 14.4893 126.364 14.3996 126.409 14.3548C126.465 14.31 126.554 14.2875 126.678 14.2875H127.098C127.221 14.2875 127.305 14.31 127.35 14.3548C127.406 14.3996 127.434 14.4893 127.434 14.6238V21.0968C127.434 21.9375 127.569 22.6604 127.838 23.2657C128.107 23.8709 128.505 24.3361 129.032 24.6612C129.558 24.9862 130.192 25.1487 130.931 25.1487C131.671 25.1487 132.305 24.9862 132.831 24.6612C133.369 24.3361 133.778 23.8766 134.059 23.2825C134.339 22.6772 134.479 21.9599 134.479 21.1304V14.6238C134.479 14.4893 134.501 14.3996 134.546 14.3548C134.602 14.31 134.692 14.2875 134.815 14.2875H135.236C135.359 14.2875 135.443 14.31 135.488 14.3548C135.544 14.3996 135.572 14.4893 135.572 14.6238V21.08ZM141.936 25.7204C141.936 25.8549 141.908 25.9446 141.852 25.9894C141.807 26.0342 141.723 26.0566 141.6 26.0566H141.179C141.056 26.0566 140.966 26.0342 140.91 25.9894C140.865 25.9446 140.843 25.8549 140.843 25.7204V14.6238C140.843 14.4557 140.865 14.3324 140.91 14.2539C140.955 14.1642 141.034 14.1194 141.146 14.1194C141.235 14.1194 141.319 14.153 141.398 14.2203C141.476 14.2875 141.594 14.4164 141.751 14.607L146.358 20.4075L150.897 14.607C151.054 14.4164 151.172 14.2875 151.25 14.2203C151.329 14.153 151.413 14.1194 151.502 14.1194C151.615 14.1194 151.693 14.1642 151.738 14.2539C151.783 14.3324 151.805 14.4557 151.805 14.6238V25.7204C151.805 25.8549 151.777 25.9446 151.721 25.9894C151.676 26.0342 151.592 26.0566 151.469 26.0566H151.048C150.925 26.0566 150.836 26.0342 150.779 25.9894C150.735 25.9446 150.712 25.8549 150.712 25.7204V16.5909L146.896 21.3826C146.75 21.5732 146.638 21.7021 146.559 21.7693C146.492 21.8254 146.414 21.8534 146.324 21.8534C146.234 21.8534 146.15 21.8254 146.072 21.7693C146.005 21.7021 145.898 21.5732 145.752 21.3826L141.936 16.5909V25.7204ZM158.242 25.7204C158.242 25.8549 158.214 25.9446 158.158 25.9894C158.113 26.0342 158.029 26.0566 157.906 26.0566H157.485C157.362 26.0566 157.272 26.0342 157.216 25.9894C157.171 25.9446 157.149 25.8549 157.149 25.7204V14.6238C157.149 14.4893 157.171 14.3996 157.216 14.3548C157.272 14.31 157.362 14.2875 157.485 14.2875H157.906C158.029 14.2875 158.113 14.31 158.158 14.3548C158.214 14.3996 158.242 14.4893 158.242 14.6238V25.7204ZM168.749 25.1487C169.455 25.1487 170.111 25.0367 170.716 24.8125C171.332 24.5771 171.893 24.2464 172.397 23.8205C172.509 23.7308 172.599 23.686 172.666 23.686C172.745 23.686 172.818 23.7364 172.885 23.8373L173.137 24.1736C173.193 24.2633 173.221 24.3305 173.221 24.3753C173.221 24.4538 173.165 24.5435 173.053 24.6443C172.459 25.1487 171.786 25.541 171.035 25.8213C170.296 26.0903 169.517 26.2248 168.698 26.2248C167.645 26.2248 166.67 25.967 165.773 25.4514C164.876 24.9358 164.164 24.2184 163.638 23.2993C163.111 22.3802 162.847 21.349 162.847 20.2057C162.847 19.0624 163.111 18.0312 163.638 17.1121C164.164 16.1818 164.882 15.4532 165.79 14.9264C166.698 14.3884 167.701 14.1194 168.799 14.1194C169.595 14.1194 170.357 14.2595 171.086 14.5397C171.814 14.8199 172.464 15.1954 173.036 15.6662C173.137 15.7447 173.187 15.8231 173.187 15.9016C173.187 15.9576 173.154 16.0361 173.087 16.137L172.834 16.4564C172.745 16.5685 172.666 16.6245 172.599 16.6245C172.565 16.6245 172.526 16.6133 172.481 16.5909C172.436 16.5573 172.386 16.5237 172.33 16.49C171.826 16.0865 171.265 15.7727 170.649 15.5485C170.043 15.3131 169.41 15.1954 168.749 15.1954C167.875 15.1954 167.073 15.4084 166.345 15.8343C165.627 16.2603 165.056 16.8543 164.63 17.6165C164.204 18.3675 163.991 19.225 163.991 20.1889C163.991 21.108 164.198 21.9487 164.613 22.7109C165.039 23.4618 165.616 24.0559 166.345 24.493C167.073 24.9302 167.875 25.1487 168.749 25.1487ZM180.456 14.1194C181.801 14.1194 183.028 14.5453 184.138 15.3972C184.25 15.4757 184.306 15.5541 184.306 15.6326C184.306 15.6886 184.266 15.7615 184.188 15.8511L183.885 16.221C183.807 16.3331 183.734 16.3892 183.667 16.3892C183.588 16.3892 183.504 16.3499 183.415 16.2715C182.944 15.9352 182.462 15.6718 181.969 15.4813C181.487 15.2907 180.971 15.1954 180.422 15.1954C179.929 15.1954 179.492 15.2795 179.11 15.4476C178.729 15.6158 178.432 15.8624 178.219 16.1874C178.006 16.5012 177.9 16.8767 177.9 17.3139C177.9 17.751 178.001 18.1097 178.203 18.3899C178.416 18.6701 178.724 18.8999 179.127 19.0792C179.531 19.2586 180.08 19.4379 180.775 19.6173C181.638 19.8414 182.327 20.0936 182.843 20.3738C183.359 20.6429 183.745 20.9791 184.003 21.3826C184.261 21.7861 184.39 22.2849 184.39 22.879C184.39 23.5403 184.21 24.1231 183.852 24.6275C183.493 25.1319 183 25.5242 182.372 25.8044C181.745 26.0847 181.033 26.2248 180.237 26.2248C179.508 26.2248 178.819 26.0959 178.169 25.8381C177.53 25.5691 176.942 25.2104 176.404 24.762C176.291 24.6836 176.235 24.6051 176.235 24.5267C176.235 24.4594 176.275 24.3809 176.353 24.2913L176.673 23.9046C176.751 23.8037 176.824 23.7533 176.891 23.7533C176.936 23.7533 177.009 23.7925 177.11 23.8709C178.163 24.7228 179.223 25.1487 180.287 25.1487C180.881 25.1487 181.397 25.0591 181.834 24.8797C182.283 24.7004 182.624 24.4482 182.86 24.1231C183.106 23.7869 183.23 23.3946 183.23 22.9462C183.23 22.5315 183.134 22.1953 182.944 21.9375C182.764 21.6684 182.467 21.4387 182.053 21.2481C181.649 21.0464 181.078 20.8502 180.338 20.6597C179.52 20.4467 178.853 20.2169 178.337 19.9703C177.833 19.7237 177.44 19.3931 177.16 18.9784C176.88 18.5636 176.74 18.0312 176.74 17.3811C176.74 16.7198 176.902 16.1426 177.227 15.6494C177.564 15.1562 178.012 14.7807 178.572 14.5229C179.133 14.2539 179.761 14.1194 180.456 14.1194ZM188.483 25.4346C188.483 25.2104 188.556 25.0254 188.701 24.8797C188.858 24.734 189.043 24.6612 189.256 24.6612C189.481 24.6612 189.665 24.734 189.811 24.8797C189.957 25.0142 190.03 25.1992 190.03 25.4346C190.03 25.6587 189.957 25.8437 189.811 25.9894C189.665 26.1239 189.481 26.1911 189.256 26.1911C189.043 26.1911 188.858 26.1239 188.701 25.9894C188.556 25.8437 188.483 25.6587 188.483 25.4346ZM195.389 25.5691C195.299 25.7708 195.215 25.9053 195.137 25.9726C195.058 26.0286 194.935 26.0566 194.767 26.0566H194.464C194.352 26.0566 194.268 26.0398 194.212 26.0062C194.156 25.9726 194.128 25.9165 194.128 25.8381C194.128 25.7932 194.156 25.7036 194.212 25.5691L199.138 14.9096C199.228 14.7079 199.307 14.5397 199.374 14.4052C199.452 14.2707 199.514 14.1867 199.559 14.153C199.604 14.1082 199.66 14.0858 199.727 14.0858C199.783 14.0858 199.833 14.1082 199.878 14.153C199.923 14.1867 199.979 14.2707 200.046 14.4052C200.125 14.5397 200.209 14.7079 200.299 14.9096L205.258 25.5691C205.314 25.7036 205.342 25.7932 205.342 25.8381C205.342 25.9165 205.314 25.9726 205.258 26.0062C205.202 26.0398 205.118 26.0566 205.006 26.0566H204.653C204.485 26.0566 204.362 26.0286 204.283 25.9726C204.205 25.9053 204.121 25.7708 204.031 25.5691L199.71 16.1202L195.389 25.5691ZM210.201 25.7204C210.201 25.8549 210.173 25.9446 210.117 25.9894C210.072 26.0342 209.988 26.0566 209.865 26.0566H209.445C209.321 26.0566 209.232 26.0342 209.176 25.9894C209.131 25.9446 209.108 25.8549 209.108 25.7204V14.6238C209.108 14.4893 209.131 14.3996 209.176 14.3548C209.232 14.31 209.321 14.2875 209.445 14.2875H209.865C209.988 14.2875 210.072 14.31 210.117 14.3548C210.173 14.3996 210.201 14.4893 210.201 14.6238V25.7204Z" fill="#212244"/>
<rect x="24" y="7" width="26.748" height="26.748" rx="2.70181" fill="url(#paint0_radial_987_1139)"/>
<path d="M33.9631 21.4838C33.9271 21.5649 33.8933 21.6189 33.8618 21.6459C33.8303 21.6684 33.7808 21.6797 33.7132 21.6797H33.5916C33.5466 21.6797 33.5128 21.6729 33.4903 21.6594C33.4678 21.6459 33.4565 21.6234 33.4565 21.5919C33.4565 21.5739 33.4678 21.5378 33.4903 21.4838L35.4694 17.2014C35.5054 17.1204 35.5369 17.0528 35.564 16.9988C35.5955 16.9448 35.6202 16.911 35.6383 16.8975C35.6563 16.8795 35.6788 16.8705 35.7058 16.8705C35.7283 16.8705 35.7486 16.8795 35.7666 16.8975C35.7846 16.911 35.8071 16.9448 35.8341 16.9988C35.8657 17.0528 35.8994 17.1204 35.9355 17.2014L37.928 21.4838C37.9506 21.5378 37.9618 21.5739 37.9618 21.5919C37.9618 21.6234 37.9506 21.6459 37.928 21.6594C37.9055 21.6729 37.8718 21.6797 37.8267 21.6797H37.6849C37.6173 21.6797 37.5678 21.6684 37.5363 21.6459C37.5048 21.6189 37.471 21.5649 37.435 21.4838L35.699 17.6878L33.9631 21.4838ZM40.6906 21.5446C40.6906 21.5986 40.6793 21.6347 40.6568 21.6527C40.6388 21.6707 40.605 21.6797 40.5555 21.6797H40.3866C40.3371 21.6797 40.3011 21.6707 40.2786 21.6527C40.2606 21.6347 40.2516 21.5986 40.2516 21.5446V17.0866C40.2516 17.0326 40.2606 16.9965 40.2786 16.9785C40.3011 16.9605 40.3371 16.9515 40.3866 16.9515H40.5555C40.605 16.9515 40.6388 16.9605 40.6568 16.9785C40.6793 16.9965 40.6906 17.0326 40.6906 17.0866V21.5446Z" fill="white"/>
<path d="M33.9631 21.4838L33.9272 21.4674L33.927 21.4678L33.9631 21.4838ZM33.8618 21.6459L33.8849 21.6782L33.8875 21.6759L33.8618 21.6459ZM33.4903 21.4838L33.4544 21.4672L33.4538 21.4686L33.4903 21.4838ZM35.4694 17.2014L35.5053 17.218L35.5055 17.2175L35.4694 17.2014ZM35.564 16.9988L35.5297 16.9788L35.5286 16.9811L35.564 16.9988ZM35.6383 16.8975L35.6622 16.9294L35.6662 16.9254L35.6383 16.8975ZM35.7666 16.8975L35.7384 16.9257L35.7429 16.9291L35.7666 16.8975ZM35.8341 16.9988L35.7987 17.0165L35.8 17.0187L35.8341 16.9988ZM35.9355 17.2014L35.8993 17.2175L35.8996 17.2181L35.9355 17.2014ZM37.928 21.4838L37.9646 21.4686L37.9639 21.4671L37.928 21.4838ZM37.928 21.6594L37.9484 21.6933L37.928 21.6594ZM37.5363 21.6459L37.5105 21.676L37.5133 21.6781L37.5363 21.6459ZM37.435 21.4838L37.4711 21.4678L37.4709 21.4674L37.435 21.4838ZM35.699 17.6878L35.735 17.6713L35.699 17.5927L35.6631 17.6713L35.699 17.6878ZM33.927 21.4678C33.8913 21.5482 33.8604 21.5951 33.8361 21.6159L33.8875 21.6759C33.9263 21.6427 33.963 21.5815 33.9993 21.4999L33.927 21.4678ZM33.8388 21.6138C33.8174 21.6291 33.778 21.6402 33.7132 21.6402V21.7192C33.7836 21.7192 33.8432 21.7078 33.8848 21.6781L33.8388 21.6138ZM33.7132 21.6402H33.5916V21.7192H33.7132V21.6402ZM33.5916 21.6402C33.5493 21.6402 33.5241 21.6336 33.5107 21.6255L33.47 21.6933C33.5016 21.7123 33.5439 21.7192 33.5916 21.7192V21.6402ZM33.5107 21.6255C33.5026 21.6207 33.4961 21.6128 33.4961 21.5919H33.417C33.417 21.634 33.433 21.6711 33.47 21.6933L33.5107 21.6255ZM33.4961 21.5919C33.4961 21.5892 33.4973 21.5806 33.5027 21.5631C33.5078 21.5467 33.5158 21.5254 33.5268 21.499L33.4538 21.4686C33.4423 21.4962 33.4334 21.5199 33.4273 21.5396C33.4214 21.5582 33.417 21.5765 33.417 21.5919H33.4961ZM33.5262 21.5004L35.5053 17.218L35.4335 17.1848L33.4544 21.4672L33.5262 21.5004ZM35.5055 17.2175C35.5414 17.1367 35.5727 17.0698 35.5993 17.0165L35.5286 16.9811C35.5012 17.0359 35.4694 17.104 35.4333 17.1854L35.5055 17.2175ZM35.5981 17.0187C35.6135 16.9924 35.6268 16.9717 35.638 16.9563C35.6497 16.9404 35.6577 16.9323 35.662 16.9291L35.6145 16.8659C35.6008 16.8762 35.5874 16.8917 35.5743 16.9096C35.5608 16.928 35.546 16.9512 35.5298 16.9789L35.5981 17.0187ZM35.6662 16.9254C35.6763 16.9153 35.6886 16.91 35.7058 16.91V16.8309C35.669 16.8309 35.6362 16.8436 35.6103 16.8695L35.6662 16.9254ZM35.7058 16.91C35.7164 16.91 35.727 16.9138 35.7386 16.9254L35.7945 16.8695C35.7702 16.8452 35.7402 16.8309 35.7058 16.8309V16.91ZM35.7429 16.9291C35.7465 16.9318 35.7537 16.9392 35.7641 16.9549C35.7741 16.9699 35.7857 16.9903 35.7988 17.0165L35.8695 16.9811C35.8556 16.9533 35.8424 16.9297 35.8299 16.911C35.8178 16.8929 35.8047 16.8766 35.7903 16.8659L35.7429 16.9291ZM35.8 17.0187C35.8306 17.0711 35.8637 17.1373 35.8993 17.2175L35.9716 17.1854C35.9352 17.1035 35.9008 17.0346 35.8683 16.9789L35.8 17.0187ZM35.8996 17.2181L37.8922 21.5005L37.9639 21.4671L35.9713 17.1848L35.8996 17.2181ZM37.8916 21.499C37.9026 21.5254 37.9105 21.5467 37.9157 21.5631C37.9211 21.5806 37.9223 21.5892 37.9223 21.5919H38.0013C38.0013 21.5765 37.9969 21.5582 37.9911 21.5396C37.985 21.5199 37.976 21.4962 37.9645 21.4686L37.8916 21.499ZM37.9223 21.5919C37.9223 21.6128 37.9158 21.6207 37.9077 21.6255L37.9484 21.6933C37.9854 21.6711 38.0013 21.634 38.0013 21.5919H37.9223ZM37.9077 21.6255C37.8943 21.6336 37.8691 21.6402 37.8267 21.6402V21.7192C37.8744 21.7192 37.9168 21.7123 37.9484 21.6933L37.9077 21.6255ZM37.8267 21.6402H37.6849V21.7192H37.8267V21.6402ZM37.6849 21.6402C37.6201 21.6402 37.5807 21.6291 37.5593 21.6138L37.5133 21.6781C37.5549 21.7078 37.6145 21.7192 37.6849 21.7192V21.6402ZM37.562 21.6159C37.5377 21.5951 37.5068 21.5482 37.4711 21.4678L37.3988 21.4999C37.4351 21.5815 37.4718 21.6427 37.5106 21.6759L37.562 21.6159ZM37.4709 21.4674L35.735 17.6713L35.6631 17.7042L37.399 21.5002L37.4709 21.4674ZM35.6631 17.6713L33.9272 21.4674L33.9991 21.5002L35.735 17.7042L35.6631 17.6713ZM40.6568 21.6527L40.632 21.6216L40.6289 21.6247L40.6568 21.6527ZM40.2786 21.6527L40.2505 21.6808L40.2539 21.6835L40.2786 21.6527ZM40.2786 16.9785L40.2537 16.9475L40.2506 16.9506L40.2786 16.9785ZM40.6568 16.9785L40.6287 17.0066L40.6321 17.0094L40.6568 16.9785ZM40.6511 21.5446C40.6511 21.5964 40.6397 21.6158 40.6321 21.6218L40.6815 21.6835C40.719 21.6535 40.7301 21.6009 40.7301 21.5446H40.6511ZM40.6289 21.6247C40.6227 21.6309 40.6033 21.6402 40.5555 21.6402V21.7192C40.6068 21.7192 40.6549 21.7105 40.6848 21.6806L40.6289 21.6247ZM40.5555 21.6402H40.3866V21.7192H40.5555V21.6402ZM40.3866 21.6402C40.3403 21.6402 40.3153 21.6314 40.3033 21.6218L40.2539 21.6835C40.2869 21.7099 40.334 21.7192 40.3866 21.7192V21.6402ZM40.3065 21.6247C40.3044 21.6226 40.3002 21.6166 40.2967 21.6026C40.2932 21.5887 40.2911 21.5697 40.2911 21.5446H40.212C40.212 21.5735 40.2144 21.5995 40.22 21.6217C40.2255 21.6437 40.2347 21.6647 40.2506 21.6806L40.3065 21.6247ZM40.2911 21.5446V17.0866H40.212V21.5446H40.2911ZM40.2911 17.0866C40.2911 17.0615 40.2932 17.0425 40.2967 17.0286C40.3002 17.0146 40.3044 17.0086 40.3065 17.0065L40.2506 16.9506C40.2347 16.9665 40.2255 16.9875 40.22 17.0095C40.2144 17.0317 40.212 17.0577 40.212 17.0866H40.2911ZM40.3033 17.0094C40.3153 16.9998 40.3403 16.991 40.3866 16.991V16.912C40.334 16.912 40.2869 16.9213 40.2539 16.9477L40.3033 17.0094ZM40.3866 16.991H40.5555V16.912H40.3866V16.991ZM40.5555 16.991C40.6033 16.991 40.6227 17.0003 40.6289 17.0065L40.6848 16.9506C40.6549 16.9207 40.6068 16.912 40.5555 16.912V16.991ZM40.6321 17.0094C40.6397 17.0154 40.6511 17.0348 40.6511 17.0866H40.7301C40.7301 17.0303 40.719 16.9777 40.6815 16.9477L40.6321 17.0094ZM40.6511 17.0866V21.5446H40.7301V17.0866H40.6511Z" fill="white"/>
<path d="M44.2876 12.8688C42.4484 11.0296 40.0041 10.0176 37.4017 10.0176C34.7993 10.0176 32.3549 11.0296 30.5157 12.8688C28.6766 14.7079 27.6646 17.1523 27.6646 19.7547C27.6646 22.3571 28.6766 24.8014 30.5157 26.6406C32.3549 28.4798 34.7993 29.4918 37.4017 29.4918C39.0593 29.4918 40.6496 29.0816 42.0651 28.3083C41.5709 27.9855 41.2044 27.4845 41.0598 26.8961C39.9637 27.461 38.7197 27.777 37.4017 27.777C32.9769 27.777 29.3793 24.1794 29.3793 19.7547C29.3793 15.33 32.9769 11.7323 37.4017 11.7323C41.8264 11.7323 45.424 15.33 45.424 19.7547C45.424 21.3484 44.9567 22.8345 44.1531 24.0819C44.7179 24.2837 45.1887 24.6905 45.4644 25.2184C46.5537 23.6213 47.1388 21.7317 47.1388 19.7547C47.1388 17.1557 46.1267 14.7079 44.2876 12.8688Z" fill="white"/>
<path d="M41.0599 26.8969C41.0128 26.712 40.9893 26.5204 40.9893 26.322C40.9893 25.0107 42.0517 23.9482 43.363 23.9482C43.6421 23.9482 43.9077 23.9953 44.1565 24.0827C43.3899 25.273 42.3207 26.248 41.0599 26.8969Z" fill="white"/>
<path d="M45.737 26.3216C45.737 27.6329 44.6745 28.6953 43.3633 28.6953C42.8858 28.6953 42.4386 28.5541 42.0654 28.3087C42.8724 27.8682 43.6188 27.3067 44.2879 26.641C44.7283 26.2005 45.1217 25.7231 45.4647 25.2188C45.6395 25.5483 45.737 25.9248 45.737 26.3216Z" fill="white"/>
<defs>
<radialGradient id="paint0_radial_987_1139" cx="0" cy="0" r="1" gradientUnits="userSpaceOnUse" gradientTransform="translate(37.374 20.374) rotate(90) scale(13.374)">
<stop stop-color="#00DFBA"/>
<stop offset="1" stop-color="#212244"/>
</radialGradient>
</defs>
</svg>
