<svg width="20" height="20" viewBox="0 0 20 20" fill="none" xmlns="http://www.w3.org/2000/svg">
<path d="M3.25 18.6667C2.91667 18.6667 2.625 18.5417 2.375 18.2917C2.125 18.0417 2 17.75 2 17.4167V3.25C2 2.91667 2.125 2.625 2.375 2.375C2.625 2.125 2.91667 2 3.25 2H17.4167C17.75 2 18.0417 2.125 18.2917 2.375C18.5417 2.625 18.6667 2.91667 18.6667 3.25V17.4167C18.6667 17.75 18.5417 18.0417 18.2917 18.2917C18.0417 18.5417 17.75 18.6667 17.4167 18.6667H3.25ZM3.25 13.5417V17.4167H7.14583V13.5417H3.25ZM8.39583 13.5417V17.4167H12.2708V13.5417H8.39583ZM13.5208 17.4167H17.4167V13.5417H13.5208V17.4167ZM3.25 12.2917H7.14583V8.39583H3.25V12.2917ZM8.39583 12.2917H12.2708V8.39583H8.39583V12.2917ZM13.5208 12.2917H17.4167V8.39583H13.5208V12.2917ZM7.14583 3.25H3.25V7.14583H7.14583V3.25ZM8.39583 7.14583H12.2708V3.25H8.39583V7.14583ZM13.5208 7.14583H17.4167V3.25H13.5208V7.14583Z" fill="#888C92"/>
</svg>
