<svg width="20" height="20" viewBox="0 0 20 20" fill="none" xmlns="http://www.w3.org/2000/svg">
<path d="M8.3125 13.875L13.875 10.3333L8.3125 6.79167V13.875ZM10.3333 18.6667C9.19444 18.6667 8.11806 18.4479 7.10417 18.0104C6.09028 17.5729 5.20486 16.9757 4.44792 16.2188C3.69097 15.4618 3.09375 14.5764 2.65625 13.5625C2.21875 12.5486 2 11.4722 2 10.3333C2 9.18056 2.21875 8.09722 2.65625 7.08333C3.09375 6.06944 3.69097 5.1875 4.44792 4.4375C5.20486 3.6875 6.09028 3.09375 7.10417 2.65625C8.11806 2.21875 9.19444 2 10.3333 2C11.4861 2 12.5694 2.21875 13.5833 2.65625C14.5972 3.09375 15.4792 3.6875 16.2292 4.4375C16.9792 5.1875 17.5729 6.06944 18.0104 7.08333C18.4479 8.09722 18.6667 9.18056 18.6667 10.3333C18.6667 11.4722 18.4479 12.5486 18.0104 13.5625C17.5729 14.5764 16.9792 15.4618 16.2292 16.2188C15.4792 16.9757 14.5972 17.5729 13.5833 18.0104C12.5694 18.4479 11.4861 18.6667 10.3333 18.6667ZM10.3333 17.4167C12.3056 17.4167 13.9792 16.7257 15.3542 15.3438C16.7292 13.9618 17.4167 12.2917 17.4167 10.3333C17.4167 8.36111 16.7292 6.6875 15.3542 5.3125C13.9792 3.9375 12.3056 3.25 10.3333 3.25C8.375 3.25 6.70486 3.9375 5.32292 5.3125C3.94097 6.6875 3.25 8.36111 3.25 10.3333C3.25 12.2917 3.94097 13.9618 5.32292 15.3438C6.70486 16.7257 8.375 17.4167 10.3333 17.4167Z" fill="#888C92"/>
</svg>
