<svg width="20" height="20" viewBox="0 0 20 20" fill="none" xmlns="http://www.w3.org/2000/svg">
<path d="M9.4 5.5H13.78C14.4521 5.5 14.7881 5.5 15.0448 5.63079C15.2706 5.74584 15.4542 5.92942 15.5692 6.15521C15.7 6.41191 15.7 6.74794 15.7 7.42V8.2C15.7 8.75913 15.7 9.0387 15.6087 9.25922C15.4869 9.55325 15.2533 9.78686 14.9592 9.90866C14.7387 10 14.4591 10 13.9 10M10.6 14.5H6.22C5.54794 14.5 5.21191 14.5 4.95521 14.3692C4.72942 14.2542 4.54584 14.0706 4.43079 13.8448C4.3 13.5881 4.3 13.2521 4.3 12.58V11.8C4.3 11.2409 4.3 10.9613 4.39134 10.7408C4.51314 10.4467 4.74675 10.2131 5.04078 10.0913C5.26131 10 5.54087 10 6.1 10M8.98 11.5H11.02C11.188 11.5 11.272 11.5 11.3362 11.4673C11.3926 11.4385 11.4385 11.3926 11.4673 11.3362C11.5 11.272 11.5 11.188 11.5 11.02V8.98C11.5 8.81198 11.5 8.72798 11.4673 8.6638C11.4385 8.60735 11.3926 8.56146 11.3362 8.5327C11.272 8.5 11.188 8.5 11.02 8.5H8.98C8.81198 8.5 8.72798 8.5 8.6638 8.5327C8.60735 8.56146 8.56146 8.60735 8.5327 8.6638C8.5 8.72798 8.5 8.81198 8.5 8.98V11.02C8.5 11.188 8.5 11.272 8.5327 11.3362C8.56146 11.3926 8.60735 11.4385 8.6638 11.4673C8.72798 11.5 8.81198 11.5 8.98 11.5ZM13.48 16H15.52C15.688 16 15.772 16 15.8362 15.9673C15.8926 15.9385 15.9385 15.8926 15.9673 15.8362C16 15.772 16 15.688 16 15.52V13.48C16 13.312 16 13.228 15.9673 13.1638C15.9385 13.1074 15.8926 13.0615 15.8362 13.0327C15.772 13 15.688 13 15.52 13H13.48C13.312 13 13.228 13 13.1638 13.0327C13.1074 13.0615 13.0615 13.1074 13.0327 13.1638C13 13.228 13 13.312 13 13.48V15.52C13 15.688 13 15.772 13.0327 15.8362C13.0615 15.8926 13.1074 15.9385 13.1638 15.9673C13.228 16 13.312 16 13.48 16ZM4.48 7H6.52C6.68802 7 6.77202 7 6.8362 6.9673C6.89265 6.93854 6.93854 6.89265 6.9673 6.8362C7 6.77202 7 6.68802 7 6.52V4.48C7 4.31198 7 4.22798 6.9673 4.1638C6.93854 4.10735 6.89265 4.06146 6.8362 4.0327C6.77202 4 6.68802 4 6.52 4H4.48C4.31198 4 4.22798 4 4.1638 4.0327C4.10735 4.06146 4.06146 4.10735 4.0327 4.1638C4 4.22798 4 4.31198 4 4.48V6.52C4 6.68802 4 6.77202 4.0327 6.8362C4.06146 6.89265 4.10735 6.93854 4.1638 6.9673C4.22798 7 4.31198 7 4.48 7Z" stroke="#888C92" stroke-linecap="round" stroke-linejoin="round"/>
</svg>
