<svg width="14" height="14" viewBox="0 0 14 14" fill="none" xmlns="http://www.w3.org/2000/svg">
<path fill-rule="evenodd" clip-rule="evenodd" d="M7.0001 0.599609C3.4713 0.599609 0.600098 3.47081 0.600098 6.99961C0.600098 10.5284 3.4713 13.3996 7.0001 13.3996C10.5289 13.3996 13.4001 10.5284 13.4001 6.99961C13.4001 3.47081 10.5289 0.599609 7.0001 0.599609ZM7.0001 11.7996C4.3529 11.7996 2.2001 9.64681 2.2001 6.99961C2.2001 4.35241 4.3529 2.19961 7.0001 2.19961C9.6473 2.19961 11.8001 4.35241 11.8001 6.99961C11.8001 9.64681 9.6473 11.7996 7.0001 11.7996ZM9.4001 6.19961H7.8001V4.59961C7.8001 4.15801 7.4425 3.79961 7.0001 3.79961C6.5577 3.79961 6.2001 4.15801 6.2001 4.59961V6.19961H4.6001C4.1577 6.19961 3.8001 6.55801 3.8001 6.99961C3.8001 7.44121 4.1577 7.79961 4.6001 7.79961H6.2001V9.39961C6.2001 9.84121 6.5577 10.1996 7.0001 10.1996C7.4425 10.1996 7.8001 9.84121 7.8001 9.39961V7.79961H9.4001C9.8425 7.79961 10.2001 7.44121 10.2001 6.99961C10.2001 6.55801 9.8425 6.19961 9.4001 6.19961Z" fill="#00977C"/>
</svg>
