<svg width="17" height="19" viewBox="0 0 17 19" fill="none" xmlns="http://www.w3.org/2000/svg">
<path d="M11.6667 18.3333L8.5 15.1667L9.375 14.2917L11.0417 15.9583V13.0625H5.625C5.26389 13.0625 4.96528 12.9444 4.72917 12.7083C4.49305 12.4722 4.375 12.1736 4.375 11.8125V6.52083H0V5.27083H4.375V2.375L2.70833 4.04167L1.83333 3.16667L5 0L8.16667 3.16667L7.29167 4.04167L5.625 2.375V11.8125H16.6667V13.0625H12.2917V15.9583L13.9583 14.2917L14.8333 15.1667L11.6667 18.3333ZM11.0417 10.5625V6.52083H6.875V5.27083H11.0417C11.4028 5.27083 11.7014 5.38889 11.9375 5.625C12.1736 5.86111 12.2917 6.15972 12.2917 6.52083V10.5625H11.0417Z" fill="#888C92"/>
</svg>
