<svg width="20" height="20" viewBox="0 0 20 20" fill="none" xmlns="http://www.w3.org/2000/svg">
<path d="M11.8544 15.6479C12.0165 15.8691 12.2217 16.0552 12.4577 16.1949C12.5043 16.2216 12.558 16.2333 12.6115 16.2282H14.9436C14.9641 16.2283 14.984 16.2219 15.0006 16.2099C15.0171 16.1979 15.0295 16.1809 15.0357 16.1615C15.0481 16.1221 14.4077 15.4891 14.5592 13.9969C14.5709 13.9354 14.5612 13.8719 14.5319 13.8167C14.4418 13.6588 14.1805 13.1807 14.1805 13.1807C14.1639 13.1504 14.1395 13.1251 14.1098 13.1075C14.0801 13.0899 14.0462 13.0806 14.0117 13.0805H13.6329V12.1252C13.6329 11.9297 13.5408 11.6914 13.0533 11.6914C12.5551 11.6914 12.4727 11.9093 12.4727 12.1252V13.0816H11.8997C11.8485 13.0816 11.7994 13.1019 11.7631 13.1381C11.7269 13.1744 11.7065 13.2235 11.7065 13.2748V14.0759L12.0859 14.6679C12.1507 14.7452 12.188 14.8418 12.1921 14.9425C12.165 15.1496 12.1852 15.3601 12.2511 15.5582C12.2748 15.6606 12.1937 15.6833 12.127 15.5869C12.0572 15.4883 12.0023 15.3799 11.9642 15.2652C11.9405 15.1146 11.9443 14.961 11.9752 14.8117C11.986 14.7705 11.9884 14.7276 11.9821 14.6855C11.9758 14.6434 11.9609 14.603 11.9385 14.5668C11.8814 14.4757 11.7069 14.2054 11.7069 14.2054C11.7069 14.2054 11.4586 15.0136 11.5757 15.2749C11.658 15.4068 11.7512 15.5316 11.8544 15.6479ZM14.2429 15.0436C14.2553 15.1827 14.2777 15.3208 14.3096 15.4567C14.3873 15.609 14.4757 15.7557 14.5739 15.8955C14.5823 15.9103 14.5866 15.9271 14.5862 15.9441C14.5859 15.9611 14.5809 15.9777 14.5719 15.9921C14.5629 16.0065 14.5501 16.0182 14.5349 16.026C14.5198 16.0337 14.5028 16.0372 14.4858 16.036C14.3947 16.0295 14.3096 15.9879 14.2486 15.9199C14.0843 15.7054 13.991 15.4451 13.9816 15.1751C13.9806 15.163 13.9751 15.1517 13.9662 15.1435C13.9572 15.1353 13.9455 15.1307 13.9334 15.1307C13.9213 15.1307 13.9096 15.1353 13.9006 15.1435C13.8917 15.1517 13.8862 15.163 13.8852 15.1751C13.8971 15.4387 13.981 15.694 14.1278 15.9132C14.1755 15.98 14.1481 16.036 14.0667 16.036C14.0216 16.0334 13.9776 16.0206 13.938 15.9986C13.8985 15.9766 13.8645 15.9459 13.8385 15.9089C13.7326 15.7188 13.6697 15.5079 13.6543 15.2909C13.6523 15.2789 13.6458 15.2682 13.6363 15.2607C13.6267 15.2533 13.6146 15.2497 13.6025 15.2507C13.5904 15.2517 13.5792 15.2572 13.571 15.2661C13.5627 15.2751 13.5582 15.2868 13.5582 15.2989C13.5765 15.5097 13.6346 15.7151 13.7294 15.9042C13.7691 15.9766 13.7424 16.0377 13.67 16.0377C13.6282 16.0337 13.588 16.0195 13.553 15.9962C13.5181 15.9729 13.4895 15.9413 13.4698 15.9042C13.4122 15.7681 13.375 15.6243 13.3593 15.4774C13.3572 15.465 13.3503 15.4538 13.3401 15.4464C13.3299 15.4389 13.3172 15.4358 13.3047 15.4375C13.2922 15.4393 13.2809 15.4459 13.2732 15.4559C13.2655 15.4659 13.2621 15.4786 13.2635 15.4911C13.2809 15.6313 13.3155 15.7689 13.3666 15.9005C13.3757 15.9152 13.3803 15.9321 13.3801 15.9493C13.3799 15.9665 13.3748 15.9833 13.3653 15.9977C13.3559 16.0122 13.3426 16.0236 13.327 16.0307C13.3113 16.0379 13.2939 16.0404 13.2769 16.038H12.9345C12.8818 16.0351 12.8308 16.0186 12.7864 15.99C12.742 15.9615 12.7058 15.9219 12.6812 15.8752C12.6124 15.7302 12.5576 15.5789 12.5177 15.4234C12.491 15.3289 12.3642 14.8955 12.6145 14.8955H14.0844C14.1245 14.8959 14.1631 14.9114 14.1924 14.9388C14.2217 14.9662 14.2397 15.0036 14.2429 15.0436ZM13.0566 11.7912C13.2902 11.7912 13.4798 11.8706 13.4798 11.9687C13.4798 12.0668 13.2902 12.1462 13.0566 12.1462C12.8231 12.1462 12.6335 12.0668 12.6335 11.9687C12.6335 11.8706 12.8227 11.7912 13.0566 11.7912ZM12.3149 13.8407L12.1273 13.5487C12.1116 13.5244 12.1227 13.5043 12.1517 13.5043H12.452C12.4679 13.5052 12.4833 13.5098 12.4971 13.5177C12.5108 13.5255 12.5226 13.5365 12.5314 13.5497C12.5314 13.5497 12.6502 13.7499 13.0523 13.7499C13.1489 13.7618 13.2469 13.7496 13.3376 13.7143C13.4283 13.6791 13.5089 13.622 13.5722 13.548C13.5813 13.535 13.5933 13.5242 13.6072 13.5164C13.6212 13.5087 13.6367 13.5042 13.6526 13.5033H13.8652C13.8809 13.5043 13.8962 13.509 13.9097 13.517C13.9233 13.525 13.9348 13.5361 13.9433 13.5494L14.1028 13.8387C14.1065 13.8432 14.1088 13.8487 14.1093 13.8545C14.1097 13.8604 14.1084 13.8662 14.1054 13.8712C14.1025 13.8763 14.098 13.8803 14.0927 13.8827C14.0874 13.8851 14.0815 13.8858 14.0757 13.8847H12.3943C12.3786 13.8836 12.3634 13.879 12.3497 13.8713C12.336 13.8636 12.3241 13.8531 12.3149 13.8404V13.8407ZM10.7322 15.3379C10.7289 15.4916 10.6648 15.6376 10.554 15.744C10.4431 15.8504 10.2945 15.9083 10.1409 15.9052C10.0484 15.9055 9.95715 15.8847 9.87393 15.8445C9.81982 15.8756 9.75849 15.8919 9.69608 15.8919C9.60491 15.8935 9.51683 15.8589 9.45115 15.7956C9.38546 15.7324 9.34754 15.6457 9.3457 15.5545C9.34643 15.4876 9.36702 15.4224 9.40487 15.3672C9.44271 15.312 9.4961 15.2693 9.55826 15.2445C9.58399 15.1033 9.66294 14.9772 9.77883 14.8925C9.78433 14.7751 9.8348 14.6644 9.91978 14.5834C10.0048 14.5023 10.1177 14.457 10.2351 14.457C10.3526 14.457 10.4655 14.5023 10.5505 14.5834C10.6355 14.6644 10.686 14.7751 10.6915 14.8925C10.6913 14.9514 10.6787 15.0096 10.6544 15.0633C10.7045 15.1461 10.7313 15.2409 10.7322 15.3376V15.3379ZM17.0038 15.7477C17.0136 15.8088 17.0044 15.8714 16.9775 15.927C16.9506 15.9827 16.9072 16.0288 16.8533 16.059C16.7994 16.0893 16.7375 16.1023 16.676 16.0963C16.6144 16.0903 16.5562 16.0656 16.5092 16.0255C16.4621 15.9854 16.4285 15.9318 16.4128 15.872C16.3972 15.8122 16.4002 15.749 16.4216 15.691C16.443 15.633 16.4816 15.5829 16.5323 15.5475C16.583 15.5121 16.6434 15.4931 16.7052 15.4931C16.7784 15.4878 16.8508 15.5116 16.9067 15.5592C16.9626 15.6069 16.9975 15.6746 17.0038 15.7477ZM16.4753 15.2936C16.4207 15.2937 16.3678 15.2749 16.3255 15.2405C16.2614 15.2752 16.1897 15.2934 16.1169 15.2936C16.0274 15.2932 15.94 15.2659 15.8662 15.2153C15.7923 15.1646 15.7354 15.093 15.7028 15.0096C15.64 15.0154 15.5768 15.0048 15.5194 14.9787C15.462 14.9526 15.4124 14.9119 15.3755 14.8608C15.3387 14.8096 15.3158 14.7497 15.3092 14.687C15.3026 14.6243 15.3125 14.561 15.3379 14.5033C15.3633 14.4456 15.4033 14.3955 15.454 14.358C15.5047 14.3205 15.5643 14.2969 15.6269 14.2895C15.6896 14.2822 15.753 14.2913 15.811 14.316C15.8691 14.3407 15.9196 14.3801 15.9577 14.4303C16.0243 14.4049 16.096 14.3957 16.1669 14.4037C16.2377 14.4116 16.3056 14.4365 16.3649 14.4761C16.4242 14.5157 16.4731 14.5689 16.5076 14.6313C16.5421 14.6937 16.5611 14.7635 16.563 14.8347C16.6143 14.8553 16.6569 14.893 16.6834 14.9414C16.7099 14.9899 16.7187 15.0461 16.7084 15.1003C16.698 15.1546 16.669 15.2036 16.6265 15.2388C16.584 15.2741 16.5305 15.2934 16.4753 15.2936ZM15.8646 16.1181V16.1515C15.8006 16.4925 14.7922 16.959 13.2362 16.959C11.6802 16.959 10.6704 16.4918 10.6074 16.1511V16.1178C10.6074 15.8215 10.9334 15.5548 11.4536 15.3686C11.4536 15.377 11.4536 15.3857 11.4559 15.3937L11.7663 15.8091C11.9219 16.0224 12.1232 16.1981 12.3556 16.3233C12.4482 16.3706 12.5524 16.3903 12.6559 16.3801H15.2043C15.2513 16.3801 15.3454 16.3737 15.3594 16.329C15.3605 16.3172 15.3591 16.3053 15.3551 16.2941C15.3511 16.2829 15.3447 16.2727 15.3364 16.2643C15.208 16.136 15.0966 15.9918 15.005 15.8351C14.8716 15.5762 14.7611 15.2872 14.7611 15.2872C15.4308 15.4724 15.8646 15.7754 15.8646 16.1181Z" fill="#FBFBFE"/>
<path d="M13.6667 19.3333L10.5 16.1667L11.375 15.2917L13.0417 16.9583V14.0625H7.625C7.26389 14.0625 6.96528 13.9444 6.72917 13.7083C6.49305 13.4722 6.375 13.1736 6.375 12.8125V7.52083H2V6.27083H6.375V3.375L4.70833 5.04167L3.83333 4.16667L7 1L10.1667 4.16667L9.29167 5.04167L7.625 3.375V12.8125H18.6667V14.0625H14.2917V16.9583L15.9583 15.2917L16.8333 16.1667L13.6667 19.3333ZM13.0417 11.5625V7.52083H8.875V6.27083H13.0417C13.4028 6.27083 13.7014 6.38889 13.9375 6.625C14.1736 6.86111 14.2917 7.15972 14.2917 7.52083V11.5625H13.0417Z" fill="#00977C"/>
</svg>
