<svg width="20" height="20" viewBox="0 0 20 20" fill="none" xmlns="http://www.w3.org/2000/svg">
<path fill-rule="evenodd" clip-rule="evenodd" d="M10 13C8.34305 13 7.00005 11.657 7.00005 10C7.00005 8.343 8.34305 7 10 7C11.657 7 13 8.343 13 10C13 11.657 11.657 13 10 13ZM17.476 11.754C16.082 11 16.082 9 17.476 8.246C17.718 8.115 17.895 7.89 17.966 7.625C18.037 7.359 17.996 7.076 17.852 6.842L16.785 5.109C16.507 4.658 15.925 4.502 15.458 4.754L15.011 4.997C13.682 5.716 12.066 4.753 12.066 3.242V3C12.066 2.448 11.619 2 11.066 2H8.93405C8.38105 2 7.93405 2.448 7.93405 3V3.242C7.93405 4.753 6.31805 5.716 4.98905 4.997L4.54205 4.754C4.07505 4.502 3.49305 4.658 3.21505 5.109L2.14805 6.842C2.00405 7.076 1.96305 7.359 2.03405 7.625C2.10505 7.89 2.28205 8.115 2.52405 8.246C3.91805 9 3.91805 11 2.52405 11.754C2.28205 11.885 2.10505 12.11 2.03405 12.375C1.96305 12.641 2.00405 12.924 2.14805 13.158L3.21505 14.891C3.49305 15.342 4.07505 15.498 4.54205 15.246L4.98905 15.003C6.31805 14.284 7.93405 15.247 7.93405 16.758V17C7.93405 17.552 8.38105 18 8.93405 18H11.066C11.619 18 12.066 17.552 12.066 17V16.758C12.066 15.247 13.682 14.284 15.011 15.003L15.458 15.246C15.925 15.498 16.507 15.342 16.785 14.891L17.852 13.158C17.996 12.924 18.037 12.641 17.966 12.375C17.895 12.11 17.718 11.885 17.476 11.754Z" fill="#00977C"/>
</svg>
