<svg width="240" height="240" viewBox="0 0 240 240" fill="none" xmlns="http://www.w3.org/2000/svg">
<path d="M198.584 131.684C198.584 143.354 196.035 154.441 191.458 164.402C179.055 191.471 151.72 210.268 120 210.268C88.2797 210.268 60.9452 191.471 48.5417 164.402C43.9647 154.441 41.416 143.354 41.416 131.684C41.416 88.2819 76.5983 53.0996 120 53.0996C163.402 53.0996 198.584 88.2819 198.584 131.684Z" fill="#F0F1F2"/>
<mask id="mask0_940_1031" style="mask-type:alpha" maskUnits="userSpaceOnUse" x="41" y="28" width="158" height="183">
<path d="M198.584 71.6817C198.584 83.3525 196.035 154.439 191.458 164.4C179.055 191.469 151.72 210.266 120 210.266C88.2797 210.266 60.9452 191.469 48.5417 164.4C43.9647 154.439 41.416 83.3525 41.416 71.6817C41.416 28.2799 76.5983 28.673 120 28.673C163.402 28.673 198.584 28.2799 198.584 71.6817Z" fill="#F0F1F2"/>
</mask>
<g mask="url(#mask0_940_1031)">
<g filter="url(#filter0_d_940_1031)">
<path d="M60.416 49.5116C60.416 48.5591 61.187 47.7881 62.1396 47.7881H177.631C178.583 47.7881 179.354 48.5591 179.354 49.5116V209.019C179.354 209.972 178.583 210.743 177.631 210.743H62.1396C61.187 210.743 60.416 209.972 60.416 209.019V49.5116Z" fill="#00CCA7"/>
<path d="M179.354 108.611H60.416V140.932H179.354V108.611Z" fill="#E2E8F2"/>
<path d="M60.416 140.932H179.354V209.019C179.354 209.972 178.583 210.743 177.631 210.743H62.1396C61.187 210.743 60.416 209.972 60.416 209.019V140.932Z" fill="white"/>
<path d="M123.071 152.921H74.2215C73.0481 152.921 72.0977 153.871 72.0977 155.045C72.0977 156.218 73.0481 157.169 74.2215 157.169H123.071C124.245 157.169 125.195 156.218 125.195 155.045C125.195 153.871 124.243 152.921 123.071 152.921Z" fill="#D2D5D9"/>
<path d="M109.266 168.85H77.4074C74.4754 168.85 72.0977 171.227 72.0977 174.159C72.0977 177.091 74.4754 179.469 77.4074 179.469H109.266C112.198 179.469 114.576 177.091 114.576 174.159C114.576 171.227 112.198 168.85 109.266 168.85Z" fill="#00977C"/>
</g>
</g>
<defs>
<filter id="filter0_d_940_1031" x="50.416" y="39.7881" width="138.938" height="182.955" filterUnits="userSpaceOnUse" color-interpolation-filters="sRGB">
<feFlood flood-opacity="0" result="BackgroundImageFix"/>
<feColorMatrix in="SourceAlpha" type="matrix" values="0 0 0 0 0 0 0 0 0 0 0 0 0 0 0 0 0 0 127 0" result="hardAlpha"/>
<feOffset dy="2"/>
<feGaussianBlur stdDeviation="5"/>
<feColorMatrix type="matrix" values="0 0 0 0 0 0 0 0 0 0 0 0 0 0 0 0 0 0 0.3 0"/>
<feBlend mode="normal" in2="BackgroundImageFix" result="effect1_dropShadow_940_1031"/>
<feBlend mode="normal" in="SourceGraphic" in2="effect1_dropShadow_940_1031" result="shape"/>
</filter>
</defs>
</svg>
