<svg width="16" height="16" viewBox="0 0 16 16" fill="none" xmlns="http://www.w3.org/2000/svg">
<path fill-rule="evenodd" clip-rule="evenodd" d="M8 0C3.589 0 0 3.589 0 8C0 12.411 3.589 16 8 16C12.411 16 16 12.411 16 8C16 3.589 12.411 0 8 0ZM8 14C4.691 14 2 11.309 2 8C2 4.691 4.691 2 8 2C11.309 2 14 4.691 14 8C14 11.309 11.309 14 8 14ZM11 7H9V5C9 4.448 8.553 4 8 4C7.447 4 7 4.448 7 5V7H5C4.447 7 4 7.448 4 8C4 8.552 4.447 9 5 9H7V11C7 11.552 7.447 12 8 12C8.553 12 9 11.552 9 11V9H11C11.553 9 12 8.552 12 8C12 7.448 11.553 7 11 7Z" fill="white"/>
</svg>
