<svg width="48" height="48" viewBox="0 0 48 48" fill="none" xmlns="http://www.w3.org/2000/svg">
<path d="M25.3333 40H5.33329C4.62605 40 3.94777 39.719 3.44767 39.219C2.94758 38.7189 2.66663 38.0406 2.66663 37.3333V10.6667C2.66663 9.95942 2.94758 9.28115 3.44767 8.78105C3.94777 8.28095 4.62605 8 5.33329 8H42.6666C43.3739 8 44.0521 8.28095 44.5522 8.78105C45.0523 9.28115 45.3333 9.95942 45.3333 10.6667V24.4933C43.557 22.231 40.9732 20.7449 38.1244 20.3473C35.2757 19.9496 32.3836 20.6713 30.0557 22.3607C27.7278 24.0501 26.145 26.5759 25.6399 29.4076C25.1347 32.2392 25.7465 35.1565 27.3466 37.5467L26.1066 39.0667L25.3333 40ZM9.33329 16V18.1333H32V16H9.33329ZM9.33329 23.4667H24V21.3333H9.33329V23.4667ZM9.33329 32.8H22.6666V30.6667H9.33329V32.8Z" fill="#212244"/>
<path d="M45.1064 31.4537C45.11 30.0478 44.7645 28.663 44.101 27.4236C43.4375 26.1842 42.4766 25.1288 41.3047 24.3522C40.1328 23.5756 38.7865 23.1021 37.3864 22.9741C35.9864 22.8461 34.5765 23.0676 33.2832 23.6188C31.9898 24.17 30.8536 25.0336 29.9763 26.1322C29.099 27.2307 28.5081 28.5299 28.2567 29.9131C28.0053 31.2963 28.1011 32.7203 28.5356 34.0573C28.9702 35.3943 29.7298 36.6026 30.7464 37.5737L28.1597 40.7337L29.3597 45.547L34.2397 39.6003C35.7844 40.0571 37.4283 40.0571 38.9731 39.6003L43.8531 45.547L45.0531 40.7337L42.4664 37.5737C43.2982 36.7857 43.9612 35.8369 44.415 34.7849C44.8689 33.7328 45.1041 32.5995 45.1064 31.4537ZM30.7864 31.4537C30.7705 30.298 31.0987 29.1637 31.7292 28.1951C32.3598 27.2264 33.2641 26.4671 34.3273 26.0138C35.3905 25.5605 36.5645 25.4337 37.6999 25.6494C38.8354 25.8651 39.8811 26.4136 40.704 27.2252C41.5269 28.0368 42.0898 29.0748 42.3212 30.2072C42.5526 31.3396 42.442 32.5152 42.0034 33.5846C41.5649 34.6539 40.8182 35.5687 39.8583 36.2125C38.8985 36.8564 37.7688 37.2002 36.6131 37.2003C35.0817 37.2039 33.611 36.6017 32.522 35.5252C31.4329 34.4486 30.8138 32.985 30.7997 31.4537H30.7864Z" fill="#212244"/>
</svg>
