<svg width="28" height="28" viewBox="0 0 28 28" fill="none" xmlns="http://www.w3.org/2000/svg">
<circle cx="14" cy="14" r="14" fill="#212244"/>
<path d="M8.73719 10.3982C9.64349 10.3982 10.3782 9.66351 10.3782 8.75721C10.3782 7.85091 9.64349 7.11621 8.73719 7.11621C7.83089 7.11621 7.09619 7.85091 7.09619 8.75721C7.09619 9.66351 7.83089 10.3982 8.73719 10.3982Z" fill="white"/>
<path d="M11.9278 11.641V20.7453H14.7545V16.243C14.7545 15.055 14.978 13.9045 16.451 13.9045C17.9038 13.9045 17.9218 15.2628 17.9218 16.318V20.746H20.75V15.7533C20.75 13.3008 20.222 11.416 17.3555 11.416C15.9793 11.416 15.0568 12.1713 14.6795 12.886H14.6413V11.641H11.9278ZM7.32129 11.641H10.1525V20.7453H7.32129V11.641Z" fill="white"/>
</svg>
