<svg width="156" height="27" viewBox="0 0 156 27" fill="none" xmlns="http://www.w3.org/2000/svg">
<path d="M30.0625 13.2584C30.0625 12.3515 30.2756 11.5218 30.7018 10.7691C31.1371 10.0163 31.7221 9.42688 32.4566 9.00065C33.2003 8.56535 34.0119 8.3477 34.8916 8.3477C35.7985 8.3477 36.6192 8.56081 37.3537 8.98704C38.0883 9.41327 38.6642 9.99821 39.0813 10.7418C39.5076 11.4855 39.7207 12.3198 39.7207 13.2448C39.7207 14.0429 39.5529 14.782 39.2174 15.4621C38.8818 16.1423 38.4148 16.7091 37.8163 17.1625C37.2177 17.6159 36.5421 17.9107 35.7894 18.0467L36.9593 19.8423C36.9865 19.8877 37.0091 19.9285 37.0273 19.9648C37.0454 20.001 37.0545 20.0328 37.0545 20.06C37.0545 20.1507 36.9547 20.196 36.7552 20.196H36.3879C36.261 20.196 36.1612 20.1733 36.0887 20.128C36.0252 20.0917 35.9481 20.0056 35.8574 19.8695L34.7419 18.1419C33.8532 18.1238 33.0506 17.8971 32.3342 17.4618C31.6268 17.0265 31.0691 16.4415 30.661 15.707C30.262 14.9724 30.0625 14.1562 30.0625 13.2584ZM30.9875 13.2584C30.9875 14.0111 31.1553 14.6958 31.4908 15.3125C31.8354 15.9201 32.3025 16.4007 32.8919 16.7544C33.4905 17.099 34.1525 17.2713 34.878 17.2713C35.5853 17.2713 36.2383 17.0945 36.8368 16.7408C37.4354 16.3871 37.9115 15.9065 38.2652 15.2989C38.6188 14.6822 38.7957 14.0021 38.7957 13.2584C38.7957 12.4876 38.6188 11.7938 38.2652 11.1771C37.9205 10.5605 37.449 10.0798 36.8504 9.73521C36.2519 9.3906 35.5944 9.2183 34.878 9.2183C34.1706 9.2183 33.5177 9.39514 32.9191 9.74882C32.3297 10.0934 31.8581 10.5741 31.5044 11.1907C31.1598 11.7984 30.9875 12.4876 30.9875 13.2584ZM50.8558 13.9794C50.8558 14.8863 50.6926 15.6526 50.3661 16.2783C50.0396 16.9041 49.5907 17.3711 49.0194 17.6794C48.448 17.9878 47.7951 18.1419 47.0605 18.1419C46.3441 18.1419 45.7093 17.9923 45.1561 17.693C44.612 17.3938 44.1812 16.9403 43.8638 16.3327C43.5464 15.716 43.3877 14.9497 43.3877 14.0338V8.75579C43.3877 8.64697 43.4058 8.57442 43.4421 8.53814C43.4874 8.50187 43.56 8.48373 43.6597 8.48373H43.9998C44.0996 8.48373 44.1676 8.50187 44.2039 8.53814C44.2492 8.57442 44.2719 8.64697 44.2719 8.75579V13.993C44.2719 14.6731 44.3807 15.2581 44.5984 15.7478C44.816 16.2375 45.1379 16.6139 45.5642 16.8768C45.9904 17.1398 46.5028 17.2713 47.1013 17.2713C47.6999 17.2713 48.2122 17.1398 48.6385 16.8768C49.0738 16.6139 49.4048 16.242 49.6315 15.7614C49.8582 15.2717 49.9716 14.6913 49.9716 14.0202V8.75579C49.9716 8.64697 49.9897 8.57442 50.026 8.53814C50.0713 8.50187 50.1439 8.48373 50.2436 8.48373H50.5837C50.6835 8.48373 50.7515 8.50187 50.7878 8.53814C50.8331 8.57442 50.8558 8.64697 50.8558 8.75579V13.9794ZM54.5964 17.6114C54.5239 17.7747 54.4559 17.8835 54.3924 17.9379C54.3289 17.9832 54.2291 18.0059 54.0931 18.0059H53.8483C53.7576 18.0059 53.6896 17.9923 53.6442 17.9651C53.5989 17.9379 53.5762 17.8925 53.5762 17.8291C53.5762 17.7928 53.5989 17.7202 53.6442 17.6114L57.6299 8.98704C57.7025 8.82381 57.766 8.68778 57.8204 8.57895C57.8838 8.47013 57.9337 8.40211 57.97 8.3749C58.0063 8.33863 58.0516 8.32049 58.106 8.32049C58.1514 8.32049 58.1922 8.33863 58.2285 8.3749C58.2647 8.40211 58.3101 8.47013 58.3645 8.57895C58.428 8.68778 58.496 8.82381 58.5685 8.98704L62.5815 17.6114C62.6268 17.7202 62.6495 17.7928 62.6495 17.8291C62.6495 17.8925 62.6268 17.9379 62.5815 17.9651C62.5361 17.9923 62.4681 18.0059 62.3774 18.0059H62.0917C61.9557 18.0059 61.856 17.9832 61.7925 17.9379C61.729 17.8835 61.661 17.7747 61.5884 17.6114L58.0924 9.96647L54.5964 17.6114ZM72.2804 8.75579C72.2804 8.64697 72.2985 8.57442 72.3348 8.53814C72.3801 8.50187 72.4527 8.48373 72.5524 8.48373H72.8925C72.9923 8.48373 73.0603 8.50187 73.0965 8.53814C73.1419 8.57442 73.1646 8.64697 73.1646 8.75579V17.7338C73.1646 17.8789 73.1419 17.9832 73.0965 18.0467C73.0512 18.1102 72.9877 18.1419 72.9061 18.1419C72.8336 18.1419 72.761 18.1147 72.6885 18.0603C72.625 18.0059 72.5298 17.8971 72.4028 17.7338L66.5807 10.3201V17.7338C66.5807 17.8427 66.558 17.9152 66.5126 17.9515C66.4764 17.9878 66.4084 18.0059 66.3086 18.0059H65.9685C65.8688 18.0059 65.7962 17.9878 65.7509 17.9515C65.7146 17.9152 65.6965 17.8427 65.6965 17.7338V8.75579C65.6965 8.61069 65.7191 8.5064 65.7645 8.44292C65.8098 8.37944 65.8733 8.3477 65.9549 8.3477C66.0275 8.3477 66.0955 8.3749 66.159 8.42932C66.2315 8.48373 66.3313 8.59255 66.4582 8.75579L72.2804 16.1695V8.75579ZM83.6431 9.08227C83.6431 9.19109 83.6204 9.26364 83.5751 9.29992C83.5388 9.33619 83.4708 9.35433 83.371 9.35433H80.6096C80.5189 9.35433 80.4736 9.39967 80.4736 9.49036V17.7338C80.4736 17.8427 80.4509 17.9152 80.4056 17.9515C80.3693 17.9878 80.3013 18.0059 80.2015 18.0059H79.8614C79.7617 18.0059 79.6891 17.9878 79.6438 17.9515C79.6075 17.9152 79.5894 17.8427 79.5894 17.7338V9.49036C79.5894 9.39967 79.544 9.35433 79.4533 9.35433H76.6919C76.5922 9.35433 76.5196 9.33619 76.4743 9.29992C76.438 9.26364 76.4199 9.19109 76.4199 9.08227V8.75579C76.4199 8.64697 76.438 8.57442 76.4743 8.53814C76.5196 8.50187 76.5922 8.48373 76.6919 8.48373H83.371C83.4708 8.48373 83.5388 8.50187 83.5751 8.53814C83.6204 8.57442 83.6431 8.64697 83.6431 8.75579V9.08227ZM94.3018 13.9794C94.3018 14.8863 94.1385 15.6526 93.8121 16.2783C93.4856 16.9041 93.0367 17.3711 92.4654 17.6794C91.894 17.9878 91.2411 18.1419 90.5065 18.1419C89.7901 18.1419 89.1553 17.9923 88.6021 17.693C88.0579 17.3938 87.6272 16.9403 87.3098 16.3327C86.9924 15.716 86.8337 14.9497 86.8337 14.0338V8.75579C86.8337 8.64697 86.8518 8.57442 86.8881 8.53814C86.9334 8.50187 87.006 8.48373 87.1057 8.48373H87.4458C87.5456 8.48373 87.6136 8.50187 87.6499 8.53814C87.6952 8.57442 87.7179 8.64697 87.7179 8.75579V13.993C87.7179 14.6731 87.8267 15.2581 88.0443 15.7478C88.262 16.2375 88.5839 16.6139 89.0102 16.8768C89.4364 17.1398 89.9488 17.2713 90.5473 17.2713C91.1459 17.2713 91.6582 17.1398 92.0845 16.8768C92.5198 16.6139 92.8508 16.242 93.0775 15.7614C93.3042 15.2717 93.4176 14.6913 93.4176 14.0202V8.75579C93.4176 8.64697 93.4357 8.57442 93.472 8.53814C93.5173 8.50187 93.5899 8.48373 93.6896 8.48373H94.0297C94.1295 8.48373 94.1975 8.50187 94.2338 8.53814C94.2791 8.57442 94.3018 8.64697 94.3018 8.75579V13.9794ZM99.4508 17.7338C99.4508 17.8427 99.4281 17.9152 99.3828 17.9515C99.3465 17.9878 99.2785 18.0059 99.1787 18.0059H98.8386C98.7389 18.0059 98.6663 17.9878 98.621 17.9515C98.5847 17.9152 98.5666 17.8427 98.5666 17.7338V8.75579C98.5666 8.61976 98.5847 8.52 98.621 8.45652C98.6573 8.38397 98.7207 8.3477 98.8114 8.3477C98.884 8.3477 98.952 8.3749 99.0155 8.42932C99.0789 8.48373 99.1742 8.58802 99.3011 8.74219L103.028 13.4353L106.701 8.74219C106.828 8.58802 106.923 8.48373 106.987 8.42932C107.05 8.3749 107.118 8.3477 107.191 8.3477C107.282 8.3477 107.345 8.38397 107.381 8.45652C107.418 8.52 107.436 8.61976 107.436 8.75579V17.7338C107.436 17.8427 107.413 17.9152 107.368 17.9515C107.332 17.9878 107.263 18.0059 107.164 18.0059H106.824C106.724 18.0059 106.651 17.9878 106.606 17.9515C106.57 17.9152 106.552 17.8427 106.552 17.7338V10.3474L103.464 14.2242C103.346 14.3784 103.255 14.4827 103.192 14.5371C103.137 14.5825 103.074 14.6051 103.001 14.6051C102.929 14.6051 102.861 14.5825 102.797 14.5371C102.743 14.4827 102.657 14.3784 102.539 14.2242L99.4508 10.3474V17.7338ZM112.644 17.7338C112.644 17.8427 112.621 17.9152 112.576 17.9515C112.539 17.9878 112.471 18.0059 112.372 18.0059H112.032C111.932 18.0059 111.859 17.9878 111.814 17.9515C111.778 17.9152 111.759 17.8427 111.759 17.7338V8.75579C111.759 8.64697 111.778 8.57442 111.814 8.53814C111.859 8.50187 111.932 8.48373 112.032 8.48373H112.372C112.471 8.48373 112.539 8.50187 112.576 8.53814C112.621 8.57442 112.644 8.64697 112.644 8.75579V17.7338ZM121.145 17.2713C121.716 17.2713 122.246 17.1806 122.736 16.9993C123.235 16.8088 123.688 16.5413 124.097 16.1967C124.187 16.1241 124.26 16.0879 124.314 16.0879C124.378 16.0879 124.437 16.1287 124.491 16.2103L124.695 16.4824C124.74 16.5549 124.763 16.6093 124.763 16.6456C124.763 16.7091 124.718 16.7816 124.627 16.8632C124.146 17.2713 123.602 17.5887 122.995 17.8155C122.396 18.0331 121.766 18.1419 121.104 18.1419C120.251 18.1419 119.462 17.9334 118.737 17.5162C118.011 17.099 117.436 16.5186 117.009 15.775C116.583 15.0314 116.37 14.197 116.37 13.272C116.37 12.347 116.583 11.5127 117.009 10.7691C117.436 10.0163 118.016 9.42688 118.75 9.00065C119.485 8.56535 120.297 8.3477 121.185 8.3477C121.829 8.3477 122.446 8.46106 123.035 8.68778C123.625 8.91449 124.151 9.2183 124.613 9.59918C124.695 9.66267 124.736 9.72615 124.736 9.78963C124.736 9.83497 124.709 9.89845 124.654 9.98007L124.45 10.2385C124.378 10.3292 124.314 10.3746 124.26 10.3746C124.233 10.3746 124.201 10.3655 124.165 10.3474C124.128 10.3201 124.087 10.2929 124.042 10.2657C123.634 9.93926 123.181 9.68534 122.682 9.50396C122.192 9.31352 121.68 9.2183 121.145 9.2183C120.437 9.2183 119.789 9.3906 119.199 9.73521C118.619 10.0798 118.156 10.5605 117.812 11.1771C117.467 11.7847 117.295 12.4785 117.295 13.2584C117.295 14.0021 117.463 14.6822 117.798 15.2989C118.143 15.9065 118.61 16.3871 119.199 16.7408C119.789 17.0945 120.437 17.2713 121.145 17.2713ZM130.616 8.3477C131.705 8.3477 132.698 8.69231 133.595 9.38153C133.686 9.44502 133.731 9.5085 133.731 9.57198C133.731 9.61732 133.7 9.67627 133.636 9.74882L133.391 10.0481C133.328 10.1388 133.269 10.1841 133.215 10.1841C133.151 10.1841 133.083 10.1524 133.01 10.0889C132.63 9.81683 132.24 9.60372 131.841 9.44955C131.451 9.29538 131.033 9.2183 130.589 9.2183C130.19 9.2183 129.836 9.28631 129.528 9.42234C129.22 9.55837 128.979 9.75789 128.807 10.0209C128.635 10.2748 128.549 10.5786 128.549 10.9323C128.549 11.286 128.63 11.5762 128.794 11.8029C128.966 12.0296 129.215 12.2155 129.542 12.3606C129.868 12.5057 130.313 12.6508 130.875 12.7959C131.573 12.9773 132.131 13.1813 132.548 13.4081C132.965 13.6257 133.278 13.8978 133.487 14.2242C133.695 14.5507 133.799 14.9543 133.799 15.4349C133.799 15.97 133.654 16.4415 133.364 16.8496C133.074 17.2577 132.675 17.5751 132.167 17.8019C131.659 18.0286 131.083 18.1419 130.439 18.1419C129.85 18.1419 129.292 18.0376 128.766 17.8291C128.249 17.6114 127.773 17.3212 127.338 16.9585C127.247 16.895 127.202 16.8315 127.202 16.768C127.202 16.7136 127.234 16.6501 127.297 16.5776L127.556 16.2647C127.619 16.1831 127.678 16.1423 127.732 16.1423C127.769 16.1423 127.828 16.174 127.909 16.2375C128.762 16.9267 129.619 17.2713 130.48 17.2713C130.961 17.2713 131.378 17.1988 131.732 17.0537C132.095 16.9086 132.371 16.7045 132.562 16.4415C132.761 16.1695 132.861 15.8521 132.861 15.4893C132.861 15.1538 132.784 14.8817 132.63 14.6731C132.484 14.4555 132.244 14.2696 131.909 14.1154C131.582 13.9522 131.12 13.7935 130.521 13.6393C129.859 13.467 129.32 13.2811 128.902 13.0816C128.494 12.8821 128.177 12.6145 127.95 12.279C127.723 11.9435 127.61 11.5127 127.61 10.9867C127.61 10.4516 127.742 9.98461 128.005 9.58558C128.277 9.18656 128.639 8.88275 129.093 8.67417C129.546 8.45652 130.054 8.3477 130.616 8.3477ZM137.111 17.5026C137.111 17.3212 137.17 17.1716 137.288 17.0537C137.415 16.9358 137.565 16.8768 137.737 16.8768C137.918 16.8768 138.068 16.9358 138.186 17.0537C138.304 17.1625 138.363 17.3121 138.363 17.5026C138.363 17.684 138.304 17.8336 138.186 17.9515C138.068 18.0603 137.918 18.1147 137.737 18.1147C137.565 18.1147 137.415 18.0603 137.288 17.9515C137.17 17.8336 137.111 17.684 137.111 17.5026ZM142.699 17.6114C142.626 17.7747 142.558 17.8835 142.495 17.9379C142.431 17.9832 142.332 18.0059 142.196 18.0059H141.951C141.86 18.0059 141.792 17.9923 141.747 17.9651C141.701 17.9379 141.679 17.8925 141.679 17.8291C141.679 17.7928 141.701 17.7202 141.747 17.6114L145.732 8.98704C145.805 8.82381 145.868 8.68778 145.923 8.57895C145.986 8.47013 146.036 8.40211 146.072 8.3749C146.109 8.33863 146.154 8.32049 146.208 8.32049C146.254 8.32049 146.295 8.33863 146.331 8.3749C146.367 8.40211 146.413 8.47013 146.467 8.57895C146.53 8.68778 146.598 8.82381 146.671 8.98704L150.684 17.6114C150.729 17.7202 150.752 17.7928 150.752 17.8291C150.752 17.8925 150.729 17.9379 150.684 17.9651C150.639 17.9923 150.571 18.0059 150.48 18.0059H150.194C150.058 18.0059 149.958 17.9832 149.895 17.9379C149.831 17.8835 149.763 17.7747 149.691 17.6114L146.195 9.96647L142.699 17.6114ZM154.683 17.7338C154.683 17.8427 154.66 17.9152 154.615 17.9515C154.579 17.9878 154.511 18.0059 154.411 18.0059H154.071C153.971 18.0059 153.899 17.9878 153.853 17.9515C153.817 17.9152 153.799 17.8427 153.799 17.7338V8.75579C153.799 8.64697 153.817 8.57442 153.853 8.53814C153.899 8.50187 153.971 8.48373 154.071 8.48373H154.411C154.511 8.48373 154.579 8.50187 154.615 8.53814C154.66 8.57442 154.683 8.64697 154.683 8.75579V17.7338Z" fill="#212244"/>
<rect width="26.4444" height="26.4444" rx="2.67116" fill="url(#paint0_radial_200_40)"/>
<path d="M20.0396 5.7971C18.2175 3.97537 15.7951 2.97168 13.2185 2.97168C10.6418 2.97168 8.21941 3.97537 6.39768 5.7971C4.57562 7.61916 3.57227 10.0416 3.57227 12.6182C3.57227 15.1949 4.57562 17.6173 6.39768 19.439C8.21941 21.2611 10.6418 22.2644 13.2185 22.2644C14.8402 22.2644 16.4005 21.8671 17.7888 21.1182C17.3728 20.7866 17.077 20.3105 16.9768 19.7662C15.8536 20.3592 14.5744 20.6951 13.2185 20.6951C8.76499 20.6951 5.14157 17.072 5.14157 12.6182C5.14157 8.16441 8.76499 4.54098 13.2185 4.54098C17.6723 4.54098 21.2957 8.16441 21.2957 12.6182C21.2957 14.3218 20.7655 15.9041 19.8616 17.2083C20.3838 17.3712 20.8243 17.7191 21.1061 18.1756C22.249 16.5609 22.865 14.637 22.865 12.6182C22.865 10.0416 21.8617 7.61916 20.0396 5.7971Z" fill="white"/>
<path d="M16.977 19.7662C16.9526 19.6337 16.9399 19.4968 16.9399 19.3572C16.9399 18.1141 17.9476 17.1064 19.1904 17.1064C19.4241 17.1064 19.6498 17.1422 19.8619 17.2083C19.1219 18.2754 18.1319 19.1569 16.977 19.7662Z" fill="white"/>
<path d="M21.4427 19.3574C21.4427 20.6002 20.435 21.6079 19.1919 21.6079C18.662 21.6079 18.1748 21.4249 17.7905 21.1184C18.6082 20.6777 19.3662 20.1147 20.0413 19.4392C20.4356 19.0449 20.7919 18.6222 21.1078 18.1758C21.3201 18.5194 21.4427 18.924 21.4427 19.3574Z" fill="white"/>
<path d="M9.84996 14.3874C9.81435 14.4675 9.78096 14.521 9.74979 14.5477C9.71863 14.5699 9.66966 14.5811 9.60288 14.5811H9.48268C9.43816 14.5811 9.40477 14.5744 9.38251 14.561C9.36025 14.5477 9.34912 14.5254 9.34912 14.4942C9.34912 14.4764 9.36025 14.4408 9.38251 14.3874L11.3391 10.1536C11.3747 10.0735 11.4059 10.0067 11.4326 9.95328C11.4638 9.89985 11.4883 9.86646 11.5061 9.85311C11.5239 9.8353 11.5461 9.8264 11.5729 9.8264C11.5951 9.8264 11.6152 9.8353 11.633 9.85311C11.6508 9.86646 11.673 9.89985 11.6997 9.95328C11.7309 10.0067 11.7643 10.0735 11.7999 10.1536L13.7699 14.3874C13.7921 14.4408 13.8033 14.4764 13.8033 14.4942C13.8033 14.5254 13.7921 14.5477 13.7699 14.561C13.7476 14.5744 13.7142 14.5811 13.6697 14.5811H13.5295C13.4627 14.5811 13.4137 14.5699 13.3826 14.5477C13.3514 14.521 13.318 14.4675 13.2824 14.3874L11.5662 10.6344L9.84996 14.3874ZM16.5011 14.4475C16.5011 14.5009 16.49 14.5365 16.4677 14.5543C16.4499 14.5722 16.4165 14.5811 16.3675 14.5811H16.2006C16.1516 14.5811 16.116 14.5722 16.0937 14.5543C16.0759 14.5365 16.067 14.5009 16.067 14.4475V10.0401C16.067 9.98667 16.0759 9.95105 16.0937 9.93324C16.116 9.91544 16.1516 9.90653 16.2006 9.90653H16.3675C16.4165 9.90653 16.4499 9.91544 16.4677 9.93324C16.49 9.95105 16.5011 9.98667 16.5011 10.0401V14.4475Z" fill="white"/>
<path d="M9.84996 14.3874L9.8196 14.3735L9.81945 14.3738L9.84996 14.3874ZM9.74979 14.5477L9.76928 14.5749L9.77152 14.573L9.74979 14.5477ZM9.38251 14.3874L9.35218 14.3734L9.35169 14.3746L9.38251 14.3874ZM11.3391 10.1536L11.3694 10.1676L11.3696 10.1672L11.3391 10.1536ZM11.4326 9.95328L11.4037 9.93642L11.4028 9.93834L11.4326 9.95328ZM11.5061 9.85311L11.5263 9.88009L11.5297 9.87672L11.5061 9.85311ZM11.633 9.85311L11.6091 9.87696L11.6129 9.87982L11.633 9.85311ZM11.6997 9.95328L11.6698 9.96824L11.6709 9.9701L11.6997 9.95328ZM11.7999 10.1536L11.7694 10.1672L11.7696 10.1677L11.7999 10.1536ZM13.7699 14.3874L13.8007 14.3745L13.8002 14.3733L13.7699 14.3874ZM13.7699 14.561L13.7871 14.5897V14.5897L13.7699 14.561ZM13.3826 14.5477L13.3608 14.5731L13.3632 14.5748L13.3826 14.5477ZM13.2824 14.3874L13.3129 14.3738L13.3128 14.3735L13.2824 14.3874ZM11.5662 10.6344L11.5965 10.6205L11.5662 10.5541L11.5358 10.6205L11.5662 10.6344ZM9.81945 14.3738C9.78407 14.4535 9.75315 14.5008 9.72806 14.5223L9.77152 14.573C9.80877 14.5411 9.84463 14.4816 9.88047 14.401L9.81945 14.3738ZM9.73039 14.5205C9.70773 14.5367 9.66729 14.5477 9.60288 14.5477V14.6144C9.67203 14.6144 9.72953 14.6032 9.7692 14.5748L9.73039 14.5205ZM9.60288 14.5477H9.48268V14.6144H9.60288V14.5477ZM9.48268 14.5477C9.44041 14.5477 9.41426 14.5411 9.39969 14.5324L9.36533 14.5897C9.39528 14.6076 9.43591 14.6144 9.48268 14.6144V14.5477ZM9.39969 14.5324C9.38964 14.5264 9.38251 14.5164 9.38251 14.4942H9.31573C9.31573 14.5344 9.33086 14.569 9.36533 14.5897L9.39969 14.5324ZM9.38251 14.4942C9.38251 14.4907 9.38393 14.4814 9.38934 14.4641C9.39448 14.4477 9.40241 14.4265 9.41333 14.4002L9.35169 14.3746C9.34035 14.4018 9.33159 14.4251 9.3256 14.4442C9.31988 14.4625 9.31573 14.48 9.31573 14.4942H9.38251ZM9.41282 14.4014L11.3694 10.1676L11.3088 10.1396L9.3522 14.3734L9.41282 14.4014ZM11.3696 10.1672C11.4051 10.0873 11.4361 10.021 11.4625 9.96821L11.4028 9.93834C11.3757 9.99238 11.3444 10.0596 11.3086 10.1401L11.3696 10.1672ZM11.4615 9.9701C11.4767 9.94396 11.49 9.92333 11.5013 9.90791C11.513 9.89201 11.5212 9.8835 11.5261 9.87982L11.486 9.8264C11.4732 9.83607 11.4603 9.85094 11.4474 9.86842C11.4343 9.88639 11.4197 9.90917 11.4038 9.93645L11.4615 9.9701ZM11.5297 9.87672C11.5408 9.86558 11.5544 9.85979 11.5729 9.85979V9.79301C11.5379 9.79301 11.5069 9.80502 11.4825 9.8295L11.5297 9.87672ZM11.5729 9.85979C11.5851 9.85979 11.5969 9.86428 11.6093 9.87672L11.6566 9.8295C11.6334 9.80633 11.6052 9.79301 11.5729 9.79301V9.85979ZM11.6129 9.87982C11.6173 9.88309 11.6248 9.89104 11.6352 9.90669C11.6453 9.92182 11.6569 9.9422 11.6699 9.96821L11.7296 9.93834C11.7159 9.91093 11.703 9.8879 11.6908 9.86965C11.679 9.85191 11.6664 9.83648 11.653 9.8264L11.6129 9.87982ZM11.6709 9.9701C11.7012 10.0221 11.7341 10.0877 11.7694 10.1672L11.8304 10.1401C11.7945 10.0592 11.7606 9.99127 11.7286 9.93645L11.6709 9.9701ZM11.7696 10.1677L13.7396 14.4015L13.8002 14.3733L11.8302 10.1395L11.7696 10.1677ZM13.7391 14.4002C13.75 14.4265 13.7579 14.4477 13.7631 14.4641C13.7685 14.4814 13.7699 14.4907 13.7699 14.4942H13.8367C13.8367 14.48 13.8325 14.4625 13.8268 14.4442C13.8208 14.4251 13.812 14.4018 13.8007 14.3746L13.7391 14.4002ZM13.7699 14.4942C13.7699 14.5164 13.7628 14.5264 13.7527 14.5324L13.7871 14.5897C13.8215 14.569 13.8367 14.5344 13.8367 14.4942H13.7699ZM13.7527 14.5324C13.7381 14.5411 13.712 14.5477 13.6697 14.5477V14.6144C13.7165 14.6144 13.7571 14.6076 13.7871 14.5897L13.7527 14.5324ZM13.6697 14.5477H13.5295V14.6144H13.6697V14.5477ZM13.5295 14.5477C13.4651 14.5477 13.4246 14.5367 13.402 14.5205L13.3632 14.5748C13.4028 14.6032 13.4603 14.6144 13.5295 14.6144V14.5477ZM13.4043 14.5223C13.3792 14.5008 13.3483 14.4535 13.3129 14.3738L13.2519 14.401C13.2877 14.4816 13.3236 14.5411 13.3608 14.573L13.4043 14.5223ZM13.3128 14.3735L11.5965 10.6205L11.5358 10.6483L13.252 14.4013L13.3128 14.3735ZM11.5358 10.6205L9.8196 14.3735L9.88033 14.4013L11.5965 10.6483L11.5358 10.6205ZM16.4677 14.5543L16.4467 14.5281L16.4441 14.5307L16.4677 14.5543ZM16.0937 14.5543L16.07 14.5781L16.0729 14.5804L16.0937 14.5543ZM16.0937 9.93324L16.0728 9.90701L16.0701 9.90963L16.0937 9.93324ZM16.4677 9.93324L16.4439 9.957L16.4468 9.95932L16.4677 9.93324ZM16.4677 14.4475C16.4677 14.499 16.4564 14.5206 16.4468 14.5283L16.4886 14.5804C16.5235 14.5525 16.5345 14.5028 16.5345 14.4475H16.4677ZM16.4441 14.5307C16.4363 14.5385 16.415 14.5477 16.3675 14.5477V14.6144C16.418 14.6144 16.4635 14.6058 16.4913 14.578L16.4441 14.5307ZM16.3675 14.5477H16.2006V14.6144H16.3675V14.5477ZM16.2006 14.5477C16.1543 14.5477 16.128 14.539 16.1146 14.5283L16.0729 14.5804C16.104 14.6053 16.149 14.6144 16.2006 14.6144V14.5477ZM16.1173 14.5307C16.1142 14.5276 16.1097 14.5206 16.1061 14.5062C16.1025 14.4919 16.1004 14.4726 16.1004 14.4475H16.0336C16.0336 14.4758 16.036 14.501 16.0413 14.5224C16.0466 14.5435 16.0554 14.5632 16.0701 14.578L16.1173 14.5307ZM16.1004 14.4475V10.0401H16.0336V14.4475H16.1004ZM16.1004 10.0401C16.1004 10.015 16.1025 9.99567 16.1061 9.98141C16.1097 9.96695 16.1142 9.95995 16.1173 9.95685L16.0701 9.90963C16.0554 9.92434 16.0466 9.94406 16.0413 9.96521C16.036 9.98657 16.0336 10.0118 16.0336 10.0401H16.1004ZM16.1146 9.95932C16.128 9.94861 16.1543 9.93992 16.2006 9.93992V9.87314C16.149 9.87314 16.104 9.88227 16.0729 9.90717L16.1146 9.95932ZM16.2006 9.93992H16.3675V9.87314H16.2006V9.93992ZM16.3675 9.93992C16.415 9.93992 16.4363 9.94908 16.4441 9.95685L16.4913 9.90963C16.4635 9.88179 16.418 9.87314 16.3675 9.87314V9.93992ZM16.4468 9.95932C16.4564 9.967 16.4677 9.98858 16.4677 10.0401H16.5345C16.5345 9.98475 16.5235 9.9351 16.4886 9.90717L16.4468 9.95932ZM16.4677 10.0401V14.4475H16.5345V10.0401H16.4677Z" fill="white"/>
<defs>
<radialGradient id="paint0_radial_200_40" cx="0" cy="0" r="1" gradientUnits="userSpaceOnUse" gradientTransform="translate(13.2222 13.2222) rotate(90) scale(13.2222)">
<stop stop-color="#00DFBA"/>
<stop offset="1" stop-color="#212244"/>
</radialGradient>
</defs>
</svg>
