<svg width="28" height="28" viewBox="0 0 28 28" fill="none" xmlns="http://www.w3.org/2000/svg">
<circle cx="14" cy="14" r="14" fill="#212244"/>
<path d="M22.3998 9.56491C21.8278 9.81436 21.2132 9.98291 20.5672 10.0591C21.2338 9.66658 21.7325 9.0488 21.9703 8.32104C21.344 8.68712 20.6585 8.9448 19.9438 9.08287C19.4631 8.57782 18.8264 8.24306 18.1326 8.13057C17.4388 8.01808 16.7267 8.13415 16.1068 8.46077C15.4869 8.78739 14.9939 9.30627 14.7043 9.93686C14.4148 10.5675 14.3449 11.2745 14.5056 11.9482C13.2366 11.8855 11.9951 11.5609 10.8619 10.9955C9.7286 10.4301 8.7288 9.63649 7.92736 8.66623C7.65332 9.13141 7.49576 9.67076 7.49576 10.2452C7.49545 10.7623 7.62485 11.2714 7.87247 11.7275C8.12009 12.1836 8.47828 12.5725 8.91525 12.8597C8.40848 12.8438 7.91289 12.709 7.46972 12.4666V12.5071C7.46967 13.2323 7.7246 13.9352 8.19124 14.4966C8.65789 15.0579 9.30751 15.4431 10.0299 15.5867C9.55977 15.7119 9.06689 15.7304 8.58847 15.6407C8.79228 16.2647 9.18928 16.8104 9.72391 17.2013C10.2585 17.5923 10.904 17.809 11.57 17.821C10.4395 18.6943 9.04329 19.1681 7.60605 19.166C7.35146 19.166 7.09709 19.1514 6.84424 19.1221C8.30311 20.0452 10.0013 20.5351 11.7358 20.5332C17.6069 20.5332 20.8166 15.7479 20.8166 11.5976C20.8166 11.4627 20.8131 11.3266 20.807 11.1917C21.4313 10.7474 21.9702 10.1972 22.3984 9.56694L22.3998 9.56491Z" fill="white"/>
</svg>
