<svg width="48" height="48" viewBox="0 0 48 48" fill="none" xmlns="http://www.w3.org/2000/svg">
<path d="M42.0081 4.008H6.00806C4.94816 4.01116 3.93259 4.43361 3.18313 5.18307C2.43367 5.93253 2.01122 6.9481 2.00806 8.008V32.008C2.01122 33.0679 2.43367 34.0835 3.18313 34.8329C3.93259 35.5824 4.94816 36.0048 6.00806 36.008H20.0081V40.008H16.0081V44.008H32.0081V40.008H28.0081V36.008H42.0081C43.068 36.0048 44.0835 35.5824 44.833 34.8329C45.5825 34.0835 46.0049 33.0679 46.0081 32.008V8.008C46.0049 6.9481 45.5825 5.93253 44.833 5.18307C44.0835 4.43361 43.068 4.01116 42.0081 4.008ZM21.5121 27.34H21.5101L12.0101 17.84L14.8401 15.014L21.5121 21.686L33.1821 10.014L36.0121 12.844L21.5121 27.34Z" fill="#212244"/>
</svg>
