<svg width="243" height="42" viewBox="0 0 243 42" fill="none" xmlns="http://www.w3.org/2000/svg">
<path d="M46.828 20.4027C46.828 18.9901 47.16 17.6975 47.8239 16.5251C48.502 15.3526 49.4131 14.4344 50.5574 13.7704C51.7157 13.0924 52.98 12.7533 54.3503 12.7533C55.7629 12.7533 57.0413 13.0853 58.1856 13.7492C59.3298 14.4132 60.2268 15.3243 60.8766 16.4827C61.5406 17.641 61.8725 18.9407 61.8725 20.3815C61.8725 21.6247 61.6112 22.776 61.0885 23.8354C60.5659 24.8949 59.8384 25.7778 58.906 26.4841C57.9737 27.1904 56.9213 27.6495 55.7488 27.8614L57.5711 30.6584C57.6135 30.7291 57.6488 30.7926 57.677 30.8491C57.7053 30.9056 57.7194 30.9551 57.7194 30.9975C57.7194 31.1387 57.564 31.2094 57.2532 31.2094H56.6811C56.4834 31.2094 56.328 31.174 56.215 31.1034C56.1161 31.0469 55.996 30.9127 55.8547 30.7008L54.1172 28.0097C52.7328 27.9815 51.4826 27.6283 50.3667 26.9503C49.2648 26.2722 48.396 25.3611 47.7604 24.2168C47.1388 23.0726 46.828 21.8012 46.828 20.4027ZM48.2689 20.4027C48.2689 21.5752 48.5302 22.6418 49.0529 23.6023C49.5897 24.5488 50.3172 25.2975 51.2354 25.8484C52.1678 26.3852 53.199 26.6536 54.3291 26.6536C55.4309 26.6536 56.448 26.3782 57.3804 25.8272C58.3127 25.2763 59.0543 24.5276 59.6053 23.5811C60.1562 22.6206 60.4317 21.5611 60.4317 20.4027C60.4317 19.202 60.1562 18.1213 59.6053 17.1607C59.0685 16.2002 58.3339 15.4515 57.4016 14.9147C56.4692 14.3779 55.4451 14.1095 54.3291 14.1095C53.2272 14.1095 52.2101 14.3849 51.2778 14.9359C50.3596 15.4727 49.625 16.2213 49.0741 17.1819C48.5373 18.1284 48.2689 19.202 48.2689 20.4027ZM79.2176 21.5258C79.2176 22.9384 78.9633 24.1321 78.4548 25.1068C77.9462 26.0815 77.247 26.809 76.357 27.2893C75.4671 27.7696 74.45 28.0097 73.3057 28.0097C72.1898 28.0097 71.2009 27.7767 70.3392 27.3105C69.4916 26.8443 68.8206 26.138 68.3262 25.1915C67.8318 24.231 67.5846 23.0373 67.5846 21.6105V13.389C67.5846 13.2195 67.6128 13.1065 67.6693 13.05C67.74 12.9935 67.853 12.9652 68.0084 12.9652H68.5381C68.6935 12.9652 68.7995 12.9935 68.856 13.05C68.9266 13.1065 68.9619 13.2195 68.9619 13.389V21.547C68.9619 22.6064 69.1314 23.5176 69.4705 24.2804C69.8095 25.0432 70.311 25.6295 70.9749 26.0391C71.6388 26.4488 72.437 26.6536 73.3693 26.6536C74.3016 26.6536 75.0998 26.4488 75.7637 26.0391C76.4418 25.6295 76.9574 25.0503 77.3105 24.3016C77.6637 23.5388 77.8403 22.6347 77.8403 21.5893V13.389C77.8403 13.2195 77.8685 13.1065 77.925 13.05C77.9957 12.9935 78.1087 12.9652 78.2641 12.9652H78.7938C78.9492 12.9652 79.0551 12.9935 79.1117 13.05C79.1823 13.1065 79.2176 13.2195 79.2176 13.389V21.5258ZM85.0444 27.1834C84.9314 27.4376 84.8254 27.6071 84.7265 27.6919C84.6276 27.7625 84.4723 27.7979 84.2604 27.7979H83.8789C83.7377 27.7979 83.6317 27.7767 83.5611 27.7343C83.4905 27.6919 83.4552 27.6213 83.4552 27.5224C83.4552 27.4659 83.4905 27.3529 83.5611 27.1834L89.7696 13.7492C89.8826 13.495 89.9815 13.2831 90.0663 13.1136C90.1652 12.944 90.2428 12.8381 90.2994 12.7957C90.3559 12.7392 90.4265 12.711 90.5112 12.711C90.5819 12.711 90.6454 12.7392 90.702 12.7957C90.7585 12.8381 90.8291 12.944 90.9138 13.1136C91.0127 13.2831 91.1187 13.495 91.2317 13.7492L97.4826 27.1834C97.5532 27.3529 97.5885 27.4659 97.5885 27.5224C97.5885 27.6213 97.5532 27.6919 97.4826 27.7343C97.4119 27.7767 97.306 27.7979 97.1647 27.7979H96.7198C96.5079 27.7979 96.3525 27.7625 96.2536 27.6919C96.1547 27.6071 96.0488 27.4376 95.9357 27.1834L90.4901 15.2749L85.0444 27.1834ZM112.59 13.389C112.59 13.2195 112.619 13.1065 112.675 13.05C112.746 12.9935 112.859 12.9652 113.014 12.9652H113.544C113.699 12.9652 113.805 12.9935 113.862 13.05C113.932 13.1065 113.968 13.2195 113.968 13.389V27.3741C113.968 27.6001 113.932 27.7625 113.862 27.8614C113.791 27.9603 113.692 28.0097 113.565 28.0097C113.452 28.0097 113.339 27.9674 113.226 27.8826C113.127 27.7979 112.979 27.6283 112.781 27.3741L103.712 15.8258V27.3741C103.712 27.5436 103.677 27.6566 103.606 27.7131C103.55 27.7696 103.444 27.7979 103.288 27.7979H102.759C102.603 27.7979 102.49 27.7696 102.42 27.7131C102.363 27.6566 102.335 27.5436 102.335 27.3741V13.389C102.335 13.163 102.37 13.0005 102.441 12.9017C102.511 12.8028 102.61 12.7533 102.737 12.7533C102.85 12.7533 102.956 12.7957 103.055 12.8805C103.168 12.9652 103.324 13.1347 103.521 13.389L112.59 24.9373V13.389ZM130.29 13.8976C130.29 14.0671 130.255 14.1801 130.184 14.2366C130.128 14.2931 130.022 14.3214 129.866 14.3214H125.565C125.424 14.3214 125.353 14.392 125.353 14.5333V27.3741C125.353 27.5436 125.318 27.6566 125.247 27.7131C125.191 27.7696 125.085 27.7979 124.929 27.7979H124.399C124.244 27.7979 124.131 27.7696 124.06 27.7131C124.004 27.6566 123.976 27.5436 123.976 27.3741V14.5333C123.976 14.392 123.905 14.3214 123.764 14.3214H119.462C119.307 14.3214 119.194 14.2931 119.123 14.2366C119.067 14.1801 119.039 14.0671 119.039 13.8976V13.389C119.039 13.2195 119.067 13.1065 119.123 13.05C119.194 12.9935 119.307 12.9652 119.462 12.9652H129.866C130.022 12.9652 130.128 12.9935 130.184 13.05C130.255 13.1065 130.29 13.2195 130.29 13.389V13.8976ZM146.893 21.5258C146.893 22.9384 146.639 24.1321 146.13 25.1068C145.622 26.0815 144.922 26.809 144.032 27.2893C143.143 27.7696 142.125 28.0097 140.981 28.0097C139.865 28.0097 138.876 27.7767 138.015 27.3105C137.167 26.8443 136.496 26.138 136.002 25.1915C135.507 24.231 135.26 23.0373 135.26 21.6105V13.389C135.26 13.2195 135.288 13.1065 135.345 13.05C135.415 12.9935 135.528 12.9652 135.684 12.9652H136.214C136.369 12.9652 136.475 12.9935 136.531 13.05C136.602 13.1065 136.637 13.2195 136.637 13.389V21.547C136.637 22.6064 136.807 23.5176 137.146 24.2804C137.485 25.0432 137.986 25.6295 138.65 26.0391C139.314 26.4488 140.112 26.6536 141.045 26.6536C141.977 26.6536 142.775 26.4488 143.439 26.0391C144.117 25.6295 144.633 25.0503 144.986 24.3016C145.339 23.5388 145.516 22.6347 145.516 21.5893V13.389C145.516 13.2195 145.544 13.1065 145.601 13.05C145.671 12.9935 145.784 12.9652 145.94 12.9652H146.469C146.625 12.9652 146.731 12.9935 146.787 13.05C146.858 13.1065 146.893 13.2195 146.893 13.389V21.5258ZM154.914 27.3741C154.914 27.5436 154.878 27.6566 154.808 27.7131C154.751 27.7696 154.645 27.7979 154.49 27.7979H153.96C153.805 27.7979 153.692 27.7696 153.621 27.7131C153.565 27.6566 153.536 27.5436 153.536 27.3741V13.389C153.536 13.1771 153.565 13.0217 153.621 12.9229C153.678 12.8098 153.776 12.7533 153.918 12.7533C154.031 12.7533 154.137 12.7957 154.236 12.8805C154.334 12.9652 154.483 13.1277 154.681 13.3678L160.486 20.6782L166.208 13.3678C166.405 13.1277 166.554 12.9652 166.653 12.8805C166.751 12.7957 166.857 12.7533 166.97 12.7533C167.112 12.7533 167.211 12.8098 167.267 12.9229C167.324 13.0217 167.352 13.1771 167.352 13.389V27.3741C167.352 27.5436 167.317 27.6566 167.246 27.7131C167.189 27.7696 167.083 27.7979 166.928 27.7979H166.398C166.243 27.7979 166.13 27.7696 166.059 27.7131C166.003 27.6566 165.975 27.5436 165.975 27.3741V15.8682L161.165 21.9072C160.981 22.1473 160.84 22.3098 160.741 22.3945C160.656 22.4652 160.557 22.5005 160.444 22.5005C160.331 22.5005 160.225 22.4652 160.126 22.3945C160.041 22.3098 159.907 22.1473 159.724 21.9072L154.914 15.8682V27.3741ZM175.464 27.3741C175.464 27.5436 175.429 27.6566 175.358 27.7131C175.302 27.7696 175.196 27.7979 175.04 27.7979H174.511C174.355 27.7979 174.242 27.7696 174.172 27.7131C174.115 27.6566 174.087 27.5436 174.087 27.3741V13.389C174.087 13.2195 174.115 13.1065 174.172 13.05C174.242 12.9935 174.355 12.9652 174.511 12.9652H175.04C175.196 12.9652 175.302 12.9935 175.358 13.05C175.429 13.1065 175.464 13.2195 175.464 13.389V27.3741ZM188.706 26.6536C189.596 26.6536 190.422 26.5124 191.185 26.2298C191.962 25.9332 192.668 25.5165 193.304 24.9797C193.445 24.8666 193.558 24.8101 193.643 24.8101C193.742 24.8101 193.834 24.8737 193.919 25.0008L194.236 25.4246C194.307 25.5376 194.342 25.6224 194.342 25.6789C194.342 25.7778 194.272 25.8908 194.131 26.0179C193.382 26.6536 192.534 27.148 191.588 27.5012C190.655 27.8402 189.674 28.0097 188.642 28.0097C187.315 28.0097 186.086 27.6848 184.955 27.035C183.825 26.3852 182.928 25.4811 182.264 24.3228C181.6 23.1644 181.269 21.8648 181.269 20.4239C181.269 18.983 181.6 17.6834 182.264 16.5251C182.928 15.3526 183.832 14.4344 184.977 13.7704C186.121 13.0924 187.385 12.7533 188.77 12.7533C189.773 12.7533 190.733 12.9299 191.651 13.2831C192.57 13.6362 193.389 14.1095 194.109 14.7028C194.236 14.8017 194.3 14.9005 194.3 14.9994C194.3 15.0701 194.258 15.1689 194.173 15.2961L193.855 15.6987C193.742 15.8399 193.643 15.9106 193.558 15.9106C193.516 15.9106 193.467 15.8964 193.41 15.8682C193.354 15.8258 193.29 15.7834 193.219 15.7411C192.584 15.2325 191.877 14.837 191.1 14.5544C190.338 14.2578 189.539 14.1095 188.706 14.1095C187.604 14.1095 186.594 14.3779 185.676 14.9147C184.772 15.4515 184.051 16.2002 183.515 17.1607C182.978 18.1072 182.709 19.1879 182.709 20.4027C182.709 21.5611 182.971 22.6206 183.493 23.5811C184.03 24.5276 184.758 25.2763 185.676 25.8272C186.594 26.3782 187.604 26.6536 188.706 26.6536ZM203.46 12.7533C205.155 12.7533 206.702 13.2901 208.1 14.3637C208.242 14.4626 208.312 14.5615 208.312 14.6604C208.312 14.731 208.263 14.8228 208.164 14.9359L207.783 15.402C207.684 15.5433 207.592 15.6139 207.507 15.6139C207.408 15.6139 207.302 15.5645 207.189 15.4656C206.596 15.0418 205.989 14.7098 205.367 14.4697C204.76 14.2295 204.11 14.1095 203.418 14.1095C202.796 14.1095 202.245 14.2154 201.765 14.4273C201.285 14.6392 200.91 14.95 200.642 15.3596C200.373 15.7552 200.239 16.2284 200.239 16.7793C200.239 17.3303 200.366 17.7823 200.621 18.1355C200.889 18.4886 201.277 18.7782 201.786 19.0042C202.295 19.2302 202.987 19.4563 203.863 19.6823C204.95 19.9648 205.819 20.2827 206.469 20.6358C207.119 20.9748 207.606 21.3986 207.931 21.9072C208.256 22.4157 208.418 23.0444 208.418 23.793C208.418 24.6265 208.192 25.3611 207.74 25.9967C207.288 26.6324 206.667 27.1269 205.876 27.48C205.085 27.8332 204.187 28.0097 203.185 28.0097C202.266 28.0097 201.398 27.8473 200.578 27.5224C199.773 27.1834 199.031 26.7313 198.353 26.1663C198.212 26.0674 198.141 25.9685 198.141 25.8696C198.141 25.7849 198.191 25.686 198.29 25.573L198.692 25.0856C198.791 24.9585 198.883 24.8949 198.968 24.8949C199.024 24.8949 199.116 24.9443 199.243 25.0432C200.571 26.1168 201.906 26.6536 203.248 26.6536C203.997 26.6536 204.647 26.5406 205.198 26.3146C205.763 26.0886 206.193 25.7707 206.49 25.3611C206.801 24.9373 206.956 24.4429 206.956 23.8778C206.956 23.3551 206.836 22.9313 206.596 22.6064C206.37 22.2674 205.996 21.9778 205.473 21.7377C204.964 21.4834 204.244 21.2362 203.312 20.996C202.28 20.7276 201.44 20.438 200.79 20.1273C200.154 19.8165 199.66 19.3998 199.307 18.8771C198.954 18.3544 198.777 17.6834 198.777 16.8641C198.777 16.0306 198.982 15.3031 199.392 14.6816C199.815 14.06 200.38 13.5868 201.087 13.2619C201.793 12.9229 202.584 12.7533 203.46 12.7533ZM213.577 27.0138C213.577 26.7313 213.669 26.4982 213.852 26.3146C214.05 26.1309 214.283 26.0391 214.552 26.0391C214.834 26.0391 215.067 26.1309 215.251 26.3146C215.435 26.4841 215.526 26.7172 215.526 27.0138C215.526 27.2964 215.435 27.5295 215.251 27.7131C215.067 27.8826 214.834 27.9674 214.552 27.9674C214.283 27.9674 214.05 27.8826 213.852 27.7131C213.669 27.5295 213.577 27.2964 213.577 27.0138ZM222.281 27.1834C222.168 27.4376 222.062 27.6071 221.963 27.6919C221.864 27.7625 221.709 27.7979 221.497 27.7979H221.115C220.974 27.7979 220.868 27.7767 220.798 27.7343C220.727 27.6919 220.692 27.6213 220.692 27.5224C220.692 27.4659 220.727 27.3529 220.798 27.1834L227.006 13.7492C227.119 13.495 227.218 13.2831 227.303 13.1136C227.402 12.944 227.479 12.8381 227.536 12.7957C227.592 12.7392 227.663 12.711 227.748 12.711C227.818 12.711 227.882 12.7392 227.938 12.7957C227.995 12.8381 228.066 12.944 228.15 13.1136C228.249 13.2831 228.355 13.495 228.468 13.7492L234.719 27.1834C234.79 27.3529 234.825 27.4659 234.825 27.5224C234.825 27.6213 234.79 27.6919 234.719 27.7343C234.648 27.7767 234.542 27.7979 234.401 27.7979H233.956C233.744 27.7979 233.589 27.7625 233.49 27.6919C233.391 27.6071 233.285 27.4376 233.172 27.1834L227.727 15.2749L222.281 27.1834ZM240.949 27.3741C240.949 27.5436 240.913 27.6566 240.843 27.7131C240.786 27.7696 240.68 27.7979 240.525 27.7979H239.995C239.84 27.7979 239.727 27.7696 239.656 27.7131C239.6 27.6566 239.571 27.5436 239.571 27.3741V13.389C239.571 13.2195 239.6 13.1065 239.656 13.05C239.727 12.9935 239.84 12.9652 239.995 12.9652H240.525C240.68 12.9652 240.786 12.9935 240.843 13.05C240.913 13.1065 240.949 13.2195 240.949 13.389V27.3741Z" fill="#212244"/>
<rect width="41.1923" height="41.1923" rx="4.16084" fill="url(#paint0_radial_200_70)"/>
<path d="M31.2155 9.03003C28.3773 6.19234 24.6039 4.62891 20.5903 4.62891C16.5766 4.62891 12.8033 6.19234 9.96558 9.03003C7.12737 11.8682 5.56445 15.6416 5.56445 19.6553C5.56445 23.6689 7.12737 27.4423 9.96558 30.28C12.8033 33.1182 16.5766 34.6811 20.5903 34.6811C23.1164 34.6811 25.5469 34.0622 27.7095 32.8956C27.0614 32.3791 26.6006 31.6374 26.4446 30.7897C24.6949 31.7134 22.7024 32.2366 20.5903 32.2366C13.6531 32.2366 8.00895 26.5929 8.00895 19.6553C8.00895 12.7176 13.6531 7.0734 20.5903 7.0734C27.528 7.0734 33.1721 12.7176 33.1721 19.6553C33.1721 22.3088 32.3462 24.7736 30.9383 26.8051C31.7517 27.059 32.4377 27.6009 32.8767 28.3119C34.657 25.7967 35.6166 22.7998 35.6166 19.6553C35.6166 15.6416 34.0537 11.8682 31.2155 9.03003Z" fill="white"/>
<path d="M26.4449 30.7896C26.407 30.5832 26.3872 30.3699 26.3872 30.1525C26.3872 28.2162 27.9569 26.6465 29.8927 26.6465C30.2568 26.6465 30.6084 26.7021 30.9386 26.8051C29.7861 28.4674 28.244 29.8405 26.4449 30.7896Z" fill="white"/>
<path d="M33.4008 30.1522C33.4008 32.088 31.8311 33.6577 29.8948 33.6577C29.0694 33.6577 28.3106 33.3727 27.7119 32.8952C28.9857 32.2087 30.1663 31.3318 31.2179 30.2796C31.8322 29.6654 32.3871 29.0069 32.8792 28.3115C33.2099 28.8467 33.4008 29.4771 33.4008 30.1522Z" fill="white"/>
<path d="M15.3431 23.0655C15.2877 23.1904 15.2357 23.2736 15.1871 23.3152C15.1386 23.3499 15.0623 23.3672 14.9583 23.3672H14.771C14.7017 23.3672 14.6497 23.3568 14.615 23.336C14.5803 23.3152 14.563 23.2805 14.563 23.232C14.563 23.2042 14.5803 23.1487 14.615 23.0655L17.6628 16.4706C17.7183 16.3458 17.7668 16.2418 17.8084 16.1585C17.857 16.0753 17.8951 16.0233 17.9229 16.0025C17.9506 15.9748 17.9853 15.9609 18.0269 15.9609C18.0616 15.9609 18.0928 15.9748 18.1205 16.0025C18.1482 16.0233 18.1829 16.0753 18.2245 16.1585C18.2731 16.2418 18.3251 16.3458 18.3806 16.4706L21.4492 23.0655C21.4839 23.1487 21.5012 23.2042 21.5012 23.232C21.5012 23.2805 21.4839 23.3152 21.4492 23.336C21.4145 23.3568 21.3625 23.3672 21.2931 23.3672H21.0747C20.9707 23.3672 20.8944 23.3499 20.8459 23.3152C20.7973 23.2736 20.7453 23.1904 20.6898 23.0655L18.0165 17.2195L15.3431 23.0655ZM25.7036 23.1591C25.7036 23.2424 25.6862 23.2978 25.6515 23.3256C25.6238 23.3533 25.5718 23.3672 25.4955 23.3672H25.2355C25.1592 23.3672 25.1037 23.3533 25.069 23.3256C25.0413 23.2978 25.0274 23.2424 25.0274 23.1591V16.2938C25.0274 16.2105 25.0413 16.1551 25.069 16.1273C25.1037 16.0996 25.1592 16.0857 25.2355 16.0857H25.4955C25.5718 16.0857 25.6238 16.0996 25.6515 16.1273C25.6862 16.1551 25.7036 16.2105 25.7036 16.2938V23.1591Z" fill="white"/>
<path d="M15.3431 23.0655L15.2958 23.0439L15.2956 23.0444L15.3431 23.0655ZM15.1871 23.3152L15.2175 23.3577L15.221 23.3547L15.1871 23.3152ZM14.615 23.0655L14.5678 23.0437L14.567 23.0455L14.615 23.0655ZM17.6628 16.4706L17.71 16.4924L17.7103 16.4917L17.6628 16.4706ZM17.8084 16.1585L17.7634 16.1323L17.7619 16.1353L17.8084 16.1585ZM17.9229 16.0025L17.9544 16.0445L17.9596 16.0393L17.9229 16.0025ZM18.1205 16.0025L18.0834 16.0397L18.0893 16.0441L18.1205 16.0025ZM18.2245 16.1585L18.1779 16.1818L18.1796 16.1847L18.2245 16.1585ZM18.3806 16.4706L18.333 16.4917L18.3334 16.4925L18.3806 16.4706ZM21.4492 23.0655L21.4972 23.0455L21.4963 23.0436L21.4492 23.0655ZM21.4492 23.336L21.4759 23.3806H21.4759L21.4492 23.336ZM20.8459 23.3152L20.8119 23.3548L20.8156 23.3575L20.8459 23.3152ZM20.6898 23.0655L20.7374 23.0444L20.7371 23.0439L20.6898 23.0655ZM18.0165 17.2195L18.0638 17.1979L18.0165 17.0945L17.9692 17.1979L18.0165 17.2195ZM15.2956 23.0444C15.2405 23.1684 15.1923 23.2422 15.1533 23.2757L15.221 23.3547C15.279 23.3049 15.3348 23.2123 15.3907 23.0866L15.2956 23.0444ZM15.1569 23.2729C15.1216 23.2981 15.0586 23.3152 14.9583 23.3152V23.4192C15.066 23.4192 15.1555 23.4016 15.2173 23.3575L15.1569 23.2729ZM14.9583 23.3152H14.771V23.4192H14.9583V23.3152ZM14.771 23.3152C14.7052 23.3152 14.6644 23.305 14.6418 23.2914L14.5882 23.3806C14.6349 23.4086 14.6982 23.4192 14.771 23.4192V23.3152ZM14.6418 23.2914C14.6261 23.282 14.615 23.2665 14.615 23.232H14.511C14.511 23.2945 14.5345 23.3484 14.5882 23.3806L14.6418 23.2914ZM14.615 23.232C14.615 23.2265 14.6172 23.212 14.6256 23.1851C14.6336 23.1594 14.646 23.1264 14.663 23.0855L14.567 23.0455C14.5493 23.0879 14.5357 23.1242 14.5263 23.154C14.5174 23.1825 14.511 23.2097 14.511 23.232H14.615ZM14.6622 23.0873L17.71 16.4924L17.6156 16.4488L14.5678 23.0437L14.6622 23.0873ZM17.7103 16.4917C17.7656 16.3673 17.8138 16.2641 17.855 16.1818L17.7619 16.1353C17.7198 16.2194 17.671 16.3242 17.6153 16.4495L17.7103 16.4917ZM17.8534 16.1847C17.8771 16.144 17.8978 16.1119 17.9154 16.0879C17.9336 16.0631 17.9464 16.0499 17.9541 16.0441L17.8917 15.9609C17.8716 15.976 17.8515 15.9991 17.8315 16.0264C17.811 16.0543 17.7883 16.0898 17.7635 16.1323L17.8534 16.1847ZM17.9596 16.0393C17.977 16.0219 17.9981 16.0129 18.0269 16.0129V15.9089C17.9724 15.9089 17.9242 15.9276 17.8861 15.9657L17.9596 16.0393ZM18.0269 16.0129C18.0459 16.0129 18.0643 16.0199 18.0837 16.0393L18.1573 15.9657C18.1212 15.9296 18.0772 15.9089 18.0269 15.9089V16.0129ZM18.0893 16.0441C18.0961 16.0492 18.1078 16.0616 18.124 16.086C18.1398 16.1095 18.1578 16.1413 18.178 16.1818L18.271 16.1353C18.2497 16.0926 18.2295 16.0567 18.2106 16.0283C18.1922 16.0006 18.1727 15.9766 18.1517 15.9609L18.0893 16.0441ZM18.1796 16.1847C18.2269 16.2658 18.278 16.368 18.333 16.4917L18.4281 16.4495C18.3721 16.3236 18.3193 16.2177 18.2695 16.1323L18.1796 16.1847ZM18.3334 16.4925L21.402 23.0875L21.4963 23.0436L18.4277 16.4487L18.3334 16.4925ZM21.4012 23.0855C21.4182 23.1264 21.4305 23.1594 21.4385 23.1851C21.447 23.212 21.4492 23.2265 21.4492 23.232H21.5532C21.5532 23.2097 21.5467 23.1825 21.5378 23.154C21.5285 23.1242 21.5148 23.0879 21.4972 23.0455L21.4012 23.0855ZM21.4492 23.232C21.4492 23.2665 21.4381 23.282 21.4224 23.2914L21.4759 23.3806C21.5296 23.3484 21.5532 23.2945 21.5532 23.232H21.4492ZM21.4224 23.2914C21.3997 23.305 21.359 23.3152 21.2931 23.3152V23.4192C21.366 23.4192 21.4293 23.4086 21.4759 23.3806L21.4224 23.2914ZM21.2931 23.3152H21.0747V23.4192H21.2931V23.3152ZM21.0747 23.3152C20.9744 23.3152 20.9114 23.2981 20.8761 23.2729L20.8156 23.3575C20.8774 23.4016 20.967 23.4192 21.0747 23.4192V23.3152ZM20.8797 23.2757C20.8406 23.2422 20.7925 23.1684 20.7374 23.0444L20.6423 23.0866C20.6981 23.2123 20.754 23.3049 20.812 23.3547L20.8797 23.2757ZM20.7371 23.0439L18.0638 17.1979L17.9692 17.2412L20.6425 23.0872L20.7371 23.0439ZM17.9692 17.1979L15.2958 23.0439L15.3904 23.0872L18.0638 17.2412L17.9692 17.1979ZM25.6515 23.3256L25.6189 23.2847L25.6148 23.2888L25.6515 23.3256ZM25.069 23.3256L25.032 23.3626L25.0365 23.3662L25.069 23.3256ZM25.069 16.1273L25.0363 16.0865L25.0322 16.0906L25.069 16.1273ZM25.6515 16.1273L25.6145 16.1643L25.6191 16.1679L25.6515 16.1273ZM25.6515 23.1591C25.6515 23.2394 25.634 23.273 25.6191 23.285L25.684 23.3662C25.7384 23.3227 25.7556 23.2454 25.7556 23.1591H25.6515ZM25.6148 23.2888C25.6027 23.3009 25.5695 23.3152 25.4955 23.3152V23.4192C25.5741 23.4192 25.645 23.4057 25.6883 23.3624L25.6148 23.2888ZM25.4955 23.3152H25.2355V23.4192H25.4955V23.3152ZM25.2355 23.3152C25.1633 23.3152 25.1224 23.3017 25.1015 23.285L25.0365 23.3662C25.085 23.405 25.155 23.4192 25.2355 23.4192V23.3152ZM25.1058 23.2888C25.101 23.284 25.0939 23.2731 25.0883 23.2506C25.0827 23.2283 25.0794 23.1982 25.0794 23.1591H24.9754C24.9754 23.2033 24.979 23.2425 24.9874 23.2758C24.9956 23.3087 25.0093 23.3394 25.0322 23.3624L25.1058 23.2888ZM25.0794 23.1591V16.2938H24.9754V23.1591H25.0794ZM25.0794 16.2938C25.0794 16.2547 25.0827 16.2246 25.0883 16.2024C25.0939 16.1798 25.101 16.1689 25.1058 16.1641L25.0322 16.0906C25.0093 16.1135 24.9956 16.1442 24.9874 16.1771C24.979 16.2104 24.9754 16.2496 24.9754 16.2938H25.0794ZM25.1015 16.1679C25.1224 16.1513 25.1633 16.1377 25.2355 16.1377V16.0337C25.155 16.0337 25.085 16.0479 25.0365 16.0867L25.1015 16.1679ZM25.2355 16.1377H25.4955V16.0337H25.2355V16.1377ZM25.4955 16.1377C25.5695 16.1377 25.6027 16.152 25.6148 16.1641L25.6883 16.0906C25.645 16.0472 25.5741 16.0337 25.4955 16.0337V16.1377ZM25.6191 16.1679C25.634 16.1799 25.6515 16.2135 25.6515 16.2938H25.7556C25.7556 16.2076 25.7384 16.1302 25.684 16.0867L25.6191 16.1679ZM25.6515 16.2938V23.1591H25.7556V16.2938H25.6515Z" fill="white"/>
<defs>
<radialGradient id="paint0_radial_200_70" cx="0" cy="0" r="1" gradientUnits="userSpaceOnUse" gradientTransform="translate(20.5962 20.5962) rotate(90) scale(20.5962)">
<stop stop-color="#00DFBA"/>
<stop offset="1" stop-color="#212244"/>
</radialGradient>
</defs>
</svg>
