<svg width="48" height="48" viewBox="0 0 48 48" fill="none" xmlns="http://www.w3.org/2000/svg">
<path d="M46.9995 2.547H24.9996V0.998838C24.9996 0.449518 24.5497 0 23.9996 0C23.4494 0 22.9995 0.449518 22.9995 0.998838L22.9999 2.547H1.00008C0.44994 2.547 0 2.98621 0 3.54584V6.54238C0.000412378 7.09129 0.450341 7.54081 1.00008 7.54081H3.9999V10.7068C5.11541 8.47821 7.3989 7.07142 9.88985 7.07142C13.498 7.07142 16.4797 10.0176 16.4797 13.6534C16.4797 15.4811 15.7295 17.1489 14.52 18.3478C15.6698 18.4876 16.7399 18.9471 17.6299 19.6762L21.5799 22.9622H25H25.0099C27.22 22.9622 29.0098 24.75 29.0098 26.9576C29.0098 28.9821 27.519 30.588 25.7201 30.8829C25.4603 30.9394 24.3864 30.9728 19.8503 30.9526H19.7604C18.8606 30.9526 17.9904 30.6429 17.2803 30.0936V34.5879H19.48L17.2798 38.4035V42.4286L21.7899 34.5879H22.9999V38.4533C22.9999 39.0126 23.4498 39.4522 24 39.4522C24.5501 39.4522 25.0001 39.0126 25.0001 38.4533V34.5879H26.1201L30.68 42.8079C30.9576 43.316 31.5968 43.4628 32.0402 43.1972C32.5202 42.9374 32.7 42.3283 32.4303 41.8487L28.4003 34.5875L41.9994 34.588C43.1093 34.588 43.9991 33.6889 43.9991 32.5903V9.53891H24.89C24.3399 9.53891 23.8899 9.0894 23.8899 8.54008C23.8899 7.98085 24.3398 7.54124 24.89 7.54124H25.0001H46.9999C47.5501 7.54124 48 7.09172 48 6.5424V3.54585C48 2.98663 47.5501 2.54743 46.9999 2.54743L46.9995 2.547Z" fill="#212244"/>
<path d="M14.4834 13.6548C14.4834 16.1895 12.4268 18.2437 9.88914 18.2437C7.35206 18.2437 5.29492 16.1895 5.29492 13.6548C5.29492 11.1206 7.35195 9.06641 9.88914 9.06641C12.4266 9.06641 14.4834 11.1206 14.4834 13.6548Z" fill="#212244"/>
<path d="M19.7601 28.9548H25.0101C26.1141 28.9548 27.0098 28.0789 27.0098 26.9571C27.0098 25.8585 26.1198 24.9594 25.0101 24.9594H21.5801C21.1203 24.9594 20.6601 24.7998 20.3 24.5L16.35 21.214C15.63 20.6148 14.7099 20.2852 13.77 20.2952C10.6501 20.305 7.64988 20.2754 4.75026 20.2853L4.50075 20.2857V20.2865H4.323C2.35085 20.2865 0.752441 21.6833 0.752441 23.4063V33.6562C0.752441 34.6213 1.64777 35.4036 2.75214 35.4036C3.50973 35.4036 4.16137 35.0312 4.50068 34.4881V46.0444C4.50068 46.9232 5.06073 47.7422 5.91065 47.9423C7.02045 48.212 8.0704 47.4928 8.24069 46.4342L9.55046 38.224H10.2305L11.5403 46.4342C11.7102 47.4928 12.7404 48.212 13.8502 47.9423C14.71 47.7427 15.28 46.9233 15.28 46.0444V25.6388L18.4299 28.4456C18.8003 28.7751 19.27 28.9549 19.76 28.9549L19.7601 28.9548Z" fill="#212244"/>
<path d="M46.9995 2.547H24.9996V0.998838C24.9996 0.449518 24.5497 0 23.9996 0C23.4494 0 22.9995 0.449518 22.9995 0.998838L22.9999 2.547H1.00008C0.44994 2.547 0 2.98621 0 3.54584V6.54238C0.000412378 7.09129 0.450341 7.54081 1.00008 7.54081H3.9999V10.7068C5.11541 8.47821 7.3989 7.07142 9.88985 7.07142C13.498 7.07142 16.4797 10.0176 16.4797 13.6534C16.4797 15.4811 15.7295 17.1489 14.52 18.3478C15.6698 18.4876 16.7399 18.9471 17.6299 19.6762L21.5799 22.9622H25H25.0099C27.22 22.9622 29.0098 24.75 29.0098 26.9576C29.0098 28.9821 27.519 30.588 25.7201 30.8829C25.4603 30.9394 24.3864 30.9728 19.8503 30.9526H19.7604C18.8606 30.9526 17.9904 30.6429 17.2803 30.0936V34.5879H19.48L17.2798 38.4035V42.4286L21.7899 34.5879H22.9999V38.4533C22.9999 39.0126 23.4498 39.4522 24 39.4522C24.5501 39.4522 25.0001 39.0126 25.0001 38.4533V34.5879H26.1201L30.68 42.8079C30.9576 43.316 31.5968 43.4628 32.0402 43.1972C32.5202 42.9374 32.7 42.3283 32.4303 41.8487L28.4003 34.5875L41.9994 34.588C43.1093 34.588 43.9991 33.6889 43.9991 32.5903V9.53891H24.89C24.3399 9.53891 23.8899 9.0894 23.8899 8.54008C23.8899 7.98085 24.3398 7.54124 24.89 7.54124H25.0001H46.9999C47.5501 7.54124 48 7.09172 48 6.5424V3.54585C48 2.98663 47.5501 2.54743 46.9999 2.54743L46.9995 2.547Z" fill="#212244"/>
<path d="M14.4834 13.6548C14.4834 16.1895 12.4268 18.2437 9.88914 18.2437C7.35206 18.2437 5.29492 16.1895 5.29492 13.6548C5.29492 11.1206 7.35195 9.06641 9.88914 9.06641C12.4266 9.06641 14.4834 11.1206 14.4834 13.6548Z" fill="#212244"/>
<path d="M19.7601 28.9548H25.0101C26.1141 28.9548 27.0098 28.0789 27.0098 26.9571C27.0098 25.8585 26.1198 24.9594 25.0101 24.9594H21.5801C21.1203 24.9594 20.6601 24.7998 20.3 24.5L16.35 21.214C15.63 20.6148 14.7099 20.2852 13.77 20.2952C10.6501 20.305 7.64988 20.2754 4.75026 20.2853L4.50075 20.2857V20.2865H4.323C2.35085 20.2865 0.752441 21.6833 0.752441 23.4063V33.6562C0.752441 34.6213 1.64777 35.4036 2.75214 35.4036C3.50973 35.4036 4.16137 35.0312 4.50068 34.4881V46.0444C4.50068 46.9232 5.06073 47.7422 5.91065 47.9423C7.02045 48.212 8.0704 47.4928 8.24069 46.4342L9.55046 38.224H10.2305L11.5403 46.4342C11.7102 47.4928 12.7404 48.212 13.8502 47.9423C14.71 47.7427 15.28 46.9233 15.28 46.0444V25.6388L18.4299 28.4456C18.8003 28.7751 19.27 28.9549 19.76 28.9549L19.7601 28.9548Z" fill="#212244"/>
</svg>
