<svg xmlns="http://www.w3.org/2000/svg" width="75" height="75" viewBox="0 0 75 75">
  <g id="Group_1313" data-name="Group 1313" transform="translate(-488 -238)">
    <circle id="Ellipse_536" data-name="Ellipse 536" cx="37.5" cy="37.5" r="37.5" transform="translate(488 238)" fill="#fafafa"/>
    <g id="Group_1309" data-name="Group 1309" transform="translate(494.563 255.792)">
      <g id="Group_1309-2" data-name="Group 1309" transform="translate(0)">
        <path id="Path_9927" data-name="Path 9927" d="M34.39,52.27s.388-.053.564-1h.006a1.448,1.448,0,0,1,1.178.542.745.745,0,0,0,.19.118,1.474,1.474,0,0,0,.329.094h4.851a1.81,1.81,0,0,0,1.462-1.672v-.017c0-.035,0-.07,0-.1a1.788,1.788,0,0,0-.886-1.418l-6.552-2.94a35.513,35.513,0,0,1,.682-4.15,33.371,33.371,0,0,0,.644-8.263v-1.3a1.693,1.693,0,0,1,.755-.691.356.356,0,0,0,.284-.128H60.8l2.25-.049c.18-.052.45-.142.744-.26.7-.286,1.533-.742,1.533-1.232,0-.819-1.1-1.146-1.1-1.146L41.8,22.761c-.025-.642-.047-1.153-.066-1.555h-.1c-.01-.212-.015-.4-.024-.552h.1c-.038-.791-.048-.93-.048-.93s.035-.525-.642-.525H40.63v-.5a.413.413,0,0,0-.075-.162,15.179,15.179,0,0,0,2.536-.114,16.555,16.555,0,0,0-2.691-.113v-.05s-.012-.1-.093-.1h-.1c-.078,0-.091.1-.091.1v.05a16.624,16.624,0,0,0-2.69.113,15.174,15.174,0,0,0,2.536.114.4.4,0,0,0-.074.162v.5h-.393c-.678,0-.642.525-.642.525s-.014.139-.049.93h.1q-.01.235-.023.552h-.1c-.017.4-.038.906-.063,1.542H37.025a.469.469,0,0,0-.167-.231V21.334a35.948,35.948,0,0,0-1.031-6.546h0c-.01-.028-.019-.052-.031-.08s-.027-.068-.041-.1a2.732,2.732,0,0,0-.131-.283,5.8,5.8,0,0,0-.372-.59c-.339-.464-.576-.578-.713-.593a.432.432,0,0,0-.049,0H34.3a.4.4,0,0,0-.047,0c-.138.015-.374.13-.713.593a5.742,5.742,0,0,0-.375.59,2.845,2.845,0,0,0-.128.273c-.016.039-.032.079-.048.121-.009.024-.018.044-.027.069h0a36.014,36.014,0,0,0-1.029,6.546v1.182a.461.461,0,0,0-.167.231H30.085c-.027-.7-.05-1.258-.069-1.686h-.089c-.008-.213-.015-.4-.022-.553h.085c-.037-.792-.05-.932-.05-.932s.036-.524-.642-.524h-.392v-.5a.438.438,0,0,0-.051-.134,14.967,14.967,0,0,0,2.512-.112,16.546,16.546,0,0,0-2.691-.114v-.081s-.013-.1-.09-.1h-.107c-.079,0-.092.1-.092.1v.08a16.456,16.456,0,0,0-2.69.114,15.055,15.055,0,0,0,2.512.112.414.414,0,0,0-.05.134v.5h-.394c-.677,0-.641.524-.641.524s-.013.139-.049.932h.087c-.008.157-.014.34-.023.553h-.09c-.018.431-.041.992-.069,1.7L4.557,28.649s-1.1.328-1.1,1.146c0,.49.829.945,1.533,1.232a7.534,7.534,0,0,0,.745.26l2.25.049H30.889a.354.354,0,0,0,.284.128,1.7,1.7,0,0,1,.756.691v1.3h0a33.471,33.471,0,0,0,.641,8.263,35.878,35.878,0,0,1,.682,4.15l-6.55,2.94a1.788,1.788,0,0,0-.887,1.418c0,.033,0,.068,0,.1v.017a1.809,1.809,0,0,0,1.462,1.672h4.851a1.474,1.474,0,0,0,.328-.094.7.7,0,0,0,.19-.118,1.45,1.45,0,0,1,1.177-.542h.008C34,52.217,34.39,52.27,34.39,52.27Zm-.133-1.115-.134-3.312s.09-10.41.108-10.673a.534.534,0,0,1,.16-.377.542.542,0,0,1,.16.378c.019.263.106,10.674.106,10.674l-.132,3.312s-.045.2-.134.2S34.257,51.155,34.257,51.155Z" transform="translate(-3.453 -13.141)" fill="#020654"/>
      </g>
    </g>
  </g>
</svg>
