<svg xmlns="http://www.w3.org/2000/svg" width="75" height="75" viewBox="0 0 75 75">
  <g id="Group_1315" data-name="Group 1315" transform="translate(-1088.002 -252.002)">
    <circle id="Ellipse_534" data-name="Ellipse 534" cx="37.5" cy="37.5" r="37.5" transform="translate(1088.002 252.002)" fill="#fafafa"/>
    <g id="Group_1307" data-name="Group 1307" transform="translate(1112.412 261.515)">
      <g id="Group_1306" data-name="Group 1306">
        <path id="Path_9922" data-name="Path 9922" d="M6.066,37.255a74.339,74.339,0,0,0,1.7-8.412c1.631-9.627,2.584-14.363,5.947-14.565l.039-.007h.19l.238.007c3.364.2,4.317,4.938,5.948,14.565a73.038,73.038,0,0,0,1.725,8.463,12.521,12.521,0,0,0,1.906,1.887c0-8.832,0-18.265,0-23.138,0-1.453-.926-5.3-2.379-5.3s-2.379,3.85-2.379,5.3C19.007,4.757,16.034,0,13.947,0S8.9,4.757,8.9,16.056c0-1.453-.926-5.3-2.379-5.3S4.14,14.6,4.14,16.056V39.193A11.567,11.567,0,0,0,6.066,37.255Z" transform="translate(-0.572)" fill="#020654"/>
        <path id="Path_9923" data-name="Path 9923" d="M19.03,40.728c-1.784-5.352-2.973-21.408-5.644-21.408h-.011c-2.671,0-3.86,16.056-5.644,21.408C6.955,43.054,0,46.675,0,50.243v1.784l9.515,1.784V56.19l3.865.929,3.865-.929V53.811l9.515-1.784V50.243C26.76,46.675,19.805,43.054,19.03,40.728Z" transform="translate(0 -3.783)" fill="#020654"/>
        <path id="Path_9924" data-name="Path 9924" d="M4.14,67.677H8.9V60.318L4.14,59.426Z" transform="translate(-0.572 -9.324)" fill="#020654"/>
        <path id="Path_9925" data-name="Path 9925" d="M21.39,67.677h4.757V59.426l-4.757.892Z" transform="translate(-2.955 -9.324)" fill="#020654"/>
      </g>
    </g>
  </g>
</svg>
