<svg xmlns="http://www.w3.org/2000/svg" width="75" height="75" viewBox="0 0 75 75">
  <g id="Group_1314" data-name="Group 1314" transform="translate(-779 -230)">
    <circle id="Ellipse_535" data-name="Ellipse 535" cx="37.5" cy="37.5" r="37.5" transform="translate(779 230)" fill="#fafafa"/>
    <g id="Group_1308" data-name="Group 1308" transform="translate(794.584 238.533)">
      <g id="Group_1308-2" data-name="Group 1308">
        <path id="Path_9926" data-name="Path 9926" d="M21.355,58.77v.448h-.122v-.5a5.968,5.968,0,0,1-.832-1.079,6.708,6.708,0,0,1-.655-1.466c-.079-.324,7.546-7.091,7.546-7.091l-.037-1.414L13.115,50.411v-.692s-.085.78-.438.78-.44-.78-.44-.78V40.224a1.437,1.437,0,0,1,.44-1.056,1.44,1.44,0,0,1,.438,1.056v4.732l.028,0L27.937,32.262a3.563,3.563,0,0,0,.59-2.1C27.173,31,24.6,32.4,24.6,32.4a5.049,5.049,0,0,1-.044-1.346c.1-.46,4.149-5.429,4.149-5.429s1.871-2.5,2.079-4.014,1.076-6.137,1.076-6.137.255-2.736.3-3.29a24.309,24.309,0,0,1,.6-4.071c.376-1.228.746-2.125,1.014-2.87l.085-1.265.036-.76.03-.207.029.208.037.76.084,1.265c.268.746.638,1.643,1.015,2.87a24.238,24.238,0,0,1,.6,4.071c.038.47.229,2.51.284,3.119l.215-.09V14.94a.449.449,0,0,1,.066-.187V13.529h.081v1.224l.054.149a4.145,4.145,0,0,1-.03.622c-.036.12-.18.152-.313.249.2,1.051.843,4.556,1.018,5.834.208,1.51,2.08,4.014,2.08,4.014S43.2,30.59,43.3,31.05a5,5,0,0,1-.046,1.346S40.684,31,39.33,30.158a3.574,3.574,0,0,0,.59,2.1L54.714,44.953l.029,0V40.224a1.442,1.442,0,0,1,.438-1.056,1.44,1.44,0,0,1,.44,1.056v9.495s-.085.78-.44.78-.438-.78-.438-.78v.693L40.6,47.666l-.036,1.414s7.626,6.768,7.545,7.091a6.643,6.643,0,0,1-.655,1.466,6.047,6.047,0,0,1-.832,1.079v.5H46.5v-.448l-.609-.078v.434h-.121v-.448l-.717-.091v.441h-.121v-.457l-4.555-.577L39.357,55.4c-.106.749-.339,2.352-.413,2.571-.1.29-.453.29-.693.29H36.982c-.24,0-.595,0-.693-.29-.065-.187-.241-1.37-.357-2.182h0l-.193,1.519c-.1.471-.314.606-.647.633,0,0-.244,2.814-1.162,3.432-.918-.618-1.162-3.432-1.162-3.432-.333-.027-.545-.162-.647-.633l-.193-1.519c-.117.812-.293,2-.358,2.182-.1.29-.45.29-.692.29h-1.27c-.239,0-.594,0-.692-.29-.076-.22-.307-1.824-.412-2.572l-1.025,2.592-4.553.577v.457H22.8v-.441l-.717.091v.448h-.12v-.434Z" transform="translate(-12.237 -3.006)" fill="#020654" fill-rule="evenodd"/>
      </g>
    </g>
  </g>
</svg>
