<svg xmlns="http://www.w3.org/2000/svg" width="75" height="75" viewBox="0 0 75 75">
  <g id="Group_1312" data-name="Group 1312" transform="translate(-182 -236)">
    <circle id="Ellipse_533" data-name="Ellipse 533" cx="37.5" cy="37.5" r="37.5" transform="translate(182 236)" fill="#fafafa"/>
    <g id="noun_paper_plane_3532004" data-name="noun_paper plane_3532004" transform="translate(198.1 254.33)">
      <g id="Group_1305" data-name="Group 1305" transform="translate(0)">
        <g id="Group_1304" data-name="Group 1304">
          <path id="Path_9919" data-name="Path 9919" d="M7.909,23.5c0,1.63.937,2.017,2.084.855l6.33-6.406L7.909,14.5Z" transform="translate(5.911 12.185)" fill="#020654"/>
          <path id="Path_9920" data-name="Path 9920" d="M35.729,3.507,8.359,28l16.946,6.949A2.468,2.468,0,0,0,28.741,33.2L35.667,4.4A2.508,2.508,0,0,0,35.729,3.507Z" transform="translate(6.512 -2.484)" fill="#020654"/>
          <path id="Path_9921" data-name="Path 9921" d="M42.15,3.309,3.1,20.632c-1.49.66-1.475,1.709.034,2.324l12.212,5.011,27.811-24.9A2.447,2.447,0,0,0,42.15,3.309Z" transform="translate(-1.989 -3.069)" fill="#020654"/>
        </g>
      </g>
    </g>
  </g>
</svg>
