<svg width="101" height="52" viewBox="0 0 101 52" fill="none" xmlns="http://www.w3.org/2000/svg">
<path d="M59.5714 19V15.4286H56V14.5714H59.5714V11H60.4286V14.5714H64V15.4286H60.4286V19H59.5714Z" fill="#3A4759"/>
<path d="M38.9335 20.7402H36.5501L40.8895 8.41398H43.6461L47.9916 20.7402H45.6082L42.3159 10.9418H42.2196L38.9335 20.7402ZM39.0117 15.9072H45.5119V17.7008H39.0117V15.9072Z" fill="#3A4759"/>
<path d="M51.4993 7.18182V13H50.7947V7.92045H50.7607L49.3402 8.86364V8.14773L50.7947 7.18182H51.4993Z" fill="#3A4759"/>
<path d="M49.4538 21.8889V21.3776L51.3743 19.2753C51.5997 19.0291 51.7853 18.8151 51.9311 18.6332C52.0769 18.4495 52.1849 18.2772 52.255 18.1162C52.3269 17.9533 52.3629 17.7829 52.3629 17.6048C52.3629 17.4003 52.3137 17.2232 52.2152 17.0736C52.1186 16.924 51.986 16.8084 51.8175 16.727C51.6489 16.6455 51.4595 16.6048 51.2493 16.6048C51.0258 16.6048 50.8307 16.6512 50.6641 16.744C50.4993 16.8349 50.3714 16.9628 50.2805 17.1276C50.1915 17.2923 50.147 17.4855 50.147 17.7071H49.4766C49.4766 17.3662 49.5552 17.0669 49.7124 16.8094C49.8696 16.5518 50.0836 16.351 50.3544 16.2071C50.6271 16.0632 50.933 15.9912 51.272 15.9912C51.6129 15.9912 51.915 16.0632 52.1783 16.2071C52.4415 16.351 52.648 16.5452 52.7976 16.7895C52.9472 17.0338 53.022 17.3056 53.022 17.6048C53.022 17.8188 52.9832 18.0281 52.9055 18.2327C52.8298 18.4353 52.6972 18.6616 52.5078 18.9116C52.3203 19.1597 52.0599 19.4628 51.7266 19.8207L50.4197 21.2185V21.2639H53.1243V21.8889H49.4538Z" fill="#3A4759"/>
<path d="M9.42614 40H8.19318C8.12027 39.6454 7.99266 39.3338 7.81037 39.0653C7.63139 38.7969 7.41264 38.5715 7.15412 38.3892C6.89891 38.2036 6.61553 38.0644 6.30398 37.9716C5.99242 37.8788 5.66761 37.8324 5.32955 37.8324C4.71307 37.8324 4.15459 37.9882 3.65412 38.2997C3.15696 38.6113 2.76089 39.0703 2.46591 39.6768C2.17424 40.2834 2.02841 41.0275 2.02841 41.9091C2.02841 42.7907 2.17424 43.5348 2.46591 44.1413C2.76089 44.7479 3.15696 45.2069 3.65412 45.5185C4.15459 45.83 4.71307 45.9858 5.32955 45.9858C5.66761 45.9858 5.99242 45.9394 6.30398 45.8466C6.61553 45.7538 6.89891 45.6162 7.15412 45.4339C7.41264 45.2483 7.63139 45.0213 7.81037 44.7528C7.99266 44.4811 8.12027 44.1695 8.19318 43.8182H9.42614C9.33333 44.3385 9.1643 44.8042 8.91903 45.2152C8.67377 45.6262 8.36885 45.9759 8.00426 46.2642C7.63968 46.5492 7.23035 46.7663 6.77628 46.9155C6.32552 47.0646 5.84328 47.1392 5.32955 47.1392C4.46117 47.1392 3.68892 46.9271 3.01278 46.5028C2.33665 46.0786 1.80469 45.4754 1.4169 44.6932C1.02912 43.911 0.835227 42.983 0.835227 41.9091C0.835227 40.8352 1.02912 39.9072 1.4169 39.125C1.80469 38.3428 2.33665 37.7396 3.01278 37.3153C3.68892 36.8911 4.46117 36.679 5.32955 36.679C5.84328 36.679 6.32552 36.7536 6.77628 36.9027C7.23035 37.0518 7.63968 37.2706 8.00426 37.5589C8.36885 37.844 8.67377 38.192 8.91903 38.603C9.1643 39.0107 9.33333 39.4763 9.42614 40ZM14.3617 47.1591C13.6723 47.1591 13.0674 46.995 12.5471 46.6669C12.03 46.3388 11.6257 45.8797 11.334 45.2898C11.0456 44.6998 10.9015 44.0104 10.9015 43.2216C10.9015 42.4261 11.0456 41.7318 11.334 41.1385C11.6257 40.5452 12.03 40.0845 12.5471 39.7564C13.0674 39.4283 13.6723 39.2642 14.3617 39.2642C15.0511 39.2642 15.6543 39.4283 16.1713 39.7564C16.6917 40.0845 17.0961 40.5452 17.3844 41.1385C17.6761 41.7318 17.8219 42.4261 17.8219 43.2216C17.8219 44.0104 17.6761 44.6998 17.3844 45.2898C17.0961 45.8797 16.6917 46.3388 16.1713 46.6669C15.6543 46.995 15.0511 47.1591 14.3617 47.1591ZM14.3617 46.1051C14.8854 46.1051 15.3162 45.9709 15.6543 45.7024C15.9924 45.4339 16.2426 45.081 16.405 44.6435C16.5674 44.206 16.6486 43.732 16.6486 43.2216C16.6486 42.7112 16.5674 42.2356 16.405 41.7947C16.2426 41.3539 15.9924 40.9976 15.6543 40.7259C15.3162 40.4541 14.8854 40.3182 14.3617 40.3182C13.838 40.3182 13.4071 40.4541 13.0691 40.7259C12.731 40.9976 12.4808 41.3539 12.3184 41.7947C12.156 42.2356 12.0748 42.7112 12.0748 43.2216C12.0748 43.732 12.156 44.206 12.3184 44.6435C12.4808 45.081 12.731 45.4339 13.0691 45.7024C13.4071 45.9709 13.838 46.1051 14.3617 46.1051ZM24.4254 43.8778V39.3636H25.5987V47H24.4254V45.7074H24.3459C24.1669 46.0952 23.8885 46.425 23.5107 46.6967C23.1328 46.9652 22.6555 47.0994 22.0788 47.0994C21.6016 47.0994 21.1773 46.995 20.8061 46.7862C20.4349 46.5741 20.1432 46.2559 19.9311 45.8317C19.719 45.4041 19.6129 44.8655 19.6129 44.2159V39.3636H20.7862V44.1364C20.7862 44.6932 20.942 45.1373 21.2536 45.4688C21.5684 45.8002 21.9695 45.9659 22.4567 45.9659C22.7483 45.9659 23.045 45.8913 23.3466 45.7422C23.6515 45.593 23.9067 45.3643 24.1122 45.0561C24.321 44.7479 24.4254 44.3551 24.4254 43.8778ZM28.921 42.4062V47H27.7477V39.3636H28.8812V40.5568H28.9806C29.1596 40.169 29.4314 39.8575 29.796 39.6222C30.1606 39.3835 30.6312 39.2642 31.2079 39.2642C31.725 39.2642 32.1774 39.3703 32.5652 39.5824C32.9529 39.7912 33.2546 40.1094 33.47 40.5369C33.6854 40.9612 33.7931 41.4981 33.7931 42.1477V47H32.6199V42.2273C32.6199 41.6274 32.4641 41.16 32.1525 40.8253C31.841 40.4872 31.4134 40.3182 30.8699 40.3182C30.4953 40.3182 30.1606 40.3994 29.8656 40.5618C29.5739 40.7242 29.3436 40.9612 29.1745 41.2727C29.0055 41.5843 28.921 41.9621 28.921 42.4062ZM39.2582 39.3636V40.358H35.3008V39.3636H39.2582ZM36.4542 37.5341H37.6275V44.8125C37.6275 45.1439 37.6755 45.3925 37.7717 45.5582C37.8711 45.7206 37.997 45.83 38.1495 45.8864C38.3053 45.9394 38.4693 45.9659 38.6417 45.9659C38.771 45.9659 38.877 45.9593 38.9599 45.946C39.0427 45.9295 39.109 45.9162 39.1587 45.9062L39.3974 46.9602C39.3178 46.9901 39.2068 47.0199 39.0643 47.0497C38.9218 47.0829 38.7411 47.0994 38.5224 47.0994C38.1909 47.0994 37.8661 47.0282 37.5479 46.8857C37.2331 46.7431 36.9712 46.526 36.7624 46.2344C36.5569 45.9427 36.4542 45.5748 36.4542 45.1307V37.5341ZM44.9606 47V39.3636H46.0941V40.5568H46.1935C46.3526 40.1491 46.6095 39.8326 46.9641 39.6072C47.3188 39.3786 47.7447 39.2642 48.2418 39.2642C48.7456 39.2642 49.1649 39.3786 49.4996 39.6072C49.8377 39.8326 50.1012 40.1491 50.2901 40.5568H50.3697C50.5652 40.1624 50.8585 39.8492 51.2496 39.6172C51.6407 39.3819 52.1097 39.2642 52.6566 39.2642C53.3394 39.2642 53.8978 39.478 54.332 39.9055C54.7662 40.3298 54.9833 40.991 54.9833 41.8892V47H53.81V41.8892C53.81 41.3258 53.6559 40.9231 53.3477 40.6811C53.0394 40.4392 52.6765 40.3182 52.2589 40.3182C51.7219 40.3182 51.306 40.4806 51.011 40.8054C50.716 41.1269 50.5685 41.5346 50.5685 42.0284V47H49.3754V41.7699C49.3754 41.3357 49.2345 40.986 48.9528 40.7209C48.671 40.4524 48.3081 40.3182 47.864 40.3182C47.5591 40.3182 47.274 40.3994 47.0089 40.5618C46.747 40.7242 46.5349 40.9496 46.3725 41.2379C46.2134 41.523 46.1339 41.8527 46.1339 42.2273V47H44.9606ZM59.3757 47.179C58.8918 47.179 58.4527 47.0878 58.0582 46.9055C57.6638 46.7199 57.3506 46.4531 57.1186 46.1051C56.8866 45.7538 56.7706 45.3295 56.7706 44.8324C56.7706 44.3949 56.8568 44.0402 57.0291 43.7685C57.2015 43.4934 57.4318 43.2779 57.7202 43.1222C58.0085 42.9664 58.3267 42.8504 58.6747 42.7741C59.026 42.6946 59.379 42.6316 59.7337 42.5852C60.1977 42.5256 60.5739 42.4808 60.8622 42.451C61.1539 42.4179 61.366 42.3632 61.4986 42.2869C61.6345 42.2107 61.7024 42.0781 61.7024 41.8892V41.8494C61.7024 41.3589 61.5682 40.9777 61.2997 40.706C61.0346 40.4342 60.6319 40.2983 60.0916 40.2983C59.5315 40.2983 59.0923 40.4209 58.7741 40.6662C58.456 40.9115 58.2322 41.1733 58.103 41.4517L56.9893 41.054C57.1882 40.59 57.4534 40.2287 57.7848 39.9702C58.1196 39.7083 58.4841 39.526 58.8786 39.4233C59.2763 39.3172 59.6674 39.2642 60.0518 39.2642C60.2971 39.2642 60.5788 39.294 60.897 39.3537C61.2185 39.41 61.5284 39.5277 61.8267 39.7067C62.1283 39.8857 62.3786 40.1558 62.5774 40.517C62.7763 40.8783 62.8757 41.3622 62.8757 41.9688V47H61.7024V45.9659H61.6428C61.5632 46.1316 61.4306 46.3089 61.245 46.4979C61.0594 46.6868 60.8125 46.8475 60.5043 46.9801C60.196 47.1127 59.8198 47.179 59.3757 47.179ZM59.5547 46.125C60.0187 46.125 60.4098 46.0339 60.728 45.8516C61.0495 45.6693 61.2914 45.4339 61.4538 45.1456C61.6196 44.8572 61.7024 44.554 61.7024 44.2358V43.1619C61.6527 43.2216 61.5433 43.2763 61.3743 43.326C61.2086 43.3724 61.0163 43.4138 60.7976 43.4503C60.5821 43.4834 60.3717 43.5133 60.1662 43.5398C59.964 43.563 59.8 43.5829 59.674 43.5994C59.3691 43.6392 59.084 43.7038 58.8189 43.7933C58.5571 43.8795 58.3449 44.0104 58.1825 44.1861C58.0234 44.3584 57.9439 44.5937 57.9439 44.892C57.9439 45.2997 58.0947 45.608 58.3963 45.8168C58.7012 46.0223 59.0874 46.125 59.5547 46.125ZM68.3382 39.3636V40.358H64.3809V39.3636H68.3382ZM65.5343 37.5341H66.7076V44.8125C66.7076 45.1439 66.7556 45.3925 66.8517 45.5582C66.9512 45.7206 67.0771 45.83 67.2296 45.8864C67.3854 45.9394 67.5494 45.9659 67.7218 45.9659C67.851 45.9659 67.9571 45.9593 68.04 45.946C68.1228 45.9295 68.1891 45.9162 68.2388 45.9062L68.4775 46.9602C68.3979 46.9901 68.2869 47.0199 68.1444 47.0497C68.0018 47.0829 67.8212 47.0994 67.6025 47.0994C67.271 47.0994 66.9462 47.0282 66.628 46.8857C66.3132 46.7431 66.0513 46.526 65.8425 46.2344C65.637 45.9427 65.5343 45.5748 65.5343 45.1307V37.5341ZM73.1234 47.1591C72.4075 47.1591 71.791 46.9901 71.274 46.652C70.7569 46.3139 70.3592 45.8482 70.0808 45.255C69.8024 44.6617 69.6632 43.9839 69.6632 43.2216C69.6632 42.446 69.8057 41.7616 70.0907 41.1683C70.3791 40.5717 70.7801 40.1061 71.2939 39.7713C71.8109 39.4332 72.4141 39.2642 73.1035 39.2642C73.6404 39.2642 74.1243 39.3636 74.5552 39.5625C74.9861 39.7614 75.3391 40.0398 75.6142 40.3977C75.8893 40.7557 76.06 41.1733 76.1262 41.6506H74.9529C74.8635 41.3026 74.6646 40.9943 74.3564 40.7259C74.0514 40.4541 73.6404 40.3182 73.1234 40.3182C72.666 40.3182 72.265 40.4375 71.9203 40.6761C71.5789 40.9115 71.3121 41.2446 71.1199 41.6754C70.9309 42.103 70.8365 42.6051 70.8365 43.1818C70.8365 43.7718 70.9293 44.2855 71.1149 44.723C71.3038 45.1605 71.569 45.5002 71.9103 45.7422C72.255 45.9841 72.6594 46.1051 73.1234 46.1051C73.4283 46.1051 73.7051 46.0521 73.9537 45.946C74.2022 45.84 74.4127 45.6875 74.585 45.4886C74.7574 45.2898 74.88 45.0511 74.9529 44.7727H76.1262C76.06 45.2235 75.8959 45.6295 75.6341 45.9908C75.3755 46.3487 75.0325 46.6338 74.6049 46.8459C74.1807 47.0547 73.6868 47.1591 73.1234 47.1591ZM79.0147 42.4062V47H77.8414V36.8182H79.0147V40.5568H79.1142C79.2931 40.1624 79.5616 39.8492 79.9196 39.6172C80.2808 39.3819 80.7614 39.2642 81.3613 39.2642C81.8817 39.2642 82.3374 39.3686 82.7285 39.5774C83.1196 39.7829 83.4229 40.0994 83.6383 40.527C83.8571 40.9512 83.9664 41.4915 83.9664 42.1477V47H82.7931V42.2273C82.7931 41.6207 82.6357 41.1518 82.3208 40.8203C82.0093 40.4856 81.5768 40.3182 81.0233 40.3182C80.6388 40.3182 80.2941 40.3994 79.9892 40.5618C79.6876 40.7242 79.4489 40.9612 79.2733 41.2727C79.1009 41.5843 79.0147 41.9621 79.0147 42.4062ZM89.3146 47.1591C88.5788 47.1591 87.9441 46.9967 87.4105 46.6719C86.8802 46.3438 86.4709 45.8864 86.1825 45.2997C85.8975 44.7098 85.755 44.0237 85.755 43.2415C85.755 42.4593 85.8975 41.7699 86.1825 41.1733C86.4709 40.5734 86.8719 40.1061 87.3857 39.7713C87.9027 39.4332 88.5059 39.2642 89.1953 39.2642C89.593 39.2642 89.9858 39.3305 90.3736 39.4631C90.7614 39.5956 91.1143 39.8111 91.4325 40.1094C91.7507 40.4044 92.0043 40.7955 92.1932 41.2827C92.3821 41.7699 92.4766 42.3698 92.4766 43.0824V43.5795H86.5902V42.5653H91.2834C91.2834 42.1345 91.1972 41.75 91.0249 41.4119C90.8558 41.0739 90.6139 40.8071 90.299 40.6115C89.9875 40.416 89.6196 40.3182 89.1953 40.3182C88.728 40.3182 88.3236 40.4342 87.9822 40.6662C87.6442 40.8949 87.384 41.1932 87.2017 41.5611C87.0194 41.929 86.9283 42.3234 86.9283 42.7443V43.4205C86.9283 43.9972 87.0277 44.486 87.2266 44.8871C87.4287 45.2848 87.7088 45.5881 88.0668 45.7969C88.4247 46.0024 88.8407 46.1051 89.3146 46.1051C89.6229 46.1051 89.9013 46.062 90.1499 45.9759C90.4018 45.8864 90.6188 45.7538 90.8011 45.5781C90.9834 45.3991 91.1243 45.1771 91.2237 44.9119L92.3572 45.2301C92.2379 45.6146 92.0374 45.9527 91.7557 46.2443C91.474 46.5327 91.1259 46.758 90.7116 46.9205C90.2973 47.0795 89.8317 47.1591 89.3146 47.1591ZM99.6705 41.0739L98.6165 41.3722C98.5502 41.1965 98.4524 41.0258 98.3232 40.8601C98.1972 40.6911 98.0249 40.5518 97.8061 40.4425C97.5874 40.3331 97.3073 40.2784 96.9659 40.2784C96.4986 40.2784 96.1091 40.3861 95.7976 40.6016C95.4893 40.8137 95.3352 41.0838 95.3352 41.4119C95.3352 41.7036 95.4413 41.9339 95.6534 42.103C95.8655 42.272 96.197 42.4129 96.6477 42.5256L97.7812 42.804C98.464 42.9697 98.9728 43.2232 99.3075 43.5646C99.6423 43.9027 99.8097 44.3385 99.8097 44.8722C99.8097 45.3097 99.6837 45.7008 99.4318 46.0455C99.1832 46.3902 98.8352 46.6619 98.3878 46.8608C97.9403 47.0597 97.42 47.1591 96.8267 47.1591C96.0478 47.1591 95.4032 46.9901 94.8928 46.652C94.3823 46.3139 94.0592 45.8201 93.9233 45.1705L95.0369 44.892C95.143 45.303 95.3435 45.6113 95.6385 45.8168C95.9368 46.0223 96.3262 46.125 96.8068 46.125C97.3537 46.125 97.7879 46.009 98.1094 45.777C98.4342 45.5417 98.5966 45.2599 98.5966 44.9318C98.5966 44.6667 98.5038 44.4446 98.3182 44.2656C98.1326 44.0833 97.8475 43.9474 97.4631 43.858L96.1903 43.5597C95.491 43.3939 94.9773 43.1371 94.6491 42.7891C94.3243 42.4377 94.1619 41.9986 94.1619 41.4716C94.1619 41.0407 94.2829 40.6596 94.5249 40.3281C94.7701 39.9967 95.1032 39.7365 95.5241 39.5476C95.9484 39.3587 96.429 39.2642 96.9659 39.2642C97.7216 39.2642 98.3149 39.4299 98.7457 39.7614C99.1799 40.0928 99.4882 40.5303 99.6705 41.0739Z" fill="#3A4759"/>
</svg>
