<svg width="48" height="52" viewBox="0 0 48 52" fill="none" xmlns="http://www.w3.org/2000/svg">
<path d="M5.25 23.75V6.25H27.75V23.75H5.25ZM7.125 21.875H12.125V8.125H7.125V21.875ZM14 21.875H19V8.125H14V21.875ZM20.875 21.875H25.875V8.125H20.875V21.875Z" fill="#3A4759"/>
<rect x="11" y="5" width="11" height="17" fill="#3A4759"/>
<path d="M21.0492 11.8674L20.2546 12.7395L17.0762 9.33229L17.0762 20L15.9411 20L15.9411 9.33229L12.7438 12.7598L11.9492 11.8877L16.5087 7L21.0492 11.8674Z" fill="white"/>
<path d="M39 16.6094L35.25 12.8594L35.9219 12.1875L39 15.2812L42.0781 12.2031L42.75 12.875L39 16.6094Z" fill="#3A4759"/>
<path d="M1.23295 47V36.8182H7.37784V37.9119H2.46591V41.3523H7.05966V42.446H2.46591V45.9062H7.45739V47H1.23295ZM10.3161 39.3636L12.1456 42.4858L13.9751 39.3636H15.3274L12.8615 43.1818L15.3274 47H13.9751L12.1456 44.0369L10.3161 47H8.96378L11.3899 43.1818L8.96378 39.3636H10.3161ZM20.3226 39.3636V40.358H16.3652V39.3636H20.3226ZM17.5186 37.5341H18.6919V44.8125C18.6919 45.1439 18.74 45.3925 18.8361 45.5582C18.9355 45.7206 19.0615 45.83 19.214 45.8864C19.3697 45.9394 19.5338 45.9659 19.7061 45.9659C19.8354 45.9659 19.9415 45.9593 20.0243 45.946C20.1072 45.9295 20.1735 45.9162 20.2232 45.9062L20.4618 46.9602C20.3823 46.9901 20.2712 47.0199 20.1287 47.0497C19.9862 47.0829 19.8056 47.0994 19.5868 47.0994C19.2554 47.0994 18.9306 47.0282 18.6124 46.8857C18.2975 46.7431 18.0357 46.526 17.8269 46.2344C17.6214 45.9427 17.5186 45.5748 17.5186 45.1307V37.5341ZM22.0875 47V39.3636H23.2211V40.517H23.3006C23.4398 40.1392 23.6917 39.8326 24.0563 39.5973C24.4209 39.362 24.8319 39.2443 25.2892 39.2443C25.3754 39.2443 25.4831 39.246 25.6124 39.2493C25.7417 39.2526 25.8394 39.2576 25.9057 39.2642V40.4574C25.8659 40.4474 25.7748 40.4325 25.6323 40.4126C25.4931 40.3894 25.3456 40.3778 25.1898 40.3778C24.8186 40.3778 24.4872 40.4557 24.1955 40.6115C23.9071 40.764 23.6784 40.9761 23.5094 41.2479C23.3437 41.5163 23.2608 41.8229 23.2608 42.1676V47H22.0875ZM29.5437 47.179C29.0598 47.179 28.6206 47.0878 28.2262 46.9055C27.8318 46.7199 27.5186 46.4531 27.2866 46.1051C27.0546 45.7538 26.9386 45.3295 26.9386 44.8324C26.9386 44.3949 27.0247 44.0402 27.1971 43.7685C27.3694 43.4934 27.5998 43.2779 27.8881 43.1222C28.1765 42.9664 28.4947 42.8504 28.8427 42.7741C29.194 42.6946 29.547 42.6316 29.9016 42.5852C30.3656 42.5256 30.7418 42.4808 31.0302 42.451C31.3219 42.4179 31.534 42.3632 31.6665 42.2869C31.8024 42.2107 31.8704 42.0781 31.8704 41.8892V41.8494C31.8704 41.3589 31.7362 40.9777 31.4677 40.706C31.2025 40.4342 30.7998 40.2983 30.2596 40.2983C29.6995 40.2983 29.2603 40.4209 28.9421 40.6662C28.6239 40.9115 28.4002 41.1733 28.271 41.4517L27.1573 41.054C27.3562 40.59 27.6213 40.2287 27.9528 39.9702C28.2875 39.7083 28.6521 39.526 29.0465 39.4233C29.4442 39.3172 29.8353 39.2642 30.2198 39.2642C30.4651 39.2642 30.7468 39.294 31.065 39.3537C31.3865 39.41 31.6964 39.5277 31.9947 39.7067C32.2963 39.8857 32.5465 40.1558 32.7454 40.517C32.9442 40.8783 33.0437 41.3622 33.0437 41.9688V47H31.8704V45.9659H31.8107C31.7312 46.1316 31.5986 46.3089 31.413 46.4979C31.2274 46.6868 30.9805 46.8475 30.6722 46.9801C30.364 47.1127 29.9878 47.179 29.5437 47.179ZM29.7227 46.125C30.1867 46.125 30.5778 46.0339 30.896 45.8516C31.2174 45.6693 31.4594 45.4339 31.6218 45.1456C31.7875 44.8572 31.8704 44.554 31.8704 44.2358V43.1619C31.8207 43.2216 31.7113 43.2763 31.5423 43.326C31.3765 43.3724 31.1843 43.4138 30.9656 43.4503C30.7501 43.4834 30.5397 43.5133 30.3342 43.5398C30.132 43.563 29.9679 43.5829 29.842 43.5994C29.5371 43.6392 29.252 43.7038 28.9869 43.7933C28.725 43.8795 28.5129 44.0104 28.3505 44.1861C28.1914 44.3584 28.1119 44.5937 28.1119 44.892C28.1119 45.2997 28.2627 45.608 28.5643 45.8168C28.8692 46.0223 29.2553 46.125 29.7227 46.125ZM38.2875 47.1591C37.5716 47.1591 36.9551 46.9901 36.438 46.652C35.921 46.3139 35.5233 45.8482 35.2449 45.255C34.9664 44.6617 34.8272 43.9839 34.8272 43.2216C34.8272 42.446 34.9698 41.7616 35.2548 41.1683C35.5431 40.5717 35.9442 40.1061 36.4579 39.7713C36.975 39.4332 37.5782 39.2642 38.2676 39.2642C38.8045 39.2642 39.2884 39.3636 39.7193 39.5625C40.1502 39.7614 40.5031 40.0398 40.7782 40.3977C41.0533 40.7557 41.224 41.1733 41.2903 41.6506H40.117C40.0275 41.3026 39.8287 40.9943 39.5204 40.7259C39.2155 40.4541 38.8045 40.3182 38.2875 40.3182C37.8301 40.3182 37.429 40.4375 37.0843 40.6761C36.743 40.9115 36.4761 41.2446 36.2839 41.6754C36.095 42.103 36.0005 42.6051 36.0005 43.1818C36.0005 43.7718 36.0933 44.2855 36.2789 44.723C36.4679 45.1605 36.733 45.5002 37.0744 45.7422C37.4191 45.9841 37.8234 46.1051 38.2875 46.1051C38.5924 46.1051 38.8691 46.0521 39.1177 45.946C39.3663 45.84 39.5768 45.6875 39.7491 45.4886C39.9215 45.2898 40.0441 45.0511 40.117 44.7727H41.2903C41.224 45.2235 41.06 45.6295 40.7981 45.9908C40.5396 46.3487 40.1966 46.6338 39.769 46.8459C39.3448 47.0547 38.8509 47.1591 38.2875 47.1591ZM46.3265 39.3636V40.358H42.3691V39.3636H46.3265ZM43.5225 37.5341H44.6958V44.8125C44.6958 45.1439 44.7439 45.3925 44.84 45.5582C44.9395 45.7206 45.0654 45.83 45.2179 45.8864C45.3736 45.9394 45.5377 45.9659 45.71 45.9659C45.8393 45.9659 45.9454 45.9593 46.0282 45.946C46.1111 45.9295 46.1774 45.9162 46.2271 45.9062L46.4657 46.9602C46.3862 46.9901 46.2752 47.0199 46.1326 47.0497C45.9901 47.0829 45.8095 47.0994 45.5907 47.0994C45.2593 47.0994 44.9345 47.0282 44.6163 46.8857C44.3014 46.7431 44.0396 46.526 43.8308 46.2344C43.6253 45.9427 43.5225 45.5748 43.5225 45.1307V37.5341Z" fill="#3A4759"/>
</svg>
