<svg width="69" height="52" viewBox="0 0 69 52" fill="none" xmlns="http://www.w3.org/2000/svg">
<path d="M25.7513 25C25.3971 25 25.1003 24.8802 24.8607 24.6406C24.6211 24.401 24.5013 24.1042 24.5013 23.75V16.25L17.0326 6.71875C16.7409 6.36458 16.6992 5.98958 16.9076 5.59375C17.1159 5.19792 17.4388 5 17.8763 5H36.1263C36.5638 5 36.8867 5.19792 37.0951 5.59375C37.3034 5.98958 37.2617 6.36458 36.9701 6.71875L29.5013 16.25V23.75C29.5013 24.1042 29.3815 24.401 29.1419 24.6406C28.9023 24.8802 28.6055 25 28.2513 25H25.7513ZM27.0013 16.375L34.5013 6.875H19.5013L27.0013 16.375Z" fill="#3A4759"/>
<path d="M49.5 16.6094L45.75 12.8594L46.4219 12.1875L49.5 15.2812L52.5781 12.2031L53.25 12.875L49.5 16.6094Z" fill="#3A4759"/>
<path d="M1.23295 47V36.8182H7.33807V37.9119H2.46591V41.3523H6.88068V42.446H2.46591V47H1.23295ZM9.29066 47V39.3636H10.464V47H9.29066ZM9.88725 38.0909C9.65856 38.0909 9.46135 38.013 9.29563 37.8572C9.13323 37.7015 9.05202 37.5142 9.05202 37.2955C9.05202 37.0767 9.13323 36.8894 9.29563 36.7337C9.46135 36.5779 9.65856 36.5 9.88725 36.5C10.1159 36.5 10.3115 36.5779 10.4739 36.7337C10.6396 36.8894 10.7225 37.0767 10.7225 37.2955C10.7225 37.5142 10.6396 37.7015 10.4739 37.8572C10.3115 38.013 10.1159 38.0909 9.88725 38.0909ZM13.7862 36.8182V47H12.6129V36.8182H13.7862ZM19.2562 39.3636V40.358H15.2988V39.3636H19.2562ZM16.4522 37.5341H17.6255V44.8125C17.6255 45.1439 17.6736 45.3925 17.7697 45.5582C17.8691 45.7206 17.9951 45.83 18.1475 45.8864C18.3033 45.9394 18.4674 45.9659 18.6397 45.9659C18.769 45.9659 18.8751 45.9593 18.9579 45.946C19.0408 45.9295 19.1071 45.9162 19.1568 45.9062L19.3954 46.9602C19.3159 46.9901 19.2048 47.0199 19.0623 47.0497C18.9198 47.0829 18.7392 47.0994 18.5204 47.0994C18.189 47.0994 17.8642 47.0282 17.546 46.8857C17.2311 46.7431 16.9693 46.526 16.7605 46.2344C16.555 45.9427 16.4522 45.5748 16.4522 45.1307V37.5341ZM24.1408 47.1591C23.405 47.1591 22.7703 46.9967 22.2367 46.6719C21.7064 46.3438 21.2971 45.8864 21.0087 45.2997C20.7237 44.7098 20.5811 44.0237 20.5811 43.2415C20.5811 42.4593 20.7237 41.7699 21.0087 41.1733C21.2971 40.5734 21.6981 40.1061 22.2118 39.7713C22.7289 39.4332 23.3321 39.2642 24.0215 39.2642C24.4192 39.2642 24.812 39.3305 25.1998 39.4631C25.5875 39.5956 25.9405 39.8111 26.2587 40.1094C26.5769 40.4044 26.8304 40.7955 27.0194 41.2827C27.2083 41.7699 27.3027 42.3698 27.3027 43.0824V43.5795H21.4164V42.5653H26.1096C26.1096 42.1345 26.0234 41.75 25.851 41.4119C25.682 41.0739 25.44 40.8071 25.1252 40.6115C24.8136 40.416 24.4457 40.3182 24.0215 40.3182C23.5542 40.3182 23.1498 40.4342 22.8084 40.6662C22.4703 40.8949 22.2102 41.1932 22.0279 41.5611C21.8456 41.929 21.7544 42.3234 21.7544 42.7443V43.4205C21.7544 43.9972 21.8539 44.486 22.0527 44.8871C22.2549 45.2848 22.535 45.5881 22.8929 45.7969C23.2509 46.0024 23.6668 46.1051 24.1408 46.1051C24.449 46.1051 24.7275 46.062 24.976 45.9759C25.2279 45.8864 25.445 45.7538 25.6273 45.5781C25.8096 45.3991 25.9505 45.1771 26.0499 44.9119L27.1834 45.2301C27.0641 45.6146 26.8636 45.9527 26.5819 46.2443C26.3001 46.5327 25.9521 46.758 25.5378 46.9205C25.1235 47.0795 24.6578 47.1591 24.1408 47.1591ZM29.0875 47V39.3636H30.2211V40.517H30.3006C30.4398 40.1392 30.6917 39.8326 31.0563 39.5973C31.4209 39.362 31.8319 39.2443 32.2892 39.2443C32.3754 39.2443 32.4831 39.246 32.6124 39.2493C32.7417 39.2526 32.8394 39.2576 32.9057 39.2642V40.4574C32.8659 40.4474 32.7748 40.4325 32.6323 40.4126C32.4931 40.3894 32.3456 40.3778 32.1898 40.3778C31.8186 40.3778 31.4872 40.4557 31.1955 40.6115C30.9071 40.764 30.6784 40.9761 30.5094 41.2479C30.3437 41.5163 30.2608 41.8229 30.2608 42.1676V47H29.0875ZM38.234 47V39.3636H39.3675V40.517H39.4471C39.5863 40.1392 39.8382 39.8326 40.2028 39.5973C40.5674 39.362 40.9783 39.2443 41.4357 39.2443C41.5219 39.2443 41.6296 39.246 41.7589 39.2493C41.8881 39.2526 41.9859 39.2576 42.0522 39.2642V40.4574C42.0124 40.4474 41.9213 40.4325 41.7788 40.4126C41.6396 40.3894 41.4921 40.3778 41.3363 40.3778C40.9651 40.3778 40.6336 40.4557 40.342 40.6115C40.0536 40.764 39.8249 40.9761 39.6559 41.2479C39.4902 41.5163 39.4073 41.8229 39.4073 42.1676V47H38.234ZM46.3129 47.1591C45.6235 47.1591 45.0186 46.995 44.4982 46.6669C43.9812 46.3388 43.5768 45.8797 43.2852 45.2898C42.9968 44.6998 42.8526 44.0104 42.8526 43.2216C42.8526 42.4261 42.9968 41.7318 43.2852 41.1385C43.5768 40.5452 43.9812 40.0845 44.4982 39.7564C45.0186 39.4283 45.6235 39.2642 46.3129 39.2642C47.0022 39.2642 47.6055 39.4283 48.1225 39.7564C48.6429 40.0845 49.0472 40.5452 49.3356 41.1385C49.6272 41.7318 49.7731 42.4261 49.7731 43.2216C49.7731 44.0104 49.6272 44.6998 49.3356 45.2898C49.0472 45.8797 48.6429 46.3388 48.1225 46.6669C47.6055 46.995 47.0022 47.1591 46.3129 47.1591ZM46.3129 46.1051C46.8365 46.1051 47.2674 45.9709 47.6055 45.7024C47.9435 45.4339 48.1938 45.081 48.3562 44.6435C48.5186 44.206 48.5998 43.732 48.5998 43.2216C48.5998 42.7112 48.5186 42.2356 48.3562 41.7947C48.1938 41.3539 47.9435 40.9976 47.6055 40.7259C47.2674 40.4541 46.8365 40.3182 46.3129 40.3182C45.7892 40.3182 45.3583 40.4541 45.0202 40.7259C44.6822 40.9976 44.4319 41.3539 44.2695 41.7947C44.1071 42.2356 44.0259 42.7112 44.0259 43.2216C44.0259 43.732 44.1071 44.206 44.2695 44.6435C44.4319 45.081 44.6822 45.4339 45.0202 45.7024C45.3583 45.9709 45.7892 46.1051 46.3129 46.1051ZM53.0344 47L50.7077 39.3636H51.9407L53.5913 45.2102H53.6708L55.3015 39.3636H56.5543L58.1651 45.1903H58.2447L59.8952 39.3636H61.1282L58.8015 47H57.6481L55.9776 41.1335H55.8583L54.1879 47H53.0344ZM68.0884 41.0739L67.0344 41.3722C66.9682 41.1965 66.8704 41.0258 66.7411 40.8601C66.6152 40.6911 66.4428 40.5518 66.2241 40.4425C66.0053 40.3331 65.7253 40.2784 65.3839 40.2784C64.9165 40.2784 64.5271 40.3861 64.2156 40.6016C63.9073 40.8137 63.7532 41.0838 63.7532 41.4119C63.7532 41.7036 63.8593 41.9339 64.0714 42.103C64.2835 42.272 64.6149 42.4129 65.0657 42.5256L66.1992 42.804C66.882 42.9697 67.3907 43.2232 67.7255 43.5646C68.0603 43.9027 68.2276 44.3385 68.2276 44.8722C68.2276 45.3097 68.1017 45.7008 67.8498 46.0455C67.6012 46.3902 67.2532 46.6619 66.8058 46.8608C66.3583 47.0597 65.8379 47.1591 65.2447 47.1591C64.4658 47.1591 63.8211 46.9901 63.3107 46.652C62.8003 46.3139 62.4772 45.8201 62.3413 45.1705L63.4549 44.892C63.561 45.303 63.7615 45.6113 64.0565 45.8168C64.3548 46.0223 64.7442 46.125 65.2248 46.125C65.7717 46.125 66.2058 46.009 66.5273 45.777C66.8522 45.5417 67.0146 45.2599 67.0146 44.9318C67.0146 44.6667 66.9218 44.4446 66.7362 44.2656C66.5505 44.0833 66.2655 43.9474 65.881 43.858L64.6083 43.5597C63.909 43.3939 63.3952 43.1371 63.0671 42.7891C62.7423 42.4377 62.5799 41.9986 62.5799 41.4716C62.5799 41.0407 62.7009 40.6596 62.9428 40.3281C63.1881 39.9967 63.5212 39.7365 63.9421 39.5476C64.3664 39.3587 64.8469 39.2642 65.3839 39.2642C66.1396 39.2642 66.7328 39.4299 67.1637 39.7614C67.5979 40.0928 67.9061 40.5303 68.0884 41.0739Z" fill="#3A4759"/>
</svg>
