<svg width="47" height="52" viewBox="0 0 47 52" fill="none" xmlns="http://www.w3.org/2000/svg">
<path d="M10.5938 23H8.5625L14.4375 7H16.4375L22.3125 23H20.2812L15.5 9.53125H15.375L10.5938 23ZM11.3438 16.75H19.5313V18.4687H11.3438V16.75Z" fill="#3A4759"/>
<path d="M38.5 16.6094L34.75 12.8594L35.4219 12.1875L38.5 15.2812L41.5781 12.2031L42.25 12.875L38.5 16.6094Z" fill="#3A4759"/>
<path d="M1.23295 47V36.8182H7.33807V37.9119H2.46591V41.3523H6.88068V42.446H2.46591V47H1.23295ZM11.8324 47.1591C11.143 47.1591 10.5381 46.995 10.0178 46.6669C9.50071 46.3388 9.09635 45.8797 8.80469 45.2898C8.51634 44.6998 8.37216 44.0104 8.37216 43.2216C8.37216 42.4261 8.51634 41.7318 8.80469 41.1385C9.09635 40.5452 9.50071 40.0845 10.0178 39.7564C10.5381 39.4283 11.143 39.2642 11.8324 39.2642C12.5218 39.2642 13.125 39.4283 13.642 39.7564C14.1624 40.0845 14.5668 40.5452 14.8551 41.1385C15.1468 41.7318 15.2926 42.4261 15.2926 43.2216C15.2926 44.0104 15.1468 44.6998 14.8551 45.2898C14.5668 45.8797 14.1624 46.3388 13.642 46.6669C13.125 46.995 12.5218 47.1591 11.8324 47.1591ZM11.8324 46.1051C12.3561 46.1051 12.7869 45.9709 13.125 45.7024C13.4631 45.4339 13.7133 45.081 13.8757 44.6435C14.0381 44.206 14.1193 43.732 14.1193 43.2216C14.1193 42.7112 14.0381 42.2356 13.8757 41.7947C13.7133 41.3539 13.4631 40.9976 13.125 40.7259C12.7869 40.4541 12.3561 40.3182 11.8324 40.3182C11.3087 40.3182 10.8778 40.4541 10.5398 40.7259C10.2017 40.9976 9.95147 41.3539 9.78906 41.7947C9.62666 42.2356 9.54545 42.7112 9.54545 43.2216C9.54545 43.732 9.62666 44.206 9.78906 44.6435C9.95147 45.081 10.2017 45.4339 10.5398 45.7024C10.8778 45.9709 11.3087 46.1051 11.8324 46.1051ZM17.0836 47V39.3636H18.2172V40.517H18.2967C18.4359 40.1392 18.6878 39.8326 19.0524 39.5973C19.417 39.362 19.8279 39.2443 20.2853 39.2443C20.3715 39.2443 20.4792 39.246 20.6085 39.2493C20.7377 39.2526 20.8355 39.2576 20.9018 39.2642V40.4574C20.862 40.4474 20.7709 40.4325 20.6284 40.4126C20.4892 40.3894 20.3417 40.3778 20.1859 40.3778C19.8147 40.3778 19.4833 40.4557 19.1916 40.6115C18.9032 40.764 18.6745 40.9761 18.5055 41.2479C18.3398 41.5163 18.2569 41.8229 18.2569 42.1676V47H17.0836ZM22.2926 47V39.3636H23.4261V40.5568H23.5256C23.6847 40.1491 23.9415 39.8326 24.2962 39.6072C24.6508 39.3786 25.0767 39.2642 25.5739 39.2642C26.0777 39.2642 26.4969 39.3786 26.8317 39.6072C27.1697 39.8326 27.4332 40.1491 27.6222 40.5568H27.7017C27.8973 40.1624 28.1906 39.8492 28.5817 39.6172C28.9728 39.3819 29.4418 39.2642 29.9886 39.2642C30.6714 39.2642 31.2299 39.478 31.6641 39.9055C32.0982 40.3298 32.3153 40.991 32.3153 41.8892V47H31.142V41.8892C31.142 41.3258 30.9879 40.9231 30.6797 40.6811C30.3714 40.4392 30.0085 40.3182 29.5909 40.3182C29.054 40.3182 28.638 40.4806 28.343 40.8054C28.0481 41.1269 27.9006 41.5346 27.9006 42.0284V47H26.7074V41.7699C26.7074 41.3357 26.5665 40.986 26.2848 40.7209C26.0031 40.4524 25.6402 40.3182 25.196 40.3182C24.8911 40.3182 24.6061 40.3994 24.3409 40.5618C24.0791 40.7242 23.867 40.9496 23.7045 41.2379C23.5455 41.523 23.4659 41.8527 23.4659 42.2273V47H22.2926ZM36.7077 47.179C36.2238 47.179 35.7847 47.0878 35.3903 46.9055C34.9959 46.7199 34.6826 46.4531 34.4506 46.1051C34.2186 45.7538 34.1026 45.3295 34.1026 44.8324C34.1026 44.3949 34.1888 44.0402 34.3612 43.7685C34.5335 43.4934 34.7638 43.2779 35.0522 43.1222C35.3406 42.9664 35.6587 42.8504 36.0067 42.7741C36.3581 42.6946 36.7111 42.6316 37.0657 42.5852C37.5297 42.5256 37.9059 42.4808 38.1942 42.451C38.4859 42.4179 38.698 42.3632 38.8306 42.2869C38.9665 42.2107 39.0344 42.0781 39.0344 41.8892V41.8494C39.0344 41.3589 38.9002 40.9777 38.6317 40.706C38.3666 40.4342 37.9639 40.2983 37.4237 40.2983C36.8635 40.2983 36.4244 40.4209 36.1062 40.6662C35.788 40.9115 35.5643 41.1733 35.435 41.4517L34.3214 41.054C34.5202 40.59 34.7854 40.2287 35.1168 39.9702C35.4516 39.7083 35.8162 39.526 36.2106 39.4233C36.6083 39.3172 36.9994 39.2642 37.3839 39.2642C37.6291 39.2642 37.9109 39.294 38.229 39.3537C38.5505 39.41 38.8604 39.5277 39.1587 39.7067C39.4603 39.8857 39.7106 40.1558 39.9094 40.517C40.1083 40.8783 40.2077 41.3622 40.2077 41.9688V47H39.0344V45.9659H38.9748C38.8952 46.1316 38.7627 46.3089 38.5771 46.4979C38.3915 46.6868 38.1445 46.8475 37.8363 46.9801C37.5281 47.1127 37.1519 47.179 36.7077 47.179ZM36.8867 46.125C37.3507 46.125 37.7418 46.0339 38.06 45.8516C38.3815 45.6693 38.6235 45.4339 38.7859 45.1456C38.9516 44.8572 39.0344 44.554 39.0344 44.2358V43.1619C38.9847 43.2216 38.8754 43.2763 38.7063 43.326C38.5406 43.3724 38.3484 43.4138 38.1296 43.4503C37.9142 43.4834 37.7037 43.5133 37.4982 43.5398C37.296 43.563 37.132 43.5829 37.006 43.5994C36.7011 43.6392 36.4161 43.7038 36.1509 43.7933C35.8891 43.8795 35.677 44.0104 35.5146 44.1861C35.3555 44.3584 35.2759 44.5937 35.2759 44.892C35.2759 45.2997 35.4267 45.608 35.7283 45.8168C36.0333 46.0223 36.4194 46.125 36.8867 46.125ZM45.6703 39.3636V40.358H41.7129V39.3636H45.6703ZM42.8663 37.5341H44.0396V44.8125C44.0396 45.1439 44.0877 45.3925 44.1838 45.5582C44.2832 45.7206 44.4092 45.83 44.5616 45.8864C44.7174 45.9394 44.8815 45.9659 45.0538 45.9659C45.1831 45.9659 45.2891 45.9593 45.372 45.946C45.4548 45.9295 45.5211 45.9162 45.5708 45.9062L45.8095 46.9602C45.7299 46.9901 45.6189 47.0199 45.4764 47.0497C45.3339 47.0829 45.1532 47.0994 44.9345 47.0994C44.603 47.0994 44.2782 47.0282 43.96 46.8857C43.6452 46.7431 43.3833 46.526 43.1745 46.2344C42.969 45.9427 42.8663 45.5748 42.8663 45.1307V37.5341Z" fill="#3A4759"/>
</svg>
