<svg id="columns" xmlns="http://www.w3.org/2000/svg" width="24.828" height="24.829" viewBox="0 0 24.828 24.829">
  <path id="Path_10457" data-name="Path 10457" d="M195.875,72V90.891a.541.541,0,0,1-.54.54H184V72Z" transform="translate(-171.586 -67.142)" fill="#fff"/>
  <path id="Path_10460" data-name="Path 10460" d="M195.875,72V90.891a.541.541,0,0,1-.54.54H184V72Z" transform="translate(-183.46 -67.142)" fill="#fff"/>
  <path id="Path_10458" data-name="Path 10458" d="M31.749,8.54v3.778H8V8.54A.541.541,0,0,1,8.54,8h22.67A.541.541,0,0,1,31.749,8.54Z" transform="translate(-7.46 -7.46)" fill="#212245"/>
  <path id="Path_10459" data-name="Path 10459" d="M23.749,0H1.08A1.081,1.081,0,0,0,0,1.08v22.67a1.081,1.081,0,0,0,1.08,1.08h22.67a1.081,1.081,0,0,0,1.08-1.08V1.08A1.081,1.081,0,0,0,23.749,0Zm0,1.08V4.318H1.08V1.08ZM1.08,5.4h10.8V23.749H1.08ZM12.954,23.749V5.4h10.8V23.749Z" fill="#212245"/>
</svg>
