<svg width="113" height="52" viewBox="0 0 113 52" fill="none" xmlns="http://www.w3.org/2000/svg">
<path d="M37.75 23.75V6.25H60.25V23.75H37.75ZM39.625 21.875H44.625V8.125H39.625V21.875ZM46.5 21.875H51.5V8.125H46.5V21.875ZM53.375 21.875H58.375V8.125H53.375V21.875Z" fill="#3A4759"/>
<path d="M71.5 16.6094L67.75 12.8594L68.4219 12.1875L71.5 15.2812L74.5781 12.2031L75.25 12.875L71.5 16.6094Z" fill="#3A4759"/>
<path d="M1.23295 36.8182H2.70455L6.16477 45.2699H6.28409L9.74432 36.8182H11.2159V47H10.0625V39.2642H9.96307L6.78125 47H5.66761L2.4858 39.2642H2.38636V47H1.23295V36.8182ZM15.7761 47.179C15.2922 47.179 14.853 47.0878 14.4586 46.9055C14.0642 46.7199 13.751 46.4531 13.519 46.1051C13.287 45.7538 13.171 45.3295 13.171 44.8324C13.171 44.3949 13.2572 44.0402 13.4295 43.7685C13.6019 43.4934 13.8322 43.2779 14.1206 43.1222C14.4089 42.9664 14.7271 42.8504 15.0751 42.7741C15.4264 42.6946 15.7794 42.6316 16.1341 42.5852C16.5981 42.5256 16.9743 42.4808 17.2626 42.451C17.5543 42.4179 17.7664 42.3632 17.899 42.2869C18.0349 42.2107 18.1028 42.0781 18.1028 41.8892V41.8494C18.1028 41.3589 17.9686 40.9777 17.7001 40.706C17.435 40.4342 17.0323 40.2983 16.492 40.2983C15.9319 40.2983 15.4927 40.4209 15.1745 40.6662C14.8564 40.9115 14.6326 41.1733 14.5034 41.4517L13.3897 41.054C13.5886 40.59 13.8538 40.2287 14.1852 39.9702C14.5199 39.7083 14.8845 39.526 15.2789 39.4233C15.6767 39.3172 16.0678 39.2642 16.4522 39.2642C16.6975 39.2642 16.9792 39.294 17.2974 39.3537C17.6189 39.41 17.9288 39.5277 18.2271 39.7067C18.5287 39.8857 18.7789 40.1558 18.9778 40.517C19.1767 40.8783 19.2761 41.3622 19.2761 41.9688V47H18.1028V45.9659H18.0431C17.9636 46.1316 17.831 46.3089 17.6454 46.4979C17.4598 46.6868 17.2129 46.8475 16.9047 46.9801C16.5964 47.1127 16.2202 47.179 15.7761 47.179ZM15.9551 46.125C16.4191 46.125 16.8102 46.0339 17.1284 45.8516C17.4499 45.6693 17.6918 45.4339 17.8542 45.1456C18.0199 44.8572 18.1028 44.554 18.1028 44.2358V43.1619C18.0531 43.2216 17.9437 43.2763 17.7747 43.326C17.609 43.3724 17.4167 43.4138 17.198 43.4503C16.9825 43.4834 16.7721 43.5133 16.5666 43.5398C16.3644 43.563 16.2003 43.5829 16.0744 43.5994C15.7695 43.6392 15.4844 43.7038 15.2193 43.7933C14.9574 43.8795 14.7453 44.0104 14.5829 44.1861C14.4238 44.3584 14.3443 44.5937 14.3443 44.892C14.3443 45.2997 14.4951 45.608 14.7967 45.8168C15.1016 46.0223 15.4877 46.125 15.9551 46.125ZM22.5909 42.4062V47H21.4176V39.3636H22.5511V40.5568H22.6506C22.8295 40.169 23.1013 39.8575 23.4659 39.6222C23.8305 39.3835 24.3011 39.2642 24.8778 39.2642C25.3949 39.2642 25.8473 39.3703 26.2351 39.5824C26.6229 39.7912 26.9245 40.1094 27.1399 40.5369C27.3554 40.9612 27.4631 41.4981 27.4631 42.1477V47H26.2898V42.2273C26.2898 41.6274 26.134 41.16 25.8224 40.8253C25.5109 40.4872 25.0833 40.3182 24.5398 40.3182C24.1652 40.3182 23.8305 40.3994 23.5355 40.5618C23.2438 40.7242 23.0135 40.9612 22.8445 41.2727C22.6754 41.5843 22.5909 41.9621 22.5909 42.4062ZM31.8542 47.179C31.3703 47.179 30.9312 47.0878 30.5368 46.9055C30.1423 46.7199 29.8291 46.4531 29.5971 46.1051C29.3651 45.7538 29.2491 45.3295 29.2491 44.8324C29.2491 44.3949 29.3353 44.0402 29.5076 43.7685C29.68 43.4934 29.9103 43.2779 30.1987 43.1222C30.487 42.9664 30.8052 42.8504 31.1532 42.7741C31.5046 42.6946 31.8575 42.6316 32.2122 42.5852C32.6762 42.5256 33.0524 42.4808 33.3407 42.451C33.6324 42.4179 33.8445 42.3632 33.9771 42.2869C34.113 42.2107 34.1809 42.0781 34.1809 41.8892V41.8494C34.1809 41.3589 34.0467 40.9777 33.7782 40.706C33.5131 40.4342 33.1104 40.2983 32.5701 40.2983C32.01 40.2983 31.5708 40.4209 31.2527 40.6662C30.9345 40.9115 30.7108 41.1733 30.5815 41.4517L29.4679 41.054C29.6667 40.59 29.9319 40.2287 30.2633 39.9702C30.5981 39.7083 30.9627 39.526 31.3571 39.4233C31.7548 39.3172 32.1459 39.2642 32.5304 39.2642C32.7756 39.2642 33.0574 39.294 33.3755 39.3537C33.697 39.41 34.0069 39.5277 34.3052 39.7067C34.6068 39.8857 34.8571 40.1558 35.0559 40.517C35.2548 40.8783 35.3542 41.3622 35.3542 41.9688V47H34.1809V45.9659H34.1213C34.0417 46.1316 33.9092 46.3089 33.7235 46.4979C33.5379 46.6868 33.291 46.8475 32.9828 46.9801C32.6745 47.1127 32.2984 47.179 31.8542 47.179ZM32.0332 46.125C32.4972 46.125 32.8883 46.0339 33.2065 45.8516C33.528 45.6693 33.7699 45.4339 33.9324 45.1456C34.0981 44.8572 34.1809 44.554 34.1809 44.2358V43.1619C34.1312 43.2216 34.0218 43.2763 33.8528 43.326C33.6871 43.3724 33.4949 43.4138 33.2761 43.4503C33.0607 43.4834 32.8502 43.5133 32.6447 43.5398C32.4425 43.563 32.2785 43.5829 32.1525 43.5994C31.8476 43.6392 31.5626 43.7038 31.2974 43.7933C31.0356 43.8795 30.8234 44.0104 30.661 44.1861C30.502 44.3584 30.4224 44.5937 30.4224 44.892C30.4224 45.2997 30.5732 45.608 30.8748 45.8168C31.1797 46.0223 31.5659 46.125 32.0332 46.125ZM40.5781 50.0227C40.0114 50.0227 39.5241 49.9498 39.1165 49.804C38.7088 49.6615 38.3691 49.4725 38.0973 49.2372C37.8288 49.0052 37.6151 48.7566 37.456 48.4915L38.3906 47.8352C38.4967 47.9744 38.6309 48.1335 38.7933 48.3125C38.9557 48.4948 39.1778 48.6522 39.4595 48.7848C39.7446 48.9207 40.1174 48.9886 40.5781 48.9886C41.1946 48.9886 41.7034 48.8395 42.1044 48.5412C42.5054 48.2429 42.706 47.7756 42.706 47.1392V45.5881H42.6065C42.5204 45.7273 42.3977 45.8996 42.2386 46.1051C42.0829 46.3073 41.8575 46.4879 41.5625 46.647C41.2708 46.8028 40.8764 46.8807 40.3793 46.8807C39.7628 46.8807 39.2093 46.7348 38.7188 46.4432C38.2315 46.1515 37.8454 45.7273 37.5604 45.1705C37.2786 44.6136 37.1378 43.9375 37.1378 43.142C37.1378 42.3598 37.2753 41.6787 37.5504 41.0987C37.8255 40.5154 38.2083 40.0646 38.6989 39.7464C39.1894 39.425 39.7562 39.2642 40.3991 39.2642C40.8963 39.2642 41.2907 39.3471 41.5824 39.5128C41.8774 39.6752 42.1027 39.8608 42.2585 40.0696C42.4176 40.2751 42.5402 40.4441 42.6264 40.5767H42.7457V39.3636H43.8793V47.2188C43.8793 47.875 43.7301 48.4086 43.4318 48.8196C43.1368 49.2339 42.7391 49.5372 42.2386 49.7294C41.7415 49.925 41.188 50.0227 40.5781 50.0227ZM40.5384 45.8267C41.009 45.8267 41.4067 45.719 41.7315 45.5036C42.0563 45.2881 42.3033 44.9782 42.4723 44.5739C42.6413 44.1695 42.7259 43.6856 42.7259 43.1222C42.7259 42.572 42.643 42.0864 42.4773 41.6655C42.3116 41.2446 42.0663 40.9148 41.7415 40.6761C41.4167 40.4375 41.0156 40.3182 40.5384 40.3182C40.0412 40.3182 39.6269 40.4441 39.2955 40.696C38.9673 40.9479 38.7204 41.286 38.5547 41.7102C38.3923 42.1345 38.3111 42.6051 38.3111 43.1222C38.3111 43.6525 38.3939 44.1214 38.5597 44.5291C38.7287 44.9335 38.9773 45.2517 39.3054 45.4837C39.6368 45.7124 40.0478 45.8267 40.5384 45.8267ZM49.2287 47.1591C48.4929 47.1591 47.8582 46.9967 47.3246 46.6719C46.7943 46.3438 46.3849 45.8864 46.0966 45.2997C45.8116 44.7098 45.669 44.0237 45.669 43.2415C45.669 42.4593 45.8116 41.7699 46.0966 41.1733C46.3849 40.5734 46.786 40.1061 47.2997 39.7713C47.8168 39.4332 48.42 39.2642 49.1094 39.2642C49.5071 39.2642 49.8999 39.3305 50.2876 39.4631C50.6754 39.5956 51.0284 39.8111 51.3466 40.1094C51.6648 40.4044 51.9183 40.7955 52.1072 41.2827C52.2962 41.7699 52.3906 42.3698 52.3906 43.0824V43.5795H46.5043V42.5653H51.1974C51.1974 42.1345 51.1113 41.75 50.9389 41.4119C50.7699 41.0739 50.5279 40.8071 50.2131 40.6115C49.9015 40.416 49.5336 40.3182 49.1094 40.3182C48.642 40.3182 48.2377 40.4342 47.8963 40.6662C47.5582 40.8949 47.2981 41.1932 47.1158 41.5611C46.9335 41.929 46.8423 42.3234 46.8423 42.7443V43.4205C46.8423 43.9972 46.9418 44.486 47.1406 44.8871C47.3428 45.2848 47.6229 45.5881 47.9808 45.7969C48.3388 46.0024 48.7547 46.1051 49.2287 46.1051C49.5369 46.1051 49.8153 46.062 50.0639 45.9759C50.3158 45.8864 50.5329 45.7538 50.7152 45.5781C50.8975 45.3991 51.0384 45.1771 51.1378 44.9119L52.2713 45.2301C52.152 45.6146 51.9515 45.9527 51.6697 46.2443C51.388 46.5327 51.04 46.758 50.6257 46.9205C50.2114 47.0795 49.7457 47.1591 49.2287 47.1591ZM61.2152 47.1591C60.4993 47.1591 59.8828 46.9901 59.3658 46.652C58.8487 46.3139 58.451 45.8482 58.1726 45.255C57.8942 44.6617 57.755 43.9839 57.755 43.2216C57.755 42.446 57.8975 41.7616 58.1825 41.1683C58.4709 40.5717 58.8719 40.1061 59.3857 39.7713C59.9027 39.4332 60.5059 39.2642 61.1953 39.2642C61.7322 39.2642 62.2161 39.3636 62.647 39.5625C63.0779 39.7614 63.4309 40.0398 63.706 40.3977C63.9811 40.7557 64.1518 41.1733 64.218 41.6506H63.0447C62.9553 41.3026 62.7564 40.9943 62.4482 40.7259C62.1432 40.4541 61.7322 40.3182 61.2152 40.3182C60.7578 40.3182 60.3568 40.4375 60.0121 40.6761C59.6707 40.9115 59.4039 41.2446 59.2116 41.6754C59.0227 42.103 58.9283 42.6051 58.9283 43.1818C58.9283 43.7718 59.0211 44.2855 59.2067 44.723C59.3956 45.1605 59.6607 45.5002 60.0021 45.7422C60.3468 45.9841 60.7512 46.1051 61.2152 46.1051C61.5201 46.1051 61.7969 46.0521 62.0455 45.946C62.294 45.84 62.5045 45.6875 62.6768 45.4886C62.8492 45.2898 62.9718 45.0511 63.0447 44.7727H64.218C64.1518 45.2235 63.9877 45.6295 63.7259 45.9908C63.4673 46.3487 63.1243 46.6338 62.6967 46.8459C62.2725 47.0547 61.7786 47.1591 61.2152 47.1591ZM69.0355 47.1591C68.3461 47.1591 67.7412 46.995 67.2209 46.6669C66.7038 46.3388 66.2995 45.8797 66.0078 45.2898C65.7195 44.6998 65.5753 44.0104 65.5753 43.2216C65.5753 42.4261 65.7195 41.7318 66.0078 41.1385C66.2995 40.5452 66.7038 40.0845 67.2209 39.7564C67.7412 39.4283 68.3461 39.2642 69.0355 39.2642C69.7249 39.2642 70.3281 39.4283 70.8452 39.7564C71.3655 40.0845 71.7699 40.5452 72.0582 41.1385C72.3499 41.7318 72.4957 42.4261 72.4957 43.2216C72.4957 44.0104 72.3499 44.6998 72.0582 45.2898C71.7699 45.8797 71.3655 46.3388 70.8452 46.6669C70.3281 46.995 69.7249 47.1591 69.0355 47.1591ZM69.0355 46.1051C69.5592 46.1051 69.9901 45.9709 70.3281 45.7024C70.6662 45.4339 70.9164 45.081 71.0788 44.6435C71.2412 44.206 71.3224 43.732 71.3224 43.2216C71.3224 42.7112 71.2412 42.2356 71.0788 41.7947C70.9164 41.3539 70.6662 40.9976 70.3281 40.7259C69.9901 40.4541 69.5592 40.3182 69.0355 40.3182C68.5118 40.3182 68.081 40.4541 67.7429 40.7259C67.4048 40.9976 67.1546 41.3539 66.9922 41.7947C66.8298 42.2356 66.7486 42.7112 66.7486 43.2216C66.7486 43.732 66.8298 44.206 66.9922 44.6435C67.1546 45.081 67.4048 45.4339 67.7429 45.7024C68.081 45.9709 68.5118 46.1051 69.0355 46.1051ZM75.46 36.8182V47H74.2868V36.8182H75.46ZM82.4215 43.8778V39.3636H83.5948V47H82.4215V45.7074H82.342C82.163 46.0952 81.8846 46.425 81.5067 46.6967C81.1289 46.9652 80.6516 47.0994 80.0749 47.0994C79.5977 47.0994 79.1734 46.995 78.8022 46.7862C78.431 46.5741 78.1393 46.2559 77.9272 45.8317C77.7151 45.4041 77.609 44.8655 77.609 44.2159V39.3636H78.7823V44.1364C78.7823 44.6932 78.9381 45.1373 79.2496 45.4688C79.5645 45.8002 79.9656 45.9659 80.4528 45.9659C80.7444 45.9659 81.0411 45.8913 81.3427 45.7422C81.6476 45.593 81.9028 45.3643 82.1083 45.0561C82.3171 44.7479 82.4215 44.3551 82.4215 43.8778ZM85.7438 47V39.3636H86.8773V40.5568H86.9767C87.1358 40.1491 87.3927 39.8326 87.7473 39.6072C88.102 39.3786 88.5279 39.2642 89.025 39.2642C89.5288 39.2642 89.9481 39.3786 90.2828 39.6072C90.6209 39.8326 90.8844 40.1491 91.0733 40.5568H91.1529C91.3484 40.1624 91.6417 39.8492 92.0328 39.6172C92.4239 39.3819 92.8929 39.2642 93.4398 39.2642C94.1226 39.2642 94.681 39.478 95.1152 39.9055C95.5494 40.3298 95.7665 40.991 95.7665 41.8892V47H94.5932V41.8892C94.5932 41.3258 94.4391 40.9231 94.1309 40.6811C93.8226 40.4392 93.4597 40.3182 93.0421 40.3182C92.5051 40.3182 92.0892 40.4806 91.7942 40.8054C91.4992 41.1269 91.3517 41.5346 91.3517 42.0284V47H90.1586V41.7699C90.1586 41.3357 90.0177 40.986 89.736 40.7209C89.4542 40.4524 89.0913 40.3182 88.6472 40.3182C88.3423 40.3182 88.0572 40.3994 87.7921 40.5618C87.5302 40.7242 87.3181 40.9496 87.1557 41.2379C86.9966 41.523 86.9171 41.8527 86.9171 42.2273V47H85.7438ZM99.085 42.4062V47H97.9118V39.3636H99.0453V40.5568H99.1447C99.3237 40.169 99.5955 39.8575 99.96 39.6222C100.325 39.3835 100.795 39.2642 101.372 39.2642C101.889 39.2642 102.341 39.3703 102.729 39.5824C103.117 39.7912 103.419 40.1094 103.634 40.5369C103.849 40.9612 103.957 41.4981 103.957 42.1477V47H102.784V42.2273C102.784 41.6274 102.628 41.16 102.317 40.8253C102.005 40.4872 101.577 40.3182 101.034 40.3182C100.659 40.3182 100.325 40.3994 100.03 40.5618C99.738 40.7242 99.5076 40.9612 99.3386 41.2727C99.1696 41.5843 99.085 41.9621 99.085 42.4062ZM111.51 41.0739L110.456 41.3722C110.39 41.1965 110.292 41.0258 110.163 40.8601C110.037 40.6911 109.865 40.5518 109.646 40.4425C109.427 40.3331 109.147 40.2784 108.806 40.2784C108.338 40.2784 107.949 40.3861 107.637 40.6016C107.329 40.8137 107.175 41.0838 107.175 41.4119C107.175 41.7036 107.281 41.9339 107.493 42.103C107.705 42.272 108.037 42.4129 108.488 42.5256L109.621 42.804C110.304 42.9697 110.813 43.2232 111.147 43.5646C111.482 43.9027 111.65 44.3385 111.65 44.8722C111.65 45.3097 111.524 45.7008 111.272 46.0455C111.023 46.3902 110.675 46.6619 110.228 46.8608C109.78 47.0597 109.26 47.1591 108.667 47.1591C107.888 47.1591 107.243 46.9901 106.733 46.652C106.222 46.3139 105.899 45.8201 105.763 45.1705L106.877 44.892C106.983 45.303 107.183 45.6113 107.478 45.8168C107.777 46.0223 108.166 46.125 108.647 46.125C109.194 46.125 109.628 46.009 109.949 45.777C110.274 45.5417 110.436 45.2599 110.436 44.9318C110.436 44.6667 110.344 44.4446 110.158 44.2656C109.972 44.0833 109.687 43.9474 109.303 43.858L108.03 43.5597C107.331 43.3939 106.817 43.1371 106.489 42.7891C106.164 42.4377 106.002 41.9986 106.002 41.4716C106.002 41.0407 106.123 40.6596 106.365 40.3281C106.61 39.9967 106.943 39.7365 107.364 39.5476C107.788 39.3587 108.269 39.2642 108.806 39.2642C109.561 39.2642 110.155 39.4299 110.586 39.7614C111.02 40.0928 111.328 40.5303 111.51 41.0739Z" fill="#3A4759"/>
</svg>
