<svg width="45" height="52" viewBox="0 0 45 52" fill="none" xmlns="http://www.w3.org/2000/svg">
<path d="M8.3125 26.5L7 25.1875L13.125 19.0625C13.625 18.5625 13.9583 18.1042 14.125 17.6875C14.2917 17.2708 14.375 16.6562 14.375 15.8438V7.5625L11.5625 10.375L10.25 9.0625L15.3125 4L20.375 9.0625L19.0625 10.375L16.25 7.5625V15.8438C16.25 16.6562 16.3333 17.2708 16.5 17.6875C16.6667 18.1042 17 18.5625 17.5 19.0625L23.625 25.1875L22.3125 26.5L15.3125 19.5L8.3125 26.5Z" fill="#3A4759"/>
<path d="M37.5 16.6094L33.75 12.8594L34.4219 12.1875L37.5 15.2812L40.5781 12.2031L41.25 12.875L37.5 16.6094Z" fill="#3A4759"/>
<path d="M2.23295 36.8182H3.70455L7.16477 45.2699H7.28409L10.7443 36.8182H12.2159V47H11.0625V39.2642H10.9631L7.78125 47H6.66761L3.4858 39.2642H3.38636V47H2.23295V36.8182ZM17.7306 47.1591C16.9949 47.1591 16.3601 46.9967 15.8265 46.6719C15.2962 46.3438 14.8869 45.8864 14.5985 45.2997C14.3135 44.7098 14.171 44.0237 14.171 43.2415C14.171 42.4593 14.3135 41.7699 14.5985 41.1733C14.8869 40.5734 15.2879 40.1061 15.8017 39.7713C16.3187 39.4332 16.9219 39.2642 17.6113 39.2642C18.0091 39.2642 18.4018 39.3305 18.7896 39.4631C19.1774 39.5956 19.5304 39.8111 19.8485 40.1094C20.1667 40.4044 20.4203 40.7955 20.6092 41.2827C20.7981 41.7699 20.8926 42.3698 20.8926 43.0824V43.5795H15.0062V42.5653H19.6994C19.6994 42.1345 19.6132 41.75 19.4409 41.4119C19.2718 41.0739 19.0299 40.8071 18.715 40.6115C18.4035 40.416 18.0356 40.3182 17.6113 40.3182C17.144 40.3182 16.7396 40.4342 16.3983 40.6662C16.0602 40.8949 15.8 41.1932 15.6177 41.5611C15.4354 41.929 15.3443 42.3234 15.3443 42.7443V43.4205C15.3443 43.9972 15.4437 44.486 15.6426 44.8871C15.8448 45.2848 16.1248 45.5881 16.4828 45.7969C16.8407 46.0024 17.2567 46.1051 17.7306 46.1051C18.0389 46.1051 18.3173 46.062 18.5659 45.9759C18.8178 45.8864 19.0349 45.7538 19.2172 45.5781C19.3994 45.3991 19.5403 45.1771 19.6397 44.9119L20.7733 45.2301C20.6539 45.6146 20.4534 45.9527 20.1717 46.2443C19.89 46.5327 19.542 46.758 19.1277 46.9205C18.7134 47.0795 18.2477 47.1591 17.7306 47.1591ZM22.6774 47V39.3636H23.8109V40.517H23.8904C24.0297 40.1392 24.2815 39.8326 24.6461 39.5973C25.0107 39.362 25.4217 39.2443 25.8791 39.2443C25.9653 39.2443 26.073 39.246 26.2022 39.2493C26.3315 39.2526 26.4293 39.2576 26.4956 39.2642V40.4574C26.4558 40.4474 26.3646 40.4325 26.2221 40.4126C26.0829 40.3894 25.9354 40.3778 25.7797 40.3778C25.4084 40.3778 25.077 40.4557 24.7853 40.6115C24.497 40.764 24.2683 40.9761 24.0993 41.2479C23.9335 41.5163 23.8507 41.8229 23.8507 42.1676V47H22.6774ZM30.7363 50.0227C30.1696 50.0227 29.6824 49.9498 29.2747 49.804C28.867 49.6615 28.5273 49.4725 28.2555 49.2372C27.987 49.0052 27.7733 48.7566 27.6142 48.4915L28.5488 47.8352C28.6549 47.9744 28.7891 48.1335 28.9515 48.3125C29.1139 48.4948 29.336 48.6522 29.6177 48.7848C29.9028 48.9207 30.2756 48.9886 30.7363 48.9886C31.3528 48.9886 31.8616 48.8395 32.2626 48.5412C32.6636 48.2429 32.8642 47.7756 32.8642 47.1392V45.5881H32.7647C32.6786 45.7273 32.5559 45.8996 32.3968 46.1051C32.2411 46.3073 32.0157 46.4879 31.7207 46.647C31.429 46.8028 31.0346 46.8807 30.5375 46.8807C29.921 46.8807 29.3675 46.7348 28.877 46.4432C28.3897 46.1515 28.0036 45.7273 27.7186 45.1705C27.4368 44.6136 27.296 43.9375 27.296 43.142C27.296 42.3598 27.4335 41.6787 27.7086 41.0987C27.9837 40.5154 28.3665 40.0646 28.8571 39.7464C29.3476 39.425 29.9144 39.2642 30.5574 39.2642C31.0545 39.2642 31.4489 39.3471 31.7406 39.5128C32.0356 39.6752 32.2609 39.8608 32.4167 40.0696C32.5758 40.2751 32.6984 40.4441 32.7846 40.5767H32.9039V39.3636H34.0375V47.2188C34.0375 47.875 33.8883 48.4086 33.59 48.8196C33.295 49.2339 32.8973 49.5372 32.3968 49.7294C31.8997 49.925 31.3462 50.0227 30.7363 50.0227ZM30.6966 45.8267C31.1672 45.8267 31.5649 45.719 31.8897 45.5036C32.2145 45.2881 32.4615 44.9782 32.6305 44.5739C32.7995 44.1695 32.8841 43.6856 32.8841 43.1222C32.8841 42.572 32.8012 42.0864 32.6355 41.6655C32.4698 41.2446 32.2245 40.9148 31.8997 40.6761C31.5749 40.4375 31.1738 40.3182 30.6966 40.3182C30.1994 40.3182 29.7851 40.4441 29.4537 40.696C29.1255 40.9479 28.8786 41.286 28.7129 41.7102C28.5505 42.1345 28.4693 42.6051 28.4693 43.1222C28.4693 43.6525 28.5521 44.1214 28.7179 44.5291C28.8869 44.9335 29.1355 45.2517 29.4636 45.4837C29.795 45.7124 30.206 45.8267 30.6966 45.8267ZM39.3869 47.1591C38.6511 47.1591 38.0164 46.9967 37.4828 46.6719C36.9525 46.3438 36.5431 45.8864 36.2548 45.2997C35.9698 44.7098 35.8272 44.0237 35.8272 43.2415C35.8272 42.4593 35.9698 41.7699 36.2548 41.1733C36.5431 40.5734 36.9442 40.1061 37.4579 39.7713C37.975 39.4332 38.5782 39.2642 39.2676 39.2642C39.6653 39.2642 40.0581 39.3305 40.4458 39.4631C40.8336 39.5956 41.1866 39.8111 41.5048 40.1094C41.823 40.4044 42.0765 40.7955 42.2654 41.2827C42.4544 41.7699 42.5488 42.3698 42.5488 43.0824V43.5795H36.6625V42.5653H41.3556C41.3556 42.1345 41.2695 41.75 41.0971 41.4119C40.9281 41.0739 40.6861 40.8071 40.3713 40.6115C40.0597 40.416 39.6918 40.3182 39.2676 40.3182C38.8002 40.3182 38.3959 40.4342 38.0545 40.6662C37.7164 40.8949 37.4563 41.1932 37.274 41.5611C37.0917 41.929 37.0005 42.3234 37.0005 42.7443V43.4205C37.0005 43.9972 37.1 44.486 37.2988 44.8871C37.501 45.2848 37.7811 45.5881 38.139 45.7969C38.497 46.0024 38.9129 46.1051 39.3869 46.1051C39.6951 46.1051 39.9735 46.062 40.2221 45.9759C40.474 45.8864 40.6911 45.7538 40.8734 45.5781C41.0557 45.3991 41.1966 45.1771 41.296 44.9119L42.4295 45.2301C42.3102 45.6146 42.1097 45.9527 41.8279 46.2443C41.5462 46.5327 41.1982 46.758 40.7839 46.9205C40.3696 47.0795 39.9039 47.1591 39.3869 47.1591Z" fill="#3A4759"/>
</svg>
