<svg width="126" height="52" viewBox="0 0 126 52" fill="none" xmlns="http://www.w3.org/2000/svg">
<path d="M49.5625 20.9375H53.9375V16.5625H49.5625V20.9375ZM57.0625 20.9375H61.4375V16.5625H57.0625V20.9375ZM49.5625 13.4375H53.9375V9.0625H49.5625V13.4375ZM57.0625 13.4375H61.4375V9.0625H57.0625V13.4375ZM46.125 26.25C45.625 26.25 45.1875 26.0625 44.8125 25.6875C44.4375 25.3125 44.25 24.875 44.25 24.375V5.625C44.25 5.125 44.4375 4.6875 44.8125 4.3125C45.1875 3.9375 45.625 3.75 46.125 3.75H64.875C65.375 3.75 65.8125 3.9375 66.1875 4.3125C66.5625 4.6875 66.75 5.125 66.75 5.625V24.375C66.75 24.875 66.5625 25.3125 66.1875 25.6875C65.8125 26.0625 65.375 26.25 64.875 26.25H46.125ZM46.125 24.375H64.875V5.625H46.125V24.375ZM46.125 5.625V24.375V5.625Z" fill="#3A4759"/>
<path d="M71.5 16V13H83.5V16H71.5Z" fill="#3A4759"/>
<path d="M1.23295 47V36.8182H4.6733C5.46875 36.8182 6.12169 36.9541 6.6321 37.2259C7.14252 37.4943 7.52036 37.8639 7.76562 38.3345C8.01089 38.8052 8.13352 39.3404 8.13352 39.9403C8.13352 40.5402 8.01089 41.0722 7.76562 41.5362C7.52036 42.0002 7.14418 42.3648 6.63707 42.63C6.12997 42.8918 5.48201 43.0227 4.69318 43.0227H1.90909V41.9091H4.65341C5.19697 41.9091 5.63447 41.8295 5.96591 41.6705C6.30066 41.5114 6.54261 41.286 6.69176 40.9943C6.84422 40.6993 6.92045 40.348 6.92045 39.9403C6.92045 39.5327 6.84422 39.1764 6.69176 38.8714C6.5393 38.5665 6.29569 38.3312 5.96094 38.1655C5.62618 37.9964 5.18371 37.9119 4.63352 37.9119H2.46591V47H1.23295ZM6.02557 42.4261L8.53125 47H7.09943L4.63352 42.4261H6.02557ZM13.1486 47.1591C12.4128 47.1591 11.7781 46.9967 11.2445 46.6719C10.7142 46.3438 10.3049 45.8864 10.0165 45.2997C9.73147 44.7098 9.58896 44.0237 9.58896 43.2415C9.58896 42.4593 9.73147 41.7699 10.0165 41.1733C10.3049 40.5734 10.7059 40.1061 11.2196 39.7713C11.7367 39.4332 12.3399 39.2642 13.0293 39.2642C13.427 39.2642 13.8198 39.3305 14.2076 39.4631C14.5953 39.5956 14.9483 39.8111 15.2665 40.1094C15.5847 40.4044 15.8382 40.7955 16.0272 41.2827C16.2161 41.7699 16.3105 42.3698 16.3105 43.0824V43.5795H10.4242V42.5653H15.1174C15.1174 42.1345 15.0312 41.75 14.8588 41.4119C14.6898 41.0739 14.4479 40.8071 14.133 40.6115C13.8214 40.416 13.4535 40.3182 13.0293 40.3182C12.562 40.3182 12.1576 40.4342 11.8162 40.6662C11.4782 40.8949 11.218 41.1932 11.0357 41.5611C10.8534 41.929 10.7623 42.3234 10.7623 42.7443V43.4205C10.7623 43.9972 10.8617 44.486 11.0605 44.8871C11.2627 45.2848 11.5428 45.5881 11.9007 45.7969C12.2587 46.0024 12.6747 46.1051 13.1486 46.1051C13.4569 46.1051 13.7353 46.062 13.9838 45.9759C14.2357 45.8864 14.4528 45.7538 14.6351 45.5781C14.8174 45.3991 14.9583 45.1771 15.0577 44.9119L16.1912 45.2301C16.0719 45.6146 15.8714 45.9527 15.5897 46.2443C15.3079 46.5327 14.9599 46.758 14.5456 46.9205C14.1313 47.0795 13.6657 47.1591 13.1486 47.1591ZM18.0953 47V39.3636H19.2289V40.5568H19.3283C19.4874 40.1491 19.7443 39.8326 20.0989 39.6072C20.4535 39.3786 20.8794 39.2642 21.3766 39.2642C21.8804 39.2642 22.2997 39.3786 22.6344 39.6072C22.9725 39.8326 23.236 40.1491 23.4249 40.5568H23.5044C23.7 40.1624 23.9933 39.8492 24.3844 39.6172C24.7755 39.3819 25.2445 39.2642 25.7914 39.2642C26.4741 39.2642 27.0326 39.478 27.4668 39.9055C27.901 40.3298 28.1181 40.991 28.1181 41.8892V47H26.9448V41.8892C26.9448 41.3258 26.7907 40.9231 26.4824 40.6811C26.1742 40.4392 25.8113 40.3182 25.3936 40.3182C24.8567 40.3182 24.4408 40.4806 24.1458 40.8054C23.8508 41.1269 23.7033 41.5346 23.7033 42.0284V47H22.5101V41.7699C22.5101 41.3357 22.3693 40.986 22.0875 40.7209C21.8058 40.4524 21.4429 40.3182 20.9988 40.3182C20.6938 40.3182 20.4088 40.3994 20.1436 40.5618C19.8818 40.7242 19.6697 40.9496 19.5073 41.2379C19.3482 41.523 19.2686 41.8527 19.2686 42.2273V47H18.0953ZM33.3656 47.1591C32.6762 47.1591 32.0713 46.995 31.551 46.6669C31.0339 46.3388 30.6296 45.8797 30.3379 45.2898C30.0495 44.6998 29.9054 44.0104 29.9054 43.2216C29.9054 42.4261 30.0495 41.7318 30.3379 41.1385C30.6296 40.5452 31.0339 40.0845 31.551 39.7564C32.0713 39.4283 32.6762 39.2642 33.3656 39.2642C34.055 39.2642 34.6582 39.4283 35.1752 39.7564C35.6956 40.0845 36.1 40.5452 36.3883 41.1385C36.68 41.7318 36.8258 42.4261 36.8258 43.2216C36.8258 44.0104 36.68 44.6998 36.3883 45.2898C36.1 45.8797 35.6956 46.3388 35.1752 46.6669C34.6582 46.995 34.055 47.1591 33.3656 47.1591ZM33.3656 46.1051C33.8893 46.1051 34.3201 45.9709 34.6582 45.7024C34.9963 45.4339 35.2465 45.081 35.4089 44.6435C35.5713 44.206 35.6525 43.732 35.6525 43.2216C35.6525 42.7112 35.5713 42.2356 35.4089 41.7947C35.2465 41.3539 34.9963 40.9976 34.6582 40.7259C34.3201 40.4541 33.8893 40.3182 33.3656 40.3182C32.8419 40.3182 32.411 40.4541 32.073 40.7259C31.7349 40.9976 31.4847 41.3539 31.3223 41.7947C31.1599 42.2356 31.0787 42.7112 31.0787 43.2216C31.0787 43.732 31.1599 44.206 31.3223 44.6435C31.4847 45.081 31.7349 45.4339 32.073 45.7024C32.411 45.9709 32.8419 46.1051 33.3656 46.1051ZM44.5877 39.3636L41.7638 47H40.5707L37.7468 39.3636H39.0195L41.1275 45.4489H41.207L43.315 39.3636H44.5877ZM49.0646 47.1591C48.3288 47.1591 47.6941 46.9967 47.1605 46.6719C46.6302 46.3438 46.2209 45.8864 45.9325 45.2997C45.6475 44.7098 45.505 44.0237 45.505 43.2415C45.505 42.4593 45.6475 41.7699 45.9325 41.1733C46.2209 40.5734 46.6219 40.1061 47.1357 39.7713C47.6527 39.4332 48.2559 39.2642 48.9453 39.2642C49.343 39.2642 49.7358 39.3305 50.1236 39.4631C50.5114 39.5956 50.8643 39.8111 51.1825 40.1094C51.5007 40.4044 51.7543 40.7955 51.9432 41.2827C52.1321 41.7699 52.2266 42.3698 52.2266 43.0824V43.5795H46.3402V42.5653H51.0334C51.0334 42.1345 50.9472 41.75 50.7749 41.4119C50.6058 41.0739 50.3639 40.8071 50.049 40.6115C49.7375 40.416 49.3696 40.3182 48.9453 40.3182C48.478 40.3182 48.0736 40.4342 47.7322 40.6662C47.3942 40.8949 47.134 41.1932 46.9517 41.5611C46.7694 41.929 46.6783 42.3234 46.6783 42.7443V43.4205C46.6783 43.9972 46.7777 44.486 46.9766 44.8871C47.1787 45.2848 47.4588 45.5881 47.8168 45.7969C48.1747 46.0024 48.5907 46.1051 49.0646 46.1051C49.3729 46.1051 49.6513 46.062 49.8999 45.9759C50.1518 45.8864 50.3688 45.7538 50.5511 45.5781C50.7334 45.3991 50.8743 45.1771 50.9737 44.9119L52.1072 45.2301C51.9879 45.6146 51.7874 45.9527 51.5057 46.2443C51.224 46.5327 50.8759 46.758 50.4616 46.9205C50.0473 47.0795 49.5817 47.1591 49.0646 47.1591ZM60.8324 47.1591C60.196 47.1591 59.6342 46.9983 59.147 46.6768C58.6598 46.352 58.2786 45.8946 58.0036 45.3047C57.7285 44.7114 57.5909 44.0104 57.5909 43.2017C57.5909 42.3996 57.7285 41.7036 58.0036 41.1136C58.2786 40.5237 58.6615 40.0679 59.152 39.7464C59.6425 39.425 60.2093 39.2642 60.8523 39.2642C61.3494 39.2642 61.7422 39.3471 62.0305 39.5128C62.3222 39.6752 62.5443 39.8608 62.6967 40.0696C62.8525 40.2751 62.9735 40.4441 63.0597 40.5767H63.1591V36.8182H64.3324V47H63.1989V45.8267H63.0597C62.9735 45.9659 62.8509 46.1416 62.6918 46.3537C62.5327 46.5625 62.3056 46.7498 62.0107 46.9155C61.7157 47.0779 61.3229 47.1591 60.8324 47.1591ZM60.9915 46.1051C61.4621 46.1051 61.8598 45.9825 62.1847 45.7372C62.5095 45.4886 62.7564 45.1456 62.9254 44.7081C63.0945 44.2673 63.179 43.7585 63.179 43.1818C63.179 42.6117 63.0961 42.1129 62.9304 41.6854C62.7647 41.2545 62.5194 40.9197 62.1946 40.6811C61.8698 40.4392 61.4688 40.3182 60.9915 40.3182C60.4943 40.3182 60.08 40.4458 59.7486 40.701C59.4205 40.9529 59.1735 41.2959 59.0078 41.7301C58.8454 42.161 58.7642 42.6449 58.7642 43.1818C58.7642 43.7254 58.8471 44.2192 59.0128 44.6634C59.1818 45.1042 59.4304 45.4555 59.7585 45.7173C60.09 45.9759 60.5009 46.1051 60.9915 46.1051ZM71.4567 43.8778V39.3636H72.63V47H71.4567V45.7074H71.3771C71.1982 46.0952 70.9197 46.425 70.5419 46.6967C70.1641 46.9652 69.6868 47.0994 69.1101 47.0994C68.6328 47.0994 68.2086 46.995 67.8374 46.7862C67.4661 46.5741 67.1745 46.2559 66.9624 45.8317C66.7502 45.4041 66.6442 44.8655 66.6442 44.2159V39.3636H67.8175V44.1364C67.8175 44.6932 67.9732 45.1373 68.2848 45.4688C68.5997 45.8002 69.0007 45.9659 69.4879 45.9659C69.7796 45.9659 70.0762 45.8913 70.3778 45.7422C70.6828 45.593 70.938 45.3643 71.1435 45.0561C71.3523 44.7479 71.4567 44.3551 71.4567 43.8778ZM74.7789 49.8636V39.3636H75.9125V40.5767H76.0517C76.1378 40.4441 76.2572 40.2751 76.4096 40.0696C76.5654 39.8608 76.7875 39.6752 77.0758 39.5128C77.3675 39.3471 77.7619 39.2642 78.2591 39.2642C78.902 39.2642 79.4688 39.425 79.9593 39.7464C80.4499 40.0679 80.8327 40.5237 81.1078 41.1136C81.3829 41.7036 81.5204 42.3996 81.5204 43.2017C81.5204 44.0104 81.3829 44.7114 81.1078 45.3047C80.8327 45.8946 80.4515 46.352 79.9643 46.6768C79.4771 46.9983 78.9153 47.1591 78.2789 47.1591C77.7884 47.1591 77.3957 47.0779 77.1007 46.9155C76.8057 46.7498 76.5787 46.5625 76.4196 46.3537C76.2605 46.1416 76.1378 45.9659 76.0517 45.8267H75.9522V49.8636H74.7789ZM75.9324 43.1818C75.9324 43.7585 76.0169 44.2673 76.1859 44.7081C76.3549 45.1456 76.6019 45.4886 76.9267 45.7372C77.2515 45.9825 77.6492 46.1051 78.1199 46.1051C78.6104 46.1051 79.0197 45.9759 79.3478 45.7173C79.6793 45.4555 79.9279 45.1042 80.0936 44.6634C80.2626 44.2192 80.3471 43.7254 80.3471 43.1818C80.3471 42.6449 80.2643 42.161 80.0985 41.7301C79.9361 41.2959 79.6892 40.9529 79.3578 40.701C79.0297 40.4458 78.617 40.3182 78.1199 40.3182C77.6426 40.3182 77.2415 40.4392 76.9167 40.6811C76.5919 40.9197 76.3467 41.2545 76.1809 41.6854C76.0152 42.1129 75.9324 42.6117 75.9324 43.1818ZM84.4835 36.8182V47H83.3102V36.8182H84.4835ZM86.6325 47V39.3636H87.8058V47H86.6325ZM87.229 38.0909C87.0004 38.0909 86.8031 38.013 86.6374 37.8572C86.475 37.7015 86.3938 37.5142 86.3938 37.2955C86.3938 37.0767 86.475 36.8894 86.6374 36.7337C86.8031 36.5779 87.0004 36.5 87.229 36.5C87.4577 36.5 87.6533 36.5779 87.8157 36.7337C87.9814 36.8894 88.0643 37.0767 88.0643 37.2955C88.0643 37.5142 87.9814 37.7015 87.8157 37.8572C87.6533 38.013 87.4577 38.0909 87.229 38.0909ZM93.057 47.1591C92.3411 47.1591 91.7246 46.9901 91.2076 46.652C90.6905 46.3139 90.2928 45.8482 90.0144 45.255C89.736 44.6617 89.5968 43.9839 89.5968 43.2216C89.5968 42.446 89.7393 41.7616 90.0243 41.1683C90.3127 40.5717 90.7137 40.1061 91.2275 39.7713C91.7445 39.4332 92.3477 39.2642 93.0371 39.2642C93.574 39.2642 94.0579 39.3636 94.4888 39.5625C94.9197 39.7614 95.2727 40.0398 95.5478 40.3977C95.8229 40.7557 95.9935 41.1733 96.0598 41.6506H94.8865C94.7971 41.3026 94.5982 40.9943 94.29 40.7259C93.985 40.4541 93.574 40.3182 93.057 40.3182C92.5996 40.3182 92.1986 40.4375 91.8539 40.6761C91.5125 40.9115 91.2457 41.2446 91.0534 41.6754C90.8645 42.103 90.7701 42.6051 90.7701 43.1818C90.7701 43.7718 90.8629 44.2855 91.0485 44.723C91.2374 45.1605 91.5025 45.5002 91.8439 45.7422C92.1886 45.9841 92.593 46.1051 93.057 46.1051C93.3619 46.1051 93.6387 46.0521 93.8873 45.946C94.1358 45.84 94.3463 45.6875 94.5186 45.4886C94.691 45.2898 94.8136 45.0511 94.8865 44.7727H96.0598C95.9935 45.2235 95.8295 45.6295 95.5676 45.9908C95.3091 46.3487 94.9661 46.6338 94.5385 46.8459C94.1143 47.0547 93.6204 47.1591 93.057 47.1591ZM100.022 47.179C99.5383 47.179 99.0991 47.0878 98.7047 46.9055C98.3103 46.7199 97.9971 46.4531 97.7651 46.1051C97.5331 45.7538 97.4171 45.3295 97.4171 44.8324C97.4171 44.3949 97.5033 44.0402 97.6756 43.7685C97.848 43.4934 98.0783 43.2779 98.3667 43.1222C98.655 42.9664 98.9732 42.8504 99.3212 42.7741C99.6725 42.6946 100.026 42.6316 100.38 42.5852C100.844 42.5256 101.22 42.4808 101.509 42.451C101.8 42.4179 102.012 42.3632 102.145 42.2869C102.281 42.2107 102.349 42.0781 102.349 41.8892V41.8494C102.349 41.3589 102.215 40.9777 101.946 40.706C101.681 40.4342 101.278 40.2983 100.738 40.2983C100.178 40.2983 99.7388 40.4209 99.4206 40.6662C99.1025 40.9115 98.8787 41.1733 98.7495 41.4517L97.6358 41.054C97.8347 40.59 98.0998 40.2287 98.4313 39.9702C98.766 39.7083 99.1306 39.526 99.525 39.4233C99.9228 39.3172 100.314 39.2642 100.698 39.2642C100.944 39.2642 101.225 39.294 101.544 39.3537C101.865 39.41 102.175 39.5277 102.473 39.7067C102.775 39.8857 103.025 40.1558 103.224 40.517C103.423 40.8783 103.522 41.3622 103.522 41.9688V47H102.349V45.9659H102.289C102.21 46.1316 102.077 46.3089 101.892 46.4979C101.706 46.6868 101.459 46.8475 101.151 46.9801C100.843 47.1127 100.466 47.179 100.022 47.179ZM100.201 46.125C100.665 46.125 101.056 46.0339 101.374 45.8516C101.696 45.6693 101.938 45.4339 102.1 45.1456C102.266 44.8572 102.349 44.554 102.349 44.2358V43.1619C102.299 43.2216 102.19 43.2763 102.021 43.326C101.855 43.3724 101.663 43.4138 101.444 43.4503C101.229 43.4834 101.018 43.5133 100.813 43.5398C100.61 43.563 100.446 43.5829 100.32 43.5994C100.016 43.6392 99.7305 43.7038 99.4654 43.7933C99.2035 43.8795 98.9914 44.0104 98.829 44.1861C98.6699 44.3584 98.5904 44.5937 98.5904 44.892C98.5904 45.2997 98.7412 45.608 99.0428 45.8168C99.3477 46.0223 99.7338 46.125 100.201 46.125ZM108.985 39.3636V40.358H105.027V39.3636H108.985ZM106.181 37.5341H107.354V44.8125C107.354 45.1439 107.402 45.3925 107.498 45.5582C107.598 45.7206 107.724 45.83 107.876 45.8864C108.032 45.9394 108.196 45.9659 108.368 45.9659C108.498 45.9659 108.604 45.9593 108.686 45.946C108.769 45.9295 108.836 45.9162 108.885 45.9062L109.124 46.9602C109.044 46.9901 108.933 47.0199 108.791 47.0497C108.648 47.0829 108.468 47.0994 108.249 47.0994C107.917 47.0994 107.593 47.0282 107.275 46.8857C106.96 46.7431 106.698 46.526 106.489 46.2344C106.283 45.9427 106.181 45.5748 106.181 45.1307V37.5341ZM113.869 47.1591C113.134 47.1591 112.499 46.9967 111.965 46.6719C111.435 46.3438 111.026 45.8864 110.737 45.2997C110.452 44.7098 110.31 44.0237 110.31 43.2415C110.31 42.4593 110.452 41.7699 110.737 41.1733C111.026 40.5734 111.427 40.1061 111.94 39.7713C112.457 39.4332 113.061 39.2642 113.75 39.2642C114.148 39.2642 114.54 39.3305 114.928 39.4631C115.316 39.5956 115.669 39.8111 115.987 40.1094C116.305 40.4044 116.559 40.7955 116.748 41.2827C116.937 41.7699 117.031 42.3698 117.031 43.0824V43.5795H111.145V42.5653H115.838C115.838 42.1345 115.752 41.75 115.58 41.4119C115.411 41.0739 115.169 40.8071 114.854 40.6115C114.542 40.416 114.174 40.3182 113.75 40.3182C113.283 40.3182 112.878 40.4342 112.537 40.6662C112.199 40.8949 111.939 41.1932 111.756 41.5611C111.574 41.929 111.483 42.3234 111.483 42.7443V43.4205C111.483 43.9972 111.582 44.486 111.781 44.8871C111.983 45.2848 112.263 45.5881 112.621 45.7969C112.979 46.0024 113.395 46.1051 113.869 46.1051C114.178 46.1051 114.456 46.062 114.705 45.9759C114.956 45.8864 115.174 45.7538 115.356 45.5781C115.538 45.3991 115.679 45.1771 115.778 44.9119L116.912 45.2301C116.793 45.6146 116.592 45.9527 116.31 46.2443C116.029 46.5327 115.681 46.758 115.266 46.9205C114.852 47.0795 114.386 47.1591 113.869 47.1591ZM124.225 41.0739L123.171 41.3722C123.105 41.1965 123.007 41.0258 122.878 40.8601C122.752 40.6911 122.58 40.5518 122.361 40.4425C122.142 40.3331 121.862 40.2784 121.521 40.2784C121.053 40.2784 120.664 40.3861 120.352 40.6016C120.044 40.8137 119.89 41.0838 119.89 41.4119C119.89 41.7036 119.996 41.9339 120.208 42.103C120.42 42.272 120.752 42.4129 121.202 42.5256L122.336 42.804C123.019 42.9697 123.527 43.2232 123.862 43.5646C124.197 43.9027 124.364 44.3385 124.364 44.8722C124.364 45.3097 124.238 45.7008 123.987 46.0455C123.738 46.3902 123.39 46.6619 122.942 46.8608C122.495 47.0597 121.975 47.1591 121.381 47.1591C120.603 47.1591 119.958 46.9901 119.447 46.652C118.937 46.3139 118.614 45.8201 118.478 45.1705L119.592 44.892C119.698 45.303 119.898 45.6113 120.193 45.8168C120.491 46.0223 120.881 46.125 121.362 46.125C121.908 46.125 122.343 46.009 122.664 45.777C122.989 45.5417 123.151 45.2599 123.151 44.9318C123.151 44.6667 123.058 44.4446 122.873 44.2656C122.687 44.0833 122.402 43.9474 122.018 43.858L120.745 43.5597C120.046 43.3939 119.532 43.1371 119.204 42.7891C118.879 42.4377 118.717 41.9986 118.717 41.4716C118.717 41.0407 118.838 40.6596 119.08 40.3281C119.325 39.9967 119.658 39.7365 120.079 39.5476C120.503 39.3587 120.984 39.2642 121.521 39.2642C122.276 39.2642 122.87 39.4299 123.3 39.7614C123.735 40.0928 124.043 40.5303 124.225 41.0739Z" fill="#3A4759"/>
</svg>
