<svg width="53" height="52" viewBox="0 0 53 52" fill="none" xmlns="http://www.w3.org/2000/svg">
<path d="M8.125 11.125C8.47917 9.04167 9.47396 7.33333 11.1094 6C12.7448 4.66667 14.625 4 16.75 4C18.1042 4 19.3698 4.3125 20.5469 4.9375C21.724 5.5625 22.75 6.40625 23.625 7.46875V4H25.5V11.125H18.375V9.25H22.5625C21.8958 8.25 21.0573 7.4375 20.0469 6.8125C19.0365 6.1875 17.9375 5.875 16.75 5.875C15.1458 5.875 13.7135 6.35938 12.4531 7.32812C11.1927 8.29688 10.3854 9.5625 10.0312 11.125H8.125ZM27.9062 25.25L22.1562 19.5C21.3854 20.1458 20.5417 20.6354 19.625 20.9688C18.7083 21.3021 17.75 21.4688 16.75 21.4688C15.3958 21.4688 14.1198 21.1875 12.9219 20.625C11.724 20.0625 10.7083 19.25 9.875 18.1875V21.5H8V14.375H15.125V16.25H10.7812C11.4688 17.25 12.3333 18.0573 13.375 18.6719C14.4167 19.2865 15.5417 19.5938 16.75 19.5938C18.3125 19.5938 19.7031 19.1042 20.9219 18.125C22.1406 17.1458 22.9479 15.8958 23.3438 14.375H25.25C25.1458 15.0833 24.9427 15.7552 24.6406 16.3906C24.3385 17.026 23.9583 17.6146 23.5 18.1562L29.25 23.9062L27.9062 25.25Z" fill="#3A4759"/>
<path d="M41.5 16.6094L37.75 12.8594L38.4219 12.1875L41.5 15.2812L44.5781 12.2031L45.25 12.875L41.5 16.6094Z" fill="#3A4759"/>
<path d="M1.23295 47V36.8182H4.6733C5.46875 36.8182 6.12169 36.9541 6.6321 37.2259C7.14252 37.4943 7.52036 37.8639 7.76562 38.3345C8.01089 38.8052 8.13352 39.3404 8.13352 39.9403C8.13352 40.5402 8.01089 41.0722 7.76562 41.5362C7.52036 42.0002 7.14418 42.3648 6.63707 42.63C6.12997 42.8918 5.48201 43.0227 4.69318 43.0227H1.90909V41.9091H4.65341C5.19697 41.9091 5.63447 41.8295 5.96591 41.6705C6.30066 41.5114 6.54261 41.286 6.69176 40.9943C6.84422 40.6993 6.92045 40.348 6.92045 39.9403C6.92045 39.5327 6.84422 39.1764 6.69176 38.8714C6.5393 38.5665 6.29569 38.3312 5.96094 38.1655C5.62618 37.9964 5.18371 37.9119 4.63352 37.9119H2.46591V47H1.23295ZM6.02557 42.4261L8.53125 47H7.09943L4.63352 42.4261H6.02557ZM13.1486 47.1591C12.4128 47.1591 11.7781 46.9967 11.2445 46.6719C10.7142 46.3438 10.3049 45.8864 10.0165 45.2997C9.73147 44.7098 9.58896 44.0237 9.58896 43.2415C9.58896 42.4593 9.73147 41.7699 10.0165 41.1733C10.3049 40.5734 10.7059 40.1061 11.2196 39.7713C11.7367 39.4332 12.3399 39.2642 13.0293 39.2642C13.427 39.2642 13.8198 39.3305 14.2076 39.4631C14.5953 39.5956 14.9483 39.8111 15.2665 40.1094C15.5847 40.4044 15.8382 40.7955 16.0272 41.2827C16.2161 41.7699 16.3105 42.3698 16.3105 43.0824V43.5795H10.4242V42.5653H15.1174C15.1174 42.1345 15.0312 41.75 14.8588 41.4119C14.6898 41.0739 14.4479 40.8071 14.133 40.6115C13.8214 40.416 13.4535 40.3182 13.0293 40.3182C12.562 40.3182 12.1576 40.4342 11.8162 40.6662C11.4782 40.8949 11.218 41.1932 11.0357 41.5611C10.8534 41.929 10.7623 42.3234 10.7623 42.7443V43.4205C10.7623 43.9972 10.8617 44.486 11.0605 44.8871C11.2627 45.2848 11.5428 45.5881 11.9007 45.7969C12.2587 46.0024 12.6747 46.1051 13.1486 46.1051C13.4569 46.1051 13.7353 46.062 13.9838 45.9759C14.2357 45.8864 14.4528 45.7538 14.6351 45.5781C14.8174 45.3991 14.9583 45.1771 15.0577 44.9119L16.1912 45.2301C16.0719 45.6146 15.8714 45.9527 15.5897 46.2443C15.3079 46.5327 14.9599 46.758 14.5456 46.9205C14.1313 47.0795 13.6657 47.1591 13.1486 47.1591ZM18.0953 49.8636V39.3636H19.2289V40.5767H19.3681C19.4542 40.4441 19.5736 40.2751 19.726 40.0696C19.8818 39.8608 20.1039 39.6752 20.3922 39.5128C20.6839 39.3471 21.0783 39.2642 21.5755 39.2642C22.2185 39.2642 22.7852 39.425 23.2757 39.7464C23.7663 40.0679 24.1491 40.5237 24.4242 41.1136C24.6993 41.7036 24.8368 42.3996 24.8368 43.2017C24.8368 44.0104 24.6993 44.7114 24.4242 45.3047C24.1491 45.8946 23.7679 46.352 23.2807 46.6768C22.7935 46.9983 22.2317 47.1591 21.5953 47.1591C21.1048 47.1591 20.7121 47.0779 20.4171 46.9155C20.1221 46.7498 19.8951 46.5625 19.736 46.3537C19.5769 46.1416 19.4542 45.9659 19.3681 45.8267H19.2686V49.8636H18.0953ZM19.2488 43.1818C19.2488 43.7585 19.3333 44.2673 19.5023 44.7081C19.6713 45.1456 19.9183 45.4886 20.2431 45.7372C20.5679 45.9825 20.9656 46.1051 21.4363 46.1051C21.9268 46.1051 22.3361 45.9759 22.6642 45.7173C22.9957 45.4555 23.2443 45.1042 23.41 44.6634C23.579 44.2192 23.6635 43.7254 23.6635 43.1818C23.6635 42.6449 23.5807 42.161 23.415 41.7301C23.2525 41.2959 23.0056 40.9529 22.6742 40.701C22.3461 40.4458 21.9334 40.3182 21.4363 40.3182C20.959 40.3182 20.5579 40.4392 20.2331 40.6811C19.9083 40.9197 19.6631 41.2545 19.4973 41.6854C19.3316 42.1129 19.2488 42.6117 19.2488 43.1818ZM27.7999 36.8182V47H26.6266V36.8182H27.7999ZM32.196 47.179C31.7121 47.179 31.273 47.0878 30.8786 46.9055C30.4841 46.7199 30.1709 46.4531 29.9389 46.1051C29.7069 45.7538 29.5909 45.3295 29.5909 44.8324C29.5909 44.3949 29.6771 44.0402 29.8494 43.7685C30.0218 43.4934 30.2521 43.2779 30.5405 43.1222C30.8288 42.9664 31.147 42.8504 31.495 42.7741C31.8464 42.6946 32.1993 42.6316 32.554 42.5852C33.018 42.5256 33.3942 42.4808 33.6825 42.451C33.9742 42.4179 34.1863 42.3632 34.3189 42.2869C34.4548 42.2107 34.5227 42.0781 34.5227 41.8892V41.8494C34.5227 41.3589 34.3885 40.9777 34.12 40.706C33.8549 40.4342 33.4522 40.2983 32.9119 40.2983C32.3518 40.2983 31.9126 40.4209 31.5945 40.6662C31.2763 40.9115 31.0526 41.1733 30.9233 41.4517L29.8097 41.054C30.0085 40.59 30.2737 40.2287 30.6051 39.9702C30.9399 39.7083 31.3045 39.526 31.6989 39.4233C32.0966 39.3172 32.4877 39.2642 32.8722 39.2642C33.1174 39.2642 33.3991 39.294 33.7173 39.3537C34.0388 39.41 34.3487 39.5277 34.647 39.7067C34.9486 39.8857 35.1989 40.1558 35.3977 40.517C35.5966 40.8783 35.696 41.3622 35.696 41.9688V47H34.5227V45.9659H34.4631C34.3835 46.1316 34.2509 46.3089 34.0653 46.4979C33.8797 46.6868 33.6328 46.8475 33.3246 46.9801C33.0163 47.1127 32.6402 47.179 32.196 47.179ZM32.375 46.125C32.839 46.125 33.2301 46.0339 33.5483 45.8516C33.8698 45.6693 34.1117 45.4339 34.2741 45.1456C34.4399 44.8572 34.5227 44.554 34.5227 44.2358V43.1619C34.473 43.2216 34.3636 43.2763 34.1946 43.326C34.0289 43.3724 33.8366 43.4138 33.6179 43.4503C33.4025 43.4834 33.192 43.5133 32.9865 43.5398C32.7843 43.563 32.6203 43.5829 32.4943 43.5994C32.1894 43.6392 31.9044 43.7038 31.6392 43.7933C31.3774 43.8795 31.1652 44.0104 31.0028 44.1861C30.8438 44.3584 30.7642 44.5937 30.7642 44.892C30.7642 45.2997 30.915 45.608 31.2166 45.8168C31.5215 46.0223 31.9077 46.125 32.375 46.125ZM40.9398 47.1591C40.2239 47.1591 39.6074 46.9901 39.0904 46.652C38.5733 46.3139 38.1756 45.8482 37.8972 45.255C37.6188 44.6617 37.4796 43.9839 37.4796 43.2216C37.4796 42.446 37.6221 41.7616 37.9071 41.1683C38.1955 40.5717 38.5965 40.1061 39.1103 39.7713C39.6273 39.4332 40.2305 39.2642 40.9199 39.2642C41.4569 39.2642 41.9408 39.3636 42.3716 39.5625C42.8025 39.7614 43.1555 40.0398 43.4306 40.3977C43.7057 40.7557 43.8764 41.1733 43.9426 41.6506H42.7694C42.6799 41.3026 42.481 40.9943 42.1728 40.7259C41.8678 40.4541 41.4569 40.3182 40.9398 40.3182C40.4824 40.3182 40.0814 40.4375 39.7367 40.6761C39.3953 40.9115 39.1285 41.2446 38.9363 41.6754C38.7473 42.103 38.6529 42.6051 38.6529 43.1818C38.6529 43.7718 38.7457 44.2855 38.9313 44.723C39.1202 45.1605 39.3854 45.5002 39.7267 45.7422C40.0714 45.9841 40.4758 46.1051 40.9398 46.1051C41.2447 46.1051 41.5215 46.0521 41.7701 45.946C42.0186 45.84 42.2291 45.6875 42.4015 45.4886C42.5738 45.2898 42.6964 45.0511 42.7694 44.7727H43.9426C43.8764 45.2235 43.7123 45.6295 43.4505 45.9908C43.1919 46.3487 42.8489 46.6338 42.4213 46.8459C41.9971 47.0547 41.5033 47.1591 40.9398 47.1591ZM48.8596 47.1591C48.1238 47.1591 47.4891 46.9967 46.9554 46.6719C46.4251 46.3438 46.0158 45.8864 45.7275 45.2997C45.4424 44.7098 45.2999 44.0237 45.2999 43.2415C45.2999 42.4593 45.4424 41.7699 45.7275 41.1733C46.0158 40.5734 46.4168 40.1061 46.9306 39.7713C47.4476 39.4332 48.0508 39.2642 48.7402 39.2642C49.138 39.2642 49.5307 39.3305 49.9185 39.4631C50.3063 39.5956 50.6593 39.8111 50.9775 40.1094C51.2956 40.4044 51.5492 40.7955 51.7381 41.2827C51.927 41.7699 52.0215 42.3698 52.0215 43.0824V43.5795H46.1351V42.5653H50.8283C50.8283 42.1345 50.7421 41.75 50.5698 41.4119C50.4007 41.0739 50.1588 40.8071 49.8439 40.6115C49.5324 40.416 49.1645 40.3182 48.7402 40.3182C48.2729 40.3182 47.8685 40.4342 47.5272 40.6662C47.1891 40.8949 46.9289 41.1932 46.7466 41.5611C46.5643 41.929 46.4732 42.3234 46.4732 42.7443V43.4205C46.4732 43.9972 46.5726 44.486 46.7715 44.8871C46.9737 45.2848 47.2537 45.5881 47.6117 45.7969C47.9696 46.0024 48.3856 46.1051 48.8596 46.1051C49.1678 46.1051 49.4462 46.062 49.6948 45.9759C49.9467 45.8864 50.1638 45.7538 50.3461 45.5781C50.5284 45.3991 50.6692 45.1771 50.7686 44.9119L51.9022 45.2301C51.7828 45.6146 51.5823 45.9527 51.3006 46.2443C51.0189 46.5327 50.6709 46.758 50.2566 46.9205C49.8423 47.0795 49.3766 47.1591 48.8596 47.1591Z" fill="#3A4759"/>
</svg>
