<svg id="find" xmlns="http://www.w3.org/2000/svg" width="18.842" height="18.841" viewBox="0 0 18.842 18.841">
  <g id="Group_1765" data-name="Group 1765">
    <g id="Group_1764" data-name="Group 1764">
      <path id="Path_10450" data-name="Path 10450" d="M9.161,2.154a5.369,5.369,0,0,1,3.808,1.578L10.239,6.463H16.7V0L14.494,2.208A7.534,7.534,0,0,0,1.707,6.463H3.883A5.391,5.391,0,0,1,9.161,2.154Z" transform="translate(-1.621)" fill="#212245"/>
      <path id="Path_10451" data-name="Path 10451" d="M13.616,174.044A7.474,7.474,0,0,0,15,170.667H12.819A5.386,5.386,0,0,1,3.733,173.4l2.731-2.731H0v6.463l2.208-2.208A7.523,7.523,0,0,0,12,175.66l5.235,5.23,1.605-1.605Z" transform="translate(0 -162.049)" fill="#212245"/>
    </g>
  </g>
</svg>
