<svg width="45" height="52" viewBox="0 0 45 52" fill="none" xmlns="http://www.w3.org/2000/svg">
<path d="M14.125 25V15.4375L6.875 8.1875V12.0312H5V5H12.0312V6.875H8.21875L16 14.6562V25H14.125ZM17.6562 13.625L16.3438 12.3125L21.7812 6.875H17.9688V5H25V12.0312H23.125V8.1875L17.6562 13.625Z" fill="#3A4759"/>
<path d="M37.5 16.6094L33.75 12.8594L34.4219 12.1875L37.5 15.2812L40.5781 12.2031L41.25 12.875L37.5 16.6094Z" fill="#3A4759"/>
<path d="M14.3011 39.3636C14.2415 38.8598 13.9995 38.4688 13.5753 38.1903C13.151 37.9119 12.6307 37.7727 12.0142 37.7727C11.5634 37.7727 11.169 37.8456 10.831 37.9915C10.4962 38.1373 10.2344 38.3378 10.0455 38.593C9.85985 38.8482 9.76705 39.1383 9.76705 39.4631C9.76705 39.7348 9.83168 39.9685 9.96094 40.1641C10.0935 40.3563 10.2625 40.517 10.468 40.6463C10.6735 40.7723 10.889 40.8767 11.1143 40.9595C11.3397 41.0391 11.5469 41.1037 11.7358 41.1534L12.7699 41.4318C13.035 41.5014 13.33 41.5975 13.6548 41.7202C13.983 41.8428 14.2962 42.0102 14.5945 42.2223C14.8961 42.4311 15.1446 42.6996 15.3402 43.0277C15.5357 43.3558 15.6335 43.7585 15.6335 44.2358C15.6335 44.786 15.4893 45.2831 15.201 45.7273C14.916 46.1714 14.4983 46.5244 13.9482 46.7862C13.4013 47.0481 12.7367 47.179 11.9545 47.179C11.2254 47.179 10.594 47.0613 10.0604 46.826C9.53007 46.5907 9.11245 46.2625 8.80753 45.8416C8.50592 45.4207 8.33523 44.9318 8.29545 44.375H9.56818C9.60133 44.7595 9.73059 45.0777 9.95597 45.3295C10.1847 45.5781 10.473 45.7637 10.821 45.8864C11.1723 46.0057 11.5502 46.0653 11.9545 46.0653C12.4252 46.0653 12.8478 45.9891 13.2223 45.8366C13.5968 45.6809 13.8935 45.4654 14.1122 45.1903C14.331 44.9119 14.4403 44.5871 14.4403 44.2159C14.4403 43.8778 14.3459 43.6027 14.157 43.3906C13.968 43.1785 13.7195 43.0062 13.4112 42.8736C13.103 42.741 12.7699 42.625 12.4119 42.5256L11.1591 42.1676C10.3636 41.9389 9.7339 41.6125 9.26989 41.1882C8.80587 40.764 8.57386 40.2088 8.57386 39.5227C8.57386 38.9527 8.72798 38.4555 9.03622 38.0312C9.34777 37.6037 9.76539 37.2723 10.2891 37.0369C10.8161 36.7983 11.4044 36.679 12.054 36.679C12.7102 36.679 13.2936 36.7966 13.804 37.032C14.3144 37.264 14.7188 37.5821 15.017 37.9865C15.3187 38.3909 15.4777 38.8499 15.4943 39.3636H14.3011ZM17.5016 49.8636V39.3636H18.6351V40.5767H18.7743C18.8605 40.4441 18.9798 40.2751 19.1323 40.0696C19.2881 39.8608 19.5101 39.6752 19.7985 39.5128C20.0901 39.3471 20.4846 39.2642 20.9817 39.2642C21.6247 39.2642 22.1915 39.425 22.682 39.7464C23.1725 40.0679 23.5553 40.5237 23.8304 41.1136C24.1055 41.7036 24.2431 42.3996 24.2431 43.2017C24.2431 44.0104 24.1055 44.7114 23.8304 45.3047C23.5553 45.8946 23.1742 46.352 22.687 46.6768C22.1998 46.9983 21.638 47.1591 21.0016 47.1591C20.5111 47.1591 20.1183 47.0779 19.8233 46.9155C19.5283 46.7498 19.3013 46.5625 19.1422 46.3537C18.9831 46.1416 18.8605 45.9659 18.7743 45.8267H18.6749V49.8636H17.5016ZM18.655 43.1818C18.655 43.7585 18.7395 44.2673 18.9086 44.7081C19.0776 45.1456 19.3245 45.4886 19.6493 45.7372C19.9741 45.9825 20.3719 46.1051 20.8425 46.1051C21.333 46.1051 21.7424 45.9759 22.0705 45.7173C22.4019 45.4555 22.6505 45.1042 22.8162 44.6634C22.9853 44.2192 23.0698 43.7254 23.0698 43.1818C23.0698 42.6449 22.9869 42.161 22.8212 41.7301C22.6588 41.2959 22.4119 40.9529 22.0804 40.701C21.7523 40.4458 21.3397 40.3182 20.8425 40.3182C20.3652 40.3182 19.9642 40.4392 19.6394 40.6811C19.3146 40.9197 19.0693 41.2545 18.9036 41.6854C18.7379 42.1129 18.655 42.6117 18.655 43.1818ZM27.2061 36.8182V47H26.0328V36.8182H27.2061ZM29.3551 47V39.3636H30.5284V47H29.3551ZM29.9517 38.0909C29.723 38.0909 29.5258 38.013 29.3601 37.8572C29.1977 37.7015 29.1165 37.5142 29.1165 37.2955C29.1165 37.0767 29.1977 36.8894 29.3601 36.7337C29.5258 36.5779 29.723 36.5 29.9517 36.5C30.1804 36.5 30.3759 36.5779 30.5384 36.7337C30.7041 36.8894 30.7869 37.0767 30.7869 37.2955C30.7869 37.5142 30.7041 37.7015 30.5384 37.8572C30.3759 38.013 30.1804 38.0909 29.9517 38.0909ZM35.9984 39.3636V40.358H32.041V39.3636H35.9984ZM33.1944 37.5341H34.3677V44.8125C34.3677 45.1439 34.4158 45.3925 34.5119 45.5582C34.6113 45.7206 34.7373 45.83 34.8897 45.8864C35.0455 45.9394 35.2096 45.9659 35.3819 45.9659C35.5112 45.9659 35.6172 45.9593 35.7001 45.946C35.783 45.9295 35.8493 45.9162 35.899 45.9062L36.1376 46.9602C36.0581 46.9901 35.947 47.0199 35.8045 47.0497C35.662 47.0829 35.4814 47.0994 35.2626 47.0994C34.9312 47.0994 34.6064 47.0282 34.2882 46.8857C33.9733 46.7431 33.7115 46.526 33.5027 46.2344C33.2972 45.9427 33.1944 45.5748 33.1944 45.1307V37.5341Z" fill="#3A4759"/>
</svg>
