<svg xmlns="http://www.w3.org/2000/svg" width="28" height="22" viewBox="0 0 28 22">
  <g id="Group_1776" data-name="Group 1776" transform="translate(0.369 -0.346)">
    <rect id="Rectangle_2645" data-name="Rectangle 2645" width="13" height="22" transform="translate(7.631 0.345)" fill="#212245"/>
    <g id="Rectangle_2646" data-name="Rectangle 2646" transform="translate(19.631 2.345)" fill="none" stroke="#212245" stroke-width="1">
      <rect width="8" height="18" stroke="none"/>
      <rect x="0.5" y="0.5" width="7" height="17" fill="none"/>
    </g>
    <g id="Rectangle_2647" data-name="Rectangle 2647" transform="translate(-0.369 2.345)" fill="none" stroke="#212245" stroke-width="1">
      <rect width="9" height="18" stroke="none"/>
      <rect x="0.5" y="0.5" width="8" height="17" fill="none"/>
    </g>
    <g id="noun_Data_monitoring_2244001" data-name="noun_Data monitoring_2244001" transform="translate(7.207 19.008) rotate(-76)">
      <path id="Path_9948" data-name="Path 9948" d="M5.2,0a5.2,5.2,0,1,0,5.206,5.2A5.208,5.208,0,0,0,5.2,0Zm0,9.159A3.954,3.954,0,1,1,9.157,5.2,3.957,3.957,0,0,1,5.2,9.159Z" transform="translate(2.911 0)" fill="#fff"/>
      <path id="Path_9950" data-name="Path 9950" d="M3.066,0,2.387.679a.209.209,0,0,0,0,.294l.213.213L.365,3.422A1.243,1.243,0,0,0,2.123,5.18L4.357,2.944l.214.214a.21.21,0,0,0,.294,0l.644-.648A5.638,5.638,0,0,1,3.066,0Z" transform="translate(0 7.67)" fill="#fff"/>
    </g>
    <path id="check" d="M2.319,5.018a.309.309,0,0,1-.437,0L.136,3.272a.464.464,0,0,1,0-.656L.355,2.4a.464.464,0,0,1,.656,0L2.1,3.487,5.046.542a.464.464,0,0,1,.656,0L5.92.761a.464.464,0,0,1,0,.656Zm0,0" transform="translate(10.939 9.91)" fill="#fff"/>
  </g>
</svg>
