<svg width="80" height="52" viewBox="0 0 80 52" fill="none" xmlns="http://www.w3.org/2000/svg">
<path d="M21.25 23.75V6.25H43.75V23.75H21.25ZM23.125 21.875H28.125V8.125H23.125V21.875ZM30 21.875H35V8.125H30V21.875ZM36.875 21.875H41.875V8.125H36.875V21.875Z" fill="#3A4759"/>
<rect x="27" y="5" width="11" height="17" fill="#3A4759"/>
<path d="M28.3808 11.5571C28.2064 12.2598 28.2443 12.9983 28.4896 13.6794C28.735 14.3605 29.1767 14.9536 29.759 15.3837C30.3413 15.8138 31.0381 16.0616 31.7612 16.0958C32.4843 16.1301 33.2014 15.9491 33.8217 15.5759C34.442 15.2027 34.9377 14.654 35.2463 13.9991C35.5548 13.3442 35.6622 12.6125 35.555 11.8966C35.4478 11.1806 35.1308 10.5125 34.6439 9.97671C34.1571 9.44091 33.5224 9.06146 32.8199 8.88633C31.8771 8.6528 30.8802 8.80287 30.048 9.3036C29.2157 9.80432 28.6161 10.6148 28.3808 11.5571V11.5571ZM34.6378 13.1172C34.5043 13.6511 34.2155 14.1335 33.8079 14.5033C33.4003 14.8731 32.8923 15.1139 32.3479 15.1951C31.8036 15.2763 31.2474 15.1943 30.7496 14.9596C30.2518 14.7248 29.8348 14.3478 29.5512 13.8761C29.2676 13.4044 29.1302 12.8592 29.1564 12.3095C29.1825 11.7598 29.371 11.2301 29.698 10.7874C30.025 10.3448 30.4759 10.009 30.9937 9.82246C31.5115 9.63596 32.073 9.60712 32.6072 9.73959C32.9623 9.82795 33.2966 9.98542 33.5909 10.203C33.8852 10.4206 34.1337 10.694 34.3223 11.0077C34.5109 11.3213 34.6358 11.6691 34.6899 12.031C34.7441 12.393 34.7264 12.7621 34.6378 13.1172Z" fill="white"/>
<path d="M32.7603 16.3103L33.1085 16.8899C33.1287 16.923 33.1611 16.9468 33.1987 16.9562C33.2363 16.9656 33.2761 16.9597 33.3094 16.9399L33.4912 16.8307L34.638 18.7384C34.7576 18.9374 34.9513 19.0807 35.1765 19.1369C35.4018 19.193 35.6401 19.1574 35.839 19.0379C36.038 18.9183 36.1813 18.7246 36.2375 18.4994C36.2936 18.2742 36.258 18.0359 36.1385 17.8369L34.9915 15.9298L35.1741 15.8201C35.2071 15.7998 35.2308 15.7675 35.2401 15.7299C35.2495 15.6923 35.2438 15.6526 35.2242 15.6192L34.8912 15.0689C34.3307 15.6985 33.5844 16.1333 32.7603 16.3103V16.3103Z" fill="white"/>
<path d="M55 16.6094L51.25 12.8594L51.9219 12.1875L55 15.2812L58.0781 12.2031L58.75 12.875L55 16.6094Z" fill="#3A4759"/>
<path d="M6.80114 39.3636C6.74148 38.8598 6.49953 38.4688 6.07528 38.1903C5.65104 37.9119 5.13068 37.7727 4.5142 37.7727C4.06345 37.7727 3.66903 37.8456 3.33097 37.9915C2.99621 38.1373 2.73438 38.3378 2.54545 38.593C2.35985 38.8482 2.26705 39.1383 2.26705 39.4631C2.26705 39.7348 2.33168 39.9685 2.46094 40.1641C2.59351 40.3563 2.76255 40.517 2.96804 40.6463C3.17353 40.7723 3.38897 40.8767 3.61435 40.9595C3.83973 41.0391 4.04688 41.1037 4.2358 41.1534L5.26989 41.4318C5.53504 41.5014 5.83002 41.5975 6.15483 41.7202C6.48295 41.8428 6.79616 42.0102 7.09446 42.2223C7.39607 42.4311 7.64465 42.6996 7.8402 43.0277C8.03575 43.3558 8.13352 43.7585 8.13352 44.2358C8.13352 44.786 7.98935 45.2831 7.70099 45.7273C7.41596 46.1714 6.99834 46.5244 6.44815 46.7862C5.90128 47.0481 5.23674 47.179 4.45455 47.179C3.72538 47.179 3.09399 47.0613 2.56037 46.826C2.03007 46.5907 1.61245 46.2625 1.30753 45.8416C1.00592 45.4207 0.835227 44.9318 0.795455 44.375H2.06818C2.10133 44.7595 2.23059 45.0777 2.45597 45.3295C2.68466 45.5781 2.97301 45.7637 3.32102 45.8864C3.67235 46.0057 4.05019 46.0653 4.45455 46.0653C4.92519 46.0653 5.34777 45.9891 5.7223 45.8366C6.09683 45.6809 6.39347 45.4654 6.61222 45.1903C6.83097 44.9119 6.94034 44.5871 6.94034 44.2159C6.94034 43.8778 6.84588 43.6027 6.65696 43.3906C6.46804 43.1785 6.21946 43.0062 5.91122 42.8736C5.60298 42.741 5.26989 42.625 4.91193 42.5256L3.65909 42.1676C2.86364 41.9389 2.2339 41.6125 1.76989 41.1882C1.30587 40.764 1.07386 40.2088 1.07386 39.5227C1.07386 38.9527 1.22798 38.4555 1.53622 38.0312C1.84777 37.6037 2.26539 37.2723 2.78906 37.0369C3.31605 36.7983 3.90436 36.679 4.55398 36.679C5.21023 36.679 5.79356 36.7966 6.30398 37.032C6.81439 37.264 7.21875 37.5821 7.51705 37.9865C7.81866 38.3909 7.97775 38.8499 7.99432 39.3636H6.80114ZM13.3226 39.3636V40.358H9.36523V39.3636H13.3226ZM10.5186 37.5341H11.6919V44.8125C11.6919 45.1439 11.74 45.3925 11.8361 45.5582C11.9355 45.7206 12.0615 45.83 12.214 45.8864C12.3697 45.9394 12.5338 45.9659 12.7061 45.9659C12.8354 45.9659 12.9415 45.9593 13.0243 45.946C13.1072 45.9295 13.1735 45.9162 13.2232 45.9062L13.4618 46.9602C13.3823 46.9901 13.2712 47.0199 13.1287 47.0497C12.9862 47.0829 12.8056 47.0994 12.5868 47.0994C12.2554 47.0994 11.9306 47.0282 11.6124 46.8857C11.2975 46.7431 11.0357 46.526 10.8269 46.2344C10.6214 45.9427 10.5186 45.5748 10.5186 45.1307V37.5341ZM17.3347 47.179C16.8508 47.179 16.4116 47.0878 16.0172 46.9055C15.6228 46.7199 15.3096 46.4531 15.0776 46.1051C14.8456 45.7538 14.7296 45.3295 14.7296 44.8324C14.7296 44.3949 14.8158 44.0402 14.9881 43.7685C15.1605 43.4934 15.3908 43.2779 15.6792 43.1222C15.9675 42.9664 16.2857 42.8504 16.6337 42.7741C16.985 42.6946 17.338 42.6316 17.6926 42.5852C18.1567 42.5256 18.5328 42.4808 18.8212 42.451C19.1129 42.4179 19.325 42.3632 19.4576 42.2869C19.5935 42.2107 19.6614 42.0781 19.6614 41.8892V41.8494C19.6614 41.3589 19.5272 40.9777 19.2587 40.706C18.9935 40.4342 18.5909 40.2983 18.0506 40.2983C17.4905 40.2983 17.0513 40.4209 16.7331 40.6662C16.415 40.9115 16.1912 41.1733 16.062 41.4517L14.9483 41.054C15.1472 40.59 15.4123 40.2287 15.7438 39.9702C16.0785 39.7083 16.4431 39.526 16.8375 39.4233C17.2353 39.3172 17.6264 39.2642 18.0108 39.2642C18.2561 39.2642 18.5378 39.294 18.856 39.3537C19.1775 39.41 19.4874 39.5277 19.7857 39.7067C20.0873 39.8857 20.3375 40.1558 20.5364 40.517C20.7353 40.8783 20.8347 41.3622 20.8347 41.9688V47H19.6614V45.9659H19.6017C19.5222 46.1316 19.3896 46.3089 19.204 46.4979C19.0184 46.6868 18.7715 46.8475 18.4632 46.9801C18.155 47.1127 17.7788 47.179 17.3347 47.179ZM17.5137 46.125C17.9777 46.125 18.3688 46.0339 18.687 45.8516C19.0085 45.6693 19.2504 45.4339 19.4128 45.1456C19.5785 44.8572 19.6614 44.554 19.6614 44.2358V43.1619C19.6117 43.2216 19.5023 43.2763 19.3333 43.326C19.1676 43.3724 18.9753 43.4138 18.7566 43.4503C18.5411 43.4834 18.3307 43.5133 18.1252 43.5398C17.923 43.563 17.7589 43.5829 17.633 43.5994C17.3281 43.6392 17.043 43.7038 16.7779 43.7933C16.516 43.8795 16.3039 44.0104 16.1415 44.1861C15.9824 44.3584 15.9029 44.5937 15.9029 44.892C15.9029 45.2997 16.0537 45.608 16.3553 45.8168C16.6602 46.0223 17.0463 46.125 17.5137 46.125ZM24.1495 42.4062V47H22.9762V39.3636H24.1097V40.5568H24.2092C24.3881 40.169 24.6599 39.8575 25.0245 39.6222C25.3891 39.3835 25.8597 39.2642 26.4364 39.2642C26.9535 39.2642 27.4059 39.3703 27.7937 39.5824C28.1815 39.7912 28.4831 40.1094 28.6985 40.5369C28.9139 40.9612 29.0217 41.4981 29.0217 42.1477V47H27.8484V42.2273C27.8484 41.6274 27.6926 41.16 27.381 40.8253C27.0695 40.4872 26.6419 40.3182 26.0984 40.3182C25.7238 40.3182 25.3891 40.3994 25.0941 40.5618C24.8024 40.7242 24.5721 40.9612 24.4031 41.2727C24.234 41.5843 24.1495 41.9621 24.1495 42.4062ZM34.0492 47.1591C33.4128 47.1591 32.851 46.9983 32.3638 46.6768C31.8766 46.352 31.4954 45.8946 31.2203 45.3047C30.9453 44.7114 30.8077 44.0104 30.8077 43.2017C30.8077 42.3996 30.9453 41.7036 31.2203 41.1136C31.4954 40.5237 31.8783 40.0679 32.3688 39.7464C32.8593 39.425 33.4261 39.2642 34.0691 39.2642C34.5662 39.2642 34.959 39.3471 35.2473 39.5128C35.539 39.6752 35.7611 39.8608 35.9135 40.0696C36.0693 40.2751 36.1903 40.4441 36.2765 40.5767H36.3759V36.8182H37.5492V47H36.4157V45.8267H36.2765C36.1903 45.9659 36.0676 46.1416 35.9086 46.3537C35.7495 46.5625 35.5224 46.7498 35.2275 46.9155C34.9325 47.0779 34.5397 47.1591 34.0492 47.1591ZM34.2083 46.1051C34.6789 46.1051 35.0766 45.9825 35.4015 45.7372C35.7263 45.4886 35.9732 45.1456 36.1422 44.7081C36.3113 44.2673 36.3958 43.7585 36.3958 43.1818C36.3958 42.6117 36.3129 42.1129 36.1472 41.6854C35.9815 41.2545 35.7362 40.9197 35.4114 40.6811C35.0866 40.4392 34.6855 40.3182 34.2083 40.3182C33.7111 40.3182 33.2968 40.4458 32.9654 40.701C32.6373 40.9529 32.3903 41.2959 32.2246 41.7301C32.0622 42.161 31.981 42.6449 31.981 43.1818C31.981 43.7254 32.0639 44.2192 32.2296 44.6634C32.3986 45.1042 32.6472 45.4555 32.9753 45.7173C33.3068 45.9759 33.7177 46.1051 34.2083 46.1051ZM42.1081 47.179C41.6242 47.179 41.1851 47.0878 40.7907 46.9055C40.3962 46.7199 40.083 46.4531 39.851 46.1051C39.619 45.7538 39.503 45.3295 39.503 44.8324C39.503 44.3949 39.5892 44.0402 39.7615 43.7685C39.9339 43.4934 40.1642 43.2779 40.4526 43.1222C40.7409 42.9664 41.0591 42.8504 41.4071 42.7741C41.7585 42.6946 42.1114 42.6316 42.4661 42.5852C42.9301 42.5256 43.3063 42.4808 43.5946 42.451C43.8863 42.4179 44.0984 42.3632 44.231 42.2869C44.3669 42.2107 44.4348 42.0781 44.4348 41.8892V41.8494C44.4348 41.3589 44.3006 40.9777 44.0321 40.706C43.767 40.4342 43.3643 40.2983 42.824 40.2983C42.2639 40.2983 41.8248 40.4209 41.5066 40.6662C41.1884 40.9115 40.9647 41.1733 40.8354 41.4517L39.7218 41.054C39.9206 40.59 40.1858 40.2287 40.5172 39.9702C40.852 39.7083 41.2166 39.526 41.611 39.4233C42.0087 39.3172 42.3998 39.2642 42.7843 39.2642C43.0295 39.2642 43.3113 39.294 43.6294 39.3537C43.9509 39.41 44.2608 39.5277 44.5591 39.7067C44.8607 39.8857 45.111 40.1558 45.3098 40.517C45.5087 40.8783 45.6081 41.3622 45.6081 41.9688V47H44.4348V45.9659H44.3752C44.2956 46.1316 44.1631 46.3089 43.9775 46.4979C43.7918 46.6868 43.5449 46.8475 43.2367 46.9801C42.9284 47.1127 42.5523 47.179 42.1081 47.179ZM42.2871 46.125C42.7511 46.125 43.1422 46.0339 43.4604 45.8516C43.7819 45.6693 44.0239 45.4339 44.1863 45.1456C44.352 44.8572 44.4348 44.554 44.4348 44.2358V43.1619C44.3851 43.2216 44.2757 43.2763 44.1067 43.326C43.941 43.3724 43.7488 43.4138 43.53 43.4503C43.3146 43.4834 43.1041 43.5133 42.8986 43.5398C42.6964 43.563 42.5324 43.5829 42.4064 43.5994C42.1015 43.6392 41.8165 43.7038 41.5513 43.7933C41.2895 43.8795 41.0774 44.0104 40.915 44.1861C40.7559 44.3584 40.6763 44.5937 40.6763 44.892C40.6763 45.2997 40.8271 45.608 41.1287 45.8168C41.4337 46.0223 41.8198 46.125 42.2871 46.125ZM47.7496 47V39.3636H48.8832V40.517H48.9627C49.1019 40.1392 49.3538 39.8326 49.7184 39.5973C50.083 39.362 50.494 39.2443 50.9513 39.2443C51.0375 39.2443 51.1452 39.246 51.2745 39.2493C51.4038 39.2526 51.5015 39.2576 51.5678 39.2642V40.4574C51.5281 40.4474 51.4369 40.4325 51.2944 40.4126C51.1552 40.3894 51.0077 40.3778 50.8519 40.3778C50.4807 40.3778 50.1493 40.4557 49.8576 40.6115C49.5692 40.764 49.3406 40.9761 49.1715 41.2479C49.0058 41.5163 48.9229 41.8229 48.9229 42.1676V47H47.7496ZM55.6097 47.1591C54.9734 47.1591 54.4116 46.9983 53.9244 46.6768C53.4371 46.352 53.056 45.8946 52.7809 45.3047C52.5058 44.7114 52.3683 44.0104 52.3683 43.2017C52.3683 42.3996 52.5058 41.7036 52.7809 41.1136C53.056 40.5237 53.4388 40.0679 53.9293 39.7464C54.4199 39.425 54.9866 39.2642 55.6296 39.2642C56.1268 39.2642 56.5195 39.3471 56.8079 39.5128C57.0996 39.6752 57.3216 39.8608 57.4741 40.0696C57.6299 40.2751 57.7508 40.4441 57.837 40.5767H57.9364V36.8182H59.1097V47H57.9762V45.8267H57.837C57.7508 45.9659 57.6282 46.1416 57.4691 46.3537C57.31 46.5625 57.083 46.7498 56.788 46.9155C56.493 47.0779 56.1003 47.1591 55.6097 47.1591ZM55.7688 46.1051C56.2395 46.1051 56.6372 45.9825 56.962 45.7372C57.2868 45.4886 57.5337 45.1456 57.7028 44.7081C57.8718 44.2673 57.9563 43.7585 57.9563 43.1818C57.9563 42.6117 57.8735 42.1129 57.7077 41.6854C57.542 41.2545 57.2968 40.9197 56.9719 40.6811C56.6471 40.4392 56.2461 40.3182 55.7688 40.3182C55.2717 40.3182 54.8574 40.4458 54.5259 40.701C54.1978 40.9529 53.9509 41.2959 53.7852 41.7301C53.6228 42.161 53.5415 42.6449 53.5415 43.1818C53.5415 43.7254 53.6244 44.2192 53.7901 44.6634C53.9592 45.1042 54.2077 45.4555 54.5359 45.7173C54.8673 45.9759 55.2783 46.1051 55.7688 46.1051ZM61.4215 47V39.3636H62.5948V47H61.4215ZM62.0181 38.0909C61.7894 38.0909 61.5922 38.013 61.4265 37.8572C61.2641 37.7015 61.1829 37.5142 61.1829 37.2955C61.1829 37.0767 61.2641 36.8894 61.4265 36.7337C61.5922 36.5779 61.7894 36.5 62.0181 36.5C62.2468 36.5 62.4424 36.5779 62.6048 36.7337C62.7705 36.8894 62.8533 37.0767 62.8533 37.2955C62.8533 37.5142 62.7705 37.7015 62.6048 37.8572C62.4424 38.013 62.2468 38.0909 62.0181 38.0909ZM70.1529 41.0739L69.0989 41.3722C69.0326 41.1965 68.9348 41.0258 68.8056 40.8601C68.6796 40.6911 68.5073 40.5518 68.2885 40.4425C68.0698 40.3331 67.7897 40.2784 67.4483 40.2784C66.981 40.2784 66.5916 40.3861 66.28 40.6016C65.9718 40.8137 65.8176 41.0838 65.8176 41.4119C65.8176 41.7036 65.9237 41.9339 66.1358 42.103C66.348 42.272 66.6794 42.4129 67.1301 42.5256L68.2637 42.804C68.9464 42.9697 69.4552 43.2232 69.79 43.5646C70.1247 43.9027 70.2921 44.3385 70.2921 44.8722C70.2921 45.3097 70.1661 45.7008 69.9142 46.0455C69.6657 46.3902 69.3176 46.6619 68.8702 46.8608C68.4228 47.0597 67.9024 47.1591 67.3091 47.1591C66.5302 47.1591 65.8856 46.9901 65.3752 46.652C64.8648 46.3139 64.5416 45.8201 64.4057 45.1705L65.5194 44.892C65.6254 45.303 65.8259 45.6113 66.1209 45.8168C66.4192 46.0223 66.8087 46.125 67.2892 46.125C67.8361 46.125 68.2703 46.009 68.5918 45.777C68.9166 45.5417 69.079 45.2599 69.079 44.9318C69.079 44.6667 68.9862 44.4446 68.8006 44.2656C68.615 44.0833 68.33 43.9474 67.9455 43.858L66.6728 43.5597C65.9734 43.3939 65.4597 43.1371 65.1316 42.7891C64.8068 42.4377 64.6444 41.9986 64.6444 41.4716C64.6444 41.0407 64.7653 40.6596 65.0073 40.3281C65.2525 39.9967 65.5856 39.7365 66.0066 39.5476C66.4308 39.3587 66.9114 39.2642 67.4483 39.2642C68.204 39.2642 68.7973 39.4299 69.2282 39.7614C69.6623 40.0928 69.9706 40.5303 70.1529 41.0739ZM75.2599 47.1591C74.5241 47.1591 73.8894 46.9967 73.3558 46.6719C72.8255 46.3438 72.4162 45.8864 72.1278 45.2997C71.8428 44.7098 71.7003 44.0237 71.7003 43.2415C71.7003 42.4593 71.8428 41.7699 72.1278 41.1733C72.4162 40.5734 72.8172 40.1061 73.331 39.7713C73.848 39.4332 74.4512 39.2642 75.1406 39.2642C75.5384 39.2642 75.9311 39.3305 76.3189 39.4631C76.7067 39.5956 77.0597 39.8111 77.3778 40.1094C77.696 40.4044 77.9496 40.7955 78.1385 41.2827C78.3274 41.7699 78.4219 42.3698 78.4219 43.0824V43.5795H72.5355V42.5653H77.2287C77.2287 42.1345 77.1425 41.75 76.9702 41.4119C76.8011 41.0739 76.5592 40.8071 76.2443 40.6115C75.9328 40.416 75.5649 40.3182 75.1406 40.3182C74.6733 40.3182 74.2689 40.4342 73.9276 40.6662C73.5895 40.8949 73.3293 41.1932 73.147 41.5611C72.9647 41.929 72.8736 42.3234 72.8736 42.7443V43.4205C72.8736 43.9972 72.973 44.486 73.1719 44.8871C73.3741 45.2848 73.6541 45.5881 74.0121 45.7969C74.37 46.0024 74.786 46.1051 75.2599 46.1051C75.5682 46.1051 75.8466 46.062 76.0952 45.9759C76.3471 45.8864 76.5642 45.7538 76.7464 45.5781C76.9287 45.3991 77.0696 45.1771 77.169 44.9119L78.3026 45.2301C78.1832 45.6146 77.9827 45.9527 77.701 46.2443C77.4193 46.5327 77.0713 46.758 76.657 46.9205C76.2427 47.0795 75.777 47.1591 75.2599 47.1591Z" fill="#3A4759"/>
</svg>
