<svg xmlns="http://www.w3.org/2000/svg" width="32" height="32" viewBox="0 0 32 32">
  <g id="Group_2445" data-name="Group 2445" transform="translate(22305 -17197)">
    <g id="Ellipse_1109" data-name="Ellipse 1109" transform="translate(-22305 17197)" fill="#fff" stroke="#f6f6f6" stroke-width="2">
      <circle cx="16" cy="16" r="16" stroke="none"/>
      <circle cx="16" cy="16" r="15" fill="none"/>
    </g>
    <g id="profile" transform="translate(-22297 17204.85)">
      <g id="Group_2405" data-name="Group 2405" transform="translate(2.717)">
        <path id="Path_11322" data-name="Path 11322" d="M7.4,6.792a3.4,3.4,0,1,1,3.4-3.4A3.4,3.4,0,0,1,7.4,6.792ZM7.4.679A2.717,2.717,0,1,0,10.113,3.4,2.72,2.72,0,0,0,7.4.679Z" transform="translate(-4)" fill="#00dfba"/>
      </g>
      <g id="Group_2406" data-name="Group 2406" transform="translate(0 8.15)">
        <path id="Path_11323" data-name="Path 11323" d="M5.773,18.113H.34a.34.34,0,0,1-.34-.34V15.056A3.06,3.06,0,0,1,3.056,12H7.132a.34.34,0,0,1,0,.679H3.056A2.38,2.38,0,0,0,.679,15.056v2.377H5.773a.34.34,0,0,1,0,.679Z" transform="translate(0 -12)" fill="#00dfba"/>
      </g>
      <g id="Group_2409" data-name="Group 2409" transform="translate(7.361 7.472)">
        <g id="Group_2407" data-name="Group 2407" transform="translate(2.487 2.716)">
          <path id="Path_11324" data-name="Path 11324" d="M16.2,18.4a1.7,1.7,0,1,1,1.7-1.7A1.7,1.7,0,0,1,16.2,18.4Zm0-2.717A1.019,1.019,0,1,0,17.217,16.7,1.02,1.02,0,0,0,16.2,15.679Z" transform="translate(-14.5 -15)" fill="#00dfba"/>
        </g>
        <g id="Group_2408" data-name="Group 2408">
          <path id="Path_11325" data-name="Path 11325" d="M15.565,19.83H14.481a.677.677,0,0,1-.676-.612l-.086-.863a3.19,3.19,0,0,1-.588-.342l-.793.358a.676.676,0,0,1-.867-.28l-.541-.938a.678.678,0,0,1,.192-.891l.7-.5a2.579,2.579,0,0,1,0-.689l-.7-.5a.678.678,0,0,1-.192-.891l.541-.938a.677.677,0,0,1,.867-.28l.793.358a3.19,3.19,0,0,1,.588-.342l.086-.863A.677.677,0,0,1,14.481,11h1.083a.677.677,0,0,1,.676.612l.086.863a3.183,3.183,0,0,1,.588.342l.793-.358a.678.678,0,0,1,.867.28l.541.938a.678.678,0,0,1-.192.891l-.7.5a2.579,2.579,0,0,1,0,.689l.7.5a.678.678,0,0,1,.192.891l-.541.937a.677.677,0,0,1-.867.28l-.793-.358a3.189,3.189,0,0,1-.588.342l-.087.864a.677.677,0,0,1-.676.611Zm-2.385-2.55a.34.34,0,0,1,.218.079,2.529,2.529,0,0,0,.756.439.34.34,0,0,1,.221.285l.107,1.067h1.083l.107-1.067a.34.34,0,0,1,.221-.285,2.544,2.544,0,0,0,.756-.439.339.339,0,0,1,.357-.049l.981.443.541-.938-.868-.624a.342.342,0,0,1-.137-.335,2.151,2.151,0,0,0,0-.88.341.341,0,0,1,.137-.335l.868-.624-.541-.938-.981.442a.34.34,0,0,1-.358-.049,2.5,2.5,0,0,0-.756-.439.34.34,0,0,1-.221-.285l-.107-1.069H14.481l-.107,1.067a.34.34,0,0,1-.221.285,2.544,2.544,0,0,0-.756.439.337.337,0,0,1-.357.049l-.981-.443-.541.938.868.624a.342.342,0,0,1,.137.335,2.151,2.151,0,0,0,0,.88.341.341,0,0,1-.137.335l-.868.624.541.938.981-.442a.355.355,0,0,1,.139-.029Z" transform="translate(-10.838 -11.001)" fill="#00dfba"/>
        </g>
      </g>
    </g>
  </g>
</svg>
