<svg xmlns="http://www.w3.org/2000/svg" width="202" height="250" viewBox="0 0 202 250">
  <g id="Group_1883" data-name="Group 1883" transform="translate(18264 -2882)">
    <text id="Error" transform="translate(-18133 2908)" fill="red" font-size="25" font-family="Roboto-Medium, Roboto" font-weight="500"><tspan x="0" y="0">Error</tspan></text>
    <g id="Rectangle_2176" data-name="Rectangle 2176" transform="translate(-18264 2916)" fill="#f5f5f5" stroke="#707070" stroke-width="1">
      <rect width="202" height="216" rx="25" stroke="none"/>
      <rect x="0.5" y="0.5" width="201" height="215" rx="24.5" fill="none"/>
    </g>
    <text id="Inner_Join" data-name="Inner Join" transform="translate(-18163 3087)" fill="#f05d5d" font-size="27" font-family="Roboto-Bold, Roboto" font-weight="700"><tspan x="-60.954" y="0">Inner Join</tspan></text>
    <g id="Group_1258" data-name="Group 1258" transform="translate(-19264.18 2647.85)">
      <path id="Path_9501" data-name="Path 9501" d="M-20612.145-289.834a44.156,44.156,0,0,1-11.4-14.628c-5.744-11.8-6.865-29.637,9.318-46.66,2.713-2.857,1.865-2.3,3.082-1.06a45.835,45.835,0,0,1,5.719,5.72l7.6,14.94,1.141,14.755-5.26,13.105-7.48,11.34Z" transform="translate(21713.867 670.072)" fill="#f89b9b"/>
      <g id="Ellipse_373" data-name="Ellipse 373" transform="translate(1086.181 307.15)" fill="none" stroke="#707070" stroke-width="1">
        <ellipse cx="41.5" cy="41" rx="41.5" ry="41" stroke="none"/>
        <ellipse cx="41.5" cy="41" rx="41" ry="40.5" fill="none"/>
      </g>
      <g id="Ellipse_374" data-name="Ellipse 374" transform="translate(1034.181 307.15)" fill="none" stroke="#707070" stroke-width="1">
        <ellipse cx="41.5" cy="41" rx="41.5" ry="41" stroke="none"/>
        <ellipse cx="41.5" cy="41" rx="41" ry="40.5" fill="none"/>
      </g>
    </g>
  </g>
</svg>
