<svg xmlns="http://www.w3.org/2000/svg" width="202" height="216.147" viewBox="0 0 202 216.147">
  <g id="Group_2334" data-name="Group 2334" transform="translate(20103 -2984.853)">
    <g id="Rectangle_2143" data-name="Rectangle 2143" transform="translate(-20103 2985)" fill="#f5f5f5" stroke="#707070" stroke-width="1">
      <rect width="202" height="216" rx="25" stroke="none"/>
      <rect x="0.5" y="0.5" width="201" height="215" rx="24.5" fill="none"/>
    </g>
    <text id="Join" transform="translate(-20041 3172)" fill="#000959" font-size="35" font-family="Roboto-Medium, Roboto" font-weight="500"><tspan x="0" y="0">JOIN</tspan></text>
    <g id="noun_join_3557825_1_" data-name="noun_join_3557825 (1)" transform="translate(-20082.873 3066.363) rotate(-45)">
      <g id="Group_1239" data-name="Group 1239" transform="translate(0 0)">
        <g id="Layer_1" data-name="Layer 1" transform="translate(0 0)">
          <path id="Path_9844" data-name="Path 9844" d="M97.073,44.42A42.762,42.762,0,1,0,44.42,97.073,42.762,42.762,0,1,0,97.073,44.42ZM27.984,55.872a27.888,27.888,0,0,1,52.69-12.717A42.762,42.762,0,0,0,43.156,80.674a27.888,27.888,0,0,1-15.171-24.8Zm55.684,1.952A27.888,27.888,0,0,1,57.825,83.668,27.888,27.888,0,0,1,83.668,57.825Zm1.952,55.684a27.888,27.888,0,0,1-24.8-15.171A42.762,42.762,0,0,0,98.337,60.818a27.888,27.888,0,0,1-12.717,52.69Z" transform="translate(-13.11 -13.11)" fill="#000959"/>
        </g>
      </g>
    </g>
  </g>
</svg>
