<?xml version="1.0" encoding="utf-8"?>
<!-- Generator: Adobe Illustrator 25.3.1, SVG Export Plug-In . SVG Version: 6.00 Build 0)  -->
<svg version="1.1" id="Layer_1" xmlns="http://www.w3.org/2000/svg" xmlns:xlink="http://www.w3.org/1999/xlink" x="0px" y="0px"
	 viewBox="0 0 1000 1000" style="enable-background:new 0 0 1000 1000;" xml:space="preserve">
<style type="text/css">
	.st0{fill:none;stroke:#000000;stroke-width:19;stroke-miterlimit:10;}
	.st1{fill:#F5F5F5;}
	.st2{fill:none;stroke:#707070;}
	.st3{fill:#06D084;}
	.st4{fill:none;}
	.st5{fill:#000959;}
	.st6{font-family:'ArialMT';}
	.st7{font-size:152.759px;}
</style>
<g id="Group_2334" transform="translate(20103 -2984.853)">
	<g id="Rectangle_2143" transform="translate(-20103 2985)">
		<path class="st1" d="M168.3,28.5h663.4c60.3,0,109.1,48.9,109.1,109.1v724.5c0,60.3-48.9,109.1-109.1,109.1H168.3
			c-60.3,0-109.1-48.9-109.1-109.1V137.6C59.2,77.3,108,28.5,168.3,28.5z"/>
		<path class="st2" d="M168.3,30.7h663.4c59.1,0,106.9,47.9,106.9,106.9v724.5c0,59.1-47.9,106.9-106.9,106.9H168.3
			c-59.1,0-106.9-47.9-106.9-106.9V137.6C61.4,78.5,109.2,30.7,168.3,30.7z"/>
	</g>
	<text transform="matrix(1 0 0 1 -19759.9727 3829.6536)" class="st5 st6 st7">UDF</text>
	<g>
		<g>
			<path class="st5" d="M-19671.1,3316.4c16.9,0,33.1,0,49.8,0c0,16.8,0,33.3,0,50.6c-16.2,0-32.7,0-49.7,0c0,74.7,0,148.7,0,223.2
				c-17.2,0-33.8,0-51,0c0-74.1,0-148.1,0-222.6c-17.7,0-34.8,0-52.6,0c0-17.1,0-33.6,0-50.9c17.1,0,34.4,0,52.4,0
				c0-3.1,0-5.3,0-7.6c0-26.1-0.1-52.2,0-78.2c0.1-47.6,37.3-84.8,84.9-84.9c11.9,0,23.9,0,36.3,0c0,17,0,33.5,0,50.9
				c-10.9,0-21.8-0.2-32.6,0.1c-5.4,0.2-11.1,0.6-16,2.4c-12.8,4.7-20.8,14.6-21.2,28
				C-19671.7,3256.8-19671.1,3286.2-19671.1,3316.4z"/>
			<path class="st5" d="M-19616,3590.8c2-3.1,3.2-5,4.5-6.9c17.5-25.7,34.9-51.5,52.7-77.1c3.2-4.6,3.3-7.5,0.1-12
				c-17.9-25.7-35.4-51.7-53.1-77.6c-1.4-2-2.7-4.1-4.7-7.3c4.8,0,8.4,0,12.1,0c14.7,0,29.5,0.1,44.2-0.1c3.8-0.1,6.1,1.2,8.2,4.4
				c7.9,11.9,16.1,23.7,24.1,35.5c1.1,1.7,2.4,3.3,4.1,5.5c9-13.2,18-25.6,26.1-38.5c3.4-5.3,7.1-7,13.2-6.9
				c17.2,0.4,34.5,0.1,53,0.1c-1.8,2.9-3.1,5-4.4,6.9c-17.9,26.2-35.7,52.5-53.8,78.6c-2.7,3.9-2.8,6.5-0.1,10.4
				c18,25.9,35.7,52,53.4,78.1c1.3,1.8,2.4,3.8,4.3,6.8c-5.2,0-9.3,0-13.4,0c-13.9,0-27.8-0.2-41.7,0.1c-4.5,0.1-7.2-1.2-9.8-5
				c-8.6-13.2-17.7-26-27.1-39.8c-7.9,11.5-16,22-22.5,33.3c-5.3,9.2-11.6,12.4-22.2,11.7
				C-19583.9,3590-19599.3,3590.8-19616,3590.8z"/>
		</g>
	</g>
</g>
</svg>
