<svg width="1000" height="1000" viewBox="0 0 1000 1000" fill="none" xmlns="http://www.w3.org/2000/svg">
<path d="M168.299 28.647H831.699C891.999 28.647 940.799 77.547 940.799 137.747V862.247C940.799 922.547 891.899 971.347 831.699 971.347H168.299C107.999 971.347 59.1992 922.447 59.1992 862.247V137.747C59.1992 77.447 107.999 28.647 168.299 28.647Z" fill="#F5F5F5"/>
<path d="M168.299 30.8472H831.699C890.799 30.8472 938.599 78.7472 938.599 137.747V862.247C938.599 921.347 890.699 969.147 831.699 969.147H168.299C109.199 969.147 61.3992 921.247 61.3992 862.247V137.747C61.3992 78.6472 109.199 30.8472 168.299 30.8472Z" stroke="#707070"/>
<path d="M353.992 723.694H376.07V782.917C376.07 792.316 376.344 798.407 376.891 801.192C377.836 805.667 380.073 809.272 383.604 812.007C387.184 814.693 392.057 816.035 398.223 816.035C404.489 816.035 409.213 814.767 412.395 812.231C415.578 809.645 417.492 806.488 418.139 802.758C418.785 799.029 419.108 792.838 419.108 784.185V723.694H441.187V781.127C441.187 794.255 440.59 803.529 439.397 808.949C438.203 814.369 435.991 818.944 432.758 822.674C429.576 826.403 425.299 829.387 419.929 831.624C414.559 833.812 407.547 834.906 398.895 834.906C388.452 834.906 380.521 833.713 375.101 831.326C369.73 828.889 365.479 825.757 362.346 821.928C359.213 818.049 357.15 813.996 356.155 809.77C354.713 803.504 353.992 794.255 353.992 782.022V723.694ZM464.459 723.694H504.812C513.912 723.694 520.848 724.39 525.622 725.782C532.037 727.672 537.532 731.028 542.106 735.852C546.681 740.675 550.162 746.592 552.549 753.604C554.936 760.566 556.129 769.168 556.129 779.412C556.129 788.412 555.01 796.169 552.773 802.684C550.038 810.64 546.134 817.079 541.062 822.002C537.233 825.732 532.062 828.641 525.548 830.729C520.674 832.271 514.16 833.042 506.005 833.042H464.459V723.694ZM486.537 742.192V814.618H503.022C509.188 814.618 513.638 814.27 516.373 813.574C519.953 812.679 522.912 811.162 525.249 809.024C527.636 806.886 529.575 803.38 531.067 798.507C532.559 793.584 533.305 786.896 533.305 778.442C533.305 769.989 532.559 763.499 531.067 758.974C529.575 754.449 527.487 750.919 524.802 748.383C522.116 745.847 518.71 744.131 514.583 743.236C511.5 742.54 505.458 742.192 496.458 742.192H486.537ZM575.075 833.042V723.694H650.037V742.192H597.153V768.074H642.802V786.572H597.153V833.042H575.075Z" fill="#EF748E"/>
<path d="M431.9 331.547C448.8 331.547 464.999 331.547 481.699 331.547C481.699 348.347 481.699 364.847 481.699 382.147C465.499 382.147 449 382.147 432 382.147C432 456.847 432 530.847 432 605.347C414.8 605.347 398.2 605.347 381 605.347C381 531.247 381 457.247 381 382.747C363.3 382.747 346.2 382.747 328.4 382.747C328.4 365.647 328.4 349.147 328.4 331.847C345.5 331.847 362.801 331.847 380.801 331.847C380.801 328.747 380.801 326.547 380.801 324.247C380.801 298.147 380.701 272.047 380.801 246.047C380.901 198.447 418.099 161.247 465.699 161.147C477.599 161.147 489.6 161.147 502 161.147C502 178.147 502 194.647 502 212.047C491.1 212.047 480.2 211.847 469.4 212.147C464 212.347 458.3 212.747 453.4 214.547C440.6 219.247 432.599 229.147 432.199 242.547C431.299 271.947 431.9 301.347 431.9 331.547Z" fill="#EF748E"/>
<path d="M487 605.947C489 602.847 490.2 600.947 491.5 599.047C509 573.347 526.399 547.547 544.199 521.947C547.399 517.347 547.501 514.447 544.301 509.947C526.401 484.247 508.899 458.247 491.199 432.347C489.799 430.347 488.5 428.247 486.5 425.047C491.3 425.047 494.9 425.047 498.6 425.047C513.3 425.047 528.101 425.147 542.801 424.947C546.601 424.847 548.9 426.147 551 429.347C558.9 441.247 567.1 453.047 575.1 464.847C576.2 466.547 577.499 468.147 579.199 470.347C588.199 457.147 597.201 444.747 605.301 431.847C608.701 426.547 612.4 424.847 618.5 424.947C635.7 425.347 653 425.047 671.5 425.047C669.7 427.947 668.4 430.047 667.1 431.947C649.2 458.147 631.401 484.447 613.301 510.547C610.601 514.447 610.499 517.047 613.199 520.947C631.199 546.847 648.9 572.947 666.6 599.047C667.9 600.847 669 602.847 670.9 605.847C665.7 605.847 661.6 605.847 657.5 605.847C643.6 605.847 629.701 605.647 615.801 605.947C611.301 606.047 608.6 604.747 606 600.947C597.4 587.747 588.3 574.947 578.9 561.147C571 572.647 562.9 583.147 556.4 594.447C551.1 603.647 544.799 606.847 534.199 606.147C519.099 605.147 503.7 605.947 487 605.947Z" fill="#EF748E"/>
</svg>
