<svg width="22" height="28" viewBox="0 0 22 28" fill="none" xmlns="http://www.w3.org/2000/svg">
<g clip-path="url(#clip0_1_665)">
<path d="M12.3333 7.4375V0H1.32143C0.589137 0 0 0.585156 0 1.3125V26.6875C0 27.4148 0.589137 28 1.32143 28H19.8214C20.5537 28 21.1429 27.4148 21.1429 26.6875V8.75H13.6548C12.928 8.75 12.3333 8.15938 12.3333 7.4375ZM7.04762 15.3125C7.04762 15.5542 6.85051 15.75 6.60714 15.75H6.16667C5.67994 15.75 5.28571 16.1416 5.28571 16.625V18.375C5.28571 18.8584 5.67994 19.25 6.16667 19.25H6.60714C6.85051 19.25 7.04762 19.4458 7.04762 19.6875V20.5625C7.04762 20.8042 6.85051 21 6.60714 21H6.16667C4.70704 21 3.52381 19.8248 3.52381 18.375V16.625C3.52381 15.1752 4.70704 14 6.16667 14H6.60714C6.85051 14 7.04762 14.1958 7.04762 14.4375V15.3125ZM9.4851 21H8.80952C8.56616 21 8.36905 20.8042 8.36905 20.5625V19.6875C8.36905 19.4458 8.56616 19.25 8.80952 19.25H9.4851C9.81271 19.25 10.0583 19.0586 10.0583 18.888C10.0583 18.8169 10.017 18.7425 9.94155 18.678L8.73629 17.6515C8.26994 17.2566 8.00235 16.6955 8.00235 16.1126C8.00235 14.9477 9.04958 14.0005 10.3374 14.0005H11.0119C11.2553 14.0005 11.4524 14.1963 11.4524 14.438V15.313C11.4524 15.5548 11.2553 15.7505 11.0119 15.7505H10.3363C10.0087 15.7505 9.76315 15.942 9.76315 16.1126C9.76315 16.1837 9.80445 16.258 9.87988 16.3226L11.0851 17.3491C11.5515 17.7439 11.8191 18.305 11.8191 18.888C11.8196 20.0523 10.7729 21 9.4851 21ZM14.0952 14.4375V15.575C14.0952 16.6835 14.4091 17.7718 14.9762 18.6856C15.5433 17.7723 15.8571 16.6835 15.8571 15.575V14.4375C15.8571 14.1958 16.0543 14 16.2976 14H17.1786C17.4219 14 17.619 14.1958 17.619 14.4375V15.575C17.619 17.5153 16.9099 19.3424 15.6215 20.7205C15.4552 20.8983 15.2212 21 14.9762 21C14.7312 21 14.4972 20.8983 14.3309 20.7205C13.0425 19.3424 12.3333 17.5153 12.3333 15.575V14.4375C12.3333 14.1958 12.5304 14 12.7738 14H13.6548C13.8981 14 14.0952 14.1958 14.0952 14.4375ZM20.7574 5.74219L15.3671 0.382812C15.1193 0.136719 14.7835 0 14.4311 0H14.0952V7H21.1429V6.66641C21.1429 6.32188 21.0052 5.98828 20.7574 5.74219Z" fill="#121542"/>
</g>
<defs>
<clipPath id="clip0_1_665">
<rect width="21.1429" height="28" fill="white"/>
</clipPath>
</defs>
</svg>
