<svg width="28" height="23" viewBox="0 0 28 23" fill="none" xmlns="http://www.w3.org/2000/svg">
<path d="M24.6044 22.4527C25.2402 22.4513 25.8496 22.1977 26.2987 21.7476C26.7478 21.2974 27 20.6876 27 20.0517V5.32822C26.9963 4.72849 26.7674 4.15206 26.3585 3.71328C25.9497 3.27451 25.3908 3.00547 24.7928 2.95955L24.2114 1.46298C24.1566 1.32641 24.0623 1.20935 23.9404 1.12685C23.8186 1.04434 23.6749 1.00017 23.5277 1H17.3961C17.2495 0.999777 17.1063 1.04388 16.9853 1.1265C16.8642 1.20912 16.771 1.32641 16.7178 1.46298L16.1418 2.95955H5.91338C5.41393 2.9597 4.92691 3.11525 4.51985 3.40464C4.11278 3.69402 3.80585 4.10289 3.6416 4.57456" fill="#585974"/>
<path d="M24.6044 22.4527C25.2402 22.4513 25.8496 22.1977 26.2987 21.7476C26.7478 21.2974 27 20.6876 27 20.0517V5.32822C26.9963 4.72849 26.7674 4.15206 26.3585 3.71328C25.9497 3.27451 25.3908 3.00547 24.7928 2.95955L24.2114 1.46298C24.1566 1.32641 24.0623 1.20935 23.9404 1.12685C23.8186 1.04434 23.6749 1.00017 23.5277 1H17.3961C17.2495 0.999777 17.1063 1.04388 16.9853 1.1265C16.8642 1.20912 16.771 1.32641 16.7178 1.46298L16.1418 2.95955H5.91338C5.41393 2.9597 4.92691 3.11525 4.51985 3.40464C4.11278 3.69402 3.80585 4.10289 3.6416 4.57456" stroke="#585974" stroke-width="0.561924" stroke-linecap="round" stroke-linejoin="round"/>
<path d="M24.6046 22.4526H5.90288C5.23645 22.4316 4.59734 22.1829 4.09193 21.748C3.58651 21.3131 3.24529 20.7183 3.12507 20.0624L1.04171 7.00242C0.980348 6.70773 0.986765 6.40293 1.06047 6.11108C1.13418 5.81923 1.27324 5.54795 1.46716 5.31772C1.66109 5.0875 1.9048 4.90435 2.17989 4.78213C2.45498 4.65991 2.75424 4.60181 3.05508 4.61221H21.7622C22.4287 4.63327 23.0678 4.88193 23.5732 5.31682C24.0786 5.75171 24.4198 6.34659 24.5401 7.00242L26.6234 20.0624C26.6838 20.3575 26.6765 20.6624 26.6021 20.9542C26.5277 21.246 26.3881 21.5171 26.1938 21.7472C25.9994 21.9772 25.7555 22.1603 25.4802 22.2825C25.205 22.4047 24.9056 22.4628 24.6046 22.4526Z" fill="#73EDD9" stroke="#585974" stroke-width="0.561924" stroke-linecap="round" stroke-linejoin="round"/>
</svg>
