<svg width="115" height="81" viewBox="0 0 115 81" fill="none" xmlns="http://www.w3.org/2000/svg">
<path d="M93.15 33.75C93.825 31.725 94.5 29.7 94.5 27C94.5 12.15 82.35 0 67.5 0C57.375 0 47.925 6.075 43.875 14.85C41.85 14.175 39.15 13.5 37.125 13.5C27.675 13.5 20.25 20.925 20.25 30.375C20.25 31.725 20.25 33.075 20.925 33.75C8.775 35.775 0 45.225 0 57.375C0 70.2 10.8 81 23.625 81H47.25V60.75H27L57.375 30.375L87.75 60.75H67.5V81H91.125C103.95 81 114.75 70.2 114.75 57.375C114.75 45.225 105.3 35.1 93.15 33.75Z" fill="url(#paint0_linear_1_672)"/>
<defs>
<linearGradient id="paint0_linear_1_672" x1="118.646" y1="34.7149" x2="-14.1667" y2="34.7149" gradientUnits="userSpaceOnUse">
<stop stop-color="#00DFBA"/>
<stop offset="1" stop-color="#1721C1"/>
</linearGradient>
</defs>
</svg>
