<svg width="20" height="20" viewBox="0 0 20 20" fill="none" xmlns="http://www.w3.org/2000/svg">
<circle cx="10" cy="10" r="9.5" stroke="#00977C"/>
<path d="M9.65696 11.2727H10.8161L11.7876 12.5511L12.0433 12.892L13.4922 14.8182H12.3331L11.3786 13.5398L11.1399 13.2159L9.65696 11.2727ZM13.8501 9.63636C13.8501 10.5568 13.6839 11.3523 13.3516 12.0227C13.0192 12.6932 12.5632 13.2102 11.9837 13.5739C11.4041 13.9375 10.7422 14.1193 9.99787 14.1193C9.25355 14.1193 8.59162 13.9375 8.01207 13.5739C7.43253 13.2102 6.97656 12.6932 6.64418 12.0227C6.31179 11.3523 6.1456 10.5568 6.1456 9.63636C6.1456 8.71591 6.31179 7.92045 6.64418 7.25C6.97656 6.57955 7.43253 6.0625 8.01207 5.69886C8.59162 5.33523 9.25355 5.15341 9.99787 5.15341C10.7422 5.15341 11.4041 5.33523 11.9837 5.69886C12.5632 6.0625 13.0192 6.57955 13.3516 7.25C13.6839 7.92045 13.8501 8.71591 13.8501 9.63636ZM12.8274 9.63636C12.8274 8.88068 12.701 8.2429 12.4482 7.72301C12.1982 7.20312 11.8587 6.80966 11.4297 6.54261C11.0036 6.27557 10.5263 6.14205 9.99787 6.14205C9.46946 6.14205 8.99077 6.27557 8.56179 6.54261C8.13565 6.80966 7.79616 7.20312 7.54332 7.72301C7.29332 8.2429 7.16832 8.88068 7.16832 9.63636C7.16832 10.392 7.29332 11.0298 7.54332 11.5497C7.79616 12.0696 8.13565 12.4631 8.56179 12.7301C8.99077 12.9972 9.46946 13.1307 9.99787 13.1307C10.5263 13.1307 11.0036 12.9972 11.4297 12.7301C11.8587 12.4631 12.1982 12.0696 12.4482 11.5497C12.701 11.0298 12.8274 10.392 12.8274 9.63636Z" fill="#00977C"/>
</svg>
