<svg width="20" height="20" viewBox="0 0 20 20" fill="none" xmlns="http://www.w3.org/2000/svg">
<path fill-rule="evenodd" clip-rule="evenodd" d="M16.9998 9.00001H5.41376L8.70676 5.70701C9.09776 5.31601 9.09776 4.68401 8.70676 4.29301C8.31576 3.90201 7.68376 3.90201 7.29276 4.29301L2.29276 9.29301C1.90176 9.68401 1.90176 10.316 2.29276 10.707L7.29276 15.707C7.48776 15.902 7.74376 16 7.99976 16C8.25576 16 8.51176 15.902 8.70676 15.707C9.09776 15.316 9.09776 14.684 8.70676 14.293L5.41376 11H16.9998C17.5528 11 17.9998 10.552 17.9998 10C17.9998 9.44801 17.5528 9.00001 16.9998 9.00001Z" fill="white"/>
</svg>
