<svg width="20" height="20" viewBox="0 0 20 20" fill="none" xmlns="http://www.w3.org/2000/svg">
<path fill-rule="evenodd" clip-rule="evenodd" d="M17.0002 8.99976H5.41425L8.70725 5.70676C9.09825 5.31576 9.09825 4.68376 8.70725 4.29276C8.31625 3.90176 7.68425 3.90176 7.29325 4.29276L2.29325 9.29276C1.90225 9.68376 1.90225 10.3158 2.29325 10.7068L7.29325 15.7068C7.48825 15.9018 7.74425 15.9998 8.00025 15.9998C8.25625 15.9998 8.51225 15.9018 8.70725 15.7068C9.09825 15.3158 9.09825 14.6838 8.70725 14.2928L5.41425 10.9998H17.0002C17.5532 10.9998 18.0002 10.5518 18.0002 9.99976C18.0002 9.44776 17.5532 8.99976 17.0002 8.99976Z" fill="#888C92"/>
</svg>
