<svg width="22" height="22" viewBox="0 0 22 22" fill="none" xmlns="http://www.w3.org/2000/svg">
<rect x="1" y="1" width="20" height="20" rx="2.22222" fill="white" fill-opacity="0.01"/>
<g filter="url(#filter0_d_1404_23930)">
<path fill-rule="evenodd" clip-rule="evenodd" d="M14.8901 10.4447H8.45345L10.2829 8.61522C10.5001 8.398 10.5001 8.04689 10.2829 7.82966C10.0657 7.61244 9.71456 7.61244 9.49733 7.82966L6.71956 10.6074C6.50234 10.8247 6.50234 11.1758 6.71956 11.393L9.49733 14.1708C9.60567 14.2791 9.74789 14.3336 9.89011 14.3336C10.0323 14.3336 10.1746 14.2791 10.2829 14.1708C10.5001 13.9536 10.5001 13.6024 10.2829 13.3852L8.45345 11.5558H14.8901C15.1973 11.5558 15.4457 11.3069 15.4457 11.0002C15.4457 10.6936 15.1973 10.4447 14.8901 10.4447" fill="#888C92"/>
<rect x="1.27778" y="1.27778" width="19.4444" height="19.4444" rx="1.94444" stroke="#888C92" stroke-width="0.555556" shape-rendering="crispEdges"/>
</g>
<rect x="0.722222" y="0.722222" width="20.5556" height="20.5556" rx="2.5" stroke="white" stroke-opacity="0.01" stroke-width="0.555556"/>
<defs>
<filter id="filter0_d_1404_23930" x="1" y="1" width="20" height="20.5556" filterUnits="userSpaceOnUse" color-interpolation-filters="sRGB">
<feFlood flood-opacity="0" result="BackgroundImageFix"/>
<feColorMatrix in="SourceAlpha" type="matrix" values="0 0 0 0 0 0 0 0 0 0 0 0 0 0 0 0 0 0 127 0" result="hardAlpha"/>
<feOffset dy="0.555556"/>
<feComposite in2="hardAlpha" operator="out"/>
<feColorMatrix type="matrix" values="0 0 0 0 0 0 0 0 0 0 0 0 0 0 0 0 0 0 0.05 0"/>
<feBlend mode="normal" in2="BackgroundImageFix" result="effect1_dropShadow_1404_23930"/>
<feBlend mode="normal" in="SourceGraphic" in2="effect1_dropShadow_1404_23930" result="shape"/>
</filter>
</defs>
</svg>
