<svg width="24" height="24" viewBox="0 0 24 24" fill="none" xmlns="http://www.w3.org/2000/svg">
<path d="M12 22C17.5228 22 22 17.5228 22 12C22 6.47715 17.5228 2 12 2C6.47715 2 2 6.47715 2 12C2 17.5228 6.47715 22 12 22Z" fill="#F6F6F7"/>
<path d="M11.7089 16.7514C11.7089 16.7514 11.8056 16.7382 11.8495 16.5022H11.851C11.907 16.5003 11.9627 16.5116 12.0137 16.535C12.0647 16.5585 12.1095 16.5935 12.1445 16.6372C12.1587 16.6494 12.1747 16.6593 12.1919 16.6666C12.2182 16.6776 12.2457 16.6855 12.2739 16.6901H13.4828C13.5812 16.671 13.6704 16.6196 13.7364 16.5442C13.8024 16.4687 13.8413 16.3735 13.8472 16.2734V16.2692C13.8472 16.2604 13.8472 16.2517 13.8472 16.2442C13.8419 16.1718 13.8191 16.1017 13.7806 16.0401C13.7421 15.9785 13.6892 15.9273 13.6263 15.8908L11.9935 15.1582C12.0297 14.8104 12.0864 14.465 12.1635 14.1239C12.3023 13.4468 12.3562 12.7551 12.324 12.0647V11.7407C12.3674 11.6653 12.4331 11.6051 12.5121 11.5685C12.5256 11.5689 12.5389 11.5662 12.5512 11.5607C12.5634 11.5552 12.5743 11.5469 12.5829 11.5366H18.2906L18.8513 11.5244C18.8962 11.5114 18.9635 11.489 19.0368 11.4596C19.2112 11.3883 19.4188 11.2747 19.4188 11.1526C19.4188 10.9485 19.1447 10.867 19.1447 10.867L13.5556 9.39735C13.5493 9.23736 13.5439 9.11001 13.5391 9.00983H13.5142C13.5117 8.95699 13.5105 8.91014 13.5082 8.87226H13.5331C13.5237 8.67513 13.5212 8.64049 13.5212 8.64049C13.5212 8.64049 13.5299 8.50966 13.3612 8.50966H13.264V8.38505C13.2608 8.37039 13.2544 8.35661 13.2453 8.34468C13.4564 8.35287 13.6678 8.34337 13.8773 8.31627C13.6549 8.28868 13.4306 8.27926 13.2067 8.28811V8.27565C13.2067 8.27565 13.2037 8.25072 13.1835 8.25072H13.1586C13.1391 8.25072 13.1359 8.27565 13.1359 8.27565V8.28811C12.912 8.27935 12.6878 8.28877 12.4655 8.31627C12.675 8.34337 12.8864 8.35288 13.0975 8.34468C13.0884 8.35658 13.0821 8.37038 13.0791 8.38505V8.50966H12.9811C12.8122 8.50966 12.8211 8.64049 12.8211 8.64049C12.8211 8.64049 12.8177 8.67513 12.8089 8.87226H12.8339C12.8322 8.9113 12.8303 8.95716 12.8281 9.00983H12.8032C12.799 9.10951 12.7937 9.23561 12.7875 9.39411H12.3656C12.358 9.37107 12.3435 9.35095 12.324 9.33654V9.04173C12.2887 8.49119 12.2027 7.94509 12.067 7.41038V7.41038C12.0645 7.4034 12.0623 7.39742 12.0593 7.39044C12.0563 7.38346 12.0526 7.37349 12.0491 7.36552C12.0395 7.34141 12.0286 7.31786 12.0164 7.29499C11.9885 7.24416 11.9575 7.19506 11.9237 7.14796C11.8392 7.03232 11.7802 7.00391 11.746 7.00017C11.742 6.99994 11.7379 6.99994 11.7338 7.00017H11.6865C11.6826 6.99994 11.6787 6.99994 11.6748 7.00017C11.6404 7.00391 11.5816 7.03257 11.4971 7.14796C11.463 7.19502 11.4318 7.24413 11.4036 7.29499C11.3918 7.31709 11.3811 7.3398 11.3717 7.36303C11.3677 7.37275 11.3637 7.38272 11.3598 7.39318C11.3575 7.39916 11.3553 7.40415 11.353 7.41038C11.2176 7.94512 11.1318 8.49122 11.0966 9.04173V9.3363C11.077 9.35061 11.0624 9.37076 11.055 9.39386H10.636C10.6293 9.21941 10.6236 9.08035 10.6188 8.97369H10.5967C10.5947 8.92061 10.5929 8.87401 10.5912 8.83588H10.6124C10.6031 8.6385 10.5999 8.60361 10.5999 8.60361C10.5999 8.60361 10.6089 8.47302 10.4399 8.47302H10.3422V8.34842C10.3398 8.33666 10.3356 8.32538 10.3295 8.31502C10.5386 8.32329 10.748 8.31396 10.9555 8.28711C10.7331 8.25943 10.5088 8.24993 10.2849 8.2587V8.23851C10.2849 8.23851 10.2817 8.21359 10.2625 8.21359H10.2358C10.2161 8.21359 10.2129 8.23851 10.2129 8.23851V8.25845C9.98902 8.24959 9.76481 8.25909 9.5425 8.28686C9.75003 8.3136 9.95943 8.32294 10.1685 8.31477C10.1625 8.3251 10.1582 8.3364 10.1561 8.34817V8.47277H10.0579C9.88915 8.47277 9.89812 8.60336 9.89812 8.60336C9.89812 8.60336 9.89488 8.638 9.88591 8.83563H9.90759C9.9056 8.87475 9.9041 8.92036 9.90186 8.97344H9.87943C9.87495 9.08085 9.86921 9.22066 9.86224 9.3971L4.27413 10.8647C4.27413 10.8647 4 10.9465 4 11.1503C4 11.2724 4.2066 11.3858 4.38204 11.4573C4.44276 11.4822 4.50473 11.5038 4.56771 11.5221L5.12844 11.5344H10.8364C10.845 11.5447 10.8558 11.553 10.8681 11.5585C10.8804 11.564 10.8937 11.5667 10.9072 11.5663C10.9862 11.6029 11.052 11.6631 11.0956 11.7385V12.0624C11.0633 12.7528 11.117 13.4445 11.2553 14.1217C11.3322 14.4628 11.3889 14.8081 11.4253 15.1559L9.79296 15.8886C9.73009 15.925 9.67709 15.9763 9.63856 16.0379C9.60003 16.0994 9.57715 16.1695 9.5719 16.242C9.5719 16.2502 9.5719 16.2589 9.5719 16.2669V16.2711C9.57767 16.3712 9.61662 16.4665 9.6826 16.542C9.74859 16.6174 9.83784 16.6688 9.93625 16.6878H11.1452C11.1732 16.6832 11.2007 16.6754 11.2269 16.6644C11.2442 16.6572 11.2602 16.6473 11.2743 16.635C11.3093 16.5913 11.3541 16.5563 11.405 16.5329C11.4559 16.5094 11.5116 16.4981 11.5676 16.4999H11.5696C11.6117 16.7382 11.7089 16.7514 11.7089 16.7514ZM11.6758 16.4735L11.6424 15.6481C11.6424 15.6481 11.6648 13.0538 11.6693 12.9883C11.6694 12.9707 11.673 12.9534 11.6799 12.9373C11.6867 12.9212 11.6967 12.9066 11.7092 12.8943C11.7343 12.9193 11.7486 12.9531 11.749 12.9885C11.7538 13.0541 11.7754 15.6486 11.7754 15.6486L11.7425 16.474C11.7425 16.474 11.7313 16.5238 11.7092 16.5238C11.687 16.5238 11.6758 16.4735 11.6758 16.4735Z" fill="#00977C"/>
</svg>
