<svg width="16" height="16" viewBox="0 0 16 16" fill="none" xmlns="http://www.w3.org/2000/svg">
<g clip-path="url(#clip0_1378_17512)">
<path fill-rule="evenodd" clip-rule="evenodd" d="M13.9998 1.6H11.9998V0.8C11.9998 0.358172 11.6416 0 11.1998 0C10.758 0 10.3998 0.358172 10.3998 0.8V1.6H4.7998V0.8C4.7998 0.358172 4.44163 0 3.9998 0C3.55798 0 3.1998 0.358172 3.1998 0.8V1.6H1.9998C1.3598 1.6 0.799805 2.16 0.799805 2.8V14.8C0.799805 15.44 1.3598 16 1.9998 16H13.9998C14.6398 16 15.1998 15.44 15.1998 14.8V2.8C15.1998 2.16 14.6398 1.6 13.9998 1.6ZM2.3998 14.4H13.5998V6.4H2.3998V14.4Z" fill="#00977C"/>
</g>
<defs>
<clipPath id="clip0_1378_17512">
<rect width="16" height="16" fill="white"/>
</clipPath>
</defs>
</svg>
