<svg width="16" height="16" viewBox="0 0 16 16" fill="none" xmlns="http://www.w3.org/2000/svg">
<path fill-rule="evenodd" clip-rule="evenodd" d="M1.59961 7.99961C1.59961 9.69699 2.27389 11.3249 3.47413 12.5251C4.67436 13.7253 6.30222 14.3996 7.99961 14.3996C9.69699 14.3996 11.3249 13.7253 12.5251 12.5251C13.7253 11.3249 14.3996 9.69699 14.3996 7.99961C14.3996 6.30222 13.7253 4.67436 12.5251 3.47413C11.3249 2.27389 9.69699 1.59961 7.99961 1.59961C6.30222 1.59961 4.67436 2.27389 3.47413 3.47413C2.27389 4.67436 1.59961 6.30222 1.59961 7.99961ZM11.3276 6.84761C11.42 6.72436 11.4649 6.57191 11.454 6.41824C11.4431 6.26457 11.3771 6.12 11.2682 6.01106C11.1592 5.90213 11.0146 5.83614 10.861 5.82522C10.7073 5.8143 10.5549 5.85917 10.4316 5.95161L7.35961 9.02361L5.88761 7.55161C5.76436 7.45918 5.61191 7.4143 5.45824 7.42522C5.30457 7.43614 5.16 7.50213 5.05106 7.61106C4.94213 7.72 4.87614 7.86457 4.86522 8.01824C4.8543 8.17191 4.89917 8.32436 4.99161 8.44761L6.91161 10.3676C7.16761 10.6236 7.55161 10.6236 7.80761 10.3676L11.3276 6.84761Z" fill="#00977C"/>
</svg>
