<svg width="16" height="49" viewBox="0 0 16 49" fill="none" xmlns="http://www.w3.org/2000/svg">
<g clip-path="url(#clip0_1920_13261)">
<rect y="49" width="49" height="16" rx="4" transform="rotate(-90 0 49)" fill="#00977C"/>
<path d="M12 41.25L12 43.9432L3.27273 43.9432L3.27273 41.1307C3.27273 40.2841 3.44744 39.5597 3.79687 38.9574C4.14347 38.3551 4.64204 37.8935 5.29261 37.5724C5.94034 37.2514 6.71591 37.0909 7.61932 37.0909C8.52841 37.0909 9.31108 37.2528 9.96733 37.5767C10.6207 37.9006 11.1236 38.3722 11.4759 38.9915C11.8253 39.6108 12 40.3636 12 41.25ZM11.0625 42.8864L11.0625 41.3182C11.0625 40.5966 10.9233 39.9986 10.6449 39.5241C10.3665 39.0497 9.97017 38.696 9.45597 38.4631C8.94176 38.2301 8.32955 38.1136 7.61932 38.1136C6.91477 38.1136 6.30824 38.2287 5.79972 38.4588C5.28835 38.6889 4.89631 39.0327 4.62358 39.4901C4.34801 39.9474 4.21023 40.517 4.21023 41.1989L4.21023 42.8864L11.0625 42.8864ZM12.1364 32.7102C12.1364 33.3409 11.9972 33.8849 11.7187 34.3423C11.4375 34.7969 11.0455 35.1477 10.5426 35.3949C10.0369 35.6392 9.44886 35.7614 8.77841 35.7614C8.10795 35.7614 7.51704 35.6392 7.00568 35.3949C6.49148 35.1477 6.09091 34.804 5.80398 34.3636C5.5142 33.9205 5.36932 33.4034 5.36932 32.8125C5.36932 32.4716 5.42614 32.1349 5.53977 31.8026C5.65341 31.4702 5.83807 31.1676 6.09375 30.8949C6.34659 30.6222 6.68182 30.4048 7.09943 30.2429C7.51704 30.081 8.03125 30 8.64204 30L9.06818 30L9.06818 35.0455L8.19886 35.0455L8.19886 31.0227C7.82954 31.0227 7.5 31.0966 7.21023 31.2443C6.92045 31.3892 6.69176 31.5966 6.52415 31.8665C6.35653 32.1335 6.27273 32.4489 6.27273 32.8125C6.27273 33.2131 6.37216 33.5597 6.57102 33.8523C6.76704 34.142 7.02273 34.3651 7.33807 34.5213C7.65341 34.6776 7.99148 34.7557 8.35227 34.7557L8.93182 34.7557C9.42614 34.7557 9.84517 34.6705 10.1889 34.5C10.5298 34.3267 10.7898 34.0866 10.9687 33.7798C11.1449 33.473 11.233 33.1165 11.233 32.7102C11.233 32.446 11.196 32.2074 11.1222 31.9943C11.0455 31.7784 10.9318 31.5923 10.7812 31.4361C10.6278 31.2798 10.4375 31.1591 10.2102 31.0739L10.483 30.1023C10.8125 30.2045 11.1023 30.3764 11.3523 30.6179C11.5994 30.8594 11.7926 31.1577 11.9318 31.5128C12.0682 31.8679 12.1364 32.267 12.1364 32.7102ZM5.45454 25.5554L6.30682 25.5554L6.30682 29.0838L5.45454 29.0838L5.45454 25.5554ZM12 28.027L4.55114 28.027C4.17614 28.027 3.86364 27.9389 3.61364 27.7628C3.36364 27.5866 3.17614 27.358 3.05113 27.0767C2.92613 26.7955 2.86363 26.4986 2.86363 26.1861C2.86363 25.9389 2.88352 25.7372 2.92329 25.581C2.96307 25.4247 3 25.3082 3.03409 25.2315L3.90341 25.5213C3.88636 25.5724 3.86506 25.6435 3.83949 25.7344C3.81392 25.8224 3.80113 25.9389 3.80113 26.0838C3.80113 26.4162 3.88494 26.6562 4.05256 26.804C4.22017 26.9489 4.46591 27.0213 4.78977 27.0213L12 27.0213L12 28.027ZM12.1534 22.4073C12.1534 22.8221 12.0753 23.1985 11.919 23.5366C11.7599 23.8746 11.5312 24.1431 11.233 24.342C10.9318 24.5408 10.5682 24.6403 10.142 24.6403C9.76704 24.6403 9.46307 24.5664 9.23011 24.4187C8.99432 24.271 8.80966 24.0735 8.67614 23.8263C8.54261 23.5792 8.44318 23.3065 8.37784 23.0082C8.30966 22.707 8.25568 22.4045 8.21591 22.1005C8.16477 21.7028 8.12642 21.3803 8.10085 21.1332C8.07244 20.8832 8.02557 20.7013 7.96023 20.5877C7.89489 20.4712 7.78125 20.413 7.61932 20.413L7.58523 20.413C7.16477 20.413 6.83807 20.5281 6.60511 20.7582C6.37216 20.9854 6.25568 21.3306 6.25568 21.7937C6.25568 22.2738 6.36079 22.6502 6.57102 22.9229C6.78125 23.1957 7.00568 23.3874 7.24432 23.4982L6.90341 24.4528C6.50568 24.2823 6.19602 24.055 5.97443 23.771C5.75 23.484 5.59375 23.1715 5.50568 22.8335C5.41477 22.4925 5.36932 22.1573 5.36932 21.8278C5.36932 21.6175 5.39489 21.3761 5.44602 21.1033C5.49432 20.8278 5.59517 20.5621 5.74858 20.3065C5.90199 20.0479 6.13352 19.8335 6.44318 19.663C6.75284 19.4925 7.16761 19.4073 7.6875 19.4073L12 19.4073L12 20.413L11.1136 20.413L11.1136 20.4641C11.2557 20.5323 11.4077 20.646 11.5696 20.805C11.7315 20.9641 11.8693 21.1758 11.983 21.44C12.0966 21.7042 12.1534 22.0266 12.1534 22.4073ZM11.25 22.2539C11.25 21.8562 11.1719 21.521 11.0156 21.2482C10.8594 20.9727 10.6577 20.7653 10.4105 20.6261C10.1634 20.484 9.90341 20.413 9.63068 20.413L8.71023 20.413C8.76136 20.4556 8.80824 20.5494 8.85085 20.6942C8.89062 20.8363 8.92614 21.0011 8.95739 21.1886C8.98579 21.3732 9.01136 21.5536 9.03409 21.7298C9.05398 21.9031 9.07102 22.0437 9.08523 22.1516C9.11932 22.413 9.17471 22.6573 9.25142 22.8846C9.32528 23.109 9.4375 23.2908 9.58807 23.43C9.73579 23.5664 9.9375 23.6346 10.1932 23.6346C10.5426 23.6346 10.8068 23.5053 10.9858 23.2468C11.1619 22.9854 11.25 22.6545 11.25 22.2539ZM9.32386 13.4467L5.45454 13.4467L5.45454 12.4411L12 12.4411L12 13.4467L10.892 13.4467L10.892 13.5149C11.2244 13.6683 11.5071 13.907 11.7401 14.2308C11.9702 14.5547 12.0852 14.9638 12.0852 15.4581C12.0852 15.8672 11.9957 16.2308 11.8168 16.549C11.6349 16.8672 11.3622 17.1172 10.9986 17.299C10.6321 17.4808 10.1705 17.5717 9.61364 17.5717L5.45454 17.5717L5.45454 16.5661L9.54545 16.5661C10.0227 16.5661 10.4034 16.4325 10.6875 16.1655C10.9716 15.8956 11.1136 15.5518 11.1136 15.1342C11.1136 14.8842 11.0497 14.63 10.9219 14.3714C10.794 14.1101 10.598 13.8913 10.3338 13.7152C10.0696 13.5362 9.73295 13.4467 9.32386 13.4467ZM3.27273 9.59339L12 9.59339L12 10.5991L3.27273 10.5991L3.27273 9.59339ZM5.45454 4.90483L6.30682 4.90483L6.30682 8.29687L5.45454 8.29687L5.45454 4.90483ZM3.88636 7.30824L3.88636 6.30256L10.125 6.30256C10.4091 6.30256 10.6222 6.26136 10.7642 6.17898C10.9034 6.09375 10.9972 5.98579 11.0455 5.85511C11.0909 5.72159 11.1136 5.58097 11.1136 5.43324C11.1136 5.32244 11.108 5.23153 11.0966 5.16051C11.0824 5.08949 11.071 5.03267 11.0625 4.99006L11.9659 4.78551C11.9915 4.85369 12.017 4.94886 12.0426 5.07102C12.071 5.19318 12.0852 5.34801 12.0852 5.53551C12.0852 5.8196 12.0241 6.09801 11.902 6.37074C11.7798 6.64062 11.5937 6.86506 11.3437 7.04403C11.0937 7.22017 10.7784 7.30824 10.3977 7.30824L3.88636 7.30824Z" fill="white"/>
</g>
<defs>
<clipPath id="clip0_1920_13261">
<rect y="49" width="49" height="16" rx="4" transform="rotate(-90 0 49)" fill="white"/>
</clipPath>
</defs>
</svg>
