<svg width="24" height="24" viewBox="0 0 24 24" fill="none" xmlns="http://www.w3.org/2000/svg">
<path d="M12 22C17.5228 22 22 17.5228 22 12C22 6.47715 17.5228 2 12 2C6.47715 2 2 6.47715 2 12C2 17.5228 6.47715 22 12 22Z" fill="#F6F6F7"/>
<path d="M9.47628 14.0061C9.67185 13.2624 9.82431 12.508 9.93287 11.7468C10.3709 9.1611 10.6269 7.88909 11.5301 7.83484L11.5406 7.83296H11.5916L11.6556 7.83484C12.5591 7.88855 12.815 9.1611 13.2531 11.7468C13.3626 12.5129 13.5173 13.2719 13.7164 14.0198C13.8684 14.2066 14.04 14.3765 14.2283 14.5266C14.2283 12.1545 14.2283 9.62092 14.2283 8.31211C14.2283 7.92186 13.9796 6.88862 13.5894 6.88862C13.1991 6.88862 12.9504 7.92266 12.9504 8.31211C12.952 5.27765 12.1535 4 11.593 4C11.0324 4 10.2374 5.27765 10.2374 8.31238C10.2374 7.92213 9.98873 6.88889 9.59848 6.88889C9.20823 6.88889 8.95898 7.92132 8.95898 8.31238V14.5266C9.15137 14.3741 9.32502 14.1994 9.47628 14.0061Z" fill="#00977C"/>
<path d="M13.1111 13.9237C12.632 12.4862 12.3126 8.17383 11.5953 8.17383H11.5923C10.8749 8.17383 10.5556 12.4862 10.0764 13.9237C9.868 14.5484 8 15.5209 8 16.4792V16.9584L10.5556 17.4375V18.0765L11.5936 18.326L12.6317 18.0765V17.4375L15.1873 16.9584V16.4792C15.1873 15.5209 13.3193 14.5484 13.1111 13.9237Z" fill="#00977C"/>
<path d="M8.95898 19.6717H10.2374V17.6951L8.95898 17.4556V19.6717Z" fill="#00977C"/>
<path d="M12.9521 19.6717H14.2298V17.4556L12.9521 17.6951V19.6717Z" fill="#00977C"/>
</svg>
