<svg width="24" height="24" viewBox="0 0 24 24" fill="none" xmlns="http://www.w3.org/2000/svg">
<path d="M12 22C17.5228 22 22 17.5228 22 12C22 6.47715 17.5228 2 12 2C6.47715 2 2 6.47715 2 12C2 17.5228 6.47715 22 12 22Z" fill="#F6F6F7"/>
<path fill-rule="evenodd" clip-rule="evenodd" d="M9.15566 18.1822V18.2881H9.12681V18.1699C9.05172 18.0926 8.98573 18.0071 8.93012 17.9148C8.86481 17.8059 8.81282 17.6895 8.77527 17.5682C8.75659 17.4916 10.5592 15.8918 10.5592 15.8918L10.5505 15.5575L7.20761 16.206V16.0424C7.20761 16.0424 7.18751 16.2268 7.10406 16.2268C7.0206 16.2268 7.00004 16.0424 7.00004 16.0424V13.7977C6.99936 13.7511 7.00824 13.705 7.02613 13.662C7.04403 13.6191 7.07055 13.5803 7.10406 13.548C7.13745 13.5803 7.16386 13.6192 7.18167 13.6621C7.19948 13.7051 7.20831 13.7512 7.20761 13.7977V14.9164H7.21423L10.7117 11.9153C10.809 11.7685 10.8578 11.5949 10.8512 11.4189C10.5311 11.617 9.92282 11.948 9.92282 11.948C9.90516 11.8428 9.90166 11.7358 9.91242 11.6297C9.93606 11.521 10.8933 10.3463 10.8933 10.3463C10.8933 10.3463 11.3356 9.75522 11.3848 9.39729C11.434 9.03936 11.6392 7.94642 11.6392 7.94642C11.6392 7.94642 11.6995 7.2996 11.7101 7.16862C11.7301 6.84438 11.7776 6.52241 11.852 6.20618C11.9408 5.91587 12.0283 5.7038 12.0917 5.52768L12.1118 5.22861L12.1203 5.04894L12.1274 5L12.1342 5.04917L12.143 5.22885L12.1628 5.52791C12.2262 5.70428 12.3137 5.91634 12.4028 6.20642C12.4773 6.52263 12.5247 6.8446 12.5446 7.16886C12.5536 7.27997 12.5988 7.76226 12.6118 7.90623L12.6626 7.88496V7.82018C12.6645 7.80446 12.6698 7.78936 12.6782 7.77597V7.4866H12.6974V7.77597L12.7101 7.81119C12.7115 7.86032 12.7091 7.90947 12.703 7.95824C12.6945 7.98661 12.6605 7.99418 12.629 8.01711C12.6763 8.26558 12.8283 9.09421 12.8697 9.39635C12.9189 9.75333 13.3615 10.3453 13.3615 10.3453C13.3615 10.3453 14.3201 11.5201 14.3438 11.6288C14.3545 11.7349 14.3508 11.8419 14.3329 11.947C14.3329 11.947 13.7253 11.617 13.4052 11.4179C13.3988 11.5939 13.4476 11.7675 13.5447 11.9144L17.0422 14.9157H17.049V13.7977C17.0484 13.7512 17.0572 13.7051 17.075 13.6621C17.0928 13.6192 17.1192 13.5804 17.1526 13.548C17.1861 13.5803 17.2126 13.6191 17.2304 13.6621C17.2483 13.705 17.2572 13.7511 17.2566 13.7977V16.0424C17.2566 16.0424 17.2365 16.2268 17.1526 16.2268C17.0687 16.2268 17.049 16.0424 17.049 16.0424V16.2062L13.7054 15.557L13.6969 15.8913C13.6969 15.8913 15.4998 17.4914 15.4807 17.5677C15.4433 17.6891 15.3913 17.8055 15.3258 17.9143C15.2701 18.0065 15.2041 18.0921 15.1291 18.1694V18.2876H15.1003V18.1817L14.9563 18.1633V18.2659H14.9277V18.16L14.7582 18.1384V18.2427H14.7296V18.1347L13.6527 17.9983L13.4116 17.3855C13.3865 17.5625 13.3314 17.9415 13.3139 17.9933C13.2903 18.0619 13.2068 18.0619 13.1501 18.0619H12.8501C12.7934 18.0619 12.7094 18.0619 12.6863 17.9933C12.6709 17.9491 12.6293 17.6694 12.6019 17.4774L12.5562 17.8365C12.5326 17.9479 12.482 17.9798 12.4033 17.9862C12.4033 17.9862 12.3456 18.6515 12.1286 18.7976C11.9115 18.6515 11.8538 17.9862 11.8538 17.9862C11.7751 17.9798 11.725 17.9479 11.7009 17.8365L11.6553 17.4774C11.6276 17.6694 11.586 17.9503 11.5706 17.9933C11.547 18.0619 11.4642 18.0619 11.407 18.0619H11.1068C11.0503 18.0619 10.9663 18.0619 10.9432 17.9933C10.9252 17.9413 10.8706 17.5621 10.8458 17.3852L10.6035 17.998L9.52706 18.1344V18.2425H9.49727V18.1382L9.32776 18.1597V18.2656H9.29939V18.163L9.15566 18.1822Z" fill="#00977C"/>
</svg>
