<svg width="16" height="16" viewBox="0 0 16 16" fill="none" xmlns="http://www.w3.org/2000/svg">
<path d="M7.54967 11.3334H8.54967V7.33337H7.54967V11.3334ZM7.99967 6.10004C8.15523 6.10004 8.28578 6.05004 8.39134 5.95004C8.4969 5.85004 8.54967 5.72226 8.54967 5.56671C8.54967 5.41115 8.4969 5.27782 8.39134 5.16671C8.28578 5.0556 8.15523 5.00004 7.99967 5.00004C7.84412 5.00004 7.71356 5.0556 7.60801 5.16671C7.50245 5.27782 7.44967 5.41115 7.44967 5.56671C7.44967 5.72226 7.50245 5.85004 7.60801 5.95004C7.71356 6.05004 7.84412 6.10004 7.99967 6.10004ZM7.99967 14.6667C7.08856 14.6667 6.22745 14.4917 5.41634 14.1417C4.60523 13.7917 3.8969 13.3139 3.29134 12.7084C2.68579 12.1028 2.20801 11.3945 1.85801 10.5834C1.50801 9.77226 1.33301 8.9056 1.33301 7.98337C1.33301 7.07226 1.50801 6.21115 1.85801 5.40004C2.20801 4.58893 2.68579 3.88337 3.29134 3.28337C3.8969 2.68337 4.60523 2.20837 5.41634 1.85837C6.22745 1.50837 7.09412 1.33337 8.01634 1.33337C8.92745 1.33337 9.78856 1.50837 10.5997 1.85837C11.4108 2.20837 12.1163 2.68337 12.7163 3.28337C13.3163 3.88337 13.7913 4.58893 14.1413 5.40004C14.4913 6.21115 14.6663 7.07782 14.6663 8.00004C14.6663 8.91115 14.4913 9.77226 14.1413 10.5834C13.7913 11.3945 13.3163 12.1028 12.7163 12.7084C12.1163 13.3139 11.4108 13.7917 10.5997 14.1417C9.78856 14.4917 8.9219 14.6667 7.99967 14.6667ZM8.01634 13.6667C9.58301 13.6667 10.9163 13.1139 12.0163 12.0084C13.1163 10.9028 13.6663 9.56115 13.6663 7.98337C13.6663 6.41671 13.1163 5.08337 12.0163 3.98337C10.9163 2.88337 9.57745 2.33337 7.99967 2.33337C6.43301 2.33337 5.0969 2.88337 3.99134 3.98337C2.88579 5.08337 2.33301 6.42226 2.33301 8.00004C2.33301 9.56671 2.88579 10.9028 3.99134 12.0084C5.0969 13.1139 6.43856 13.6667 8.01634 13.6667Z" fill="#212244"/>
</svg>
