<svg width="164" height="164" viewBox="0 0 164 164" fill="none" xmlns="http://www.w3.org/2000/svg">
<path d="M82.4066 145C119.082 145 148.813 127.834 148.813 106.659C148.813 85.4834 119.082 68.3174 82.4066 68.3174C45.7312 68.3174 16 85.4834 16 106.659C16 127.834 45.7312 145 82.4066 145Z" fill="#F5F5F5"/>
<path d="M126.191 125.461C136.595 125.461 145.03 120.591 145.03 114.583C145.03 108.576 136.595 103.706 126.191 103.706C115.786 103.706 107.352 108.576 107.352 114.583C107.352 120.591 115.786 125.461 126.191 125.461Z" fill="#E0E0E0"/>
<path d="M78.5139 120.452L57.2617 108.177L81.5535 94.1533L102.808 106.425L78.5139 120.452Z" fill="#E0E0E0"/>
<path d="M20.6445 116.655L48.055 132.48L71.0457 119.21L43.6352 103.385L20.6445 116.655Z" fill="#E0E0E0"/>
<path d="M61.1749 42.2749V40.7169C61.1632 40.6269 61.1284 40.5414 61.0741 40.4688C61.0197 40.3961 60.9475 40.3387 60.8644 40.302L51.4576 34.9058C51.2334 34.7931 50.986 34.7344 50.7351 34.7344C50.4842 34.7344 50.2367 34.7931 50.0125 34.9058L22.9774 50.4286C22.8944 50.4652 22.8222 50.5226 22.7678 50.5953C22.7134 50.668 22.6787 50.7534 22.667 50.8435V52.4014C22.6784 52.4915 22.713 52.5771 22.7675 52.6498C22.8219 52.7225 22.8942 52.7799 22.9774 52.8163L32.3815 58.2041C32.6056 58.3168 32.8531 58.3755 33.104 58.3755C33.3549 58.3755 33.6023 58.3168 33.8265 58.2041L60.8616 42.6813C60.9448 42.6449 61.0172 42.5875 61.0716 42.5148C61.126 42.4421 61.1606 42.3565 61.172 42.2664L61.1749 42.2749Z" fill="#F0F0F0"/>
<path d="M22.9772 51.2499L32.3812 56.6462C32.605 56.7602 32.8525 56.8196 33.1037 56.8196C33.3548 56.8196 33.6024 56.7602 33.8262 56.6462L60.8613 41.1233C61.2593 40.8947 61.2593 40.525 60.8613 40.2936L51.4573 34.9058C51.2331 34.7931 50.9857 34.7344 50.7348 34.7344C50.4839 34.7344 50.2364 34.7931 50.0123 34.9058L22.9772 50.4286C22.5792 50.6515 22.5792 51.0213 22.9772 51.2499Z" fill="#FAFAFA"/>
<path d="M33.104 56.8206V58.3758C32.8525 58.3794 32.6042 58.3202 32.3815 58.2036L22.9774 52.8214C22.8942 52.785 22.8219 52.7277 22.7675 52.6549C22.713 52.5822 22.6784 52.4966 22.667 52.4065V50.8458C22.6725 50.7827 22.6928 50.7218 22.7263 50.668C22.6162 50.8684 22.698 51.0998 22.9774 51.2607L32.3815 56.6485C32.6036 56.7668 32.8524 56.826 33.104 56.8206Z" fill="#E0E0E0"/>
<path d="M38.1572 43.6579L46.1247 48.199L59.2852 40.6465L51.3206 36.1025L38.1572 43.6579Z" fill="#E0E0E0"/>
<path d="M46.2139 47.855L38.5287 43.4437C38.7284 42.7922 38.7135 42.0937 38.4863 41.4512L46.1236 45.8145C46.1236 45.8145 46.2703 46.2971 46.2139 47.855Z" fill="white"/>
<path d="M45.7308 45.202C45.9453 45.3406 46.1241 45.5278 46.2526 45.7485C46.3811 45.9692 46.4556 46.2171 46.4703 46.472V47.9566C46.4703 48.4251 46.1373 48.6142 45.7308 48.3827L38.167 44.0251V43.6582L45.6405 47.9199C45.8861 48.061 46.0836 47.9453 46.0836 47.6659V46.2886C46.0751 46.1356 46.0306 45.9868 45.9535 45.8544C45.8765 45.7219 45.7693 45.6096 45.6405 45.5265L38.167 41.2507V40.833L45.7308 45.202Z" fill="#EBEBEB"/>
<path d="M38.167 40.8474L51.3191 33.292L58.8914 37.6384C59.1064 37.7771 59.2855 37.9647 59.414 38.186C59.5425 38.4072 59.6168 38.6558 59.6308 38.9113V40.4043C59.6408 40.4956 59.6259 40.5879 59.5876 40.6714C59.5494 40.7549 59.4892 40.8264 59.4135 40.8784L46.253 48.4338C46.3273 48.3806 46.3862 48.3088 46.4239 48.2255C46.4616 48.1423 46.4766 48.0506 46.4675 47.9596V46.4723C46.4537 46.2171 46.3795 45.9689 46.2509 45.7481C46.1224 45.5272 45.9431 45.3401 45.728 45.2022L38.167 40.8474Z" fill="#FAFAFA"/>
<path d="M46.2549 45.741C46.389 45.9588 46.464 46.2079 46.4722 46.4635V47.9509C46.4813 48.0418 46.4663 48.1335 46.4286 48.2168C46.391 48.3 46.332 48.3719 46.2577 48.4251L59.4182 40.8697C59.4939 40.8177 59.5541 40.7461 59.5924 40.6626C59.6306 40.5791 59.6456 40.4868 59.6355 40.3955V38.911C59.6273 38.6553 59.5524 38.4063 59.4182 38.1885L46.2549 45.741Z" fill="#F0F0F0"/>
<path d="M30.0576 32.3555L29.9814 33.3602L38.8774 38.1328L39.0778 37.5457L30.0576 32.3555Z" fill="#EBEBEB"/>
<path d="M38.959 37.7796L30.3424 32.8066L28.8438 33.6703L37.6297 38.8097L38.959 37.7796Z" fill="white"/>
<path d="M36.0127 38.2783L35.166 48.2637C35.1702 48.3765 35.2013 48.4865 35.2568 48.5848C35.3123 48.683 35.3905 48.7664 35.4849 48.8282L40.4833 51.7211C40.563 51.7652 40.6519 51.7903 40.7429 51.7945L37.6384 39.1476C37.5478 39.1426 37.4593 39.1186 37.3787 39.077L37.0203 38.8682L36.0127 38.2783Z" fill="#E0E0E0"/>
<path d="M38.0098 39.0647L38.9017 38.2998L39.5536 37.7354C39.6214 37.6281 39.7004 37.5491 39.6581 37.4531L42.7231 50.0069C42.7654 50.0943 42.7767 50.2891 42.6554 50.3625L41.1116 51.6833C40.9947 51.7452 40.862 51.7708 40.7305 51.7567L37.626 39.1098C37.7556 39.1322 37.8889 39.1165 38.0098 39.0647Z" fill="#F0F0F0"/>
<path d="M39.5566 37.3712C39.7316 37.4728 39.6893 37.5857 39.5566 37.7381L38.01 39.0618C37.9115 39.1132 37.8021 39.1401 37.691 39.1401C37.58 39.1401 37.4706 39.1132 37.3721 39.0618L36.0118 38.2771C35.8339 38.1755 35.8029 38.0288 35.9412 37.9498C36.0321 37.9129 36.1302 37.8973 36.228 37.9041C36.3258 37.911 36.4208 37.9401 36.5057 37.9893L37.5782 38.6102C37.611 38.6268 37.6472 38.6355 37.684 38.6355C37.7208 38.6355 37.757 38.6268 37.7898 38.6102L38.9188 37.628C38.978 37.5941 38.978 37.5405 38.9188 37.5066L30.0566 32.3559L30.48 32.1104L39.5566 37.3712Z" fill="#FAFAFA"/>
<path d="M27.4883 32.8379L35.9637 37.7318V53.8586L27.4883 48.9619V32.8379Z" fill="#EBEBEB"/>
<path d="M35.6899 38.0006L27.4882 33.293C26.9866 33.8248 26.3296 34.1844 25.6113 34.3203L33.7453 39.0082C33.7453 39.0082 34.2702 38.884 35.6899 38.0006Z" fill="white"/>
<path d="M32.958 38.9937C33.2025 39.1161 33.4721 39.1799 33.7455 39.1799C34.0189 39.1799 34.2885 39.1161 34.5329 38.9937L35.9102 38.1865C36.3448 37.9353 36.3448 37.5317 35.9102 37.2805L27.8299 32.6406L27.4884 32.8382L35.4389 37.4301C35.4975 37.4472 35.549 37.4829 35.5856 37.5317C35.6223 37.5806 35.6421 37.64 35.6421 37.7011C35.6421 37.7621 35.6223 37.8215 35.5856 37.8704C35.549 37.9193 35.4975 37.9549 35.4389 37.972L34.1547 38.7115C34.008 38.7852 33.8461 38.8236 33.682 38.8236C33.5178 38.8236 33.3559 38.7852 33.2092 38.7115L25.2616 34.1167L24.8721 34.3397L32.958 38.9937Z" fill="#FAFAFA"/>
<path d="M24.875 34.3389V50.4628L32.9582 55.1027C33.2026 55.2252 33.4722 55.2889 33.7456 55.2889C34.019 55.2889 34.2886 55.2252 34.533 55.1027L35.916 54.3097C36.0058 54.27 36.0834 54.2069 36.1405 54.127C36.1976 54.047 36.2322 53.9532 36.2405 53.8553V37.7313C36.2318 37.8295 36.1964 37.9234 36.1382 38.003C36.08 38.0826 36.0012 38.1448 35.9103 38.1829L34.533 38.9929C34.2886 39.1153 34.019 39.1791 33.7456 39.1791C33.4722 39.1791 33.2026 39.1153 32.9582 38.9929L24.875 34.3389Z" fill="#EBEBEB"/>
<path d="M33.7459 39.1652C34.0199 39.1706 34.2908 39.1065 34.5333 38.9789L35.9106 38.183C36.0005 38.1441 36.0781 38.0816 36.1352 38.002C36.1924 37.9225 36.2269 37.829 36.2352 37.7314V53.8554C36.2268 53.9533 36.1923 54.0472 36.1352 54.1271C36.0781 54.2071 36.0005 54.2702 35.9106 54.3098L34.5277 55.1029C34.2851 55.2305 34.0142 55.2946 33.7402 55.2892L33.7459 39.1652Z" fill="#F0F0F0"/>
<path d="M101.833 97.6961C101.791 96.9821 101.695 96.1269 101.579 95.1334C101.147 91.3628 100.557 86.1979 102.121 81.2504C103.072 78.239 105.364 74.6687 108.942 73.6781C109.738 73.4579 111.663 73.1334 112.403 74.8409C112.507 75.0876 112.569 75.3499 112.586 75.617C112.662 76.7008 112.174 77.6576 111.632 78.5297C111.008 79.5429 110.286 80.5053 109.586 81.4423C108.926 82.3285 108.24 83.243 107.641 84.1913C106.995 85.2216 106.429 86.3001 105.948 87.4172L105.719 87.3184C106.199 86.19 106.766 85.1002 107.413 84.0586C108.014 83.1018 108.703 82.1818 109.369 81.2927C110.063 80.3614 110.78 79.4018 111.401 78.3998C111.92 77.5531 112.389 76.6472 112.318 75.634C112.303 75.395 112.247 75.1603 112.154 74.9397C111.494 73.4128 109.721 73.7176 108.99 73.918C105.508 74.8832 103.27 78.3773 102.338 81.3238C100.792 86.2233 101.379 91.3572 101.808 95.1052C101.921 96.1015 102.019 96.9623 102.062 97.682L101.833 97.6961Z" fill="#00977C"/>
<path d="M102.087 101.8C102.068 101.803 102.049 101.803 102.03 101.8C101.976 101.79 101.925 101.767 101.882 101.733C101.838 101.699 101.803 101.656 101.779 101.606C101.73 101.466 101.73 101.314 101.779 101.174C101.819 100.903 101.819 100.629 101.779 100.358C101.779 100.206 101.754 100.045 101.754 99.901V98.1484C101.979 95 102.902 91.9411 104.455 89.1931C105.832 86.797 107.356 85.2023 109.253 84.1694C110.275 83.6076 111.396 83.2482 112.555 83.111C113.578 82.998 114.606 83.2697 115.439 83.873C116.3 84.5532 116.687 85.7188 116.362 86.6417C116.134 87.288 115.611 87.7707 115.078 88.2081C114.127 88.9843 113.088 89.6786 112.086 90.3503C111.254 90.9147 110.393 91.4792 109.589 92.1001C107.128 93.9995 105.063 96.3632 103.512 99.0572C103.258 99.4946 103.018 99.9462 102.798 100.398L102.708 100.576C102.62 100.737 102.542 100.904 102.476 101.075C102.462 101.112 102.448 101.188 102.428 101.276C102.414 101.436 102.363 101.592 102.279 101.73C102.226 101.777 102.157 101.802 102.087 101.8ZM112.961 83.3452C112.834 83.3452 112.707 83.3452 112.577 83.3622C111.453 83.4933 110.365 83.8423 109.374 84.3895C107.523 85.3971 106.03 86.9635 104.675 89.3173C103.143 92.0312 102.232 95.0512 102.008 98.1597V99.8954C102.008 100.031 102.008 100.178 102.033 100.333C102.079 100.628 102.079 100.929 102.033 101.225C102.003 101.316 102.003 101.415 102.033 101.507C102.04 101.521 102.051 101.534 102.063 101.543C102.076 101.553 102.091 101.56 102.107 101.563C102.157 101.459 102.191 101.348 102.208 101.233C102.222 101.155 102.24 101.077 102.265 101.002C102.333 100.821 102.414 100.644 102.507 100.474L102.595 100.299C102.821 99.8418 103.063 99.3874 103.317 98.9443C103.845 98.031 104.43 97.1524 105.07 96.3139C106.334 94.6618 107.81 93.1825 109.459 91.9138C110.272 91.2929 111.135 90.7144 111.971 90.1555C112.97 89.4866 114 88.7952 114.945 88.0275C115.448 87.6183 115.942 87.1582 116.15 86.5712C116.433 85.7442 116.086 84.6971 115.304 84.0791C114.629 83.5758 113.803 83.3171 112.961 83.3452Z" fill="#00977C"/>
<path d="M101.874 99.389H101.843C101.828 99.3854 101.813 99.3786 101.799 99.3691C101.786 99.3595 101.775 99.3474 101.766 99.3334C101.758 99.3195 101.753 99.304 101.75 99.2878C101.748 99.2717 101.749 99.2552 101.753 99.2395C104.082 89.954 110.519 85.8108 113.957 84.8258C113.988 84.8171 114.022 84.8211 114.05 84.8369C114.079 84.8528 114.1 84.8792 114.109 84.9105C114.118 84.9423 114.114 84.9763 114.098 85.0053C114.083 85.0342 114.056 85.0559 114.025 85.0657C110.638 86.0338 104.296 90.1233 101.996 99.2987C101.988 99.3248 101.972 99.3477 101.95 99.3639C101.928 99.3802 101.902 99.389 101.874 99.389Z" fill="#00977C"/>
<path d="M101.861 91.7698C101.828 91.7669 101.797 91.7511 101.776 91.7258C101.754 91.7004 101.743 91.6676 101.745 91.6343C102.488 81.6066 109.047 76.1115 109.792 75.5217C109.804 75.511 109.819 75.5031 109.835 75.4984C109.851 75.4936 109.867 75.4921 109.884 75.4939C109.9 75.4958 109.916 75.5009 109.93 75.5091C109.944 75.5173 109.957 75.5283 109.967 75.5414C109.977 75.5542 109.985 75.5688 109.989 75.5846C109.994 75.6003 109.995 75.6167 109.993 75.633C109.992 75.6493 109.987 75.665 109.979 75.6793C109.971 75.6936 109.96 75.7062 109.947 75.7164C109.21 76.3006 102.728 81.7308 101.997 91.6541C101.993 91.687 101.977 91.7173 101.952 91.7389C101.927 91.7604 101.894 91.7714 101.861 91.7698Z" fill="#00977C"/>
<path d="M101.078 56.7958L85.3835 47.739C85.2621 47.6518 85.1198 47.5984 84.9711 47.584C84.8224 47.5696 84.6726 47.5949 84.5368 47.6571L83.4078 48.3091C83.2837 48.3955 83.185 48.5136 83.122 48.6511C83.0589 48.7886 83.0339 48.9404 83.0494 49.0909V92.0496C83.0724 92.4681 83.1938 92.8754 83.4037 93.2382C83.6136 93.6011 83.906 93.9094 84.2574 94.1381L99.9495 103.184C100.071 103.271 100.213 103.325 100.361 103.34C100.51 103.355 100.66 103.33 100.796 103.268L101.925 102.614C102.048 102.527 102.145 102.409 102.207 102.272C102.269 102.135 102.294 101.984 102.278 101.835V58.8844C102.256 58.4665 102.136 58.0597 101.928 57.6968C101.719 57.334 101.428 57.0253 101.078 56.7958Z" fill="#263238"/>
<path d="M86.4307 92.7861L85.3018 93.4381V97.0112C85.3075 97.1158 85.3378 97.2176 85.3903 97.3084C85.4427 97.3991 85.5159 97.4762 85.6037 97.5333L86.1315 97.8381C86.2251 97.8855 86.3286 97.9102 86.4335 97.9102C86.5384 97.9102 86.6419 97.8855 86.7355 97.8381L87.2633 97.5333C87.4508 97.4122 87.5958 97.2356 87.6782 97.0281L88.697 94.0929L86.4307 92.7861Z" fill="#263238"/>
<path d="M85.3018 97.0106C85.3075 97.1152 85.3378 97.217 85.3903 97.3078C85.4427 97.3985 85.5159 97.4756 85.6037 97.5327L86.1315 97.8375C86.168 97.8596 86.209 97.8731 86.2514 97.8771C86.2939 97.881 86.3366 97.8753 86.3766 97.8604C86.4165 97.8455 86.4525 97.8217 86.4819 97.7908C86.5113 97.76 86.5334 97.7229 86.5464 97.6823L87.5596 94.7442L85.3018 93.4375V97.0106Z" fill="#37474F"/>
<path d="M97.7539 99.3027L96.625 99.9575V103.528C96.6302 103.633 96.66 103.735 96.7119 103.826C96.7639 103.917 96.8366 103.995 96.9242 104.053L97.4548 104.358C97.5479 104.405 97.6509 104.43 97.7553 104.43C97.8598 104.43 97.9628 104.405 98.0559 104.358L98.5865 104.053C98.774 103.932 98.9191 103.755 99.0014 103.548L100.017 100.609L97.7539 99.3027Z" fill="#263238"/>
<path d="M96.625 103.528C96.6302 103.633 96.66 103.735 96.7119 103.826C96.7639 103.918 96.8366 103.995 96.9242 104.053L97.4548 104.358C97.4912 104.38 97.5322 104.394 97.5747 104.398C97.6171 104.402 97.6599 104.396 97.6998 104.381C97.7397 104.366 97.7757 104.342 97.8052 104.311C97.8346 104.28 97.8566 104.243 97.8696 104.203L98.8885 101.265L96.6307 99.958L96.625 103.528Z" fill="#37474F"/>
<path d="M84.3308 48.4249L100.023 57.4563C100.374 57.6857 100.667 57.9945 100.877 58.3578C101.086 58.7211 101.208 59.1288 101.231 59.5477V102.506C101.261 102.657 101.243 102.814 101.179 102.954C101.115 103.094 101.01 103.21 100.876 103.287C100.743 103.364 100.589 103.397 100.436 103.382C100.283 103.367 100.139 103.305 100.023 103.203L84.3308 94.1551C83.9798 93.9263 83.6878 93.6179 83.4784 93.255C83.269 92.8921 83.1481 92.4849 83.1256 92.0666V49.1192C83.0954 48.9686 83.1133 48.8123 83.1767 48.6723C83.24 48.5324 83.3457 48.4159 83.4788 48.3392C83.6119 48.2625 83.7657 48.2295 83.9186 48.2449C84.0714 48.2603 84.2156 48.3232 84.3308 48.4249Z" fill="#37474F"/>
<path d="M61.543 107.143L78.5165 116.942L102.28 103.222L101.149 102.568L84.1752 92.7686L61.543 105.836V107.143Z" fill="#455A64"/>
<path d="M78.5166 116.942V115.635L102.281 101.916V103.223L78.5166 116.942Z" fill="#263238"/>
<path d="M78.6243 115.04L78.4521 114.925C81.4636 110.367 81.4438 102.492 81.1983 100.517C81.1785 100.384 81.1644 100.302 81.1616 100.271L81.3676 100.237C81.3676 100.299 81.3902 100.373 81.4015 100.46C81.6216 101.857 82.8663 109.447 84.3395 111.75L84.1645 111.862C82.9989 110.053 82.0026 105.171 81.5031 102.354C81.5341 105.552 81.0684 111.363 78.6243 115.04Z" fill="#FAFAFA"/>
<path d="M88.5359 108.08C88.279 108.003 82.2788 106.186 81.7256 103.538L81.9316 103.496C82.4566 106.022 88.533 107.862 88.5951 107.882L88.5359 108.08Z" fill="#FAFAFA"/>
<path d="M82.4791 107.008L82.3267 106.361C82.3058 106.243 82.2453 106.134 82.1551 106.055C82.0649 105.975 81.9503 105.928 81.8299 105.921C81.7306 105.907 81.6291 105.923 81.5393 105.968C81.4495 106.013 81.3756 106.084 81.3276 106.172L81.1328 106.09C81.1981 105.961 81.3019 105.856 81.4298 105.788C81.5576 105.72 81.7033 105.694 81.8469 105.712C81.9507 105.719 82.052 105.747 82.1439 105.796C82.2359 105.845 82.3165 105.912 82.3803 105.994C82.4141 105.727 82.5508 105.483 82.7613 105.314C82.8411 105.273 82.9304 105.252 83.0204 105.255C83.1104 105.258 83.1981 105.284 83.275 105.331L83.1818 105.517C83.1348 105.487 83.0808 105.47 83.0249 105.466C82.9691 105.463 82.9133 105.474 82.8629 105.498C82.623 105.633 82.5299 106.155 82.5158 106.344L82.4791 107.008Z" fill="#FAFAFA"/>
<path d="M83.0681 109.161L82.8818 108.574C82.6701 107.911 82.3173 107.53 81.8996 107.504C81.7251 107.501 81.5534 107.549 81.4055 107.641C81.2576 107.734 81.14 107.868 81.067 108.027L80.8779 107.936C80.9672 107.738 81.1133 107.571 81.2977 107.456C81.4821 107.341 81.6965 107.283 81.9137 107.29C82.1649 107.304 82.5967 107.44 82.9185 108.094C82.989 107.578 83.2007 106.748 83.7454 106.401C83.9409 106.294 84.1608 106.239 84.3837 106.241C84.6066 106.244 84.8252 106.304 85.0183 106.415L84.9308 106.604C84.7691 106.509 84.5856 106.456 84.3979 106.452C84.2101 106.447 84.0243 106.491 83.8583 106.579C83.133 107.03 83.085 108.523 83.085 108.54L83.0681 109.161Z" fill="#FAFAFA"/>
<path d="M80.5203 110.595L80.334 110.499C80.7517 109.695 81.6689 109.116 82.4648 109.156C82.6337 109.158 82.7999 109.198 82.9514 109.272C83.1028 109.347 83.2355 109.455 83.3398 109.588C83.4164 109.182 83.5744 108.795 83.8043 108.452C84.0342 108.108 84.3313 107.815 84.6776 107.589C85.0491 107.343 85.478 107.196 85.9228 107.162C86.3677 107.129 86.8136 107.211 87.2177 107.4L87.1358 107.589C86.7636 107.417 86.3536 107.343 85.9446 107.373C85.5357 107.404 85.1413 107.539 84.7989 107.764C84.4329 108.002 84.1274 108.321 83.9068 108.698C83.6863 109.074 83.5569 109.497 83.5289 109.932V110.465L83.3313 109.969C83.2659 109.792 83.1481 109.64 82.9938 109.532C82.8395 109.424 82.656 109.366 82.4677 109.365C81.7367 109.328 80.9041 109.859 80.5203 110.595Z" fill="#FAFAFA"/>
<path d="M79.3749 113.711L79.1914 113.609C79.4454 113.146 80.7973 110.821 82.3976 110.4C82.6234 110.336 82.8604 110.319 83.093 110.353C83.3255 110.387 83.5483 110.469 83.7466 110.595L83.6394 110.773C83.4645 110.662 83.2683 110.59 83.0636 110.56C82.8589 110.531 82.6502 110.544 82.4512 110.601C81.2771 110.911 80.0635 112.469 79.3749 113.711Z" fill="#FAFAFA"/>
<path d="M100.017 88.8489V90.1557L78.5165 102.568L61.543 92.7691V91.4624L83.0435 79.0498L100.017 88.8489Z" fill="#263238"/>
<path d="M100.017 88.8489L78.5165 101.262L61.543 91.4624L83.0435 79.0498L100.017 88.8489Z" fill="#455A64"/>
<path d="M100.017 74.4768V75.7807L78.5165 88.1961L61.543 78.3942V77.0902L83.0435 64.6748L100.017 74.4768Z" fill="#263238"/>
<path d="M100.017 74.4768L78.5165 86.8894L61.543 77.0902L83.0435 64.6748L100.017 74.4768Z" fill="#455A64"/>
<path d="M78.4441 69.8478L62.7519 60.8022C62.6308 60.7146 62.4887 60.6607 62.34 60.6458C62.1913 60.6309 62.0413 60.6557 61.9052 60.7176C61.702 60.8333 60.9795 61.2538 60.7763 61.3695C60.6527 61.4563 60.5545 61.5745 60.492 61.712C60.4295 61.8494 60.4049 62.0011 60.4207 62.1513V105.099C60.4437 105.517 60.5651 105.924 60.775 106.287C60.9849 106.65 61.2773 106.959 61.6286 107.187L77.3208 116.236C77.4419 116.323 77.584 116.377 77.7327 116.392C77.8814 116.407 78.0314 116.382 78.1675 116.32C78.3707 116.202 79.0989 115.784 79.2964 115.663C79.4206 115.577 79.5196 115.459 79.5831 115.322C79.6466 115.185 79.6724 115.034 79.6577 114.884V71.9391C79.6344 71.5196 79.5124 71.1115 79.3015 70.748C79.0906 70.3846 78.7968 70.0761 78.4441 69.8478Z" fill="#263238"/>
<path opacity="0.2" d="M78.5185 76.4401L79.653 75.7853V71.8623L78.5156 72.5171L78.5185 76.4401Z" fill="black"/>
<path opacity="0.2" d="M101.153 63.3729L102.288 62.7209V58.7979L101.15 59.4526L101.153 63.3729Z" fill="black"/>
<path d="M63.8076 105.838L62.6787 106.49V110.063C62.6844 110.168 62.7147 110.269 62.7672 110.36C62.8197 110.451 62.8928 110.528 62.9807 110.585L63.5085 110.89C63.6021 110.937 63.7055 110.962 63.8105 110.962C63.9154 110.962 64.0188 110.937 64.1125 110.89L64.6402 110.585C64.827 110.464 64.9719 110.289 65.0551 110.083L66.074 107.145L63.8076 105.838Z" fill="#263238"/>
<path d="M62.6758 110.063C62.6815 110.168 62.7118 110.27 62.7643 110.361C62.8168 110.451 62.8899 110.528 62.9778 110.585L63.5055 110.89C63.542 110.912 63.583 110.926 63.6254 110.93C63.6679 110.934 63.7107 110.928 63.7506 110.913C63.7905 110.898 63.8265 110.874 63.8559 110.844C63.8854 110.813 63.9074 110.776 63.9204 110.735L64.9393 107.797L62.6814 106.49L62.6758 110.063Z" fill="#37474F"/>
<path d="M75.1221 112.371L73.9932 113.023V116.596C73.9983 116.701 74.0281 116.802 74.0801 116.893C74.1321 116.984 74.2048 117.061 74.2923 117.118L74.8229 117.423C74.9161 117.47 75.019 117.495 75.1235 117.495C75.228 117.495 75.331 117.47 75.4241 117.423L75.9547 117.118C76.1407 116.997 76.2854 116.822 76.3696 116.616L77.3856 113.678L75.1221 112.371Z" fill="#263238"/>
<path d="M73.9932 116.583C73.9983 116.687 74.0281 116.789 74.0801 116.88C74.1321 116.971 74.2048 117.048 74.2923 117.105L74.8229 117.41C74.8594 117.432 74.9004 117.445 74.9428 117.449C74.9853 117.453 75.0281 117.448 75.068 117.433C75.1079 117.418 75.1439 117.394 75.1733 117.363C75.2027 117.332 75.2248 117.295 75.2378 117.255L76.2539 114.317L73.996 113.01L73.9932 116.583Z" fill="#37474F"/>
<path d="M61.6179 61.4561L77.3129 70.5017C77.6639 70.7312 77.9559 71.0401 78.1652 71.4034C78.3746 71.7668 78.4955 72.1743 78.518 72.5931V116.943C78.518 116.943 77.6459 116.427 77.3129 116.235L61.6207 107.186C61.2694 106.958 60.9769 106.649 60.7671 106.286C60.5572 105.924 60.4358 105.516 60.4127 105.098V62.1504C60.3826 61.9998 60.4004 61.8435 60.4638 61.7036C60.5271 61.5636 60.6328 61.4471 60.7659 61.3704C60.899 61.2937 61.0529 61.2608 61.2057 61.2761C61.3585 61.2915 61.5027 61.3545 61.6179 61.4561Z" fill="#37474F"/>
<path opacity="0.2" d="M77.3129 70.5017L61.6179 61.4561C61.5027 61.3545 61.3585 61.2915 61.2057 61.2761C61.0529 61.2608 60.899 61.2937 60.7659 61.3704C60.6328 61.4471 60.5271 61.5636 60.4638 61.7036C60.4004 61.8435 60.3826 61.9998 60.4127 62.1504V65.986L78.518 76.4286V72.5931C78.4955 72.1743 78.3746 71.7668 78.1652 71.4034C77.9559 71.0401 77.6639 70.7312 77.3129 70.5017Z" fill="black"/>
<path d="M98.8857 74.5827C98.8583 74.582 98.8321 74.5708 98.8127 74.5513C98.7932 74.5319 98.782 74.5058 98.7813 74.4783V61.5915L86.49 68.6869C86.4785 68.6943 86.4656 68.6993 86.4521 68.7015C86.4385 68.7037 86.4247 68.7031 86.4114 68.6996C86.3981 68.6962 86.3857 68.69 86.375 68.6815C86.3642 68.673 86.3553 68.6623 86.3489 68.6502C86.3418 68.6383 86.3371 68.6252 86.3351 68.6115C86.3331 68.5979 86.3338 68.5839 86.3372 68.5705C86.3406 68.5572 86.3467 68.5446 86.355 68.5335C86.3633 68.5225 86.3737 68.5132 86.3856 68.5062L98.849 61.3206C98.8647 61.3108 98.8828 61.3057 98.9012 61.3057C98.9197 61.3057 98.9378 61.3108 98.9535 61.3206C98.9691 61.3299 98.9819 61.3432 98.9909 61.359C98.9998 61.3748 99.0044 61.3927 99.0043 61.4109V74.4783C99.0044 74.4933 99.0013 74.5081 98.9952 74.5218C98.9891 74.5355 98.9801 74.5477 98.9689 74.5576C98.9576 74.5675 98.9444 74.5749 98.93 74.5792C98.9157 74.5836 98.9006 74.5847 98.8857 74.5827Z" fill="#FAFAFA"/>
<path d="M96.6226 71.314H96.5916C96.5647 71.308 96.5413 71.2915 96.5265 71.2682C96.5117 71.245 96.5067 71.2168 96.5125 71.1899L98.618 62.0709L94.441 69.3045C94.4345 69.3166 94.4257 69.3272 94.415 69.3358C94.4043 69.3443 94.392 69.3507 94.3788 69.3544C94.3656 69.358 94.3518 69.359 94.3383 69.3573C94.3247 69.3555 94.3116 69.351 94.2998 69.3441C94.2877 69.3373 94.277 69.3282 94.2684 69.3173C94.2598 69.3063 94.2535 69.2938 94.2498 69.2804C94.2461 69.267 94.2452 69.253 94.247 69.2392C94.2488 69.2254 94.2533 69.2121 94.2603 69.2001L98.7761 61.3597C98.789 61.3381 98.8091 61.3218 98.8328 61.3136C98.8565 61.3053 98.8824 61.3057 98.9059 61.3145C98.9291 61.324 98.9481 61.3414 98.9595 61.3637C98.9709 61.3859 98.9739 61.4116 98.968 61.4359L96.7101 71.2378C96.7051 71.2579 96.694 71.276 96.6783 71.2897C96.6627 71.3033 96.6432 71.3118 96.6226 71.314Z" fill="#FAFAFA"/>
<path d="M92.0985 68.0599C92.0841 68.0599 92.0699 68.057 92.0568 68.0511C92.0436 68.0453 92.0319 68.0367 92.0223 68.026C92.003 68.0065 91.9922 67.9801 91.9922 67.9526C91.9922 67.9252 92.003 67.8988 92.0223 67.8793L98.8128 61.3456C98.8324 61.3263 98.8588 61.3154 98.8862 61.3154C98.9137 61.3154 98.9401 61.3263 98.9596 61.3456C98.9791 61.3656 98.99 61.3924 98.99 61.4203C98.99 61.4483 98.9791 61.4751 98.9596 61.4951L92.1691 68.026C92.1601 68.036 92.1493 68.0442 92.1372 68.05C92.1251 68.0558 92.1119 68.0592 92.0985 68.0599Z" fill="#FAFAFA"/>
<path d="M98.8853 72.497C98.8578 72.4963 98.8317 72.485 98.8123 72.4656C98.7928 72.4462 98.7816 72.42 98.7809 72.3925C98.7809 70.6822 96.873 70.5665 96.7911 70.5637C96.7757 70.5626 96.7607 70.5582 96.7471 70.5509C96.7335 70.5436 96.7216 70.5335 96.7121 70.5213C96.7032 70.5093 96.6971 70.4955 96.6942 70.4809C96.6913 70.4663 96.6916 70.4512 96.6952 70.4367C96.7648 70.0873 96.7412 69.7257 96.6267 69.3883C96.5123 69.0509 96.311 68.7496 96.0432 68.5147C95.9453 68.417 95.8277 68.3413 95.6983 68.2927C95.5688 68.244 95.4305 68.2235 95.2925 68.2324C95.2188 68.2449 95.1487 68.273 95.0869 68.3149C95.0251 68.3568 94.973 68.4114 94.934 68.4752C94.9223 68.4957 94.9038 68.5117 94.8818 68.5204C94.8597 68.5292 94.8354 68.5301 94.8127 68.5231C94.7901 68.5162 94.7706 68.5018 94.7573 68.4823C94.7439 68.4628 94.7376 68.4394 94.7393 68.4159C94.7393 68.351 94.855 66.8297 93.5172 66.6802C93.5 66.678 93.4836 66.6718 93.4694 66.662C93.4551 66.6522 93.4435 66.639 93.4354 66.6237C93.4277 66.6089 93.4237 66.5924 93.4237 66.5757C93.4237 66.559 93.4277 66.5426 93.4354 66.5277C93.4354 66.5277 94.0281 65.4186 93.7995 64.8739C93.7731 64.8099 93.732 64.753 93.6795 64.7079C93.627 64.6628 93.5647 64.6307 93.4975 64.6142C93.4841 64.6107 93.4716 64.6044 93.4607 64.5959C93.4498 64.5873 93.4408 64.5767 93.4342 64.5645C93.4276 64.5523 93.4235 64.539 93.4223 64.5252C93.421 64.5114 93.4226 64.4975 93.4269 64.4844C93.4354 64.4582 93.4536 64.4363 93.4777 64.4232C93.5019 64.41 93.5302 64.4067 93.5567 64.4138C93.654 64.4388 93.744 64.4863 93.8195 64.5525C93.895 64.6187 93.9539 64.7017 93.9914 64.7948C94.2087 65.3113 93.8418 66.1665 93.6838 66.4882C94.7224 66.6886 94.9143 67.668 94.9425 68.1534C95.0353 68.0875 95.1412 68.0423 95.253 68.0208C95.4226 68.0043 95.5937 68.0265 95.7536 68.0857C95.9134 68.1448 96.0578 68.2394 96.1759 68.3623C96.4563 68.6096 96.6709 68.9226 96.8005 69.2734C96.93 69.6241 96.9705 70.0015 96.9181 70.3718C97.3754 70.431 98.9897 70.7499 98.9869 72.3982C98.9855 72.4244 98.9743 72.4491 98.9554 72.4675C98.9366 72.4858 98.9116 72.4963 98.8853 72.497Z" fill="#FAFAFA"/>
<path d="M98.8848 69.6796C98.8585 69.6797 98.8331 69.6699 98.8138 69.6521C98.7944 69.6343 98.7825 69.6099 98.7804 69.5837C98.7352 68.9853 98.388 68.212 97.9506 68.0201C97.8639 67.9814 97.7678 67.9688 97.6741 67.9838C97.5803 67.9988 97.493 68.0409 97.4228 68.1048C97.4055 68.1158 97.3855 68.1217 97.365 68.1217C97.3444 68.1217 97.3244 68.1158 97.3071 68.1048C97.2892 68.0949 97.2746 68.0801 97.2651 68.062C97.2555 68.0439 97.2515 68.0235 97.2535 68.0032C97.2535 68.0032 97.3466 66.9448 96.8696 66.5073C96.7661 66.4209 96.6435 66.3605 96.512 66.331C96.3804 66.3016 96.2437 66.304 96.1132 66.338C96.0953 66.3418 96.0766 66.3407 96.0592 66.3347C96.0418 66.3288 96.0263 66.3182 96.0145 66.3041C96.0024 66.2899 95.9942 66.2728 95.9907 66.2545C95.9873 66.2362 95.9887 66.2173 95.9947 66.1997C96.0907 65.9372 96.2769 65.2006 96.0258 64.9381C95.9072 64.8168 95.6899 64.8055 95.3766 64.9071C95.3552 64.9141 95.3321 64.9141 95.3108 64.907C95.2894 64.8999 95.2709 64.886 95.2581 64.8676C95.2452 64.8494 95.2383 64.8277 95.2383 64.8055C95.2383 64.7832 95.2452 64.7615 95.2581 64.7434C95.4331 64.5232 95.8649 63.8797 95.7576 63.5721C95.7399 63.5296 95.7113 63.4926 95.6746 63.4648C95.6379 63.437 95.5945 63.4195 95.5488 63.4141C95.5354 63.4108 95.5228 63.4048 95.5118 63.3967C95.5007 63.3885 95.4914 63.3782 95.4843 63.3664C95.4772 63.3546 95.4725 63.3415 95.4705 63.3279C95.4685 63.3143 95.4692 63.3004 95.4726 63.2871C95.4752 63.2736 95.4806 63.2608 95.4884 63.2496C95.4962 63.2383 95.5062 63.2288 95.5179 63.2216C95.5296 63.2145 95.5426 63.2098 95.5562 63.2079C95.5698 63.2061 95.5836 63.2071 95.5968 63.2109C95.676 63.2224 95.7508 63.2545 95.8137 63.3041C95.8766 63.3536 95.9254 63.4188 95.9552 63.4931C96.0709 63.8289 95.7887 64.3398 95.5911 64.622C95.6929 64.5978 95.799 64.5988 95.9003 64.6248C96.0016 64.6509 96.0951 64.7013 96.1725 64.7716C96.483 65.0933 96.3334 65.7735 96.2403 66.0924C96.3779 66.076 96.5175 66.0889 96.6498 66.1302C96.7821 66.1716 96.9041 66.2405 97.0079 66.3323C97.4285 66.7162 97.4736 67.4613 97.468 67.8028C97.5563 67.7613 97.6526 67.7397 97.7502 67.7397C97.8478 67.7397 97.9441 67.7613 98.0324 67.8028C98.5658 68.037 98.9356 68.8696 98.9892 69.5442C98.9904 69.5577 98.9888 69.5714 98.9845 69.5843C98.9803 69.5973 98.9735 69.6093 98.9646 69.6195C98.9556 69.6298 98.9447 69.6382 98.9324 69.6441C98.9202 69.6501 98.9068 69.6535 98.8932 69.6542L98.8848 69.6796Z" fill="#FAFAFA"/>
<path d="M104.965 56.8381C104.952 56.6882 104.898 56.5447 104.811 56.4221C104.724 56.2996 104.605 56.2026 104.468 56.141L87.6443 46.4265C87.2703 46.2373 86.857 46.1387 86.4378 46.1387C86.0186 46.1387 85.6053 46.2373 85.2312 46.4265L59.3561 61.3679C59.2188 61.4295 59.1005 61.5266 59.0132 61.6491C58.9259 61.7716 58.8728 61.9152 58.8594 62.065V63.3718C58.8728 63.5216 58.9259 63.6652 59.0132 63.7877C59.1005 63.9102 59.2188 64.0073 59.3561 64.0689L76.18 73.7805C76.5537 73.9711 76.9671 74.0704 77.3866 74.0704C77.806 74.0704 78.2195 73.9711 78.5931 73.7805L104.468 58.8419C104.605 58.7803 104.724 58.6833 104.811 58.5608C104.898 58.4382 104.952 58.2947 104.965 58.1448V56.8381Z" fill="#37474F"/>
<path d="M76.1799 72.4738L59.356 62.7621C58.6899 62.3755 58.6899 61.7518 59.356 61.3679L85.2311 46.4265C85.6052 46.2373 86.0185 46.1387 86.4377 46.1387C86.8568 46.1387 87.2702 46.2373 87.6442 46.4265L104.468 56.141C105.137 56.5276 105.137 57.1485 104.468 57.5352L78.593 72.4738C78.2193 72.6643 77.8059 72.7637 77.3864 72.7637C76.967 72.7637 76.5536 72.6643 76.1799 72.4738Z" fill="#455A64"/>
<path opacity="0.1" d="M101.149 60.7559L93.2295 70.5578L79.6513 78.3982L79.6484 73.1713L101.149 60.7559Z" fill="black"/>
<path opacity="0.1" d="M100.017 75.7822L93.2296 84.9294L79.6514 92.7727V87.5429L100.017 75.7822Z" fill="black"/>
<path opacity="0.1" d="M100.017 90.1562L93.2296 99.3034L79.6514 107.147V101.917L100.017 90.1562Z" fill="black"/>
<path d="M68.8711 118.705L48.0536 130.725L24.6113 117.158L45.4288 105.141L68.8711 118.705Z" fill="#00977C"/>
<path opacity="0.5" d="M68.8711 118.705L48.0536 130.725L24.6113 117.158L45.4288 105.141L68.8711 118.705Z" fill="black"/>
<path d="M45.4288 88.8467V105.14L24.6113 117.157V100.867L45.4288 88.8467Z" fill="#00977C"/>
<path opacity="0.23" d="M45.4288 88.8467V105.14L24.6113 117.157V100.867L45.4288 88.8467Z" fill="black"/>
<path d="M48.0536 114.432V130.726L24.6113 117.159V100.868L48.0536 114.432Z" fill="#00977C"/>
<path opacity="0.38" d="M48.0536 114.432V130.726L24.6113 117.159V100.868L48.0536 114.432Z" fill="black"/>
<path d="M68.872 102.411V118.704L45.4297 105.14V88.8467L68.872 102.411Z" fill="#00977C"/>
<path opacity="0.4" d="M68.872 102.411V118.704L45.4297 105.14V88.8467L68.872 102.411Z" fill="black"/>
<path d="M68.8712 118.705V102.412L48.0537 114.432V130.726L68.8712 118.705Z" fill="#00977C"/>
<path opacity="0.23" d="M68.8712 118.705V102.412L48.0537 114.432V130.726L68.8712 118.705Z" fill="black"/>
<path d="M45.4297 88.8473L45.4579 79.8271L68.8437 93.4082L68.872 102.411L45.4297 88.8473Z" fill="#00977C"/>
<path opacity="0.2" d="M45.4297 88.8473L45.4579 79.8271L68.8437 93.4082L68.872 102.411L45.4297 88.8473Z" fill="black"/>
<path d="M48.0537 114.432L50.0068 106.541L70.6352 94.6309L68.8712 102.412L48.0537 114.432Z" fill="#00977C"/>
<path opacity="0.3" d="M48.0537 114.432L50.0068 106.541L70.6352 94.6309L68.8712 102.412L48.0537 114.432Z" fill="black"/>
<path d="M24.6116 100.867L22.1279 92.6825L42.9454 80.665L45.4291 88.847L24.6116 100.867Z" fill="#00977C"/>
<path opacity="0.1" d="M24.6116 100.867L22.1279 92.6825L42.9454 80.665L45.4291 88.847L24.6116 100.867Z" fill="black"/>
<path d="M24.6115 100.868L19.7119 94.1025L43.157 107.667L48.0538 114.432L24.6115 100.868Z" fill="#00977C"/>
<path opacity="0.45" d="M24.6115 100.868L19.7119 94.1025L43.157 107.667L48.0538 114.432L24.6115 100.868Z" fill="black"/>
<g opacity="0.7">
<path d="M54.1855 125.878C54.1515 125.878 54.1189 125.865 54.0947 125.841C54.0704 125.817 54.0564 125.785 54.0557 125.751V122.884C54.0564 122.85 54.0703 122.817 54.0945 122.793C54.1187 122.769 54.1513 122.755 54.1855 122.754C54.2194 122.755 54.2517 122.769 54.2755 122.793C54.2992 122.817 54.3125 122.85 54.3125 122.884V125.751C54.3125 125.785 54.2991 125.817 54.2753 125.841C54.2515 125.865 54.2192 125.878 54.1855 125.878Z" fill="white"/>
<path d="M53.8095 123.876C53.7927 123.879 53.7755 123.879 53.7587 123.876C53.7279 123.862 53.7037 123.837 53.6911 123.805C53.6785 123.774 53.6785 123.739 53.691 123.707L54.1482 122.654L54.6562 123.241C54.6744 123.268 54.6822 123.3 54.6783 123.331C54.6743 123.363 54.6587 123.392 54.6346 123.413C54.6105 123.434 54.5795 123.445 54.5476 123.445C54.5156 123.445 54.485 123.432 54.4615 123.411L54.2216 123.128L53.9393 123.806C53.9271 123.829 53.9083 123.848 53.8852 123.861C53.862 123.873 53.8357 123.879 53.8095 123.876Z" fill="white"/>
<path d="M55.3672 125.204C55.3333 125.203 55.301 125.189 55.2773 125.165C55.2535 125.14 55.2402 125.108 55.2402 125.074V122.209C55.2402 122.175 55.2536 122.143 55.2774 122.119C55.3013 122.095 55.3336 122.082 55.3672 122.082C55.4009 122.082 55.4332 122.095 55.457 122.119C55.4809 122.143 55.4942 122.175 55.4942 122.209V125.071C55.4946 125.088 55.4916 125.105 55.4855 125.121C55.4793 125.137 55.47 125.151 55.4582 125.164C55.4464 125.176 55.4323 125.186 55.4167 125.193C55.4011 125.199 55.3843 125.203 55.3672 125.204Z" fill="white"/>
<path d="M54.9934 123.203C54.9766 123.206 54.9595 123.206 54.9426 123.203C54.9271 123.196 54.9132 123.187 54.9015 123.174C54.8898 123.162 54.8807 123.148 54.8746 123.132C54.8686 123.116 54.8657 123.099 54.8663 123.082C54.8668 123.066 54.8707 123.049 54.8777 123.034L55.3321 121.967L55.8401 122.551C55.8636 122.575 55.8767 122.608 55.8767 122.641C55.8767 122.675 55.8636 122.707 55.8401 122.732C55.8283 122.744 55.8143 122.753 55.7988 122.76C55.7833 122.766 55.7666 122.769 55.7498 122.769C55.733 122.769 55.7164 122.766 55.7009 122.76C55.6854 122.753 55.6713 122.744 55.6595 122.732L55.4196 122.449L55.1374 123.127C55.1257 123.154 55.105 123.176 55.0788 123.19C55.0527 123.204 55.0225 123.209 54.9934 123.203Z" fill="white"/>
</g>
<g opacity="0.7">
<path d="M50.7718 127.823C50.7236 127.823 50.676 127.812 50.6335 127.789C50.5825 127.756 50.5412 127.71 50.5139 127.656C50.4865 127.602 50.4743 127.542 50.4783 127.481V127.128C50.479 127.094 50.493 127.062 50.5173 127.038C50.5416 127.015 50.5742 127.001 50.6081 127.001C50.6418 127.001 50.6741 127.015 50.6979 127.039C50.7217 127.062 50.7351 127.095 50.7351 127.128V127.481C50.7351 127.532 50.7351 127.56 50.7605 127.566C50.7859 127.572 50.8 127.566 50.8424 127.543C50.9218 127.47 50.9844 127.38 51.0258 127.28C51.0672 127.18 51.0865 127.073 51.0823 126.965V125.497C51.0823 125.463 51.0956 125.431 51.1195 125.407C51.1433 125.383 51.1756 125.37 51.2093 125.37C51.243 125.37 51.2753 125.383 51.2991 125.407C51.3229 125.431 51.3363 125.463 51.3363 125.497V126.965C51.3426 127.117 51.3129 127.269 51.2497 127.408C51.1864 127.546 51.0913 127.668 50.9722 127.763C50.9119 127.801 50.8427 127.821 50.7718 127.823Z" fill="white"/>
<path d="M49.4258 126.64V126.42C49.4593 125.855 49.6246 125.305 49.9083 124.815C50.192 124.325 50.5864 123.908 51.0599 123.598C51.5228 123.332 51.9631 123.293 52.3017 123.491C52.4824 123.614 52.6264 123.785 52.7188 123.983C52.8111 124.182 52.8484 124.401 52.8267 124.619V124.693L49.4258 126.64ZM51.8276 123.609C51.6016 123.619 51.382 123.687 51.1897 123.807C50.784 124.074 50.4404 124.425 50.1823 124.836C49.9242 125.248 49.7576 125.71 49.6939 126.191L52.5642 124.532C52.5765 124.368 52.5463 124.205 52.4765 124.056C52.4068 123.908 52.2999 123.78 52.1663 123.685C52.062 123.631 51.9452 123.604 51.8276 123.609Z" fill="white"/>
</g>
<path opacity="0.7" d="M19.7119 94.1025L43.157 107.667L48.0538 114.432L42.8974 107.907L19.7119 94.1025Z" fill="white"/>
<path opacity="0.7" d="M68.8712 102.412L48.0537 114.432V130.726L48.4432 114.76L68.8712 102.412Z" fill="white"/>
<path d="M38.3205 95.8953C40.4683 95.5849 42.4298 94.2019 43.6829 92.4634C44.2673 91.6511 44.6978 90.7385 44.953 89.7709C45.224 88.8661 45.2686 87.9085 45.0828 86.9824C44.6962 85.433 43.2624 84.5157 41.7468 84.3238C40.9778 84.2226 40.1958 84.2989 39.4607 84.5468C38.6986 84.8083 38.0374 85.3017 37.5698 85.9579C37.2766 86.3075 37.0921 86.7353 37.0392 87.1884C37.0347 87.366 37.0973 87.5386 37.2144 87.672C37.3316 87.8054 37.4948 87.8897 37.6714 87.9081C38.1258 87.9464 38.58 87.8312 38.9612 87.5808C39.426 87.3201 39.8354 86.9711 40.1663 86.5534C40.8762 85.6773 41.4074 84.6705 41.7299 83.59C41.9562 82.6628 41.9562 81.6948 41.7299 80.7677C41.558 79.7978 41.1147 78.8965 40.4514 78.1683C39.6909 77.4767 38.726 77.0517 37.7024 76.9575C36.6838 76.8176 35.6466 76.9141 34.6712 77.2397C34.2428 77.3696 33.846 77.5868 33.5056 77.8776C33.2629 78.1034 32.9863 78.4759 33.0851 78.8428C33.1839 79.2097 33.7201 79.3734 34.0842 79.3254C34.623 79.2245 35.1166 78.9569 35.4954 78.5606C35.9175 78.1451 36.276 77.6696 36.5594 77.1494C36.7699 76.7756 36.8798 76.3536 36.8783 75.9245C36.8416 74.1352 34.8632 72.978 33.3137 72.6506C32.8954 72.5632 32.467 72.5348 32.0408 72.566C31.8969 72.566 31.9844 72.803 32.1001 72.7946C32.9339 72.7567 33.7625 72.9439 34.4991 73.3365C35.2258 73.6705 35.8361 74.2139 36.2518 74.8972C36.437 75.2341 36.5284 75.6145 36.5165 75.9987C36.5046 76.383 36.3898 76.757 36.184 77.0817C35.9077 77.563 35.5636 78.0021 35.1623 78.3856C34.8265 78.6904 34.3156 79.0432 33.8443 79.0093C33.7665 79.0092 33.6903 78.9871 33.6244 78.9457C33.5585 78.9043 33.5056 78.8451 33.4718 78.7751C33.4575 78.6824 33.4652 78.5877 33.4941 78.4985C33.523 78.4093 33.5724 78.3281 33.6383 78.2614C33.8875 77.993 34.1957 77.7863 34.5386 77.6574C35.3853 77.3055 36.3022 77.1548 37.217 77.2172C38.1598 77.2342 39.0767 77.5287 39.853 78.0639C40.5294 78.6254 41.0097 79.3875 41.2247 80.2399C41.497 81.1058 41.5817 82.0199 41.4731 82.9211C41.3055 83.828 40.957 84.6918 40.4486 85.4612C39.9264 86.3248 39.2716 87.1546 38.2895 87.4933C38.0468 87.5808 37.5387 87.7078 37.4428 87.355C37.3468 87.0022 37.6234 86.5675 37.8012 86.2938C38.1944 85.675 38.7676 85.1914 39.4438 84.908C40.0963 84.6465 40.8007 84.5402 41.5013 84.5976C42.8306 84.6963 44.1797 85.3906 44.6425 86.7115C44.8747 87.5009 44.9 88.3367 44.7159 89.1387C44.5499 90.0177 44.2339 90.8617 43.7817 91.6336C42.8092 93.2738 41.3362 94.5588 39.5793 95.2998C39.1616 95.4805 38.7326 95.6329 38.2951 95.774C38.25 95.7909 38.2697 95.9038 38.3205 95.8953Z" fill="#E0E0E0"/>
<path d="M29.3488 71.3908C28.2199 71.3089 26.6648 72.198 27.2179 72.8471C27.7711 73.4962 29.2387 72.4463 29.2387 72.4463C29.2387 72.4463 29.1004 73.7587 29.5802 73.9083C30.06 74.0579 30.7092 72.8048 30.2294 72.0032C30.4607 72.0944 30.7114 72.1257 30.9581 72.0941C31.2048 72.0626 31.4396 71.9692 31.6405 71.8226C32.3235 71.3202 31.601 70.8461 30.6386 70.9307C30.6386 70.9307 31.3272 68.6729 29.9358 69.1047C29.2387 69.3164 28.9932 70.132 29.3488 71.3908Z" fill="#00977C"/>
<path opacity="0.65" d="M29.3488 71.3908C28.2199 71.3089 26.6648 72.198 27.2179 72.8471C27.7711 73.4962 29.2387 72.4463 29.2387 72.4463C29.2387 72.4463 29.1004 73.7587 29.5802 73.9083C30.06 74.0579 30.7092 72.8048 30.2294 72.0032C30.4607 72.0944 30.7114 72.1257 30.9581 72.0941C31.2048 72.0626 31.4396 71.9692 31.6405 71.8226C32.3235 71.3202 31.601 70.8461 30.6386 70.9307C30.6386 70.9307 31.3272 68.6729 29.9358 69.1047C29.2387 69.3164 28.9932 70.132 29.3488 71.3908Z" fill="white"/>
<path d="M30.3984 71.872C30.3359 71.8108 30.27 71.7533 30.2008 71.6998C30.102 71.6236 29.9976 71.5502 29.8988 71.4768C29.8027 71.4069 29.7018 71.3437 29.5969 71.2877C29.5365 71.2542 29.4743 71.2241 29.4106 71.1974C29.3226 71.1561 29.2248 71.1405 29.1283 71.1523C29.1031 71.153 29.0784 71.1605 29.0571 71.1739C29.0357 71.1874 29.0183 71.2064 29.0068 71.2289C28.9952 71.2514 28.9899 71.2766 28.9915 71.3019C28.993 71.3271 29.0013 71.3515 29.0155 71.3724C29.093 71.4565 29.1899 71.5204 29.2977 71.5587L29.4501 71.6405C29.5545 71.7026 29.6477 71.7732 29.7323 71.8437C29.817 71.9143 29.9299 71.982 30.0146 72.0526C30.1601 72.1707 30.3229 72.2658 30.4972 72.3348C30.505 72.339 30.5137 72.3412 30.5226 72.3412C30.5314 72.3412 30.5402 72.339 30.548 72.3348C30.6919 72.2219 30.4802 71.9538 30.3984 71.872Z" fill="#455A64"/>
<path d="M120.38 40.3429C119.146 42.0024 117.495 51.127 116.872 54.0538C113.871 53.9663 109.858 53.8251 108.34 53.6671C106.646 53.4893 103.031 53.1421 101.256 53.3849C96.8499 53.9493 97.0221 56.845 97.1293 57.6014C97.2451 58.4651 97.8631 58.8602 100.234 58.3211C100.764 58.2045 101.305 58.1412 101.848 58.132C102.077 58.132 102.56 58.0163 102.74 58.2111C103.022 58.4933 102.207 58.9674 102.004 59.0973C101.69 59.3005 101.363 59.5573 101.298 59.9242C101.279 59.9913 101.28 60.0623 101.301 60.1288C101.321 60.1954 101.36 60.2546 101.414 60.2996C101.529 60.3465 101.657 60.3465 101.772 60.2996C102.854 60.0428 103.898 59.6452 104.877 59.117C105.246 58.8945 105.634 58.7056 106.037 58.5525C106.649 58.355 107.281 58.4707 107.897 58.4707C109.22 58.4707 116.217 59.165 119.327 59.4811C121.48 59.6984 121.709 57.5732 122.451 55.4198C123.363 52.7498 125.522 38.7087 125.522 38.7087C123.343 38.3926 121.847 38.3729 120.38 40.3429Z" fill="#FFA8A7"/>
<path d="M125.556 38.4892C124.515 38.2973 122.169 38.0066 120.894 39.4318C119.618 40.8571 119.316 42.3529 118.754 44.512C118.193 46.6711 117.196 50.5377 117.196 50.5377C117.196 50.5377 118.842 52.9 123.992 52.2311L125.556 38.4892Z" fill="#37474F"/>
<path d="M138.491 113.116L134.87 113.119L133.828 105.259L138.397 105.078L138.491 113.116Z" fill="#FFA8A7"/>
<path d="M126.468 109.19C125.852 110.26 123.874 110.173 122.234 109.794L122.045 102.067L126.885 101.875L126.468 109.19Z" fill="#FFA8A7"/>
<path d="M138.245 63.4491C138.375 66.7936 137.932 86.5696 137.932 86.5696C138.053 87.5292 139.047 89.2029 139.253 92.6659C139.555 97.6952 138.53 108.42 138.53 108.42C138.53 108.42 136.456 109.504 134.221 108.674C134.221 108.674 131.946 93.1513 131.116 88.1896C130.399 83.8715 129.479 72.2886 129.479 72.2886L127.693 87.1341C128.02 88.8913 128.155 90.679 128.096 92.4655C128.023 94.7741 126.708 105.984 126.708 105.984C125.207 106.475 123.595 106.514 122.073 106.095C122.073 106.095 120.995 88.6977 120.871 86.5894C120.73 84.1848 120.826 62.958 120.826 62.958L138.245 63.4491Z" fill="#00977C"/>
<path opacity="0.2" d="M129.485 72.294C129.485 72.294 126.321 71.3965 124.165 69.4717C124.165 69.4717 125.175 71.1961 128.037 72.7258L127.874 85.6831L129.485 72.294Z" fill="black"/>
<path d="M130.743 119.673C130.628 119.791 130.695 120.573 130.837 120.776C130.978 120.979 131.841 121.668 133.34 121.719C134.771 121.764 136.035 121.521 136.851 120.957C137.667 120.392 138.05 119.791 138.098 118.981C138.146 118.171 138.025 117.384 138.381 116.743C138.716 116.153 139.261 115.479 139.371 115.16C139.617 114.468 139.318 113.506 139.318 113.506L130.743 119.673Z" fill="#263238"/>
<path d="M134.356 112.428C134.358 112.737 134.315 113.044 134.227 113.34C133.92 114.302 133.46 115.209 132.863 116.024C132.451 116.552 131.932 116.995 131.495 117.505C131.027 117.99 130.739 118.621 130.682 119.292C130.665 120.421 131.895 120.745 132.835 120.875C133.854 121.01 134.89 120.913 135.866 120.593C136.381 120.438 136.839 120.138 137.187 119.728C137.534 119.318 137.756 118.817 137.825 118.284C137.865 117.971 137.825 117.655 137.859 117.342C137.955 116.622 138.227 115.938 138.652 115.349C138.898 115.009 139.108 114.644 139.279 114.26C139.541 113.554 139.279 112.784 139.064 112.104C138.881 111.514 138.672 110.845 138.466 110.91C138.466 111.223 138.466 111.251 138.265 111.474C137.983 111.756 137.997 112.149 137.701 112.394C137.787 112.134 137.845 111.865 137.876 111.593C137.89 111.482 137.863 111.369 137.8 111.277C137.698 111.194 137.578 111.136 137.45 111.107C137.003 110.975 136.545 110.889 136.081 110.85C135.639 110.792 135.191 110.807 134.754 110.893C134.625 110.923 134.51 110.995 134.427 111.099C134.354 111.214 134.318 111.349 134.323 111.485C134.323 111.669 134.354 112.129 134.356 112.428Z" fill="#455A64"/>
<path d="M133.284 115.4C133.69 115.072 134.621 115.03 135.135 115.067C135.656 115.09 136.162 115.245 136.606 115.518C136.671 115.562 136.75 115.581 136.828 115.571C136.906 115.562 136.978 115.525 137.032 115.467C137.063 115.434 137.087 115.395 137.101 115.352C137.116 115.309 137.121 115.264 137.116 115.218C137.111 115.173 137.096 115.13 137.073 115.091C137.05 115.052 137.018 115.019 136.981 114.993C136.49 114.661 135.916 114.473 135.324 114.451C134.065 114.415 133.707 114.643 133.707 114.643C133.707 114.643 133.145 115.033 133.284 115.4Z" fill="#F5F5F5"/>
<path d="M132.368 116.586C132.879 116.255 133.909 116.258 134.42 116.303C134.932 116.336 135.426 116.502 135.854 116.786C135.919 116.829 135.997 116.848 136.075 116.839C136.152 116.83 136.224 116.793 136.277 116.735C136.309 116.703 136.333 116.664 136.348 116.621C136.363 116.578 136.369 116.532 136.364 116.487C136.359 116.442 136.345 116.398 136.322 116.359C136.298 116.32 136.267 116.286 136.229 116.261C135.73 115.911 135.144 115.708 134.536 115.674C133.274 115.634 132.958 115.903 132.958 115.903C132.815 115.965 132.687 116.058 132.585 116.177C132.483 116.295 132.409 116.435 132.368 116.586Z" fill="#F5F5F5"/>
<path d="M135.775 113.232C135.242 113.159 134.7 113.225 134.2 113.424C133.985 113.556 133.853 113.912 133.997 113.988C134.434 113.792 134.913 113.707 135.391 113.74C135.863 113.768 136.327 113.876 136.763 114.062C136.873 114.104 137.002 114.166 137.115 114.222C137.152 114.241 137.191 114.252 137.232 114.255C137.272 114.257 137.313 114.252 137.351 114.238C137.389 114.225 137.424 114.204 137.454 114.176C137.484 114.149 137.508 114.116 137.525 114.079C137.551 114.014 137.553 113.943 137.531 113.877C137.508 113.811 137.461 113.756 137.4 113.723C136.9 113.444 136.346 113.277 135.775 113.232Z" fill="#F5F5F5"/>
<path d="M113.959 114.011C113.831 114.334 113.831 114.693 113.959 115.016C114.084 115.318 115.579 116.255 117.657 116.215C119.201 116.178 120.708 115.727 122.02 114.911C122.836 114.426 123.663 114.366 124.69 114.347C125.717 114.327 127.089 113.89 127.337 113.421C127.586 112.952 127.366 112.114 127.366 112.114L113.959 114.011Z" fill="#263238"/>
<path d="M122.623 107.942L122.462 107.9C122.371 107.872 122.275 107.864 122.18 107.875C122.078 107.899 121.987 107.954 121.918 108.033C121.704 108.283 121.515 108.553 121.353 108.84C120.887 109.526 119.942 110.07 118.926 110.559C118.232 110.889 117.557 111.14 116.843 111.42C116.129 111.699 115.15 111.857 114.585 112.207C113.738 112.718 113.578 114.087 114.475 114.674C115.254 115.182 117.331 115.789 119.555 115.269C120.772 114.987 122.166 113.768 123.746 113.72C124.754 113.689 126.662 113.497 127.342 112.766C127.599 112.441 127.342 111.355 127.113 110.418C126.876 109.396 126.984 107.878 126.526 107.878L126.498 108.388C126.456 108.541 126.097 108.69 125.985 108.809L125.578 109.238C125.412 109.437 125.208 109.601 124.98 109.723C124.576 109.904 124.105 109.797 123.673 109.684C123.656 109.684 123.89 108.899 123.916 108.823C123.941 108.763 123.949 108.698 123.938 108.634C123.917 108.571 123.874 108.518 123.817 108.484C123.461 108.223 123.054 108.039 122.623 107.942Z" fill="#455A64"/>
<path d="M119.891 110.057C119.97 109.922 120.081 109.81 120.215 109.729C120.348 109.649 120.5 109.603 120.655 109.597C121.116 109.535 121.903 109.907 122.386 110.345C122.431 110.386 122.466 110.437 122.487 110.495C122.508 110.552 122.515 110.614 122.506 110.675C122.498 110.735 122.475 110.793 122.439 110.843C122.403 110.892 122.356 110.933 122.301 110.96C122.232 110.994 122.154 111.006 122.078 110.994C122.003 110.981 121.932 110.946 121.878 110.892C121.349 110.366 120.636 110.066 119.891 110.057Z" fill="#F5F5F5"/>
<path d="M118.44 110.782C118.546 110.647 118.683 110.539 118.839 110.467C118.995 110.396 119.166 110.364 119.338 110.373C119.338 110.373 120.529 110.463 121.232 111.185C121.275 111.225 121.308 111.274 121.328 111.33C121.348 111.385 121.355 111.444 121.347 111.502C121.339 111.561 121.318 111.616 121.284 111.664C121.25 111.712 121.205 111.751 121.153 111.778C121.086 111.81 121.011 111.822 120.938 111.81C120.865 111.798 120.797 111.765 120.743 111.713C120.454 111.395 120.097 111.146 119.698 110.985C119.3 110.823 118.87 110.754 118.44 110.782Z" fill="#F5F5F5"/>
<path d="M116.847 111.42C116.967 111.296 117.112 111.199 117.273 111.136C117.433 111.073 117.606 111.046 117.778 111.056C118.453 111.13 119.087 111.416 119.59 111.871C119.633 111.911 119.666 111.961 119.687 112.016C119.707 112.072 119.713 112.131 119.705 112.19C119.698 112.248 119.676 112.304 119.642 112.352C119.608 112.4 119.563 112.44 119.511 112.467C119.444 112.5 119.369 112.511 119.295 112.499C119.222 112.487 119.154 112.452 119.102 112.399C118.828 112.072 118.481 111.813 118.09 111.643C117.698 111.473 117.273 111.397 116.847 111.42Z" fill="#F5F5F5"/>
<path d="M131.589 38.5515C132.922 38.7039 134.496 38.7858 135.769 38.9523C137.409 39.1668 138.688 40.863 139.088 43.4878C139.529 46.3779 137.677 54.6642 137.677 54.6642L138.267 64.4351C135.865 66.2047 125.637 67.1333 120.54 63.4529C120.54 63.4529 120.659 46.8238 121.057 44.2611C121.604 40.7473 122.468 38.5656 126.419 38.3145L131.589 38.5515Z" fill="#455A64"/>
<path d="M140.698 59.7182C140.266 60.4407 139.831 61.1632 139.385 61.8773C139.222 62.1426 139.055 62.4051 138.883 62.6647C138.79 62.7918 138.68 62.9066 138.558 63.0062C138.344 63.153 137.898 63.0598 137.638 63.0683C136.363 63.1116 135.091 63.2057 133.822 63.3505C133.716 63.3472 133.611 63.3672 133.513 63.4092C133.416 63.4511 133.329 63.514 133.258 63.5933C133.206 63.7025 133.195 63.8271 133.229 63.9435C133.262 64.0599 133.337 64.1602 133.439 64.2255C133.646 64.3502 133.882 64.4201 134.124 64.4287L135.225 64.5585C135.382 64.5638 135.535 64.6126 135.665 64.6996C136.066 65.0242 135.301 65.4137 135.073 65.5717C134.613 65.8911 134.122 66.1634 133.608 66.3845C131.313 67.3498 131.034 68.0497 131.457 68.8456C131.824 69.5371 133.41 72.0518 137.441 69.8871C139.063 69.015 141.533 66.2604 142.659 64.9282C144.279 63.0062 147.02 58.7191 147.02 58.7191C148.578 56.5798 148.778 55.702 148.815 54.813C148.851 53.924 144.017 47.0854 142.374 44.6836C140.731 42.2818 139.95 39.3607 135.77 38.96C135.77 38.96 134.178 44.0063 136.814 47.2717L142.902 55.7641C142.902 55.7641 141.29 58.7276 140.698 59.7182Z" fill="#FFA8A7"/>
<path d="M145.114 47.9406C144.333 46.8117 143.517 45.6489 142.73 44.4974C139.413 39.6571 139.693 38.7709 134.912 38.7031C134.488 39.3523 134.237 42.1464 134.875 44.9518C135.408 47.3084 137.415 48.9708 137.415 48.9708L139.808 52.2136C139.808 52.2136 141.273 52.1685 143.029 50.8815C144.043 50.1713 144.779 49.1322 145.114 47.9406Z" fill="#37474F"/>
<path d="M134.742 25.8303C134.502 25.4722 134.169 25.1859 133.779 25.002C133.389 24.8181 132.956 24.7435 132.527 24.786L132.278 30.8456L131.872 33.0837L131.943 35.5758C132.179 35.5425 132.402 35.4499 132.593 35.3068C132.783 35.1637 132.934 34.9746 133.032 34.7573C133.405 34.0405 134.443 30.5746 134.443 30.5746C135.375 27.7269 135.177 26.4399 134.742 25.8303Z" fill="#263238"/>
<path d="M131.996 30.8736C132.1 30.5053 132.302 30.1719 132.58 29.9083C132.927 29.5358 134.31 29.1322 134.939 30.3063C135.569 31.4804 134.507 33.0298 133.689 33.504C132.642 34.1136 132.027 33.2838 132.027 33.2838L132.052 38.8636C131.564 39.9925 129.36 40.9973 128.047 40.8392C127.003 40.7066 126.04 39.8853 126.975 38.6886L126.898 37.0968C126.898 37.0968 125.501 37.379 124.81 37.3085C123.661 37.19 122.896 36.3235 122.49 35.1043C121.835 33.1456 121.545 31.5538 121.821 27.6251C122.126 23.321 127.102 23.0303 129.876 24.5882C132.65 26.1462 131.996 30.8736 131.996 30.8736Z" fill="#FFA8A7"/>
<path d="M120.238 23.1547C120.111 22.2149 120.435 21.2073 121.42 20.8743C121.782 20.723 122.178 20.677 122.565 20.7414C122.951 20.8058 123.312 20.9781 123.605 21.2383C123.728 20.9068 123.942 20.6162 124.221 20.3993C124.501 20.1824 124.835 20.0478 125.187 20.0106C125.539 19.9733 125.894 20.035 126.213 20.1885C126.532 20.3421 126.801 20.5815 126.991 20.8799C127.253 20.4825 127.657 20.2007 128.12 20.0925C128.406 20.0287 128.701 20.0228 128.989 20.0751C129.277 20.1275 129.552 20.237 129.797 20.3973C130.198 20.6936 130.669 21.244 130.55 21.958C131.343 21.6391 132.17 21.9044 132.76 22.6043C133.111 23.033 133.31 23.5661 133.325 24.1199C133.345 24.4076 133.304 24.6963 133.203 24.9666C133.09 25.2235 132.859 25.3928 132.791 25.6835C132.693 25.9393 132.642 26.211 132.642 26.485C132.707 26.9592 132.811 27.4333 132.873 27.8962C132.94 28.3572 132.979 28.8219 132.989 29.2876C132.974 29.3972 132.936 29.5022 132.877 29.5957C132.818 29.6892 132.74 29.769 132.647 29.8295C132.384 30.06 132.18 30.3503 132.052 30.6762C131.953 30.8794 131.857 31.3818 131.662 31.5229C131.061 31.9434 130.993 30.5831 130.965 30.3206C130.927 29.7182 130.927 29.1139 130.965 28.5115C130.662 28.5076 130.363 28.4403 130.087 28.3139C129.812 28.1875 129.566 28.0048 129.365 27.7777C129.157 27.5224 129.019 27.2167 128.967 26.8915C128.934 26.7051 128.919 26.5161 128.922 26.327C128.53 26.9761 127.618 27.2414 126.969 27.1737C125.879 27.0749 125.504 26.6092 125.329 26.2677C125.26 26.6043 125.112 26.9197 124.897 27.1878C124.619 27.4493 124.284 27.6426 123.918 27.7523C123.602 27.8365 123.27 27.8331 122.956 27.7426C122.642 27.6521 122.359 27.4779 122.137 27.2386C121.694 27.8736 120.571 27.5914 120.322 27.4136C119.758 27.0044 119.574 26.5161 119.512 25.819C119.45 25.1219 119.732 24.326 120.506 24.0522C120.366 23.7703 120.276 23.4669 120.238 23.1547Z" fill="#263238"/>
<path d="M126.899 37.0889C126.899 37.0889 129.423 36.451 130.286 35.9317C130.797 35.6326 131.205 35.1859 131.457 34.6504C131.348 35.1787 131.134 35.6797 130.828 36.1236C130.218 36.9901 126.928 37.7691 126.928 37.7691L126.899 37.0889Z" fill="#F28F8F"/>
<path d="M127.04 30.6879C127.05 30.7948 127.09 30.8966 127.157 30.9805C127.224 31.0645 127.314 31.1269 127.416 31.1601C127.518 31.1932 127.628 31.1957 127.731 31.1671C127.835 31.1385 127.928 31.0801 127.998 30.9992C128.069 30.9183 128.114 30.8185 128.128 30.7121C128.142 30.6057 128.125 30.4975 128.078 30.4009C128.032 30.3042 127.957 30.2235 127.865 30.1687C127.773 30.1138 127.667 30.0873 127.559 30.0924C127.412 30.104 127.275 30.1728 127.178 30.2842C127.081 30.3955 127.031 30.5405 127.04 30.6879Z" fill="#263238"/>
<path d="M126.196 34.7714C126.209 34.9091 126.262 35.04 126.349 35.1478C126.435 35.2555 126.552 35.3355 126.683 35.3776C126.815 35.4197 126.956 35.4223 127.089 35.3848C127.223 35.3474 127.342 35.2716 127.432 35.167C127.523 35.0624 127.58 34.9335 127.598 34.7964C127.616 34.6592 127.593 34.5199 127.532 34.3956C127.471 34.2714 127.376 34.1677 127.256 34.0976C127.137 34.0274 127 33.9938 126.862 34.0009C126.672 34.0161 126.496 34.1054 126.371 34.2496C126.246 34.3938 126.183 34.5813 126.196 34.7714Z" fill="#F28F8F"/>
<path d="M127.495 28.8073L128.658 29.3718C128.73 29.2124 128.739 29.0313 128.682 28.8658C128.624 28.7004 128.506 28.5633 128.35 28.4827C128.273 28.4459 128.189 28.425 128.104 28.4214C128.018 28.4179 127.933 28.4317 127.853 28.462C127.773 28.4924 127.7 28.5386 127.639 28.598C127.577 28.6573 127.528 28.7285 127.495 28.8073Z" fill="#263238"/>
<path d="M122.437 29.2966L123.427 28.4499C123.376 28.3824 123.311 28.3261 123.237 28.2846C123.162 28.243 123.08 28.2171 122.996 28.2084C122.911 28.1996 122.826 28.2083 122.745 28.2338C122.664 28.2593 122.588 28.3012 122.524 28.3568C122.392 28.4724 122.309 28.6344 122.293 28.8092C122.277 28.9841 122.328 29.1585 122.437 29.2966Z" fill="#263238"/>
<path d="M122.734 30.5769C122.741 30.6813 122.778 30.7813 122.842 30.8645C122.905 30.9476 122.992 31.0101 123.091 31.0441C123.19 31.0781 123.297 31.0821 123.398 31.0556C123.499 31.0291 123.59 30.9732 123.66 30.8951C123.729 30.8169 123.774 30.7199 123.789 30.6163C123.804 30.5127 123.787 30.4071 123.742 30.3128C123.697 30.2185 123.625 30.1396 123.535 30.0862C123.445 30.0327 123.341 30.0071 123.236 30.0124C123.095 30.0219 122.964 30.0863 122.87 30.1919C122.776 30.2975 122.727 30.4357 122.734 30.5769Z" fill="#263238"/>
<path d="M125.353 29.9521L125.336 33.291L123.569 32.7829L125.353 29.9521Z" fill="#F28F8F"/>
<path d="M120.919 34.6214C120.936 34.6178 120.951 34.611 120.965 34.6013C120.978 34.5916 120.99 34.5792 120.998 34.565C121.008 34.5511 121.016 34.5352 121.019 34.5184C121.023 34.5017 121.023 34.4843 121.02 34.4674C121.017 34.4506 121.01 34.4345 121.001 34.4202C120.991 34.4059 120.979 34.3937 120.965 34.3844L119.429 33.3627C119.415 33.3532 119.399 33.3466 119.382 33.3433C119.365 33.34 119.348 33.34 119.331 33.3434C119.314 33.3468 119.299 33.3535 119.284 33.3631C119.27 33.3727 119.258 33.3851 119.249 33.3994C119.239 33.4135 119.232 33.4295 119.228 33.4464C119.225 33.4633 119.225 33.4807 119.228 33.4976C119.232 33.5145 119.238 33.5305 119.248 33.5447C119.258 33.5588 119.271 33.5709 119.285 33.58L120.818 34.6017C120.832 34.6123 120.849 34.6195 120.866 34.6229C120.884 34.6264 120.902 34.6258 120.919 34.6214Z" fill="#E0E0E0"/>
<path d="M120.755 35.2831C120.779 35.2771 120.801 35.2648 120.818 35.2474C120.836 35.23 120.848 35.2082 120.854 35.1843C120.861 35.1502 120.855 35.1146 120.837 35.085C120.818 35.0554 120.789 35.0343 120.755 35.0262L118.96 34.6114C118.943 34.6072 118.926 34.6063 118.909 34.6089C118.892 34.6114 118.876 34.6173 118.861 34.6263C118.846 34.6352 118.833 34.647 118.823 34.6609C118.813 34.6748 118.806 34.6906 118.802 34.7073C118.794 34.7414 118.801 34.777 118.819 34.8066C118.837 34.8362 118.867 34.8573 118.901 34.8654L120.696 35.2831C120.715 35.2859 120.735 35.2859 120.755 35.2831Z" fill="#E0E0E0"/>
<path d="M119.087 36.4756H119.104L120.834 35.8434C120.867 35.8315 120.893 35.807 120.908 35.7755C120.922 35.744 120.924 35.7081 120.912 35.6755C120.9 35.6429 120.876 35.6165 120.844 35.6019C120.813 35.5874 120.777 35.5859 120.744 35.5979L119.014 36.2301C118.998 36.236 118.983 36.2452 118.97 36.257C118.957 36.2687 118.947 36.2829 118.94 36.2987C118.933 36.3145 118.929 36.3315 118.929 36.3488C118.928 36.3661 118.931 36.3833 118.938 36.3994C118.95 36.4278 118.971 36.451 118.999 36.465C119.026 36.4789 119.057 36.4827 119.087 36.4756Z" fill="#E0E0E0"/>
<path d="M104.45 50.0145C104.485 50.0861 104.541 50.1457 104.61 50.1859C104.679 50.226 104.759 50.245 104.839 50.2405C104.919 50.236 104.996 50.2082 105.06 50.1605C105.124 50.1128 105.173 50.0473 105.2 49.9722L106.487 46.797C106.508 46.7461 106.519 46.6916 106.518 46.6365C106.517 46.5815 106.505 46.5272 106.483 46.4768C106.461 46.4265 106.429 46.3811 106.389 46.3434C106.349 46.3057 106.302 46.2765 106.25 46.2576C106.198 46.2386 106.143 46.2302 106.088 46.2329C106.033 46.2357 105.98 46.2494 105.93 46.2735C105.881 46.2975 105.836 46.3312 105.8 46.3727C105.764 46.4142 105.737 46.4625 105.72 46.5148L104.43 49.6899C104.411 49.7425 104.403 49.7984 104.406 49.8543C104.409 49.9101 104.424 49.9646 104.45 50.0145Z" fill="#E0E0E0"/>
<path d="M102.331 49.9982C102.372 50.0814 102.44 50.1481 102.524 50.1875C102.608 50.2269 102.703 50.2366 102.793 50.2149C102.884 50.1932 102.964 50.1416 103.021 50.0683C103.078 49.9951 103.108 49.9047 103.107 49.8119L103.065 45.8606C103.056 45.7583 103.01 45.663 102.934 45.5934C102.858 45.5239 102.76 45.4854 102.657 45.4854C102.554 45.4854 102.455 45.5239 102.38 45.5934C102.304 45.663 102.258 45.7583 102.249 45.8606L102.289 49.8119C102.288 49.8765 102.302 49.9403 102.331 49.9982Z" fill="#E0E0E0"/>
<path d="M98.7381 47.8002L98.7635 47.8481L100.708 50.6705C100.768 50.7598 100.861 50.8218 100.967 50.8429C101.073 50.8641 101.183 50.8427 101.273 50.7834C101.36 50.7217 101.421 50.6285 101.441 50.5233C101.462 50.4181 101.441 50.309 101.383 50.2189L99.4381 47.3966C99.3814 47.309 99.2933 47.2466 99.1919 47.2222C99.0905 47.1978 98.9837 47.2133 98.8934 47.2655C98.8031 47.3177 98.7364 47.4026 98.7069 47.5027C98.6775 47.6027 98.6877 47.7102 98.7353 47.803L98.7381 47.8002Z" fill="#E0E0E0"/>
</svg>
