<svg width="24" height="24" viewBox="0 0 24 24" fill="none" xmlns="http://www.w3.org/2000/svg">
<path d="M12 22C17.5228 22 22 17.5228 22 12C22 6.47715 17.5228 2 12 2C6.47715 2 2 6.47715 2 12C2 17.5228 6.47715 22 12 22Z" fill="#F6F6F7"/>
<path d="M9.9043 16.5836C9.9043 17.0183 10.1542 17.1215 10.46 16.8116L12.148 15.1033L9.9043 14.1836V16.5836Z" fill="#00977C"/>
<path d="M17.4842 7.33984L10.1855 13.8713L14.7045 15.7244C14.7944 15.7651 14.8924 15.7852 14.9911 15.7829C15.0898 15.7807 15.1868 15.7563 15.2747 15.7115C15.3627 15.6667 15.4395 15.6027 15.4994 15.5242C15.5593 15.4457 15.6008 15.3547 15.6207 15.258L17.4677 7.57798C17.4874 7.50023 17.493 7.41957 17.4842 7.33984V7.33984Z" fill="#00977C"/>
<path d="M16.9294 7.13094L6.51609 11.7504C6.11876 11.9264 6.12276 12.2061 6.52516 12.3701L9.78169 13.7064L17.198 7.06641C17.1049 7.06851 17.0133 7.09052 16.9294 7.13094V7.13094Z" fill="#00977C"/>
</svg>
