<svg width="164" height="164" viewBox="0 0 164 164" fill="none" xmlns="http://www.w3.org/2000/svg">
<path d="M160.755 126.859C160.755 124.807 142.324 123.144 119.589 123.144C99.3133 123.144 82.4761 124.467 79.066 126.207H76.7566C37.6521 126.207 5.95312 130.024 5.95312 134.732C5.95312 139.44 37.6521 143.254 76.7566 143.254C115.861 143.254 147.56 139.431 147.56 134.739C147.56 133.088 143.657 131.558 136.907 130.241C150.996 129.649 160.755 128.351 160.755 126.859Z" fill="#E2E8F2"/>
<path opacity="0.4" d="M160.755 126.859C160.755 124.807 142.324 123.144 119.589 123.144C99.3133 123.144 82.4761 124.467 79.066 126.207H76.7566C37.6521 126.207 5.95312 130.024 5.95312 134.732C5.95312 139.44 37.6521 143.254 76.7566 143.254C115.861 143.254 147.56 139.431 147.56 134.739C147.56 133.088 143.657 131.558 136.907 130.241C150.996 129.649 160.755 128.351 160.755 126.859Z" fill="white"/>
<path d="M97.7327 100.893L34.0547 89.2508C33.145 89.0822 32.3391 88.5601 31.8134 87.7989C31.2876 87.0376 31.0847 86.0991 31.249 85.1886L37.8815 48.9248C38.0501 48.0151 38.5722 47.2093 39.3334 46.6835C40.0947 46.1577 41.0332 45.9548 41.9437 46.1192L105.622 57.7681C106.531 57.9367 107.337 58.4588 107.863 59.22C108.389 59.9813 108.592 60.9198 108.427 61.8303L101.795 98.0941C101.625 99.0026 101.102 99.8069 100.341 100.331C99.5799 100.856 98.6422 101.058 97.7327 100.893Z" fill="#212244" stroke="#212244" stroke-width="0.360009" stroke-linecap="round" stroke-linejoin="round"/>
<path d="M96.7256 56.1456C92.1831 58.6586 86.8644 60.7454 81.3039 61.0921C66.0509 62.0465 59.5711 55.1627 42.5876 57.3576C40.3906 57.6412 38.2189 58.0942 36.0919 58.7127L33.248 74.2553C37.8633 70.7839 43.1841 68.3678 48.8351 67.1775C63.8305 64.0346 70.1194 69.5982 83.6674 67.661C91.7027 66.5126 98.8887 61.3625 103.406 57.364L96.7256 56.1456Z" fill="#00CCA7" stroke="#212244" stroke-width="0.360009" stroke-linecap="round" stroke-linejoin="round"/>
<path d="M36.8555 54.5552C37.4535 54.4025 38.0611 54.2371 38.6846 54.1226C53.6831 50.9765 59.972 56.5402 73.5169 54.6061C75.5784 54.3032 77.5994 53.7697 79.5418 53.0156L42.3237 46.2082C41.3096 46.0226 40.2633 46.2474 39.415 46.8333C38.5667 47.4191 37.9859 48.3179 37.8002 49.3319L36.8555 54.5552Z" fill="#00CCA7" stroke="#212244" stroke-width="0.360009" stroke-linecap="round" stroke-linejoin="round"/>
<path d="M49.2109 58.3193L44.2544 57.4123C43.539 57.2814 42.8529 57.7553 42.7219 58.4707L41.8613 63.1737C41.7304 63.8892 42.2042 64.5753 42.9197 64.7062L47.8762 65.6132C48.5916 65.7441 49.2777 65.2703 49.4086 64.5548L50.2693 59.8518C50.4002 59.1364 49.9263 58.4503 49.2109 58.3193Z" fill="white" stroke="#212244" stroke-width="0.360009" stroke-linecap="round" stroke-linejoin="round"/>
<path d="M46.8049 60.4863L45.7348 60.2904C45.384 60.2262 45.0476 60.4586 44.9834 60.8094L44.8019 61.8013C44.7377 62.1521 44.97 62.4886 45.3208 62.5528L46.391 62.7486C46.7418 62.8128 47.0782 62.5804 47.1424 62.2296L47.3239 61.2377C47.3881 60.8869 47.1558 60.5505 46.8049 60.4863Z" fill="white" stroke="#212244" stroke-width="0.360009" stroke-linecap="round" stroke-linejoin="round"/>
<path d="M42.8086 57.9907L45.0353 58.3979C45.1379 58.4163 45.2358 58.4548 45.3234 58.5112C45.411 58.5676 45.4865 58.6408 45.5457 58.7266C45.6048 58.8123 45.6464 58.909 45.668 59.0109C45.6896 59.1128 45.6908 59.218 45.6715 59.3204L45.5061 60.2397" stroke="#212244" stroke-width="0.360009" stroke-linecap="round" stroke-linejoin="round"/>
<path d="M50.3585 59.3715L48.1731 58.9739C48.0708 58.9551 47.9657 58.9566 47.864 58.9784C47.7622 59.0001 47.6657 59.0418 47.58 59.1008C47.4944 59.1599 47.4212 59.2353 47.3647 59.3227C47.3081 59.4101 47.2694 59.5077 47.2506 59.6101L47.082 60.5294" stroke="#212244" stroke-width="0.360009" stroke-linecap="round" stroke-linejoin="round"/>
<path d="M41.7617 63.7135L43.9725 64.1207C44.1791 64.1579 44.3921 64.1119 44.5649 63.9927C44.7377 63.8735 44.8564 63.6908 44.895 63.4845L45.0636 62.5652" stroke="#212244" stroke-width="0.360009" stroke-linecap="round" stroke-linejoin="round"/>
<path d="M49.3056 65.0969L47.1234 64.6961C46.9171 64.6574 46.7344 64.5387 46.6152 64.3659C46.496 64.1931 46.45 63.9802 46.4872 63.7736L46.6526 62.8479" stroke="#212244" stroke-width="0.360009" stroke-linecap="round" stroke-linejoin="round"/>
<path d="M42.2734 61.0001L44.8628 61.4741" stroke="#212244" stroke-width="0.360009" stroke-linecap="round" stroke-linejoin="round"/>
<path d="M47.1367 61.8906L49.7261 62.3646" stroke="#212244" stroke-width="0.360009" stroke-linecap="round" stroke-linejoin="round"/>
<path d="M91.9759 96.1212C92.9123 96.2925 93.8785 96.0847 94.6618 95.5437C95.4451 95.0026 95.9813 94.1725 96.1526 93.236C96.3238 92.2996 96.1161 91.3334 95.575 90.5501C95.0339 89.7669 94.2038 89.2306 93.2674 89.0593L88.4736 88.1814C87.5371 88.0101 86.571 88.2179 85.7877 88.759C85.0044 89.3 84.4681 90.1301 84.2969 91.0666C84.1256 92.003 84.3334 92.9692 84.8744 93.7525C85.4155 94.5358 86.2456 95.072 87.1821 95.2433L91.9759 96.1212Z" fill="white"/>
<path d="M90.9102 52.7295C90.9102 52.7295 103.711 50.63 105.406 50.7286C107.102 50.8272 121.391 54.4854 121.391 54.4854C121.625 55.3385 121.727 56.2225 121.693 57.1066C121.614 58.4617 120.128 60.6439 120.128 60.6439L105.441 54.0146L91.9504 54.6508L90.9102 52.7295Z" fill="white" stroke="#212244" stroke-width="0.360009" stroke-linecap="round" stroke-linejoin="round"/>
<g style="mix-blend-mode:multiply" opacity="0.5">
<path d="M115.632 53.0375L119.529 57.3223L117.083 56.3425L118.845 58.2034L116.984 57.4209L116.103 58.1048L110.718 54.5771L112.089 56.0467C112.089 56.0467 105.526 52.6176 105.233 52.6176C104.941 52.6176 92.4043 54.4785 92.4043 54.4785L93.5081 54.5675L105.44 54.0108L120.137 60.6433C120.137 60.6433 121.622 58.4611 121.702 57.106C121.736 56.222 121.634 55.338 121.399 54.4848C121.399 54.4848 118.766 53.8104 115.632 53.0375Z" fill="#00CCA7"/>
</g>
<path d="M91.9505 54.6443C91.9505 54.6443 88.7854 55.7385 88.2923 55.694C87.9297 55.659 86.196 55.5763 85.3053 55.5349C85.0031 55.5349 84.7041 55.5349 84.6914 55.2168C84.6838 55.074 84.7288 54.9333 84.8179 54.8213C84.907 54.7094 85.034 54.634 85.1749 54.6093L86.336 54.4089C86.336 54.4089 82.3088 53.8299 82.0034 53.3528C81.698 52.8756 83.6194 53.0919 84.1092 53.0092C84.8695 52.8788 88.6836 52.9265 88.6836 52.9265L90.9103 52.7166L91.9505 54.6443Z" fill="white" stroke="#212244" stroke-width="0.360009" stroke-linecap="round" stroke-linejoin="round"/>
<path d="M110.36 43.6031L110.093 48.1743L111.559 48.4065C111.559 48.4065 112.892 53.512 113.318 53.8333C113.745 54.1546 117.107 52.2778 117.107 52.2778L119.181 54.7654L121.955 52.8567L120.457 50.5473C120.457 50.5473 121.411 41.8726 121.093 39.9449C120.775 38.0172 119.607 37.4923 116.957 37.3397C115.331 37.2573 113.706 37.5163 112.186 38.0999C112.186 38.0999 113.016 36.5094 110.198 36.6525C107.379 36.7957 106.317 39.8336 106.819 41.3382C107.322 42.8428 110.36 43.6031 110.36 43.6031Z" fill="white" stroke="#212244" stroke-width="0.360009" stroke-linecap="round" stroke-linejoin="round"/>
<g style="mix-blend-mode:multiply" opacity="0.5">
<path d="M120.456 50.547C120.456 50.547 121.41 41.8723 121.092 39.9446C120.774 38.0169 119.607 37.492 116.957 37.3393C115.331 37.257 113.705 37.5159 112.185 38.0996C112.268 37.9373 112.303 37.7546 112.286 37.573C112.268 37.3915 112.199 37.2188 112.087 37.0753C111.433 37.1867 110.788 37.3484 110.159 37.5588C109.249 37.8769 108.152 38.2364 107.236 38.5291C106.791 39.2982 106.622 40.1957 106.755 41.0739L107.71 42.4036C108.533 42.95 109.442 43.3573 110.398 43.6092L110.344 44.4903C110.899 44.6034 111.463 44.6726 112.029 44.6971C113.009 44.6971 114.476 43.9145 114.476 43.9145C114.476 43.9145 113.595 45.2856 114.673 46.0681C115.267 46.5237 115.981 46.7957 116.728 46.8506C116.728 46.8506 117.415 49.2014 117.415 49.984C117.415 50.5979 114.609 52.8787 113.381 53.8489C113.884 54.1002 117.145 52.2838 117.145 52.2838L119.219 54.7714L121.992 52.8628L120.456 50.547Z" fill="#00CCA7"/>
</g>
<path d="M121.093 39.9449C120.759 38.0045 119.607 37.4923 116.957 37.3397C115.331 37.2573 113.706 37.5163 112.186 38.0999C112.186 38.0999 113.016 36.5094 110.198 36.6525C107.379 36.7957 106.317 39.8336 106.819 41.3382C107.322 42.8428 110.389 43.619 110.389 43.619C110.389 43.619 114.091 43.5363 115.936 42.3116C115.936 42.3116 114.664 44.0135 114.89 45.06C114.918 45.198 114.974 45.329 115.053 45.4451C115.133 45.5613 115.235 45.6603 115.354 45.7362C115.472 45.8121 115.605 45.8635 115.744 45.8872C115.883 45.9109 116.025 45.9066 116.162 45.8744L116.518 47.3758C116.518 47.3758 117.377 47.8689 117.552 47.4363C117.727 47.0036 117.695 44.9296 118.825 45.7344C119.954 46.5392 120.024 48.0216 119.407 48.4319C118.79 48.8423 118.367 48.5178 118.771 49.4308C119.175 50.3437 120.482 50.5632 120.482 50.5632C120.482 50.5632 121.411 41.8726 121.093 39.9449Z" fill="#212244" stroke="#212244" stroke-width="0.360009" stroke-linecap="round" stroke-linejoin="round"/>
<path d="M112.82 39.4863C112.82 39.4863 111.519 38.1852 110.813 39.8394C110.107 41.4935 111.519 42.4415 114.713 41.9675C117.907 41.4935 120.028 40.5487 120.385 40.5487" stroke="white" stroke-width="0.180005" stroke-linecap="round" stroke-linejoin="round"/>
<path d="M115.047 43.2686C115.047 43.2686 117.528 43.7394 120.957 42.7947" stroke="white" stroke-width="0.180005" stroke-linecap="round" stroke-linejoin="round"/>
<path d="M112.65 45.9215C112.691 46.2109 112.618 46.4622 112.481 46.4845C112.344 46.5068 112.201 46.2841 112.163 45.9946C112.125 45.7052 112.192 45.4539 112.328 45.4316C112.465 45.4093 112.605 45.632 112.65 45.9215Z" fill="#212244"/>
<path d="M113.225 50.7601C113.225 50.7601 114.43 50.7601 114.911 49.863" stroke="#212244" stroke-width="0.360009" stroke-linecap="round" stroke-linejoin="round"/>
<path d="M111.693 44.0804C111.886 43.986 112.101 43.9492 112.314 43.9746C112.527 44 112.728 44.0865 112.893 44.2235" stroke="#212244" stroke-width="0.360009" stroke-linecap="round" stroke-linejoin="round"/>
<path d="M127.247 80.6364L127.836 82.3701C127.836 82.3701 117.656 89.168 114.987 91.875C112.319 94.5821 109.806 97.1269 110.063 98.4757C110.321 99.8244 113.406 119.197 113.406 119.197L117.294 118.917C117.294 118.917 117.542 100.085 118.073 99.6113C118.604 99.1373 134 88.9326 134 88.9326C134 88.9326 135.362 88.6749 136.014 89.0503C136.666 89.4256 140.261 102.923 141.228 103.651C142.195 104.38 154.467 119.28 154.467 119.28L157.712 118.456C157.712 118.456 146.896 98.9306 146.896 98.4152C146.915 98.1289 144.581 87.5997 142.195 80.8146C140.404 75.7249 138.378 73.864 138.378 73.864L127.247 80.6364Z" fill="#212244" stroke="#212244" stroke-width="0.360009" stroke-linecap="round" stroke-linejoin="round"/>
<path d="M137.914 75.7853C137.914 75.7853 139.94 79.418 140.825 80.7477C141.709 82.0774 141.839 85.2807 141.839 85.2807C141.839 85.2807 146.236 97.6867 146.592 99.7734C146.948 101.86 157.016 118.43 157.016 118.43" stroke="white" stroke-width="0.180005" stroke-linecap="round" stroke-linejoin="round"/>
<path d="M128.355 86.4169L134.005 88.9362L129.997 88.4305" stroke="white" stroke-width="0.180005" stroke-linecap="round" stroke-linejoin="round"/>
<path d="M120.651 95.2374L116.573 99.4746C116.573 99.4746 113.074 99.4332 114.146 99.974C114.964 100.421 115.736 100.948 116.452 101.545V118.319" stroke="white" stroke-width="0.180005" stroke-linecap="round" stroke-linejoin="round"/>
<path d="M128.488 81.2981C128.488 81.2981 134.437 80.6841 138.448 74.8469" stroke="white" stroke-width="0.180005" stroke-linecap="round" stroke-linejoin="round"/>
<path d="M131.643 79.2594L132.206 80.57" stroke="white" stroke-width="0.180005" stroke-linecap="round" stroke-linejoin="round"/>
<path d="M135.135 76.9023L135.866 78.0634" stroke="white" stroke-width="0.180005" stroke-linecap="round" stroke-linejoin="round"/>
<path d="M118.611 55.4044C118.611 55.4044 118.102 58.4041 119.161 63.357C120.22 68.3098 127.247 80.649 127.247 80.649L128.37 80.4137C131.535 79.7419 134.421 78.1206 136.641 75.7662L138.406 73.8925C138.406 73.8925 132.044 61.9128 129.601 57.3989C127.158 52.885 123.143 52.6496 121.966 52.5828C120.79 52.516 118.48 54.7236 118.611 55.4044Z" fill="white" stroke="#212244" stroke-width="0.360009" stroke-linecap="round" stroke-linejoin="round"/>
<g style="mix-blend-mode:multiply" opacity="0.5">
<path d="M129.605 57.3863C127.864 54.1544 125.313 53.1206 123.561 52.7675C124.327 53.146 126.691 54.4566 127.75 56.7342C129.022 59.4763 127.359 63.5893 127.359 63.5893C127.359 63.5893 127.359 63.3539 127.34 63.0008C126.474 66.1437 125.037 70.8866 124.009 73.9372L125.301 70.6385L125.889 68.4849L130.206 70.1645L127.954 67.9124C127.954 67.9124 132.655 70.753 133.928 71.93C135.2 73.107 135.591 74.5734 134.907 76.2371C134.538 77.001 134.062 77.7089 133.495 78.3398C134.65 77.6202 135.708 76.7565 136.644 75.7695L138.41 73.8959C138.41 73.8959 132.035 61.8938 129.605 57.3863Z" fill="#00CCA7"/>
</g>
<path d="M126.238 65.3936C126.238 65.3936 128.875 62.8965 130.189 61.7258" stroke="#212244" stroke-width="0.180005" stroke-linecap="round" stroke-linejoin="round"/>
<path d="M130.316 65.1321C130.58 65.0695 130.841 64.992 131.096 64.8999" stroke="#212244" stroke-width="0.180005" stroke-linecap="round" stroke-linejoin="round"/>
<path d="M125.449 65.5074C126.735 65.5667 128.023 65.5081 129.298 65.3324" stroke="#212244" stroke-width="0.180005" stroke-linecap="round" stroke-linejoin="round"/>
<path d="M122.219 51.2372L117.133 54.8127L118.545 56.5781L123.314 52.6464L122.219 51.2372Z" fill="white" stroke="#212244" stroke-width="0.360009" stroke-linecap="round" stroke-linejoin="round"/>
<path d="M128.093 59.9629C127.915 61.6806 123.452 76.4343 122.876 76.8701C122.3 77.3059 103.917 82.1824 103.917 82.1824L102.918 80.7032L118.709 72.862L122.112 57.4976" fill="white"/>
<path d="M128.093 59.9629C127.915 61.6806 123.452 76.4343 122.876 76.8701C122.3 77.3059 103.917 82.1824 103.917 82.1824L102.918 80.7032L118.709 72.862L122.112 57.4976" stroke="#212244" stroke-width="0.360009" stroke-linecap="round" stroke-linejoin="round"/>
<g style="mix-blend-mode:multiply" opacity="0.5">
<path d="M127.347 63.0008C127.303 61.8461 127.175 59.419 126.876 59.8675C126.485 60.456 125.699 65.1544 124.427 68.5835C123.154 72.0127 120.705 73.4791 121.195 73.5777C121.685 73.6764 122.076 75.2414 122.076 75.2414L104.316 82.0743C105.309 81.8103 108.019 81.0882 111.076 80.2611L122.865 76.8701L124.017 73.9372C125.044 70.8866 126.482 66.1437 127.347 63.0008Z" fill="#00CCA7"/>
</g>
<path d="M103.989 82.2845L102.904 80.694L97.6331 79.657C97.5487 79.6337 97.4586 79.645 97.3825 79.6883C97.3065 79.7315 97.2507 79.8032 97.2275 79.8876C97.2043 79.9719 97.2155 80.0621 97.2588 80.1381C97.302 80.2142 97.3737 80.27 97.4581 80.2932L99.3922 81.098L97.9989 82.2527C97.6013 82.5708 95.8803 83.5951 95.7499 83.9927C95.4986 84.7657 96.5356 84.1295 96.7901 84.0372C97.3531 83.8336 97.7094 83.5792 98.6542 83.2102C98.8387 83.4615 96.701 84.6575 96.4561 84.8516C96.3511 84.9311 96.1857 85.0329 96.1762 85.1856C96.1443 85.7804 97.1305 85.1697 97.369 85.0711C98.0371 84.7911 98.6923 84.4826 99.3572 84.2027C98.8928 84.5494 98.1134 84.9438 97.6458 85.2906C97.4301 85.4128 97.2238 85.5511 97.0287 85.7041C96.7901 85.9522 96.9905 86.2226 97.3468 86.1145C97.7286 85.9564 98.0968 85.767 98.4474 85.5482C98.9818 85.2587 99.2777 84.9947 99.8121 84.7053C99.424 85.0074 99.2363 85.2301 98.8578 85.5291C98.7083 85.6468 98.3647 85.8472 98.2915 86.0317C98.0466 86.668 99.4558 85.7868 99.6148 85.6723C100.168 85.2747 100.817 84.9502 101.336 84.5271C101.409 84.4667 102.182 83.6937 102.188 83.7L103.989 82.2845Z" fill="white" stroke="#212244" stroke-width="0.180005" stroke-linecap="round" stroke-linejoin="round"/>
<path d="M118.454 59.8041L115.588 55.5924" stroke="#212244" stroke-width="0.180005" stroke-linecap="round" stroke-linejoin="round"/>
<path d="M118.159 59.667L114.965 56.9822" stroke="#212244" stroke-width="0.180005" stroke-linecap="round" stroke-linejoin="round"/>
<path d="M113.406 119.209L113.119 119.528L111.096 121.687C111.096 121.687 106.544 123.332 106.506 123.968C106.468 124.605 111.373 124.248 112.868 124.124C114.363 124 116.138 122.613 116.138 122.613C116.138 122.613 118.031 122.931 118.327 121.468C118.623 120.005 117.296 118.942 117.296 118.942L113.406 119.209Z" fill="white" stroke="#212244" stroke-width="0.360009" stroke-linecap="round" stroke-linejoin="round"/>
<path d="M154.467 119.283C153.891 120.508 153.386 121.766 152.953 123.049C152.431 124.719 150.704 125.253 151.499 126.15C152.294 127.047 154.238 126.519 155.841 124.49C157.444 122.46 158.974 121.7 159.022 120.854C159.07 120.008 157.712 118.459 157.712 118.459L154.467 119.283Z" fill="white" stroke="#212244" stroke-width="0.360009" stroke-linecap="round" stroke-linejoin="round"/>
<path d="M151.5 126.151C152.627 126.118 153.715 125.727 154.605 125.034C155.957 123.905 157.086 121.649 157.875 121.086L158.667 120.52" stroke="#212244" stroke-width="0.180005" stroke-linecap="round" stroke-linejoin="round"/>
<path d="M106.988 123.794C106.988 123.794 111.388 123.342 113.194 123.116C115.001 122.89 115.564 121.65 116.127 121.525C116.69 121.401 117.934 120.959 117.934 120.959" stroke="#212244" stroke-width="0.180005" stroke-linecap="round" stroke-linejoin="round"/>
<path d="M6.60354 100.066C6.60354 100.066 2.28051 105.032 3.1044 111.909C3.92829 118.787 11.2256 122.384 11.2256 122.384L20.1579 104.905C20.1579 104.905 15.6536 100.451 18.8219 94.8048C18.8251 94.7889 11.3465 95.7209 6.60354 100.066Z" fill="white" stroke="#212244" stroke-width="0.360009" stroke-linecap="round" stroke-linejoin="round"/>
<g style="mix-blend-mode:multiply" opacity="0.5">
<path d="M6.60354 100.066C6.60354 100.066 2.28051 105.032 3.1044 111.909C3.92829 118.787 11.2256 122.384 11.2256 122.384L20.1579 104.905C20.1579 104.905 15.6536 100.451 18.8219 94.8048C18.8251 94.7889 11.3465 95.7209 6.60354 100.066Z" fill="#00CCA7"/>
</g>
<path d="M45.1639 87.1413C45.1639 87.1413 39.5462 87.3131 37.6598 88.2261C35.7735 89.139 23.5742 97.8232 16.5918 107.948C14.222 111.384 13.3599 113.286 13.045 114.209C12.8378 114.817 12.5989 115.414 12.3293 115.996C11.5531 117.682 10.2648 121.153 10.7387 124.76C11.4068 129.809 14.3556 134.733 25.6896 136.826C37.0236 138.919 41.3276 130.464 41.6107 126.857C41.6107 126.857 69.1712 128.845 86.2851 130.782C103.399 132.719 109.087 131.644 114.816 133.906C120.545 136.167 121.948 137.64 124.359 137.678C126.77 137.717 133.746 129.926 133.921 127.668C134.096 125.409 131.771 122.2 131.03 121.99C130.288 121.78 121.324 108.515 121.324 108.515C121.324 108.515 120.92 105.909 116.995 103.788C113.069 101.666 93.5411 95.7556 82.8655 92.8068C72.19 89.8579 50.6194 87.1127 45.1639 87.1413Z" fill="white" stroke="#212244" stroke-width="0.360009" stroke-linecap="round" stroke-linejoin="round"/>
<g style="mix-blend-mode:multiply" opacity="0.5">
<path d="M132.863 124.067C130.469 122.856 127.951 121.906 125.353 121.236L93.043 112.384L50.4553 104.969C50.4553 104.969 32.7528 102.106 24.8575 105.923C19.2398 108.646 13.5044 117.54 10.6606 122.448C10.6171 123.217 10.6448 123.988 10.7433 124.751C11.4113 129.8 14.3601 134.724 25.6941 136.817C37.0281 138.91 41.3321 130.455 41.6152 126.848C41.6152 126.848 69.1757 128.836 86.2896 130.773C103.404 132.71 109.091 131.635 114.82 133.897C120.549 136.159 121.952 137.631 124.363 137.67C126.775 137.708 133.751 129.917 133.926 127.659C134.034 126.536 133.499 125.174 132.863 124.067Z" fill="#00CCA7"/>
</g>
<path d="M13.2559 117.832C13.2559 117.832 21.377 104.838 29.4791 103.947C37.5812 103.056 63.3253 106.88 63.3253 106.88" stroke="#212244" stroke-width="0.360009" stroke-linecap="round" stroke-linejoin="round"/>
<path d="M66.0059 107.382C66.0059 107.382 81.8824 109.676 102.677 114.928C123.471 120.18 131.876 123.103 133.011 124.099" stroke="#212244" stroke-width="0.360009" stroke-linecap="round" stroke-linejoin="round"/>
<path d="M81.498 96.1091C81.498 96.1091 115.471 104.921 117.619 105.799C118.88 106.301 119.988 107.123 120.835 108.184" fill="white"/>
<path d="M81.498 96.1091C81.498 96.1091 115.471 104.921 117.619 105.799C118.88 106.301 119.988 107.123 120.835 108.184" stroke="#212244" stroke-width="0.360009" stroke-linecap="round" stroke-linejoin="round"/>
<path d="M38.9663 88.9327L30.2598 101.584C30.2598 101.584 42.5481 101.326 75.0042 106.575L75.7549 94.9767C75.7549 94.9767 60.0756 90.1256 53.6022 89.623C47.1288 89.1204 38.9663 88.9327 38.9663 88.9327Z" fill="#212244" stroke="#212244" stroke-width="0.360009" stroke-linecap="round" stroke-linejoin="round"/>
<path d="M30.4121 101.584C31.0769 101.584 33.9844 101.584 39.7135 102.051L33.6695 96.6434L33.2719 97.2192L30.4121 101.584Z" fill="white" stroke="#212244" stroke-width="0.360009" stroke-linecap="round" stroke-linejoin="round"/>
<path d="M38.9659 88.9327L37.3086 91.3408L51.706 103.263C55.3737 103.699 59.5663 104.246 64.3219 104.937C66.0079 105.127 67.7606 105.333 69.5802 105.554L49.7051 89.359C44.2623 89.0504 38.9659 88.9327 38.9659 88.9327Z" fill="white" stroke="#212244" stroke-width="0.360009" stroke-linecap="round" stroke-linejoin="round"/>
<path d="M76.3352 97.4099L76.2207 104.262C77.913 104.173 80.5565 104.23 82.4619 105.216C82.6401 102.871 82.2833 100.516 81.4185 98.3292L76.3352 97.4099Z" fill="white" stroke="#212244" stroke-width="0.360009" stroke-miterlimit="10"/>
<path d="M81.0994 97.5981C80.7366 96.8397 80.3043 96.1166 79.8079 95.4382L76.3787 94.7161L76.3438 96.8664L81.0994 97.5981Z" fill="white" stroke="#212244" stroke-width="0.360009" stroke-miterlimit="10"/>
<path d="M76.2056 105.21L76.1738 107.119L82.011 108.019C82.1961 107.334 82.3249 106.635 82.3959 105.929C81.3303 105.474 79.3517 104.924 76.2056 105.21Z" fill="white" stroke="#212244" stroke-width="0.360009" stroke-miterlimit="10"/>
<path d="M89.5032 97.9954C89.5032 97.9954 86.2426 97.1906 85.6859 97.2256C85.1293 97.2606 84.9766 98.199 84.9766 98.199L86.144 100.505C86.144 100.505 85.9563 100.887 87.655 101.415C89.3537 101.943 90.836 102.051 91.0269 101.835C91.2178 101.619 91.17 100.976 91.2941 100.432C91.4182 99.8881 90.2889 98.059 89.5032 97.9954Z" fill="white" stroke="#212244" stroke-width="0.360009" stroke-linecap="round" stroke-linejoin="round"/>
<path d="M91.6398 102.042C91.6398 102.042 88.3952 100.998 87.8385 101.033C87.2818 101.068 86.7188 102.214 86.7188 102.214C86.7188 102.214 87.1291 105.092 87.4981 105.439C87.8671 105.786 91.4426 106.613 91.9929 106.658C92.5432 106.702 92.7564 106.005 92.8104 105.296C92.8645 104.587 92.2569 102.245 91.6398 102.042Z" fill="white" stroke="#212244" stroke-width="0.360009" stroke-linecap="round" stroke-linejoin="round"/>
<path d="M92.8724 106.569C92.8724 106.569 88.7625 105.459 88.3712 105.427C87.98 105.395 87.4169 106.461 87.4805 106.699C87.5441 106.938 87.4551 109.072 87.4551 109.072L93.8426 110.345L93.3591 107.383C93.3591 107.383 93.3718 107.24 92.8724 106.569Z" fill="white" stroke="#212244" stroke-width="0.360009" stroke-linecap="round" stroke-linejoin="round"/>
<path d="M92.5994 98.8705L92.1445 99.7039L93.5283 102.265C93.5283 102.265 93.5696 102.745 94.8898 103.082C96.2099 103.419 98.6211 103.928 98.6211 103.928C98.6211 103.928 99.3114 103.19 99.1778 102.863C99.0442 102.535 97.5873 100.127 96.967 99.7644C96.3467 99.4017 92.7807 98.4761 92.5994 98.8705Z" fill="white" stroke="#212244" stroke-width="0.360009" stroke-linecap="round" stroke-linejoin="round"/>
<path d="M94.8835 103.082C94.6742 103.415 94.5125 103.776 94.4032 104.154C94.3809 104.472 94.8135 107.036 95.4784 107.653C96.1432 108.27 99.9859 108.715 100.536 108.757C101.087 108.798 101.233 107.942 101.281 107.312C101.328 106.683 100.473 104.478 99.8682 104.115C99.2638 103.753 95.7678 102.929 95.7678 102.929C95.7678 102.929 95.1571 102.63 94.8835 103.082Z" fill="white" stroke="#212244" stroke-width="0.360009" stroke-linecap="round" stroke-linejoin="round"/>
<path d="M101.591 108.801C101.474 108.704 101.34 108.628 101.196 108.579C100.315 108.277 97.0131 107.179 96.4436 107.478C95.782 107.822 95.5593 108.674 95.5816 109.387C95.6079 109.897 95.6739 110.404 95.7788 110.904L102.599 112.79L102.007 109.533C101.956 109.247 101.807 108.988 101.584 108.801H101.591Z" fill="white" stroke="#212244" stroke-width="0.360009" stroke-linecap="round" stroke-linejoin="round"/>
<path d="M99.6598 100.684L99.4785 102.017C99.4785 102.017 100.197 103.97 100.964 104.269C101.731 104.568 105.309 105.398 105.545 105.414C105.78 105.43 106.318 104.606 106.276 104.126C106.235 103.645 104.893 101.581 104.126 101.263C103.359 100.945 100.236 100.407 100.236 100.407C100.236 100.407 99.5326 100.28 99.6598 100.684Z" fill="white" stroke="#212244" stroke-width="0.360009" stroke-linecap="round" stroke-linejoin="round"/>
<path d="M102.608 104.475L101.924 106.161C101.924 106.161 102.818 108.922 102.945 109.326C103.072 109.73 108.057 110.754 108.305 110.614C108.553 110.475 109.123 110.28 109.049 109.167C108.976 108.054 107.443 105.404 106.823 105.277C106.202 105.149 103.562 104.469 103.323 104.45C103.085 104.431 102.713 104.167 102.608 104.475Z" fill="white" stroke="#212244" stroke-width="0.360009" stroke-linecap="round" stroke-linejoin="round"/>
<path d="M104.501 109.686C104.501 109.686 103.658 111.363 103.832 112.167C103.954 112.697 104.126 113.213 104.345 113.71L111.095 115.422C111.095 115.422 110.293 112.511 110.14 111.547C109.988 110.583 108.273 110.138 106.88 109.712C105.487 109.285 104.38 109.203 104.501 109.686Z" fill="white" stroke="#212244" stroke-width="0.360009" stroke-linecap="round" stroke-linejoin="round"/>
<path d="M106.742 102.185L106.637 103.521C106.637 103.521 108.281 105.785 108.723 106.215C109.166 106.644 112.751 107.319 113.072 107.265C113.393 107.211 113.533 106.431 113.412 105.948C113.291 105.464 111.551 103.428 110.867 103.139C110.184 102.849 107.317 101.991 107.317 101.991C107.317 101.991 106.541 101.695 106.742 102.185Z" fill="white" stroke="#212244" stroke-width="0.360009" stroke-linecap="round" stroke-linejoin="round"/>
<path d="M109.819 106.381C109.819 106.381 109.364 108.165 109.587 108.34C109.809 108.515 110.796 111.124 111.33 111.404C111.864 111.684 115.752 112.539 116.235 112.418C116.719 112.297 116.792 111.353 116.537 110.542C116.283 109.73 114.708 107.631 113.789 107.243C113.13 106.966 110.535 106.355 110.535 106.355C110.535 106.355 110.007 105.999 109.819 106.381Z" fill="white" stroke="#212244" stroke-width="0.360009" stroke-linecap="round" stroke-linejoin="round"/>
<path d="M115.705 112.155C115.705 112.155 113.319 111.258 112.915 111.385C112.511 111.512 112.012 112.816 111.992 113.055C111.973 113.294 112.864 116.128 112.864 116.128L119.207 117.966C119.207 117.966 119.207 117.807 119.207 116.78C119.207 115.752 117.68 113.023 117.384 112.762C117.089 112.501 115.705 112.155 115.705 112.155Z" fill="white" stroke="#212244" stroke-width="0.360009" stroke-linecap="round" stroke-linejoin="round"/>
<path d="M114.094 104.338C113.977 104.747 113.891 105.164 113.837 105.585C113.802 106.056 115.185 107.589 115.863 108.038C116.54 108.486 119.874 109.377 120.11 109.396C120.345 109.415 120.956 108.671 120.539 107.923C119.871 106.944 119.024 106.1 118.042 105.436C117.275 104.981 114.886 104.319 114.094 104.338Z" fill="#00CCA7" stroke="#212244" stroke-width="0.360009" stroke-linecap="round" stroke-linejoin="round"/>
<path d="M117.484 108.556C117.343 108.879 117.237 109.216 117.166 109.562C117.144 109.88 118.69 112.371 119.053 112.794C119.415 113.217 122.841 113.958 123.232 113.99C123.624 114.022 124.505 113.929 124.187 112.8C123.869 111.671 122.914 109.851 121.986 109.543C121.057 109.234 119.361 108.706 118.588 108.487C117.815 108.267 117.484 108.556 117.484 108.556Z" fill="#00CCA7" stroke="#212244" stroke-width="0.360009" stroke-linecap="round" stroke-linejoin="round"/>
<path d="M120.832 113.328C120.476 113.889 120.239 114.517 120.135 115.173C120.068 116.038 120.771 118.15 121.446 118.672C122.12 119.194 126.691 120.425 126.691 120.425C126.691 120.425 127.114 119.032 127.261 118.173C127.407 117.314 125.085 114.6 124.875 114.27C124.665 113.939 121.389 113.293 120.832 113.328Z" fill="#00CCA7" stroke="#212244" stroke-width="0.360009" stroke-linecap="round" stroke-linejoin="round"/>
<path d="M129.553 131.559C127.921 131.129 125.373 130.779 124.425 129.332C123.477 127.885 122.412 125.995 112.776 125.248C103.141 124.5 38.1239 115.37 31.4883 115.017C24.8527 114.664 19.693 122.582 19.693 122.582C19.693 122.582 15.6404 122.114 13.1305 121.309C12.3326 121.052 11.5978 120.629 10.9738 120.069C10.633 121.608 10.5545 123.193 10.7416 124.758C11.4096 129.806 14.3584 134.73 25.6925 136.823C37.0265 138.916 41.3304 130.461 41.6135 126.854C41.6135 126.854 69.174 128.842 86.288 130.779C103.402 132.717 109.09 131.641 114.819 133.903C120.548 136.165 121.951 137.638 124.362 137.676C125.825 137.698 128.952 134.854 131.236 132.106C130.609 131.877 129.999 131.676 129.553 131.559Z" fill="#212244" stroke="#212244" stroke-width="0.360009" stroke-linecap="round" stroke-linejoin="round"/>
<path d="M18.6418 124.458C18.6418 124.458 16.6346 128.848 15.8457 131.208" stroke="white" stroke-width="0.270007" stroke-linecap="round" stroke-linejoin="round"/>
<path d="M21.3262 123.001C21.3262 123.001 32.9274 125.721 40.1293 126.583" stroke="white" stroke-width="0.270007" stroke-linecap="round" stroke-linejoin="round"/>
<path d="M30.2589 101.584C30.2589 101.584 23.0602 96.7835 17.188 96.3286C11.3159 95.8737 6.60156 100.066 6.60156 100.066C6.60156 100.066 21.0625 87.4058 25.0357 86.9572C29.0088 86.5087 34.197 86.0029 38.9654 88.9486L30.2589 101.584Z" fill="white" stroke="#212244" stroke-width="0.360009" stroke-linecap="round" stroke-linejoin="round"/>
</svg>
