<svg xmlns="http://www.w3.org/2000/svg" width="20.512" height="8.733" viewBox="0 0 20.512 8.733">
  <g id="Group_1968" data-name="Group 1968" transform="translate(0 0)">
    <path id="Path_2268" data-name="Path 2268" d="M124.566,411.74h-1.52l-.609-1.913h-2.779l-.575,1.913h-1.49l2.7-8.445h1.485Zm-2.58-3.341-.959-3.134-.941,3.134Z" transform="translate(-117.593 -403.151)" fill="#34495e"/>
    <path id="Path_2269" data-name="Path 2269" d="M125.278,403.3h2.781a4.335,4.335,0,0,1,1.6.207,1.767,1.767,0,0,1,.78.732,2.371,2.371,0,0,1,.045,2.29,1.779,1.779,0,0,1-.707.728,1.875,1.875,0,0,1,.966.749,2.3,2.3,0,0,1,.349,1.291,2.65,2.65,0,0,1-.444,1.558,1.822,1.822,0,0,1-1.052.786,10.808,10.808,0,0,1-1.958.1h-2.362Zm1.4,1.4v1.953h.924a9.974,9.974,0,0,0,1.028-.029.873.873,0,0,0,.561-.3,1.01,1.01,0,0,0,.2-.665,1.034,1.034,0,0,0-.164-.608.685.685,0,0,0-.4-.291,8.412,8.412,0,0,0-1.343-.058Zm0,3.359v2.252h1.3a4.07,4.07,0,0,0,1.1-.089.82.82,0,0,0,.408-.35,1.23,1.23,0,0,0,.164-.664,1.214,1.214,0,0,0-.176-.681.9.9,0,0,0-.468-.368,4.49,4.49,0,0,0-1.2-.1Z" transform="translate(-117.572 -403.151)" fill="#34495e"/>
    <path id="Path_2270" data-name="Path 2270" d="M136.709,408.635l1.358.524a3.787,3.787,0,0,1-1.057,2.071,2.65,2.65,0,0,1-1.82.654,2.7,2.7,0,0,1-2.2-1.043,5.028,5.028,0,0,1-.971-3.249,5.272,5.272,0,0,1,.978-3.381,2.774,2.774,0,0,1,2.284-1.06,2.638,2.638,0,0,1,1.954.794,3.45,3.45,0,0,1,.821,1.677l-1.387.4a1.86,1.86,0,0,0-.529-1.051,1.333,1.333,0,0,0-.935-.366,1.492,1.492,0,0,0-1.256.668,3.843,3.843,0,0,0-.485,2.207,4.087,4.087,0,0,0,.473,2.27,1.444,1.444,0,0,0,1.23.674,1.273,1.273,0,0,0,.96-.43A2.723,2.723,0,0,0,136.709,408.635Z" transform="translate(-117.554 -403.151)" fill="#34495e"/>
  </g>
</svg>
