<svg xmlns="http://www.w3.org/2000/svg" width="25.754" height="25.753" viewBox="0 0 25.754 25.753">
  <path id="App_White" data-name="App White" d="M9.475,1.5H2.821A2.216,2.216,0,0,0,.608,3.717v6.655a2.216,2.216,0,0,0,2.213,2.212H9.475a2.216,2.216,0,0,0,2.213-2.212V3.717A2.216,2.216,0,0,0,9.475,1.5M25.715,5.479,21.008.775a2.216,2.216,0,0,0-3.129,0l-.65.651L13.174,5.479a2.217,2.217,0,0,0,0,3.129l.652.651,3.4,3.405.652.651a2.213,2.213,0,0,0,3.129,0L25.063,9.26l.652-.65a2.214,2.214,0,0,0,0-3.129M9.475,14.8H2.821A2.216,2.216,0,0,0,.608,17.014v6.655a2.216,2.216,0,0,0,2.213,2.213H9.475a2.216,2.216,0,0,0,2.213-2.213V17.014A2.216,2.216,0,0,0,9.475,14.8m13.3,0H16.117A2.216,2.216,0,0,0,13.9,17.014v6.655a2.216,2.216,0,0,0,2.213,2.213h6.655a2.216,2.216,0,0,0,2.213-2.213V17.014A2.216,2.216,0,0,0,22.772,14.8" transform="translate(-0.608 -0.128)" fill="#299dd8"/>
</svg>
