<svg xmlns="http://www.w3.org/2000/svg" viewBox="0 0 25.75 25.75"><defs><style>.cls-1{fill:#fff;}</style></defs><g id="Layer_2" data-name="Layer 2"><g id="Layer_1-2" data-name="Layer 1"><path id="App_White" data-name="App White" class="cls-1" d="M8.87,1.37H2.21A2.22,2.22,0,0,0,0,3.59v6.65a2.23,2.23,0,0,0,2.21,2.22H8.87a2.23,2.23,0,0,0,2.21-2.22V3.59A2.22,2.22,0,0,0,8.87,1.37m16.24,4L20.4.65a2.2,2.2,0,0,0-3.13,0l-.65.65L12.57,5.35a2.2,2.2,0,0,0,0,3.13l.65.65,3.4,3.41.65.65a2.22,2.22,0,0,0,3.13,0l4.05-4.06.66-.65a2.22,2.22,0,0,0,0-3.13M8.87,14.67H2.21A2.21,2.21,0,0,0,0,16.89v6.65a2.21,2.21,0,0,0,2.21,2.21H8.87a2.21,2.21,0,0,0,2.21-2.21V16.89a2.21,2.21,0,0,0-2.21-2.22m13.3,0H15.51a2.22,2.22,0,0,0-2.22,2.22v6.65a2.21,2.21,0,0,0,2.21,2.21h6.66a2.21,2.21,0,0,0,2.21-2.21V16.89a2.23,2.23,0,0,0-2.21-2.22"/></g></g></svg>