<svg xmlns="http://www.w3.org/2000/svg" width="16.153" height="15.239" viewBox="0 0 16.153 15.239">
  <path id="Path_2237" data-name="Path 2237" d="M306.688,294.23h-9.823l3.81-3.645a1.52,1.52,0,0,0,0-2.076,1.356,1.356,0,0,0-1.982,0l-6.344,6.152a1.4,1.4,0,0,0-.413,1.028v.018a1.4,1.4,0,0,0,.413,1.028l6.338,6.152a1.359,1.359,0,0,0,1.984,0,1.519,1.519,0,0,0,0-2.076l-3.812-3.643h9.825a1.438,1.438,0,0,0,1.4-1.469A1.42,1.42,0,0,0,306.688,294.23Z" transform="translate(-291.935 -288.078)" fill="#34495e"/>
</svg>
