<svg id="Automate_White" data-name="Automate White" xmlns="http://www.w3.org/2000/svg" width="25.754" height="25.754" viewBox="0 0 25.754 25.754">
  <g id="Group_1815" data-name="Group 1815" transform="translate(0 0)">
    <path id="Path_2152" data-name="Path 2152" d="M214.4,217.977l-2.951.843,2.728.779.223.064,2.951-.843Z" transform="translate(-201.302 -207.409)" fill="#299dd8"/>
    <path id="Path_2153" data-name="Path 2153" d="M264.388,242.889l3.418-.977v-3.965l-3.418.977Z" transform="translate(-251.023 -226.19)" fill="#299dd8"/>
    <path id="Path_2154" data-name="Path 2154" d="M199.15,241.912l3.418.977v-3.965l-3.418-.977Z" transform="translate(-189.729 -226.19)" fill="#299dd8"/>
    <path id="Path_2155" data-name="Path 2155" d="M65.463,57.645a.282.282,0,0,1,.235-.232l3.376-.527V55.5L65.7,54.977a.282.282,0,0,1-.235-.232,10.986,10.986,0,0,0-.523-1.927.282.282,0,0,1,.09-.317l2.689-2.135L67,49.148l-3.192,1.266a.282.282,0,0,1-.325-.087,8.732,8.732,0,0,0-1.422-1.422.282.282,0,0,1-.087-.326l1.266-3.192-1.218-.714L59.89,47.362a.282.282,0,0,1-.317.09,8.848,8.848,0,0,0-1.915-.493.282.282,0,0,1-.244-.237l-.528-3.4h-1.38l-.528,3.4a.282.282,0,0,1-.244.237,8.854,8.854,0,0,0-1.915.493.282.282,0,0,1-.317-.09l-2.135-2.689-1.218.714,1.266,3.192a.282.282,0,0,1-.087.326,8.739,8.739,0,0,0-1.422,1.422.282.282,0,0,1-.325.087l-3.192-1.266-.714,1.218L47.363,52.5a.282.282,0,0,1,.09.317,8.852,8.852,0,0,0-.493,1.915.282.282,0,0,1-.237.244l-3.4.528v1.407l3.4.5a.282.282,0,0,1,.239.244,8.857,8.857,0,0,0,.493,1.915.282.282,0,0,1-.09.317l-2.688,2.135.714,1.218,3.192-1.266a.282.282,0,0,1,.325.087,8.735,8.735,0,0,0,1.422,1.422.282.282,0,0,1,.087.326L49.149,67l1.218.714L52.5,65.028a.282.282,0,0,1,.317-.09,10.981,10.981,0,0,0,1.927.523.282.282,0,0,1,.232.235l.527,3.376h1.381l.527-3.376a.282.282,0,0,1,.232-.235,10.984,10.984,0,0,0,1.927-.523.282.282,0,0,1,.317.09l2.135,2.689L63.243,67l-1.266-3.192a.282.282,0,0,1,.087-.326,8.731,8.731,0,0,0,1.422-1.422.282.282,0,0,1,.325-.087L67,63.242l.714-1.218L65.029,59.89a.282.282,0,0,1-.09-.317A10.981,10.981,0,0,0,65.463,57.645ZM49.143,56.2a.282.282,0,0,1-.564,0A7.626,7.626,0,0,1,56.2,48.578a.282.282,0,1,1,0,.564A7.061,7.061,0,0,0,49.143,56.2ZM56.2,63.813a7.637,7.637,0,0,1-5.625-2.481.282.282,0,0,1,.417-.381,7.071,7.071,0,0,0,5.209,2.3.282.282,0,0,1,0,.564Zm4.458-4.571a.282.282,0,0,1-.2.271L56.5,60.642l-.021,0-.014,0a.283.283,0,0,1-.042,0,.276.276,0,0,1-.042,0l-.014,0-.021,0-3.95-1.129a.282.282,0,0,1-.2-.271V54.728a.276.276,0,0,1,0-.041l0-.012a.275.275,0,0,1,.008-.031l0-.009a.277.277,0,0,1,.016-.036l0-.008.017-.027.007-.009a.3.3,0,0,1,.025-.028l0,0L52.3,54.5l.006,0,.01-.007.027-.016.009,0a.264.264,0,0,1,.038-.014h0l3.95-1.129a.283.283,0,0,1,.155,0l3.95,1.129h0a.278.278,0,0,1,.038.014l.01,0,.027.016.01.007.006,0,.025.021,0,0a.29.29,0,0,1,.025.028l.007.009a.267.267,0,0,1,.017.026l0,.009a.281.281,0,0,1,.016.036l0,.009a.273.273,0,0,1,.008.031l0,.012a.283.283,0,0,1,0,.041v4.514Zm1.05,2.215a.282.282,0,1,1-.408-.39,7.053,7.053,0,0,0,0-9.745.282.282,0,0,1,.408-.39,7.618,7.618,0,0,1,0,10.524Z" transform="translate(-43.319 -43.318)" fill="#299dd8"/>
  </g>
</svg>
