<svg xmlns="http://www.w3.org/2000/svg" viewBox="0 0 25.75 25.75"><defs><style>.cls-1{fill:#2a9dd8;}</style></defs><g id="Layer_2" data-name="Layer 2"><g id="Layer_1-2" data-name="Layer 1"><g id="Group_1815" data-name="Group 1815"><path id="Path_2152" data-name="Path 2152" class="cls-1" d="M13.09,10.56l-2.95.85,2.73.78.22.06L16,11.41Z"/><path id="Path_2153" data-name="Path 2153" class="cls-1" d="M13.36,16.7l3.42-1v-4l-3.42,1Z"/><path id="Path_2154" data-name="Path 2154" class="cls-1" d="M9.42,15.72l3.41,1v-4l-3.41-1Z"/><path id="Path_2155" data-name="Path 2155" class="cls-1" d="M22.14,14.32a.28.28,0,0,1,.24-.23l3.37-.53V12.18l-3.37-.52a.3.3,0,0,1-.24-.24,10.69,10.69,0,0,0-.52-1.92.28.28,0,0,1,.09-.32L24.4,7l-.72-1.21L20.49,7.09A.28.28,0,0,1,20.16,7a9.08,9.08,0,0,0-1.42-1.42.27.27,0,0,1-.09-.32l1.27-3.2L18.7,1.35,16.57,4a.28.28,0,0,1-.32.09,8.46,8.46,0,0,0-1.92-.49.3.3,0,0,1-.24-.24L13.56,0H12.18l-.53,3.4a.28.28,0,0,1-.24.24,8.38,8.38,0,0,0-1.91.49A.28.28,0,0,1,9.18,4L7,1.35l-1.21.72L7.09,5.26A.27.27,0,0,1,7,5.58,9.15,9.15,0,0,0,5.58,7a.28.28,0,0,1-.32.08L2.07,5.83,1.35,7,4,9.18a.28.28,0,0,1,.09.32,8.38,8.38,0,0,0-.49,1.91.29.29,0,0,1-.24.24L0,12.18v1.41l3.4.5a.29.29,0,0,1,.24.24,9,9,0,0,0,.49,1.92.28.28,0,0,1-.09.32L1.35,18.7l.72,1.22,3.19-1.27a.3.3,0,0,1,.33.09A8.3,8.3,0,0,0,7,20.16a.29.29,0,0,1,.08.33L5.83,23.68,7,24.39l2.14-2.68a.25.25,0,0,1,.31-.09,11.7,11.7,0,0,0,1.93.52.28.28,0,0,1,.23.23l.53,3.38h1.38l.53-3.38a.28.28,0,0,1,.23-.23,11.7,11.7,0,0,0,1.93-.52.25.25,0,0,1,.31.09L18.7,24.4l1.22-.72-1.27-3.19a.3.3,0,0,1,.09-.33,8.3,8.3,0,0,0,1.42-1.42.3.3,0,0,1,.33-.09l3.19,1.27.71-1.22-2.68-2.13a.27.27,0,0,1-.09-.32A11.44,11.44,0,0,0,22.14,14.32ZM5.82,12.88a.29.29,0,0,1-.28.28.28.28,0,0,1-.28-.28,7.62,7.62,0,0,1,7.62-7.62.28.28,0,0,1,.28.28.29.29,0,0,1-.28.28h0A7.06,7.06,0,0,0,5.82,12.88Zm7.06,7.61A7.64,7.64,0,0,1,7.25,18a.28.28,0,1,1,.42-.38,7.08,7.08,0,0,0,5.21,2.3.29.29,0,0,1,.28.28.28.28,0,0,1-.28.28Zm4.46-4.57a.3.3,0,0,1-.2.27l-4,1.13H13L9.07,16.19a.29.29,0,0,1-.2-.27v-4.6h0l0,0h0v0h0l0,0H9l0,0H9l0,0h0L13,10h.15l4,1.13h0l0,0h.05l0,0h0l0,0h0l0,0h0s0,0,0,0h0a0,0,0,0,1,0,0h0v4.55Zm1.05,2.22a.28.28,0,0,1-.4,0,.26.26,0,0,1,0-.39A7.07,7.07,0,0,0,18,8a.28.28,0,0,1,0-.4.28.28,0,0,1,.4,0,7.62,7.62,0,0,1,0,10.52Z"/></g></g></g></svg>