<svg xmlns="http://www.w3.org/2000/svg" width="23.95" height="25.754" viewBox="0 0 23.95 25.754"><defs><style>.a{fill:#fff;fill-rule:evenodd;}</style></defs><path class="a" d="M18.3,14.782a5.611,5.611,0,1,1-5.611,5.611A5.622,5.622,0,0,1,18.3,14.782ZM13.241,24.4C7.732,25.217,0,24.225,0,21.385V17.04a2.31,2.31,0,0,1,.068-.479C2.361,18.34,7.6,18.991,12.077,18.546a8.029,8.029,0,0,0-.239,1.848A6.331,6.331,0,0,0,13.241,24.4Zm5.372-10.5V10.163c0-.1-.034-.171-.034-.239C14.951,12.8,3.661,12.8.034,9.924A.507.507,0,0,0,0,10.163v4.345c0,2.7,7.014,3.729,12.454,3.113A6.463,6.463,0,0,1,18.3,13.893Zm0-10.333V7.905c0,4.379-18.612,4.379-18.612,0V3.56C0-.853,18.612-.853,18.612,3.56Zm.924,20.46H17.107V21.591H14.712V19.162h2.395V16.767h2.429v2.395h2.395v2.429H19.536Z" transform="translate(0 -0.25)"/></svg>