<svg xmlns="http://www.w3.org/2000/svg" viewBox="0 0 23.91 25.75"><defs><style>.cls-1{fill:#2a9dd8;fill-rule:evenodd;}</style></defs><g id="Layer_2" data-name="Layer 2"><g id="Layer_1-2" data-name="Layer 1"><path id="Path_2157" data-name="Path 2157" class="cls-1" d="M18.3,14.53a5.61,5.61,0,1,1-5.61,5.61h0A5.63,5.63,0,0,1,18.3,14.53Zm-5.06,9.62C7.73,25,0,24,0,21.13V16.79a2.65,2.65,0,0,1,.07-.48c2.29,1.78,7.53,2.43,12,2a8.14,8.14,0,0,0-.24,1.84A6.34,6.34,0,0,0,13.24,24.15Zm5.38-10.5V9.91c0-.1,0-.17,0-.24C15,12.55,3.66,12.55,0,9.67a.51.51,0,0,0,0,.24v4.35C0,17,7,18,12.46,17.37a6.48,6.48,0,0,1,5.84-3.73Zm0-10.33V7.65C18.62,12,0,12,0,7.65V3.31c0-4.41,18.61-4.41,18.61,0Zm.92,20.46H17.11V21.34h-2.4V18.91h2.4V16.52h2.43v2.39h2.39v2.43H19.54Z"/></g></g></svg>