<svg xmlns="http://www.w3.org/2000/svg" viewBox="0 0 25.76 25.75"><defs><style>.cls-1{fill:#2a9dd8;}</style></defs><g id="Layer_2" data-name="Layer 2"><g id="Layer_1-2" data-name="Layer 1"><path id="Path_2163" data-name="Path 2163" class="cls-1" d="M1.13,22.44c0,.11.08.21.13.32a.47.47,0,0,1-.08.53l-.49.49L2,25.07l.49-.49A.47.47,0,0,1,3,24.5l.32.13a.46.46,0,0,1,.32.43v.69H5.45v-.68a.49.49,0,0,1,.32-.44l.32-.13a.47.47,0,0,1,.54.08l.49.49L8.4,23.78l-.49-.49a.45.45,0,0,1-.08-.53A3.05,3.05,0,0,0,8,22.44a.46.46,0,0,1,.44-.32h.69V20.3H8.4A.45.45,0,0,1,8,20c0-.11-.09-.21-.14-.31a.47.47,0,0,1,.08-.54l.49-.49L7.11,17.35l-.48.49a.47.47,0,0,1-.54.08l-.32-.13a.48.48,0,0,1-.32-.43v-.69H3.64v.69a.47.47,0,0,1-.33.43L3,17.92a.47.47,0,0,1-.54-.08L2,17.35.69,18.64l.49.49a.47.47,0,0,1,.08.53,1.79,1.79,0,0,0-.13.32.47.47,0,0,1-.44.32H0v1.82H.69A.47.47,0,0,1,1.13,22.44Zm3.41-3.05a1.82,1.82,0,1,1-1.81,1.82,1.82,1.82,0,0,1,1.81-1.82Z"/><path id="Path_2164" data-name="Path 2164" class="cls-1" d="M1.13,5.77a3.05,3.05,0,0,0,.13.32.47.47,0,0,1-.08.53l-.49.49L2,8.4l.49-.49A.47.47,0,0,1,3,7.83L3.32,8a.47.47,0,0,1,.32.43v.7H5.45V8.4A.48.48,0,0,1,5.77,8l.32-.13a.49.49,0,0,1,.54.07l.49.49L8.4,7.11l-.49-.49a.45.45,0,0,1-.08-.53A3.05,3.05,0,0,0,8,5.77a.47.47,0,0,1,.43-.32h.7V3.64H8.4A.47.47,0,0,1,8,3.31c0-.1-.09-.21-.14-.31a.45.45,0,0,1,.08-.53L8.4,2,7.11.69l-.49.49a.47.47,0,0,1-.53.08,1.79,1.79,0,0,0-.32-.13A.49.49,0,0,1,5.45.69V0H3.64V.69a.5.5,0,0,1-.33.44A2,2,0,0,0,3,1.26a.47.47,0,0,1-.54-.08L2,.69.69,2l.49.49A.47.47,0,0,1,1.26,3a1.79,1.79,0,0,0-.13.32.47.47,0,0,1-.44.32H0V5.45H.69A.49.49,0,0,1,1.13,5.77Zm3.41-3A1.82,1.82,0,1,1,2.73,4.54,1.81,1.81,0,0,1,4.54,2.73Z"/><path id="Path_2165" data-name="Path 2165" class="cls-1" d="M22.57,14.9H19.43a2.28,2.28,0,0,1-1.91-1.05L16.15,16.6a4.54,4.54,0,0,0,2.87,1h3.55V19l3.18-2.73-3.18-2.73Z"/><path id="Path_2166" data-name="Path 2166" class="cls-1" d="M15.2,16.7l2.2-4.41a2.27,2.27,0,0,1,2-1.25h3.14V12.4l3.18-2.73L22.57,7V8.31H19A4.54,4.54,0,0,0,15,10.82l-2.21,4.41a2.27,2.27,0,0,1-2,1.26H8.49v2.72h2.64A4.53,4.53,0,0,0,15.2,16.7Z"/><path id="Path_2167" data-name="Path 2167" class="cls-1" d="M13.53,11.18l.57,1.14.83-1.65A5.21,5.21,0,0,1,15.8,9.4a4.54,4.54,0,0,0-3.89-2.2H9.27V9.92H11.5A2.27,2.27,0,0,1,13.53,11.18Z"/><rect id="Rectangle_999" data-name="Rectangle 999" class="cls-1" x="7.35" y="7.55" height="3.22"/><rect id="Rectangle_1000" data-name="Rectangle 1000" class="cls-1" x="5.04" y="7.55" width="2.41" height="3.22"/><polygon id="Rectangle_1002" data-name="Rectangle 1002" class="cls-1" points="5.04 15.97 7.46 15.97 7.46 15.97 5.04 15.97"/></g></g></svg>