<svg xmlns="http://www.w3.org/2000/svg" width="36.807" height="41.561" viewBox="0 0 36.807 41.561">
  <g id="Group_1276" data-name="Group 1276" transform="translate(18288 -1249)">
    <g id="Group_1275" data-name="Group 1275" transform="translate(-18288 1249)">
      <path id="Path_9857" data-name="Path 9857" d="M120.122,260.328c0-1.119-.777-1.787-2.148-1.787a4.7,4.7,0,0,0-1.137.108v3.594a4.263,4.263,0,0,0,.92.072C119.219,262.314,120.122,261.574,120.122,260.328Z" transform="translate(-110.397 -239.033)"/>
      <path id="Path_9858" data-name="Path 9858" d="M257.6,259.019a5.731,5.731,0,0,0-1.246.108v7.962a4.994,4.994,0,0,0,.958.055c2.491.017,4.116-1.354,4.116-4.261A3.49,3.49,0,0,0,257.6,259.019Z" transform="translate(-239.39 -239.475)"/>
      <path id="Path_9859" data-name="Path 9859" d="M65.981,14.866h-1V10.051a.7.7,0,0,0-.009-.091.8.8,0,0,0-.193-.528L56.768.279s0,0-.006-.006A.809.809,0,0,0,56.6.137c-.017-.012-.035-.022-.053-.032a.84.84,0,0,0-.161-.068c-.015,0-.029-.01-.044-.014A.813.813,0,0,0,56.154,0H36.461a1.631,1.631,0,0,0-1.63,1.63V14.866h-1A2.329,2.329,0,0,0,31.5,17.2V29.309a2.33,2.33,0,0,0,2.33,2.329h1v8.292a1.632,1.632,0,0,0,1.63,1.63H63.353a1.632,1.632,0,0,0,1.63-1.63V31.638h1a2.33,2.33,0,0,0,2.329-2.329V17.2A2.33,2.33,0,0,0,65.981,14.866ZM36.461,1.63H55.339V9.969a.815.815,0,0,0,.815.815h7.2v4.083H36.461ZM56.469,23.317a6.168,6.168,0,0,1-2.024,4.93c-.154.128-.509.372-.509.372a17.6,17.6,0,0,1-5.1,1.2,23.921,23.921,0,0,1-3.124-.18V17.684a24.623,24.623,0,0,1,3.72-.252,7.834,7.834,0,0,1,4.983,1.3A5.385,5.385,0,0,1,56.469,23.317ZM35.216,29.692V17.684a22.62,22.62,0,0,1,3.72-.252,5.834,5.834,0,0,1,3.719.975,3.556,3.556,0,0,1,1.3,2.817,3.885,3.885,0,0,1-1.119,2.889,5.641,5.641,0,0,1-3.954,1.282,6.89,6.89,0,0,1-.938-.055v4.351H35.216Zm28.137,9.8H36.461V31.638H63.353V39.49Zm2.362-19.711H61.038v2.781h4.37V24.8h-4.37v4.893H58.276V17.522h7.439Z" transform="translate(-31.504)"/>
      <rect id="Rectangle_2235" data-name="Rectangle 2235" width="32" height="15" transform="translate(2.506 15.38)"/>
    </g>
    <text id="udf" transform="translate(-18270.494 1276.38)" fill="#fff" font-size="12" font-family="Roboto-Bold, Roboto" font-weight="700"><tspan x="-11.136" y="0">UDF</tspan></text>
  </g>
</svg>
