<svg xmlns="http://www.w3.org/2000/svg" width="25.754" height="25.754" viewBox="0 0 25.754 25.754"><defs><style>.a{fill:#fff;}</style></defs><path class="a" d="M3.126,47.773q.059.163.131.318a.466.466,0,0,1-.08.534l-.489.489L3.973,50.4l.489-.489A.467.467,0,0,1,5,49.829c.1.049.209.093.318.131a.467.467,0,0,1,.321.434v.692H7.453V50.4a.466.466,0,0,1,.321-.434q.163-.059.318-.131a.466.466,0,0,1,.534.08l.489.489L10.4,49.115l-.489-.489a.467.467,0,0,1-.08-.534c.049-.1.093-.209.131-.318a.467.467,0,0,1,.434-.321h.692V45.635H10.4a.466.466,0,0,1-.434-.321Q9.9,45.151,9.83,45a.466.466,0,0,1,.08-.534l.489-.489L9.115,42.688l-.489.489a.467.467,0,0,1-.534.08c-.1-.049-.209-.093-.318-.131a.467.467,0,0,1-.321-.434V42H5.635v.692a.466.466,0,0,1-.321.434q-.163.059-.318.131a.466.466,0,0,1-.534-.08l-.489-.489L2.688,43.973l.489.489a.467.467,0,0,1,.08.534c-.049.1-.093.209-.131.318a.467.467,0,0,1-.434.321H2v1.818h.692A.466.466,0,0,1,3.126,47.773Zm3.417-3.047a1.818,1.818,0,1,1-1.818,1.818A1.818,1.818,0,0,1,6.544,44.726Z" transform="translate(-2 -25.333)"/><path class="a" d="M3.126,7.773q.059.163.131.318a.466.466,0,0,1-.08.534l-.489.489L3.973,10.4l.489-.489A.467.467,0,0,1,5,9.829c.1.049.209.093.318.131a.467.467,0,0,1,.321.434v.692H7.453V10.4a.466.466,0,0,1,.321-.434q.163-.059.318-.131a.466.466,0,0,1,.534.08l.489.489L10.4,9.115,9.91,8.625a.467.467,0,0,1-.08-.534c.049-.1.093-.209.131-.318a.467.467,0,0,1,.434-.321h.692V5.635H10.4a.466.466,0,0,1-.434-.321Q9.9,5.151,9.83,5a.466.466,0,0,1,.08-.534l.489-.489L9.115,2.688l-.49.489a.467.467,0,0,1-.534.08c-.1-.049-.209-.093-.318-.131a.467.467,0,0,1-.321-.434V2H5.635v.692a.466.466,0,0,1-.321.434c-.108.039-.214.083-.318.132a.467.467,0,0,1-.534-.08l-.489-.489L2.688,3.973l.489.489A.467.467,0,0,1,3.258,5c-.049.1-.093.209-.132.318a.466.466,0,0,1-.434.321H2V7.453h.692A.466.466,0,0,1,3.126,7.773ZM6.544,4.726A1.818,1.818,0,1,1,4.726,6.544,1.818,1.818,0,0,1,6.544,4.726Z" transform="translate(-2 -2)"/><path class="a" d="M47.287,35.363h-3.14a2.269,2.269,0,0,1-1.909-1.047l-1.375,2.75a4.541,4.541,0,0,0,2.87,1.024h3.553v1.363l3.181-2.726L47.287,34Z" transform="translate(-24.713 -20.466)"/><path class="a" d="M30.709,28.757l2.206-4.411a2.272,2.272,0,0,1,2.032-1.256h3.14v1.363l3.181-2.726L38.086,19v1.363H34.533a4.543,4.543,0,0,0-4.064,2.512l-2.206,4.411a2.272,2.272,0,0,1-2.032,1.256H24v2.726h2.645A4.544,4.544,0,0,0,30.709,28.757Z" transform="translate(-15.512 -12.053)"/><path class="a" d="M28.263,22.982l.568,1.136.825-1.649a5.5,5.5,0,0,1,.871-1.265A4.535,4.535,0,0,0,26.645,19H24v2.726h2.231A2.272,2.272,0,0,1,28.263,22.982Z" transform="translate(-14.731 -11.802)"/><rect class="a" height="3.219" transform="translate(7.352 7.552)"/><rect class="a" width="2.414" height="3.219" transform="translate(5.042 7.552)"/><rect class="a" transform="translate(7.352 15.975)"/><rect class="a" width="2.414" transform="translate(5.042 15.975)"/></svg>