<svg xmlns="http://www.w3.org/2000/svg" width="19.361" height="16.753" viewBox="0 0 19.361 16.753">
  <g id="Group_1492" data-name="Group 1492" transform="translate(6176.145 -12691.225)">
    <path id="Path_10067" data-name="Path 10067" d="M-7436,13138h18.361v15.753H-7436Z" transform="translate(1260.355 -446.276)" fill="none" stroke="#010101" stroke-width="1"/>
    <path id="Path_10068" data-name="Path 10068" d="M-6940,13138v5.765" transform="translate(778.208 -446.276)" fill="none" stroke="#010101" stroke-width="1"/>
    <path id="Path_10077" data-name="Path 10077" d="M-6940,13138v5.765" transform="translate(778.208 -436.31)" fill="none" stroke="#010101" stroke-width="1"/>
    <path id="Path_10070" data-name="Path 10070" d="M-7436,13276h3.6" transform="translate(1260.354 -576.399)" fill="none" stroke="#010101" stroke-width="1"/>
    <path id="Path_10076" data-name="Path 10076" d="M-7436,13276h3.6" transform="translate(1260.354 -572.377)" fill="none" stroke="#010101" stroke-width="1"/>
    <path id="Path_10079" data-name="Path 10079" d="M-7436,13276h3.6" transform="translate(1260.354 -580.421)" fill="none" stroke="#010101" stroke-width="1"/>
    <path id="Path_10074" data-name="Path 10074" d="M-7436,13276h2.875" transform="translate(1275.841 -576.399)" fill="none" stroke="#010101" stroke-width="1"/>
    <path id="Path_10075" data-name="Path 10075" d="M-7436,13276h8.351" transform="translate(1270.366 -572.377)" fill="none" stroke="#010101" stroke-width="1"/>
    <path id="Path_10078" data-name="Path 10078" d="M-7436,13276h8.351" transform="translate(1270.366 -580.523)" fill="none" stroke="#010101" stroke-width="1"/>
    <path id="Path_10072" data-name="Path 10072" d="M-7279.563,13138v5.865h-1.2v3.615h1.2v6.25h-5.036V13138Z" transform="translate(1113.183 -446.276)" fill="#d8d8d8" stroke="#010101" stroke-width="1"/>
    <path id="Path_10073" data-name="Path 10073" d="M-7118.6,13319.925h2.682v1.985l3.161-2.682-3.161-2.93v1.824h-2.682Z" transform="translate(951.821 -619.594)" fill="none" stroke="#010101" stroke-width="1"/>
  </g>
</svg>
