<svg id="image" xmlns="http://www.w3.org/2000/svg" width="19.747" height="12.694" viewBox="0 0 19.747 12.694">
  <path id="Path_2257" data-name="Path 2257" d="M41.888,112c-3.544,0-6.338,2.23-9.679,5.875a.7.7,0,0,0,0,.939c2.86,3.16,5.382,5.88,9.683,5.88,4.249,0,7.436-3.425,9.7-5.906a.691.691,0,0,0,.022-.912C49.3,115.076,46.106,112,41.888,112Zm.194,10.309a3.967,3.967,0,1,1,3.777-3.777A3.968,3.968,0,0,1,42.082,122.309Z" transform="translate(-32.025 -112)" fill="#162534"/>
  <path id="Path_2258" data-name="Path 2258" d="M194.837,192.749a2.071,2.071,0,0,1,.137-.745c-.044,0-.088,0-.137,0a2.821,2.821,0,1,0,2.821,2.821c0-.057,0-.115,0-.172a1.954,1.954,0,0,1-.8.172A2.046,2.046,0,0,1,194.837,192.749Z" transform="translate(-184.965 -188.474)" fill="#162534"/>
</svg>
