<svg xmlns="http://www.w3.org/2000/svg" width="15.313" height="18.716" viewBox="0 0 15.313 18.716">
  <path id="flip" d="M13.209,18.014h1.7v-1.7h-1.7Zm3.4-10.209h1.7V6.1h-1.7ZM3,4.4v11.91a1.706,1.706,0,0,0,1.7,1.7H8.1v-1.7H4.7V4.4H8.1V2.7H4.7A1.706,1.706,0,0,0,3,4.4ZM16.612,2.7V4.4h1.7A1.706,1.706,0,0,0,16.612,2.7ZM9.806,19.716h1.7V1h-1.7Zm6.806-5.1h1.7v-1.7h-1.7ZM13.209,4.4h1.7V2.7h-1.7Zm3.4,6.806h1.7v-1.7h-1.7Zm0,6.806a1.706,1.706,0,0,0,1.7-1.7h-1.7Z" transform="translate(-3 -1)" fill="#34495e"/>
</svg>
