<svg xmlns="http://www.w3.org/2000/svg" width="30" height="22.102" viewBox="0 0 30 22.102">
  <g id="Group_1991" data-name="Group 1991" transform="translate(-635 -638.949)">
    <path id="Path_2222" data-name="Path 2222" d="M650.114,644.621a.121.121,0,0,0,.068-.021l2.321-1.513a1.066,1.066,0,0,1,.583-.174h10.482V641.35a.6.6,0,0,0-.595-.6H648.027v-.517a1.289,1.289,0,0,0-1.289-1.288h-9.12a1.289,1.289,0,0,0-1.289,1.288v4.384Z" fill="#fbcf61"/>
    <path id="Path_2223" data-name="Path 2223" d="M664.405,643.712H653.086a.6.6,0,0,0-.325.1l-2.322,1.514a.593.593,0,0,1-.325.1H635.595a.6.6,0,0,0-.594.628l.844,14.442a.6.6,0,0,0,.594.561H663.56a.594.594,0,0,0,.594-.565L665,644.338A.594.594,0,0,0,664.405,643.712Z" fill="#fbcf61"/>
  </g>
</svg>
