<svg xmlns="http://www.w3.org/2000/svg" width="17.628" height="17.628" viewBox="0 0 17.628 17.628">
  <path id="Path_2235" data-name="Path 2235" d="M273.333,287.469h-14.1a1.768,1.768,0,0,0-1.763,1.763v14.1a1.769,1.769,0,0,0,1.763,1.763h14.1a1.771,1.771,0,0,0,1.763-1.763v-14.1A1.769,1.769,0,0,0,273.333,287.469Zm-10.577,15.865h-3.526v-3.526h3.526Zm0-5.288h-3.526V294.52h3.526Zm0-5.288h-3.526v-3.526h3.526Zm5.288,10.577h-3.526v-3.526h3.526Zm0-5.288h-3.526V294.52h3.526Zm0-5.288h-3.526v-3.526h3.526Zm5.288,10.577h-3.526v-3.526h3.526Zm0-5.288h-3.526V294.52h3.526Zm0-5.288h-3.526v-3.526h3.526Z" transform="translate(-257.468 -287.469)" fill="#34495e"/>
</svg>
