<svg xmlns="http://www.w3.org/2000/svg" viewBox="0 0 25.83 25.83"><defs><style>.cls-1{fill:#fff;}</style></defs><g id="Layer_2" data-name="Layer 2"><g id="Layer_1-2" data-name="Layer 1"><g id="image"><path id="Path_2303" data-name="Path 2303" class="cls-1" d="M12.91,1.74A11.16,11.16,0,1,1,5,5a11.18,11.18,0,0,1,7.9-3.27m0-1.74A12.92,12.92,0,1,0,25.83,12.92,12.91,12.91,0,0,0,12.91,0Z"/><path id="Path_2304" data-name="Path 2304" class="cls-1" d="M13,7.54c2.1,0,3.55,1.16,3.55,2.84a2.76,2.76,0,0,1-1.57,2.49c-1,.56-1.31,1-1.31,1.7V15H11.67v-.48A2.33,2.33,0,0,1,13,12.06c.95-.57,1.35-.92,1.35-1.62a1.37,1.37,0,0,0-1.51-1.2h0a1.42,1.42,0,0,0-1.5,1.33v0h-2C9.37,8.81,10.7,7.54,13,7.54Zm-1.47,9.6a1.2,1.2,0,1,1,1.25,1.15h-.05a1.17,1.17,0,0,1-1.2-1.15Z"/></g></g></g></svg>