<svg xmlns="http://www.w3.org/2000/svg" width="25.831" height="25.831" viewBox="0 0 25.831 25.831">
  <g id="image_8_" data-name="image (8)" transform="translate(-48 -48)">
    <path id="Path_2303" data-name="Path 2303" d="M60.915,49.739a11.172,11.172,0,1,1-7.9,3.272,11.1,11.1,0,0,1,7.9-3.272m0-1.739A12.915,12.915,0,1,0,73.831,60.915,12.913,12.913,0,0,0,60.915,48Z" transform="translate(0 0)" fill="#299dd8"/>
    <path id="Path_2304" data-name="Path 2304" d="M195.626,160c2.1,0,3.547,1.166,3.547,2.841a2.741,2.741,0,0,1-1.575,2.488c-.975.566-1.306.981-1.306,1.7v.443h-1.945l-.017-.482a2.333,2.333,0,0,1,1.323-2.466c.947-.566,1.345-.925,1.345-1.62a1.36,1.36,0,0,0-1.507-1.2,1.418,1.418,0,0,0-1.5,1.379H192C192.039,161.272,193.373,160,195.626,160Zm-1.474,9.605a1.2,1.2,0,1,1,1.2,1.154A1.174,1.174,0,0,1,194.152,169.605Z" transform="translate(-134.671 -104.464)" fill="#299dd8"/>
  </g>
</svg>
