<svg xmlns="http://www.w3.org/2000/svg" xmlns:xlink="http://www.w3.org/1999/xlink" width="39.68" height="44.994" viewBox="0 0 39.68 44.994">
  <defs>
    <linearGradient id="linear-gradient" x1="0.111" y1="0.843" x2="0.889" y2="0.157" gradientUnits="objectBoundingBox">
      <stop offset="0" stop-color="#fff"/>
      <stop offset="1" stop-color="#1eaacb"/>
    </linearGradient>
  </defs>
  <g id="Group_1950" data-name="Group 1950" transform="translate(-2191 -547.667)">
    <path id="Path_2265" data-name="Path 2265" d="M2230.68,560.317v-.135a2.6,2.6,0,0,0-2.6-2.6h-.135a2.585,2.585,0,0,0-1.511.486L2213.5,550.6c.005-.065.01-.13.01-.2v-.135a2.6,2.6,0,0,0-2.6-2.6h-.135a2.6,2.6,0,0,0-2.6,2.6v.135c0,.066.005.131.01.2l-12.936,7.469a2.584,2.584,0,0,0-1.51-.486h-.135a2.6,2.6,0,0,0-2.6,2.6v.135a2.6,2.6,0,0,0,1.567,2.386v14.921A2.6,2.6,0,0,0,2191,580.01v.135a2.6,2.6,0,0,0,2.6,2.6h.135a2.584,2.584,0,0,0,1.51-.486l12.936,7.469c0,.065-.01.13-.01.2v.135a2.6,2.6,0,0,0,2.6,2.6h.135a2.6,2.6,0,0,0,2.6-2.6v-.135c0-.066,0-.131-.01-.2l12.936-7.469a2.584,2.584,0,0,0,1.511.486h.135a2.6,2.6,0,0,0,2.6-2.6v-.135a2.6,2.6,0,0,0-1.568-2.386V562.7A2.6,2.6,0,0,0,2230.68,560.317Zm-19.406,27.036c-1.636-2.708-3.2-8.845-3.2-17.189,0-1.294.04-2.531.109-3.714q-1.108-.558-2.138-1.018c-.114,1.555-.172,3.145-.172,4.732,0,6.715,1.029,13.48,3.024,17.434l-11.921-6.883a24.518,24.518,0,0,0,8.359-1.951c-.1-.74-.188-1.5-.263-2.263-4.264,1.727-7.543,2.26-9.286,1.91a2.6,2.6,0,0,0-1.014-.786V562.7a2.605,2.605,0,0,0,1.017-.789c2.664-.531,8.917,1,16.772,5.69q1.573.94,2.966,1.892,1-.7,1.88-1.377c-1.2-.836-2.445-1.644-3.716-2.4-6.451-3.854-12.688-6.1-16.714-6.1l11.919-6.882a28.608,28.608,0,0,0-2.333,8.139q1.028.424,2.093.921a25.449,25.449,0,0,1,2.622-8.816,2.586,2.586,0,0,0,1.146-.458l12.936,7.469c-.005.065-.01.13-.01.2v.135a2.58,2.58,0,0,0,.135.822c-1.356,2.759-5.77,7.312-12.922,11.585q-1.67,1-3.237,1.806.087,1.236.217,2.358c1.359-.678,2.749-1.438,4.149-2.274,5.7-3.406,10.937-7.756,13.225-11.493v14.092a27.818,27.818,0,0,0-5.887-6.341q-.882.706-1.8,1.38c3.281,2.689,5.388,5.181,6.25,6.943a2.6,2.6,0,0,0-.132.815v.135c0,.066,0,.131.01.2l-12.936,7.469A2.587,2.587,0,0,0,2211.273,587.353Z" fill="url(#linear-gradient)"/>
  </g>
</svg>
