<svg xmlns="http://www.w3.org/2000/svg" width="21.775" height="21.465" viewBox="0 0 21.775 21.465">
  <g id="Page-1" transform="translate(-221.344 -194.064)">
    <g id="_006---Edit-Folder" data-name="006---Edit-Folder" transform="translate(221.844 194.564)">
      <path id="Path_2299" data-name="Path 2299" d="M228.2,214a.646.646,0,1,1,0-1.292h11.757a1.374,1.374,0,0,0,1.369-1.369v-9.741a1.373,1.373,0,0,0-1.369-1.369h-9.741a.647.647,0,0,1,0-1.294h9.094v-.361a.7.7,0,0,0-.7-.7h-6.046a.648.648,0,0,1-.646-.647v-.672a.7.7,0,0,0-.7-.7h-7.391a.7.7,0,0,0-.7.7v14.108a.647.647,0,0,1-1.293,0V196.554a2,2,0,0,1,1.989-1.99h7.391a2,2,0,0,1,1.99,1.99v.025h5.4a2,2,0,0,1,1.99,1.99v.445a2.68,2.68,0,0,1,2.016,2.578v9.742A2.668,2.668,0,0,1,239.957,214Z" transform="translate(-221.844 -194.564)" fill="#34495e" stroke="rgba(0,0,0,0)" stroke-width="1"/>
      <path id="Path_2300" data-name="Path 2300" d="M229.025,201.926a.647.647,0,0,1,0-1.294h1.344a.647.647,0,0,1,0,1.294Z" transform="translate(-223.677 -196.266)" fill="#34495e" stroke="rgba(0,0,0,0)" stroke-width="1"/>
      <path id="Shape" d="M223.487,213.9h0l-1.166,3.109a.67.67,0,0,0,.626.907.679.679,0,0,0,.239-.044l3.108-1.166a.33.33,0,0,0,.12-.076l6.887-6.889.95-.951.714-.712a1.346,1.346,0,0,0,0-1.9l-.951-.951a1.377,1.377,0,0,0-1.9,0l-.712.712-.951.951-6.888,6.888a.317.317,0,0,0-.075.12Zm-.54,3.344.982-2.62.819.819.819.818Zm9.641-11.54a.689.689,0,0,1,.95,0l.95.951a.671.671,0,0,1,0,.95l-.475.475-.95-.95-.95-.951Zm-.95.951.95.95.95.95-.475.475-.95-.949-.95-.95Zm-.951.95.713.712-2.375,2.375a.336.336,0,1,0,.475.475l2.375-2.375.713.713-6.413,6.413-.713-.712,2.851-2.85a.336.336,0,0,0-.476-.475l-2.85,2.85-.712-.712Z" transform="translate(-221.965 -197.447)" fill="#34495e" stroke="rgba(0,0,0,0)" stroke-width="1"/>
    </g>
  </g>
</svg>
