<svg xmlns="http://www.w3.org/2000/svg" viewBox="0 0 25.75 21.69"><defs><style>.cls-1{fill:#2a9dd8;}</style></defs><g id="Layer_2" data-name="Layer 2"><g id="Layer_1-2" data-name="Layer 1"><path id="Path_2063" data-name="Path 2063" class="cls-1" d="M11.06,2.5,6.06,0l-5,2.5,5,2.5Z"/><path id="Path_2064" data-name="Path 2064" class="cls-1" d="M18.9,14.09l-5.2,2.6v5l5.2-2.6Z"/><path id="Path_2065" data-name="Path 2065" class="cls-1" d="M14.69,2.5l5,2.5,5-2.5-5-2.5Z"/><path id="Path_2066" data-name="Path 2066" class="cls-1" d="M20.55,11.44l5.2-2.6v-5l-5.2,2.6Z"/><path id="Path_2067" data-name="Path 2067" class="cls-1" d="M12.05,3.85l-5.2,2.6v5l5.2-2.6Z"/><path id="Path_2068" data-name="Path 2068" class="cls-1" d="M18.9,6.45l-5.2-2.6v5l5.2,2.6Z"/><path id="Path_2069" data-name="Path 2069" class="cls-1" d="M17.87,12.77l-5-2.5-5,2.5,5,2.5Z"/><path id="Path_2070" data-name="Path 2070" class="cls-1" d="M6.85,19.09l5.2,2.6v-5l-5.2-2.6Z"/><path id="Path_2071" data-name="Path 2071" class="cls-1" d="M0,8.84l5.2,2.6v-5L0,3.84Z"/></g></g></svg>