<svg xmlns="http://www.w3.org/2000/svg" width="17.128" height="17.128" viewBox="0 0 17.128 17.128">
  <path id="Path_2239" data-name="Path 2239" d="M332.632,289.555a4.918,4.918,0,0,1,3.467,1.43l-2.487,2.487h5.876V287.6L337.48,289.6a6.849,6.849,0,0,0-11.625,3.868h1.978A4.9,4.9,0,0,1,332.632,289.555Zm5.523,8.951a6.745,6.745,0,0,0,1.254-3.075h-1.978a4.9,4.9,0,0,1-8.265,2.487l2.487-2.487h-5.876v5.876l2.008-2.008a6.848,6.848,0,0,0,8.9.676l4.76,4.75,1.459-1.459Z" transform="translate(-325.777 -287.596)" fill="#34495e"/>
</svg>
