<?xml version="1.0" encoding="iso-8859-1"?>
<!-- Generator: Adobe Illustrator 19.0.0, SVG Export Plug-In . SVG Version: 6.00 Build 0)  -->
<svg version="1.1" id="Layer_1" xmlns="http://www.w3.org/2000/svg" xmlns:xlink="http://www.w3.org/1999/xlink" x="0px" y="0px"
	 viewBox="0 0 469.336 469.336" style="enable-background:new 0 0 469.336 469.336;" xml:space="preserve">
<g>
	<g>
		<g>
			<path d="M266.668,149.336h42.667c5.896,0,10.667-4.771,10.667-10.667V32.002c0-5.896-4.771-10.667-10.667-10.667h-42.667
				c-5.896,0-10.667,4.771-10.667,10.667v106.667C256.001,144.565,260.772,149.336,266.668,149.336z"/>
			<path d="M466.21,88.461L380.876,3.127c-3.042-3.052-7.646-3.969-11.625-2.313c-3.979,1.646-6.583,5.542-6.583,9.854v138.667
				c0,23.531-19.146,42.667-42.667,42.667h-192c-23.521,0-42.667-19.135-42.667-42.667V10.669c0-5.896-4.771-10.667-10.667-10.667
				h-32c-23.521,0-42.667,19.135-42.667,42.667v384c0,23.531,19.146,42.667,42.667,42.667h384c23.521,0,42.667-19.135,42.667-42.667
				V96.002C469.335,93.169,468.21,90.461,466.21,88.461z M405.335,437.336c0,5.896-4.771,10.667-10.667,10.667h-320
				c-5.896,0-10.667-4.771-10.667-10.667v-192c0-5.896,4.771-10.667,10.667-10.667h320c5.896,0,10.667,4.771,10.667,10.667V437.336z
				"/>
		</g>
	</g>
</g>
<g>
</g>
<g>
</g>
<g>
</g>
<g>
</g>
<g>
</g>
<g>
</g>
<g>
</g>
<g>
</g>
<g>
</g>
<g>
</g>
<g>
</g>
<g>
</g>
<g>
</g>
<g>
</g>
<g>
</g>
</svg>
