<svg xmlns="http://www.w3.org/2000/svg" width="16.909" height="19.607" viewBox="0 0 16.909 19.607"><defs><style>.a{fill:#34495e;}</style></defs><path class="a" d="M140.5,81.306V80.227a.18.18,0,0,1,.18-.18h8.634a.18.18,0,0,1,.18.18v1.079a.18.18,0,0,1-.18.18h-8.634A.18.18,0,0,1,140.5,81.306Zm8.814,1.979a.18.18,0,0,1,.18.18v1.079a.18.18,0,0,1-.18.18h-4.137a.18.18,0,0,1-.18-.18V83.465a.18.18,0,0,1,.18-.18Zm-3.238,10.163h5.216V77.619H138.7v7.735a.18.18,0,0,1-.18.18H137.26a.18.18,0,0,1-.18-.18V76.72a.719.719,0,0,1,.72-.72h14.39a.719.719,0,0,1,.72.72V94.348a.719.719,0,0,1-.72.72h-6.116a.18.18,0,0,1-.18-.18V93.628A.18.18,0,0,1,146.074,93.448Zm-10.021,1.158,2.1-2.1a3.961,3.961,0,1,1,.98.917L137,95.555a.175.175,0,0,1-.126.052.181.181,0,0,1-.126-.052l-.7-.7a.178.178,0,0,1,0-.252Zm5.255-1.967a2.518,2.518,0,1,0-2.518-2.518A2.517,2.517,0,0,0,141.307,92.639Z" transform="translate(-136 -76)"/></svg>