<svg xmlns="http://www.w3.org/2000/svg" viewBox="0 0 24 24.14"><defs><style>.cls-1{fill:none;stroke:#fff;stroke-linecap:round;stroke-linejoin:round;}</style></defs><g id="Layer_2" data-name="Layer 2"><g id="Layer_1-2" data-name="Layer 1"><g id="Component_9" data-name="Component 9"><line id="Line_10" data-name="Line 10" class="cls-1" x1="23.5" y1="4.07" x2="18.5" y2="4.07"/><line id="Line_11" data-name="Line 11" class="cls-1" x1="13.5" y1="4.07" x2="0.5" y2="4.07"/><line id="Line_12" data-name="Line 12" class="cls-1" x1="23.5" y1="12.07" x2="7.5" y2="12.07"/><line id="Line_13" data-name="Line 13" class="cls-1" x1="2.5" y1="12.07" x2="0.5" y2="12.07"/><line id="Line_14" data-name="Line 14" class="cls-1" x1="23.5" y1="20.07" x2="18.5" y2="20.07"/><line id="Line_15" data-name="Line 15" class="cls-1" x1="13.5" y1="20.07" x2="0.5" y2="20.07"/><path id="Path_2183" data-name="Path 2183" class="cls-1" d="M14.89,6.81h0a1.58,1.58,0,0,1-1.58-1.58h0V2.08A1.58,1.58,0,0,1,14.89.5h0a1.58,1.58,0,0,1,1.58,1.58h0V5.23a1.58,1.58,0,0,1-1.58,1.58Z"/><path id="Path_2184" data-name="Path 2184" class="cls-1" d="M4.23,15.23h0a1.58,1.58,0,0,1-1.58-1.58h0V10.49A1.58,1.58,0,0,1,4.23,8.91h0a1.58,1.58,0,0,1,1.58,1.58h0v3.16a1.58,1.58,0,0,1-1.58,1.58Z"/><path id="Path_2185" data-name="Path 2185" class="cls-1" d="M14.8,23.64h0a1.58,1.58,0,0,1-1.58-1.58h0V18.91a1.58,1.58,0,0,1,1.58-1.58h0a1.58,1.58,0,0,1,1.58,1.58h0v3.15a1.58,1.58,0,0,1-1.58,1.58Z"/></g></g></g></svg>