<?xml version="1.0" encoding="utf-8"?>
<!-- Generator: Adobe Illustrator 25.3.1, SVG Export Plug-In . SVG Version: 6.00 Build 0)  -->
<svg version="1.1" id="Layer_1" xmlns="http://www.w3.org/2000/svg" xmlns:xlink="http://www.w3.org/1999/xlink" x="0px" y="0px"
	 viewBox="0 0 1000 1000" style="enable-background:new 0 0 1000 1000;" xml:space="preserve">
<style type="text/css">
	.st0{fill:none;stroke:#000000;stroke-width:19;stroke-miterlimit:10;}
</style>
<g>
	<g>
		<g>
			<path d="M401.9,424.9c24.4,0,47.7,0,71.7,0c0,24.3,0,48,0,72.9c-23.3,0-47,0-71.6,0c0,107.7,0,214.2,0,321.5
				c-24.8,0-48.7,0-73.5,0c0-106.7,0-213.2,0-320.6c-25.5,0-50.2,0-75.7,0c0-24.6,0-48.3,0-73.3c24.6,0,49.5,0,75.5,0
				c0-4.4,0-7.7,0-10.9c0-37.6-0.1-75.1,0-112.7c0.2-68.5,53.8-122.1,122.3-122.3c17.2-0.1,34.4,0,52.2,0c0,24.5,0,48.3,0,73.3
				c-15.7,0-31.4-0.4-47,0.2c-7.8,0.3-15.9,0.9-23.1,3.5c-18.4,6.8-30,21-30.5,40.3C401.1,339,401.9,381.3,401.9,424.9z"/>
			<path d="M481.3,820c2.9-4.5,4.6-7.3,6.4-9.9c25.2-37,50.3-74.2,75.9-111c4.6-6.6,4.8-10.8,0.2-17.4c-25.8-37-51-74.4-76.5-111.7
				c-2-2.9-3.8-5.9-6.8-10.6c6.9,0,12.1,0,17.4,0c21.2,0,42.4,0.2,63.6-0.1c5.5-0.1,8.8,1.8,11.8,6.3c11.4,17.2,23.1,34.1,34.8,51.1
				c1.6,2.4,3.5,4.7,5.9,8c13-19,25.9-36.9,37.6-55.5c4.8-7.6,10.2-10.1,19.1-9.9c24.8,0.6,49.6,0.2,76.3,0.2
				c-2.7,4.2-4.4,7.1-6.4,10c-25.8,37.8-51.4,75.6-77.5,113.2c-3.8,5.6-4.1,9.3-0.1,15.1c25.9,37.3,51.4,75,76.9,112.5
				c1.8,2.7,3.4,5.5,6.2,9.8c-7.5,0-13.4,0-19.3,0c-20,0-40-0.3-60,0.1c-6.4,0.1-10.4-1.7-14.1-7.2c-12.4-18.9-25.4-37.5-39.1-57.4
				c-11.3,16.6-23,31.6-32.4,48c-7.6,13.3-16.8,17.9-32,16.9C527.5,818.9,505.4,820,481.3,820z"/>
		</g>
	</g>
	<path class="st0" d="M951.3,977.1H48.7c-14.3,0-25.9-11.6-25.9-25.9V48.7c0-14.3,11.6-25.9,25.9-25.9h902.5
		c14.3,0,25.9,11.6,25.9,25.9v902.5C977.1,965.5,965.5,977.1,951.3,977.1z"/>
</g>
</svg>
