<svg width="16" height="16" viewBox="0 0 16 16" fill="none" xmlns="http://www.w3.org/2000/svg">
<path d="M7.5487 11.3359H8.5487V7.33594H7.5487V11.3359ZM7.9987 6.1026C8.15425 6.1026 8.28481 6.0526 8.39036 5.9526C8.49592 5.8526 8.5487 5.72483 8.5487 5.56927C8.5487 5.41372 8.49592 5.28038 8.39036 5.16927C8.28481 5.05816 8.15425 5.0026 7.9987 5.0026C7.84314 5.0026 7.71259 5.05816 7.60703 5.16927C7.50148 5.28038 7.4487 5.41372 7.4487 5.56927C7.4487 5.72483 7.50148 5.8526 7.60703 5.9526C7.71259 6.0526 7.84314 6.1026 7.9987 6.1026ZM7.9987 14.6693C7.08759 14.6693 6.22648 14.4943 5.41536 14.1443C4.60425 13.7943 3.89592 13.3165 3.29036 12.7109C2.68481 12.1054 2.20703 11.397 1.85703 10.5859C1.50703 9.77483 1.33203 8.90816 1.33203 7.98594C1.33203 7.07483 1.50703 6.21372 1.85703 5.4026C2.20703 4.59149 2.68481 3.88594 3.29036 3.28594C3.89592 2.68594 4.60425 2.21094 5.41536 1.86094C6.22648 1.51094 7.09314 1.33594 8.01536 1.33594C8.92648 1.33594 9.78759 1.51094 10.5987 1.86094C11.4098 2.21094 12.1154 2.68594 12.7154 3.28594C13.3154 3.88594 13.7904 4.59149 14.1404 5.4026C14.4904 6.21372 14.6654 7.08038 14.6654 8.0026C14.6654 8.91371 14.4904 9.77483 14.1404 10.5859C13.7904 11.397 13.3154 12.1054 12.7154 12.7109C12.1154 13.3165 11.4098 13.7943 10.5987 14.1443C9.78759 14.4943 8.92092 14.6693 7.9987 14.6693ZM8.01536 13.6693C9.58203 13.6693 10.9154 13.1165 12.0154 12.0109C13.1154 10.9054 13.6654 9.56371 13.6654 7.98594C13.6654 6.41927 13.1154 5.08594 12.0154 3.98594C10.9154 2.88594 9.57648 2.33594 7.9987 2.33594C6.43203 2.33594 5.09592 2.88594 3.99036 3.98594C2.88481 5.08594 2.33203 6.42483 2.33203 8.0026C2.33203 9.56927 2.88481 10.9054 3.99036 12.0109C5.09592 13.1165 6.43759 13.6693 8.01536 13.6693Z" fill="#888C92"/>
</svg>
