<svg width="36" height="36" viewBox="0 0 36 36" fill="none" xmlns="http://www.w3.org/2000/svg">
<rect x="2" y="2" width="32" height="32" rx="16" fill="#E7FDF2"/>
<path d="M19.3334 11.513V14.2667C19.3334 14.6401 19.3334 14.8268 19.4061 14.9694C19.47 15.0948 19.572 15.1968 19.6974 15.2607C19.84 15.3334 20.0267 15.3334 20.4001 15.3334H23.1538M23.3334 16.6589V21.4667C23.3334 22.5868 23.3334 23.1469 23.1154 23.5747C22.9237 23.951 22.6177 24.257 22.2414 24.4487C21.8136 24.6667 21.2535 24.6667 20.1334 24.6667H15.8667C14.7466 24.6667 14.1866 24.6667 13.7588 24.4487C13.3824 24.257 13.0765 23.951 12.8847 23.5747C12.6667 23.1469 12.6667 22.5868 12.6667 21.4667V14.5334C12.6667 13.4133 12.6667 12.8532 12.8847 12.4254C13.0765 12.0491 13.3824 11.7431 13.7588 11.5514C14.1866 11.3334 14.7466 11.3334 15.8667 11.3334H18.0079C18.4971 11.3334 18.7417 11.3334 18.9719 11.3886C19.176 11.4376 19.371 11.5184 19.55 11.6281C19.7518 11.7518 19.9248 11.9247 20.2707 12.2706L22.3962 14.3961C22.7421 14.742 22.915 14.915 23.0387 15.1168C23.1484 15.2957 23.2292 15.4908 23.2782 15.6949C23.3334 15.9251 23.3334 16.1697 23.3334 16.6589Z" stroke="#00977C" stroke-width="1.33333" stroke-linecap="round" stroke-linejoin="round"/>
<rect x="2" y="2" width="32" height="32" rx="16" stroke="#F0F8F4" stroke-width="4"/>
</svg>
