<svg width="40" height="40" viewBox="0 0 40 40" fill="none" xmlns="http://www.w3.org/2000/svg">
<rect width="40" height="40" rx="20" fill="#F0F8F4"/>
<path d="M22 10.2695V14.4001C22 14.9601 22 15.2401 22.109 15.4541C22.2049 15.6422 22.3578 15.7952 22.546 15.8911C22.7599 16.0001 23.0399 16.0001 23.6 16.0001H27.7305M24 21H16M24 25H16M18 17H16M22 10H16.8C15.1198 10 14.2798 10 13.638 10.327C13.0735 10.6146 12.6146 11.0735 12.327 11.638C12 12.2798 12 13.1198 12 14.8V25.2C12 26.8802 12 27.7202 12.327 28.362C12.6146 28.9265 13.0735 29.3854 13.638 29.673C14.2798 30 15.1198 30 16.8 30H23.2C24.8802 30 25.7202 30 26.362 29.673C26.9265 29.3854 27.3854 28.9265 27.673 28.362C28 27.7202 28 26.8802 28 25.2V16L22 10Z" stroke="#00977C" stroke-width="1.3" stroke-linecap="round" stroke-linejoin="round"/>
</svg>
