<svg width="32" height="32" viewBox="0 0 32 32" fill="none" xmlns="http://www.w3.org/2000/svg">
<rect width="32" height="32" rx="16" fill="#F0F8F4" fill-opacity="0.4"/>
<path d="M9 13.6667H23M9 18.3333H23M12.7333 9H19.2667C20.5735 9 21.2269 9 21.726 9.25432C22.165 9.47802 22.522 9.83498 22.7457 10.274C23 10.7731 23 11.4265 23 12.7333V19.2667C23 20.5735 23 21.2269 22.7457 21.726C22.522 22.165 22.165 22.522 21.726 22.7457C21.2269 23 20.5735 23 19.2667 23H12.7333C11.4265 23 10.7731 23 10.274 22.7457C9.83498 22.522 9.47802 22.165 9.25432 21.726C9 21.2269 9 20.5735 9 19.2667V12.7333C9 11.4265 9 10.7731 9.25432 10.274C9.47802 9.83498 9.83498 9.47802 10.274 9.25432C10.7731 9 11.4265 9 12.7333 9Z" stroke="#00977C" stroke-linecap="round" stroke-linejoin="round"/>
</svg>
